<svg width="952" height="743" viewBox="0 0 952 743" fill="none" xmlns="http://www.w3.org/2000/svg">
<g id="poke-logo-2">
<g id="cards">
<g id="card-4">
<rect id="Rectangle 12" x="623.338" y="161.908" width="271.894" height="409.97" rx="15" transform="rotate(35.2888 623.338 161.908)" fill="#FF842B" stroke="#353535" stroke-width="10"/>
<g id="4 1" clip-path="url(#clip0_132_221)">
<path id="Vector" d="M662.786 411.652C662.519 414.567 661.999 417.454 661.232 420.278C659.625 426.161 656.867 431.664 653.117 436.471C649.367 441.278 644.7 445.293 639.383 448.285C624.537 456.691 605.043 456.245 590.697 446.841C576.283 437.392 568.522 420.145 570.14 403.16C570.645 397.913 572.044 392.794 574.276 388.023C576.748 382.689 580.191 378.064 584.419 374C586.239 372.252 588.162 370.582 590.272 369.242C598.165 364.228 606.763 361.394 616.234 361.434C630.366 361.495 644.274 368.006 653.056 379.162C660.357 388.437 663.401 400.002 662.786 411.652Z" fill="#010101"/>
<path id="Vector_2" d="M641.523 373.812C651.243 380.719 657.692 391.56 658.658 405.488C659.25 414.025 657.246 421.963 652.976 429.354C652.466 430.239 651.834 430.574 650.892 430.598C647.086 430.698 643.329 430.288 639.592 429.57C634.336 428.555 629.197 427.004 624.255 424.942C623.253 424.526 622.271 424.065 621.276 423.636C620.697 423.387 620.518 423.094 620.696 422.39C622.29 416.12 619.63 410.434 613.847 408.035C609.586 406.27 605.539 406.954 601.915 409.759C601.213 410.294 600.873 410.36 600.17 409.74C595.655 405.783 591.624 401.307 588.163 396.404C585.548 392.684 583.302 388.755 581.651 384.507C581.447 383.977 581.557 383.629 581.851 383.216C586.073 377.29 591.76 372.559 598.362 369.484C604.965 366.409 612.257 365.093 619.53 365.665C626.909 366.233 633.682 368.597 641.523 373.812Z" fill="#ED1E25"/>
<path id="Vector_3" d="M644.504 438.571C630.223 451.607 607.539 454.629 590.208 441.285C573.05 428.07 571.203 406.51 576.756 393.54C577.778 395.225 578.76 396.912 579.809 398.557C583.855 404.902 588.754 410.509 594.357 415.527C594.502 415.669 594.656 415.802 594.817 415.925C596.679 417.242 597.496 418.928 597.933 421.281C599.308 428.697 607.036 432.612 614.012 429.747C614.211 429.659 614.428 429.618 614.645 429.628C614.863 429.638 615.075 429.699 615.265 429.806C622.067 433.248 629.291 435.779 636.75 437.334C638.7 437.743 640.682 437.997 642.648 438.314C643.21 438.404 643.778 438.471 644.504 438.571Z" fill="white"/>
<path id="Vector_4" d="M613.615 412.509C617.165 414.859 618.176 419.713 615.844 423.219C613.513 426.725 608.635 427.689 605.107 425.318C604.265 424.762 603.542 424.047 602.977 423.212C602.413 422.377 602.019 421.44 601.817 420.454C601.616 419.467 601.611 418.452 601.804 417.465C601.996 416.479 602.382 415.541 602.939 414.705C605.319 411.102 610.026 410.133 613.615 412.509Z" fill="white"/>
</g>
<g id="Rectangle 13" style="mix-blend-mode:multiply" opacity="0.8">
<rect x="621.514" y="153.745" width="281.894" height="419.97" rx="20" transform="rotate(35.2888 621.514 153.745)" fill="url(#paint0_linear_132_221)"/>
</g>
</g>
<g id="card-3">
<rect id="Rectangle 12_2" x="436.383" y="124.911" width="271.894" height="409.97" rx="15" transform="rotate(12.6093 436.383 124.911)" fill="#FF842B" stroke="#353535" stroke-width="10"/>
<g id="4 1_2" clip-path="url(#clip1_132_221)">
<path id="Vector_5" d="M569.076 340.133C569.954 342.927 570.587 345.79 570.969 348.692C571.754 354.739 571.331 360.88 569.725 366.761C568.118 372.642 565.36 378.147 561.608 382.958C551.151 396.437 532.993 403.543 516.129 400.398C499.187 397.237 485.376 384.316 480.32 368.021C478.763 362.985 478.079 357.722 478.299 352.459C478.524 346.584 479.917 340.99 482.251 335.609C483.256 333.294 484.387 331.013 485.817 328.963C491.167 321.293 498.007 315.363 506.761 311.748C519.824 306.355 535.167 307 547.571 313.907C557.884 319.65 565.152 329.147 569.076 340.133Z" fill="#010101"/>
<path id="Vector_6" d="M534.867 313.419C546.499 316.043 556.63 323.559 562.891 336.038C566.729 343.687 567.94 351.784 566.851 360.25C566.721 361.263 566.267 361.815 565.407 362.201C561.934 363.761 558.309 364.831 554.585 365.609C549.344 366.699 544.004 367.25 538.649 367.253C537.564 367.255 536.48 367.208 535.397 367.196C534.767 367.19 534.489 366.989 534.381 366.27C533.434 359.87 528.787 355.65 522.527 355.666C517.915 355.68 514.444 357.873 512.182 361.858C511.741 362.622 511.452 362.814 510.565 362.513C504.873 360.603 499.428 358.027 494.344 354.838C490.497 352.414 486.91 349.654 483.749 346.371C483.356 345.961 483.323 345.598 483.435 345.103C485.045 338.007 488.469 331.449 493.375 326.066C498.281 320.683 504.502 316.658 511.434 314.381C518.461 312.06 525.622 311.63 534.867 313.419Z" fill="#ED1E25"/>
<path id="Vector_7" d="M562.587 372.02C554.437 389.554 534.672 401.09 513.536 395.46C492.61 389.882 482.592 370.702 482.715 356.594C484.308 357.754 485.864 358.931 487.466 360.045C493.645 364.339 500.328 367.623 507.432 370.094C507.621 370.169 507.814 370.232 508.011 370.284C510.236 370.78 511.64 372.022 512.951 374.024C517.079 380.336 525.719 380.969 531.051 375.636C531.2 375.478 531.384 375.356 531.589 375.282C531.794 375.207 532.013 375.182 532.23 375.207C539.833 375.76 547.474 375.31 554.956 373.869C556.913 373.494 558.84 372.964 560.776 372.499C561.329 372.365 561.879 372.208 562.587 372.02Z" fill="white"/>
<path id="Vector_8" d="M524.037 359.883C528.219 360.683 531.024 364.771 530.224 368.905C529.425 373.039 525.296 375.81 521.126 374.983C520.136 374.794 519.192 374.413 518.349 373.86C517.507 373.308 516.782 372.595 516.216 371.763C515.649 370.93 515.254 369.995 515.051 369.011C514.848 368.026 514.842 367.012 515.033 366.026C515.841 361.784 519.811 359.075 524.037 359.883Z" fill="white"/>
</g>
<g id="Rectangle 13_2" style="mix-blend-mode:multiply" opacity="0.8">
<rect x="431.553" y="118.083" width="281.894" height="419.97" rx="20" transform="rotate(12.6093 431.553 118.083)" fill="url(#paint1_linear_132_221)"/>
</g>
</g>
<g id="card-2">
<rect id="Rectangle 12_3" x="205.954" y="171.052" width="271.894" height="409.97" rx="15" transform="rotate(-11.7462 205.954 171.052)" fill="#FF842B" stroke="#171717" stroke-width="10"/>
<g id="4 1_3" clip-path="url(#clip2_132_221)">
<path id="Vector_9" d="M415.595 312.398C417.546 314.581 419.304 316.928 420.848 319.414C424.058 324.6 426.205 330.369 427.167 336.389C428.129 342.409 427.886 348.561 426.452 354.491C422.485 371.083 408.873 385.045 392.213 389.134C375.475 393.242 357.564 387.166 346.238 374.407C342.743 370.461 339.95 365.948 337.98 361.063C335.762 355.618 334.724 349.947 334.631 344.083C334.592 341.56 334.681 339.015 335.139 336.557C336.849 327.364 340.636 319.141 347.12 312.237C356.796 301.938 371.04 296.198 385.188 297.375C396.951 298.353 407.489 304.008 415.595 312.398Z" fill="#010101"/>
<path id="Vector_10" d="M373.413 302.168C385.093 299.762 397.421 302.432 408.271 311.217C414.922 316.603 419.364 323.48 421.863 331.642C422.163 332.618 421.977 333.309 421.353 334.015C418.832 336.868 415.972 339.338 412.9 341.583C408.575 344.737 403.937 347.441 399.06 349.652C398.072 350.101 397.066 350.506 396.073 350.941C395.497 351.195 395.161 351.127 394.767 350.517C391.264 345.077 385.291 343.148 379.594 345.745C375.398 347.66 373.141 351.088 372.723 355.652C372.637 356.53 372.453 356.824 371.52 356.916C365.548 357.523 359.525 357.421 353.578 356.613C349.074 355.991 344.667 354.957 340.434 353.269C339.907 353.058 339.727 352.741 339.625 352.243C338.166 345.115 338.581 337.729 340.83 330.802C343.079 323.874 347.086 317.642 352.462 312.709C357.907 307.697 364.254 304.351 373.413 302.168Z" fill="#ED1E25"/>
<path id="Vector_11" d="M422.834 344.123C422.64 363.458 409.391 382.118 387.815 385.705C366.45 389.254 349.414 375.912 343.708 363.009C345.637 363.409 347.541 363.84 349.459 364.194C356.86 365.557 364.302 365.793 371.793 365.114C371.996 365.104 372.198 365.082 372.398 365.048C374.63 364.583 376.421 365.135 378.441 366.418C384.805 370.466 392.937 367.48 395.595 360.423C395.665 360.217 395.783 360.03 395.939 359.878C396.095 359.726 396.284 359.612 396.492 359.546C403.646 356.914 410.422 353.352 416.644 348.954C418.272 347.806 419.809 346.529 421.381 345.306C421.83 344.956 422.266 344.587 422.834 344.123Z" fill="white"/>
<path id="Vector_12" d="M382.709 348.964C386.849 347.969 391.09 350.536 392.066 354.632C393.043 358.728 390.423 362.954 386.284 363.921C385.304 364.157 384.287 364.199 383.292 364.043C382.296 363.887 381.341 363.537 380.482 363.012C379.624 362.487 378.877 361.799 378.287 360.986C377.696 360.172 377.272 359.251 377.04 358.273C376.026 354.076 378.525 349.971 382.709 348.964Z" fill="white"/>
</g>
<g id="Rectangle 13_3" style="mix-blend-mode:multiply" opacity="0.8">
<rect x="198.738" y="166.823" width="281.894" height="419.97" rx="20" transform="rotate(-11.7462 198.738 166.823)" fill="url(#paint2_linear_132_221)"/>
</g>
</g>
<g id="card-1">
<rect id="Rectangle 12_4" x="19.4541" y="278.14" width="271.894" height="409.97" rx="15" transform="rotate(-29.674 19.4541 278.14)" fill="#FF842B" stroke="#353535" stroke-width="10"/>
<g id="4 1_4" clip-path="url(#clip3_132_221)">
<path id="Vector_13" d="M262.425 348.092C264.954 349.568 267.349 351.26 269.583 353.15C274.233 357.096 278.052 361.924 280.82 367.356C283.588 372.788 285.251 378.716 285.712 384.799C287.045 401.807 278.391 419.281 263.799 428.3C249.138 437.36 230.227 437.093 215.523 428.439C210.983 425.761 206.937 422.327 203.559 418.285C199.772 413.787 197.039 408.711 195.146 403.161C194.332 400.772 193.633 398.323 193.312 395.844C192.11 386.571 193.181 377.581 197.225 369.017C203.261 356.239 215.047 346.393 228.87 343.158C240.364 340.468 252.131 342.604 262.425 348.092Z" fill="#010101"/>
<path id="Vector_14" d="M219.143 351.343C229.514 345.459 242.066 344.204 255.094 349.223C263.079 352.3 269.423 357.475 274.313 364.472C274.898 365.309 274.934 366.023 274.558 366.887C273.038 370.377 271.076 373.608 268.844 376.689C265.7 381.022 262.12 385.022 258.16 388.627C257.359 389.358 256.526 390.053 255.716 390.773C255.246 391.192 254.905 391.23 254.342 390.771C249.335 386.674 243.058 386.678 238.437 390.901C235.034 394.015 233.942 397.972 234.949 402.442C235.137 403.305 235.053 403.64 234.194 404.015C228.698 406.431 222.936 408.189 217.03 409.25C212.553 410.045 208.042 410.417 203.494 410.115C202.928 410.076 202.659 409.829 202.409 409.387C198.826 403.055 196.948 395.899 196.955 388.616C196.963 381.333 198.857 374.169 202.453 367.821C206.091 361.376 211.1 356.24 219.143 351.343Z" fill="#ED1E25"/>
<path id="Vector_15" d="M279.078 376.048C284.845 394.504 277.984 416.336 258.559 426.391C239.324 436.344 219.008 428.894 209.607 418.373C211.566 418.16 213.51 417.984 215.444 417.73C222.905 416.75 230.059 414.683 236.977 411.731C237.167 411.659 237.352 411.576 237.532 411.482C239.513 410.353 241.387 410.326 243.703 410.926C251.005 412.818 257.822 407.474 258.179 399.941C258.183 399.723 258.238 399.51 258.339 399.317C258.44 399.124 258.586 398.957 258.763 398.83C264.759 394.124 270.11 388.65 274.676 382.55C275.871 380.956 276.94 379.268 278.06 377.621C278.379 377.15 278.68 376.664 279.078 376.048Z" fill="white"/>
<path id="Vector_16" d="M242.392 393.005C246.024 390.784 250.849 391.921 253.039 395.518C255.229 399.114 254.038 403.942 250.397 406.135C249.538 406.662 248.583 407.015 247.587 407.173C246.592 407.331 245.576 407.291 244.598 407.056C243.619 406.822 242.697 406.396 241.884 405.804C241.072 405.212 240.385 404.466 239.863 403.608C237.607 399.926 238.721 395.251 242.392 393.005Z" fill="white"/>
</g>
<g id="Rectangle 13_4" style="mix-blend-mode:multiply" opacity="0.8">
<rect x="11.2866" y="276.338" width="281.894" height="419.97" rx="20" transform="rotate(-29.674 11.2866 276.338)" fill="url(#paint3_linear_132_221)"/>
</g>
</g>
</g>
<g id="pokemon">
<g id="pokemon-23-logo-svg-vector 1" clip-path="url(#clip4_132_221)">
<path id="polygon16" d="M48 309.868L82.3732 367.989L96.1225 354.819L58.5984 298.988L48 309.868Z" fill="url(#paint4_linear_132_221)"/>
<path id="polygon18" d="M559.588 264.058L558.155 271.788L574.483 266.348L572.478 256.9L559.588 264.058Z" fill="#0071B9"/>
<path id="polygon25" d="M463.343 211.662L410.351 272.36L425.819 268.066L476.233 205.077L463.343 211.662Z" fill="url(#paint5_linear_132_221)"/>
<path id="polygon27" d="M747.208 294.693L760.098 287.822L756.374 320.461L747.208 294.693Z" fill="#1D2C5E"/>
<path id="polygon29" d="M666.145 315.594L677.889 318.171L692.497 311.013L679.607 306.146L666.145 315.594Z" fill="#1D2C5E"/>
<path id="polygon36" d="M267.416 281.236L269.134 318.743L285.461 312.444L280.592 274.078L267.416 281.236Z" fill="url(#paint6_linear_132_221)"/>
<path id="polygon43" d="M678.748 269.784L665.858 276.942L666.144 315.594L679.321 309.009L683.331 290.112L678.748 269.784Z" fill="url(#paint7_linear_132_221)"/>
<path id="polygon45" d="M677.029 318.171L662.707 445.294L685.623 440.713L689.919 311.299L677.029 318.171Z" fill="#312370"/>
<path id="polygon47" d="M704.814 451.307L705.387 468.486L749.213 482.515L762.389 475.643L719.136 442.145L675.597 438.423L662.707 445.294L704.814 451.307Z" fill="#21386E"/>
<path id="polygon49" d="M542.115 420.957L552.713 415.231L559.874 427.829L569.9 422.389L571.905 438.995L635.781 450.448L648.385 443.29L560.447 389.749L498.002 400.343L485.972 412.082L542.115 420.957Z" fill="#21386E"/>
<path id="polygon56" d="M521.777 264.63L508.887 271.788L485.972 412.082L498.862 405.21L520.918 326.474L521.777 264.63Z" fill="url(#paint8_linear_132_221)"/>
<path id="polygon58" d="M419.803 283.527L409.491 288.967L410.351 292.403L434.698 276.942L424.1 265.489L410.351 272.361L419.803 283.527Z" fill="#1D2C5E"/>
<path id="polygon60" d="M447.588 449.302L343.609 397.766L356.499 387.745L460.478 442.145L447.588 449.302Z" fill="#21386E"/>
<path id="polygon62" d="M353.348 257.472L337.594 287.249L354.208 282.382L366.238 250.314L353.348 257.472Z" fill="#1D2C5E"/>
<path id="path69" d="M210.127 380.874L196.95 390.036C196.95 390.036 199.815 404.924 203.539 415.231C207.262 425.538 215.856 433.842 215.856 433.842C221.585 439.282 228.173 443.29 235.907 445.58C250.515 449.875 267.129 447.012 281.451 437.85C285.175 435.559 290.331 431.837 293.482 428.688C279.446 437.277 210.127 380.874 210.127 380.874V380.874Z" fill="url(#paint9_linear_132_221)"/>
<path id="polygon71" d="M281.451 315.88L293.482 449.589L343.323 442.431L356.499 435.559L294.914 307.864L282.311 312.158L269.134 318.743L281.451 315.88Z" fill="#1D2C5E"/>
<path id="polygon78" d="M95.2631 362.263L150.833 487.955L203.539 471.062L216.429 462.473L107.007 347.947L93.258 356.25L82.3732 367.989L95.2631 362.263Z" fill="url(#paint10_linear_132_221)"/>
<path id="path80" d="M644.948 421.53L645.807 427.829C650.39 427.256 654.973 426.684 659.27 425.252C664.139 423.534 674.451 418.953 678.175 415.517C676.456 416.09 652.395 422.389 644.948 421.53" fill="#1D2C5E"/>
<path id="path82" d="M458.473 389.463L460.478 399.484C471.077 397.766 480.243 394.044 489.409 388.604C495.138 385.168 501.153 380.301 503.158 378.869C501.726 379.728 458.473 389.463 458.473 389.463Z" fill="#1D2C5E"/>
<g id="g84">
<path id="path86" d="M165.296 475.97L161.285 466.808L108.58 349.419L107.434 347.129L105.143 348.274L103.424 349.133L93.9713 353.714C92.5391 351.423 90.2475 347.415 88.8153 344.838L67.6185 309.049L62.1761 299.6L71.3423 293.874C79.9356 288.434 89.6746 283.281 100.559 278.7C121.756 269.824 143.24 264.956 163.004 264.956C169.592 264.956 175.894 265.529 181.623 266.388C191.362 267.533 200.528 270.683 207.976 275.836C219.147 282.135 228.027 291.87 232.896 303.323C236.906 312.771 237.766 323.937 235.188 335.39L233.756 342.261L239.484 338.253C243.208 335.39 247.218 333.099 251.515 331.381C258.963 328.232 266.697 326.514 274.431 326.514C281.878 326.514 288.753 327.945 295.054 330.809L299.065 332.527L298.778 327.945L297.06 308.762L296.773 305.613L293.909 306.472L285.029 308.762L283.597 276.123L348.906 255.222L348.333 280.704L353.202 281.849L367.525 254.649L410.205 292.443L411.923 294.16L413.642 292.443C419.371 287.003 426.532 282.422 434.266 279.272L437.417 277.841L435.125 274.977L427.391 265.529L476.373 209.125L502.153 247.491L462.91 268.679L454.317 273.26L464.342 273.546C482.961 273.832 499.575 281.849 510.746 295.592L514.756 300.746L517.334 303.895L513.038 308.476L510.173 311.626L500.434 322.219L498.716 324.223L500.721 325.941L509.887 334.244L513.324 337.394L514.183 332.813L517.621 311.053L518.48 305.327L519.339 299.6L524.495 267.247H573.191L573.477 264.956L574.337 259.516H616.73L627.042 324.223L627.615 328.518L631.052 325.941C635.349 322.792 639.932 320.501 644.802 318.497C651.39 315.92 657.978 314.775 664.853 314.775C672.873 314.775 680.607 316.493 687.195 320.215C687.482 320.215 687.482 320.501 688.054 320.788L691.205 321.933L691.492 318.497L692.351 311.339L692.638 309.049L690.346 308.476L681.753 306.472L681.466 272.687L747.062 287.003L751.931 311.339H757.087L762.243 290.438L816.954 303.609L760.811 472.248L720.995 459.65L720.709 444.189V441.898L718.417 441.612L678.602 435.886L680.893 415.558L681.466 410.69L677.17 412.981C675.165 414.126 673.159 414.985 671.154 415.558C664.566 418.134 657.978 419.28 651.39 419.28C649.385 419.28 647.666 419.28 645.661 418.993L642.224 418.707L642.797 422.143L645.661 439.894L587.513 429.587L584.362 403.246L583.503 394.657L579.493 402.101L572.904 414.985L560.587 392.366L556.864 385.495L555.718 393.225L553.14 410.69L502.153 402.673L506.163 378.623L507.022 373.183L502.153 376.046C493.846 380.914 484.107 384.922 472.936 387.499C468.925 388.358 464.915 389.217 460.619 389.503L458.327 389.789V437.89L358.072 388.358L354.348 386.64V433.309L309.377 439.894L307.371 419.566L306.799 414.126L302.788 417.848C296.773 423.574 290.185 428.155 283.024 431.305C275.576 434.454 267.842 436.172 260.395 436.172C252.661 436.172 245.5 434.454 238.912 431.591C226.881 425.865 218.001 415.271 214.277 401.814C212.559 395.516 211.986 388.93 212.845 382.059L213.705 374.901L208.549 380.055C204.825 383.49 200.815 386.926 196.518 390.076L195.086 391.221L195.659 392.939L210.84 450.774L213.418 461.081L203.393 464.231L175.035 473.393L165.296 475.97V475.97ZM177.899 320.501C176.467 320.501 175.035 320.501 173.316 320.788L171.311 321.074L168.447 321.647L169.306 324.51L169.879 326.228L177.899 352.855L178.758 355.432L179.904 359.154L182.769 356.577L184.774 354.859C192.794 347.701 195.372 340.543 193.654 331.381C192.508 325.941 188.498 323.364 185.92 322.219C184.201 321.074 181.05 320.501 177.899 320.501V320.501ZM396.169 321.36L391.013 326.228L377.55 339.112L374.686 341.975L378.409 343.406L392.732 348.846L397.028 350.564L396.169 345.983C395.023 339.971 394.737 333.958 395.31 328.232L396.169 321.36ZM454.603 306.472C449.161 306.472 443.718 308.762 439.995 313.057C434.266 319.356 433.12 328.804 437.13 336.249L438.276 338.253L439.995 341.402L442.573 338.539L444.291 336.821L464.056 314.489L465.488 312.771L468.066 309.908L464.629 308.476L462.337 307.617C459.473 307.045 457.181 306.472 454.603 306.472V306.472Z" fill="#FFCB05"/>
</g>
<path id="path88" d="M484.539 339.644L483.967 340.217C484.253 340.217 484.539 339.931 484.539 339.644Z" fill="#7D7F68"/>
<path id="polygon90" d="M501.726 324.183L511.465 313.59L508.028 317.025V316.739L505.163 319.888L495.424 330.196L504.59 338.499L506.309 328.192L510.892 332.2L501.726 324.183Z" fill="#7D7F68"/>
<path id="polygon92" d="M501.726 324.183L510.892 332.2L514.33 310.44L511.465 313.59L501.726 324.183Z" fill="#7D7F68"/>
<path id="path96" d="M433.839 350.238C434.698 351.097 433.839 350.524 434.698 351.097L440.714 346.802C439.854 346.229 438.995 345.37 438.136 344.798C429.542 336.781 431.834 319.03 437.276 309.295C422.381 321.32 423.241 339.644 433.839 350.238Z" fill="#C7A008"/>
<path id="path98" d="M506.309 360.259C496.284 368.562 485.112 373.716 470.217 377.438C467.066 378.297 463.629 378.869 460.765 378.869C436.99 381.16 417.225 370.28 409.778 352.815C408.918 350.81 408.059 348.52 407.486 346.229C404.049 331.341 406.913 318.171 414.361 307.577C415.22 306.432 415.793 305.573 416.652 304.714C416.366 305 415.793 305.286 415.507 305.573C412.642 308.15 410.064 310.726 408.059 313.876C400.612 324.183 397.747 337.64 401.184 352.528C401.757 354.819 402.33 357.109 403.476 359.113C410.924 376.865 430.975 387.745 454.463 385.454C457.614 385.168 460.765 384.595 464.202 383.736C479.097 380.014 490.555 374.861 500.294 366.558C502.585 364.553 505.163 362.263 507.455 359.972L507.168 359.686C506.596 359.972 506.309 359.972 506.309 360.259Z" fill="#C7A008"/>
<path id="polygon100" d="M339.313 315.308L365.666 278.087L364.52 277.228L339.026 313.017L339.313 315.308Z" fill="#C7A008"/>
<path id="polygon102" d="M514.33 310.44L510.892 332.2L506.309 328.192L504.59 338.499L495.424 330.196L505.163 319.889L508.028 316.739V317.025L511.465 313.59L514.33 310.44Z" fill="#C7A008"/>
<path id="polygon104" d="M481.675 249.169L490.841 245.161L473.941 223.401L468.499 231.418L481.675 249.169Z" fill="#C7A008"/>
<path id="path106" d="M225.022 302.996C182.055 250.887 105.002 278.946 77.5037 303.283L78.6494 305.287C84.9512 301.565 91.8258 298.415 98.7005 295.266C126.199 283.527 152.552 280.091 173.462 283.813C180.91 284.672 188.644 286.963 195.518 291.544C204.971 296.984 212.132 304.428 216.429 314.162C223.876 331.341 217.288 354.246 199.815 373.143C221.871 352.815 237.053 333.345 225.022 302.996V302.996Z" fill="#C7A008"/>
<path id="path108" d="M312.387 363.695C312.101 362.836 312.101 361.69 311.814 360.832C309.523 352.242 304.367 345.371 297.492 340.79C286.607 333.345 271.139 331.914 255.958 338.213C247.937 341.648 241.063 347.088 235.334 353.387C239.631 349.665 244.5 346.802 249.656 344.512C264.838 337.926 280.305 339.644 291.19 347.088C298.065 351.669 303.221 358.541 305.512 367.13C305.799 367.989 306.085 369.135 306.085 369.994C306.658 373.429 306.945 376.579 306.945 380.015C306.658 390.036 302.934 400.056 296.919 408.646C296.06 410.077 294.914 411.223 293.768 412.654C297.206 409.505 300.356 406.355 302.934 402.633C309.236 394.044 312.674 384.023 313.246 374.002C313.246 370.566 312.96 367.13 312.387 363.695Z" fill="#C7A008"/>
<path id="path110" d="M270.28 351.097C270.28 351.097 276.582 344.798 276.295 344.798C268.561 344.512 265.124 351.956 264.838 352.528C266.556 351.669 268.275 351.383 270.28 351.097Z" fill="#C7A008"/>
<path id="path112" d="M284.889 359.973C285.175 361.118 285.461 361.977 285.461 363.122C285.461 364.84 285.175 366.272 284.316 367.703C285.461 367.131 294.628 362.549 291.19 353.387C291.477 353.96 284.602 359.973 284.889 359.973Z" fill="#C7A008"/>
<path id="path114" d="M249.37 365.412C249.37 361.69 255.958 352.242 257.963 349.093C247.651 355.678 243.068 364.553 243.068 371.425C243.068 383.45 253.666 393.185 266.27 393.185C272.285 393.185 283.17 390.035 290.331 378.583C286.607 381.16 277.155 386.886 271.999 386.886C259.395 386.886 249.37 377.438 249.37 365.412" fill="#C7A008"/>
<path id="polygon116" d="M337.881 376.293L338.167 424.68L345.901 425.252L344.182 369.994L337.881 376.293Z" fill="#C7A008"/>
<path id="polygon118" d="M293.768 283.813V288.108L330.433 277.228L333.011 323.897L339.313 315.308L337.881 268.638L293.768 283.813Z" fill="#C7A008"/>
<path id="polygon120" d="M404.049 300.419L369.962 268.925L365.666 278.087L396.029 306.432L404.049 300.419Z" fill="#C7A008"/>
<path id="path122" d="M398.893 359.113L358.504 345.657L352.776 351.956L392.878 367.989C397.461 376.579 404.335 384.023 412.929 389.176C421.236 394.33 430.975 397.48 441 398.338V418.094L447.302 421.244L449.307 391.467L398.893 359.113Z" fill="#C7A008"/>
<path id="path124" d="M463.629 353.674C473.655 351.383 479.097 346.229 484.253 340.503C480.529 343.653 462.197 347.661 459.046 348.52L453.031 355.105C455.609 355.105 460.192 354.533 463.629 353.674" fill="#C7A008"/>
<path id="path126" d="M445.583 284.958C427.251 287.249 417.798 302.71 416.366 304.428C423.241 298.701 431.547 294.407 441 292.402C463.629 286.962 483.394 293.834 495.711 309.009L503.445 302.71C491.128 287.821 468.212 279.518 445.583 284.958" fill="#C7A008"/>
<path id="path128" d="M506.882 359.686C509.174 357.968 512.897 355.964 515.189 353.674L490.841 331.914C488.836 334.204 487.404 337.926 485.112 339.644L506.882 359.686Z" fill="#C7A008"/>
<path id="path130" d="M632.058 418.094C606.564 396.907 607.996 351.956 620.6 337.64L609.429 266.921L584.795 270.07L583.649 276.369H602.268L612.293 340.503C599.69 354.819 593.674 374.002 597.685 391.753C600.835 405.497 609.429 416.376 621.459 422.675C622.605 423.248 624.037 423.821 625.183 424.393L625.47 425.252L632.917 426.397C632.631 426.684 633.49 418.667 632.058 418.094V418.094Z" fill="#C7A008"/>
<path id="polygon132" d="M533.808 277.228L532.662 283.527H560.733L569.04 329.051L575.342 322.752L568.754 274.651L533.808 277.228Z" fill="#C7A008"/>
<path id="polygon134" d="M581.93 365.412L572.764 388.89L575.055 395.189L587.945 359.4L581.93 365.412Z" fill="#C7A008"/>
<path id="polygon136" d="M555.005 350.811L548.703 357.109L541.828 399.484L548.416 401.774L555.005 350.811Z" fill="#C7A008"/>
<path id="path138" d="M681.326 337.067C685.05 339.644 688.201 343.08 690.492 347.088C692.497 350.238 693.643 353.387 694.789 357.396C697.94 370.28 694.216 384.023 686.196 394.903C685.336 396.048 684.477 397.193 683.618 398.052C686.768 395.189 726.87 365.699 687.914 327.046C644.948 313.017 628.62 340.79 627.188 342.794C631.771 339.072 636.927 335.636 642.656 333.632C656.978 327.905 671.301 329.91 681.326 337.067" fill="#C7A008"/>
<path id="path140" d="M659.843 339.93C659.843 340.217 666.144 333.632 666.144 333.632C658.411 333.918 654.687 337.64 655.26 339.358C654.687 339.93 654.4 340.789 654.114 341.362C655.546 340.503 658.697 339.93 659.843 339.93" fill="#C7A008"/>
<path id="path142" d="M674.165 349.665C674.451 350.811 674.451 351.669 674.451 352.815C674.451 354.246 673.878 355.678 673.306 356.823C674.451 356.251 683.617 353.387 680.18 343.08C680.467 343.653 673.878 349.665 674.165 349.665Z" fill="#C7A008"/>
<path id="path144" d="M653.827 382.019C662.421 382.305 672.16 377.151 679.034 367.703C661.561 371.425 642.942 341.935 644.661 339.072C638.073 343.939 632.058 353.101 631.771 359.686C631.198 371.711 641.224 381.446 653.827 382.019Z" fill="#C7A008"/>
<path id="polygon146" d="M750.359 458.465L754.369 461.041L804.783 309.868L766.972 301.278L766.686 310.154L797.049 316.739L750.359 458.465Z" fill="#C7A008"/>
<path id="polygon148" d="M690.492 284.958L690.779 293.548L730.881 301.564L746.349 374.861L752.65 368.562L737.755 294.407L690.492 284.958Z" fill="#C7A008"/>
<path id="polygon150" d="M721.428 368.562L710.257 430.979L716.558 432.983L727.73 362.263L721.428 368.562Z" fill="#C7A008"/>
<path id="polygon152" d="M200.961 453.883L182.342 385.741L175.467 390.608L192.94 455.601L200.961 453.883Z" fill="#C7A008"/>
<path id="path154" d="M196.091 351.67C191.794 356.251 182.055 365.126 176.613 368.562L173.176 357.968L166.015 334.491L161.431 318.743L156.848 324.47L161.431 340.217L168.593 363.408L172.03 374.002C179.764 369.707 190.649 360.545 196.091 351.67" fill="#C7A008"/>
<path id="path156" d="M461.91 311.299C455.895 309.009 447.588 309.581 443.005 314.735C441.859 315.88 439.854 318.743 439.281 320.175C443.578 316.739 451.599 315.88 456.468 317.884L461.91 311.299V311.299Z" fill="#7D7F68"/>
<path id="path158" d="M190.935 332.487C190.362 329.051 186.925 326.188 185.206 325.329C182.342 323.897 176.899 323.611 173.176 324.47C173.749 326.76 174.608 329.623 174.894 330.769C176.327 331.055 178.905 331.341 180.337 331.914C182.055 332.773 184.92 334.491 185.493 338.213C186.352 342.794 186.066 347.375 184.06 350.811C189.503 345.657 192.081 339.931 190.935 332.487" fill="#7D7F68"/>
<g id="g160">
<g id="g162">
<path id="path164" d="M200.242 332.24C197.664 318.497 179.618 310.767 161.572 320.501L166.155 336.249L173.316 359.726L176.753 370.32C190.216 362.017 203.679 351.423 200.242 332.24V332.24ZM182.482 353.714C180.477 347.415 176.181 333.672 176.181 333.672C176.181 333.672 175.321 330.809 174.175 327.373C177.899 326.8 181.623 327.087 184.487 328.518C186.206 329.377 189.07 331.095 189.643 334.817C191.362 342.261 188.784 347.987 182.482 353.714V353.714Z" fill="#3C5AA6"/>
</g>
</g>
<g id="g166">
<g id="g168">
<path id="path170" d="M471.217 310.48C461.192 301.318 445.724 301.891 436.557 311.912C427.391 321.933 427.964 337.394 437.99 346.556C438.849 347.415 439.708 347.987 440.568 348.56L472.936 311.912C472.363 311.626 471.79 311.053 471.217 310.48V310.48ZM440.854 336.249C437.703 330.522 438.276 323.078 443.146 317.925C447.729 313.057 454.603 311.626 460.619 313.916L440.854 336.249Z" fill="#3567B0"/>
</g>
</g>
<path id="polygon172" d="M514.33 306.432L496.57 323.611L513.47 338.785L514.33 306.432Z" fill="#1E2D5F"/>
<path id="path174" d="M680.18 343.366C680.467 344.512 680.467 345.657 680.467 346.802C680.18 353.674 673.878 358.827 666.144 358.541C658.41 358.255 652.395 352.528 652.682 345.657C652.968 339.358 658.697 334.204 665.572 333.918C664.139 333.632 662.707 333.345 661.275 333.345C648.385 332.773 638.073 341.935 637.5 353.101C636.927 365.126 646.666 375.147 659.27 375.433C672.16 376.006 682.472 366.844 683.045 354.819C683.904 350.81 682.472 346.802 680.18 343.366" fill="#3466AF"/>
<path id="path183" d="M291.763 357.11C291.763 363.981 285.461 369.421 278.014 369.421C270.28 369.421 264.265 363.981 264.265 357.11C264.265 350.811 269.707 345.371 276.868 344.798C275.436 344.512 274.004 344.512 272.571 344.512C259.682 344.512 249.656 353.96 249.656 365.413C249.656 377.438 259.682 386.886 272.285 386.886C285.175 386.886 295.2 377.438 295.2 365.413C295.2 361.118 293.768 357.396 291.477 353.96C291.477 354.819 291.763 355.964 291.763 357.11" fill="url(#paint11_linear_132_221)"/>
<g id="g185">
<g id="g187">
<path id="path196" d="M759.952 287.862L754.223 311.339L749.067 285.285L678.602 269.824L679.175 309.049L689.773 311.339L688.914 318.497C688.914 318.497 688.627 318.497 688.627 318.211C675.451 311.339 659.124 310.48 643.942 316.493C638.786 318.497 633.917 321.074 629.62 324.223L619.022 257.226H572.331L571.186 264.957H521.917L516.189 299.314L512.178 294.161C500.148 279.559 482.961 271.542 463.769 270.969L505.59 248.637L476.373 205.117L423.667 265.815L432.834 276.982C424.527 280.417 417.366 284.998 411.35 290.725L366.092 250.641L350.338 280.704L350.911 251.5L280.159 274.119L282.164 311.912L294.195 308.763L295.914 327.946C282.164 321.647 265.551 321.933 250.369 328.518C245.786 330.522 241.49 332.813 237.766 335.676C240.344 323.937 239.771 312.485 235.188 302.177C230.032 290.152 220.579 279.845 209.408 273.546C201.387 268.106 191.935 264.957 181.909 263.811C157.562 259.517 128.058 263.811 99.1273 276.123C88.5289 280.704 78.5034 285.857 69.6236 291.584L58.4523 298.742L65.327 310.194L86.5238 346.27L93.112 357.15L104.57 351.423L106.288 350.564L158.994 467.953L164.15 479.119L175.894 475.397L204.252 466.235L216.855 462.227L213.705 449.629L198.523 391.794C202.82 388.644 206.83 385.208 210.554 381.486C209.694 388.358 210.267 395.516 211.986 402.101C215.996 416.13 225.162 427.296 238.052 433.309C251.802 439.894 268.702 439.894 284.17 433.309C291.904 429.873 299.065 425.292 304.793 419.28L306.799 442.471L356.64 435.027V390.362L460.619 441.898V392.366C464.915 392.08 468.925 391.221 473.222 390.362C484.68 387.499 494.419 383.777 503.299 378.623L499.002 405.25L555.145 414.126L558.296 393.798L572.904 420.998L581.784 403.819L584.935 432.164L648.525 443.33L645.088 421.857C653.681 422.715 662.847 421.57 671.727 418.421C673.732 417.562 676.024 416.703 677.743 415.558L675.165 438.463L717.558 444.475L717.845 461.94L761.957 475.684L819.532 302.464L759.952 287.862V287.862ZM511.319 313.63L514.183 310.48L510.746 332.24L501.58 323.937L511.319 313.63V313.63ZM474.081 224.3L489.549 245.201L445.437 266.961L442.286 262.38C442.286 262.666 474.081 224.3 474.081 224.3ZM182.196 385.781L199.669 453.351L171.311 462.513L112.877 331.954C109.726 333.672 103.71 336.535 98.5544 339.112L77.3576 303.323C85.6644 297.883 95.1171 293.302 104.856 289.007C132.355 277.268 158.707 273.832 179.618 277.554C187.065 278.413 194.799 280.704 201.674 285.285C211.127 290.725 218.288 298.169 222.584 307.904C232.896 331.381 215.996 365.166 182.196 385.781V385.781ZM313.1 373.756C312.814 383.777 309.09 393.798 302.788 402.387C296.773 410.69 288.753 417.276 279.014 421.57C254.379 432.164 229.745 421.57 223.157 398.092C216.855 375.474 231.75 348.56 255.525 338.253C270.707 331.668 286.175 333.386 297.06 340.83C303.934 345.411 309.09 352.282 311.382 360.872C311.668 361.731 311.955 362.876 311.955 363.735C313.1 367.171 313.1 370.606 313.1 373.756V373.756ZM447.442 421.57L344.036 370.034L344.323 424.147L317.683 427.869L315.678 405.537C323.985 391.507 326.85 374.615 322.553 359.44C320.261 351.137 315.965 343.693 309.949 337.967L306.226 292.443L294.195 295.592L293.622 284.14L336.589 271.255L339.167 315.348L370.675 270.969L401.898 300.459L358.645 345.983L399.32 362.017C403.903 370.606 410.778 377.764 419.371 383.204C427.678 388.358 437.417 391.507 447.442 392.366V421.57ZM393.877 346.556L379.555 341.116L393.018 328.232C392.159 334.244 392.445 340.257 393.877 346.556ZM506.163 360.299C496.138 368.602 484.966 373.756 470.071 377.478C466.92 378.337 463.483 378.909 460.619 378.909C436.844 381.2 417.079 370.32 409.632 352.855C408.772 350.851 407.913 348.56 407.34 346.27C403.903 331.381 406.767 318.211 414.215 307.617C416.22 304.468 418.798 301.891 421.662 299.314C428.537 293.015 437.417 288.721 447.442 286.144C470.071 280.704 489.836 287.575 502.153 302.464L459.186 348.274C462.051 348.846 466.634 347.988 470.071 347.129C480.383 344.552 486.112 339.112 490.982 333.386L508.168 348.846L513.324 353.427C511.033 356.004 508.741 358.295 506.163 360.299V360.299ZM597.538 421.284L588.086 359.44L574.909 393.511L555.145 350.851H554.858L547.124 400.383L514.183 394.657L518.767 367.171C519.912 366.025 521.345 364.88 522.49 363.448L533.089 352.569L522.777 343.12L533.948 277.268H567.175L575.482 322.792L584.935 270.11H608.71L618.735 334.244C606.132 348.56 600.116 367.743 604.127 385.495C607.278 399.238 615.871 410.118 627.901 416.703C629.047 417.275 630.479 417.848 631.625 418.421L632.771 426.724L597.538 421.284V421.284ZM679.748 400.956C676.024 403.532 672.014 405.823 667.717 407.255C659.124 410.404 650.817 411.263 643.083 409.545C637.927 408.4 633.057 406.396 628.761 403.532C622.173 398.665 617.303 391.794 615.011 382.918C612.433 372.324 614.725 360.872 620.454 350.851C623.318 345.983 627.042 341.402 631.339 337.394C636.208 333.099 641.937 329.377 647.952 327.087C662.561 321.647 676.883 323.651 686.909 330.809C690.632 333.386 693.783 336.821 696.075 340.83C697.794 343.979 699.226 347.415 700.085 351.137C703.236 364.021 699.512 377.764 691.492 388.644C688.914 393.511 684.617 397.52 679.748 400.956V400.956ZM754.223 459.364L729.875 452.206L727.87 362.303L715.553 431.591L688.914 427.296L690.919 407.255C708.392 392.653 717.558 369.461 712.402 348.274C710.111 339.112 705.528 330.809 698.653 324.796L700.944 301.318L690.919 298.742L691.205 286.144L737.036 295.306L752.504 368.316L768.259 302.75L803.205 310.48L754.223 459.364V459.364Z" fill="url(#paint12_linear_132_221)"/>
</g>
</g>
<path id="path198" d="M787.024 449.302H788.169C789.602 449.302 790.747 448.73 790.747 447.298C790.747 446.439 789.888 445.294 788.169 445.294H787.024V449.302ZM787.024 455.315H785.305V444.435C786.164 444.149 787.024 444.149 788.456 444.149C790.174 444.149 791.32 444.435 791.893 445.008C792.466 445.58 793.039 446.153 793.039 447.298C793.039 448.73 792.18 449.589 791.034 449.875C791.893 450.161 792.752 451.02 792.752 452.452C793.039 454.17 793.325 454.742 793.325 455.029H791.607C791.32 454.742 791.034 453.597 790.747 452.166C790.461 450.734 789.888 450.161 788.456 450.161H787.024V455.315V455.315ZM789.029 441.286C784.732 441.286 781.295 445.008 781.295 449.589C781.295 454.17 784.732 457.892 789.315 457.892C793.612 457.892 797.049 454.17 797.049 449.589C796.763 445.008 793.325 441.286 789.029 441.286ZM789.029 439.854C794.471 439.854 798.481 444.149 798.481 449.589C798.481 455.029 794.185 459.323 788.742 459.323C783.3 459.323 779.003 455.029 779.003 449.589C779.29 444.149 783.586 439.854 789.029 439.854V439.854Z" fill="black"/>
</g>
<g id="CARD COLLECTOR">
<mask id="path-87-outside-1_132_221" maskUnits="userSpaceOnUse" x="116.741" y="452.418" width="681" height="98" fill="black">
<rect fill="white" x="116.741" y="452.418" width="681" height="98"/>
<path d="M171.994 533.734C161.307 534.692 152.442 535.172 145.398 535.172C140.702 535.172 137.251 534.07 135.047 531.865C132.843 529.661 131.741 526.211 131.741 521.514V498.513C131.741 493.481 132.867 489.839 135.119 487.587C137.419 485.287 141.085 484.137 146.117 484.137H171.994V494.2H148.992C146.117 494.2 144.679 495.638 144.679 498.513V521.514C144.679 522.617 144.99 523.503 145.613 524.174C146.284 524.797 147.123 525.108 148.129 525.108C149.136 525.108 150.238 525.108 151.436 525.108C152.634 525.061 153.88 525.013 155.174 524.965C156.467 524.917 157.761 524.869 159.055 524.821C160.397 524.773 162.098 524.677 164.159 524.533C166.267 524.39 168.879 524.222 171.994 524.03V533.734Z"/>
<path d="M186.737 534.453H172.721L191.769 484.137H206.145L225.193 534.453H211.177L207.942 525.468H189.972L186.737 534.453ZM193.207 516.123H204.707L198.957 499.232L193.207 516.123Z"/>
<path d="M228.785 484.137H258.974C264.006 484.137 267.648 485.287 269.9 487.587C272.2 489.839 273.35 493.481 273.35 498.513V504.982C273.35 508.959 272.679 512.05 271.338 514.254C270.044 516.459 267.959 517.92 265.084 518.639L274.069 534.453H260.052L251.786 519.358H241.723V534.453H228.785V484.137ZM260.412 498.513C260.412 495.638 258.974 494.2 256.099 494.2H241.723V509.295H256.099C258.974 509.295 260.412 507.857 260.412 504.982V498.513Z"/>
<path d="M308.552 484.137C313.967 484.137 318.064 485.55 320.844 488.378C323.671 491.157 325.085 495.254 325.085 500.669V517.92C325.085 523.335 323.671 527.457 320.844 530.284C318.064 533.063 313.967 534.453 308.552 534.453H280.519V484.137H308.552ZM312.146 500.669C312.146 496.356 309.99 494.2 305.677 494.2H293.457V524.39H305.677C309.99 524.39 312.146 522.233 312.146 517.92V500.669Z"/>
<path d="M392.618 533.734C381.932 534.692 373.067 535.172 366.023 535.172C361.326 535.172 357.876 534.07 355.672 531.865C353.467 529.661 352.365 526.211 352.365 521.514V498.513C352.365 493.481 353.491 489.839 355.744 487.587C358.044 485.287 361.71 484.137 366.741 484.137H392.618V494.2H369.617C366.741 494.2 365.304 495.638 365.304 498.513V521.514C365.304 522.617 365.615 523.503 366.238 524.174C366.909 524.797 367.748 525.108 368.754 525.108C369.76 525.108 370.863 525.108 372.061 525.108C373.259 525.061 374.504 525.013 375.798 524.965C377.092 524.917 378.386 524.869 379.68 524.821C381.022 524.773 382.723 524.677 384.783 524.533C386.892 524.39 389.503 524.222 392.618 524.03V533.734Z"/>
<path d="M430.723 497.794C430.723 494.919 429.286 493.481 426.41 493.481H414.191C411.316 493.481 409.878 494.919 409.878 497.794V520.796C409.878 523.671 411.316 525.108 414.191 525.108H426.41C429.286 525.108 430.723 523.671 430.723 520.796V497.794ZM443.662 520.796C443.662 525.827 442.512 529.493 440.211 531.793C437.959 534.046 434.317 535.172 429.286 535.172H411.316C406.284 535.172 402.618 534.046 400.318 531.793C398.066 529.493 396.94 525.827 396.94 520.796V497.794C396.94 492.762 398.066 489.12 400.318 486.868C402.618 484.568 406.284 483.418 411.316 483.418H429.286C434.317 483.418 437.959 484.568 440.211 486.868C442.512 489.12 443.662 492.762 443.662 497.794V520.796Z"/>
<path d="M463.822 524.39H490.058V534.453H450.883V484.137H463.822V524.39Z"/>
<path d="M508.045 524.39H534.281V534.453H495.107V484.137H508.045V524.39Z"/>
<path d="M579.223 534.453H539.33V484.137H579.223V494.2H552.268V503.904H573.473V513.967H552.268V524.39H579.223V534.453Z"/>
<path d="M623.772 533.734C613.086 534.692 604.221 535.172 597.177 535.172C592.481 535.172 589.03 534.07 586.826 531.865C584.622 529.661 583.519 526.211 583.519 521.514V498.513C583.519 493.481 584.646 489.839 586.898 487.587C589.198 485.287 592.864 484.137 597.896 484.137H623.772V494.2H600.771C597.896 494.2 596.458 495.638 596.458 498.513V521.514C596.458 522.617 596.769 523.503 597.392 524.174C598.063 524.797 598.902 525.108 599.908 525.108C600.914 525.108 602.017 525.108 603.215 525.108C604.413 525.061 605.659 525.013 606.952 524.965C608.246 524.917 609.54 524.869 610.834 524.821C612.176 524.773 613.877 524.677 615.937 524.533C618.046 524.39 620.658 524.222 623.772 524.03V533.734Z"/>
<path d="M653.971 534.453H641.032V494.2H625.937V484.137H669.065V494.2H653.971V534.453Z"/>
<path d="M706.452 497.794C706.452 494.919 705.014 493.481 702.139 493.481H689.919C687.044 493.481 685.606 494.919 685.606 497.794V520.796C685.606 523.671 687.044 525.108 689.919 525.108H702.139C705.014 525.108 706.452 523.671 706.452 520.796V497.794ZM719.39 520.796C719.39 525.827 718.24 529.493 715.94 531.793C713.688 534.046 710.046 535.172 705.014 535.172H687.044C682.012 535.172 678.346 534.046 676.046 531.793C673.794 529.493 672.668 525.827 672.668 520.796V497.794C672.668 492.762 673.794 489.12 676.046 486.868C678.346 484.568 682.012 483.418 687.044 483.418H705.014C710.046 483.418 713.688 484.568 715.94 486.868C718.24 489.12 719.39 492.762 719.39 497.794V520.796Z"/>
<path d="M726.612 484.137H756.802C761.833 484.137 765.475 485.287 767.727 487.587C770.028 489.839 771.178 493.481 771.178 498.513V504.982C771.178 508.959 770.507 512.05 769.165 514.254C767.871 516.459 765.787 517.92 762.911 518.639L771.896 534.453H757.88L749.614 519.358H739.55V534.453H726.612V484.137ZM758.239 498.513C758.239 495.638 756.802 494.2 753.926 494.2H739.55V509.295H753.926C756.802 509.295 758.239 507.857 758.239 504.982V498.513Z"/>
</mask>
<path d="M171.994 533.734C161.307 534.692 152.442 535.172 145.398 535.172C140.702 535.172 137.251 534.07 135.047 531.865C132.843 529.661 131.741 526.211 131.741 521.514V498.513C131.741 493.481 132.867 489.839 135.119 487.587C137.419 485.287 141.085 484.137 146.117 484.137H171.994V494.2H148.992C146.117 494.2 144.679 495.638 144.679 498.513V521.514C144.679 522.617 144.99 523.503 145.613 524.174C146.284 524.797 147.123 525.108 148.129 525.108C149.136 525.108 150.238 525.108 151.436 525.108C152.634 525.061 153.88 525.013 155.174 524.965C156.467 524.917 157.761 524.869 159.055 524.821C160.397 524.773 162.098 524.677 164.159 524.533C166.267 524.39 168.879 524.222 171.994 524.03V533.734Z" fill="#FFCB05"/>
<path d="M186.737 534.453H172.721L191.769 484.137H206.145L225.193 534.453H211.177L207.942 525.468H189.972L186.737 534.453ZM193.207 516.123H204.707L198.957 499.232L193.207 516.123Z" fill="#FFCB05"/>
<path d="M228.785 484.137H258.974C264.006 484.137 267.648 485.287 269.9 487.587C272.2 489.839 273.35 493.481 273.35 498.513V504.982C273.35 508.959 272.679 512.05 271.338 514.254C270.044 516.459 267.959 517.92 265.084 518.639L274.069 534.453H260.052L251.786 519.358H241.723V534.453H228.785V484.137ZM260.412 498.513C260.412 495.638 258.974 494.2 256.099 494.2H241.723V509.295H256.099C258.974 509.295 260.412 507.857 260.412 504.982V498.513Z" fill="#FFCB05"/>
<path d="M308.552 484.137C313.967 484.137 318.064 485.55 320.844 488.378C323.671 491.157 325.085 495.254 325.085 500.669V517.92C325.085 523.335 323.671 527.457 320.844 530.284C318.064 533.063 313.967 534.453 308.552 534.453H280.519V484.137H308.552ZM312.146 500.669C312.146 496.356 309.99 494.2 305.677 494.2H293.457V524.39H305.677C309.99 524.39 312.146 522.233 312.146 517.92V500.669Z" fill="#FFCB05"/>
<path d="M392.618 533.734C381.932 534.692 373.067 535.172 366.023 535.172C361.326 535.172 357.876 534.07 355.672 531.865C353.467 529.661 352.365 526.211 352.365 521.514V498.513C352.365 493.481 353.491 489.839 355.744 487.587C358.044 485.287 361.71 484.137 366.741 484.137H392.618V494.2H369.617C366.741 494.2 365.304 495.638 365.304 498.513V521.514C365.304 522.617 365.615 523.503 366.238 524.174C366.909 524.797 367.748 525.108 368.754 525.108C369.76 525.108 370.863 525.108 372.061 525.108C373.259 525.061 374.504 525.013 375.798 524.965C377.092 524.917 378.386 524.869 379.68 524.821C381.022 524.773 382.723 524.677 384.783 524.533C386.892 524.39 389.503 524.222 392.618 524.03V533.734Z" fill="#FFCB05"/>
<path d="M430.723 497.794C430.723 494.919 429.286 493.481 426.41 493.481H414.191C411.316 493.481 409.878 494.919 409.878 497.794V520.796C409.878 523.671 411.316 525.108 414.191 525.108H426.41C429.286 525.108 430.723 523.671 430.723 520.796V497.794ZM443.662 520.796C443.662 525.827 442.512 529.493 440.211 531.793C437.959 534.046 434.317 535.172 429.286 535.172H411.316C406.284 535.172 402.618 534.046 400.318 531.793C398.066 529.493 396.94 525.827 396.94 520.796V497.794C396.94 492.762 398.066 489.12 400.318 486.868C402.618 484.568 406.284 483.418 411.316 483.418H429.286C434.317 483.418 437.959 484.568 440.211 486.868C442.512 489.12 443.662 492.762 443.662 497.794V520.796Z" fill="#FFCB05"/>
<path d="M463.822 524.39H490.058V534.453H450.883V484.137H463.822V524.39Z" fill="#FFCB05"/>
<path d="M508.045 524.39H534.281V534.453H495.107V484.137H508.045V524.39Z" fill="#FFCB05"/>
<path d="M579.223 534.453H539.33V484.137H579.223V494.2H552.268V503.904H573.473V513.967H552.268V524.39H579.223V534.453Z" fill="#FFCB05"/>
<path d="M623.772 533.734C613.086 534.692 604.221 535.172 597.177 535.172C592.481 535.172 589.03 534.07 586.826 531.865C584.622 529.661 583.519 526.211 583.519 521.514V498.513C583.519 493.481 584.646 489.839 586.898 487.587C589.198 485.287 592.864 484.137 597.896 484.137H623.772V494.2H600.771C597.896 494.2 596.458 495.638 596.458 498.513V521.514C596.458 522.617 596.769 523.503 597.392 524.174C598.063 524.797 598.902 525.108 599.908 525.108C600.914 525.108 602.017 525.108 603.215 525.108C604.413 525.061 605.659 525.013 606.952 524.965C608.246 524.917 609.54 524.869 610.834 524.821C612.176 524.773 613.877 524.677 615.937 524.533C618.046 524.39 620.658 524.222 623.772 524.03V533.734Z" fill="#FFCB05"/>
<path d="M653.971 534.453H641.032V494.2H625.937V484.137H669.065V494.2H653.971V534.453Z" fill="#FFCB05"/>
<path d="M706.452 497.794C706.452 494.919 705.014 493.481 702.139 493.481H689.919C687.044 493.481 685.606 494.919 685.606 497.794V520.796C685.606 523.671 687.044 525.108 689.919 525.108H702.139C705.014 525.108 706.452 523.671 706.452 520.796V497.794ZM719.39 520.796C719.39 525.827 718.24 529.493 715.94 531.793C713.688 534.046 710.046 535.172 705.014 535.172H687.044C682.012 535.172 678.346 534.046 676.046 531.793C673.794 529.493 672.668 525.827 672.668 520.796V497.794C672.668 492.762 673.794 489.12 676.046 486.868C678.346 484.568 682.012 483.418 687.044 483.418H705.014C710.046 483.418 713.688 484.568 715.94 486.868C718.24 489.12 719.39 492.762 719.39 497.794V520.796Z" fill="#FFCB05"/>
<path d="M726.612 484.137H756.802C761.833 484.137 765.475 485.287 767.727 487.587C770.028 489.839 771.178 493.481 771.178 498.513V504.982C771.178 508.959 770.507 512.05 769.165 514.254C767.871 516.459 765.787 517.92 762.911 518.639L771.896 534.453H757.88L749.614 519.358H739.55V534.453H726.612V484.137ZM758.239 498.513C758.239 495.638 756.802 494.2 753.926 494.2H739.55V509.295H753.926C756.802 509.295 758.239 507.857 758.239 504.982V498.513Z" fill="#FFCB05"/>
<path d="M171.994 533.734C161.307 534.692 152.442 535.172 145.398 535.172C140.702 535.172 137.251 534.07 135.047 531.865C132.843 529.661 131.741 526.211 131.741 521.514V498.513C131.741 493.481 132.867 489.839 135.119 487.587C137.419 485.287 141.085 484.137 146.117 484.137H171.994V494.2H148.992C146.117 494.2 144.679 495.638 144.679 498.513V521.514C144.679 522.617 144.99 523.503 145.613 524.174C146.284 524.797 147.123 525.108 148.129 525.108C149.136 525.108 150.238 525.108 151.436 525.108C152.634 525.061 153.88 525.013 155.174 524.965C156.467 524.917 157.761 524.869 159.055 524.821C160.397 524.773 162.098 524.677 164.159 524.533C166.267 524.39 168.879 524.222 171.994 524.03V533.734Z" stroke="url(#paint13_linear_132_221)" stroke-width="30" mask="url(#path-87-outside-1_132_221)"/>
<path d="M186.737 534.453H172.721L191.769 484.137H206.145L225.193 534.453H211.177L207.942 525.468H189.972L186.737 534.453ZM193.207 516.123H204.707L198.957 499.232L193.207 516.123Z" stroke="url(#paint14_linear_132_221)" stroke-width="30" mask="url(#path-87-outside-1_132_221)"/>
<path d="M228.785 484.137H258.974C264.006 484.137 267.648 485.287 269.9 487.587C272.2 489.839 273.35 493.481 273.35 498.513V504.982C273.35 508.959 272.679 512.05 271.338 514.254C270.044 516.459 267.959 517.92 265.084 518.639L274.069 534.453H260.052L251.786 519.358H241.723V534.453H228.785V484.137ZM260.412 498.513C260.412 495.638 258.974 494.2 256.099 494.2H241.723V509.295H256.099C258.974 509.295 260.412 507.857 260.412 504.982V498.513Z" stroke="url(#paint15_linear_132_221)" stroke-width="30" mask="url(#path-87-outside-1_132_221)"/>
<path d="M308.552 484.137C313.967 484.137 318.064 485.55 320.844 488.378C323.671 491.157 325.085 495.254 325.085 500.669V517.92C325.085 523.335 323.671 527.457 320.844 530.284C318.064 533.063 313.967 534.453 308.552 534.453H280.519V484.137H308.552ZM312.146 500.669C312.146 496.356 309.99 494.2 305.677 494.2H293.457V524.39H305.677C309.99 524.39 312.146 522.233 312.146 517.92V500.669Z" stroke="url(#paint16_linear_132_221)" stroke-width="30" mask="url(#path-87-outside-1_132_221)"/>
<path d="M392.618 533.734C381.932 534.692 373.067 535.172 366.023 535.172C361.326 535.172 357.876 534.07 355.672 531.865C353.467 529.661 352.365 526.211 352.365 521.514V498.513C352.365 493.481 353.491 489.839 355.744 487.587C358.044 485.287 361.71 484.137 366.741 484.137H392.618V494.2H369.617C366.741 494.2 365.304 495.638 365.304 498.513V521.514C365.304 522.617 365.615 523.503 366.238 524.174C366.909 524.797 367.748 525.108 368.754 525.108C369.76 525.108 370.863 525.108 372.061 525.108C373.259 525.061 374.504 525.013 375.798 524.965C377.092 524.917 378.386 524.869 379.68 524.821C381.022 524.773 382.723 524.677 384.783 524.533C386.892 524.39 389.503 524.222 392.618 524.03V533.734Z" stroke="url(#paint17_linear_132_221)" stroke-width="30" mask="url(#path-87-outside-1_132_221)"/>
<path d="M430.723 497.794C430.723 494.919 429.286 493.481 426.41 493.481H414.191C411.316 493.481 409.878 494.919 409.878 497.794V520.796C409.878 523.671 411.316 525.108 414.191 525.108H426.41C429.286 525.108 430.723 523.671 430.723 520.796V497.794ZM443.662 520.796C443.662 525.827 442.512 529.493 440.211 531.793C437.959 534.046 434.317 535.172 429.286 535.172H411.316C406.284 535.172 402.618 534.046 400.318 531.793C398.066 529.493 396.94 525.827 396.94 520.796V497.794C396.94 492.762 398.066 489.12 400.318 486.868C402.618 484.568 406.284 483.418 411.316 483.418H429.286C434.317 483.418 437.959 484.568 440.211 486.868C442.512 489.12 443.662 492.762 443.662 497.794V520.796Z" stroke="url(#paint18_linear_132_221)" stroke-width="30" mask="url(#path-87-outside-1_132_221)"/>
<path d="M463.822 524.39H490.058V534.453H450.883V484.137H463.822V524.39Z" stroke="url(#paint19_linear_132_221)" stroke-width="30" mask="url(#path-87-outside-1_132_221)"/>
<path d="M508.045 524.39H534.281V534.453H495.107V484.137H508.045V524.39Z" stroke="url(#paint20_linear_132_221)" stroke-width="30" mask="url(#path-87-outside-1_132_221)"/>
<path d="M579.223 534.453H539.33V484.137H579.223V494.2H552.268V503.904H573.473V513.967H552.268V524.39H579.223V534.453Z" stroke="url(#paint21_linear_132_221)" stroke-width="30" mask="url(#path-87-outside-1_132_221)"/>
<path d="M623.772 533.734C613.086 534.692 604.221 535.172 597.177 535.172C592.481 535.172 589.03 534.07 586.826 531.865C584.622 529.661 583.519 526.211 583.519 521.514V498.513C583.519 493.481 584.646 489.839 586.898 487.587C589.198 485.287 592.864 484.137 597.896 484.137H623.772V494.2H600.771C597.896 494.2 596.458 495.638 596.458 498.513V521.514C596.458 522.617 596.769 523.503 597.392 524.174C598.063 524.797 598.902 525.108 599.908 525.108C600.914 525.108 602.017 525.108 603.215 525.108C604.413 525.061 605.659 525.013 606.952 524.965C608.246 524.917 609.54 524.869 610.834 524.821C612.176 524.773 613.877 524.677 615.937 524.533C618.046 524.39 620.658 524.222 623.772 524.03V533.734Z" stroke="url(#paint22_linear_132_221)" stroke-width="30" mask="url(#path-87-outside-1_132_221)"/>
<path d="M653.971 534.453H641.032V494.2H625.937V484.137H669.065V494.2H653.971V534.453Z" stroke="url(#paint23_linear_132_221)" stroke-width="30" mask="url(#path-87-outside-1_132_221)"/>
<path d="M706.452 497.794C706.452 494.919 705.014 493.481 702.139 493.481H689.919C687.044 493.481 685.606 494.919 685.606 497.794V520.796C685.606 523.671 687.044 525.108 689.919 525.108H702.139C705.014 525.108 706.452 523.671 706.452 520.796V497.794ZM719.39 520.796C719.39 525.827 718.24 529.493 715.94 531.793C713.688 534.046 710.046 535.172 705.014 535.172H687.044C682.012 535.172 678.346 534.046 676.046 531.793C673.794 529.493 672.668 525.827 672.668 520.796V497.794C672.668 492.762 673.794 489.12 676.046 486.868C678.346 484.568 682.012 483.418 687.044 483.418H705.014C710.046 483.418 713.688 484.568 715.94 486.868C718.24 489.12 719.39 492.762 719.39 497.794V520.796Z" stroke="url(#paint24_linear_132_221)" stroke-width="30" mask="url(#path-87-outside-1_132_221)"/>
<path d="M726.612 484.137H756.802C761.833 484.137 765.475 485.287 767.727 487.587C770.028 489.839 771.178 493.481 771.178 498.513V504.982C771.178 508.959 770.507 512.05 769.165 514.254C767.871 516.459 765.787 517.92 762.911 518.639L771.896 534.453H757.88L749.614 519.358H739.55V534.453H726.612V484.137ZM758.239 498.513C758.239 495.638 756.802 494.2 753.926 494.2H739.55V509.295H753.926C756.802 509.295 758.239 507.857 758.239 504.982V498.513Z" stroke="url(#paint25_linear_132_221)" stroke-width="30" mask="url(#path-87-outside-1_132_221)"/>
</g>
</g>
</g>
<defs>
<linearGradient id="paint0_linear_132_221" x1="700.095" y1="360.004" x2="905.683" y2="313.482" gradientUnits="userSpaceOnUse">
<stop stop-color="#818181"/>
<stop offset="1" stop-color="white"/>
</linearGradient>
<linearGradient id="paint1_linear_132_221" x1="513.838" y1="293.774" x2="702.109" y2="253.136" gradientUnits="userSpaceOnUse">
<stop stop-color="#818181"/>
<stop offset="1" stop-color="white"/>
</linearGradient>
<linearGradient id="paint2_linear_132_221" x1="189.849" y1="345.942" x2="463.303" y2="411.698" gradientUnits="userSpaceOnUse">
<stop stop-color="#585656"/>
<stop offset="1" stop-color="white"/>
</linearGradient>
<linearGradient id="paint3_linear_132_221" x1="-76.669" y1="430.124" x2="305.282" y2="585.295" gradientUnits="userSpaceOnUse">
<stop stop-color="#818181"/>
<stop offset="1" stop-color="white"/>
</linearGradient>
<linearGradient id="paint4_linear_132_221" x1="86.0969" y1="358.323" x2="57.4212" y2="304.864" gradientUnits="userSpaceOnUse">
<stop stop-color="#0070B6"/>
<stop offset="1" stop-color="#1D2C5E"/>
</linearGradient>
<linearGradient id="paint5_linear_132_221" x1="436.059" y1="249.129" x2="472.463" y2="210.105" gradientUnits="userSpaceOnUse">
<stop stop-color="#0070B6"/>
<stop offset="1" stop-color="#1D2C5E"/>
</linearGradient>
<linearGradient id="paint6_linear_132_221" x1="277.16" y1="314.162" x2="272.822" y2="277.691" gradientUnits="userSpaceOnUse">
<stop stop-color="#0070B6"/>
<stop offset="1" stop-color="#1D2C5E"/>
</linearGradient>
<linearGradient id="paint7_linear_132_221" x1="675.013" y1="307.142" x2="673.281" y2="274.221" gradientUnits="userSpaceOnUse">
<stop stop-color="#125D9E"/>
<stop offset="1" stop-color="#1D2C5E"/>
</linearGradient>
<linearGradient id="paint8_linear_132_221" x1="553.461" y1="259.691" x2="515.262" y2="320.485" gradientUnits="userSpaceOnUse">
<stop stop-color="#125D9E"/>
<stop offset="1" stop-color="#1D2C5E"/>
</linearGradient>
<linearGradient id="paint9_linear_132_221" x1="215.197" y1="357.175" x2="241.239" y2="408.415" gradientUnits="userSpaceOnUse">
<stop stop-color="#105FA1"/>
<stop offset="1" stop-color="#1D2C5E"/>
</linearGradient>
<linearGradient id="paint10_linear_132_221" x1="116.864" y1="339.69" x2="147.003" y2="409.589" gradientUnits="userSpaceOnUse">
<stop stop-color="#105FA1"/>
<stop offset="1" stop-color="#1D2C5E"/>
</linearGradient>
<linearGradient id="paint11_linear_132_221" x1="249.241" y1="365.653" x2="294.868" y2="365.653" gradientUnits="userSpaceOnUse">
<stop stop-color="#3C5AA6"/>
<stop offset="0.933" stop-color="#2B73B9"/>
<stop offset="1" stop-color="#2A75BB"/>
</linearGradient>
<linearGradient id="paint12_linear_132_221" x1="58.6729" y1="342.178" x2="819.876" y2="342.178" gradientUnits="userSpaceOnUse">
<stop stop-color="#3C5AA6"/>
<stop offset="0.933" stop-color="#2B73B9"/>
<stop offset="1" stop-color="#2A75BB"/>
</linearGradient>
<linearGradient id="paint13_linear_132_221" x1="102" y1="483.002" x2="791" y2="509.002" gradientUnits="userSpaceOnUse">
<stop stop-color="#193569"/>
<stop offset="1" stop-color="#016DB2"/>
</linearGradient>
<linearGradient id="paint14_linear_132_221" x1="102" y1="483.002" x2="791" y2="509.002" gradientUnits="userSpaceOnUse">
<stop stop-color="#193569"/>
<stop offset="1" stop-color="#016DB2"/>
</linearGradient>
<linearGradient id="paint15_linear_132_221" x1="102" y1="483.002" x2="791" y2="509.002" gradientUnits="userSpaceOnUse">
<stop stop-color="#193569"/>
<stop offset="1" stop-color="#016DB2"/>
</linearGradient>
<linearGradient id="paint16_linear_132_221" x1="102" y1="483.002" x2="791" y2="509.002" gradientUnits="userSpaceOnUse">
<stop stop-color="#193569"/>
<stop offset="1" stop-color="#016DB2"/>
</linearGradient>
<linearGradient id="paint17_linear_132_221" x1="102" y1="483.002" x2="791" y2="509.002" gradientUnits="userSpaceOnUse">
<stop stop-color="#193569"/>
<stop offset="1" stop-color="#016DB2"/>
</linearGradient>
<linearGradient id="paint18_linear_132_221" x1="102" y1="483.002" x2="791" y2="509.002" gradientUnits="userSpaceOnUse">
<stop stop-color="#193569"/>
<stop offset="1" stop-color="#016DB2"/>
</linearGradient>
<linearGradient id="paint19_linear_132_221" x1="102" y1="483.002" x2="791" y2="509.002" gradientUnits="userSpaceOnUse">
<stop stop-color="#193569"/>
<stop offset="1" stop-color="#016DB2"/>
</linearGradient>
<linearGradient id="paint20_linear_132_221" x1="102" y1="483.002" x2="791" y2="509.002" gradientUnits="userSpaceOnUse">
<stop stop-color="#193569"/>
<stop offset="1" stop-color="#016DB2"/>
</linearGradient>
<linearGradient id="paint21_linear_132_221" x1="102" y1="483.002" x2="791" y2="509.002" gradientUnits="userSpaceOnUse">
<stop stop-color="#193569"/>
<stop offset="1" stop-color="#016DB2"/>
</linearGradient>
<linearGradient id="paint22_linear_132_221" x1="102" y1="483.002" x2="791" y2="509.002" gradientUnits="userSpaceOnUse">
<stop stop-color="#193569"/>
<stop offset="1" stop-color="#016DB2"/>
</linearGradient>
<linearGradient id="paint23_linear_132_221" x1="102" y1="483.002" x2="791" y2="509.002" gradientUnits="userSpaceOnUse">
<stop stop-color="#193569"/>
<stop offset="1" stop-color="#016DB2"/>
</linearGradient>
<linearGradient id="paint24_linear_132_221" x1="102" y1="483.002" x2="791" y2="509.002" gradientUnits="userSpaceOnUse">
<stop stop-color="#193569"/>
<stop offset="1" stop-color="#016DB2"/>
</linearGradient>
<linearGradient id="paint25_linear_132_221" x1="102" y1="483.002" x2="791" y2="509.002" gradientUnits="userSpaceOnUse">
<stop stop-color="#193569"/>
<stop offset="1" stop-color="#016DB2"/>
</linearGradient>
<clipPath id="clip0_132_221">
<rect width="93.1257" height="93.1257" fill="white" transform="translate(603.395 343.392) rotate(33.6833)"/>
</clipPath>
<clipPath id="clip1_132_221">
<rect width="93.1257" height="93.1257" fill="white" transform="translate(487.958 300.051) rotate(11.0037)"/>
</clipPath>
<clipPath id="clip2_132_221">
<rect width="93.1257" height="93.1257" fill="white" transform="translate(325.166 309.336) rotate(-13.3518)"/>
</clipPath>
<clipPath id="clip3_132_221">
<rect width="93.1257" height="93.1257" fill="white" transform="translate(175.444 373.014) rotate(-31.2796)"/>
</clipPath>
<clipPath id="clip4_132_221">
<rect width="771.964" height="283.029" fill="white" transform="translate(48 205.001)"/>
</clipPath>
</defs>
</svg>
