<svg width="52" height="52" viewBox="0 0 52 52" fill="none" xmlns="http://www.w3.org/2000/svg">
<g clip-path="url(#clip0_134_2)">
<path d="M48.6998 13.5183C49.4736 14.9465 50.1217 16.4388 50.6368 17.9785C51.7048 21.1888 52.1248 24.578 51.8726 27.9507C51.6205 31.3234 50.7012 34.6131 49.1677 37.6304C44.9004 46.0783 35.7643 51.8706 26.2477 51.9436C16.6865 52.0165 7.79705 46.4422 3.3181 38.1038C1.93696 35.5261 1.00761 32.7324 0.570083 29.8431C0.0702994 26.6198 0.236628 23.4259 0.937758 20.2487C1.24018 18.8817 1.61422 17.5194 2.17608 16.2515C4.27708 11.5082 7.37447 7.55469 11.7587 4.65892C18.3013 0.339048 26.7252 -0.934394 34.2116 1.51337C40.4358 3.54882 45.3994 7.95115 48.6998 13.5183Z" fill="#010101"/>
<path d="M27.2415 2.59241C33.8541 2.78985 40.1667 5.81011 44.8979 11.9426C47.7979 15.7019 49.3148 19.9829 49.618 24.7087C49.6546 25.2741 49.466 25.623 49.0386 25.9243C47.3124 27.1414 45.4518 28.108 43.506 28.9263C40.7674 30.0748 37.9177 30.9402 35.0017 31.5089C34.4112 31.6246 33.8159 31.7142 33.2246 31.8221C32.8808 31.8855 32.7081 31.8054 32.5736 31.4256C31.3798 28.0406 28.4026 26.2343 24.9949 26.9059C22.4848 27.4023 20.8271 28.9636 20.0169 31.3733C19.8578 31.8364 19.7209 31.9712 19.206 31.9014C15.9041 31.464 12.666 30.6375 9.55966 29.4393C7.20797 28.5267 4.96213 27.4039 2.89296 25.9505C2.63591 25.7689 2.5794 25.5746 2.58815 25.2931C2.71349 21.2585 3.88376 17.3247 5.98533 13.8737C8.0869 10.4227 11.0484 7.57171 14.5822 5.5976C18.1634 3.58991 22.0177 2.59716 27.2415 2.59241Z" fill="#ED1E25"/>
<path d="M48.5428 31.5699C45.9611 41.9819 36.4191 50.3568 24.3129 49.529C12.326 48.7075 4.83959 39.3232 3.41266 31.627C4.40268 32.0901 5.37519 32.5667 6.3652 33.0036C10.1852 34.6877 14.1723 35.7685 18.3027 36.3616C18.4135 36.3823 18.5253 36.3963 18.6378 36.4036C19.9023 36.4385 20.7985 36.9658 21.724 37.9173C24.6407 40.9178 29.4126 40.3477 31.7515 36.8786C31.816 36.7766 31.9036 36.691 32.0073 36.6288C32.1109 36.5666 32.2277 36.5294 32.3484 36.5202C36.5472 36.016 40.6609 34.9618 44.5828 33.385C45.6086 32.9734 46.6018 32.481 47.6069 32.0227C47.8942 31.8911 48.1767 31.7476 48.5428 31.5699Z" fill="white"/>
<path d="M26.2642 29.0429C28.6263 29.0357 30.5864 30.9649 30.5888 33.3009C30.5912 35.6369 28.6358 37.5827 26.2778 37.574C25.7184 37.5762 25.1641 37.4683 24.6467 37.2566C24.1293 37.0449 23.6589 36.7335 23.2625 36.3403C22.8661 35.947 22.5515 35.4797 22.3368 34.9651C22.1221 34.4504 22.0115 33.8986 22.0113 33.3413C22.0017 30.9459 23.8767 29.05 26.2642 29.0429Z" fill="white"/>
</g>
<defs>
<clipPath id="clip0_134_2">
<rect width="51.664" height="51.664" fill="white" transform="translate(0.280243 0.280273)"/>
</clipPath>
</defs>
</svg>
