<svg width="100" height="100" viewBox="0 0 100 100" fill="none" xmlns="http://www.w3.org/2000/svg">
<circle cx="50" cy="50" r="50" fill="url(#paint0_linear_239_953)"/>
<mask id="path-2-inside-1_239_953" fill="white">
<path fill-rule="evenodd" clip-rule="evenodd" d="M53.3477 15.8954C52.4491 13.3626 48.8644 13.3701 47.9764 15.9067L39.7511 39.4024C37.5118 40.3297 32.2281 42.562 28.4352 44.5156C25.323 46.1187 21.5456 48.91 19.0479 50.8643C17.6275 51.9756 17.6629 54.1012 19.082 55.2142L28.9414 62.947L30.976 79.5311C31.1512 80.9589 32.3638 82.0319 33.8023 82.0319H35.6624C36.2946 84.4882 38.5243 86.3032 41.178 86.3032H42.4594C45.1131 86.3032 47.3428 84.4882 47.9751 82.0319H53.4595C54.0917 84.4882 56.3215 86.3032 58.9751 86.3032H59.9718C62.6254 86.3032 64.8552 84.4882 65.4874 82.0319H67.7454C69.1963 82.0319 70.4153 80.9409 70.5755 79.4988L72.3995 63.0827L82.0022 54.9062C83.3792 53.7337 83.3267 51.597 81.8714 50.523C79.5361 48.7996 76.1716 46.3954 73.4975 44.8004C69.6901 42.5295 63.9002 39.882 61.4738 38.7997L53.3477 15.8954ZM35.8622 60.301C35.6755 58.6146 36.9957 57.1402 38.6924 57.1402H40.0601C41.6555 59.3794 43.8352 60.5392 45.5493 59.8414C46.9707 59.2627 47.729 57.5465 47.706 55.4282C48.3631 54.569 49.4482 54.0078 50.6755 54.0078C52.202 54.0078 53.5084 54.8759 54.0452 56.1056C54.1192 57.7611 54.7514 59.0899 55.9032 59.6574C57.6181 60.5024 59.9694 59.4055 61.7421 57.1402H63.0856C64.7823 57.1402 66.1025 58.6146 65.9158 60.301L64.4817 73.2573C64.3221 74.6999 63.1029 75.7915 61.6515 75.7915H40.1265C38.6751 75.7915 37.4559 74.6999 37.2962 73.2573L35.8622 60.301ZM44.9874 52.0645C46.0382 54.3724 45.8005 56.7394 44.4564 57.3514C43.1124 57.9633 41.171 56.5885 40.1202 54.2806C39.0693 51.9727 39.3071 49.6057 40.6511 48.9938C41.9951 48.3818 43.9366 49.7566 44.9874 52.0645ZM57.3029 57.3434C58.6435 57.963 60.5927 56.5992 61.6566 54.2974C62.7205 51.9955 62.4963 49.6272 61.1558 49.0076C59.8152 48.388 57.866 49.7517 56.8021 52.0536C55.7381 54.3555 55.9624 56.7238 57.3029 57.3434ZM30.6716 50.4484C30.6716 51.1561 30.0979 51.7298 29.3902 51.7298C28.6825 51.7298 28.1088 51.1561 28.1088 50.4484C28.1088 49.7407 28.6825 49.167 29.3902 49.167C30.0979 49.167 30.6716 49.7407 30.6716 50.4484ZM29.3902 57.1401C30.0979 57.1401 30.6716 56.5664 30.6716 55.8587C30.6716 55.151 30.0979 54.5773 29.3902 54.5773C28.6825 54.5773 28.1088 55.151 28.1088 55.8587C28.1088 56.5664 28.6825 57.1401 29.3902 57.1401ZM73.6693 50.3061C73.6693 51.0138 73.0956 51.5875 72.3879 51.5875C71.6802 51.5875 71.1065 51.0138 71.1065 50.3061C71.1065 49.5984 71.6802 49.0247 72.3879 49.0247C73.0956 49.0247 73.6693 49.5984 73.6693 50.3061ZM72.3879 56.9978C73.0956 56.9978 73.6693 56.4241 73.6693 55.7164C73.6693 55.0087 73.0956 54.435 72.3879 54.435C71.6802 54.435 71.1065 55.0087 71.1065 55.7164C71.1065 56.4241 71.6802 56.9978 72.3879 56.9978Z"/>
</mask>
<path fill-rule="evenodd" clip-rule="evenodd" d="M53.3477 15.8954C52.4491 13.3626 48.8644 13.3701 47.9764 15.9067L39.7511 39.4024C37.5118 40.3297 32.2281 42.562 28.4352 44.5156C25.323 46.1187 21.5456 48.91 19.0479 50.8643C17.6275 51.9756 17.6629 54.1012 19.082 55.2142L28.9414 62.947L30.976 79.5311C31.1512 80.9589 32.3638 82.0319 33.8023 82.0319H35.6624C36.2946 84.4882 38.5243 86.3032 41.178 86.3032H42.4594C45.1131 86.3032 47.3428 84.4882 47.9751 82.0319H53.4595C54.0917 84.4882 56.3215 86.3032 58.9751 86.3032H59.9718C62.6254 86.3032 64.8552 84.4882 65.4874 82.0319H67.7454C69.1963 82.0319 70.4153 80.9409 70.5755 79.4988L72.3995 63.0827L82.0022 54.9062C83.3792 53.7337 83.3267 51.597 81.8714 50.523C79.5361 48.7996 76.1716 46.3954 73.4975 44.8004C69.6901 42.5295 63.9002 39.882 61.4738 38.7997L53.3477 15.8954ZM35.8622 60.301C35.6755 58.6146 36.9957 57.1402 38.6924 57.1402H40.0601C41.6555 59.3794 43.8352 60.5392 45.5493 59.8414C46.9707 59.2627 47.729 57.5465 47.706 55.4282C48.3631 54.569 49.4482 54.0078 50.6755 54.0078C52.202 54.0078 53.5084 54.8759 54.0452 56.1056C54.1192 57.7611 54.7514 59.0899 55.9032 59.6574C57.6181 60.5024 59.9694 59.4055 61.7421 57.1402H63.0856C64.7823 57.1402 66.1025 58.6146 65.9158 60.301L64.4817 73.2573C64.3221 74.6999 63.1029 75.7915 61.6515 75.7915H40.1265C38.6751 75.7915 37.4559 74.6999 37.2962 73.2573L35.8622 60.301ZM44.9874 52.0645C46.0382 54.3724 45.8005 56.7394 44.4564 57.3514C43.1124 57.9633 41.171 56.5885 40.1202 54.2806C39.0693 51.9727 39.3071 49.6057 40.6511 48.9938C41.9951 48.3818 43.9366 49.7566 44.9874 52.0645ZM57.3029 57.3434C58.6435 57.963 60.5927 56.5992 61.6566 54.2974C62.7205 51.9955 62.4963 49.6272 61.1558 49.0076C59.8152 48.388 57.866 49.7517 56.8021 52.0536C55.7381 54.3555 55.9624 56.7238 57.3029 57.3434ZM30.6716 50.4484C30.6716 51.1561 30.0979 51.7298 29.3902 51.7298C28.6825 51.7298 28.1088 51.1561 28.1088 50.4484C28.1088 49.7407 28.6825 49.167 29.3902 49.167C30.0979 49.167 30.6716 49.7407 30.6716 50.4484ZM29.3902 57.1401C30.0979 57.1401 30.6716 56.5664 30.6716 55.8587C30.6716 55.151 30.0979 54.5773 29.3902 54.5773C28.6825 54.5773 28.1088 55.151 28.1088 55.8587C28.1088 56.5664 28.6825 57.1401 29.3902 57.1401ZM73.6693 50.3061C73.6693 51.0138 73.0956 51.5875 72.3879 51.5875C71.6802 51.5875 71.1065 51.0138 71.1065 50.3061C71.1065 49.5984 71.6802 49.0247 72.3879 49.0247C73.0956 49.0247 73.6693 49.5984 73.6693 50.3061ZM72.3879 56.9978C73.0956 56.9978 73.6693 56.4241 73.6693 55.7164C73.6693 55.0087 73.0956 54.435 72.3879 54.435C71.6802 54.435 71.1065 55.0087 71.1065 55.7164C71.1065 56.4241 71.6802 56.9978 72.3879 56.9978Z" fill="white"/>
<path d="M47.9764 15.9067L47.6933 15.8075L47.9764 15.9067ZM53.3477 15.8954L53.0649 15.9957L53.3477 15.8954ZM39.7511 39.4024L39.8659 39.6796L39.9899 39.6282L40.0342 39.5015L39.7511 39.4024ZM28.4352 44.5156L28.2979 44.2489L28.4352 44.5156ZM19.0479 50.8643L18.863 50.628H18.863L19.0479 50.8643ZM19.082 55.2142L19.2671 54.9781H19.2671L19.082 55.2142ZM28.9414 62.947L29.2391 62.9105L29.2241 62.7874L29.1265 62.7109L28.9414 62.947ZM30.976 79.5311L30.6782 79.5676L30.976 79.5311ZM35.6624 82.0319L35.9529 81.9571L35.8949 81.7319H35.6624V82.0319ZM47.9751 82.0319V81.7319H47.7425L47.6845 81.9571L47.9751 82.0319ZM53.4595 82.0319L53.75 81.9571L53.692 81.7319H53.4595V82.0319ZM65.4874 82.0319V81.7319H65.2549L65.1969 81.9571L65.4874 82.0319ZM70.5755 79.4988L70.8737 79.5319L70.5755 79.4988ZM72.3995 63.0827L72.205 62.8543L72.1145 62.9314L72.1013 63.0496L72.3995 63.0827ZM82.0022 54.9062L82.1967 55.1346L82.0022 54.9062ZM81.8714 50.523L82.0496 50.2816L81.8714 50.523ZM73.4975 44.8004L73.6512 44.5428V44.5427L73.4975 44.8004ZM61.4738 38.7997L61.1911 38.9L61.2341 39.0212L61.3516 39.0736L61.4738 38.7997ZM35.8622 60.301L36.1603 60.268L35.8622 60.301ZM40.0601 57.1402L40.3044 56.9661L40.2147 56.8402H40.0601V57.1402ZM45.5493 59.8414L45.6624 60.1192L45.5493 59.8414ZM47.706 55.4282L47.4677 55.246L47.4049 55.3281L47.406 55.4315L47.706 55.4282ZM54.0452 56.1056L54.3448 56.0922L54.3424 56.0366L54.3201 55.9856L54.0452 56.1056ZM55.9032 59.6574L55.7706 59.9265L55.9032 59.6574ZM61.7421 57.1402V56.8402H61.5959L61.5058 56.9553L61.7421 57.1402ZM65.9158 60.301L66.214 60.334L65.9158 60.301ZM64.4817 73.2573L64.1835 73.2243L64.4817 73.2573ZM37.2962 73.2573L36.9981 73.2903L37.2962 73.2573ZM44.9874 52.0645L45.2604 51.9402L44.9874 52.0645ZM61.6566 54.2974L61.9289 54.4232H61.9289L61.6566 54.2974ZM57.3029 57.3434L57.4288 57.0711L57.3029 57.3434ZM61.1558 49.0076L61.2816 48.7352L61.1558 49.0076ZM48.2596 16.0058C49.054 13.7364 52.261 13.7297 53.0649 15.9957L53.6304 15.7951C52.6371 12.9954 48.6749 13.0037 47.6933 15.8075L48.2596 16.0058ZM40.0342 39.5015L48.2596 16.0058L47.6933 15.8075L39.4679 39.3033L40.0342 39.5015ZM28.5726 44.7823C32.3531 42.835 37.6264 40.607 39.8659 39.6796L39.6363 39.1252C37.3972 40.0525 32.103 42.2889 28.2979 44.2489L28.5726 44.7823ZM19.2327 51.1006C21.7297 49.1469 25.4878 46.3713 28.5726 44.7823L28.2979 44.2489C25.1583 45.8661 21.3616 48.6731 18.863 50.628L19.2327 51.1006ZM19.2671 54.9781C17.9955 53.9808 17.9715 52.0874 19.2327 51.1006L18.863 50.628C17.2835 51.8639 17.3304 54.2216 18.8969 55.4502L19.2671 54.9781ZM29.1265 62.7109L19.2671 54.9781L18.8969 55.4502L28.7562 63.1831L29.1265 62.7109ZM31.2738 79.4946L29.2391 62.9105L28.6436 62.9835L30.6782 79.5676L31.2738 79.4946ZM33.8023 81.7319C32.5154 81.7319 31.4305 80.772 31.2738 79.4946L30.6782 79.5676C30.8719 81.1459 32.2122 82.3319 33.8023 82.3319V81.7319ZM35.6624 81.7319H33.8023V82.3319H35.6624V81.7319ZM41.178 86.0032C38.6645 86.0032 36.5518 84.2841 35.9529 81.9571L35.3718 82.1067C36.0373 84.6923 38.3841 86.6032 41.178 86.6032V86.0032ZM42.4594 86.0032H41.178V86.6032H42.4594V86.0032ZM47.6845 81.9571C47.0856 84.2841 44.9729 86.0032 42.4594 86.0032V86.6032C45.2533 86.6032 47.6001 84.6923 48.2656 82.1067L47.6845 81.9571ZM53.4595 81.7319H47.9751V82.3319H53.4595V81.7319ZM58.9751 86.0032C56.4617 86.0032 54.3489 84.2841 53.75 81.9571L53.1689 82.1067C53.8344 84.6923 56.1813 86.6032 58.9751 86.6032V86.0032ZM59.9718 86.0032H58.9751V86.6032H59.9718V86.0032ZM65.1969 81.9571C64.598 84.2841 62.4852 86.0032 59.9718 86.0032V86.6032C62.7656 86.6032 65.1124 84.6923 65.7779 82.1067L65.1969 81.9571ZM67.7454 81.7319H65.4874V82.3319H67.7454V81.7319ZM70.2773 79.4657C70.134 80.7558 69.0435 81.7319 67.7454 81.7319V82.3319C69.3492 82.3319 70.6966 81.126 70.8737 79.5319L70.2773 79.4657ZM72.1013 63.0496L70.2773 79.4657L70.8737 79.5319L72.6977 63.1158L72.1013 63.0496ZM81.8077 54.6778L72.205 62.8543L72.594 63.3111L82.1967 55.1346L81.8077 54.6778ZM81.6933 50.7644C82.9896 51.721 83.0409 53.6277 81.8077 54.6778L82.1967 55.1346C83.7176 53.8396 83.6638 51.4729 82.0496 50.2816L81.6933 50.7644ZM73.3438 45.0581C76.0043 46.6449 79.3586 49.0415 81.6933 50.7644L82.0496 50.2816C79.7135 48.5577 76.3389 46.1459 73.6512 44.5428L73.3438 45.0581ZM61.3516 39.0736C63.7791 40.1565 69.5537 42.7974 73.3438 45.0581L73.6512 44.5427C69.8265 42.2615 64.0212 39.6075 61.596 38.5257L61.3516 39.0736ZM53.0649 15.9957L61.1911 38.9L61.7566 38.6993L53.6304 15.7951L53.0649 15.9957ZM38.6924 56.8402C36.817 56.8402 35.3576 58.4699 35.564 60.334L36.1603 60.268C35.9933 58.7593 37.1745 57.4402 38.6924 57.4402V56.8402ZM40.0601 56.8402H38.6924V57.4402H40.0601V56.8402ZM45.4362 59.5635C44.681 59.8709 43.8 59.7798 42.8951 59.3242C41.9895 58.8682 41.0807 58.0556 40.3044 56.9661L39.8158 57.3142C40.6349 58.464 41.6137 59.3508 42.6253 59.8601C43.6376 60.3698 44.7035 60.5096 45.6624 60.1192L45.4362 59.5635ZM47.406 55.4315C47.4285 57.5026 46.6864 59.0545 45.4362 59.5635L45.6624 60.1192C47.2549 59.4709 48.0295 57.5904 48.006 55.425L47.406 55.4315ZM50.6755 53.7078C49.3567 53.7078 48.1828 54.3111 47.4677 55.246L47.9443 55.6105C48.5435 54.827 49.5397 54.3078 50.6755 54.3078V53.7078ZM54.3201 55.9856C53.7329 54.6404 52.3143 53.7078 50.6755 53.7078V54.3078C52.0896 54.3078 53.2839 55.1115 53.7702 56.2256L54.3201 55.9856ZM56.0357 59.3883C55.0227 58.8892 54.4164 57.6925 54.3448 56.0922L53.7454 56.119C53.822 57.8298 54.4801 59.2907 55.7706 59.9265L56.0357 59.3883ZM61.5058 56.9553C60.6427 58.0583 59.6489 58.8631 58.6799 59.2907C57.7112 59.7181 56.7911 59.7605 56.0357 59.3883L55.7706 59.9265C56.7301 60.3993 57.8432 60.3157 58.9221 59.8396C60.0006 59.3637 61.0688 58.4874 61.9784 57.325L61.5058 56.9553ZM63.0856 56.8402H61.7421V57.4402H63.0856V56.8402ZM66.214 60.334C66.4203 58.4699 64.961 56.8402 63.0856 56.8402V57.4402C64.6035 57.4402 65.7846 58.7592 65.6176 60.268L66.214 60.334ZM64.7799 73.2903L66.214 60.334L65.6176 60.268L64.1835 73.2243L64.7799 73.2903ZM61.6515 76.0915C63.2558 76.0915 64.6034 74.8849 64.7799 73.2903L64.1835 73.2243C64.0407 74.5149 62.95 75.4915 61.6515 75.4915V76.0915ZM40.1265 76.0915H61.6515V75.4915H40.1265V76.0915ZM36.9981 73.2903C37.1746 74.8849 38.5222 76.0915 40.1265 76.0915V75.4915C38.828 75.4915 37.7373 74.5149 37.5944 73.2243L36.9981 73.2903ZM35.564 60.334L36.9981 73.2903L37.5944 73.2243L36.1603 60.268L35.564 60.334ZM44.5807 57.6244C45.3904 57.2558 45.8171 56.3836 45.9185 55.3739C46.0207 54.3556 45.8038 53.1337 45.2604 51.9402L44.7143 52.1888C45.2217 53.3032 45.4114 54.4188 45.3215 55.3139C45.2307 56.2177 44.8665 56.835 44.3321 57.0784L44.5807 57.6244ZM39.8471 54.4049C40.3905 55.5985 41.1698 56.5643 42.005 57.1558C42.8331 57.7422 43.7711 57.9931 44.5807 57.6244L44.3321 57.0784C43.7977 57.3217 43.093 57.1911 42.3517 56.6661C41.6175 56.1462 40.9006 55.2707 40.3932 54.1563L39.8471 54.4049ZM40.5268 48.7207C39.7171 49.0894 39.2905 49.9615 39.1891 50.9712C39.0868 51.9895 39.3037 53.2114 39.8471 54.4049L40.3932 54.1563C39.8858 53.0419 39.6961 51.9264 39.7861 51.0312C39.8768 50.1274 40.241 49.5101 40.7754 49.2668L40.5268 48.7207ZM45.2604 51.9402C44.717 50.7467 43.9378 49.7808 43.1026 49.1894C42.2744 48.6029 41.3365 48.3521 40.5268 48.7207L40.7754 49.2668C41.3098 49.0235 42.0146 49.1541 42.7558 49.679C43.4901 50.199 44.207 51.0745 44.7143 52.1888L45.2604 51.9402ZM61.3843 54.1715C60.8706 55.283 60.1487 56.1544 59.4115 56.6701C58.6673 57.1908 57.9618 57.3174 57.4288 57.0711L57.1771 57.6157C57.9846 57.989 58.924 57.7435 59.7555 57.1617C60.594 56.5751 61.3787 55.6136 61.9289 54.4232L61.3843 54.1715ZM61.0299 49.2799C61.5629 49.5262 61.9236 50.1456 62.0092 51.0499C62.094 51.9456 61.898 53.06 61.3843 54.1715L61.9289 54.4232C62.4791 53.2328 62.703 52.0122 62.6065 50.9933C62.5109 49.9831 62.0892 49.1085 61.2816 48.7352L61.0299 49.2799ZM57.0744 52.1795C57.5881 51.068 58.31 50.1966 59.0472 49.6808C59.7914 49.1601 60.4969 49.0335 61.0299 49.2799L61.2816 48.7352C60.4741 48.362 59.5347 48.6075 58.7032 49.1892C57.8647 49.7759 57.08 50.7373 56.5298 51.9277L57.0744 52.1795ZM57.4288 57.0711C56.8958 56.8247 56.5351 56.2053 56.4495 55.3011C56.3647 54.4054 56.5607 53.2909 57.0744 52.1795L56.5298 51.9277C55.9795 53.1181 55.7557 54.3388 55.8522 55.3576C55.9478 56.3679 56.3695 57.2424 57.1771 57.6157L57.4288 57.0711ZM29.3902 52.0298C30.2636 52.0298 30.9716 51.3218 30.9716 50.4484H30.3716C30.3716 50.9904 29.9322 51.4298 29.3902 51.4298V52.0298ZM27.8088 50.4484C27.8088 51.3218 28.5168 52.0298 29.3902 52.0298V51.4298C28.8482 51.4298 28.4088 50.9904 28.4088 50.4484H27.8088ZM29.3902 48.867C28.5168 48.867 27.8088 49.5751 27.8088 50.4484H28.4088C28.4088 49.9064 28.8482 49.467 29.3902 49.467V48.867ZM30.9716 50.4484C30.9716 49.5751 30.2636 48.867 29.3902 48.867V49.467C29.9322 49.467 30.3716 49.9064 30.3716 50.4484H30.9716ZM30.3716 55.8587C30.3716 56.4007 29.9322 56.8401 29.3902 56.8401V57.4401C30.2636 57.4401 30.9716 56.7321 30.9716 55.8587H30.3716ZM29.3902 54.8773C29.9322 54.8773 30.3716 55.3167 30.3716 55.8587H30.9716C30.9716 54.9853 30.2636 54.2773 29.3902 54.2773V54.8773ZM28.4088 55.8587C28.4088 55.3167 28.8482 54.8773 29.3902 54.8773V54.2773C28.5168 54.2773 27.8088 54.9853 27.8088 55.8587H28.4088ZM29.3902 56.8401C28.8482 56.8401 28.4088 56.4007 28.4088 55.8587H27.8088C27.8088 56.7321 28.5168 57.4401 29.3902 57.4401V56.8401ZM72.3879 51.8875C73.2613 51.8875 73.9693 51.1795 73.9693 50.3061H73.3693C73.3693 50.8481 72.9299 51.2875 72.3879 51.2875V51.8875ZM70.8065 50.3061C70.8065 51.1795 71.5145 51.8875 72.3879 51.8875V51.2875C71.8459 51.2875 71.4065 50.8481 71.4065 50.3061H70.8065ZM72.3879 48.7247C71.5145 48.7247 70.8065 49.4327 70.8065 50.3061H71.4065C71.4065 49.7641 71.8459 49.3247 72.3879 49.3247V48.7247ZM73.9693 50.3061C73.9693 49.4327 73.2613 48.7247 72.3879 48.7247V49.3247C72.9299 49.3247 73.3693 49.7641 73.3693 50.3061H73.9693ZM73.3693 55.7164C73.3693 56.2584 72.9299 56.6978 72.3879 56.6978V57.2978C73.2613 57.2978 73.9693 56.5897 73.9693 55.7164H73.3693ZM72.3879 54.735C72.9299 54.735 73.3693 55.1744 73.3693 55.7164H73.9693C73.9693 54.843 73.2613 54.135 72.3879 54.135V54.735ZM71.4065 55.7164C71.4065 55.1744 71.8459 54.735 72.3879 54.735V54.135C71.5145 54.135 70.8065 54.843 70.8065 55.7164H71.4065ZM72.3879 56.6978C71.8459 56.6978 71.4065 56.2584 71.4065 55.7164H70.8065C70.8065 56.5897 71.5145 57.2978 72.3879 57.2978V56.6978Z" fill="#FFA800" mask="url(#path-2-inside-1_239_953)"/>
<g style="mix-blend-mode:multiply">
<path d="M10 50.5C10 71.763 17 85 17 85C17 85 2 71.763 2 50.5C2 29.237 15 18 15 18C15 18 10 29.237 10 50.5Z" fill="url(#paint1_linear_239_953)"/>
</g>
<path d="M98 50C98 75.9574 78.0767 97 53.5 97C28.9234 97 58.5001 84.9574 58.5001 59C58.5001 33.0426 28.9234 3 53.5 3C78.0767 3 98 24.0426 98 50Z" fill="url(#paint2_linear_239_953)" fill-opacity="0.4"/>
<defs>
<linearGradient id="paint0_linear_239_953" x1="107.5" y1="-4.5" x2="43.5" y2="100" gradientUnits="userSpaceOnUse">
<stop stop-color="#FFA800"/>
<stop offset="1" stop-color="#FFD700"/>
</linearGradient>
<linearGradient id="paint1_linear_239_953" x1="2" y1="29" x2="24.5" y2="98" gradientUnits="userSpaceOnUse">
<stop stop-color="#DBDCDC" stop-opacity="0.5"/>
<stop offset="1" stop-color="#DBDCDC" stop-opacity="0"/>
</linearGradient>
<linearGradient id="paint2_linear_239_953" x1="87.5" y1="9" x2="13" y2="128.5" gradientUnits="userSpaceOnUse">
<stop stop-color="white"/>
<stop offset="1" stop-color="white" stop-opacity="0"/>
</linearGradient>
</defs>
</svg>
