<svg width="100" height="100" viewBox="0 0 100 100" fill="none" xmlns="http://www.w3.org/2000/svg">
<circle cx="50" cy="50" r="50" fill="url(#paint0_linear_323_2246)"/>
<g style="mix-blend-mode:multiply">
<path d="M10 50.5C10 71.763 17 85 17 85C17 85 2 71.763 2 50.5C2 29.237 15 18 15 18C15 18 10 29.237 10 50.5Z" fill="url(#paint1_linear_323_2246)"/>
</g>
<path d="M98 50C98 75.9574 78.0767 97 53.5 97C28.9234 97 58.5001 84.9574 58.5001 59C58.5001 33.0426 28.9234 3 53.5 3C78.0767 3 98 24.0426 98 50Z" fill="url(#paint2_linear_323_2246)" fill-opacity="0.4"/>
<g clip-path="url(#clip0_323_2246)">
<path d="M47.0363 74.3665L46.7192 74.5811L47.0976 74.639C48.34 74.8292 49.6123 74.9278 50.9077 74.9278C64.7017 74.9278 75.884 63.7455 75.884 49.9514C75.884 36.1573 64.7017 24.975 50.9077 24.975C49.9824 24.975 49.0686 25.0253 48.1693 25.1234L47.7943 25.1643L48.095 25.3921C54.8562 30.5144 59.334 39.3948 59.334 49.5C59.334 60.124 54.3847 69.3937 47.0363 74.3665ZM82.8063 49.5C82.8063 67.3664 68.3227 81.85 50.4563 81.85C32.5898 81.85 18.1063 67.3664 18.1063 49.5C18.1063 31.6336 32.5898 17.15 50.4563 17.15C68.3227 17.15 82.8063 31.6336 82.8063 49.5Z" fill="white" stroke="url(#paint3_linear_323_2246)" stroke-width="0.3"/>
</g>
<defs>
<linearGradient id="paint0_linear_323_2246" x1="107.5" y1="-4.5" x2="43.5" y2="100" gradientUnits="userSpaceOnUse">
<stop stop-color="#FFA800"/>
<stop offset="1" stop-color="#FFD700"/>
</linearGradient>
<linearGradient id="paint1_linear_323_2246" x1="2" y1="29" x2="24.5" y2="98" gradientUnits="userSpaceOnUse">
<stop stop-color="#DBDCDC" stop-opacity="0.5"/>
<stop offset="1" stop-color="#DBDCDC" stop-opacity="0"/>
</linearGradient>
<linearGradient id="paint2_linear_323_2246" x1="87.5" y1="9" x2="13" y2="128.5" gradientUnits="userSpaceOnUse">
<stop stop-color="white"/>
<stop offset="1" stop-color="white" stop-opacity="0"/>
</linearGradient>
<linearGradient id="paint3_linear_323_2246" x1="87.8313" y1="14.075" x2="46.2313" y2="82" gradientUnits="userSpaceOnUse">
<stop stop-color="#FFA800"/>
<stop offset="1" stop-color="#FFD700"/>
</linearGradient>
<clipPath id="clip0_323_2246">
<rect width="65" height="65" fill="white" transform="translate(18 17)"/>
</clipPath>
</defs>
</svg>
