<svg width="100" height="100" viewBox="0 0 100 100" fill="none" xmlns="http://www.w3.org/2000/svg">
<circle cx="50" cy="50" r="50" fill="url(#paint0_linear_239_886)"/>
<g style="mix-blend-mode:multiply">
<path d="M10 50.5C10 71.763 17 85 17 85C17 85 2 71.763 2 50.5C2 29.237 15 18 15 18C15 18 10 29.237 10 50.5Z" fill="url(#paint1_linear_239_886)"/>
</g>
<path d="M98 50C98 75.9574 78.0767 97 53.5 97C28.9234 97 58.5001 84.9574 58.5001 59C58.5001 33.0426 28.9234 3 53.5 3C78.0767 3 98 24.0426 98 50Z" fill="url(#paint2_linear_239_886)" fill-opacity="0.4"/>
<path fill-rule="evenodd" clip-rule="evenodd" d="M49.7699 84.4773C49.5482 84.4773 49.3263 84.4431 49.1126 84.3746C41.9291 82.0735 35.8133 77.6599 30.9348 71.2565C27.094 66.2151 24.0186 59.9405 21.7947 52.6071C18.0431 40.2378 18 29.2187 18 28.7558C18 27.6463 18.8428 26.718 19.9473 26.6113C20.1136 26.5952 36.8457 24.8775 48.504 16.4111C49.2588 15.8626 50.2811 15.8633 51.036 16.4113C62.691 24.8775 79.4252 26.5952 79.5928 26.6115C80.6965 26.7193 81.5391 27.6471 81.5391 28.7558C81.5391 29.2187 81.496 40.2378 77.7446 52.6073C75.5204 59.9407 72.4453 66.2153 68.6045 71.2567C63.7262 77.6601 57.6104 82.0737 50.4269 84.3748C50.2132 84.4431 49.9915 84.4773 49.7699 84.4773ZM61.9589 52C61.4508 58.1595 56.2907 63 50 63C43.7093 63 38.5492 58.1595 38.0411 52H45.1C45.5633 54.2822 47.581 56 50 56C52.419 56 54.4367 54.2822 54.9 52H61.9589ZM61.9589 50C61.4508 43.8405 56.2907 39 50 39C43.7093 39 38.5492 43.8405 38.0411 50H45.1C45.5633 47.7178 47.581 46 50 46C52.419 46 54.4367 47.7178 54.9 50H61.9589ZM53 51C53 52.6569 51.6569 54 50 54C48.3431 54 47 52.6569 47 51C47 49.3431 48.3431 48 50 48C51.6569 48 53 49.3431 53 51Z" fill="white"/>
<path d="M49.1126 84.3746L49.1584 84.2317L49.1583 84.2317L49.1126 84.3746ZM30.9348 71.2565L30.8154 71.3474L30.8154 71.3474L30.9348 71.2565ZM21.7947 52.6071L21.9382 52.5635L21.9382 52.5635L21.7947 52.6071ZM19.9473 26.6113L19.9617 26.7606L19.9618 26.7606L19.9473 26.6113ZM48.504 16.4111L48.5921 16.5325L48.5921 16.5325L48.504 16.4111ZM51.036 16.4113L51.1241 16.29L51.1241 16.2899L51.036 16.4113ZM79.5928 26.6115L79.5782 26.7608L79.5782 26.7608L79.5928 26.6115ZM77.7446 52.6073L77.8881 52.6508V52.6508L77.7446 52.6073ZM68.6045 71.2567L68.4852 71.1658L68.6045 71.2567ZM50.4269 84.3748L50.4726 84.5177L50.4727 84.5176L50.4269 84.3748ZM61.9589 52L62.1084 52.0123L62.1218 51.85H61.9589V52ZM38.0411 52V51.85H37.8782L37.8916 52.0123L38.0411 52ZM45.1 52L45.247 51.9702L45.2226 51.85H45.1V52ZM54.9 52V51.85H54.7774L54.753 51.9702L54.9 52ZM61.9589 50V50.15H62.1218L62.1084 49.9877L61.9589 50ZM38.0411 50L37.8916 49.9877L37.8782 50.15H38.0411V50ZM45.1 50V50.15H45.2226L45.247 50.0298L45.1 50ZM54.9 50L54.753 50.0298L54.7774 50.15H54.9V50ZM49.0668 84.5174C49.2954 84.5907 49.5327 84.6273 49.7699 84.6273V84.3273C49.5636 84.3273 49.3572 84.2955 49.1584 84.2317L49.0668 84.5174ZM30.8154 71.3474C35.7113 77.7735 41.852 82.2063 49.0668 84.5174L49.1583 84.2317C42.0061 81.9407 35.9153 77.5463 31.0541 71.1656L30.8154 71.3474ZM21.6511 52.6506C23.8792 59.9977 26.9618 66.2891 30.8154 71.3474L31.0541 71.1656C27.2261 66.141 24.158 59.8833 21.9382 52.5635L21.6511 52.6506ZM17.85 28.7558C17.85 29.2249 17.8933 40.2609 21.6511 52.6506L21.9382 52.5635C18.1928 40.2148 18.15 29.2126 18.15 28.7558H17.85ZM19.9329 26.462C18.7515 26.5761 17.85 27.569 17.85 28.7558H18.15C18.15 27.7235 18.9341 26.8599 19.9617 26.7606L19.9329 26.462ZM48.4158 16.2897C42.6081 20.5073 35.5308 23.0474 29.878 24.535C24.2268 26.0221 20.0106 26.4545 19.9328 26.462L19.9618 26.7606C20.0504 26.752 24.2833 26.3175 29.9543 24.8251C35.6237 23.3332 42.7415 20.7813 48.5921 16.5325L48.4158 16.2897ZM51.1241 16.2899C50.3167 15.7038 49.2233 15.703 48.4158 16.2898L48.5921 16.5325C49.2944 16.0222 50.2454 16.0227 50.9478 16.5327L51.1241 16.2899ZM79.6074 26.4623C79.5289 26.4546 75.3118 26.0222 69.6604 24.5351C64.0072 23.0475 56.9302 20.5075 51.1241 16.29L50.9478 16.5327C56.7968 20.7814 63.9144 23.3333 69.584 24.8252C75.2553 26.3175 79.4891 26.7521 79.5782 26.7608L79.6074 26.4623ZM81.6891 28.7558C81.6891 27.5699 80.7878 26.5775 79.6074 26.4623L79.5782 26.7608C80.6052 26.8611 81.3891 27.7244 81.3891 28.7558H81.6891ZM77.8881 52.6508C81.6457 40.2609 81.6891 29.2249 81.6891 28.7558H81.3891C81.3891 29.2126 81.3462 40.2148 77.601 52.5638L77.8881 52.6508ZM68.7238 71.3476C72.5775 66.2893 75.6598 59.9979 77.8881 52.6508L77.601 52.5638C75.381 59.8836 72.3132 66.1412 68.4852 71.1658L68.7238 71.3476ZM50.4727 84.5176C57.6874 82.2066 63.8282 77.7737 68.7238 71.3476L68.4852 71.1658C63.6242 77.5465 57.5334 81.9409 50.3812 84.2319L50.4727 84.5176ZM49.7699 84.6273C50.007 84.6273 50.2441 84.5907 50.4726 84.5177L50.3813 84.2319C50.1824 84.2955 49.9761 84.3273 49.7699 84.3273V84.6273ZM50 63.15C56.3694 63.15 61.5939 58.249 62.1084 52.0123L61.8094 51.9877C61.3076 58.07 56.212 62.85 50 62.85V63.15ZM37.8916 52.0123C38.4061 58.249 43.6306 63.15 50 63.15V62.85C43.788 62.85 38.6924 58.07 38.1906 51.9877L37.8916 52.0123ZM45.1 51.85H38.0411V52.15H45.1V51.85ZM50 55.85C47.6538 55.85 45.6964 54.1839 45.247 51.9702L44.953 52.0298C45.4302 54.3806 47.5083 56.15 50 56.15V55.85ZM54.753 51.9702C54.3036 54.1839 52.3462 55.85 50 55.85V56.15C52.4917 56.15 54.5698 54.3806 55.047 52.0298L54.753 51.9702ZM61.9589 51.85H54.9V52.15H61.9589V51.85ZM62.1084 49.9877C61.5939 43.751 56.3694 38.85 50 38.85V39.15C56.212 39.15 61.3076 43.93 61.8094 50.0123L62.1084 49.9877ZM50 38.85C43.6306 38.85 38.4061 43.751 37.8916 49.9877L38.1906 50.0123C38.6924 43.93 43.788 39.15 50 39.15V38.85ZM38.0411 50.15H45.1V49.85H38.0411V50.15ZM45.247 50.0298C45.6964 47.8161 47.6538 46.15 50 46.15V45.85C47.5083 45.85 45.4302 47.6194 44.953 49.9702L45.247 50.0298ZM50 46.15C52.3462 46.15 54.3036 47.8161 54.753 50.0298L55.047 49.9702C54.5698 47.6194 52.4917 45.85 50 45.85V46.15ZM54.9 50.15H61.9589V49.85H54.9V50.15ZM50 54.15C51.7397 54.15 53.15 52.7397 53.15 51H52.85C52.85 52.574 51.574 53.85 50 53.85V54.15ZM46.85 51C46.85 52.7397 48.2603 54.15 50 54.15V53.85C48.426 53.85 47.15 52.574 47.15 51H46.85ZM50 47.85C48.2603 47.85 46.85 49.2603 46.85 51H47.15C47.15 49.426 48.426 48.15 50 48.15V47.85ZM53.15 51C53.15 49.2603 51.7397 47.85 50 47.85V48.15C51.574 48.15 52.85 49.426 52.85 51H53.15Z" fill="#FFA800"/>
<defs>
<linearGradient id="paint0_linear_239_886" x1="107.5" y1="-4.5" x2="43.5" y2="100" gradientUnits="userSpaceOnUse">
<stop stop-color="#FFA800"/>
<stop offset="1" stop-color="#FFD700"/>
</linearGradient>
<linearGradient id="paint1_linear_239_886" x1="2" y1="29" x2="24.5" y2="98" gradientUnits="userSpaceOnUse">
<stop stop-color="#DBDCDC" stop-opacity="0.5"/>
<stop offset="1" stop-color="#DBDCDC" stop-opacity="0"/>
</linearGradient>
<linearGradient id="paint2_linear_239_886" x1="87.5" y1="9" x2="13" y2="128.5" gradientUnits="userSpaceOnUse">
<stop stop-color="white"/>
<stop offset="1" stop-color="white" stop-opacity="0"/>
</linearGradient>
</defs>
</svg>
