<svg width="100" height="100" viewBox="0 0 100 100" fill="none" xmlns="http://www.w3.org/2000/svg">
<mask id="path-1-inside-1_323_2254" fill="white">
<path d="M100 50C100 77.6142 77.6142 100 50 100C22.3858 100 0 77.6142 0 50C0 22.3858 22.3858 0 50 0C77.6142 0 100 22.3858 100 50Z"/>
<path d="M10 50.5C10 71.763 17 85 17 85C17 85 2 71.763 2 50.5C2 29.237 15 18 15 18C15 18 10 29.237 10 50.5Z"/>
<path fill-rule="evenodd" clip-rule="evenodd" d="M53.636 49.8579C54.0765 49.5893 54.4503 49.0264 54.7517 48.4008C58.7183 50.022 61.5058 53.8529 61.5058 58.3205C61.5058 64.2556 56.5864 69.067 50.518 69.067C48.027 69.067 45.7295 68.2561 43.8865 66.8897C43.282 66.6034 42.7846 66.3285 42.3775 66.1034C41.7462 65.7544 41.3322 65.5255 41.073 65.5613C40.3152 65.6658 40.5352 66.363 40.7351 66.9964C40.8709 67.4266 40.9974 67.8274 40.8015 67.9927C40.5966 68.1658 39.9329 67.533 39.1574 66.7936C38.1016 65.787 36.8387 64.5829 36.2432 64.9445C35.7723 65.2306 36.2295 66.0064 36.7891 66.956L36.8306 67.0264C37.067 67.4279 37.3409 67.8367 37.5909 68.2096C38.0991 68.9677 38.5084 69.5786 38.3036 69.6819C38.0561 69.8068 36.3313 68.6427 34.8778 67.0264C34.3168 66.4027 33.7734 65.7266 33.2684 65.0983C32.163 63.7229 31.2421 62.577 30.7251 62.7127C30.1033 62.876 30.5737 64.1587 31.2649 65.3931C31.5882 65.9703 31.9684 66.5581 32.2976 67.0671C32.8096 67.8585 33.1982 68.4592 33.0573 68.5331C32.8671 68.6325 31.1937 67.0008 30.0572 64.9445C29.3821 63.7231 28.8153 62.3734 28.3563 61.2807C27.8587 60.0956 27.488 59.2129 27.2439 59.124C26.3957 58.8154 26.3957 60.5446 26.7359 63.0404C26.7803 63.366 26.8463 63.7075 26.9277 64.0552C30.2265 74.7286 40.36 82.5 52.3493 82.5C67.0146 82.5 78.903 70.8726 78.903 56.5295C78.903 42.8779 68.1337 31.6866 54.4508 30.6389C54.468 29.9958 54.8037 28.7205 54.8037 28.7205C54.8037 28.7205 57.2192 22.8761 57.347 21.6272C57.3553 21.5443 57.3654 21.4543 57.3762 21.3583C57.5266 20.009 57.8065 17.5 55.6481 17.5C54.4953 17.5 53.9593 18.3575 53.3463 19.3383C53.1109 19.7148 52.8641 20.1095 52.5668 20.4807C50.4253 23.1549 46.8245 26.4945 44.7827 28.2736C40.467 32.0341 36.2329 35.1247 33.7634 36.9271C32.6402 37.7469 31.8821 38.3004 31.6475 38.529C29.8795 40.2525 23.5405 51.6867 23.5405 51.6867C23.5405 51.6867 21.4905 55.3551 22.2191 56.0992C22.9478 56.8432 24.7049 56.6727 24.7049 56.6727C24.7049 56.6727 48.3107 51.2572 50.4241 50.8301C50.9931 50.7151 51.3948 50.6487 51.7031 50.5978C52.5404 50.4596 52.6907 50.4347 53.636 49.8579ZM36.9458 42.8988C35.6787 44.1032 33.5773 46.978 33.5773 46.978C33.5773 46.978 37.4829 47.2186 39.6338 45.174C41.7849 43.1293 41.2921 39.6448 41.2921 39.6448C41.2921 39.6448 38.2128 41.6943 36.9458 42.8988Z"/>
</mask>
<path d="M100 50C100 77.6142 77.6142 100 50 100C22.3858 100 0 77.6142 0 50C0 22.3858 22.3858 0 50 0C77.6142 0 100 22.3858 100 50Z" fill="url(#paint0_linear_323_2254)"/>
<path d="M10 50.5C10 71.763 17 85 17 85C17 85 2 71.763 2 50.5C2 29.237 15 18 15 18C15 18 10 29.237 10 50.5Z" fill="url(#paint1_linear_323_2254)"/>
<path fill-rule="evenodd" clip-rule="evenodd" d="M53.636 49.8579C54.0765 49.5893 54.4503 49.0264 54.7517 48.4008C58.7183 50.022 61.5058 53.8529 61.5058 58.3205C61.5058 64.2556 56.5864 69.067 50.518 69.067C48.027 69.067 45.7295 68.2561 43.8865 66.8897C43.282 66.6034 42.7846 66.3285 42.3775 66.1034C41.7462 65.7544 41.3322 65.5255 41.073 65.5613C40.3152 65.6658 40.5352 66.363 40.7351 66.9964C40.8709 67.4266 40.9974 67.8274 40.8015 67.9927C40.5966 68.1658 39.9329 67.533 39.1574 66.7936C38.1016 65.787 36.8387 64.5829 36.2432 64.9445C35.7723 65.2306 36.2295 66.0064 36.7891 66.956L36.8306 67.0264C37.067 67.4279 37.3409 67.8367 37.5909 68.2096C38.0991 68.9677 38.5084 69.5786 38.3036 69.6819C38.0561 69.8068 36.3313 68.6427 34.8778 67.0264C34.3168 66.4027 33.7734 65.7266 33.2684 65.0983C32.163 63.7229 31.2421 62.577 30.7251 62.7127C30.1033 62.876 30.5737 64.1587 31.2649 65.3931C31.5882 65.9703 31.9684 66.5581 32.2976 67.0671C32.8096 67.8585 33.1982 68.4592 33.0573 68.5331C32.8671 68.6325 31.1937 67.0008 30.0572 64.9445C29.3821 63.7231 28.8153 62.3734 28.3563 61.2807C27.8587 60.0956 27.488 59.2129 27.2439 59.124C26.3957 58.8154 26.3957 60.5446 26.7359 63.0404C26.7803 63.366 26.8463 63.7075 26.9277 64.0552C30.2265 74.7286 40.36 82.5 52.3493 82.5C67.0146 82.5 78.903 70.8726 78.903 56.5295C78.903 42.8779 68.1337 31.6866 54.4508 30.6389C54.468 29.9958 54.8037 28.7205 54.8037 28.7205C54.8037 28.7205 57.2192 22.8761 57.347 21.6272C57.3553 21.5443 57.3654 21.4543 57.3762 21.3583C57.5266 20.009 57.8065 17.5 55.6481 17.5C54.4953 17.5 53.9593 18.3575 53.3463 19.3383C53.1109 19.7148 52.8641 20.1095 52.5668 20.4807C50.4253 23.1549 46.8245 26.4945 44.7827 28.2736C40.467 32.0341 36.2329 35.1247 33.7634 36.9271C32.6402 37.7469 31.8821 38.3004 31.6475 38.529C29.8795 40.2525 23.5405 51.6867 23.5405 51.6867C23.5405 51.6867 21.4905 55.3551 22.2191 56.0992C22.9478 56.8432 24.7049 56.6727 24.7049 56.6727C24.7049 56.6727 48.3107 51.2572 50.4241 50.8301C50.9931 50.7151 51.3948 50.6487 51.7031 50.5978C52.5404 50.4596 52.6907 50.4347 53.636 49.8579ZM36.9458 42.8988C35.6787 44.1032 33.5773 46.978 33.5773 46.978C33.5773 46.978 37.4829 47.2186 39.6338 45.174C41.7849 43.1293 41.2921 39.6448 41.2921 39.6448C41.2921 39.6448 38.2128 41.6943 36.9458 42.8988Z" fill="white"/>
<path d="M17 85L16.8015 85.2249L17.2652 84.8598L17 85ZM15 18L15.2741 18.122L14.8038 17.773L15 18ZM53.636 49.8579L53.4798 49.6018L53.4797 49.6018L53.636 49.8579ZM54.7517 48.4008L54.8652 48.1231L54.6039 48.0163L54.4814 48.2706L54.7517 48.4008ZM43.8865 66.8897L44.0652 66.6487L44.0415 66.6312L44.0149 66.6186L43.8865 66.8897ZM42.3775 66.1034L42.5227 65.8408L42.5227 65.8408L42.3775 66.1034ZM41.073 65.5613L41.1139 65.8585L41.114 65.8585L41.073 65.5613ZM40.7351 66.9964L41.0212 66.9061L41.0212 66.906L40.7351 66.9964ZM40.8015 67.9927L40.6081 67.7634L40.6079 67.7635L40.8015 67.9927ZM39.1574 66.7936L38.9504 67.0107L38.9504 67.0107L39.1574 66.7936ZM36.2432 64.9445L36.0874 64.6881L36.0874 64.6881L36.2432 64.9445ZM36.7891 66.956L37.0475 66.8037L37.0475 66.8037L36.7891 66.956ZM36.8306 67.0264L37.0891 66.8742L37.089 66.8742L36.8306 67.0264ZM37.5909 68.2096L37.3417 68.3767L37.3417 68.3767L37.5909 68.2096ZM38.3036 69.6819L38.4388 69.9498L38.4388 69.9498L38.3036 69.6819ZM34.8778 67.0264L35.1009 66.8258L35.1008 66.8258L34.8778 67.0264ZM33.2684 65.0983L33.0346 65.2862L33.0346 65.2862L33.2684 65.0983ZM30.7251 62.7127L30.649 62.4225L30.649 62.4225L30.7251 62.7127ZM31.2649 65.3931L31.5267 65.2465L31.5267 65.2465L31.2649 65.3931ZM32.2976 67.0671L32.0457 67.23L32.0457 67.23L32.2976 67.0671ZM33.0573 68.5331L33.1962 68.799L33.1966 68.7988L33.0573 68.5331ZM30.0572 64.9445L29.7946 65.0897L29.7946 65.0897L30.0572 64.9445ZM28.3563 61.2807L28.0797 61.3968L28.0797 61.3968L28.3563 61.2807ZM27.2439 59.124L27.3465 58.8421L27.3464 58.8421L27.2439 59.124ZM26.7359 63.0404L27.0331 62.9999L27.0331 62.9999L26.7359 63.0404ZM26.9277 64.0552L26.6356 64.1236L26.638 64.1338L26.6411 64.1438L26.9277 64.0552ZM54.4508 30.6389L54.1509 30.6308L54.1432 30.9162L54.4279 30.938L54.4508 30.6389ZM54.8037 28.7205L54.5265 28.6059L54.5187 28.6246L54.5136 28.6441L54.8037 28.7205ZM57.347 21.6272L57.6454 21.6578L57.6454 21.6574L57.347 21.6272ZM57.3762 21.3583L57.6743 21.3919L57.6743 21.3916L57.3762 21.3583ZM53.3463 19.3383L53.6007 19.4973L53.6007 19.4973L53.3463 19.3383ZM52.5668 20.4807L52.3326 20.2932L52.3326 20.2932L52.5668 20.4807ZM44.7827 28.2736L44.9797 28.4998L44.9798 28.4998L44.7827 28.2736ZM33.7634 36.9271L33.9402 37.1695L33.9403 37.1694L33.7634 36.9271ZM31.6475 38.529L31.4381 38.3142L31.438 38.3142L31.6475 38.529ZM23.5405 51.6867L23.8023 51.833L23.8028 51.8322L23.5405 51.6867ZM22.2191 56.0992L22.0048 56.3091L22.0048 56.3091L22.2191 56.0992ZM24.7049 56.6727L24.7339 56.9713L24.7531 56.9694L24.772 56.9651L24.7049 56.6727ZM50.4241 50.8301L50.4835 51.1242L50.4835 51.1242L50.4241 50.8301ZM51.7031 50.5978L51.752 50.8938L51.752 50.8938L51.7031 50.5978ZM36.9458 42.8988L37.1525 43.1162L37.1525 43.1162L36.9458 42.8988ZM33.5773 46.978L33.3351 46.801L33.0114 47.2437L33.5588 47.2774L33.5773 46.978ZM39.6338 45.174L39.8405 45.3914L39.8405 45.3914L39.6338 45.174ZM41.2921 39.6448L41.5891 39.6028L41.5224 39.1311L41.1259 39.3951L41.2921 39.6448ZM99.7 50C99.7 77.4486 77.4486 99.7 50 99.7V100.3C77.7799 100.3 100.3 77.7799 100.3 50H99.7ZM50 99.7C22.5514 99.7 0.3 77.4486 0.3 50H-0.3C-0.3 77.7799 22.2201 100.3 50 100.3V99.7ZM0.3 50C0.3 22.5514 22.5514 0.3 50 0.3V-0.3C22.2201 -0.3 -0.3 22.2201 -0.3 50H0.3ZM50 0.3C77.4486 0.3 99.7 22.5514 99.7 50H100.3C100.3 22.2201 77.7799 -0.3 50 -0.3V0.3ZM9.7 50.5C9.7 61.1644 11.4554 69.818 13.2121 75.808C14.0905 78.8031 14.9693 81.1326 15.6294 82.715C15.9594 83.5062 16.2348 84.1107 16.4282 84.5183C16.5249 84.7221 16.601 84.8766 16.6533 84.9807C16.6794 85.0328 16.6995 85.0722 16.7133 85.0988C16.7201 85.1122 16.7254 85.1223 16.729 85.1292C16.7308 85.1326 16.7322 85.1353 16.7332 85.1371C16.7336 85.1381 16.734 85.1388 16.7343 85.1393C16.7344 85.1396 16.7346 85.1398 16.7346 85.1399C16.7347 85.1401 16.7348 85.1402 17 85C17.2652 84.8598 17.2652 84.8598 17.2652 84.8598C17.2652 84.8597 17.2651 84.8596 17.2651 84.8595C17.2649 84.8592 17.2647 84.8587 17.2643 84.858C17.2636 84.8566 17.2624 84.8545 17.2609 84.8515C17.2577 84.8455 17.253 84.8363 17.2466 84.8239C17.2338 84.7992 17.2147 84.7617 17.1895 84.7116C17.1392 84.6114 17.065 84.4608 16.9703 84.2611C16.7808 83.8617 16.5093 83.266 16.1831 82.484C15.5307 80.92 14.6595 78.6112 13.7879 75.6392C12.0446 69.6949 10.3 61.0985 10.3 50.5H9.7ZM17 85C17.1985 84.7751 17.1985 84.7751 17.1985 84.7751C17.1984 84.775 17.1983 84.7749 17.1982 84.7748C17.1978 84.7745 17.1973 84.774 17.1965 84.7733C17.1949 84.7719 17.1924 84.7696 17.189 84.7666C17.1823 84.7606 17.172 84.7514 17.1583 84.739C17.1309 84.7142 17.0898 84.6766 17.0358 84.6264C16.9279 84.5261 16.7688 84.3755 16.5659 84.1758C16.1599 83.7764 15.5784 83.181 14.8799 82.3995C13.4828 80.8365 11.6185 78.5308 9.75401 75.564C6.0245 69.6295 2.3 61.0594 2.3 50.5H1.7C1.7 61.2036 5.4755 69.8835 9.24599 75.8832C11.1315 78.8835 13.0172 81.216 14.4326 82.7994C15.1403 83.5912 15.7308 84.196 16.1451 84.6036C16.3523 84.8074 16.5154 84.9619 16.6273 85.0659C16.6832 85.1179 16.7263 85.1572 16.7556 85.1838C16.7703 85.1971 16.7815 85.2071 16.7892 85.214C16.7931 85.2174 16.796 85.2201 16.7981 85.2219C16.7991 85.2228 16.7999 85.2235 16.8005 85.224C16.8007 85.2243 16.801 85.2245 16.8012 85.2246C16.8014 85.2248 16.8015 85.2249 17 85ZM2.3 50.5C2.3 39.9322 5.53001 31.8596 8.75788 26.4297C10.3721 23.7143 11.9856 21.6601 13.194 20.2861C13.7982 19.5992 14.3009 19.0825 14.6515 18.7385C14.8268 18.5665 14.9641 18.4376 15.057 18.3523C15.1034 18.3096 15.1388 18.2778 15.1623 18.2569C15.174 18.2464 15.1827 18.2387 15.1884 18.2337C15.1913 18.2312 15.1934 18.2294 15.1946 18.2283C15.1953 18.2277 15.1957 18.2273 15.196 18.2271C15.1961 18.227 15.1962 18.227 15.1962 18.2269C15.1962 18.2269 15.1962 18.227 15 18C14.8038 17.773 14.8037 17.7732 14.8035 17.7733C14.8033 17.7735 14.8031 17.7737 14.8028 17.7739C14.8023 17.7744 14.8015 17.775 14.8006 17.7758C14.7988 17.7774 14.7961 17.7797 14.7927 17.7827C14.7859 17.7887 14.776 17.7974 14.7632 17.8089C14.7374 17.8318 14.6998 17.8657 14.651 17.9105C14.5535 18.0001 14.4115 18.1335 14.2313 18.3102C13.871 18.6638 13.3581 19.1911 12.7435 19.8899C11.5144 21.2873 9.87795 23.3713 8.24212 26.1231C4.96999 31.6274 1.7 39.8048 1.7 50.5H2.3ZM15 18C14.7259 17.878 14.7258 17.8782 14.7258 17.8784C14.7257 17.8785 14.7256 17.8787 14.7255 17.8789C14.7253 17.8794 14.725 17.88 14.7247 17.8809C14.7239 17.8825 14.7229 17.8848 14.7216 17.8878C14.719 17.8938 14.7152 17.9025 14.7102 17.914C14.7003 17.9369 14.6859 17.9708 14.6671 18.0156C14.6296 18.1051 14.5751 18.2383 14.5058 18.4149C14.3674 18.768 14.1705 19.2944 13.9346 19.9919C13.4627 21.3868 12.8349 23.4657 12.2075 26.2095C10.9528 31.6974 9.7 39.8448 9.7 50.5H10.3C10.3 39.8922 11.5472 31.7896 12.7925 26.3433C13.4151 23.62 14.0373 21.5607 14.5029 20.1842C14.7358 19.4959 14.9294 18.9783 15.0645 18.6339C15.132 18.4616 15.1848 18.3326 15.2206 18.2472C15.2385 18.2045 15.2521 18.1727 15.2611 18.1518C15.2656 18.1414 15.269 18.1336 15.2711 18.1287C15.2722 18.1262 15.273 18.1244 15.2735 18.1233C15.2738 18.1227 15.2739 18.1223 15.274 18.1221C15.2741 18.122 15.2741 18.122 15.2741 18.1219C15.2741 18.1219 15.2741 18.122 15 18ZM53.7922 50.1141C54.3118 49.7972 54.7168 49.1645 55.0219 48.531L54.4814 48.2706C54.1838 48.8883 53.8413 49.3814 53.4798 49.6018L53.7922 50.1141ZM54.6382 48.6785C58.4989 50.2564 61.2058 53.982 61.2058 58.3205H61.8058C61.8058 53.7238 58.9377 49.7876 54.8652 48.1231L54.6382 48.6785ZM61.2058 58.3205C61.2058 64.0836 56.427 68.767 50.518 68.767V69.367C56.7458 69.367 61.8058 64.4275 61.8058 58.3205H61.2058ZM50.518 68.767C48.093 68.767 45.8578 67.9778 44.0652 66.6487L43.7078 67.1307C45.6012 68.5344 47.961 69.367 50.518 69.367V68.767ZM44.0149 66.6186C43.4197 66.3367 42.9297 66.0659 42.5227 65.8408L42.2324 66.3659C42.6395 66.591 43.1442 66.8701 43.7581 67.1609L44.0149 66.6186ZM42.5227 65.8408C42.2112 65.6687 41.9374 65.517 41.7085 65.4143C41.4917 65.317 41.2537 65.2335 41.0319 65.2641L41.114 65.8585C41.1515 65.8533 41.2501 65.8663 41.4629 65.9617C41.6637 66.0518 41.9125 66.1891 42.2324 66.3659L42.5227 65.8408ZM41.032 65.2641C40.7971 65.2965 40.5956 65.381 40.4517 65.5373C40.3075 65.6939 40.2552 65.8855 40.2454 66.0639C40.2269 66.3972 40.3551 66.789 40.4491 67.0867L41.0212 66.906C40.9153 66.5704 40.8334 66.2968 40.8444 66.097C40.8493 66.0089 40.8716 65.967 40.8931 65.9437C40.9148 65.9201 40.97 65.8783 41.1139 65.8585L41.032 65.2641ZM40.449 67.0866C40.5194 67.3098 40.5756 67.4908 40.5955 67.6349C40.6176 67.7949 40.5779 67.7889 40.6081 67.7634L40.995 68.222C41.2211 68.0312 41.216 67.7421 41.1899 67.5528C41.1615 67.3477 41.0866 67.1132 41.0212 66.9061L40.449 67.0866ZM40.6079 67.7635C40.7039 67.6824 40.7845 67.7512 40.6906 67.7089C40.6223 67.6781 40.5195 67.6111 40.38 67.5004C40.1046 67.2818 39.7561 66.9499 39.3644 66.5765L38.9504 67.0107C39.3342 67.3767 39.7053 67.7309 40.0069 67.9703C40.1559 68.0886 40.3059 68.1936 40.4439 68.2558C40.5563 68.3065 40.7967 68.3896 40.9952 68.2218L40.6079 67.7635ZM39.3644 66.5765C38.8408 66.0773 38.246 65.5094 37.7047 65.1138C37.4348 64.9165 37.1607 64.7487 36.9018 64.6567C36.6467 64.5659 36.3487 64.5294 36.0874 64.6881L36.3989 65.201C36.4354 65.1788 36.5186 65.1572 36.7008 65.222C36.8791 65.2854 37.0984 65.4138 37.3507 65.5982C37.8537 65.9659 38.4182 66.5033 38.9504 67.0107L39.3644 66.5765ZM36.0874 64.6881C35.8861 64.8104 35.7776 64.9972 35.7531 65.2119C35.7307 65.4073 35.7788 65.6122 35.8474 65.803C35.9846 66.1841 36.2566 66.6434 36.5306 67.1083L37.0475 66.8037C36.7619 66.3189 36.5256 65.9155 36.412 65.5998C36.3552 65.4422 36.3423 65.3402 36.3492 65.28C36.3538 65.2392 36.3648 65.2217 36.3989 65.2009L36.0874 64.6881ZM36.5306 67.1083L36.5721 67.1787L37.089 66.8742L37.0475 66.8037L36.5306 67.1083ZM36.5721 67.1787C36.8137 67.5889 37.0926 68.005 37.3417 68.3767L37.8401 68.0426C37.5892 67.6683 37.3203 67.2668 37.0891 66.8742L36.5721 67.1787ZM37.3417 68.3767C37.5992 68.7608 37.8188 69.089 37.9505 69.3336C38.0182 69.4592 38.0483 69.5373 38.0565 69.5764C38.0605 69.5958 38.0532 69.579 38.0626 69.5435C38.0754 69.4948 38.1119 69.4427 38.1685 69.4141L38.4388 69.9498C38.5466 69.8954 38.615 69.8015 38.6427 69.6967C38.6669 69.605 38.6572 69.5176 38.6437 69.4534C38.6169 69.3252 38.5513 69.1837 38.4787 69.049C38.33 68.7728 38.0908 68.4165 37.8401 68.0426L37.3417 68.3767ZM38.1685 69.4141C38.197 69.3997 38.2216 69.3945 38.2364 69.3925C38.2513 69.3905 38.261 69.3911 38.2635 69.3913C38.2672 69.3916 38.2588 69.3913 38.2344 69.3836C38.1861 69.3685 38.1113 69.3365 38.0094 69.2822C37.8079 69.1748 37.5367 68.9998 37.2216 68.7661C36.5929 68.2999 35.8134 67.6181 35.1009 66.8258L34.6547 67.227C35.3957 68.051 36.2053 68.7595 36.8642 69.2481C37.193 69.4919 37.4903 69.6855 37.7272 69.8117C37.8445 69.8743 37.9564 69.9254 38.0554 69.9563C38.1048 69.9717 38.1602 69.9851 38.2171 69.9895C38.2697 69.9936 38.3539 69.9926 38.4388 69.9498L38.1685 69.4141ZM35.1008 66.8258C34.5463 66.2093 34.0082 65.5398 33.5022 64.9103L33.0346 65.2862C33.5387 65.9134 34.0872 66.5961 34.6547 67.2271L35.1008 66.8258ZM33.5022 64.9104C32.9531 64.2271 32.4361 63.5832 31.9903 63.1287C31.7678 62.902 31.5501 62.7087 31.3438 62.5801C31.1465 62.4572 30.9005 62.3565 30.649 62.4225L30.8013 63.0029C30.8082 63.0011 30.8713 62.9927 31.0265 63.0894C31.1728 63.1805 31.3514 63.3342 31.5619 63.5489C31.9822 63.9773 32.4783 64.5941 33.0346 65.2862L33.5022 64.9104ZM30.649 62.4225C30.517 62.4572 30.4015 62.5259 30.3132 62.6294C30.227 62.7305 30.1795 62.8496 30.1558 62.9679C30.11 63.1962 30.1449 63.4626 30.2119 63.7253C30.3479 64.2587 30.6533 64.9149 31.0032 65.5396L31.5267 65.2465C31.1853 64.6369 30.9099 64.0345 30.7933 63.5771C30.734 63.3445 30.7247 63.1824 30.7441 63.0857C30.753 63.0415 30.7653 63.024 30.7697 63.0188C30.772 63.0161 30.7778 63.009 30.8013 63.0029L30.649 62.4225ZM31.0032 65.5396C31.3319 66.1266 31.7174 66.7225 32.0457 67.23L32.5495 66.9041C32.2194 66.3938 31.8445 65.814 31.5267 65.2465L31.0032 65.5396ZM32.0457 67.23C32.3041 67.6294 32.5226 67.9675 32.66 68.2149C32.7302 68.3412 32.7687 68.4255 32.7836 68.4733C32.7918 68.4997 32.7846 68.4898 32.7869 68.4592C32.7899 68.4185 32.8148 68.3215 32.918 68.2674L33.1966 68.7988C33.335 68.7262 33.3785 68.5943 33.3853 68.5036C33.3913 68.4228 33.3729 68.3477 33.3565 68.295C33.3221 68.1848 33.2578 68.0555 33.1845 67.9235C33.0349 67.6542 32.8031 67.2961 32.5495 66.9041L32.0457 67.23ZM32.9183 68.2673C32.9701 68.2402 33.017 68.2368 33.0432 68.2375C33.0693 68.2382 33.0868 68.2432 33.0921 68.2448C33.1015 68.2477 33.0965 68.2474 33.073 68.2336C33.0281 68.207 32.9576 68.1558 32.8624 68.0749C32.6745 67.9153 32.4219 67.6669 32.1356 67.3471C31.5636 66.7082 30.8752 65.8044 30.3197 64.7994L29.7946 65.0897C30.3757 66.1409 31.0922 67.0811 31.6886 67.7473C31.9865 68.0801 32.2589 68.3495 32.4738 68.5321C32.58 68.6223 32.6803 68.6984 32.7677 68.7501C32.8104 68.7753 32.862 68.8019 32.9174 68.8188C32.959 68.8315 33.0755 68.8621 33.1962 68.799L32.9183 68.2673ZM30.3197 64.7994C29.6537 63.5944 29.0928 62.2595 28.6329 61.1645L28.0797 61.3968C28.5377 62.4872 29.1105 63.8519 29.7946 65.0897L30.3197 64.7994ZM28.6329 61.1645C28.3854 60.5751 28.1646 60.049 27.9746 59.6597C27.8798 59.4655 27.7879 59.295 27.6993 59.1639C27.6549 59.0982 27.6069 59.0356 27.5549 58.9829C27.5055 58.9328 27.4362 58.8747 27.3465 58.8421L27.1412 59.4059C27.1126 59.3955 27.1082 59.3845 27.1277 59.4042C27.1447 59.4214 27.1696 59.4516 27.2021 59.4997C27.2672 59.5961 27.3448 59.7371 27.4354 59.9228C27.6162 60.2933 27.8296 60.8011 28.0797 61.3968L28.6329 61.1645ZM27.3464 58.8421C27.1988 58.7884 27.04 58.7685 26.8834 58.8125C26.7245 58.8571 26.6035 58.9575 26.5157 59.0791C26.3516 59.3062 26.2781 59.6413 26.2455 60.0036C26.1787 60.7463 26.2684 61.8322 26.4386 63.0809L27.0331 62.9999C26.8632 61.7528 26.7829 60.7262 26.8431 60.0574C26.874 59.714 26.9382 59.5188 27.002 59.4305C27.0281 59.3943 27.0436 59.3907 27.0457 59.3901C27.0501 59.3889 27.0769 59.3825 27.1413 59.4059L27.3464 58.8421ZM26.4386 63.0809C26.4845 63.4178 26.5526 63.7688 26.6356 64.1236L27.2198 63.9869C27.1401 63.6462 27.076 63.3142 27.0331 62.9999L26.4386 63.0809ZM26.6411 64.1438C29.9787 74.9429 40.2285 82.8 52.3493 82.8V82.2C40.4915 82.2 30.4742 74.5142 27.2143 63.9667L26.6411 64.1438ZM52.3493 82.8C67.1739 82.8 79.203 71.0445 79.203 56.5295H78.603C78.603 70.7007 66.8552 82.2 52.3493 82.2V82.8ZM79.203 56.5295C79.203 42.7144 68.3061 31.399 54.4737 30.3398L54.4279 30.938C67.9612 31.9743 78.603 43.0415 78.603 56.5295H79.203ZM54.7507 30.6469C54.7585 30.3567 54.8407 29.9022 54.927 29.5018C54.9693 29.3055 55.0111 29.1288 55.0424 29.0012C55.058 28.9374 55.0709 28.886 55.08 28.8507C55.0845 28.833 55.088 28.8194 55.0903 28.8103C55.0915 28.8057 55.0924 28.8023 55.093 28.8C55.0933 28.7989 55.0935 28.7981 55.0937 28.7975C55.0937 28.7973 55.0938 28.7971 55.0938 28.797C55.0938 28.7969 55.0938 28.7969 55.0938 28.7969C55.0938 28.7968 55.0938 28.7968 55.0938 28.7968C55.0938 28.7968 55.0938 28.7969 54.8037 28.7205C54.5136 28.6441 54.5136 28.6442 54.5136 28.6442C54.5136 28.6442 54.5136 28.6442 54.5136 28.6443C54.5135 28.6443 54.5135 28.6444 54.5135 28.6445C54.5134 28.6447 54.5134 28.645 54.5133 28.6453C54.5131 28.646 54.5128 28.647 54.5125 28.6483C54.5118 28.6509 54.5108 28.6547 54.5095 28.6597C54.507 28.6695 54.5033 28.684 54.4986 28.7024C54.4891 28.7394 54.4757 28.7926 54.4596 28.8585C54.4274 28.99 54.3842 29.1723 54.3405 29.3753C54.2546 29.7733 54.1604 30.278 54.1509 30.6308L54.7507 30.6469ZM54.8037 28.7205C55.081 28.8351 55.081 28.8351 55.081 28.835C55.081 28.835 55.081 28.8349 55.0811 28.8348C55.0812 28.8346 55.0813 28.8343 55.0814 28.834C55.0817 28.8332 55.0822 28.8322 55.0828 28.8307C55.0839 28.8279 55.0857 28.8236 55.088 28.818C55.0926 28.8068 55.0994 28.7903 55.1083 28.7686C55.1261 28.7253 55.1522 28.6617 55.1855 28.5804C55.2519 28.4178 55.347 28.1841 55.4614 27.8998C55.6903 27.3314 55.9969 26.5602 56.3076 25.7496C56.6181 24.9394 56.9336 24.0875 57.1799 23.3584C57.4218 22.6423 57.6094 22.0097 57.6454 21.6578L57.0485 21.5967C57.0207 21.8692 56.8584 22.4355 56.6115 23.1664C56.3689 23.8844 56.0566 24.7278 55.7473 25.5348C55.4382 26.3414 55.1329 27.1093 54.9048 27.6758C54.7908 27.9589 54.6962 28.1916 54.63 28.3535C54.597 28.4344 54.571 28.4976 54.5534 28.5405C54.5446 28.562 54.5378 28.5783 54.5333 28.5894C54.531 28.5949 54.5293 28.599 54.5282 28.6018C54.5276 28.6032 54.5272 28.6042 54.5269 28.6049C54.5267 28.6052 54.5266 28.6055 54.5266 28.6057C54.5265 28.6058 54.5265 28.6058 54.5265 28.6059C54.5265 28.6059 54.5265 28.6059 54.8037 28.7205ZM57.6454 21.6574C57.6536 21.5764 57.6635 21.4879 57.6743 21.3919L57.078 21.3248C57.0673 21.4207 57.0571 21.5123 57.0485 21.5971L57.6454 21.6574ZM57.6743 21.3916C57.7482 20.7285 57.8648 19.711 57.6705 18.8566C57.5721 18.4239 57.3883 18.005 57.0544 17.6937C56.7146 17.3769 56.2499 17.2 55.6481 17.2V17.8C56.1255 17.8 56.4352 17.9367 56.6453 18.1325C56.8612 18.3338 57.0028 18.6265 57.0854 18.9897C57.2531 19.7271 57.1545 20.6388 57.078 21.3251L57.6743 21.3916ZM55.6481 17.2C54.3035 17.2 53.6849 18.2305 53.0919 19.1793L53.6007 19.4973C54.2337 18.4845 54.6871 17.8 55.6481 17.8V17.2ZM53.0919 19.1792C52.8553 19.5578 52.6173 19.9377 52.3326 20.2932L52.801 20.6683C53.1109 20.2812 53.3666 19.8717 53.6007 19.4973L53.0919 19.1792ZM52.3326 20.2932C50.209 22.9452 46.6253 26.2701 44.5856 28.0475L44.9798 28.4998C47.0236 26.7188 50.6417 23.3647 52.801 20.6683L52.3326 20.2932ZM44.5856 28.0475C40.2807 31.7986 36.0559 34.8825 33.5865 36.6848L33.9403 37.1694C36.4099 35.3669 40.6534 32.2696 44.9797 28.4998L44.5856 28.0475ZM33.5865 36.6848C33.0256 37.0942 32.5534 37.4389 32.1922 37.7097C31.8371 37.976 31.572 38.1836 31.4381 38.3142L31.8568 38.7439C31.9575 38.6458 32.1888 38.4623 32.5522 38.1897C32.9096 37.9218 33.3781 37.5798 33.9402 37.1695L33.5865 36.6848ZM31.438 38.3142C30.9667 38.7737 30.2205 39.8432 29.3824 41.1501C28.5364 42.4692 27.576 44.0639 26.6723 45.6022C25.7684 47.141 24.9199 48.6257 24.2975 49.7254C23.9862 50.2753 23.7315 50.7292 23.5545 51.0456C23.466 51.2038 23.3969 51.3276 23.35 51.4119C23.3265 51.4541 23.3085 51.4864 23.2965 51.5082C23.2904 51.519 23.2858 51.5273 23.2828 51.5328C23.2812 51.5356 23.2801 51.5377 23.2793 51.5391C23.2789 51.5398 23.2786 51.5403 23.2784 51.5407C23.2783 51.5409 23.2782 51.541 23.2782 51.5411C23.2781 51.5412 23.2781 51.5412 23.5405 51.6867C23.8028 51.8322 23.8029 51.8321 23.8029 51.832C23.803 51.832 23.803 51.8318 23.8031 51.8317C23.8033 51.8313 23.8036 51.8308 23.804 51.8301C23.8047 51.8288 23.8059 51.8267 23.8074 51.824C23.8104 51.8185 23.8149 51.8103 23.821 51.7995C23.833 51.7779 23.8508 51.7458 23.8742 51.7038C23.921 51.6198 23.9898 51.4963 24.0781 51.3385C24.2547 51.0228 24.509 50.5699 24.8197 50.0209C25.4411 48.9229 26.2878 47.4413 27.1897 45.9061C28.0917 44.3705 29.0476 42.7835 29.8874 41.474C30.7351 40.1522 31.4442 39.1461 31.8569 38.7438L31.438 38.3142ZM23.5405 51.6867C23.2786 51.5404 23.2786 51.5404 23.2785 51.5405C23.2785 51.5405 23.2785 51.5406 23.2784 51.5406C23.2783 51.5408 23.2782 51.541 23.2781 51.5413C23.2778 51.5418 23.2774 51.5425 23.2768 51.5435C23.2757 51.5454 23.2742 51.5482 23.2722 51.5519C23.2681 51.5592 23.2622 51.5699 23.2546 51.5838C23.2393 51.6116 23.2172 51.6522 23.1895 51.7039C23.134 51.8073 23.0557 51.9555 22.9641 52.1355C22.7813 52.495 22.5443 52.9841 22.3297 53.4984C22.1163 54.0098 21.9195 54.5595 21.824 55.037C21.7764 55.2753 21.7509 55.5098 21.7677 55.7198C21.7842 55.927 21.8449 56.1458 22.0048 56.3091L22.4335 55.8893C22.4112 55.8666 22.3766 55.808 22.3658 55.6721C22.3551 55.5391 22.3703 55.365 22.4124 55.1547C22.4963 54.7351 22.6754 54.2282 22.8834 53.7294C23.0903 53.2337 23.3202 52.7591 23.4989 52.4075C23.5882 52.232 23.6644 52.0878 23.7181 51.9877C23.745 51.9376 23.7662 51.8987 23.7807 51.8723C23.7879 51.8592 23.7934 51.8492 23.797 51.8426C23.7989 51.8393 23.8002 51.8368 23.8011 51.8352C23.8016 51.8344 23.8019 51.8338 23.8021 51.8335C23.8022 51.8333 23.8023 51.8332 23.8023 51.8331C23.8023 51.8331 23.8023 51.833 23.8024 51.833C23.8024 51.833 23.8023 51.833 23.5405 51.6867ZM22.0048 56.3091C22.4495 56.7631 23.1679 56.9124 23.7069 56.9636C23.9871 56.9902 24.2419 56.9921 24.4264 56.9876C24.5189 56.9853 24.5944 56.9813 24.6474 56.9779C24.6739 56.9762 24.6948 56.9746 24.7095 56.9734C24.7168 56.9728 24.7225 56.9723 24.7266 56.9719C24.7287 56.9717 24.7303 56.9716 24.7315 56.9715C24.7321 56.9714 24.7326 56.9714 24.733 56.9713C24.7332 56.9713 24.7334 56.9713 24.7335 56.9713C24.7336 56.9713 24.7337 56.9713 24.7337 56.9713C24.7338 56.9713 24.7339 56.9713 24.7049 56.6727C24.6759 56.3741 24.676 56.3741 24.6761 56.374C24.6761 56.374 24.6761 56.374 24.6761 56.374C24.6762 56.374 24.6762 56.374 24.6762 56.374C24.6761 56.374 24.676 56.3741 24.6757 56.3741C24.6753 56.3741 24.6744 56.3742 24.6731 56.3743C24.6705 56.3746 24.6663 56.3749 24.6605 56.3754C24.6491 56.3763 24.6315 56.3777 24.6086 56.3792C24.5626 56.3821 24.4951 56.3857 24.4116 56.3878C24.2438 56.3919 24.0138 56.39 23.7636 56.3663C23.2419 56.3167 22.7174 56.1792 22.4335 55.8893L22.0048 56.3091ZM24.7049 56.6727C24.772 56.9651 24.7721 56.965 24.7723 56.965C24.7724 56.965 24.7727 56.9649 24.7731 56.9648C24.7738 56.9646 24.7749 56.9644 24.7763 56.9641C24.7792 56.9634 24.7834 56.9624 24.7891 56.9611C24.8005 56.9585 24.8174 56.9546 24.8398 56.9495C24.8845 56.9393 24.9509 56.924 25.0376 56.9041C25.211 56.8644 25.4656 56.806 25.7904 56.7315C26.44 56.5826 27.3703 56.3694 28.4933 56.1123C30.7393 55.5979 33.756 54.9076 36.8387 54.204C43.0078 52.796 49.4316 51.3368 50.4835 51.1242L50.3647 50.5361C49.3031 50.7506 42.8674 52.2126 36.7052 53.6191C33.6223 54.3227 30.6055 55.013 28.3594 55.5274C27.2363 55.7846 26.3059 55.9978 25.6563 56.1467C25.3315 56.2212 25.0769 56.2796 24.9035 56.3193C24.8168 56.3392 24.7504 56.3544 24.7056 56.3647C24.6833 56.3698 24.6663 56.3737 24.655 56.3763C24.6493 56.3776 24.645 56.3786 24.6421 56.3793C24.6407 56.3796 24.6396 56.3798 24.6389 56.38C24.6386 56.3801 24.6383 56.3801 24.6381 56.3802C24.6379 56.3802 24.6378 56.3803 24.7049 56.6727ZM50.4835 51.1242C51.0471 51.0103 51.4446 50.9446 51.752 50.8938L51.6543 50.3018C51.3449 50.3529 50.939 50.42 50.3646 50.5361L50.4835 51.1242ZM51.752 50.8938C52.1637 50.8258 52.4404 50.7812 52.7324 50.6739C53.0235 50.5671 53.3199 50.4022 53.7922 50.114L53.4797 49.6018C53.0068 49.8904 52.7554 50.0264 52.5257 50.1107C52.2969 50.1947 52.0798 50.2316 51.6543 50.3018L51.752 50.8938ZM36.7392 42.6813C36.088 43.3002 35.2338 44.336 34.5506 45.2046C34.207 45.6413 33.9034 46.0401 33.6856 46.3297C33.5767 46.4745 33.4893 46.5921 33.4289 46.6736C33.3988 46.7144 33.3754 46.7461 33.3595 46.7677C33.3516 46.7785 33.3455 46.7868 33.3414 46.7923C33.3393 46.7951 33.3378 46.7973 33.3367 46.7987C33.3362 46.7994 33.3358 46.8 33.3355 46.8004C33.3354 46.8006 33.3353 46.8007 33.3352 46.8008C33.3352 46.8008 33.3351 46.8009 33.3351 46.8009C33.3351 46.8009 33.3351 46.801 33.5773 46.978C33.8195 47.155 33.8195 47.155 33.8195 47.155C33.8195 47.155 33.8195 47.155 33.8195 47.155C33.8196 47.1549 33.8197 47.1548 33.8198 47.1546C33.82 47.1543 33.8204 47.1538 33.8209 47.1531C33.8218 47.1518 33.8233 47.1498 33.8253 47.1471C33.8292 47.1417 33.8351 47.1337 33.8429 47.1232C33.8584 47.1021 33.8814 47.0708 33.9112 47.0306C33.9707 46.9502 34.0573 46.8338 34.1652 46.6903C34.3811 46.4032 34.682 46.008 35.0222 45.5755C35.7065 44.7056 36.5366 43.7017 37.1525 43.1162L36.7392 42.6813ZM33.5773 46.978C33.5588 47.2774 33.5589 47.2774 33.559 47.2775C33.5591 47.2775 33.5592 47.2775 33.5593 47.2775C33.5596 47.2775 33.5598 47.2775 33.5602 47.2775C33.5609 47.2776 33.5618 47.2776 33.563 47.2777C33.5653 47.2778 33.5686 47.278 33.5728 47.2782C33.5811 47.2787 33.5931 47.2793 33.6087 47.2799C33.6397 47.2813 33.6847 47.2829 33.7423 47.2843C33.8575 47.287 34.0231 47.2884 34.2282 47.2836C34.6378 47.2739 35.2068 47.2393 35.8455 47.1391C37.1133 46.9401 38.6996 46.4759 39.8405 45.3914L39.4271 44.9566C38.4171 45.9167 36.9751 46.3545 35.7524 46.5464C35.1458 46.6416 34.604 46.6746 34.2141 46.6837C34.0194 46.6883 33.8631 46.6869 33.7563 46.6844C33.7029 46.6832 33.6619 46.6817 33.6347 46.6805C33.621 46.6799 33.6109 46.6794 33.6043 46.6791C33.6011 46.6789 33.5987 46.6787 33.5972 46.6787C33.5965 46.6786 33.596 46.6786 33.5958 46.6786C33.5957 46.6786 33.5956 46.6786 33.5956 46.6786C33.5956 46.6786 33.5956 46.6786 33.5956 46.6786C33.5957 46.6786 33.5957 46.6786 33.5773 46.978ZM39.8405 45.3914C40.9864 44.3022 41.4171 42.8416 41.5671 41.6811C41.6425 41.0979 41.6483 40.5816 41.6353 40.2107C41.6288 40.025 41.6175 39.8751 41.6078 39.7706C41.6029 39.7184 41.5984 39.6775 41.595 39.6491C41.5933 39.6349 41.5919 39.6239 41.5909 39.6161C41.5904 39.6122 41.59 39.6092 41.5897 39.6069C41.5896 39.6058 41.5894 39.6049 41.5893 39.6042C41.5893 39.6039 41.5892 39.6036 41.5892 39.6034C41.5892 39.6032 41.5892 39.6031 41.5892 39.603C41.5892 39.6029 41.5891 39.6028 41.2921 39.6448C40.995 39.6868 40.995 39.6867 40.995 39.6867C40.995 39.6867 40.995 39.6866 40.995 39.6866C40.995 39.6866 40.995 39.6866 40.995 39.6867C40.995 39.6868 40.9951 39.6872 40.9952 39.6877C40.9953 39.6889 40.9956 39.6908 40.996 39.6936C40.9967 39.6992 40.9978 39.7079 40.9992 39.7198C41.002 39.7434 41.006 39.7794 41.0104 39.8264C41.0192 39.9206 41.0296 40.0588 41.0357 40.2317C41.0478 40.578 41.0424 41.0606 40.9721 41.6042C40.8308 42.6971 40.4323 44.0011 39.4271 44.9566L39.8405 45.3914ZM41.2921 39.6448C41.1259 39.3951 41.1258 39.3951 41.1258 39.3951C41.1258 39.3951 41.1257 39.3952 41.1257 39.3952C41.1256 39.3953 41.1254 39.3954 41.1252 39.3955C41.1248 39.3958 41.1242 39.3962 41.1235 39.3967C41.1219 39.3977 41.1197 39.3992 41.1167 39.4012C41.1107 39.4052 41.1019 39.4111 41.0903 39.4188C41.0672 39.4343 41.0333 39.4571 40.9897 39.4864C40.9025 39.5452 40.7767 39.6303 40.6218 39.7362C40.3121 39.948 39.8859 40.2431 39.4197 40.576C38.4926 41.2382 37.3898 42.0628 36.7392 42.6813L37.1525 43.1162C37.7688 42.5303 38.8392 41.728 39.7685 41.0643C40.2305 40.7343 40.6532 40.4416 40.9605 40.2315C41.1141 40.1265 41.2388 40.0421 41.3249 39.984C41.368 39.955 41.4015 39.9326 41.4241 39.9174C41.4354 39.9098 41.444 39.9041 41.4498 39.9003C41.4526 39.8983 41.4548 39.8969 41.4562 39.8959C41.457 39.8955 41.4575 39.8951 41.4578 39.8949C41.458 39.8948 41.4581 39.8947 41.4582 39.8946C41.4583 39.8946 41.4583 39.8946 41.4583 39.8946C41.4583 39.8946 41.4583 39.8946 41.2921 39.6448Z" fill="url(#paint2_linear_323_2254)" mask="url(#path-1-inside-1_323_2254)"/>
<path d="M98 50C98 75.9574 78.0767 97 53.5 97C28.9234 97 58.5001 84.9574 58.5001 59C58.5001 33.0426 28.9234 3 53.5 3C78.0767 3 98 24.0426 98 50Z" fill="url(#paint3_linear_323_2254)" fill-opacity="0.4"/>
<defs>
<linearGradient id="paint0_linear_323_2254" x1="107.5" y1="-4.5" x2="43.5" y2="100" gradientUnits="userSpaceOnUse">
<stop stop-color="#FFA800"/>
<stop offset="1" stop-color="#FFD700"/>
</linearGradient>
<linearGradient id="paint1_linear_323_2254" x1="8.61904e-07" y1="16.4179" x2="8.27373" y2="129.75" gradientUnits="userSpaceOnUse">
<stop stop-color="#DBDCDC" stop-opacity="0.5"/>
<stop offset="1" stop-color="#DBDCDC" stop-opacity="0"/>
</linearGradient>
<linearGradient id="paint2_linear_323_2254" x1="107.5" y1="-4.5" x2="43.5" y2="100" gradientUnits="userSpaceOnUse">
<stop stop-color="#FFA800"/>
<stop offset="1" stop-color="#FFD700"/>
</linearGradient>
<linearGradient id="paint3_linear_323_2254" x1="87.5" y1="9" x2="13" y2="128.5" gradientUnits="userSpaceOnUse">
<stop stop-color="white"/>
<stop offset="1" stop-color="white" stop-opacity="0"/>
</linearGradient>
</defs>
</svg>
