<svg width="100" height="100" viewBox="0 0 100 100" fill="none" xmlns="http://www.w3.org/2000/svg">
<circle cx="50" cy="50" r="50" fill="url(#paint0_linear_323_2262)"/>
<g style="mix-blend-mode:multiply">
<path d="M10 50.5C10 71.763 17 85 17 85C17 85 2 71.763 2 50.5C2 29.237 15 18 15 18C15 18 10 29.237 10 50.5Z" fill="url(#paint1_linear_323_2262)"/>
</g>
<path d="M98 50C98 75.9574 78.0767 97 53.5 97C28.9234 97 58.5001 84.9574 58.5001 59C58.5001 33.0426 28.9234 3 53.5 3C78.0767 3 98 24.0426 98 50Z" fill="url(#paint2_linear_323_2262)" fill-opacity="0.4"/>
<mask id="path-4-inside-1_323_2262" fill="white">
<path fill-rule="evenodd" clip-rule="evenodd" d="M37.368 17.5741C37.3554 17.5378 37.3824 17.5 37.4208 17.5H60.2506C60.2751 17.5 60.2968 17.5159 60.3041 17.5393L70.7902 51.4182C70.8012 51.4541 70.7744 51.4906 70.7367 51.4906H55.538C55.5195 51.4906 55.5061 51.5082 55.5112 51.5261L64.2281 82.2113C64.2451 82.2709 64.167 82.3097 64.1298 82.2602L30.2547 37.2116C30.227 37.1748 30.2533 37.1223 30.2993 37.1223H44.0934C44.1126 37.1223 44.1261 37.1033 44.1197 37.0852L37.368 17.5741Z"/>
</mask>
<path fill-rule="evenodd" clip-rule="evenodd" d="M37.368 17.5741C37.3554 17.5378 37.3824 17.5 37.4208 17.5H60.2506C60.2751 17.5 60.2968 17.5159 60.3041 17.5393L70.7902 51.4182C70.8012 51.4541 70.7744 51.4906 70.7367 51.4906H55.538C55.5195 51.4906 55.5061 51.5082 55.5112 51.5261L64.2281 82.2113C64.2451 82.2709 64.167 82.3097 64.1298 82.2602L30.2547 37.2116C30.227 37.1748 30.2533 37.1223 30.2993 37.1223H44.0934C44.1126 37.1223 44.1261 37.1033 44.1197 37.0852L37.368 17.5741Z" fill="white"/>
<path d="M37.368 17.5741L37.6515 17.476L37.6514 17.4759L37.368 17.5741ZM60.3041 17.5393L60.0175 17.628L60.0175 17.628L60.3041 17.5393ZM70.7902 51.4182L71.0769 51.33L71.0767 51.3295L70.7902 51.4182ZM55.5112 51.5261L55.2226 51.608L55.2226 51.6081L55.5112 51.5261ZM64.2281 82.2113L63.9395 82.2933L63.9396 82.2937L64.2281 82.2113ZM64.1298 82.2602L64.3697 82.08L64.3696 82.0799L64.1298 82.2602ZM30.2547 37.2116L30.0149 37.3919L30.0149 37.3919L30.2547 37.2116ZM44.1197 37.0852L43.8362 37.1833L43.8365 37.1842L44.1197 37.0852ZM37.6514 17.4759C37.7066 17.6352 37.5879 17.8 37.4208 17.8V17.2C37.1769 17.2 37.0042 17.4405 37.0845 17.6723L37.6514 17.4759ZM37.4208 17.8H60.2506V17.2H37.4208V17.8ZM60.2506 17.8C60.1442 17.8 60.0493 17.7309 60.0175 17.628L60.5907 17.4506C60.5444 17.301 60.406 17.2 60.2506 17.2V17.8ZM60.0175 17.628L70.5036 51.5069L71.0767 51.3295L60.5907 17.4506L60.0175 17.628ZM70.5034 51.5063C70.4553 51.3499 70.572 51.1906 70.7367 51.1906V51.7906C70.9768 51.7906 71.1471 51.5583 71.0769 51.33L70.5034 51.5063ZM70.7367 51.1906H55.538V51.7906H70.7367V51.1906ZM55.538 51.1906C55.3197 51.1906 55.1634 51.3992 55.2226 51.608L55.7998 51.4442C55.8489 51.6172 55.7193 51.7906 55.538 51.7906V51.1906ZM55.2226 51.6081L63.9395 82.2933L64.5167 82.1293L55.7998 51.4441L55.2226 51.6081ZM63.9396 82.2937C63.8654 82.0339 64.2066 81.863 64.3697 82.08L63.89 82.4404C64.1274 82.7564 64.6248 82.5078 64.5165 82.1289L63.9396 82.2937ZM64.3696 82.0799L30.4945 37.0313L30.0149 37.3919L63.89 82.4405L64.3696 82.0799ZM30.4945 37.0314C30.6156 37.1924 30.5006 37.4223 30.2993 37.4223V36.8223C30.0061 36.8223 29.8385 37.1573 30.0149 37.3919L30.4945 37.0314ZM30.2993 37.4223H44.0934V36.8223H30.2993V37.4223ZM44.0934 37.4223C44.3192 37.4223 44.4774 37.1994 44.4029 36.9862L43.8365 37.1842C43.7747 37.0073 43.906 36.8223 44.0934 36.8223V37.4223ZM44.4032 36.9871L37.6515 17.476L37.0845 17.6722L43.8362 37.1833L44.4032 36.9871Z" fill="url(#paint3_linear_323_2262)" mask="url(#path-4-inside-1_323_2262)"/>
<defs>
<linearGradient id="paint0_linear_323_2262" x1="107.5" y1="-4.5" x2="43.5" y2="100" gradientUnits="userSpaceOnUse">
<stop stop-color="#FFA800"/>
<stop offset="1" stop-color="#FFD700"/>
</linearGradient>
<linearGradient id="paint1_linear_323_2262" x1="2" y1="29" x2="24.5" y2="98" gradientUnits="userSpaceOnUse">
<stop stop-color="#DBDCDC" stop-opacity="0.5"/>
<stop offset="1" stop-color="#DBDCDC" stop-opacity="0"/>
</linearGradient>
<linearGradient id="paint2_linear_323_2262" x1="87.5" y1="9" x2="13" y2="128.5" gradientUnits="userSpaceOnUse">
<stop stop-color="white"/>
<stop offset="1" stop-color="white" stop-opacity="0"/>
</linearGradient>
<linearGradient id="paint3_linear_323_2262" x1="73.8339" y1="14.5848" x2="27.2997" y2="62.1436" gradientUnits="userSpaceOnUse">
<stop stop-color="#FFA800"/>
<stop offset="1" stop-color="#FFD700"/>
</linearGradient>
</defs>
</svg>
