<svg width="100" height="100" viewBox="0 0 100 100" fill="none" xmlns="http://www.w3.org/2000/svg">
<circle cx="50" cy="50" r="50" fill="url(#paint0_linear_323_2270)"/>
<g style="mix-blend-mode:multiply">
<path d="M10 50.5C10 71.763 17 85 17 85C17 85 2 71.763 2 50.5C2 29.237 15 18 15 18C15 18 10 29.237 10 50.5Z" fill="url(#paint1_linear_323_2270)"/>
</g>
<path d="M98 50C98 75.9574 78.0767 97 53.5 97C28.9234 97 58.5001 84.9574 58.5001 59C58.5001 33.0426 28.9234 3 53.5 3C78.0767 3 98 24.0426 98 50Z" fill="url(#paint2_linear_323_2270)" fill-opacity="0.4"/>
<g clip-path="url(#clip0_323_2270)">
<mask id="path-4-inside-1_323_2270" fill="white">
<path fill-rule="evenodd" clip-rule="evenodd" d="M31.0414 69.0402L41.467 66.0172L50.4718 82.4818C50.4836 82.5032 50.5142 82.5032 50.5259 82.4818L59.5307 66.0172L69.9565 69.0402C69.9798 69.0469 70.0015 69.0252 69.9945 69.0018L66.971 58.7825L82.9817 50.0259C83.0032 50.0142 83.0032 49.9836 82.9818 49.9719L66.8391 41.1431L69.9945 30.4778C70.0015 30.4544 69.9798 30.4327 69.9565 30.4394L59.2862 33.5334L50.5259 17.516C50.5142 17.4947 50.4836 17.4947 50.4719 17.516L41.7117 33.5334L31.0414 30.4394C31.018 30.4327 30.9963 30.4544 31.0033 30.4778L34.1587 41.1431L18.016 49.9719C17.9947 49.9836 17.9947 50.0142 18.016 50.0259L34.0267 58.7825L31.0033 69.0018C30.9963 69.0252 31.018 69.0469 31.0414 69.0402ZM39.1316 50.1112L46.5176 54.1507L50.5571 61.5366C50.5688 61.5581 50.5995 61.5581 50.6112 61.5366L54.6507 54.1507L62.0366 50.1112C62.0579 50.0995 62.0579 50.0688 62.0366 50.0571L54.6507 46.0176L50.6112 38.6317C50.5995 38.6103 50.5688 38.6103 50.5571 38.6317L46.5176 46.0176L39.1316 50.0571C39.1103 50.0688 39.1103 50.0995 39.1316 50.1112Z"/>
</mask>
<path fill-rule="evenodd" clip-rule="evenodd" d="M31.0414 69.0402L41.467 66.0172L50.4718 82.4818C50.4836 82.5032 50.5142 82.5032 50.5259 82.4818L59.5307 66.0172L69.9565 69.0402C69.9798 69.0469 70.0015 69.0252 69.9945 69.0018L66.971 58.7825L82.9817 50.0259C83.0032 50.0142 83.0032 49.9836 82.9818 49.9719L66.8391 41.1431L69.9945 30.4778C70.0015 30.4544 69.9798 30.4327 69.9565 30.4394L59.2862 33.5334L50.5259 17.516C50.5142 17.4947 50.4836 17.4947 50.4719 17.516L41.7117 33.5334L31.0414 30.4394C31.018 30.4327 30.9963 30.4544 31.0033 30.4778L34.1587 41.1431L18.016 49.9719C17.9947 49.9836 17.9947 50.0142 18.016 50.0259L34.0267 58.7825L31.0033 69.0018C30.9963 69.0252 31.018 69.0469 31.0414 69.0402ZM39.1316 50.1112L46.5176 54.1507L50.5571 61.5366C50.5688 61.5581 50.5995 61.5581 50.6112 61.5366L54.6507 54.1507L62.0366 50.1112C62.0579 50.0995 62.0579 50.0688 62.0366 50.0571L54.6507 46.0176L50.6112 38.6317C50.5995 38.6103 50.5688 38.6103 50.5571 38.6317L46.5176 46.0176L39.1316 50.0571C39.1103 50.0688 39.1103 50.0995 39.1316 50.1112Z" fill="white"/>
<path d="M31.0414 69.0402L31.1244 69.3285L31.1249 69.3283L31.0414 69.0402ZM41.467 66.0172L41.7302 65.8732L41.6147 65.662L41.3835 65.729L41.467 66.0172ZM50.4718 82.4818L50.2086 82.6258L50.2093 82.6271L50.4718 82.4818ZM50.5259 82.4818L50.789 82.6259L50.7891 82.6258L50.5259 82.4818ZM59.5307 66.0172L59.6142 65.729L59.383 65.662L59.2675 65.8732L59.5307 66.0172ZM69.9565 69.0402L69.8729 69.3283L69.8734 69.3285L69.9565 69.0402ZM69.9945 69.0018L69.7069 69.0869L69.7071 69.0878L69.9945 69.0018ZM66.971 58.7825L66.8271 58.5193L66.6147 58.6355L66.6834 58.8676L66.971 58.7825ZM82.9817 50.0259L82.8383 49.7624L82.8378 49.7627L82.9817 50.0259ZM82.9818 49.9719L83.1259 49.7088L83.1258 49.7087L82.9818 49.9719ZM66.8391 41.1431L66.5514 41.058L66.4828 41.2902L66.6952 41.4063L66.8391 41.1431ZM69.9945 30.4778L69.7071 30.3919L69.7069 30.3927L69.9945 30.4778ZM69.9565 30.4394L69.8734 30.1512L69.8729 30.1513L69.9565 30.4394ZM59.2862 33.5334L59.023 33.6774L59.1385 33.8886L59.3697 33.8215L59.2862 33.5334ZM50.5259 17.516L50.2627 17.66L50.2627 17.66L50.5259 17.516ZM50.4719 17.516L50.7352 17.66L50.7352 17.66L50.4719 17.516ZM41.7117 33.5334L41.6281 33.8215L41.8594 33.8886L41.9749 33.6774L41.7117 33.5334ZM31.0414 30.4394L31.1249 30.1513L31.1244 30.1512L31.0414 30.4394ZM31.0033 30.4778L31.291 30.3927L31.2907 30.3919L31.0033 30.4778ZM34.1587 41.1431L34.3027 41.4063L34.5151 41.2902L34.4464 41.058L34.1587 41.1431ZM18.016 49.9719L18.16 50.2352L18.16 50.2352L18.016 49.9719ZM18.016 50.0259L18.16 49.7627L18.16 49.7627L18.016 50.0259ZM34.0267 58.7825L34.3144 58.8676L34.383 58.6354L34.1706 58.5193L34.0267 58.7825ZM31.0033 69.0018L31.2907 69.0878L31.291 69.0869L31.0033 69.0018ZM39.1316 50.1112L38.9875 50.3743L38.9876 50.3744L39.1316 50.1112ZM46.5176 54.1507L46.7808 54.0068L46.7386 53.9297L46.6616 53.8875L46.5176 54.1507ZM50.5571 61.5366L50.8206 61.3932L50.8203 61.3927L50.5571 61.5366ZM50.6112 61.5366L50.348 61.3927L50.3477 61.3932L50.6112 61.5366ZM54.6507 54.1507L54.5068 53.8875L54.4297 53.9297L54.3875 54.0068L54.6507 54.1507ZM62.0366 50.1112L62.1806 50.3744L62.1807 50.3743L62.0366 50.1112ZM62.0366 50.0571L62.1807 49.794L62.1806 49.7939L62.0366 50.0571ZM54.6507 46.0176L54.3875 46.1616L54.4297 46.2387L54.5068 46.2808L54.6507 46.0176ZM50.6112 38.6317L50.3477 38.7752L50.348 38.7757L50.6112 38.6317ZM50.5571 38.6317L50.8203 38.7757L50.8206 38.7752L50.5571 38.6317ZM46.5176 46.0176L46.6616 46.2808L46.7386 46.2387L46.7808 46.1616L46.5176 46.0176ZM39.1316 50.0571L38.9876 49.7939L38.9875 49.794L39.1316 50.0571ZM31.1249 69.3283L41.5506 66.3053L41.3835 65.729L30.9578 68.752L31.1249 69.3283ZM41.2038 66.1611L50.2086 82.6258L50.735 82.3379L41.7302 65.8732L41.2038 66.1611ZM50.2093 82.6271C50.3347 82.8536 50.6629 82.8563 50.789 82.6259L50.2628 82.3378C50.3655 82.1501 50.6325 82.1527 50.7343 82.3366L50.2093 82.6271ZM50.7891 82.6258L59.7939 66.1611L59.2675 65.8732L50.2627 82.3379L50.7891 82.6258ZM59.4471 66.3053L69.8729 69.3283L70.04 68.752L59.6142 65.729L59.4471 66.3053ZM69.8734 69.3285C70.1225 69.4002 70.3576 69.169 70.282 68.9159L69.7071 69.0878C69.6454 68.8814 69.8372 68.6936 70.0395 68.7519L69.8734 69.3285ZM70.2822 68.9167L67.2587 58.6974L66.6834 58.8676L69.7069 69.0869L70.2822 68.9167ZM67.115 59.0457L83.1257 50.2891L82.8378 49.7627L66.8271 58.5193L67.115 59.0457ZM83.1252 50.2894C83.3549 50.1643 83.3556 49.8346 83.1259 49.7088L82.8378 50.2351C82.6507 50.1326 82.6515 49.8641 82.8383 49.7624L83.1252 50.2894ZM83.1258 49.7087L66.9831 40.8799L66.6952 41.4063L82.8379 50.2352L83.1258 49.7087ZM67.1268 41.2282L70.2822 30.5629L69.7069 30.3927L66.5514 41.058L67.1268 41.2282ZM70.282 30.5637C70.3576 30.3107 70.1225 30.0794 69.8734 30.1512L70.0395 30.7277C69.8372 30.786 69.6454 30.5982 69.7071 30.3919L70.282 30.5637ZM69.8729 30.1513L59.2026 33.2453L59.3697 33.8215L70.04 30.7276L69.8729 30.1513ZM59.5494 33.3895L50.7891 17.3721L50.2627 17.66L59.023 33.6774L59.5494 33.3895ZM50.7891 17.3721C50.6637 17.1426 50.3342 17.1426 50.2087 17.3721L50.7352 17.66C50.633 17.8467 50.3648 17.8467 50.2627 17.66L50.7891 17.3721ZM50.2087 17.3721L41.4485 33.3895L41.9749 33.6774L50.7352 17.66L50.2087 17.3721ZM41.7952 33.2453L31.1249 30.1513L30.9578 30.7276L41.6281 33.8215L41.7952 33.2453ZM31.1244 30.1512C30.8753 30.0794 30.6402 30.3107 30.7159 30.5637L31.2907 30.3919C31.3524 30.5982 31.1607 30.786 30.9583 30.7277L31.1244 30.1512ZM30.7156 30.5629L33.871 41.2282L34.4464 41.058L31.291 30.3927L30.7156 30.5629ZM34.0148 40.8799L17.8721 49.7087L18.16 50.2352L34.3027 41.4063L34.0148 40.8799ZM17.8721 49.7087C17.6426 49.8342 17.6426 50.1636 17.8721 50.2891L18.16 49.7627C18.3467 49.8648 18.3467 50.1331 18.16 50.2352L17.8721 49.7087ZM17.8721 50.2891L33.8827 59.0457L34.1706 58.5193L18.16 49.7627L17.8721 50.2891ZM33.739 58.6974L30.7156 68.9167L31.291 69.0869L34.3144 58.8676L33.739 58.6974ZM30.7159 68.9159C30.6402 69.1689 30.8753 69.4002 31.1244 69.3285L30.9583 68.7519C31.1607 68.6936 31.3524 68.8815 31.2907 69.0878L30.7159 68.9159ZM38.9876 50.3744L46.3737 54.4139L46.6616 53.8875L39.2756 49.848L38.9876 50.3744ZM46.2544 54.2947L50.2939 61.6806L50.8203 61.3927L46.7808 54.0068L46.2544 54.2947ZM50.2936 61.68C50.419 61.9103 50.7494 61.9103 50.8747 61.68L50.3477 61.3932C50.4497 61.2059 50.7187 61.2059 50.8206 61.3932L50.2936 61.68ZM50.8744 61.6806L54.9139 54.2947L54.3875 54.0068L50.348 61.3927L50.8744 61.6806ZM54.7947 54.4139L62.1806 50.3744L61.8927 49.848L54.5068 53.8875L54.7947 54.4139ZM62.1807 50.3743C62.4099 50.2488 62.4099 49.9195 62.1807 49.794L61.8925 50.3203C61.706 50.2181 61.706 49.9502 61.8925 49.8481L62.1807 50.3743ZM62.1806 49.7939L54.7947 45.7544L54.5068 46.2808L61.8927 50.3203L62.1806 49.7939ZM54.9139 45.8737L50.8744 38.4878L50.348 38.7757L54.3875 46.1616L54.9139 45.8737ZM50.8747 38.4883C50.7494 38.2581 50.419 38.2581 50.2936 38.4883L50.8206 38.7752C50.7187 38.9625 50.4497 38.9625 50.3477 38.7752L50.8747 38.4883ZM50.2939 38.4878L46.2544 45.8737L46.7808 46.1616L50.8203 38.7757L50.2939 38.4878ZM46.3737 45.7544L38.9876 49.7939L39.2756 50.3203L46.6616 46.2808L46.3737 45.7544ZM38.9875 49.794C38.7583 49.9195 38.7583 50.2488 38.9875 50.3743L39.2757 49.8481C39.4622 49.9502 39.4622 50.2181 39.2757 50.3203L38.9875 49.794Z" fill="url(#paint3_linear_323_2270)" mask="url(#path-4-inside-1_323_2270)"/>
</g>
<defs>
<linearGradient id="paint0_linear_323_2270" x1="107.5" y1="-4.5" x2="43.5" y2="100" gradientUnits="userSpaceOnUse">
<stop stop-color="#FFA800"/>
<stop offset="1" stop-color="#FFD700"/>
</linearGradient>
<linearGradient id="paint1_linear_323_2270" x1="2" y1="29" x2="24.5" y2="98" gradientUnits="userSpaceOnUse">
<stop stop-color="#DBDCDC" stop-opacity="0.5"/>
<stop offset="1" stop-color="#DBDCDC" stop-opacity="0"/>
</linearGradient>
<linearGradient id="paint2_linear_323_2270" x1="87.5" y1="9" x2="13" y2="128.5" gradientUnits="userSpaceOnUse">
<stop stop-color="white"/>
<stop offset="1" stop-color="white" stop-opacity="0"/>
</linearGradient>
<linearGradient id="paint3_linear_323_2270" x1="87.8727" y1="14.5751" x2="46.274" y2="82.4978" gradientUnits="userSpaceOnUse">
<stop stop-color="#FFA800"/>
<stop offset="1" stop-color="#FFD700"/>
</linearGradient>
<clipPath id="clip0_323_2270">
<rect width="65" height="65" fill="white" transform="translate(18 17.5)"/>
</clipPath>
</defs>
</svg>
