<svg width="100" height="100" viewBox="0 0 100 100" fill="none" xmlns="http://www.w3.org/2000/svg">
<circle cx="50" cy="50" r="50" fill="url(#paint0_linear_323_2278)"/>
<g style="mix-blend-mode:multiply">
<path d="M10 50.5C10 71.763 17 85 17 85C17 85 2 71.763 2 50.5C2 29.237 15 18 15 18C15 18 10 29.237 10 50.5Z" fill="url(#paint1_linear_323_2278)"/>
</g>
<path d="M98 50C98 75.9574 78.0767 97 53.5 97C28.9234 97 58.5001 84.9574 58.5001 59C58.5001 33.0426 28.9234 3 53.5 3C78.0767 3 98 24.0426 98 50Z" fill="url(#paint2_linear_323_2278)" fill-opacity="0.4"/>
<g clip-path="url(#clip0_323_2278)">
<path d="M42.031 20.8321L42.0754 20.9H42.1565H44.2529H44.3162L44.3603 20.8547C45.6357 19.5458 47.417 18.7333 49.3885 18.7333C52.2787 18.7333 54.7613 20.4801 55.8376 22.9761L55.8767 23.0667H55.9754H57.7305H57.7735L57.8099 23.0439C58.8866 22.3718 60.1587 21.9833 61.5218 21.9833C64.4121 21.9833 66.8946 23.7301 67.9709 26.2261L68.01 26.3167H68.1087H72.8815C72.8949 26.3167 72.9072 26.3202 72.9178 26.3264L72.9592 26.3506L73.007 26.3462C73.2204 26.3267 73.4366 26.3167 73.6551 26.3167C77.5321 26.3167 80.6748 29.4595 80.6748 33.3364V54.8351V54.8356L80.6749 54.8745V54.8755L80.6748 54.9144V54.9149V55.2245C80.6748 55.3529 80.6713 55.4808 80.6643 55.6081L80.6643 55.6081L80.6642 55.6119C80.2355 70.4329 66.9036 82.35 50.4915 82.35C33.8082 82.35 20.3082 70.0361 20.3082 54.875C20.3082 47.6769 23.3493 41.1233 28.3299 36.2224C28.3259 39.6971 28.3543 43.2002 28.4498 45.8498C28.4991 47.2192 28.5664 48.3641 28.6569 49.1602C28.702 49.557 28.7535 49.8742 28.8136 50.0908C28.8431 50.1973 28.8779 50.2916 28.9219 50.3601C28.9615 50.4216 29.048 50.5182 29.1812 50.4879C29.2728 50.467 29.3438 50.4078 29.3977 50.3402C29.4519 50.2724 29.4975 50.1853 29.5373 50.0867C29.6168 49.8891 29.683 49.618 29.739 49.2892C29.8513 48.6295 29.9277 47.7064 29.976 46.6004C30.0728 44.3866 30.0583 41.419 29.9886 38.3135C29.8495 32.121 29.4904 25.368 29.3526 22.9185C30.1305 19.8889 32.8801 17.65 36.1521 17.65C38.6124 17.65 40.7773 18.9157 42.031 20.8321Z" fill="white" stroke="url(#paint3_linear_323_2278)" stroke-width="0.3"/>
</g>
<defs>
<linearGradient id="paint0_linear_323_2278" x1="107.5" y1="-4.5" x2="43.5" y2="100" gradientUnits="userSpaceOnUse">
<stop stop-color="#FFA800"/>
<stop offset="1" stop-color="#FFD700"/>
</linearGradient>
<linearGradient id="paint1_linear_323_2278" x1="2" y1="29" x2="24.5" y2="98" gradientUnits="userSpaceOnUse">
<stop stop-color="#DBDCDC" stop-opacity="0.5"/>
<stop offset="1" stop-color="#DBDCDC" stop-opacity="0"/>
</linearGradient>
<linearGradient id="paint2_linear_323_2278" x1="87.5" y1="9" x2="13" y2="128.5" gradientUnits="userSpaceOnUse">
<stop stop-color="white"/>
<stop offset="1" stop-color="white" stop-opacity="0"/>
</linearGradient>
<linearGradient id="paint3_linear_323_2278" x1="85.3749" y1="14.575" x2="42.5326" y2="79.865" gradientUnits="userSpaceOnUse">
<stop stop-color="#FFA800"/>
<stop offset="1" stop-color="#FFD700"/>
</linearGradient>
<clipPath id="clip0_323_2278">
<rect width="65" height="65" fill="white" transform="translate(18 17.5)"/>
</clipPath>
</defs>
</svg>
