<svg width="100" height="100" viewBox="0 0 100 100" fill="none" xmlns="http://www.w3.org/2000/svg">
<circle cx="50" cy="50" r="50" fill="url(#paint0_linear_323_2286)"/>
<g style="mix-blend-mode:multiply">
<path d="M10 50.5C10 71.763 17 85 17 85C17 85 2 71.763 2 50.5C2 29.237 15 18 15 18C15 18 10 29.237 10 50.5Z" fill="url(#paint1_linear_323_2286)"/>
</g>
<path d="M98 50C98 75.9574 78.0767 97 53.5 97C28.9234 97 58.5001 84.9574 58.5001 59C58.5001 33.0426 28.9234 3 53.5 3C78.0767 3 98 24.0426 98 50Z" fill="url(#paint2_linear_323_2286)" fill-opacity="0.4"/>
<g clip-path="url(#clip0_323_2286)">
<path d="M29.9942 52.2991L30.1297 52.3634L30.1298 52.3632L30.1302 52.3624L30.1318 52.359L30.1381 52.3458L30.1631 52.2935C30.1852 52.2475 30.2179 52.1796 30.2604 52.0923C30.3455 51.9176 30.4695 51.6651 30.6256 51.3541C30.9379 50.732 31.3781 49.8764 31.8898 48.9419C32.9158 47.0685 34.2214 44.8937 35.3574 43.6425C37.5202 41.2603 40.2338 39.3258 42.5914 37.6457L42.6068 37.6348C44.4079 36.3512 46.0113 35.2086 46.9737 34.1322C49.6335 31.1582 50.1392 26.9755 49.9905 23.5623C49.9159 21.8523 49.6768 20.3272 49.4563 19.2296C49.3502 18.7014 49.2484 18.2718 49.1712 17.968C49.3212 18.1121 49.5106 18.2984 49.7306 18.5236C50.3071 19.1138 51.0933 19.9709 51.9309 21.0372C53.6073 23.1716 55.4823 26.1354 56.2997 29.469L56.4271 29.4378L56.2997 29.469C56.9202 31.9997 56.5219 34.8867 56.1594 37.5019L56.1589 37.5058C56.0125 38.5617 55.8722 39.5738 55.8111 40.4919C55.75 41.4101 55.767 42.2462 55.9417 42.9473C56.1172 43.6517 56.4543 44.2282 57.0367 44.6099C57.6159 44.9895 58.4172 45.1632 59.4953 45.1067C60.3713 45.0608 61.0553 44.8512 61.5759 44.5099C62.0977 44.1677 62.4459 43.6993 62.6587 43.153C63.0811 42.0683 62.9703 40.6767 62.6523 39.3256C62.3331 37.9692 61.7986 36.6274 61.3454 35.6268C61.1186 35.126 60.9116 34.7096 60.7612 34.4181C60.7603 34.4166 60.7596 34.415 60.7588 34.4135C60.8241 34.4514 60.8962 34.4936 60.9744 34.5402C61.3947 34.79 61.9946 35.1632 62.7112 35.6558C64.1448 36.6411 66.0436 38.1029 67.9057 40.0087C71.6318 43.8221 75.1959 49.3968 74.6201 56.4809C74.0445 63.5635 69.836 67.9116 65.7577 70.4945C63.7183 71.7861 61.7141 72.6342 60.2194 73.1594C59.4723 73.4219 58.8531 73.6036 58.4211 73.7195C58.3949 73.7265 58.3694 73.7333 58.3446 73.7398C58.4045 73.6865 58.4691 73.6284 58.5378 73.5658C58.9406 73.1993 59.4862 72.6798 60.0573 72.0677C61.194 70.8495 62.4529 69.2426 62.865 67.7361C63.2759 66.2334 63.0809 63.9606 62.7918 62.0857C62.6466 61.1437 62.4762 60.2941 62.3421 59.6801C62.275 59.3731 62.2171 59.1247 62.1758 58.953C62.1551 58.8672 62.1387 58.8005 62.1274 58.7551L62.1143 58.7034L62.111 58.6901L62.1101 58.6867L62.1098 58.6858L62.1098 58.6856C62.1098 58.6855 62.1098 58.6854 61.9645 58.7229L62.1098 58.6854L61.8183 58.6893L61.8183 58.6895L61.8182 58.6901L61.8176 58.6926L61.8152 58.7029L61.8055 58.7438C61.7969 58.7798 61.784 58.833 61.7669 58.9016C61.7328 59.0386 61.682 59.2368 61.6155 59.4803C61.4826 59.9675 61.287 60.6358 61.0366 61.3602C60.5328 62.8178 59.8172 64.4718 58.9596 65.3542C57.6278 66.7243 56.0309 67.716 53.8334 68.1071C55.6609 66.9303 56.8694 64.8986 56.8694 62.588C56.8694 58.9448 53.8657 55.9957 50.1659 55.9957C46.466 55.9957 43.4622 58.9448 43.4622 62.588C43.4622 63.3503 43.5939 64.0826 43.8361 64.764C43.0198 63.9599 42.5133 63.0177 42.2039 62.2289C42.0211 61.7629 41.9079 61.3524 41.8405 61.0589C41.8068 60.9122 41.7846 60.795 41.7708 60.7149C41.764 60.6749 41.7592 60.6442 41.7562 60.6237L41.753 60.6009L41.7523 60.5955L41.7522 60.5943L41.7521 60.5942L41.7521 60.5941L41.7518 60.5942L41.4574 60.5774L41.6033 60.6125C41.4574 60.5774 41.4574 60.5775 41.4574 60.5776L41.4573 60.5781L41.4569 60.5797L41.4554 60.5859L41.45 60.6094C41.4453 60.63 41.4385 60.6603 41.4299 60.7C41.4129 60.7793 41.3888 60.8958 41.3608 61.0455C41.3048 61.3449 41.2327 61.7774 41.1682 62.3116C41.0392 63.3794 40.9402 64.8557 41.0604 66.4883C41.3007 69.7502 42.4191 73.6616 45.9541 76.1671C49.4846 78.6695 54.6865 78.8362 58.9733 78.392C61.122 78.1693 63.0515 77.7918 64.4438 77.4702C64.9525 77.3526 65.3897 77.2425 65.7398 77.15C65.7282 77.1571 65.7166 77.1643 65.7049 77.1716C65.1456 77.5163 64.3297 77.9926 63.3053 78.5177C61.256 79.5684 58.3747 80.8132 55.0448 81.5925C48.3871 83.1505 39.9491 82.8464 32.7628 75.4196C26.5718 69.0214 25.7622 61.6124 26.5031 55.7924C26.8737 52.8817 27.632 50.3708 28.2979 48.5875C28.5715 47.8545 28.8295 47.2448 29.0382 46.7812C28.9437 47.397 28.854 48.2111 28.854 49.0834C28.854 50.023 29.1085 50.8475 29.3613 51.4353C29.4879 51.7297 29.6145 51.966 29.71 52.1292C29.7577 52.2108 29.7976 52.2743 29.8259 52.3177C29.8401 52.3394 29.8513 52.3562 29.8592 52.3676L29.8683 52.3809L29.8709 52.3846L29.8716 52.3856L29.8719 52.386L29.8719 52.3861C29.872 52.3861 29.872 52.3862 29.9942 52.2991ZM29.9942 52.2991L30.1297 52.3634L30.0202 52.5942L29.872 52.3862L29.9942 52.2991Z" fill="white" stroke="url(#paint3_linear_323_2286)" stroke-width="0.3"/>
</g>
<defs>
<linearGradient id="paint0_linear_323_2286" x1="107.5" y1="-4.5" x2="43.5" y2="100" gradientUnits="userSpaceOnUse">
<stop stop-color="#FFA800"/>
<stop offset="1" stop-color="#FFD700"/>
</linearGradient>
<linearGradient id="paint1_linear_323_2286" x1="2" y1="29" x2="24.5" y2="98" gradientUnits="userSpaceOnUse">
<stop stop-color="#DBDCDC" stop-opacity="0.5"/>
<stop offset="1" stop-color="#DBDCDC" stop-opacity="0"/>
</linearGradient>
<linearGradient id="paint2_linear_323_2286" x1="87.5" y1="9" x2="13" y2="128.5" gradientUnits="userSpaceOnUse">
<stop stop-color="white"/>
<stop offset="1" stop-color="white" stop-opacity="0"/>
</linearGradient>
<linearGradient id="paint3_linear_323_2286" x1="78.4846" y1="14.575" x2="32.7178" y2="70.5716" gradientUnits="userSpaceOnUse">
<stop stop-color="#FFA800"/>
<stop offset="1" stop-color="#FFD700"/>
</linearGradient>
<clipPath id="clip0_323_2286">
<rect width="65" height="65" fill="white" transform="translate(18 17.5)"/>
</clipPath>
</defs>
</svg>
