<svg width="100" height="100" viewBox="0 0 100 100" fill="none" xmlns="http://www.w3.org/2000/svg">
<circle cx="50" cy="50" r="50" fill="url(#paint0_linear_323_2294)"/>
<g style="mix-blend-mode:multiply">
<path d="M10 50.5C10 71.763 17 85 17 85C17 85 2 71.763 2 50.5C2 29.237 15 18 15 18C15 18 10 29.237 10 50.5Z" fill="url(#paint1_linear_323_2294)"/>
</g>
<path d="M98 50C98 75.9574 78.0767 97 53.5 97C28.9234 97 58.5001 84.9574 58.5001 59C58.5001 33.0426 28.9234 3 53.5 3C78.0767 3 98 24.0426 98 50Z" fill="url(#paint2_linear_323_2294)" fill-opacity="0.4"/>
<path d="M67.9946 54.4175C67.9527 54.5134 67.9019 54.6266 67.8419 54.7543C67.6394 55.1856 67.3332 55.782 66.9194 56.4415C66.0904 57.7625 64.8358 59.3254 63.1257 60.3256C60.1072 62.091 56.5239 63.7318 53.6662 65.0043C53.2617 65.1844 52.8716 65.3573 52.4996 65.522C51.5593 65.9386 50.7351 66.3037 50.0887 66.6052C49.6378 66.8155 49.2696 66.9966 49.007 67.144C48.876 67.2175 48.7675 67.2847 48.6869 67.3448C48.6467 67.3749 48.6104 67.4054 48.581 67.4362C48.5534 67.465 48.5221 67.5041 48.5058 67.5523C48.4833 67.6188 48.479 67.6929 48.5094 67.7646C48.5389 67.8342 48.5928 67.8821 48.6488 67.9145C48.7556 67.9763 48.9082 68.0045 49.0768 68.0166C49.422 68.0413 49.9286 68.0035 50.5344 67.9244C51.7504 67.7658 53.4081 67.4355 55.0731 67.0693C56.7393 66.7028 58.4174 66.2992 59.6756 65.9932C59.8838 65.9426 60.0804 65.8947 60.2635 65.85C60.6341 65.7597 60.9496 65.6827 61.1942 65.6242C61.2999 65.5989 61.3919 65.5771 61.4691 65.5593C58.0581 72.8626 50.0429 77.9997 40.688 77.9997C28.2257 77.9997 18.15 68.8885 18.15 57.6808C18.15 46.4779 28.2732 37.8149 40.6998 36.8419C48.9882 36.193 60.4704 33.1975 73.4652 27.4939C75.0488 26.7989 77.4554 25.4088 79.46 24.1969C80.4637 23.5901 81.3689 23.0266 82.0231 22.6148C82.3502 22.4088 82.6146 22.2408 82.7973 22.1243C82.7975 22.1242 82.7977 22.1241 82.7978 22.124C82.7963 22.1323 82.7948 22.1408 82.7932 22.1495C82.7514 22.3791 82.6843 22.7132 82.5835 23.1288C82.3817 23.9601 82.0449 25.1167 81.505 26.4156C80.4248 29.0148 78.5355 32.1754 75.2977 34.4464C74.9129 34.7164 74.5333 34.9836 74.1579 35.2478C70.6318 37.7299 67.4797 39.9487 63.8937 41.6863C60.1802 43.4856 56.5688 44.879 53.8322 45.9349C53.7521 45.9658 53.6727 45.9964 53.5941 46.0267C52.2144 46.5592 51.0676 47.0046 50.2659 47.3702C49.8657 47.5527 49.5446 47.7184 49.3217 47.8681C49.2105 47.9428 49.1174 48.0176 49.0506 48.0933C48.9856 48.1668 48.93 48.2587 48.93 48.365C48.93 48.4526 48.9892 48.5036 49.0245 48.5256C49.0608 48.5482 49.103 48.5614 49.1402 48.5701C49.2171 48.5881 49.3215 48.5978 49.4452 48.602C49.6956 48.6103 50.0578 48.5964 50.5148 48.5599C51.4302 48.4867 52.7416 48.3216 54.3324 48.0528C57.5142 47.5152 61.8213 46.5618 66.3258 45.0965C68.2355 44.4753 70.7619 43.2271 72.8044 42.1386C73.8272 41.5936 74.7311 41.0872 75.3793 40.7171C75.6729 40.5495 75.9141 40.4098 76.0902 40.3071C76.0384 40.4663 75.9669 40.6737 75.8729 40.9205C75.6407 41.5304 75.2718 42.3805 74.726 43.3386C73.6339 45.2554 71.836 47.5999 69.0109 49.3214C62.9554 53.0116 57.7498 55.2702 54.059 56.647C52.2136 57.3354 50.7465 57.8035 49.7396 58.1202C49.6684 58.1427 49.5993 58.1643 49.5326 58.1853C49.1289 58.3121 48.8084 58.4128 48.5809 58.4919C48.4491 58.5377 48.3427 58.5782 48.2678 58.614C48.2311 58.6315 48.1948 58.6512 48.1655 58.6737C48.1508 58.685 48.1325 58.701 48.1168 58.7224C48.1013 58.7437 48.0815 58.7797 48.0815 58.8274C48.0815 58.888 48.1148 58.9273 48.1333 58.9445C48.1522 58.962 48.1719 58.9722 48.1836 58.9777C48.2081 58.989 48.2353 58.9964 48.2586 59.0018C48.3075 59.0129 48.374 59.0224 48.4537 59.0306C48.6146 59.0471 48.8477 59.0601 49.1426 59.0668C49.7334 59.0802 50.5812 59.0683 51.6148 59.0063C53.6821 58.8821 56.4979 58.5565 59.4938 57.8265C60.9896 57.4621 63.2067 56.5651 65.0415 55.7638C65.9607 55.3624 66.7871 54.9836 67.3837 54.7051C67.6295 54.5904 67.8363 54.4927 67.9946 54.4175Z" fill="white" stroke="url(#paint3_linear_323_2294)" stroke-width="0.3"/>
<defs>
<linearGradient id="paint0_linear_323_2294" x1="107.5" y1="-4.5" x2="43.5" y2="100" gradientUnits="userSpaceOnUse">
<stop stop-color="#FFA800"/>
<stop offset="1" stop-color="#FFD700"/>
</linearGradient>
<linearGradient id="paint1_linear_323_2294" x1="2" y1="29" x2="24.5" y2="98" gradientUnits="userSpaceOnUse">
<stop stop-color="#DBDCDC" stop-opacity="0.5"/>
<stop offset="1" stop-color="#DBDCDC" stop-opacity="0"/>
</linearGradient>
<linearGradient id="paint2_linear_323_2294" x1="87.5" y1="9" x2="13" y2="128.5" gradientUnits="userSpaceOnUse">
<stop stop-color="white"/>
<stop offset="1" stop-color="white" stop-opacity="0"/>
</linearGradient>
<linearGradient id="paint3_linear_323_2294" x1="87.8749" y1="19.2814" x2="54.3528" y2="82.4373" gradientUnits="userSpaceOnUse">
<stop stop-color="#FFA800"/>
<stop offset="1" stop-color="#FFD700"/>
</linearGradient>
</defs>
</svg>
