<svg width="100" height="100" viewBox="0 0 100 100" fill="none" xmlns="http://www.w3.org/2000/svg">
<circle cx="50" cy="50" r="50" fill="url(#paint0_linear_239_937)"/>
<g style="mix-blend-mode:multiply">
<path d="M10 50.5C10 71.763 17 85 17 85C17 85 2 71.763 2 50.5C2 29.237 15 18 15 18C15 18 10 29.237 10 50.5Z" fill="url(#paint1_linear_239_937)"/>
</g>
<path d="M98 50C98 75.9574 78.0767 97 53.5 97C28.9234 97 58.5001 84.9574 58.5001 59C58.5001 33.0426 28.9234 3 53.5 3C78.0767 3 98 24.0426 98 50Z" fill="url(#paint2_linear_239_937)" fill-opacity="0.4"/>
<mask id="path-4-inside-1_239_937" fill="white">
<path fill-rule="evenodd" clip-rule="evenodd" d="M28 14.5714C28 13.7036 28.7036 13 29.5714 13H42.4571V23.6857H38.0571C37.1893 23.6857 36.4857 24.3893 36.4857 25.2571V46.1571C36.4857 47.025 37.1893 47.7286 38.0571 47.7286H42.4571V66.1644V66.6263C39.5887 68.8543 37.7429 72.3366 37.7429 76.25C37.7429 82.976 43.1954 88.4286 49.9214 88.4286C56.6475 88.4286 62.1 82.976 62.1 76.25C62.1 72.444 60.3541 69.0457 57.6195 66.8125L57.6214 66.3527L57.7 47.7312L57.0714 47.7286H61.9429C62.8107 47.7286 63.5143 47.025 63.5143 46.1571V25.2571C63.5143 24.3893 62.8107 23.6857 61.9429 23.6857H57.7V13H70.4286C71.2964 13 72 13.7036 72 14.5714V68.6286C72 71.8785 69.5336 74.5523 66.3706 74.8804C66.456 75.5607 66.5 76.2538 66.5 76.9571C66.5 86.0698 59.1127 93.4571 50 93.4571C40.8873 93.4571 33.5 86.0698 33.5 76.9571C33.5 76.2538 33.544 75.5607 33.6294 74.8804C30.4664 74.5523 28 71.8785 28 68.6286V14.5714ZM56.4429 47.7286H43.7143V65.0969C43.8252 65.0383 43.9431 64.977 44.0664 64.9141C44.8034 64.5387 45.7734 64.0892 46.6116 63.8583C47.9277 63.4958 48.6912 63.4213 50.0103 63.4429C51.5214 63.4677 52.4239 63.6772 53.7987 64.0991C54.5689 64.3355 55.4581 64.7725 56.1324 65.1343C56.214 65.1781 56.293 65.221 56.3689 65.2628L56.4429 47.7286ZM43.7143 23.6857V13H56.4429V23.6857H43.7143ZM61.6286 62.9714C63.2775 62.9714 64.6143 61.6347 64.6143 59.9857C64.6143 58.3368 63.2775 57 61.6286 57C59.9796 57 58.6429 58.3368 58.6429 59.9857C58.6429 61.6347 59.9796 62.9714 61.6286 62.9714Z"/>
</mask>
<path fill-rule="evenodd" clip-rule="evenodd" d="M28 14.5714C28 13.7036 28.7036 13 29.5714 13H42.4571V23.6857H38.0571C37.1893 23.6857 36.4857 24.3893 36.4857 25.2571V46.1571C36.4857 47.025 37.1893 47.7286 38.0571 47.7286H42.4571V66.1644V66.6263C39.5887 68.8543 37.7429 72.3366 37.7429 76.25C37.7429 82.976 43.1954 88.4286 49.9214 88.4286C56.6475 88.4286 62.1 82.976 62.1 76.25C62.1 72.444 60.3541 69.0457 57.6195 66.8125L57.6214 66.3527L57.7 47.7312L57.0714 47.7286H61.9429C62.8107 47.7286 63.5143 47.025 63.5143 46.1571V25.2571C63.5143 24.3893 62.8107 23.6857 61.9429 23.6857H57.7V13H70.4286C71.2964 13 72 13.7036 72 14.5714V68.6286C72 71.8785 69.5336 74.5523 66.3706 74.8804C66.456 75.5607 66.5 76.2538 66.5 76.9571C66.5 86.0698 59.1127 93.4571 50 93.4571C40.8873 93.4571 33.5 86.0698 33.5 76.9571C33.5 76.2538 33.544 75.5607 33.6294 74.8804C30.4664 74.5523 28 71.8785 28 68.6286V14.5714ZM56.4429 47.7286H43.7143V65.0969C43.8252 65.0383 43.9431 64.977 44.0664 64.9141C44.8034 64.5387 45.7734 64.0892 46.6116 63.8583C47.9277 63.4958 48.6912 63.4213 50.0103 63.4429C51.5214 63.4677 52.4239 63.6772 53.7987 64.0991C54.5689 64.3355 55.4581 64.7725 56.1324 65.1343C56.214 65.1781 56.293 65.221 56.3689 65.2628L56.4429 47.7286ZM43.7143 23.6857V13H56.4429V23.6857H43.7143ZM61.6286 62.9714C63.2775 62.9714 64.6143 61.6347 64.6143 59.9857C64.6143 58.3368 63.2775 57 61.6286 57C59.9796 57 58.6429 58.3368 58.6429 59.9857C58.6429 61.6347 59.9796 62.9714 61.6286 62.9714Z" fill="white"/>
<path d="M42.4571 13H42.7571V12.7H42.4571V13ZM42.4571 23.6857V23.9857H42.7571V23.6857H42.4571ZM42.4571 47.7286H42.7571V47.4286H42.4571V47.7286ZM42.4571 66.6263L42.6412 66.8632L42.7571 66.7731V66.6263H42.4571ZM57.6195 66.8125L57.3195 66.8112L57.3189 66.9543L57.4297 67.0448L57.6195 66.8125ZM57.6214 66.3527L57.3214 66.3514L57.6214 66.3527ZM57.7 47.7312L58 47.7325L58.0013 47.4325L57.7013 47.4312L57.7 47.7312ZM57.0714 47.7286V47.4286L57.0702 48.0286L57.0714 47.7286ZM57.7 23.6857H57.4V23.9857H57.7V23.6857ZM57.7 13V12.7H57.4V13H57.7ZM66.3706 74.8804L66.3396 74.582L66.0347 74.6137L66.0729 74.9178L66.3706 74.8804ZM33.6294 74.8804L33.9271 74.9178L33.9653 74.6137L33.6604 74.582L33.6294 74.8804ZM56.4429 47.7286L56.7428 47.7298L56.7441 47.4286H56.4429V47.7286ZM43.7143 47.7286V47.4286H43.4143V47.7286H43.7143ZM43.7143 65.0969H43.4143V65.5947L43.8544 65.3621L43.7143 65.0969ZM44.0664 64.9141L43.9302 64.6468L44.0664 64.9141ZM46.6116 63.8583L46.6913 64.1475L46.6116 63.8583ZM50.0103 63.4429L50.0152 63.143L50.0103 63.4429ZM53.7987 64.0991L53.8867 63.8123L53.7987 64.0991ZM56.1324 65.1343L56.2743 64.8699L56.2743 64.8699L56.1324 65.1343ZM56.3689 65.2628L56.2242 65.5256L56.6667 65.7691L56.6689 65.2641L56.3689 65.2628ZM43.7143 13V12.7H43.4143V13H43.7143ZM43.7143 23.6857H43.4143V23.9857H43.7143V23.6857ZM56.4429 13H56.7429V12.7H56.4429V13ZM56.4429 23.6857V23.9857H56.7429V23.6857H56.4429ZM29.5714 12.7C28.5379 12.7 27.7 13.5379 27.7 14.5714H28.3C28.3 13.8692 28.8692 13.3 29.5714 13.3V12.7ZM42.4571 12.7H29.5714V13.3H42.4571V12.7ZM42.7571 23.6857V13H42.1571V23.6857H42.7571ZM38.0571 23.9857H42.4571V23.3857H38.0571V23.9857ZM36.7857 25.2571C36.7857 24.555 37.355 23.9857 38.0571 23.9857V23.3857C37.0236 23.3857 36.1857 24.2236 36.1857 25.2571H36.7857ZM36.7857 46.1571V25.2571H36.1857V46.1571H36.7857ZM38.0571 47.4286C37.355 47.4286 36.7857 46.8593 36.7857 46.1571H36.1857C36.1857 47.1907 37.0236 48.0286 38.0571 48.0286V47.4286ZM42.4571 47.4286H38.0571V48.0286H42.4571V47.4286ZM42.7571 66.1644V47.7286H42.1571V66.1644H42.7571ZM42.7571 66.6263V66.1644H42.1571V66.6263H42.7571ZM38.0429 76.25C38.0429 72.4332 39.8427 69.0369 42.6412 66.8632L42.2731 66.3894C39.3346 68.6718 37.4429 72.2401 37.4429 76.25H38.0429ZM49.9214 88.1286C43.3611 88.1286 38.0429 82.8104 38.0429 76.25H37.4429C37.4429 83.1417 43.0297 88.7286 49.9214 88.7286V88.1286ZM61.8 76.25C61.8 82.8104 56.4818 88.1286 49.9214 88.1286V88.7286C56.8132 88.7286 62.4 83.1417 62.4 76.25H61.8ZM57.4297 67.0448C60.0976 69.2236 61.8 72.5379 61.8 76.25H62.4C62.4 72.3501 60.6106 68.8679 57.8092 66.5801L57.4297 67.0448ZM57.3214 66.3514L57.3195 66.8112L57.9195 66.8138L57.9214 66.3539L57.3214 66.3514ZM57.4 47.73L57.3214 66.3514L57.9214 66.3539L58 47.7325L57.4 47.73ZM57.0702 48.0286L57.6987 48.0312L57.7013 47.4312L57.0727 47.4286L57.0702 48.0286ZM61.9429 47.4286H57.0714V48.0286H61.9429V47.4286ZM63.2143 46.1571C63.2143 46.8593 62.6451 47.4286 61.9429 47.4286V48.0286C62.9764 48.0286 63.8143 47.1907 63.8143 46.1571H63.2143ZM63.2143 25.2571V46.1571H63.8143V25.2571H63.2143ZM61.9429 23.9857C62.6451 23.9857 63.2143 24.555 63.2143 25.2571H63.8143C63.8143 24.2236 62.9764 23.3857 61.9429 23.3857V23.9857ZM57.7 23.9857H61.9429V23.3857H57.7V23.9857ZM57.4 13V23.6857H58V13H57.4ZM70.4286 12.7H57.7V13.3H70.4286V12.7ZM72.3 14.5714C72.3 13.5379 71.4621 12.7 70.4286 12.7V13.3C71.1308 13.3 71.7 13.8692 71.7 14.5714H72.3ZM72.3 68.6286V14.5714H71.7V68.6286H72.3ZM66.4015 75.1788C69.7159 74.835 72.3 72.0337 72.3 68.6286H71.7C71.7 71.7232 69.3514 74.2696 66.3396 74.582L66.4015 75.1788ZM66.8 76.9571C66.8 76.2412 66.7552 75.5356 66.6682 74.8431L66.0729 74.9178C66.1568 75.5857 66.2 76.2663 66.2 76.9571H66.8ZM50 93.7571C59.2784 93.7571 66.8 86.2355 66.8 76.9571H66.2C66.2 85.9042 58.947 93.1571 50 93.1571V93.7571ZM33.2 76.9571C33.2 86.2355 40.7216 93.7571 50 93.7571V93.1571C41.053 93.1571 33.8 85.9042 33.8 76.9571H33.2ZM33.3318 74.8431C33.2448 75.5356 33.2 76.2412 33.2 76.9571H33.8C33.8 76.2663 33.8432 75.5857 33.9271 74.9178L33.3318 74.8431ZM27.7 68.6286C27.7 72.0337 30.2841 74.835 33.5985 75.1788L33.6604 74.582C30.6486 74.2696 28.3 71.7232 28.3 68.6286H27.7ZM27.7 14.5714V68.6286H28.3V14.5714H27.7ZM56.4429 47.4286H43.7143V48.0286H56.4429V47.4286ZM43.4143 47.7286V65.0969H44.0143V47.7286H43.4143ZM43.8544 65.3621C43.9641 65.3041 44.0807 65.2435 44.2025 65.1815L43.9302 64.6468C43.8054 64.7104 43.6862 64.7724 43.5741 64.8316L43.8544 65.3621ZM44.2025 65.1815C44.936 64.8078 45.8837 64.37 46.6913 64.1475L46.532 63.5691C45.6631 63.8084 44.6707 64.2696 43.9302 64.6468L44.2025 65.1815ZM46.6913 64.1475C47.9765 63.7935 48.711 63.7217 50.0054 63.7429L50.0152 63.143C48.6713 63.121 47.879 63.198 46.532 63.5691L46.6913 64.1475ZM50.0054 63.7429C51.4789 63.767 52.3522 63.969 53.7107 64.3859L53.8867 63.8123C52.4957 63.3854 51.5638 63.1683 50.0152 63.143L50.0054 63.7429ZM53.7107 64.3859C54.4517 64.6133 55.3196 65.0386 55.9906 65.3986L56.2743 64.8699C55.5966 64.5063 54.6862 64.0576 53.8867 63.8123L53.7107 64.3859ZM55.9906 65.3986C56.0712 65.4419 56.1492 65.4844 56.2242 65.5256L56.5135 65C56.4368 64.9577 56.3568 64.9142 56.2743 64.8699L55.9906 65.3986ZM56.6689 65.2641L56.7428 47.7298L56.1429 47.7273L56.0689 65.2615L56.6689 65.2641ZM43.4143 13V23.6857H44.0143V13H43.4143ZM56.4429 12.7H43.7143V13.3H56.4429V12.7ZM56.7429 23.6857V13H56.1429V23.6857H56.7429ZM43.7143 23.9857H56.4429V23.3857H43.7143V23.9857ZM64.3143 59.9857C64.3143 61.469 63.1119 62.6714 61.6286 62.6714V63.2714C63.4432 63.2714 64.9143 61.8004 64.9143 59.9857H64.3143ZM61.6286 57.3C63.1119 57.3 64.3143 58.5024 64.3143 59.9857H64.9143C64.9143 58.1711 63.4432 56.7 61.6286 56.7V57.3ZM58.9429 59.9857C58.9429 58.5024 60.1453 57.3 61.6286 57.3V56.7C59.8139 56.7 58.3429 58.1711 58.3429 59.9857H58.9429ZM61.6286 62.6714C60.1453 62.6714 58.9429 61.469 58.9429 59.9857H58.3429C58.3429 61.8004 59.8139 63.2714 61.6286 63.2714V62.6714Z" fill="#FFA800" mask="url(#path-4-inside-1_239_937)"/>
<defs>
<linearGradient id="paint0_linear_239_937" x1="107.5" y1="-4.5" x2="43.5" y2="100" gradientUnits="userSpaceOnUse">
<stop stop-color="#FFA800"/>
<stop offset="1" stop-color="#FFD700"/>
</linearGradient>
<linearGradient id="paint1_linear_239_937" x1="2" y1="29" x2="24.5" y2="98" gradientUnits="userSpaceOnUse">
<stop stop-color="#DBDCDC" stop-opacity="0.5"/>
<stop offset="1" stop-color="#DBDCDC" stop-opacity="0"/>
</linearGradient>
<linearGradient id="paint2_linear_239_937" x1="87.5" y1="9" x2="13" y2="128.5" gradientUnits="userSpaceOnUse">
<stop stop-color="white"/>
<stop offset="1" stop-color="white" stop-opacity="0"/>
</linearGradient>
</defs>
</svg>
