<svg width="100" height="100" viewBox="0 0 100 100" fill="none" xmlns="http://www.w3.org/2000/svg">
<circle cx="50" cy="50" r="50" fill="url(#paint0_linear_239_874)"/>
<g style="mix-blend-mode:multiply">
<path d="M10 50.5C10 71.763 17 85 17 85C17 85 2 71.763 2 50.5C2 29.237 15 18 15 18C15 18 10 29.237 10 50.5Z" fill="url(#paint1_linear_239_874)"/>
</g>
<path d="M98 50C98 75.9574 78.0767 97 53.5 97C28.9234 97 58.5001 84.9574 58.5001 59C58.5001 33.0426 28.9234 3 53.5 3C78.0767 3 98 24.0426 98 50Z" fill="url(#paint2_linear_239_874)" fill-opacity="0.4"/>
<path fill-rule="evenodd" clip-rule="evenodd" d="M39.0042 70.9674L38.8771 70.8558L38.8768 70.8555C26.3053 59.819 18 52.5278 18 40.599C18 30.7306 25.7304 23.0002 35.599 23C40.0345 23 44.4169 24.6699 47.7918 27.5652C51.1661 24.6703 55.5483 23 59.9838 23C69.8521 23 77.5823 30.7302 77.5823 40.5988C77.5823 42.0762 77.4113 43.5583 77.0786 45.0249C80.7233 48.4825 83 53.3691 83 58.7778C83 69.2335 74.4936 77.7399 64.0379 77.7399C59.9022 77.7399 56.0724 76.4082 52.9525 74.1525L49.563 77.0809C49.0543 77.5201 48.4231 77.7399 47.7919 77.7399C47.1608 77.7399 46.5296 77.5205 46.0211 77.0811L42.2254 73.8025C42.2175 73.7956 42.2095 73.7887 42.2017 73.7817C41.1056 72.8123 40.039 71.8759 39.0042 70.9674ZM77.4735 57.0586C76.6261 50.3992 70.9238 45.2337 64.0378 45.2337C57.1516 45.2337 51.4494 50.3992 50.602 57.0586H57.1905C58.056 53.9845 60.8806 51.7312 64.2314 51.7312C67.5823 51.7312 70.4068 53.9845 71.2723 57.0586H77.4735ZM77.5463 59.7675H71.5101C71.1474 63.4678 68.027 66.3591 64.2314 66.3591C60.4358 66.3591 57.3155 63.4678 56.9527 59.7675H50.5292C51.0376 66.7755 56.9021 72.3223 64.0378 72.3223C71.1734 72.3223 77.0379 66.7755 77.5463 59.7675ZM59.6263 59.0451C59.6263 56.5018 61.6881 54.44 64.2314 54.44C66.7747 54.44 68.8365 56.5018 68.8365 59.0451C68.8365 61.5884 66.7747 63.6502 64.2314 63.6502C61.6881 63.6502 59.6263 61.5884 59.6263 59.0451Z" fill="white"/>
<defs>
<linearGradient id="paint0_linear_239_874" x1="107.5" y1="-4.5" x2="43.5" y2="100" gradientUnits="userSpaceOnUse">
<stop stop-color="#FFA800"/>
<stop offset="1" stop-color="#FFD700"/>
</linearGradient>
<linearGradient id="paint1_linear_239_874" x1="2" y1="29" x2="24.5" y2="98" gradientUnits="userSpaceOnUse">
<stop stop-color="#DBDCDC" stop-opacity="0.5"/>
<stop offset="1" stop-color="#DBDCDC" stop-opacity="0"/>
</linearGradient>
<linearGradient id="paint2_linear_239_874" x1="87.5" y1="9" x2="13" y2="128.5" gradientUnits="userSpaceOnUse">
<stop stop-color="white"/>
<stop offset="1" stop-color="white" stop-opacity="0"/>
</linearGradient>
</defs>
</svg>
