<svg width="100" height="100" viewBox="0 0 100 100" fill="none" xmlns="http://www.w3.org/2000/svg">
<circle cx="50" cy="50" r="50" fill="url(#paint0_linear_323_2328)"/>
<g style="mix-blend-mode:multiply">
<path d="M10 50.5C10 71.763 17 85 17 85C17 85 2 71.763 2 50.5C2 29.237 15 18 15 18C15 18 10 29.237 10 50.5Z" fill="url(#paint1_linear_323_2328)"/>
</g>
<path d="M98 50C98 75.9574 78.0767 97 53.5 97C28.9234 97 58.5001 84.9574 58.5001 59C58.5001 33.0426 28.9234 3 53.5 3C78.0767 3 98 24.0426 98 50Z" fill="url(#paint2_linear_323_2328)" fill-opacity="0.4"/>
<path d="M51.6312 30.8793L66.6415 22.7074L66.8375 39.9266L51.8164 47.1374L51.6312 30.8793Z" fill="white" stroke="url(#paint3_linear_323_2328)" stroke-width="0.3"/>
<path d="M66.9724 42.3221L81.8338 50.1384L66.9804 58.6344L52.1179 50.1249L66.9724 42.3221Z" fill="white" stroke="url(#paint4_linear_323_2328)" stroke-width="0.3"/>
<path d="M33.9354 42.3221L48.7967 50.1384L33.9433 58.6344L19.0808 50.1249L33.9354 42.3221Z" fill="white" stroke="url(#paint5_linear_323_2328)" stroke-width="0.3"/>
<path d="M34.3965 39.7138L33.9297 22.6296L49.3611 30.2722L48.9665 46.9297L34.3965 39.7138Z" fill="white" stroke="url(#paint6_linear_323_2328)" stroke-width="0.3"/>
<path d="M66.5934 60.2863L67.0602 77.3704L51.6288 69.7278L52.0234 53.0702L66.5934 60.2863Z" fill="white" stroke="url(#paint7_linear_323_2328)" stroke-width="0.3"/>
<path d="M49.4739 69.3506L34.4637 77.5226L34.2675 60.3034L49.2887 53.0926L49.4739 69.3506Z" fill="white" stroke="url(#paint8_linear_323_2328)" stroke-width="0.3"/>
<defs>
<linearGradient id="paint0_linear_323_2328" x1="107.5" y1="-4.5" x2="43.5" y2="100" gradientUnits="userSpaceOnUse">
<stop stop-color="#FFA800"/>
<stop offset="1" stop-color="#FFD700"/>
</linearGradient>
<linearGradient id="paint1_linear_323_2328" x1="2" y1="29" x2="24.5" y2="98" gradientUnits="userSpaceOnUse">
<stop stop-color="#DBDCDC" stop-opacity="0.5"/>
<stop offset="1" stop-color="#DBDCDC" stop-opacity="0"/>
</linearGradient>
<linearGradient id="paint2_linear_323_2328" x1="87.5" y1="9" x2="13" y2="128.5" gradientUnits="userSpaceOnUse">
<stop stop-color="white"/>
<stop offset="1" stop-color="white" stop-opacity="0"/>
</linearGradient>
<linearGradient id="paint3_linear_323_2328" x1="68.1517" y1="21.3352" x2="50.2509" y2="39.5263" gradientUnits="userSpaceOnUse">
<stop stop-color="#FFA800"/>
<stop offset="1" stop-color="#FFD700"/>
</linearGradient>
<linearGradient id="paint4_linear_323_2328" x1="84.421" y1="41.4032" x2="77.1922" y2="62.9049" gradientUnits="userSpaceOnUse">
<stop stop-color="#FFA800"/>
<stop offset="1" stop-color="#FFD700"/>
</linearGradient>
<linearGradient id="paint5_linear_323_2328" x1="51.3839" y1="41.4032" x2="44.1552" y2="62.9049" gradientUnits="userSpaceOnUse">
<stop stop-color="#FFA800"/>
<stop offset="1" stop-color="#FFD700"/>
</linearGradient>
<linearGradient id="paint6_linear_323_2328" x1="50.6939" y1="21.2693" x2="32.8988" y2="39.7229" gradientUnits="userSpaceOnUse">
<stop stop-color="#FFA800"/>
<stop offset="1" stop-color="#FFD700"/>
</linearGradient>
<linearGradient id="paint7_linear_323_2328" x1="68.3975" y1="51.716" x2="50.6023" y2="70.1696" gradientUnits="userSpaceOnUse">
<stop stop-color="#FFA800"/>
<stop offset="1" stop-color="#FFD700"/>
</linearGradient>
<linearGradient id="paint8_linear_323_2328" x1="50.7881" y1="51.7342" x2="32.8873" y2="69.9255" gradientUnits="userSpaceOnUse">
<stop stop-color="#FFA800"/>
<stop offset="1" stop-color="#FFD700"/>
</linearGradient>
</defs>
</svg>
