<svg width="100" height="100" viewBox="0 0 100 100" fill="none" xmlns="http://www.w3.org/2000/svg">
<circle cx="50" cy="50" r="50" fill="url(#paint0_linear_239_920)"/>
<g style="mix-blend-mode:multiply">
<path d="M10 50.5C10 71.763 17 85 17 85C17 85 2 71.763 2 50.5C2 29.237 15 18 15 18C15 18 10 29.237 10 50.5Z" fill="url(#paint1_linear_239_920)"/>
</g>
<path d="M98 50C98 75.9574 78.0767 97 53.5 97C28.9234 97 58.5001 84.9574 58.5001 59C58.5001 33.0426 28.9234 3 53.5 3C78.0767 3 98 24.0426 98 50Z" fill="url(#paint2_linear_239_920)" fill-opacity="0.4"/>
<mask id="path-4-inside-1_239_920" fill="white">
<path fill-rule="evenodd" clip-rule="evenodd" d="M30 13.4786C30 12.662 30.662 12 31.4786 12H38.2802C41.5466 12 44.1946 14.648 44.1946 17.9144V18.8015H67.7043C68.5209 18.8015 69.1829 19.4635 69.1829 20.2801V68.3346H69.035H30.1479H30V41.2763H30.1479H35.4707H35.5271C36.2021 49.2277 42.87 55.4708 50.9961 55.4708C59.1222 55.4708 65.7902 49.2277 66.4652 41.2763H66.5215H69.035H69.1829V41.1284V36.8405V36.6926H69.035H66.2278H66.1801C64.685 29.6799 58.4548 24.4202 50.9961 24.4202C43.5374 24.4202 37.3072 29.6799 35.8122 36.6926H35.7645H30.1479H30V19.0973V18.8015V13.4786ZM30 70.7004V82.0856C30 85.352 32.648 88 35.9144 88H63.2685C66.5349 88 69.1829 85.352 69.1829 82.0856V70.7004H69.035H30.1479H30ZM50.9961 49.8521C56.4674 49.8521 60.9027 45.4168 60.9027 39.9455C60.9027 34.4743 56.4674 30.0389 50.9961 30.0389C45.5249 30.0389 41.0895 34.4743 41.0895 39.9455C41.0895 45.4168 45.5249 49.8521 50.9961 49.8521ZM65.0428 63.0117C65.0428 64.5632 63.785 65.821 62.2335 65.821C60.6819 65.821 59.4241 64.5632 59.4241 63.0117C59.4241 61.4601 60.6819 60.2024 62.2335 60.2024C63.785 60.2024 65.0428 61.4601 65.0428 63.0117ZM62.1596 82.8249C64.4052 82.8249 66.2257 81.0044 66.2257 78.7588C66.2257 76.5131 64.4052 74.6926 62.1596 74.6926C59.9139 74.6926 58.0934 76.5131 58.0934 78.7588C58.0934 81.0044 59.9139 82.8249 62.1596 82.8249ZM50.9961 55.323C59.4888 55.323 66.3736 48.4382 66.3736 39.9455C66.3736 31.4528 59.4888 24.5681 50.9961 24.5681C42.5034 24.5681 35.6187 31.4528 35.6187 39.9455C35.6187 48.4382 42.5034 55.323 50.9961 55.323ZM30.1479 36.8405H35.7407L35.73 36.9087C35.7065 37.0584 35.6746 37.2678 35.641 37.5063C35.574 37.9823 35.4993 38.5786 35.4711 39.0495C35.4448 39.4876 35.4449 40.0466 35.4514 40.4937C35.4546 40.7177 35.4595 40.9146 35.4636 41.0556L35.4658 41.1284H30.1479V36.8405ZM66.5268 41.1284H69.035V36.8405H66.2522L66.2619 36.9006C66.2852 37.0457 66.3169 37.2485 66.3504 37.4796C66.4172 37.9407 66.4919 38.5185 66.5211 38.975C66.55 39.4277 66.5499 40.0056 66.5428 40.4676C66.5392 40.6992 66.5338 40.9027 66.5294 41.0483L66.5268 41.1284ZM30.1479 68.4825H69.035V70.5525H30.1479V68.4825Z"/>
</mask>
<path fill-rule="evenodd" clip-rule="evenodd" d="M30 13.4786C30 12.662 30.662 12 31.4786 12H38.2802C41.5466 12 44.1946 14.648 44.1946 17.9144V18.8015H67.7043C68.5209 18.8015 69.1829 19.4635 69.1829 20.2801V68.3346H69.035H30.1479H30V41.2763H30.1479H35.4707H35.5271C36.2021 49.2277 42.87 55.4708 50.9961 55.4708C59.1222 55.4708 65.7902 49.2277 66.4652 41.2763H66.5215H69.035H69.1829V41.1284V36.8405V36.6926H69.035H66.2278H66.1801C64.685 29.6799 58.4548 24.4202 50.9961 24.4202C43.5374 24.4202 37.3072 29.6799 35.8122 36.6926H35.7645H30.1479H30V19.0973V18.8015V13.4786ZM30 70.7004V82.0856C30 85.352 32.648 88 35.9144 88H63.2685C66.5349 88 69.1829 85.352 69.1829 82.0856V70.7004H69.035H30.1479H30ZM50.9961 49.8521C56.4674 49.8521 60.9027 45.4168 60.9027 39.9455C60.9027 34.4743 56.4674 30.0389 50.9961 30.0389C45.5249 30.0389 41.0895 34.4743 41.0895 39.9455C41.0895 45.4168 45.5249 49.8521 50.9961 49.8521ZM65.0428 63.0117C65.0428 64.5632 63.785 65.821 62.2335 65.821C60.6819 65.821 59.4241 64.5632 59.4241 63.0117C59.4241 61.4601 60.6819 60.2024 62.2335 60.2024C63.785 60.2024 65.0428 61.4601 65.0428 63.0117ZM62.1596 82.8249C64.4052 82.8249 66.2257 81.0044 66.2257 78.7588C66.2257 76.5131 64.4052 74.6926 62.1596 74.6926C59.9139 74.6926 58.0934 76.5131 58.0934 78.7588C58.0934 81.0044 59.9139 82.8249 62.1596 82.8249ZM50.9961 55.323C59.4888 55.323 66.3736 48.4382 66.3736 39.9455C66.3736 31.4528 59.4888 24.5681 50.9961 24.5681C42.5034 24.5681 35.6187 31.4528 35.6187 39.9455C35.6187 48.4382 42.5034 55.323 50.9961 55.323ZM30.1479 36.8405H35.7407L35.73 36.9087C35.7065 37.0584 35.6746 37.2678 35.641 37.5063C35.574 37.9823 35.4993 38.5786 35.4711 39.0495C35.4448 39.4876 35.4449 40.0466 35.4514 40.4937C35.4546 40.7177 35.4595 40.9146 35.4636 41.0556L35.4658 41.1284H30.1479V36.8405ZM66.5268 41.1284H69.035V36.8405H66.2522L66.2619 36.9006C66.2852 37.0457 66.3169 37.2485 66.3504 37.4796C66.4172 37.9407 66.4919 38.5185 66.5211 38.975C66.55 39.4277 66.5499 40.0056 66.5428 40.4676C66.5392 40.6992 66.5338 40.9027 66.5294 41.0483L66.5268 41.1284ZM30.1479 68.4825H69.035V70.5525H30.1479V68.4825Z" fill="white"/>
<path d="M44.1946 18.8015H44.0467V18.9494H44.1946V18.8015ZM69.1829 68.3346V68.4825H69.3307V68.3346H69.1829ZM30 68.3346H29.8521V68.4825H30V68.3346ZM30 41.2763V41.1284H29.8521V41.2763H30ZM35.5271 41.2763L35.6744 41.2638L35.6629 41.1284H35.5271V41.2763ZM66.4652 41.2763V41.1284H66.3293L66.3179 41.2638L66.4652 41.2763ZM69.1829 41.2763V41.4241H69.3307V41.2763H69.1829ZM69.1829 36.6926H69.3307V36.5448H69.1829V36.6926ZM66.1801 36.6926L66.0355 36.7234L66.0604 36.8405H66.1801V36.6926ZM35.8122 36.6926V36.8405H35.9318L35.9568 36.7234L35.8122 36.6926ZM30 36.6926H29.8521V36.8405H30V36.6926ZM30 70.7004V70.5525H29.8521V70.7004H30ZM69.1829 70.7004H69.3307V70.5525H69.1829V70.7004ZM35.7407 36.8405L35.8868 36.8635L35.9137 36.6926H35.7407V36.8405ZM30.1479 36.8405V36.6926H30V36.8405H30.1479ZM35.73 36.9087L35.5839 36.8857L35.5839 36.8858L35.73 36.9087ZM35.641 37.5063L35.7874 37.527L35.641 37.5063ZM35.4711 39.0495L35.3235 39.0407L35.4711 39.0495ZM35.4514 40.4937L35.5992 40.4915L35.4514 40.4937ZM35.4636 41.0556L35.3158 41.0598L35.3158 41.06L35.4636 41.0556ZM35.4658 41.1284V41.2763H35.6181L35.6136 41.124L35.4658 41.1284ZM30.1479 41.1284H30V41.2763H30.1479V41.1284ZM69.035 41.1284V41.2763H69.1829V41.1284H69.035ZM66.5268 41.1284L66.379 41.1237L66.3741 41.2763H66.5268V41.1284ZM69.035 36.8405H69.1829V36.6926H69.035V36.8405ZM66.2522 36.8405V36.6926H66.0785L66.1062 36.8641L66.2522 36.8405ZM66.2619 36.9006L66.4079 36.8772L66.4079 36.877L66.2619 36.9006ZM66.3504 37.4796L66.2041 37.5008V37.5008L66.3504 37.4796ZM66.5211 38.975L66.3735 38.9844L66.3735 38.9844L66.5211 38.975ZM66.5428 40.4676L66.6906 40.4699L66.5428 40.4676ZM66.5294 41.0483L66.6771 41.053L66.6771 41.0529L66.5294 41.0483ZM69.035 68.4825H69.1829V68.3346H69.035V68.4825ZM30.1479 68.4825V68.3346H30V68.4825H30.1479ZM69.035 70.5525V70.7004H69.1829V70.5525H69.035ZM30.1479 70.5525H30V70.7004H30.1479V70.5525ZM31.4786 11.8521C30.5803 11.8521 29.8521 12.5803 29.8521 13.4786H30.1479C30.1479 12.7437 30.7437 12.1479 31.4786 12.1479V11.8521ZM38.2802 11.8521H31.4786V12.1479H38.2802V11.8521ZM44.3424 17.9144C44.3424 14.5663 41.6282 11.8521 38.2802 11.8521V12.1479C41.4649 12.1479 44.0467 14.7296 44.0467 17.9144H44.3424ZM44.3424 18.8015V17.9144H44.0467V18.8015H44.3424ZM67.7043 18.6537H44.1946V18.9494H67.7043V18.6537ZM69.3307 20.2801C69.3307 19.3819 68.6026 18.6537 67.7043 18.6537V18.9494C68.4392 18.9494 69.035 19.5452 69.035 20.2801H69.3307ZM69.3307 68.3346V20.2801H69.035V68.3346H69.3307ZM69.1829 68.1867H69.035V68.4825H69.1829V68.1867ZM69.035 68.1867H30.1479V68.4825H69.035V68.1867ZM30.1479 68.1867H30V68.4825H30.1479V68.1867ZM29.8521 41.2763V68.3346H30.1479V41.2763H29.8521ZM30.1479 41.1284H30V41.4241H30.1479V41.1284ZM35.4707 41.1284H30.1479V41.4241H35.4707V41.1284ZM35.5271 41.1284H35.4707V41.4241H35.5271V41.1284ZM50.9961 55.323C42.9475 55.323 36.343 49.1393 35.6744 41.2638L35.3797 41.2888C36.0612 49.3161 42.7926 55.6187 50.9961 55.6187V55.323ZM66.3179 41.2638C65.6493 49.1393 59.0448 55.323 50.9961 55.323V55.6187C59.1997 55.6187 65.9311 49.3161 66.6125 41.2888L66.3179 41.2638ZM66.5215 41.1284H66.4652V41.4241H66.5215V41.1284ZM69.035 41.1284H66.5215V41.4241H69.035V41.1284ZM69.1829 41.1284H69.035V41.4241H69.1829V41.1284ZM69.035 41.1284V41.2763H69.3307V41.1284H69.035ZM69.035 36.8405V41.1284H69.3307V36.8405H69.035ZM69.035 36.6926V36.8405H69.3307V36.6926H69.035ZM69.035 36.8405H69.1829V36.5448H69.035V36.8405ZM66.2278 36.8405H69.035V36.5448H66.2278V36.8405ZM66.1801 36.8405H66.2278V36.5448H66.1801V36.8405ZM50.9961 24.5681C58.3836 24.5681 64.5547 29.7776 66.0355 36.7234L66.3247 36.6618C64.8154 29.5823 58.526 24.2724 50.9961 24.2724V24.5681ZM35.9568 36.7234C37.4376 29.7776 43.6087 24.5681 50.9961 24.5681V24.2724C43.4662 24.2724 37.1769 29.5822 35.6676 36.6618L35.9568 36.7234ZM35.7645 36.8405H35.8122V36.5447H35.7645V36.8405ZM30.1479 36.8405H35.7645V36.5447H30.1479V36.8405ZM30 36.8405H30.1479V36.5447H30V36.8405ZM29.8521 19.0973V36.6926H30.1479V19.0973H29.8521ZM29.8521 18.8015V19.0973H30.1479V18.8015H29.8521ZM29.8521 13.4786V18.8015H30.1479V13.4786H29.8521ZM29.8521 70.7004V82.0856H30.1479V70.7004H29.8521ZM29.8521 82.0856C29.8521 85.4337 32.5663 88.1478 35.9144 88.1478V87.8521C32.7296 87.8521 30.1479 85.2704 30.1479 82.0856H29.8521ZM35.9144 88.1478H63.2685V87.8521H35.9144V88.1478ZM63.2685 88.1478C66.6166 88.1478 69.3307 85.4337 69.3307 82.0856H69.035C69.035 85.2704 66.4533 87.8521 63.2685 87.8521V88.1478ZM69.3307 82.0856V70.7004H69.035V82.0856H69.3307ZM69.035 70.8482H69.1829V70.5525H69.035V70.8482ZM30.1479 70.8482H69.035V70.5525H30.1479V70.8482ZM30 70.8482H30.1479V70.5525H30V70.8482ZM60.7549 39.9455C60.7549 45.3351 56.3857 49.7043 50.9961 49.7043V50C56.5491 50 61.0506 45.4985 61.0506 39.9455H60.7549ZM50.9961 30.1868C56.3857 30.1868 60.7549 34.5559 60.7549 39.9455H61.0506C61.0506 34.3926 56.5491 29.8911 50.9961 29.8911V30.1868ZM41.2374 39.9455C41.2374 34.5559 45.6065 30.1868 50.9961 30.1868V29.8911C45.4432 29.8911 40.9417 34.3926 40.9417 39.9455H41.2374ZM50.9961 49.7043C45.6065 49.7043 41.2374 45.3351 41.2374 39.9455H40.9417C40.9417 45.4985 45.4432 50 50.9961 50V49.7043ZM62.2335 65.9689C63.8667 65.9689 65.1907 64.6449 65.1907 63.0117H64.8949C64.8949 64.4816 63.7034 65.6732 62.2335 65.6732V65.9689ZM59.2763 63.0117C59.2763 64.6449 60.6002 65.9689 62.2335 65.9689V65.6732C60.7636 65.6732 59.572 64.4816 59.572 63.0117H59.2763ZM62.2335 60.0545C60.6002 60.0545 59.2763 61.3785 59.2763 63.0117H59.572C59.572 61.5418 60.7636 60.3502 62.2335 60.3502V60.0545ZM65.1907 63.0117C65.1907 61.3785 63.8667 60.0545 62.2335 60.0545V60.3502C63.7034 60.3502 64.8949 61.5418 64.8949 63.0117H65.1907ZM66.0779 78.7588C66.0779 80.9228 64.3236 82.677 62.1596 82.677V82.9728C64.4869 82.9728 66.3736 81.0861 66.3736 78.7588H66.0779ZM62.1596 74.8405C64.3236 74.8405 66.0779 76.5947 66.0779 78.7588H66.3736C66.3736 76.4314 64.4869 74.5447 62.1596 74.5447V74.8405ZM58.2413 78.7588C58.2413 76.5947 59.9956 74.8405 62.1596 74.8405V74.5447C59.8322 74.5447 57.9456 76.4314 57.9456 78.7588H58.2413ZM62.1596 82.677C59.9956 82.677 58.2413 80.9228 58.2413 78.7588H57.9456C57.9456 81.0861 59.8322 82.9728 62.1596 82.9728V82.677ZM66.2257 39.9455C66.2257 48.3566 59.4072 55.1751 50.9961 55.1751V55.4708C59.5705 55.4708 66.5214 48.5199 66.5214 39.9455H66.2257ZM50.9961 24.7159C59.4072 24.7159 66.2257 31.5345 66.2257 39.9455H66.5214C66.5214 31.3711 59.5705 24.4202 50.9961 24.4202V24.7159ZM35.7666 39.9455C35.7666 31.5345 42.5851 24.7159 50.9961 24.7159V24.4202C42.4217 24.4202 35.4708 31.3711 35.4708 39.9455H35.7666ZM50.9961 55.1751C42.5851 55.1751 35.7666 48.3566 35.7666 39.9455H35.4708C35.4708 48.5199 42.4217 55.4708 50.9961 55.4708V55.1751ZM35.7407 36.6926H30.1479V36.9883H35.7407V36.6926ZM35.876 36.9317L35.8868 36.8635L35.5946 36.8174L35.5839 36.8857L35.876 36.9317ZM35.7874 37.527C35.8209 37.2893 35.8527 37.0807 35.876 36.9316L35.5839 36.8858C35.5603 37.0361 35.5284 37.2462 35.4946 37.4857L35.7874 37.527ZM35.6187 39.0584C35.6466 38.5937 35.7205 38.0022 35.7874 37.527L35.4946 37.4857C35.4275 37.9624 35.3521 38.5636 35.3235 39.0407L35.6187 39.0584ZM35.5992 40.4915C35.5927 40.0451 35.5927 39.4907 35.6187 39.0584L35.3235 39.0407C35.2969 39.4845 35.297 40.0481 35.3035 40.4958L35.5992 40.4915ZM35.6114 41.0513C35.6073 40.9109 35.6025 40.7147 35.5992 40.4915L35.3035 40.4958C35.3068 40.7207 35.3117 40.9184 35.3158 41.0598L35.6114 41.0513ZM35.6136 41.124L35.6114 41.0512L35.3158 41.06L35.318 41.1328L35.6136 41.124ZM30.1479 41.2763H35.4658V40.9805H30.1479V41.2763ZM30 36.8405V41.1284H30.2957V36.8405H30ZM69.035 40.9806H66.5268V41.2763H69.035V40.9806ZM68.8871 36.8405V41.1284H69.1829V36.8405H68.8871ZM66.2522 36.9883H69.035V36.6926H66.2522V36.9883ZM66.4079 36.877L66.3981 36.8169L66.1062 36.8641L66.1159 36.9242L66.4079 36.877ZM66.4967 37.4584C66.4631 37.2264 66.4313 37.0228 66.4079 36.8772L66.1159 36.9241C66.1391 37.0686 66.1707 37.2706 66.2041 37.5008L66.4967 37.4584ZM66.6686 38.9656C66.639 38.5029 66.5637 37.9202 66.4967 37.4584L66.2041 37.5008C66.2708 37.9612 66.3447 38.5342 66.3735 38.9844L66.6686 38.9656ZM66.6906 40.4699C66.6978 40.0071 66.698 39.4245 66.6686 38.9656L66.3735 38.9844C66.4021 39.431 66.4021 40.004 66.395 40.4653L66.6906 40.4699ZM66.6771 41.0529C66.6816 40.9067 66.687 40.7024 66.6906 40.4699L66.395 40.4653C66.3914 40.696 66.386 40.8987 66.3816 41.0438L66.6771 41.0529ZM66.6746 41.1331L66.6771 41.053L66.3816 41.0436L66.379 41.1237L66.6746 41.1331ZM69.035 68.3346H30.1479V68.6303H69.035V68.3346ZM69.1829 70.5525V68.4825H68.8872V70.5525H69.1829ZM30.1479 70.7004H69.035V70.4046H30.1479V70.7004ZM30 68.4825V70.5525H30.2957V68.4825H30Z" fill="#FFA800" mask="url(#path-4-inside-1_239_920)"/>
<defs>
<linearGradient id="paint0_linear_239_920" x1="107.5" y1="-4.5" x2="43.5" y2="100" gradientUnits="userSpaceOnUse">
<stop stop-color="#FFA800"/>
<stop offset="1" stop-color="#FFD700"/>
</linearGradient>
<linearGradient id="paint1_linear_239_920" x1="2" y1="29" x2="24.5" y2="98" gradientUnits="userSpaceOnUse">
<stop stop-color="#DBDCDC" stop-opacity="0.5"/>
<stop offset="1" stop-color="#DBDCDC" stop-opacity="0"/>
</linearGradient>
<linearGradient id="paint2_linear_239_920" x1="87.5" y1="9" x2="13" y2="128.5" gradientUnits="userSpaceOnUse">
<stop stop-color="white"/>
<stop offset="1" stop-color="white" stop-opacity="0"/>
</linearGradient>
</defs>
</svg>
