<svg width="100" height="100" viewBox="0 0 100 100" fill="none" xmlns="http://www.w3.org/2000/svg">
<circle cx="50" cy="50" r="50" fill="url(#paint0_linear_239_979)"/>
<g style="mix-blend-mode:multiply">
<path d="M10 50.5C10 71.763 17 85 17 85C17 85 2 71.763 2 50.5C2 29.237 15 18 15 18C15 18 10 29.237 10 50.5Z" fill="url(#paint1_linear_239_979)"/>
</g>
<path d="M98 50C98 75.9574 78.0767 97 53.5 97C28.9234 97 58.5001 84.9574 58.5001 59C58.5001 33.0426 28.9234 3 53.5 3C78.0767 3 98 24.0426 98 50Z" fill="url(#paint2_linear_239_979)" fill-opacity="0.4"/>
<rect x="30.5781" y="11.5781" width="38.4453" height="21.6797" rx="2.3125" fill="white" stroke="#FFBD3E" stroke-width="1.15625"/>
<circle cx="49.7285" cy="33.4746" r="6.7207" fill="white" stroke="#FFBD3E" stroke-width="2.89062"/>
<rect x="30.5781" y="62.7422" width="38.4453" height="21.6797" rx="2.3125" fill="white" stroke="#FFBD3E" stroke-width="1.15625"/>
<circle cx="49.7285" cy="61.8027" r="6.7207" fill="white" stroke="#FFBD3E" stroke-width="2.89062"/>
<path d="M31.8789 33.6495L68.1562 33.4462V62.5481L31.8789 62.3476V33.6495Z" fill="white"/>
<defs>
<linearGradient id="paint0_linear_239_979" x1="107.5" y1="-4.5" x2="43.5" y2="100" gradientUnits="userSpaceOnUse">
<stop stop-color="#FFA800"/>
<stop offset="1" stop-color="#FFD700"/>
</linearGradient>
<linearGradient id="paint1_linear_239_979" x1="2" y1="29" x2="24.5" y2="98" gradientUnits="userSpaceOnUse">
<stop stop-color="#DBDCDC" stop-opacity="0.5"/>
<stop offset="1" stop-color="#DBDCDC" stop-opacity="0"/>
</linearGradient>
<linearGradient id="paint2_linear_239_979" x1="87.5" y1="9" x2="13" y2="128.5" gradientUnits="userSpaceOnUse">
<stop stop-color="white"/>
<stop offset="1" stop-color="white" stop-opacity="0"/>
</linearGradient>
</defs>
</svg>
