<svg width="100" height="100" viewBox="0 0 100 100" fill="none" xmlns="http://www.w3.org/2000/svg">
<circle cx="50" cy="50" r="50" fill="url(#paint0_linear_239_825)"/>
<mask id="path-2-inside-1_239_825" fill="white">
<path d="M44.8168 51.4441C44.8814 52.031 45.0516 52.583 45.4144 53.0417C45.9627 53.7354 46.5521 54.3965 47.1272 55.0688C47.8171 55.8759 48.5108 56.6796 49.2019 57.4857C49.4443 57.7683 49.7247 57.791 50.0142 57.5547C50.1373 57.4543 50.2437 57.3412 50.3495 57.2231C50.965 56.5351 51.5864 55.8522 52.2087 55.1702C52.7799 54.5441 53.3608 53.9265 53.9241 53.2935C54.1084 53.0863 54.317 52.8983 54.4661 52.6599C54.9249 51.9269 54.9869 51.1311 54.7826 50.3187C54.5575 49.4251 54.1483 48.5978 53.7603 47.7662C53.3988 46.9915 53.0128 46.2281 52.6486 45.4545C52.5278 45.1978 52.401 44.9419 52.327 44.6642C52.1121 43.8557 52.1006 43.0245 52.0699 42.199C52.0372 41.3141 52.0727 40.4281 52.1748 39.5464C52.199 39.3386 52.1865 39.3317 51.9997 39.4028C51.2837 39.6749 50.5672 39.945 49.8533 40.2225C49.7486 40.2632 49.662 40.2552 49.5636 40.2159C48.758 39.8929 47.9326 39.6272 47.1078 39.3587C47.0502 39.3401 46.9792 39.2832 46.9313 39.3302C46.8726 39.3879 46.937 39.4595 46.9608 39.5216C47.3097 40.4309 47.5614 41.3609 47.5627 42.344C47.5567 42.5595 47.5537 42.7729 47.528 42.9883C47.4409 43.7216 47.2134 44.4102 46.8661 45.0557C46.6284 45.4974 46.4177 45.9507 46.2302 46.4131C45.914 47.1932 45.6239 47.9837 45.3248 48.7706C44.998 49.6316 44.7131 50.498 44.8168 51.4441ZM49.2041 41.2575C49.5492 41.0905 49.8999 41.0945 50.25 41.2366C50.3128 41.2622 50.3753 41.3184 50.3341 41.4025C50.1596 41.758 49.9816 42.1116 49.7871 42.5017C49.5574 42.1135 49.3484 41.7626 49.142 41.4103C49.0998 41.3384 49.14 41.2884 49.2041 41.2575Z"/>
<path d="M54.9238 37.2773C54.9712 37.1599 55.0241 37.0449 55.0705 36.9272C55.4885 35.8673 55.8862 34.8002 56.2656 33.7259C56.2898 33.6578 56.3633 33.5816 56.2904 33.5182C56.2347 33.4698 56.159 33.527 56.0952 33.549C54.9877 33.9299 53.8812 34.3132 52.7727 34.6913C52.6534 34.732 52.586 34.806 52.5331 34.9143C51.8822 36.2459 51.2282 37.5761 50.5761 38.9072C50.4844 39.0947 50.3975 39.2847 50.3119 39.4752C50.293 39.5171 50.2452 39.5793 50.3374 39.5986C50.3863 39.5763 50.427 39.5583 50.4669 39.5392C50.7188 39.4205 50.9708 39.3014 51.2226 39.1824C52.3671 38.6412 53.5115 38.0997 54.6564 37.5594C54.784 37.4995 54.8716 37.4069 54.9238 37.2773Z"/>
<path d="M49.6907 39.3434C49.7541 39.3402 49.7633 39.2631 49.7877 39.2143C50.5257 37.7279 51.262 36.2405 52.0017 34.755C52.0513 34.6552 52.0544 34.5711 52.0087 34.4684C51.8137 34.0288 51.6282 33.5854 51.4369 33.1442C51.0213 32.1866 50.6044 31.2295 50.1877 30.2727C50.0489 29.9535 49.9101 29.6344 49.7688 29.3166C49.7521 29.2789 49.741 29.2202 49.6867 29.2232C49.637 29.2259 49.625 29.2799 49.607 29.3195C49.5496 29.4462 49.4914 29.5727 49.4365 29.7006C48.7986 31.1893 48.161 32.6782 47.5237 34.1671C47.4694 34.2944 47.4183 34.4232 47.3674 34.547C47.3861 34.599 47.3975 34.642 47.4161 34.6814C48.1401 36.1948 48.8646 37.708 49.5908 39.2203C49.6137 39.268 49.6239 39.3467 49.6907 39.3434Z"/>
<path d="M27.2554 36.5783C28.6255 36.8182 29.9931 37.0731 31.3665 37.2932C31.483 37.3119 31.5994 37.3419 31.5961 37.4693C31.5923 37.6181 31.4578 37.6323 31.3387 37.6263C31.1051 37.6145 30.8713 37.6031 30.6387 37.5801C30.0668 37.5234 29.4953 37.4623 28.9243 37.3991C28.2904 37.3289 27.6571 37.2515 27.023 37.1831C26.8232 37.1615 26.5988 37.1175 26.456 37.3033C26.3237 37.4755 26.4156 37.671 26.4867 37.8447C26.8572 38.75 27.3895 39.5551 28.0243 40.2949C28.069 40.347 28.1282 40.386 28.2043 40.3885C28.7728 40.406 29.3368 40.4766 29.9027 40.5288C30.5948 40.5927 31.2855 40.6691 31.9733 40.768C32.1725 40.7967 32.3765 40.8159 32.5657 40.8952C32.6874 40.9462 32.6896 41.0161 32.5797 41.0813C32.5096 41.1229 32.432 41.1554 32.3541 41.1799C31.5252 41.4392 30.6729 41.6002 29.8244 41.777C29.6017 41.8234 29.3759 41.8599 29.158 41.9236C28.8964 42.0002 28.8008 42.194 28.8806 42.4534C28.9083 42.5434 28.9486 42.6323 28.999 42.7115C29.2711 43.1387 29.5484 43.5626 29.8231 43.9882C29.8652 44.0534 29.9205 44.1025 29.9819 44.149C30.3049 44.3951 30.6731 44.4146 31.0511 44.3544C31.4279 44.2945 31.7761 44.1308 32.1421 44.0292C32.9659 43.8004 33.7988 43.6102 34.6281 43.4045C34.7428 43.3761 34.8174 43.4197 34.8629 43.5119C34.9082 43.6033 34.8272 43.6536 34.7684 43.6953C34.6341 43.7903 34.4949 43.8789 34.3551 43.9655C33.5467 44.4663 32.6873 44.8738 31.8547 45.3304C31.5612 45.4913 31.5397 45.7211 31.8081 45.922C32.1576 46.1834 32.5283 46.4189 32.8619 46.6989C33.1922 46.976 33.5439 46.9641 33.9162 46.8617C34.3448 46.7439 34.7563 46.5764 35.1524 46.3764C35.6442 46.1282 36.1288 45.8656 36.6159 45.6084C36.709 45.5591 36.7951 45.5406 36.866 45.6422C36.9317 45.7363 36.8651 45.7942 36.8066 45.8539C36.523 46.1435 36.218 46.4098 35.9146 46.678C35.6628 46.9007 35.4283 47.1421 35.2458 47.427C35.1163 47.6291 35.1145 47.8296 35.2406 47.9745C35.3232 48.0696 35.4131 48.1582 35.5182 48.2326C36.1992 48.7154 36.9582 48.9273 37.789 48.9064C38.0809 48.8992 38.3278 48.8138 38.5368 48.5975C39.1929 47.9183 39.8567 47.2467 40.5203 46.5748C40.5959 46.4982 40.6773 46.3794 40.8073 46.4782C40.9352 46.5754 40.8455 46.6822 40.7951 46.7818C40.7809 46.8098 40.7629 46.8363 40.744 46.8617C40.4758 47.222 40.1954 47.5742 39.9421 47.9445C39.7329 48.2505 39.5119 48.5558 39.468 48.9454C39.4345 49.2429 39.5501 49.734 39.8711 49.907C40.4718 50.231 41.0899 50.2892 41.7425 50.0885C42.2668 49.9274 42.5677 49.532 42.849 49.1023C43.7854 47.6716 44.7237 46.2424 45.6673 44.8165C45.9317 44.4168 46.1395 44.0055 46.0933 43.6102C46.0943 42.6371 45.7597 41.9081 45.1613 41.292C44.7814 40.9008 44.3639 40.5522 43.9183 40.2377C43.068 39.6377 42.1427 39.1894 41.1501 38.8805C40.7696 38.762 40.3805 38.6694 40.0035 38.5413C39.054 38.2189 38.5237 37.4675 38.1134 36.618C37.8992 36.1745 37.7458 35.702 37.5599 35.2446C37.2335 34.4412 36.9098 33.6363 36.5727 32.8372C36.157 31.8516 35.7384 30.8671 35.3027 29.8903C34.9957 29.2022 34.6976 28.5042 34.2839 27.8736C33.7527 27.0642 33.2279 26.249 32.6432 25.4759C32.3269 25.0577 32.0342 24.6111 31.6031 24.3C30.4092 23.4382 29.0893 22.8108 27.7267 22.2691C27.5582 22.2022 27.387 22.128 27.1955 22.137C27.0964 22.1418 27.0217 22.1683 26.9902 22.2691C26.9576 22.3735 26.995 22.4569 27.0776 22.5193C27.1174 22.5495 27.1663 22.568 27.2124 22.5892C27.6496 22.7901 28.0947 22.9753 28.5224 23.1945C29.0629 23.4717 29.5892 23.7765 30.1219 24.0693C30.7775 24.4296 31.3323 24.8977 31.7005 25.561C31.7407 25.6336 31.8565 25.7111 31.7916 25.7895C31.7205 25.8754 31.5909 25.8302 31.4865 25.8122C31.4503 25.806 31.4166 25.7832 31.3827 25.7658C30.5872 25.359 29.7844 24.9668 28.9903 24.5569C27.4819 23.7783 25.9772 22.9928 24.476 22.2002C23.7031 21.792 22.9322 21.38 22.1532 20.9839C20.7634 20.2776 19.3946 19.5306 17.9793 18.8763C17.7439 18.7675 17.5047 18.6644 17.26 18.5799C17.0663 18.513 17.0026 18.569 17.0004 18.7685C16.9994 18.8696 16.9984 18.9699 17.0198 19.0711C17.1824 19.8422 17.4515 20.578 17.7266 21.3144C18.3065 22.8665 19.3426 24.0222 20.732 24.896C21.4634 25.356 22.2378 25.732 22.9991 26.133C24.0977 26.7119 25.2085 27.2672 26.3144 27.8323C26.9576 28.1609 27.6017 28.488 28.2447 28.8173C28.3291 28.8605 28.4086 28.9131 28.4905 28.9611C28.5656 29.0052 28.6045 29.0657 28.5614 29.1503C28.5232 29.2254 28.4644 29.2674 28.3748 29.2299C28.3105 29.203 28.2452 29.1793 28.1816 29.151C27.5572 28.8725 26.9353 28.5883 26.3084 28.3155C25.3333 27.8911 24.3574 27.4689 23.3775 27.056C22.4908 26.6824 21.6074 26.299 20.687 26.0122C20.4174 25.9283 20.3091 26.0256 20.3594 26.3002C20.4109 26.5819 20.5082 26.8497 20.6161 27.1138C20.8121 27.5935 20.9616 28.0925 21.2358 28.5399C21.7623 29.3984 22.5154 29.9973 23.3908 30.4627C24.0196 30.797 24.69 31.0282 25.3541 31.2773C26.1722 31.5842 26.9666 31.9496 27.7632 32.3081C28.1095 32.464 28.4532 32.6262 28.7978 32.7858C28.8827 32.8252 28.9338 32.8833 28.8904 32.9813C28.851 33.0708 28.7832 33.1011 28.6891 33.0646C28.6537 33.0509 28.6168 33.0411 28.581 33.0287C27.9105 32.7975 27.2404 32.5653 26.5694 32.3349C25.4673 31.9566 24.3647 31.5794 23.2624 31.2017C23.1089 31.1492 22.9486 31.1034 22.817 31.2326C22.6878 31.3593 22.7497 31.5153 22.7914 31.6616C22.7983 31.6858 22.8108 31.7085 22.8208 31.7317C23.1374 32.4637 23.6024 33.1055 24.0596 33.7507C24.4657 34.3238 24.9027 34.8734 25.3688 35.3989C25.8803 35.9761 26.4475 36.4369 27.2554 36.5783Z"/>
<path d="M46.7097 34.7827C45.5441 34.3601 44.3795 33.9354 43.2146 33.5112C43.1909 33.5025 43.1676 33.4933 43.145 33.4848C43.0201 33.5015 43.0701 33.5819 43.0903 33.64C43.2089 33.9804 43.332 34.3193 43.4531 34.6589C43.7289 35.4336 44.0055 36.208 44.2787 36.9837C44.3099 37.0723 44.3547 37.1377 44.4402 37.1822C44.9342 37.4391 45.4273 37.6979 45.9191 37.9588C46.9138 38.4866 47.9076 39.0163 48.9025 39.5438C48.9499 39.5688 49.008 39.6267 49.0555 39.5818C49.1054 39.5347 49.0443 39.4775 49.0215 39.4296C48.8365 39.041 48.6475 38.6543 48.4633 38.2654C47.9406 37.1617 47.4193 36.0575 46.8995 34.9527C46.8588 34.8656 46.7989 34.815 46.7097 34.7827Z"/>
<path d="M68.5308 65.5978C67.9119 65.3568 67.2706 65.2155 66.6045 65.2223C66.1751 65.2267 65.8198 65.3803 65.5861 65.7718C65.468 65.9695 65.4148 66.1922 65.2956 66.3891C64.9777 66.915 64.627 67.4188 64.2709 67.9193C63.5872 68.8797 62.8681 69.8094 61.9701 70.5849C61.7789 70.7501 61.6032 70.9358 61.4012 71.0859C60.5583 71.7125 59.694 72.311 58.8644 72.9546C58.1033 73.5452 57.2499 73.918 56.3345 74.1781C55.6209 74.3809 54.899 74.5324 54.1577 74.5918C53.4403 74.6492 52.7289 74.645 52.0295 74.4515C51.5394 74.3159 51.0858 74.087 50.6221 73.8847C48.8691 73.1189 47.1449 72.2912 45.4276 71.4497C44.7204 71.1031 44.0041 70.7925 43.2521 70.5594C42.2792 70.2578 41.2824 70.0985 40.2677 70.0566C39.7175 70.0338 39.1693 70.0918 38.6226 70.1617C37.5451 70.2993 36.5179 70.5884 35.5643 71.1224C34.4453 71.7492 33.615 72.6468 33.0598 73.7959C32.5842 74.7803 32.393 75.8391 32.3437 76.92C32.307 77.722 32.3043 78.5259 32.2214 79.3257C32.1762 79.7619 32.0342 80.1676 31.78 80.5248C31.431 81.0151 30.9539 81.3372 30.3877 81.5324C30.0819 81.6377 29.7705 81.7199 29.4538 81.7868C29.3846 81.8013 29.1873 81.8068 29.3426 81.9613C29.8707 82.4868 30.4544 82.901 31.2588 82.7345C31.9563 82.5899 32.6149 82.3498 33.1069 81.801C33.4857 81.3786 33.7753 80.8973 33.9934 80.371C34.0444 80.2475 34.0464 80.0292 34.1669 80.0225C34.287 80.0157 34.3587 80.2158 34.4476 80.3283C34.6863 80.6299 34.9019 80.9517 35.225 81.2076C35.2587 81.1142 35.2288 81.0496 35.2117 80.9829C35.0173 80.2344 34.8757 79.4752 34.8295 78.7039C34.7829 77.9236 34.8335 77.1463 35.0669 76.3925C35.2882 75.6768 35.6474 75.0429 36.2214 74.5503C37.0537 73.8359 38.0548 73.5857 39.1203 73.5293C39.7106 73.498 40.2964 73.5692 40.8786 73.6504C42.5401 73.8825 44.0351 74.5591 45.45 75.4242C46.546 76.0944 47.6205 76.7995 48.7073 77.4848C50.0941 78.3591 51.4834 79.2299 52.8727 80.1004C53.3608 80.4062 53.836 80.7375 54.3458 81.0022C55.3796 81.5392 56.4793 81.8884 57.6291 82.0994C58.2837 82.2195 58.9314 82.3547 59.6002 82.318C59.8458 82.3044 60.0925 82.2822 60.3349 82.2412C61.008 82.1271 61.6956 82.0584 62.3404 81.8335C63.6546 81.3749 64.8389 80.6651 65.9444 79.8272C66.7475 79.2184 67.4805 78.533 68.1359 77.7627C68.6421 77.1682 69.0975 76.5396 69.5147 75.8815C69.9913 75.1296 70.3507 74.3182 70.7152 73.5105C71.0623 72.7419 71.2717 71.935 71.3175 71.0926C71.3651 70.2199 71.2573 69.3625 71.0143 68.5214C70.6252 67.1728 69.8837 66.1251 68.5308 65.5978Z"/>
<path d="M81.9484 18.0756C80.7484 18.5767 79.602 19.1884 78.449 19.7863C77.2118 20.4281 75.9765 21.0727 74.741 21.7181C74.0339 22.0876 73.3307 22.4656 72.6216 22.8315C71.152 23.5898 69.6809 24.3452 68.2067 25.0947C68.0398 25.1796 67.8695 25.2741 67.6757 25.2931C67.622 25.2984 67.5546 25.3153 67.5192 25.2555C67.4892 25.2045 67.53 25.1581 67.5542 25.1156C67.8286 24.6381 68.1691 24.2176 68.6219 23.8969C69.1969 23.4899 69.831 23.1828 70.4429 22.8386C71.0061 22.5218 71.6038 22.2716 72.1893 21.9982C72.3063 21.9436 72.3772 21.8606 72.3248 21.7268C72.2768 21.604 72.1863 21.5641 72.0502 21.5905C71.862 21.6268 71.6827 21.6862 71.5064 21.7566C70.3683 22.2107 69.2783 22.7609 68.2304 23.395C67.8095 23.6497 67.4455 23.967 67.1318 24.3484C66.7371 24.8281 66.3723 25.3296 66.03 25.8464C65.5374 26.5899 64.9937 27.3001 64.607 28.1128C64.2725 28.8163 63.941 29.521 63.6251 30.2331C63.0419 31.5469 62.5034 32.8793 61.9522 34.2065C61.6609 34.908 61.4226 35.632 61.0811 36.3121C60.5985 37.2731 59.8703 37.9041 58.7895 38.1645C56.9933 38.5974 55.412 39.4472 54.1201 40.7944C53.5418 41.3975 53.2368 42.1108 53.2225 43.0899C53.1843 43.4158 53.3419 43.8209 53.6067 44.1942C53.6689 44.2821 53.7289 44.3715 53.7868 44.4623C54.7232 45.9307 55.6721 47.3908 56.6603 48.825C56.7664 48.9791 56.8655 49.1418 57.0282 49.2539C57.7655 49.7617 58.5392 49.7874 59.3353 49.4232C59.5939 49.3051 59.7585 49.0902 59.8241 48.8036C59.8936 48.4994 59.8486 48.2133 59.71 47.9393C59.5378 47.5985 59.3043 47.2976 59.0809 46.9905C58.8802 46.7144 58.653 46.4576 58.4793 46.1615C58.4323 46.0813 58.4199 46.0114 58.5042 45.9453C58.5858 45.8814 58.6553 45.8971 58.7231 45.9642C58.7591 45.9997 58.7956 46.0351 58.8313 46.0711C59.4215 46.664 60.0269 47.2424 60.5853 47.8663C60.9361 48.2585 61.3602 48.4346 61.8828 48.3711C61.9832 48.3589 62.0838 48.3482 62.1836 48.3324C62.8467 48.2271 63.4528 47.9887 63.9706 47.5525C64.1951 47.3631 64.225 47.1912 64.0949 46.9292C64.0121 46.7626 63.8873 46.6278 63.7617 46.494C63.3712 46.0778 62.9199 45.7261 62.5161 45.3239C62.4467 45.2547 62.3713 45.1806 62.4598 45.081C62.5378 44.9933 62.6238 45.0271 62.7168 45.076C63.2159 45.3383 63.7163 45.5982 64.2198 45.8522C64.6048 46.0466 65.003 46.2089 65.4199 46.3237C65.7836 46.4239 66.1227 46.4293 66.4422 46.1715C66.7718 45.9058 67.1282 45.6734 67.4673 45.4192C67.7898 45.1775 67.7753 44.9794 67.4293 44.7647C67.4078 44.7514 67.3852 44.7396 67.3627 44.7279C67.0311 44.5554 66.6971 44.3877 66.3683 44.2099C65.7616 43.8814 65.146 43.5676 64.5798 43.1694C64.4994 43.1129 64.4153 43.058 64.4685 42.9416C64.5211 42.8266 64.623 42.847 64.7161 42.8698C65.4288 43.046 66.1386 43.2348 66.8544 43.3985C67.361 43.5142 67.8331 43.7441 68.3488 43.8265C68.7628 43.8926 69.3359 43.7688 69.6003 43.3057C69.8292 42.9049 70.0962 42.5258 70.339 42.1326C70.601 41.7082 70.4838 41.4397 69.9978 41.3311C69.9731 41.3256 69.9478 41.3234 69.9227 41.3186C69.0473 41.1462 68.1738 40.9644 67.3088 40.7445C67.1378 40.701 66.9699 40.6413 66.8059 40.5755C66.7485 40.5523 66.6581 40.5255 66.6659 40.4402C66.6734 40.3578 66.7577 40.3405 66.8244 40.3263C66.9974 40.2894 67.1712 40.2539 67.3462 40.2282C67.9089 40.1455 68.4727 40.0739 69.0399 40.0252C69.6565 39.9721 70.2709 39.8886 70.8885 39.856C71.1389 39.8429 71.3095 39.7559 71.4525 39.5711C71.7394 39.2008 72.0279 38.8319 72.2651 38.4264C72.5116 38.005 72.7549 37.5814 72.8948 37.11C72.9864 36.8022 72.8663 36.6477 72.549 36.6374C72.2814 36.6287 72.0207 36.6849 71.7569 36.7128C71.116 36.7805 70.4736 36.8354 69.8347 36.916C69.2134 36.9941 68.5888 37.0253 67.9674 37.0921C67.8472 37.1052 67.7402 37.0603 67.723 36.9353C67.7069 36.8192 67.8085 36.78 67.9086 36.761C67.9523 36.7528 67.9945 36.737 68.0377 36.7305C69.3634 36.5296 70.6856 36.3081 71.9987 36.0363C72.4366 35.9458 72.8781 35.8642 73.2385 35.5506C73.5596 35.2708 73.856 34.9687 74.132 34.6474C74.7969 33.8738 75.3986 33.0522 75.9496 32.1936C76.1722 31.8466 76.3782 31.49 76.5322 31.1066C76.5894 30.9641 76.6221 30.804 76.4975 30.6779C76.3774 30.5563 76.2351 30.5981 76.0899 30.649C75.3247 30.9164 74.5575 31.1787 73.7908 31.4414C72.7659 31.7922 71.7409 32.1417 70.7156 32.4916C70.6032 32.5299 70.4758 32.568 70.425 32.421C70.3767 32.2819 70.5076 32.2395 70.6032 32.1953C70.7929 32.1079 70.9869 32.0296 71.1767 31.9427C72.0867 31.5268 72.9939 31.1048 73.93 30.7503C74.7405 30.4432 75.5606 30.1619 76.3071 29.7048C77.1631 29.1805 77.8698 28.5172 78.2947 27.5959C78.4957 27.16 78.649 26.702 78.824 26.2541C78.8887 26.0883 78.9361 25.9171 78.9634 25.742C79.0021 25.4911 78.9036 25.3933 78.6625 25.4596C78.4431 25.5198 78.2279 25.5975 78.0141 25.6773C77.1182 26.0116 76.2376 26.3834 75.3588 26.7603C74.358 27.1895 73.3613 27.6276 72.3637 28.064C71.9054 28.2643 71.4492 28.4685 70.9931 28.6742C70.9063 28.7132 70.8263 28.7182 70.7757 28.635C70.7213 28.5456 70.7555 28.4635 70.8408 28.4059C70.8721 28.3848 70.9072 28.3691 70.941 28.3516C71.5701 28.0239 72.1983 27.6936 72.8293 27.3692C73.9169 26.81 75.0046 26.2513 76.0955 25.6983C76.9261 25.2774 77.7632 24.8688 78.5527 24.3729C79.4632 23.8009 80.2588 23.1052 80.8609 22.2047C81.4713 21.2919 81.7954 20.2567 82.1259 19.2251C82.2186 18.9359 82.297 18.6403 82.316 18.3361C82.3391 17.9725 82.2837 17.9356 81.9484 18.0756Z"/>
<path d="M71.3472 63.7923C70.7668 62.5774 70.114 61.4096 69.2187 60.3897C68.5641 59.6442 67.8136 59.0226 66.9458 58.5452C66.1916 58.1304 65.3847 57.8624 64.5447 57.6722C63.5009 57.4358 62.4645 57.4722 61.4464 57.7544C60.3734 58.052 59.3186 58.4157 58.2539 58.7445C57.6278 58.9379 56.9816 59.0403 56.3296 59.047C55.6685 59.0536 55.0253 58.9167 54.3995 58.689C53.7487 58.4521 53.1949 58.1086 52.8504 57.4813C52.6801 57.1709 52.4919 56.8698 52.3034 56.5697C52.1881 56.386 52.0887 56.389 51.9522 56.5585C51.8849 56.6421 51.814 56.7233 51.7389 56.7999C51.4858 57.0579 51.2139 57.2997 50.9793 57.5733C50.6075 58.007 50.1578 58.3647 49.8028 58.8129C49.747 58.8833 49.6953 58.8781 49.6301 58.8152C49.4574 58.6481 49.2748 58.4911 49.1034 58.3226C48.7643 57.989 48.4307 57.65 48.0927 57.3154C48.0508 57.2738 48.0098 57.1896 47.9427 57.2268C47.8721 57.266 47.9022 57.3526 47.9215 57.4174C48.0049 57.6975 48.1192 57.9663 48.2485 58.2269C48.8772 59.4925 49.5884 60.7122 50.3468 61.9039C50.5536 62.2287 50.751 62.567 51.0441 62.8248C51.4236 63.1584 51.8111 63.4844 52.207 63.7989C52.5331 64.0579 52.8354 64.3532 53.2071 64.5487C54.415 65.184 55.7139 65.4921 57.068 65.5692C57.7508 65.608 58.4354 65.5743 59.1154 65.4917C60.0597 65.377 60.9829 65.1705 61.8918 64.8845C63.0337 64.525 64.2144 64.3891 65.4072 64.3595C65.8242 64.3492 66.2416 64.3605 66.6598 64.3869C67.1728 64.4191 67.6806 64.466 68.1796 64.5897C69.195 64.8416 70.0386 65.3746 70.7289 66.1547C71.3093 66.8103 71.6364 67.595 71.8798 68.4225C71.9396 68.6261 72.0035 68.8287 72.0688 69.0417C72.1734 68.9768 72.1731 68.8879 72.1936 68.8127C72.3564 68.2094 72.3351 67.5969 72.2764 66.9838C72.1691 65.8611 71.8313 64.8053 71.3472 63.7923Z"/>
</mask>
<path d="M44.8168 51.4441C44.8814 52.031 45.0516 52.583 45.4144 53.0417C45.9627 53.7354 46.5521 54.3965 47.1272 55.0688C47.8171 55.8759 48.5108 56.6796 49.2019 57.4857C49.4443 57.7683 49.7247 57.791 50.0142 57.5547C50.1373 57.4543 50.2437 57.3412 50.3495 57.2231C50.965 56.5351 51.5864 55.8522 52.2087 55.1702C52.7799 54.5441 53.3608 53.9265 53.9241 53.2935C54.1084 53.0863 54.317 52.8983 54.4661 52.6599C54.9249 51.9269 54.9869 51.1311 54.7826 50.3187C54.5575 49.4251 54.1483 48.5978 53.7603 47.7662C53.3988 46.9915 53.0128 46.2281 52.6486 45.4545C52.5278 45.1978 52.401 44.9419 52.327 44.6642C52.1121 43.8557 52.1006 43.0245 52.0699 42.199C52.0372 41.3141 52.0727 40.4281 52.1748 39.5464C52.199 39.3386 52.1865 39.3317 51.9997 39.4028C51.2837 39.6749 50.5672 39.945 49.8533 40.2225C49.7486 40.2632 49.662 40.2552 49.5636 40.2159C48.758 39.8929 47.9326 39.6272 47.1078 39.3587C47.0502 39.3401 46.9792 39.2832 46.9313 39.3302C46.8726 39.3879 46.937 39.4595 46.9608 39.5216C47.3097 40.4309 47.5614 41.3609 47.5627 42.344C47.5567 42.5595 47.5537 42.7729 47.528 42.9883C47.4409 43.7216 47.2134 44.4102 46.8661 45.0557C46.6284 45.4974 46.4177 45.9507 46.2302 46.4131C45.914 47.1932 45.6239 47.9837 45.3248 48.7706C44.998 49.6316 44.7131 50.498 44.8168 51.4441ZM49.2041 41.2575C49.5492 41.0905 49.8999 41.0945 50.25 41.2366C50.3128 41.2622 50.3753 41.3184 50.3341 41.4025C50.1596 41.758 49.9816 42.1116 49.7871 42.5017C49.5574 42.1135 49.3484 41.7626 49.142 41.4103C49.0998 41.3384 49.14 41.2884 49.2041 41.2575Z" fill="white"/>
<path d="M54.9238 37.2773C54.9712 37.1599 55.0241 37.0449 55.0705 36.9272C55.4885 35.8673 55.8862 34.8002 56.2656 33.7259C56.2898 33.6578 56.3633 33.5816 56.2904 33.5182C56.2347 33.4698 56.159 33.527 56.0952 33.549C54.9877 33.9299 53.8812 34.3132 52.7727 34.6913C52.6534 34.732 52.586 34.806 52.5331 34.9143C51.8822 36.2459 51.2282 37.5761 50.5761 38.9072C50.4844 39.0947 50.3975 39.2847 50.3119 39.4752C50.293 39.5171 50.2452 39.5793 50.3374 39.5986C50.3863 39.5763 50.427 39.5583 50.4669 39.5392C50.7188 39.4205 50.9708 39.3014 51.2226 39.1824C52.3671 38.6412 53.5115 38.0997 54.6564 37.5594C54.784 37.4995 54.8716 37.4069 54.9238 37.2773Z" fill="white"/>
<path d="M49.6907 39.3434C49.7541 39.3402 49.7633 39.2631 49.7877 39.2143C50.5257 37.7279 51.262 36.2405 52.0017 34.755C52.0513 34.6552 52.0544 34.5711 52.0087 34.4684C51.8137 34.0288 51.6282 33.5854 51.4369 33.1442C51.0213 32.1866 50.6044 31.2295 50.1877 30.2727C50.0489 29.9535 49.9101 29.6344 49.7688 29.3166C49.7521 29.2789 49.741 29.2202 49.6867 29.2232C49.637 29.2259 49.625 29.2799 49.607 29.3195C49.5496 29.4462 49.4914 29.5727 49.4365 29.7006C48.7986 31.1893 48.161 32.6782 47.5237 34.1671C47.4694 34.2944 47.4183 34.4232 47.3674 34.547C47.3861 34.599 47.3975 34.642 47.4161 34.6814C48.1401 36.1948 48.8646 37.708 49.5908 39.2203C49.6137 39.268 49.6239 39.3467 49.6907 39.3434Z" fill="white"/>
<path d="M27.2554 36.5783C28.6255 36.8182 29.9931 37.0731 31.3665 37.2932C31.483 37.3119 31.5994 37.3419 31.5961 37.4693C31.5923 37.6181 31.4578 37.6323 31.3387 37.6263C31.1051 37.6145 30.8713 37.6031 30.6387 37.5801C30.0668 37.5234 29.4953 37.4623 28.9243 37.3991C28.2904 37.3289 27.6571 37.2515 27.023 37.1831C26.8232 37.1615 26.5988 37.1175 26.456 37.3033C26.3237 37.4755 26.4156 37.671 26.4867 37.8447C26.8572 38.75 27.3895 39.5551 28.0243 40.2949C28.069 40.347 28.1282 40.386 28.2043 40.3885C28.7728 40.406 29.3368 40.4766 29.9027 40.5288C30.5948 40.5927 31.2855 40.6691 31.9733 40.768C32.1725 40.7967 32.3765 40.8159 32.5657 40.8952C32.6874 40.9462 32.6896 41.0161 32.5797 41.0813C32.5096 41.1229 32.432 41.1554 32.3541 41.1799C31.5252 41.4392 30.6729 41.6002 29.8244 41.777C29.6017 41.8234 29.3759 41.8599 29.158 41.9236C28.8964 42.0002 28.8008 42.194 28.8806 42.4534C28.9083 42.5434 28.9486 42.6323 28.999 42.7115C29.2711 43.1387 29.5484 43.5626 29.8231 43.9882C29.8652 44.0534 29.9205 44.1025 29.9819 44.149C30.3049 44.3951 30.6731 44.4146 31.0511 44.3544C31.4279 44.2945 31.7761 44.1308 32.1421 44.0292C32.9659 43.8004 33.7988 43.6102 34.6281 43.4045C34.7428 43.3761 34.8174 43.4197 34.8629 43.5119C34.9082 43.6033 34.8272 43.6536 34.7684 43.6953C34.6341 43.7903 34.4949 43.8789 34.3551 43.9655C33.5467 44.4663 32.6873 44.8738 31.8547 45.3304C31.5612 45.4913 31.5397 45.7211 31.8081 45.922C32.1576 46.1834 32.5283 46.4189 32.8619 46.6989C33.1922 46.976 33.5439 46.9641 33.9162 46.8617C34.3448 46.7439 34.7563 46.5764 35.1524 46.3764C35.6442 46.1282 36.1288 45.8656 36.6159 45.6084C36.709 45.5591 36.7951 45.5406 36.866 45.6422C36.9317 45.7363 36.8651 45.7942 36.8066 45.8539C36.523 46.1435 36.218 46.4098 35.9146 46.678C35.6628 46.9007 35.4283 47.1421 35.2458 47.427C35.1163 47.6291 35.1145 47.8296 35.2406 47.9745C35.3232 48.0696 35.4131 48.1582 35.5182 48.2326C36.1992 48.7154 36.9582 48.9273 37.789 48.9064C38.0809 48.8992 38.3278 48.8138 38.5368 48.5975C39.1929 47.9183 39.8567 47.2467 40.5203 46.5748C40.5959 46.4982 40.6773 46.3794 40.8073 46.4782C40.9352 46.5754 40.8455 46.6822 40.7951 46.7818C40.7809 46.8098 40.7629 46.8363 40.744 46.8617C40.4758 47.222 40.1954 47.5742 39.9421 47.9445C39.7329 48.2505 39.5119 48.5558 39.468 48.9454C39.4345 49.2429 39.5501 49.734 39.8711 49.907C40.4718 50.231 41.0899 50.2892 41.7425 50.0885C42.2668 49.9274 42.5677 49.532 42.849 49.1023C43.7854 47.6716 44.7237 46.2424 45.6673 44.8165C45.9317 44.4168 46.1395 44.0055 46.0933 43.6102C46.0943 42.6371 45.7597 41.9081 45.1613 41.292C44.7814 40.9008 44.3639 40.5522 43.9183 40.2377C43.068 39.6377 42.1427 39.1894 41.1501 38.8805C40.7696 38.762 40.3805 38.6694 40.0035 38.5413C39.054 38.2189 38.5237 37.4675 38.1134 36.618C37.8992 36.1745 37.7458 35.702 37.5599 35.2446C37.2335 34.4412 36.9098 33.6363 36.5727 32.8372C36.157 31.8516 35.7384 30.8671 35.3027 29.8903C34.9957 29.2022 34.6976 28.5042 34.2839 27.8736C33.7527 27.0642 33.2279 26.249 32.6432 25.4759C32.3269 25.0577 32.0342 24.6111 31.6031 24.3C30.4092 23.4382 29.0893 22.8108 27.7267 22.2691C27.5582 22.2022 27.387 22.128 27.1955 22.137C27.0964 22.1418 27.0217 22.1683 26.9902 22.2691C26.9576 22.3735 26.995 22.4569 27.0776 22.5193C27.1174 22.5495 27.1663 22.568 27.2124 22.5892C27.6496 22.7901 28.0947 22.9753 28.5224 23.1945C29.0629 23.4717 29.5892 23.7765 30.1219 24.0693C30.7775 24.4296 31.3323 24.8977 31.7005 25.561C31.7407 25.6336 31.8565 25.7111 31.7916 25.7895C31.7205 25.8754 31.5909 25.8302 31.4865 25.8122C31.4503 25.806 31.4166 25.7832 31.3827 25.7658C30.5872 25.359 29.7844 24.9668 28.9903 24.5569C27.4819 23.7783 25.9772 22.9928 24.476 22.2002C23.7031 21.792 22.9322 21.38 22.1532 20.9839C20.7634 20.2776 19.3946 19.5306 17.9793 18.8763C17.7439 18.7675 17.5047 18.6644 17.26 18.5799C17.0663 18.513 17.0026 18.569 17.0004 18.7685C16.9994 18.8696 16.9984 18.9699 17.0198 19.0711C17.1824 19.8422 17.4515 20.578 17.7266 21.3144C18.3065 22.8665 19.3426 24.0222 20.732 24.896C21.4634 25.356 22.2378 25.732 22.9991 26.133C24.0977 26.7119 25.2085 27.2672 26.3144 27.8323C26.9576 28.1609 27.6017 28.488 28.2447 28.8173C28.3291 28.8605 28.4086 28.9131 28.4905 28.9611C28.5656 29.0052 28.6045 29.0657 28.5614 29.1503C28.5232 29.2254 28.4644 29.2674 28.3748 29.2299C28.3105 29.203 28.2452 29.1793 28.1816 29.151C27.5572 28.8725 26.9353 28.5883 26.3084 28.3155C25.3333 27.8911 24.3574 27.4689 23.3775 27.056C22.4908 26.6824 21.6074 26.299 20.687 26.0122C20.4174 25.9283 20.3091 26.0256 20.3594 26.3002C20.4109 26.5819 20.5082 26.8497 20.6161 27.1138C20.8121 27.5935 20.9616 28.0925 21.2358 28.5399C21.7623 29.3984 22.5154 29.9973 23.3908 30.4627C24.0196 30.797 24.69 31.0282 25.3541 31.2773C26.1722 31.5842 26.9666 31.9496 27.7632 32.3081C28.1095 32.464 28.4532 32.6262 28.7978 32.7858C28.8827 32.8252 28.9338 32.8833 28.8904 32.9813C28.851 33.0708 28.7832 33.1011 28.6891 33.0646C28.6537 33.0509 28.6168 33.0411 28.581 33.0287C27.9105 32.7975 27.2404 32.5653 26.5694 32.3349C25.4673 31.9566 24.3647 31.5794 23.2624 31.2017C23.1089 31.1492 22.9486 31.1034 22.817 31.2326C22.6878 31.3593 22.7497 31.5153 22.7914 31.6616C22.7983 31.6858 22.8108 31.7085 22.8208 31.7317C23.1374 32.4637 23.6024 33.1055 24.0596 33.7507C24.4657 34.3238 24.9027 34.8734 25.3688 35.3989C25.8803 35.9761 26.4475 36.4369 27.2554 36.5783Z" fill="white"/>
<path d="M46.7097 34.7827C45.5441 34.3601 44.3795 33.9354 43.2146 33.5112C43.1909 33.5025 43.1676 33.4933 43.145 33.4848C43.0201 33.5015 43.0701 33.5819 43.0903 33.64C43.2089 33.9804 43.332 34.3193 43.4531 34.6589C43.7289 35.4336 44.0055 36.208 44.2787 36.9837C44.3099 37.0723 44.3547 37.1377 44.4402 37.1822C44.9342 37.4391 45.4273 37.6979 45.9191 37.9588C46.9138 38.4866 47.9076 39.0163 48.9025 39.5438C48.9499 39.5688 49.008 39.6267 49.0555 39.5818C49.1054 39.5347 49.0443 39.4775 49.0215 39.4296C48.8365 39.041 48.6475 38.6543 48.4633 38.2654C47.9406 37.1617 47.4193 36.0575 46.8995 34.9527C46.8588 34.8656 46.7989 34.815 46.7097 34.7827Z" fill="white"/>
<path d="M68.5308 65.5978C67.9119 65.3568 67.2706 65.2155 66.6045 65.2223C66.1751 65.2267 65.8198 65.3803 65.5861 65.7718C65.468 65.9695 65.4148 66.1922 65.2956 66.3891C64.9777 66.915 64.627 67.4188 64.2709 67.9193C63.5872 68.8797 62.8681 69.8094 61.9701 70.5849C61.7789 70.7501 61.6032 70.9358 61.4012 71.0859C60.5583 71.7125 59.694 72.311 58.8644 72.9546C58.1033 73.5452 57.2499 73.918 56.3345 74.1781C55.6209 74.3809 54.899 74.5324 54.1577 74.5918C53.4403 74.6492 52.7289 74.645 52.0295 74.4515C51.5394 74.3159 51.0858 74.087 50.6221 73.8847C48.8691 73.1189 47.1449 72.2912 45.4276 71.4497C44.7204 71.1031 44.0041 70.7925 43.2521 70.5594C42.2792 70.2578 41.2824 70.0985 40.2677 70.0566C39.7175 70.0338 39.1693 70.0918 38.6226 70.1617C37.5451 70.2993 36.5179 70.5884 35.5643 71.1224C34.4453 71.7492 33.615 72.6468 33.0598 73.7959C32.5842 74.7803 32.393 75.8391 32.3437 76.92C32.307 77.722 32.3043 78.5259 32.2214 79.3257C32.1762 79.7619 32.0342 80.1676 31.78 80.5248C31.431 81.0151 30.9539 81.3372 30.3877 81.5324C30.0819 81.6377 29.7705 81.7199 29.4538 81.7868C29.3846 81.8013 29.1873 81.8068 29.3426 81.9613C29.8707 82.4868 30.4544 82.901 31.2588 82.7345C31.9563 82.5899 32.6149 82.3498 33.1069 81.801C33.4857 81.3786 33.7753 80.8973 33.9934 80.371C34.0444 80.2475 34.0464 80.0292 34.1669 80.0225C34.287 80.0157 34.3587 80.2158 34.4476 80.3283C34.6863 80.6299 34.9019 80.9517 35.225 81.2076C35.2587 81.1142 35.2288 81.0496 35.2117 80.9829C35.0173 80.2344 34.8757 79.4752 34.8295 78.7039C34.7829 77.9236 34.8335 77.1463 35.0669 76.3925C35.2882 75.6768 35.6474 75.0429 36.2214 74.5503C37.0537 73.8359 38.0548 73.5857 39.1203 73.5293C39.7106 73.498 40.2964 73.5692 40.8786 73.6504C42.5401 73.8825 44.0351 74.5591 45.45 75.4242C46.546 76.0944 47.6205 76.7995 48.7073 77.4848C50.0941 78.3591 51.4834 79.2299 52.8727 80.1004C53.3608 80.4062 53.836 80.7375 54.3458 81.0022C55.3796 81.5392 56.4793 81.8884 57.6291 82.0994C58.2837 82.2195 58.9314 82.3547 59.6002 82.318C59.8458 82.3044 60.0925 82.2822 60.3349 82.2412C61.008 82.1271 61.6956 82.0584 62.3404 81.8335C63.6546 81.3749 64.8389 80.6651 65.9444 79.8272C66.7475 79.2184 67.4805 78.533 68.1359 77.7627C68.6421 77.1682 69.0975 76.5396 69.5147 75.8815C69.9913 75.1296 70.3507 74.3182 70.7152 73.5105C71.0623 72.7419 71.2717 71.935 71.3175 71.0926C71.3651 70.2199 71.2573 69.3625 71.0143 68.5214C70.6252 67.1728 69.8837 66.1251 68.5308 65.5978Z" fill="white"/>
<path d="M81.9484 18.0756C80.7484 18.5767 79.602 19.1884 78.449 19.7863C77.2118 20.4281 75.9765 21.0727 74.741 21.7181C74.0339 22.0876 73.3307 22.4656 72.6216 22.8315C71.152 23.5898 69.6809 24.3452 68.2067 25.0947C68.0398 25.1796 67.8695 25.2741 67.6757 25.2931C67.622 25.2984 67.5546 25.3153 67.5192 25.2555C67.4892 25.2045 67.53 25.1581 67.5542 25.1156C67.8286 24.6381 68.1691 24.2176 68.6219 23.8969C69.1969 23.4899 69.831 23.1828 70.4429 22.8386C71.0061 22.5218 71.6038 22.2716 72.1893 21.9982C72.3063 21.9436 72.3772 21.8606 72.3248 21.7268C72.2768 21.604 72.1863 21.5641 72.0502 21.5905C71.862 21.6268 71.6827 21.6862 71.5064 21.7566C70.3683 22.2107 69.2783 22.7609 68.2304 23.395C67.8095 23.6497 67.4455 23.967 67.1318 24.3484C66.7371 24.8281 66.3723 25.3296 66.03 25.8464C65.5374 26.5899 64.9937 27.3001 64.607 28.1128C64.2725 28.8163 63.941 29.521 63.6251 30.2331C63.0419 31.5469 62.5034 32.8793 61.9522 34.2065C61.6609 34.908 61.4226 35.632 61.0811 36.3121C60.5985 37.2731 59.8703 37.9041 58.7895 38.1645C56.9933 38.5974 55.412 39.4472 54.1201 40.7944C53.5418 41.3975 53.2368 42.1108 53.2225 43.0899C53.1843 43.4158 53.3419 43.8209 53.6067 44.1942C53.6689 44.2821 53.7289 44.3715 53.7868 44.4623C54.7232 45.9307 55.6721 47.3908 56.6603 48.825C56.7664 48.9791 56.8655 49.1418 57.0282 49.2539C57.7655 49.7617 58.5392 49.7874 59.3353 49.4232C59.5939 49.3051 59.7585 49.0902 59.8241 48.8036C59.8936 48.4994 59.8486 48.2133 59.71 47.9393C59.5378 47.5985 59.3043 47.2976 59.0809 46.9905C58.8802 46.7144 58.653 46.4576 58.4793 46.1615C58.4323 46.0813 58.4199 46.0114 58.5042 45.9453C58.5858 45.8814 58.6553 45.8971 58.7231 45.9642C58.7591 45.9997 58.7956 46.0351 58.8313 46.0711C59.4215 46.664 60.0269 47.2424 60.5853 47.8663C60.9361 48.2585 61.3602 48.4346 61.8828 48.3711C61.9832 48.3589 62.0838 48.3482 62.1836 48.3324C62.8467 48.2271 63.4528 47.9887 63.9706 47.5525C64.1951 47.3631 64.225 47.1912 64.0949 46.9292C64.0121 46.7626 63.8873 46.6278 63.7617 46.494C63.3712 46.0778 62.9199 45.7261 62.5161 45.3239C62.4467 45.2547 62.3713 45.1806 62.4598 45.081C62.5378 44.9933 62.6238 45.0271 62.7168 45.076C63.2159 45.3383 63.7163 45.5982 64.2198 45.8522C64.6048 46.0466 65.003 46.2089 65.4199 46.3237C65.7836 46.4239 66.1227 46.4293 66.4422 46.1715C66.7718 45.9058 67.1282 45.6734 67.4673 45.4192C67.7898 45.1775 67.7753 44.9794 67.4293 44.7647C67.4078 44.7514 67.3852 44.7396 67.3627 44.7279C67.0311 44.5554 66.6971 44.3877 66.3683 44.2099C65.7616 43.8814 65.146 43.5676 64.5798 43.1694C64.4994 43.1129 64.4153 43.058 64.4685 42.9416C64.5211 42.8266 64.623 42.847 64.7161 42.8698C65.4288 43.046 66.1386 43.2348 66.8544 43.3985C67.361 43.5142 67.8331 43.7441 68.3488 43.8265C68.7628 43.8926 69.3359 43.7688 69.6003 43.3057C69.8292 42.9049 70.0962 42.5258 70.339 42.1326C70.601 41.7082 70.4838 41.4397 69.9978 41.3311C69.9731 41.3256 69.9478 41.3234 69.9227 41.3186C69.0473 41.1462 68.1738 40.9644 67.3088 40.7445C67.1378 40.701 66.9699 40.6413 66.8059 40.5755C66.7485 40.5523 66.6581 40.5255 66.6659 40.4402C66.6734 40.3578 66.7577 40.3405 66.8244 40.3263C66.9974 40.2894 67.1712 40.2539 67.3462 40.2282C67.9089 40.1455 68.4727 40.0739 69.0399 40.0252C69.6565 39.9721 70.2709 39.8886 70.8885 39.856C71.1389 39.8429 71.3095 39.7559 71.4525 39.5711C71.7394 39.2008 72.0279 38.8319 72.2651 38.4264C72.5116 38.005 72.7549 37.5814 72.8948 37.11C72.9864 36.8022 72.8663 36.6477 72.549 36.6374C72.2814 36.6287 72.0207 36.6849 71.7569 36.7128C71.116 36.7805 70.4736 36.8354 69.8347 36.916C69.2134 36.9941 68.5888 37.0253 67.9674 37.0921C67.8472 37.1052 67.7402 37.0603 67.723 36.9353C67.7069 36.8192 67.8085 36.78 67.9086 36.761C67.9523 36.7528 67.9945 36.737 68.0377 36.7305C69.3634 36.5296 70.6856 36.3081 71.9987 36.0363C72.4366 35.9458 72.8781 35.8642 73.2385 35.5506C73.5596 35.2708 73.856 34.9687 74.132 34.6474C74.7969 33.8738 75.3986 33.0522 75.9496 32.1936C76.1722 31.8466 76.3782 31.49 76.5322 31.1066C76.5894 30.9641 76.6221 30.804 76.4975 30.6779C76.3774 30.5563 76.2351 30.5981 76.0899 30.649C75.3247 30.9164 74.5575 31.1787 73.7908 31.4414C72.7659 31.7922 71.7409 32.1417 70.7156 32.4916C70.6032 32.5299 70.4758 32.568 70.425 32.421C70.3767 32.2819 70.5076 32.2395 70.6032 32.1953C70.7929 32.1079 70.9869 32.0296 71.1767 31.9427C72.0867 31.5268 72.9939 31.1048 73.93 30.7503C74.7405 30.4432 75.5606 30.1619 76.3071 29.7048C77.1631 29.1805 77.8698 28.5172 78.2947 27.5959C78.4957 27.16 78.649 26.702 78.824 26.2541C78.8887 26.0883 78.9361 25.9171 78.9634 25.742C79.0021 25.4911 78.9036 25.3933 78.6625 25.4596C78.4431 25.5198 78.2279 25.5975 78.0141 25.6773C77.1182 26.0116 76.2376 26.3834 75.3588 26.7603C74.358 27.1895 73.3613 27.6276 72.3637 28.064C71.9054 28.2643 71.4492 28.4685 70.9931 28.6742C70.9063 28.7132 70.8263 28.7182 70.7757 28.635C70.7213 28.5456 70.7555 28.4635 70.8408 28.4059C70.8721 28.3848 70.9072 28.3691 70.941 28.3516C71.5701 28.0239 72.1983 27.6936 72.8293 27.3692C73.9169 26.81 75.0046 26.2513 76.0955 25.6983C76.9261 25.2774 77.7632 24.8688 78.5527 24.3729C79.4632 23.8009 80.2588 23.1052 80.8609 22.2047C81.4713 21.2919 81.7954 20.2567 82.1259 19.2251C82.2186 18.9359 82.297 18.6403 82.316 18.3361C82.3391 17.9725 82.2837 17.9356 81.9484 18.0756Z" fill="white"/>
<path d="M71.3472 63.7923C70.7668 62.5774 70.114 61.4096 69.2187 60.3897C68.5641 59.6442 67.8136 59.0226 66.9458 58.5452C66.1916 58.1304 65.3847 57.8624 64.5447 57.6722C63.5009 57.4358 62.4645 57.4722 61.4464 57.7544C60.3734 58.052 59.3186 58.4157 58.2539 58.7445C57.6278 58.9379 56.9816 59.0403 56.3296 59.047C55.6685 59.0536 55.0253 58.9167 54.3995 58.689C53.7487 58.4521 53.1949 58.1086 52.8504 57.4813C52.6801 57.1709 52.4919 56.8698 52.3034 56.5697C52.1881 56.386 52.0887 56.389 51.9522 56.5585C51.8849 56.6421 51.814 56.7233 51.7389 56.7999C51.4858 57.0579 51.2139 57.2997 50.9793 57.5733C50.6075 58.007 50.1578 58.3647 49.8028 58.8129C49.747 58.8833 49.6953 58.8781 49.6301 58.8152C49.4574 58.6481 49.2748 58.4911 49.1034 58.3226C48.7643 57.989 48.4307 57.65 48.0927 57.3154C48.0508 57.2738 48.0098 57.1896 47.9427 57.2268C47.8721 57.266 47.9022 57.3526 47.9215 57.4174C48.0049 57.6975 48.1192 57.9663 48.2485 58.2269C48.8772 59.4925 49.5884 60.7122 50.3468 61.9039C50.5536 62.2287 50.751 62.567 51.0441 62.8248C51.4236 63.1584 51.8111 63.4844 52.207 63.7989C52.5331 64.0579 52.8354 64.3532 53.2071 64.5487C54.415 65.184 55.7139 65.4921 57.068 65.5692C57.7508 65.608 58.4354 65.5743 59.1154 65.4917C60.0597 65.377 60.9829 65.1705 61.8918 64.8845C63.0337 64.525 64.2144 64.3891 65.4072 64.3595C65.8242 64.3492 66.2416 64.3605 66.6598 64.3869C67.1728 64.4191 67.6806 64.466 68.1796 64.5897C69.195 64.8416 70.0386 65.3746 70.7289 66.1547C71.3093 66.8103 71.6364 67.595 71.8798 68.4225C71.9396 68.6261 72.0035 68.8287 72.0688 69.0417C72.1734 68.9768 72.1731 68.8879 72.1936 68.8127C72.3564 68.2094 72.3351 67.5969 72.2764 66.9838C72.1691 65.8611 71.8313 64.8053 71.3472 63.7923Z" fill="white"/>
<path d="M44.8168 51.4441C44.8814 52.031 45.0516 52.583 45.4144 53.0417C45.9627 53.7354 46.5521 54.3965 47.1272 55.0688C47.8171 55.8759 48.5108 56.6796 49.2019 57.4857C49.4443 57.7683 49.7247 57.791 50.0142 57.5547C50.1373 57.4543 50.2437 57.3412 50.3495 57.2231C50.965 56.5351 51.5864 55.8522 52.2087 55.1702C52.7799 54.5441 53.3608 53.9265 53.9241 53.2935C54.1084 53.0863 54.317 52.8983 54.4661 52.6599C54.9249 51.9269 54.9869 51.1311 54.7826 50.3187C54.5575 49.4251 54.1483 48.5978 53.7603 47.7662C53.3988 46.9915 53.0128 46.2281 52.6486 45.4545C52.5278 45.1978 52.401 44.9419 52.327 44.6642C52.1121 43.8557 52.1006 43.0245 52.0699 42.199C52.0372 41.3141 52.0727 40.4281 52.1748 39.5464C52.199 39.3386 52.1865 39.3317 51.9997 39.4028C51.2837 39.6749 50.5672 39.945 49.8533 40.2225C49.7486 40.2632 49.662 40.2552 49.5636 40.2159C48.758 39.8929 47.9326 39.6272 47.1078 39.3587C47.0502 39.3401 46.9792 39.2832 46.9313 39.3302C46.8726 39.3879 46.937 39.4595 46.9608 39.5216C47.3097 40.4309 47.5614 41.3609 47.5627 42.344C47.5567 42.5595 47.5537 42.7729 47.528 42.9883C47.4409 43.7216 47.2134 44.4102 46.8661 45.0557C46.6284 45.4974 46.4177 45.9507 46.2302 46.4131C45.914 47.1932 45.6239 47.9837 45.3248 48.7706C44.998 49.6316 44.7131 50.498 44.8168 51.4441ZM49.2041 41.2575C49.5492 41.0905 49.8999 41.0945 50.25 41.2366C50.3128 41.2622 50.3753 41.3184 50.3341 41.4025C50.1596 41.758 49.9816 42.1116 49.7871 42.5017C49.5574 42.1135 49.3484 41.7626 49.142 41.4103C49.0998 41.3384 49.14 41.2884 49.2041 41.2575Z" stroke="#FFA800" stroke-width="0.6" mask="url(#path-2-inside-1_239_825)"/>
<path d="M54.9238 37.2773C54.9712 37.1599 55.0241 37.0449 55.0705 36.9272C55.4885 35.8673 55.8862 34.8002 56.2656 33.7259C56.2898 33.6578 56.3633 33.5816 56.2904 33.5182C56.2347 33.4698 56.159 33.527 56.0952 33.549C54.9877 33.9299 53.8812 34.3132 52.7727 34.6913C52.6534 34.732 52.586 34.806 52.5331 34.9143C51.8822 36.2459 51.2282 37.5761 50.5761 38.9072C50.4844 39.0947 50.3975 39.2847 50.3119 39.4752C50.293 39.5171 50.2452 39.5793 50.3374 39.5986C50.3863 39.5763 50.427 39.5583 50.4669 39.5392C50.7188 39.4205 50.9708 39.3014 51.2226 39.1824C52.3671 38.6412 53.5115 38.0997 54.6564 37.5594C54.784 37.4995 54.8716 37.4069 54.9238 37.2773Z" stroke="#FFA800" stroke-width="0.6" mask="url(#path-2-inside-1_239_825)"/>
<path d="M49.6907 39.3434C49.7541 39.3402 49.7633 39.2631 49.7877 39.2143C50.5257 37.7279 51.262 36.2405 52.0017 34.755C52.0513 34.6552 52.0544 34.5711 52.0087 34.4684C51.8137 34.0288 51.6282 33.5854 51.4369 33.1442C51.0213 32.1866 50.6044 31.2295 50.1877 30.2727C50.0489 29.9535 49.9101 29.6344 49.7688 29.3166C49.7521 29.2789 49.741 29.2202 49.6867 29.2232C49.637 29.2259 49.625 29.2799 49.607 29.3195C49.5496 29.4462 49.4914 29.5727 49.4365 29.7006C48.7986 31.1893 48.161 32.6782 47.5237 34.1671C47.4694 34.2944 47.4183 34.4232 47.3674 34.547C47.3861 34.599 47.3975 34.642 47.4161 34.6814C48.1401 36.1948 48.8646 37.708 49.5908 39.2203C49.6137 39.268 49.6239 39.3467 49.6907 39.3434Z" stroke="#FFA800" stroke-width="0.6" mask="url(#path-2-inside-1_239_825)"/>
<path d="M27.2554 36.5783C28.6255 36.8182 29.9931 37.0731 31.3665 37.2932C31.483 37.3119 31.5994 37.3419 31.5961 37.4693C31.5923 37.6181 31.4578 37.6323 31.3387 37.6263C31.1051 37.6145 30.8713 37.6031 30.6387 37.5801C30.0668 37.5234 29.4953 37.4623 28.9243 37.3991C28.2904 37.3289 27.6571 37.2515 27.023 37.1831C26.8232 37.1615 26.5988 37.1175 26.456 37.3033C26.3237 37.4755 26.4156 37.671 26.4867 37.8447C26.8572 38.75 27.3895 39.5551 28.0243 40.2949C28.069 40.347 28.1282 40.386 28.2043 40.3885C28.7728 40.406 29.3368 40.4766 29.9027 40.5288C30.5948 40.5927 31.2855 40.6691 31.9733 40.768C32.1725 40.7967 32.3765 40.8159 32.5657 40.8952C32.6874 40.9462 32.6896 41.0161 32.5797 41.0813C32.5096 41.1229 32.432 41.1554 32.3541 41.1799C31.5252 41.4392 30.6729 41.6002 29.8244 41.777C29.6017 41.8234 29.3759 41.8599 29.158 41.9236C28.8964 42.0002 28.8008 42.194 28.8806 42.4534C28.9083 42.5434 28.9486 42.6323 28.999 42.7115C29.2711 43.1387 29.5484 43.5626 29.8231 43.9882C29.8652 44.0534 29.9205 44.1025 29.9819 44.149C30.3049 44.3951 30.6731 44.4146 31.0511 44.3544C31.4279 44.2945 31.7761 44.1308 32.1421 44.0292C32.9659 43.8004 33.7988 43.6102 34.6281 43.4045C34.7428 43.3761 34.8174 43.4197 34.8629 43.5119C34.9082 43.6033 34.8272 43.6536 34.7684 43.6953C34.6341 43.7903 34.4949 43.8789 34.3551 43.9655C33.5467 44.4663 32.6873 44.8738 31.8547 45.3304C31.5612 45.4913 31.5397 45.7211 31.8081 45.922C32.1576 46.1834 32.5283 46.4189 32.8619 46.6989C33.1922 46.976 33.5439 46.9641 33.9162 46.8617C34.3448 46.7439 34.7563 46.5764 35.1524 46.3764C35.6442 46.1282 36.1288 45.8656 36.6159 45.6084C36.709 45.5591 36.7951 45.5406 36.866 45.6422C36.9317 45.7363 36.8651 45.7942 36.8066 45.8539C36.523 46.1435 36.218 46.4098 35.9146 46.678C35.6628 46.9007 35.4283 47.1421 35.2458 47.427C35.1163 47.6291 35.1145 47.8296 35.2406 47.9745C35.3232 48.0696 35.4131 48.1582 35.5182 48.2326C36.1992 48.7154 36.9582 48.9273 37.789 48.9064C38.0809 48.8992 38.3278 48.8138 38.5368 48.5975C39.1929 47.9183 39.8567 47.2467 40.5203 46.5748C40.5959 46.4982 40.6773 46.3794 40.8073 46.4782C40.9352 46.5754 40.8455 46.6822 40.7951 46.7818C40.7809 46.8098 40.7629 46.8363 40.744 46.8617C40.4758 47.222 40.1954 47.5742 39.9421 47.9445C39.7329 48.2505 39.5119 48.5558 39.468 48.9454C39.4345 49.2429 39.5501 49.734 39.8711 49.907C40.4718 50.231 41.0899 50.2892 41.7425 50.0885C42.2668 49.9274 42.5677 49.532 42.849 49.1023C43.7854 47.6716 44.7237 46.2424 45.6673 44.8165C45.9317 44.4168 46.1395 44.0055 46.0933 43.6102C46.0943 42.6371 45.7597 41.9081 45.1613 41.292C44.7814 40.9008 44.3639 40.5522 43.9183 40.2377C43.068 39.6377 42.1427 39.1894 41.1501 38.8805C40.7696 38.762 40.3805 38.6694 40.0035 38.5413C39.054 38.2189 38.5237 37.4675 38.1134 36.618C37.8992 36.1745 37.7458 35.702 37.5599 35.2446C37.2335 34.4412 36.9098 33.6363 36.5727 32.8372C36.157 31.8516 35.7384 30.8671 35.3027 29.8903C34.9957 29.2022 34.6976 28.5042 34.2839 27.8736C33.7527 27.0642 33.2279 26.249 32.6432 25.4759C32.3269 25.0577 32.0342 24.6111 31.6031 24.3C30.4092 23.4382 29.0893 22.8108 27.7267 22.2691C27.5582 22.2022 27.387 22.128 27.1955 22.137C27.0964 22.1418 27.0217 22.1683 26.9902 22.2691C26.9576 22.3735 26.995 22.4569 27.0776 22.5193C27.1174 22.5495 27.1663 22.568 27.2124 22.5892C27.6496 22.7901 28.0947 22.9753 28.5224 23.1945C29.0629 23.4717 29.5892 23.7765 30.1219 24.0693C30.7775 24.4296 31.3323 24.8977 31.7005 25.561C31.7407 25.6336 31.8565 25.7111 31.7916 25.7895C31.7205 25.8754 31.5909 25.8302 31.4865 25.8122C31.4503 25.806 31.4166 25.7832 31.3827 25.7658C30.5872 25.359 29.7844 24.9668 28.9903 24.5569C27.4819 23.7783 25.9772 22.9928 24.476 22.2002C23.7031 21.792 22.9322 21.38 22.1532 20.9839C20.7634 20.2776 19.3946 19.5306 17.9793 18.8763C17.7439 18.7675 17.5047 18.6644 17.26 18.5799C17.0663 18.513 17.0026 18.569 17.0004 18.7685C16.9994 18.8696 16.9984 18.9699 17.0198 19.0711C17.1824 19.8422 17.4515 20.578 17.7266 21.3144C18.3065 22.8665 19.3426 24.0222 20.732 24.896C21.4634 25.356 22.2378 25.732 22.9991 26.133C24.0977 26.7119 25.2085 27.2672 26.3144 27.8323C26.9576 28.1609 27.6017 28.488 28.2447 28.8173C28.3291 28.8605 28.4086 28.9131 28.4905 28.9611C28.5656 29.0052 28.6045 29.0657 28.5614 29.1503C28.5232 29.2254 28.4644 29.2674 28.3748 29.2299C28.3105 29.203 28.2452 29.1793 28.1816 29.151C27.5572 28.8725 26.9353 28.5883 26.3084 28.3155C25.3333 27.8911 24.3574 27.4689 23.3775 27.056C22.4908 26.6824 21.6074 26.299 20.687 26.0122C20.4174 25.9283 20.3091 26.0256 20.3594 26.3002C20.4109 26.5819 20.5082 26.8497 20.6161 27.1138C20.8121 27.5935 20.9616 28.0925 21.2358 28.5399C21.7623 29.3984 22.5154 29.9973 23.3908 30.4627C24.0196 30.797 24.69 31.0282 25.3541 31.2773C26.1722 31.5842 26.9666 31.9496 27.7632 32.3081C28.1095 32.464 28.4532 32.6262 28.7978 32.7858C28.8827 32.8252 28.9338 32.8833 28.8904 32.9813C28.851 33.0708 28.7832 33.1011 28.6891 33.0646C28.6537 33.0509 28.6168 33.0411 28.581 33.0287C27.9105 32.7975 27.2404 32.5653 26.5694 32.3349C25.4673 31.9566 24.3647 31.5794 23.2624 31.2017C23.1089 31.1492 22.9486 31.1034 22.817 31.2326C22.6878 31.3593 22.7497 31.5153 22.7914 31.6616C22.7983 31.6858 22.8108 31.7085 22.8208 31.7317C23.1374 32.4637 23.6024 33.1055 24.0596 33.7507C24.4657 34.3238 24.9027 34.8734 25.3688 35.3989C25.8803 35.9761 26.4475 36.4369 27.2554 36.5783Z" stroke="#FFA800" stroke-width="0.6" mask="url(#path-2-inside-1_239_825)"/>
<path d="M46.7097 34.7827C45.5441 34.3601 44.3795 33.9354 43.2146 33.5112C43.1909 33.5025 43.1676 33.4933 43.145 33.4848C43.0201 33.5015 43.0701 33.5819 43.0903 33.64C43.2089 33.9804 43.332 34.3193 43.4531 34.6589C43.7289 35.4336 44.0055 36.208 44.2787 36.9837C44.3099 37.0723 44.3547 37.1377 44.4402 37.1822C44.9342 37.4391 45.4273 37.6979 45.9191 37.9588C46.9138 38.4866 47.9076 39.0163 48.9025 39.5438C48.9499 39.5688 49.008 39.6267 49.0555 39.5818C49.1054 39.5347 49.0443 39.4775 49.0215 39.4296C48.8365 39.041 48.6475 38.6543 48.4633 38.2654C47.9406 37.1617 47.4193 36.0575 46.8995 34.9527C46.8588 34.8656 46.7989 34.815 46.7097 34.7827Z" stroke="#FFA800" stroke-width="0.6" mask="url(#path-2-inside-1_239_825)"/>
<path d="M68.5308 65.5978C67.9119 65.3568 67.2706 65.2155 66.6045 65.2223C66.1751 65.2267 65.8198 65.3803 65.5861 65.7718C65.468 65.9695 65.4148 66.1922 65.2956 66.3891C64.9777 66.915 64.627 67.4188 64.2709 67.9193C63.5872 68.8797 62.8681 69.8094 61.9701 70.5849C61.7789 70.7501 61.6032 70.9358 61.4012 71.0859C60.5583 71.7125 59.694 72.311 58.8644 72.9546C58.1033 73.5452 57.2499 73.918 56.3345 74.1781C55.6209 74.3809 54.899 74.5324 54.1577 74.5918C53.4403 74.6492 52.7289 74.645 52.0295 74.4515C51.5394 74.3159 51.0858 74.087 50.6221 73.8847C48.8691 73.1189 47.1449 72.2912 45.4276 71.4497C44.7204 71.1031 44.0041 70.7925 43.2521 70.5594C42.2792 70.2578 41.2824 70.0985 40.2677 70.0566C39.7175 70.0338 39.1693 70.0918 38.6226 70.1617C37.5451 70.2993 36.5179 70.5884 35.5643 71.1224C34.4453 71.7492 33.615 72.6468 33.0598 73.7959C32.5842 74.7803 32.393 75.8391 32.3437 76.92C32.307 77.722 32.3043 78.5259 32.2214 79.3257C32.1762 79.7619 32.0342 80.1676 31.78 80.5248C31.431 81.0151 30.9539 81.3372 30.3877 81.5324C30.0819 81.6377 29.7705 81.7199 29.4538 81.7868C29.3846 81.8013 29.1873 81.8068 29.3426 81.9613C29.8707 82.4868 30.4544 82.901 31.2588 82.7345C31.9563 82.5899 32.6149 82.3498 33.1069 81.801C33.4857 81.3786 33.7753 80.8973 33.9934 80.371C34.0444 80.2475 34.0464 80.0292 34.1669 80.0225C34.287 80.0157 34.3587 80.2158 34.4476 80.3283C34.6863 80.6299 34.9019 80.9517 35.225 81.2076C35.2587 81.1142 35.2288 81.0496 35.2117 80.9829C35.0173 80.2344 34.8757 79.4752 34.8295 78.7039C34.7829 77.9236 34.8335 77.1463 35.0669 76.3925C35.2882 75.6768 35.6474 75.0429 36.2214 74.5503C37.0537 73.8359 38.0548 73.5857 39.1203 73.5293C39.7106 73.498 40.2964 73.5692 40.8786 73.6504C42.5401 73.8825 44.0351 74.5591 45.45 75.4242C46.546 76.0944 47.6205 76.7995 48.7073 77.4848C50.0941 78.3591 51.4834 79.2299 52.8727 80.1004C53.3608 80.4062 53.836 80.7375 54.3458 81.0022C55.3796 81.5392 56.4793 81.8884 57.6291 82.0994C58.2837 82.2195 58.9314 82.3547 59.6002 82.318C59.8458 82.3044 60.0925 82.2822 60.3349 82.2412C61.008 82.1271 61.6956 82.0584 62.3404 81.8335C63.6546 81.3749 64.8389 80.6651 65.9444 79.8272C66.7475 79.2184 67.4805 78.533 68.1359 77.7627C68.6421 77.1682 69.0975 76.5396 69.5147 75.8815C69.9913 75.1296 70.3507 74.3182 70.7152 73.5105C71.0623 72.7419 71.2717 71.935 71.3175 71.0926C71.3651 70.2199 71.2573 69.3625 71.0143 68.5214C70.6252 67.1728 69.8837 66.1251 68.5308 65.5978Z" stroke="#FFA800" stroke-width="0.6" mask="url(#path-2-inside-1_239_825)"/>
<path d="M81.9484 18.0756C80.7484 18.5767 79.602 19.1884 78.449 19.7863C77.2118 20.4281 75.9765 21.0727 74.741 21.7181C74.0339 22.0876 73.3307 22.4656 72.6216 22.8315C71.152 23.5898 69.6809 24.3452 68.2067 25.0947C68.0398 25.1796 67.8695 25.2741 67.6757 25.2931C67.622 25.2984 67.5546 25.3153 67.5192 25.2555C67.4892 25.2045 67.53 25.1581 67.5542 25.1156C67.8286 24.6381 68.1691 24.2176 68.6219 23.8969C69.1969 23.4899 69.831 23.1828 70.4429 22.8386C71.0061 22.5218 71.6038 22.2716 72.1893 21.9982C72.3063 21.9436 72.3772 21.8606 72.3248 21.7268C72.2768 21.604 72.1863 21.5641 72.0502 21.5905C71.862 21.6268 71.6827 21.6862 71.5064 21.7566C70.3683 22.2107 69.2783 22.7609 68.2304 23.395C67.8095 23.6497 67.4455 23.967 67.1318 24.3484C66.7371 24.8281 66.3723 25.3296 66.03 25.8464C65.5374 26.5899 64.9937 27.3001 64.607 28.1128C64.2725 28.8163 63.941 29.521 63.6251 30.2331C63.0419 31.5469 62.5034 32.8793 61.9522 34.2065C61.6609 34.908 61.4226 35.632 61.0811 36.3121C60.5985 37.2731 59.8703 37.9041 58.7895 38.1645C56.9933 38.5974 55.412 39.4472 54.1201 40.7944C53.5418 41.3975 53.2368 42.1108 53.2225 43.0899C53.1843 43.4158 53.3419 43.8209 53.6067 44.1942C53.6689 44.2821 53.7289 44.3715 53.7868 44.4623C54.7232 45.9307 55.6721 47.3908 56.6603 48.825C56.7664 48.9791 56.8655 49.1418 57.0282 49.2539C57.7655 49.7617 58.5392 49.7874 59.3353 49.4232C59.5939 49.3051 59.7585 49.0902 59.8241 48.8036C59.8936 48.4994 59.8486 48.2133 59.71 47.9393C59.5378 47.5985 59.3043 47.2976 59.0809 46.9905C58.8802 46.7144 58.653 46.4576 58.4793 46.1615C58.4323 46.0813 58.4199 46.0114 58.5042 45.9453C58.5858 45.8814 58.6553 45.8971 58.7231 45.9642C58.7591 45.9997 58.7956 46.0351 58.8313 46.0711C59.4215 46.664 60.0269 47.2424 60.5853 47.8663C60.9361 48.2585 61.3602 48.4346 61.8828 48.3711C61.9832 48.3589 62.0838 48.3482 62.1836 48.3324C62.8467 48.2271 63.4528 47.9887 63.9706 47.5525C64.1951 47.3631 64.225 47.1912 64.0949 46.9292C64.0121 46.7626 63.8873 46.6278 63.7617 46.494C63.3712 46.0778 62.9199 45.7261 62.5161 45.3239C62.4467 45.2547 62.3713 45.1806 62.4598 45.081C62.5378 44.9933 62.6238 45.0271 62.7168 45.076C63.2159 45.3383 63.7163 45.5982 64.2198 45.8522C64.6048 46.0466 65.003 46.2089 65.4199 46.3237C65.7836 46.4239 66.1227 46.4293 66.4422 46.1715C66.7718 45.9058 67.1282 45.6734 67.4673 45.4192C67.7898 45.1775 67.7753 44.9794 67.4293 44.7647C67.4078 44.7514 67.3852 44.7396 67.3627 44.7279C67.0311 44.5554 66.6971 44.3877 66.3683 44.2099C65.7616 43.8814 65.146 43.5676 64.5798 43.1694C64.4994 43.1129 64.4153 43.058 64.4685 42.9416C64.5211 42.8266 64.623 42.847 64.7161 42.8698C65.4288 43.046 66.1386 43.2348 66.8544 43.3985C67.361 43.5142 67.8331 43.7441 68.3488 43.8265C68.7628 43.8926 69.3359 43.7688 69.6003 43.3057C69.8292 42.9049 70.0962 42.5258 70.339 42.1326C70.601 41.7082 70.4838 41.4397 69.9978 41.3311C69.9731 41.3256 69.9478 41.3234 69.9227 41.3186C69.0473 41.1462 68.1738 40.9644 67.3088 40.7445C67.1378 40.701 66.9699 40.6413 66.8059 40.5755C66.7485 40.5523 66.6581 40.5255 66.6659 40.4402C66.6734 40.3578 66.7577 40.3405 66.8244 40.3263C66.9974 40.2894 67.1712 40.2539 67.3462 40.2282C67.9089 40.1455 68.4727 40.0739 69.0399 40.0252C69.6565 39.9721 70.2709 39.8886 70.8885 39.856C71.1389 39.8429 71.3095 39.7559 71.4525 39.5711C71.7394 39.2008 72.0279 38.8319 72.2651 38.4264C72.5116 38.005 72.7549 37.5814 72.8948 37.11C72.9864 36.8022 72.8663 36.6477 72.549 36.6374C72.2814 36.6287 72.0207 36.6849 71.7569 36.7128C71.116 36.7805 70.4736 36.8354 69.8347 36.916C69.2134 36.9941 68.5888 37.0253 67.9674 37.0921C67.8472 37.1052 67.7402 37.0603 67.723 36.9353C67.7069 36.8192 67.8085 36.78 67.9086 36.761C67.9523 36.7528 67.9945 36.737 68.0377 36.7305C69.3634 36.5296 70.6856 36.3081 71.9987 36.0363C72.4366 35.9458 72.8781 35.8642 73.2385 35.5506C73.5596 35.2708 73.856 34.9687 74.132 34.6474C74.7969 33.8738 75.3986 33.0522 75.9496 32.1936C76.1722 31.8466 76.3782 31.49 76.5322 31.1066C76.5894 30.9641 76.6221 30.804 76.4975 30.6779C76.3774 30.5563 76.2351 30.5981 76.0899 30.649C75.3247 30.9164 74.5575 31.1787 73.7908 31.4414C72.7659 31.7922 71.7409 32.1417 70.7156 32.4916C70.6032 32.5299 70.4758 32.568 70.425 32.421C70.3767 32.2819 70.5076 32.2395 70.6032 32.1953C70.7929 32.1079 70.9869 32.0296 71.1767 31.9427C72.0867 31.5268 72.9939 31.1048 73.93 30.7503C74.7405 30.4432 75.5606 30.1619 76.3071 29.7048C77.1631 29.1805 77.8698 28.5172 78.2947 27.5959C78.4957 27.16 78.649 26.702 78.824 26.2541C78.8887 26.0883 78.9361 25.9171 78.9634 25.742C79.0021 25.4911 78.9036 25.3933 78.6625 25.4596C78.4431 25.5198 78.2279 25.5975 78.0141 25.6773C77.1182 26.0116 76.2376 26.3834 75.3588 26.7603C74.358 27.1895 73.3613 27.6276 72.3637 28.064C71.9054 28.2643 71.4492 28.4685 70.9931 28.6742C70.9063 28.7132 70.8263 28.7182 70.7757 28.635C70.7213 28.5456 70.7555 28.4635 70.8408 28.4059C70.8721 28.3848 70.9072 28.3691 70.941 28.3516C71.5701 28.0239 72.1983 27.6936 72.8293 27.3692C73.9169 26.81 75.0046 26.2513 76.0955 25.6983C76.9261 25.2774 77.7632 24.8688 78.5527 24.3729C79.4632 23.8009 80.2588 23.1052 80.8609 22.2047C81.4713 21.2919 81.7954 20.2567 82.1259 19.2251C82.2186 18.9359 82.297 18.6403 82.316 18.3361C82.3391 17.9725 82.2837 17.9356 81.9484 18.0756Z" stroke="#FFA800" stroke-width="0.6" mask="url(#path-2-inside-1_239_825)"/>
<path d="M71.3472 63.7923C70.7668 62.5774 70.114 61.4096 69.2187 60.3897C68.5641 59.6442 67.8136 59.0226 66.9458 58.5452C66.1916 58.1304 65.3847 57.8624 64.5447 57.6722C63.5009 57.4358 62.4645 57.4722 61.4464 57.7544C60.3734 58.052 59.3186 58.4157 58.2539 58.7445C57.6278 58.9379 56.9816 59.0403 56.3296 59.047C55.6685 59.0536 55.0253 58.9167 54.3995 58.689C53.7487 58.4521 53.1949 58.1086 52.8504 57.4813C52.6801 57.1709 52.4919 56.8698 52.3034 56.5697C52.1881 56.386 52.0887 56.389 51.9522 56.5585C51.8849 56.6421 51.814 56.7233 51.7389 56.7999C51.4858 57.0579 51.2139 57.2997 50.9793 57.5733C50.6075 58.007 50.1578 58.3647 49.8028 58.8129C49.747 58.8833 49.6953 58.8781 49.6301 58.8152C49.4574 58.6481 49.2748 58.4911 49.1034 58.3226C48.7643 57.989 48.4307 57.65 48.0927 57.3154C48.0508 57.2738 48.0098 57.1896 47.9427 57.2268C47.8721 57.266 47.9022 57.3526 47.9215 57.4174C48.0049 57.6975 48.1192 57.9663 48.2485 58.2269C48.8772 59.4925 49.5884 60.7122 50.3468 61.9039C50.5536 62.2287 50.751 62.567 51.0441 62.8248C51.4236 63.1584 51.8111 63.4844 52.207 63.7989C52.5331 64.0579 52.8354 64.3532 53.2071 64.5487C54.415 65.184 55.7139 65.4921 57.068 65.5692C57.7508 65.608 58.4354 65.5743 59.1154 65.4917C60.0597 65.377 60.9829 65.1705 61.8918 64.8845C63.0337 64.525 64.2144 64.3891 65.4072 64.3595C65.8242 64.3492 66.2416 64.3605 66.6598 64.3869C67.1728 64.4191 67.6806 64.466 68.1796 64.5897C69.195 64.8416 70.0386 65.3746 70.7289 66.1547C71.3093 66.8103 71.6364 67.595 71.8798 68.4225C71.9396 68.6261 72.0035 68.8287 72.0688 69.0417C72.1734 68.9768 72.1731 68.8879 72.1936 68.8127C72.3564 68.2094 72.3351 67.5969 72.2764 66.9838C72.1691 65.8611 71.8313 64.8053 71.3472 63.7923Z" stroke="#FFA800" stroke-width="0.6" mask="url(#path-2-inside-1_239_825)"/>
<g style="mix-blend-mode:multiply">
<path d="M10 50.5C10 71.763 17 85 17 85C17 85 2 71.763 2 50.5C2 29.237 15 18 15 18C15 18 10 29.237 10 50.5Z" fill="url(#paint1_linear_239_825)"/>
</g>
<path d="M98 50C98 75.9574 78.0767 97 53.5 97C28.9234 97 58.5001 84.9574 58.5001 59C58.5001 33.0426 28.9234 3 53.5 3C78.0767 3 98 24.0426 98 50Z" fill="url(#paint2_linear_239_825)" fill-opacity="0.4"/>
<defs>
<linearGradient id="paint0_linear_239_825" x1="107.5" y1="-4.5" x2="43.5" y2="100" gradientUnits="userSpaceOnUse">
<stop stop-color="#FFA800"/>
<stop offset="1" stop-color="#FFD700"/>
</linearGradient>
<linearGradient id="paint1_linear_239_825" x1="2" y1="29" x2="24.5" y2="98" gradientUnits="userSpaceOnUse">
<stop stop-color="#DBDCDC" stop-opacity="0.5"/>
<stop offset="1" stop-color="#DBDCDC" stop-opacity="0"/>
</linearGradient>
<linearGradient id="paint2_linear_239_825" x1="87.5" y1="9" x2="13" y2="128.5" gradientUnits="userSpaceOnUse">
<stop stop-color="white"/>
<stop offset="1" stop-color="white" stop-opacity="0"/>
</linearGradient>
</defs>
</svg>
