<svg width="100" height="100" viewBox="0 0 100 100" fill="none" xmlns="http://www.w3.org/2000/svg">
<circle cx="50" cy="50" r="50" fill="url(#paint0_linear_323_2342)"/>
<g style="mix-blend-mode:multiply">
<path d="M10 50.5C10 71.763 17 85 17 85C17 85 2 71.763 2 50.5C2 29.237 15 18 15 18C15 18 10 29.237 10 50.5Z" fill="url(#paint1_linear_323_2342)"/>
</g>
<path d="M98 50C98 75.9574 78.0767 97 53.5 97C28.9234 97 58.5001 84.9574 58.5001 59C58.5001 33.0426 28.9234 3 53.5 3C78.0767 3 98 24.0426 98 50Z" fill="url(#paint2_linear_323_2342)" fill-opacity="0.4"/>
<path d="M78.9145 50C78.9145 65.6929 66.1929 78.4145 50.5 78.4145C34.8071 78.4145 22.0855 65.6929 22.0855 50C22.0855 34.3071 34.8071 21.5855 50.5 21.5855C66.1929 21.5855 78.9145 34.3071 78.9145 50ZM50.5 66.4725C59.5975 66.4725 66.9725 59.0975 66.9725 50C66.9725 40.9025 59.5975 33.5275 50.5 33.5275C41.4025 33.5275 34.0275 40.9025 34.0275 50C34.0275 59.0975 41.4025 66.4725 50.5 66.4725Z" fill="white" stroke="url(#paint3_linear_323_2342)" stroke-width="0.3"/>
<defs>
<linearGradient id="paint0_linear_323_2342" x1="107.5" y1="-4.5" x2="43.5" y2="100" gradientUnits="userSpaceOnUse">
<stop stop-color="#FFA800"/>
<stop offset="1" stop-color="#FFD700"/>
</linearGradient>
<linearGradient id="paint1_linear_323_2342" x1="2" y1="29" x2="24.5" y2="98" gradientUnits="userSpaceOnUse">
<stop stop-color="#DBDCDC" stop-opacity="0.5"/>
<stop offset="1" stop-color="#DBDCDC" stop-opacity="0"/>
</linearGradient>
<linearGradient id="paint2_linear_323_2342" x1="87.5" y1="9" x2="13" y2="128.5" gradientUnits="userSpaceOnUse">
<stop stop-color="white"/>
<stop offset="1" stop-color="white" stop-opacity="0"/>
</linearGradient>
<linearGradient id="paint3_linear_323_2342" x1="83.3491" y1="18.8647" x2="46.7866" y2="78.5645" gradientUnits="userSpaceOnUse">
<stop stop-color="#FFA800"/>
<stop offset="1" stop-color="#FFD700"/>
</linearGradient>
</defs>
</svg>
