<svg width="100" height="100" viewBox="0 0 100 100" fill="none" xmlns="http://www.w3.org/2000/svg">
<circle cx="50" cy="50" r="50" fill="url(#paint0_linear_323_2356)"/>
<g style="mix-blend-mode:multiply">
<path d="M10 50.5C10 71.763 17 85 17 85C17 85 2 71.763 2 50.5C2 29.237 15 18 15 18C15 18 10 29.237 10 50.5Z" fill="url(#paint1_linear_323_2356)"/>
</g>
<path d="M97.9998 50C97.9998 75.9574 78.0765 97 53.4998 97C28.9231 97 58.4998 84.9574 58.4998 59C58.4998 33.0426 28.9231 3 53.4998 3C78.0765 3 97.9998 24.0426 97.9998 50Z" fill="url(#paint2_linear_323_2356)" fill-opacity="0.4"/>
<g clip-path="url(#clip0_323_2356)">
<path d="M72.2195 67.3324L72.1448 67.3922L72.1675 67.4852C72.4395 68.5989 72.5869 69.7891 72.5869 71.026C72.5869 74.1653 71.6382 77.0016 70.1116 79.0497C68.585 81.0977 66.4877 82.35 64.1842 82.35C61.4561 82.35 59.0153 80.5922 57.473 77.8382L57.3421 77.6045L57.2113 77.8382C55.6689 80.5922 53.2281 82.35 50.5 82.35C47.5076 82.35 44.8595 80.2339 43.3664 77.0102L43.2303 76.7163L43.0942 77.0102C41.6011 80.2339 38.953 82.35 35.9606 82.35C33.657 82.35 31.5597 81.0977 30.0332 79.0497C28.5066 77.0016 27.5579 74.1653 27.5579 71.026C27.5579 69.575 27.7606 68.1881 28.1296 66.9139L28.1566 66.8206L28.0826 66.7578C21.9571 61.5631 18.15 54.2643 18.15 46.1851C18.15 30.4426 32.6154 17.65 50.5 17.65C68.3846 17.65 82.85 30.4426 82.85 46.1851C82.85 54.5668 78.7524 62.1088 72.2195 67.3324ZM50.0724 61.4671C55.4159 61.4671 60.2593 59.8282 63.7701 57.1713C67.2809 54.5143 69.4659 50.8326 69.4659 46.7539C69.4659 42.6752 67.2809 38.9936 63.7701 36.3366C60.2593 33.6797 55.4159 32.0408 50.0724 32.0408C44.7288 32.0408 39.8855 33.6797 36.3747 36.3366C32.8639 38.9936 30.679 42.6752 30.679 46.7539C30.679 50.8326 32.8639 54.5143 36.3747 57.1713C39.8855 59.8282 44.7288 61.4671 50.0724 61.4671Z" fill="white" stroke="url(#paint3_linear_323_2356)" stroke-width="0.3"/>
</g>
<defs>
<linearGradient id="paint0_linear_323_2356" x1="107.5" y1="-4.5" x2="43.5" y2="100" gradientUnits="userSpaceOnUse">
<stop stop-color="#FFA800"/>
<stop offset="1" stop-color="#FFD700"/>
</linearGradient>
<linearGradient id="paint1_linear_323_2356" x1="2" y1="29" x2="24.5" y2="98" gradientUnits="userSpaceOnUse">
<stop stop-color="#DBDCDC" stop-opacity="0.5"/>
<stop offset="1" stop-color="#DBDCDC" stop-opacity="0"/>
</linearGradient>
<linearGradient id="paint2_linear_323_2356" x1="87.4998" y1="9" x2="12.9998" y2="128.5" gradientUnits="userSpaceOnUse">
<stop stop-color="white"/>
<stop offset="1" stop-color="white" stop-opacity="0"/>
</linearGradient>
<linearGradient id="paint3_linear_323_2356" x1="87.875" y1="14.575" x2="46.275" y2="82.5" gradientUnits="userSpaceOnUse">
<stop stop-color="#FFA800"/>
<stop offset="1" stop-color="#FFD700"/>
</linearGradient>
<clipPath id="clip0_323_2356">
<rect width="65" height="65" fill="white" transform="translate(18 17.5)"/>
</clipPath>
</defs>
</svg>
