<svg width="100" height="100" viewBox="0 0 100 100" fill="none" xmlns="http://www.w3.org/2000/svg">
<circle cx="50" cy="50" r="50" fill="url(#paint0_linear_323_2365)"/>
<g style="mix-blend-mode:multiply">
<path d="M10 50.5C10 71.763 17 85 17 85C17 85 2 71.763 2 50.5C2 29.237 15 18 15 18C15 18 10 29.237 10 50.5Z" fill="url(#paint1_linear_323_2365)"/>
</g>
<path d="M97.9998 50C97.9998 75.9574 78.0765 97 53.4998 97C28.9231 97 58.4998 84.9574 58.4998 59C58.4998 33.0426 28.9231 3 53.4998 3C78.0765 3 97.9998 24.0426 97.9998 50Z" fill="url(#paint2_linear_323_2365)" fill-opacity="0.4"/>
<path d="M75.9751 71.5956L75.9803 71.591L77.3507 74.2744L77.4537 74.3835L77.3507 74.2745L77.3505 74.2747L77.3494 74.2757L77.3448 74.28L77.3256 74.2977C77.3084 74.3135 77.2824 74.3372 77.2477 74.3682C77.1784 74.4302 77.0743 74.5214 76.9363 74.6376C76.6604 74.8699 76.2489 75.2021 75.7083 75.5994C74.6271 76.394 73.0301 77.449 70.97 78.4881C66.8497 80.5662 60.8788 82.5794 53.4752 82.3204C46.07 82.0613 37.9877 79.4179 31.6723 74.534C25.3596 69.6522 20.8153 62.5355 20.4668 53.3214C19.7681 34.8506 30.678 19.5136 48.2217 17.8307C57.0103 16.9877 65.0801 19.1248 70.9493 23.5893C76.816 28.0519 80.4923 34.8454 80.4923 43.3392C80.4923 51.8519 78.1834 57.7699 74.7305 61.8146C71.2764 65.8606 66.665 68.0468 62.0345 69.0716C57.4208 70.0926 52.1725 69.1845 47.8729 66.7918C43.5741 64.3994 40.2398 60.5326 39.4257 55.6482C38.6062 50.7316 39.1283 45.9843 40.9823 42.329C42.8337 38.6787 46.0145 36.113 50.5356 35.543C59.6019 34.4001 64.7462 40.0496 65.7005 45.3479C66.1775 47.9962 65.5944 50.6516 64.0343 52.6584C62.476 54.6629 59.9334 56.0329 56.4649 56.095C53.0207 56.1566 51.0974 54.407 50.0275 52.6379C49.4911 51.7508 49.1696 50.8584 48.9823 50.1869C48.8888 49.8515 48.8289 49.572 48.7926 49.3769C48.7744 49.2794 48.7621 49.203 48.7543 49.1514C48.7505 49.1256 48.7478 49.106 48.746 49.093L48.7459 49.0918L48.7488 49.0699C48.7524 49.0433 48.7581 49.004 48.7661 48.9536C48.7823 48.8529 48.808 48.7085 48.8461 48.5349C48.9224 48.1871 49.0478 47.7254 49.244 47.2654C49.6415 46.3337 50.3001 45.4713 51.3751 45.4713C51.9205 45.4713 52.218 45.6585 52.3911 45.9283C52.5732 46.2122 52.6347 46.6132 52.6422 47.072C52.646 47.2988 52.6366 47.5335 52.625 47.7675C52.6225 47.8165 52.62 47.8656 52.6174 47.9146C52.6079 48.0978 52.5985 48.2795 52.595 48.4512C52.5905 48.6688 52.5952 48.8777 52.6226 49.0627C52.6497 49.2463 52.701 49.4194 52.7992 49.5555C52.9089 49.7074 53.0026 49.8559 53.0955 50.0031C53.1325 50.0619 53.1695 50.1204 53.2073 50.1789C53.3373 50.3802 53.4746 50.5762 53.6486 50.7457C54.0059 51.0936 54.496 51.3088 55.3424 51.3088C56.1842 51.3088 57.1178 51.0764 57.8445 50.5092C58.5769 49.9376 59.0863 49.0355 59.0863 47.7288C59.0863 46.4463 58.7876 45.0475 58.0403 43.9646C57.2879 42.8744 56.087 42.1149 54.316 42.1149C52.5745 42.1149 50.7364 42.5302 49.3295 43.5481C47.9157 44.571 46.9502 46.1938 46.9502 48.5728C46.9502 50.9247 47.4893 53.3963 48.9553 55.2832C50.4264 57.1767 52.8151 58.4611 56.4676 58.4611C63.7897 58.4611 68.4886 52.638 68.4886 46.002C68.4886 42.6796 67.0547 38.8843 64.5282 35.9192C61.9998 32.9519 58.3674 30.8055 53.9658 30.8055C49.598 30.8055 44.1714 31.7981 39.8328 34.9856C35.4863 38.1789 32.2512 43.5611 32.2512 52.2952C32.2512 55.9977 33.9142 61.2703 37.1248 65.8748C40.3371 70.4819 45.1123 74.4392 51.3504 75.4797C59.5298 76.8439 65.6803 75.8784 69.7899 74.5681C71.8443 73.9131 73.3877 73.1721 74.419 72.5939C74.9346 72.3047 75.3222 72.0563 75.5815 71.8795C75.7112 71.7912 75.8089 71.7207 75.8744 71.6721C75.9072 71.6478 75.932 71.6289 75.9487 71.616L75.9679 71.6011L75.9729 71.5971L75.9743 71.596L75.9747 71.5956C75.9748 71.5955 75.9749 71.5955 75.8811 71.4784L75.9751 71.5956Z" fill="white" stroke="url(#paint3_linear_323_2365)" stroke-width="0.3"/>
<defs>
<linearGradient id="paint0_linear_323_2365" x1="107.5" y1="-4.5" x2="43.5" y2="100" gradientUnits="userSpaceOnUse">
<stop stop-color="#FFA800"/>
<stop offset="1" stop-color="#FFD700"/>
</linearGradient>
<linearGradient id="paint1_linear_323_2365" x1="2" y1="29" x2="24.5" y2="98" gradientUnits="userSpaceOnUse">
<stop stop-color="#DBDCDC" stop-opacity="0.5"/>
<stop offset="1" stop-color="#DBDCDC" stop-opacity="0"/>
</linearGradient>
<linearGradient id="paint2_linear_323_2365" x1="87.4998" y1="9" x2="12.9998" y2="128.5" gradientUnits="userSpaceOnUse">
<stop stop-color="white"/>
<stop offset="1" stop-color="white" stop-opacity="0"/>
</linearGradient>
<linearGradient id="paint3_linear_323_2365" x1="85.1691" y1="14.5753" x2="42.2464" y2="79.6611" gradientUnits="userSpaceOnUse">
<stop stop-color="#FFA800"/>
<stop offset="1" stop-color="#FFD700"/>
</linearGradient>
</defs>
</svg>
