<svg width="100" height="100" viewBox="0 0 100 100" fill="none" xmlns="http://www.w3.org/2000/svg">
<circle cx="50" cy="50" r="50" fill="url(#paint0_linear_323_2374)"/>
<g style="mix-blend-mode:multiply">
<path d="M10 50.5C10 71.763 17 85 17 85C17 85 2 71.763 2 50.5C2 29.237 15 18 15 18C15 18 10 29.237 10 50.5Z" fill="url(#paint1_linear_323_2374)"/>
</g>
<path d="M97.9998 50C97.9998 75.9574 78.0765 97 53.4998 97C28.9231 97 58.4998 84.9574 58.4998 59C58.4998 33.0426 28.9231 3 53.4998 3C78.0765 3 97.9998 24.0426 97.9998 50Z" fill="url(#paint2_linear_323_2374)" fill-opacity="0.4"/>
<g clip-path="url(#clip0_323_2374)">
<mask id="path-4-inside-1_323_2374" fill="white">
<path fill-rule="evenodd" clip-rule="evenodd" d="M68.164 48.5727C68.1603 48.5676 68.1588 48.5612 68.1598 48.555L72.3066 24.3747C72.3085 24.3636 72.3183 24.3555 72.3295 24.3555H73.6419C73.6521 24.3555 73.6609 24.362 73.664 24.3717L83.0065 53.9522C83.0094 53.9613 83.0062 53.9715 82.9986 53.9774L76.1103 59.3556C76.1 59.3636 76.0851 59.3615 76.0774 59.351L68.164 48.5727ZM17.873 64.6024C17.873 64.6124 17.8795 64.6213 17.889 64.6245L32.0886 69.2673C32.0955 69.2696 32.1031 69.2684 32.1091 69.2644L63.8485 47.3523C63.8538 47.3486 63.8574 47.3429 63.8583 47.3365L67.2619 24.4987C67.264 24.4847 67.2531 24.4721 67.239 24.4721H39.1258C39.1188 24.4721 39.1123 24.4752 39.1079 24.4805L17.8784 50.0906C17.8749 50.0948 17.873 50.1 17.873 50.1055V64.6024ZM38.0057 70.4502L53.5184 75.5318C53.5254 75.5341 53.5332 75.5329 53.5391 75.5286L72.0081 62.2807C72.0184 62.2734 72.021 62.2594 72.014 62.2489L65.0905 51.9461C65.0832 51.9353 65.0688 51.9325 65.0581 51.9398L38.0057 70.4502Z"/>
</mask>
<path fill-rule="evenodd" clip-rule="evenodd" d="M68.164 48.5727C68.1603 48.5676 68.1588 48.5612 68.1598 48.555L72.3066 24.3747C72.3085 24.3636 72.3183 24.3555 72.3295 24.3555H73.6419C73.6521 24.3555 73.6609 24.362 73.664 24.3717L83.0065 53.9522C83.0094 53.9613 83.0062 53.9715 82.9986 53.9774L76.1103 59.3556C76.1 59.3636 76.0851 59.3615 76.0774 59.351L68.164 48.5727ZM17.873 64.6024C17.873 64.6124 17.8795 64.6213 17.889 64.6245L32.0886 69.2673C32.0955 69.2696 32.1031 69.2684 32.1091 69.2644L63.8485 47.3523C63.8538 47.3486 63.8574 47.3429 63.8583 47.3365L67.2619 24.4987C67.264 24.4847 67.2531 24.4721 67.239 24.4721H39.1258C39.1188 24.4721 39.1123 24.4752 39.1079 24.4805L17.8784 50.0906C17.8749 50.0948 17.873 50.1 17.873 50.1055V64.6024ZM38.0057 70.4502L53.5184 75.5318C53.5254 75.5341 53.5332 75.5329 53.5391 75.5286L72.0081 62.2807C72.0184 62.2734 72.021 62.2594 72.014 62.2489L65.0905 51.9461C65.0832 51.9353 65.0688 51.9325 65.0581 51.9398L38.0057 70.4502Z" fill="white"/>
<path d="M68.164 48.5727L67.9211 48.7488L67.9222 48.7502L68.164 48.5727ZM68.1598 48.555L67.8641 48.5043L67.8637 48.5067L68.1598 48.555ZM72.3066 24.3747L72.6023 24.4254L72.6023 24.4253L72.3066 24.3747ZM73.664 24.3717L73.3779 24.462L73.3779 24.462L73.664 24.3717ZM83.0065 53.9522L82.7204 54.0425L82.7207 54.0435L83.0065 53.9522ZM82.9986 53.9774L83.1832 54.2139L83.1836 54.2136L82.9986 53.9774ZM76.1103 59.3556L76.2944 59.5924L76.2949 59.592L76.1103 59.3556ZM76.0774 59.351L75.8356 59.5285L75.8356 59.5286L76.0774 59.351ZM17.889 64.6245L17.7943 64.9091L17.7958 64.9096L17.889 64.6245ZM32.0886 69.2673L32.1835 68.9827L32.1819 68.9821L32.0886 69.2673ZM32.1091 69.2644L32.2779 69.5124L32.2795 69.5113L32.1091 69.2644ZM63.8485 47.3523L64.0189 47.5991L64.0189 47.5991L63.8485 47.3523ZM63.8583 47.3365L63.5615 47.2923L63.5612 47.2949L63.8583 47.3365ZM67.2619 24.4987L66.9654 24.4531L66.9652 24.4545L67.2619 24.4987ZM39.1079 24.4805L38.8776 24.2882L38.8769 24.289L39.1079 24.4805ZM17.8784 50.0906L17.6474 49.8992L17.6468 49.9L17.8784 50.0906ZM38.0057 70.4502L37.8362 70.2027L37.3344 70.546L37.9123 70.7353L38.0057 70.4502ZM53.5184 75.5318L53.425 75.8169L53.4251 75.8169L53.5184 75.5318ZM53.5391 75.5286L53.3643 75.2849L53.3633 75.2856L53.5391 75.5286ZM72.0081 62.2807L71.8355 62.0353L71.8333 62.0369L72.0081 62.2807ZM72.014 62.2489L72.2631 62.0818L72.263 62.0816L72.014 62.2489ZM65.0905 51.9461L64.8413 52.1132L64.8415 52.1134L65.0905 51.9461ZM65.0581 51.9398L65.2275 52.1874L65.2286 52.1867L65.0581 51.9398ZM68.4069 48.3966C68.4499 48.4559 68.4678 48.5303 68.4559 48.6034L67.8637 48.5067C67.8498 48.5922 67.8707 48.6793 67.9211 48.7488L68.4069 48.3966ZM68.4555 48.6057L72.6023 24.4254L72.0109 24.324L67.8641 48.5043L68.4555 48.6057ZM72.6023 24.4253C72.5794 24.5593 72.4634 24.6555 72.3295 24.6555V24.0555C72.1732 24.0555 72.0376 24.1679 72.0109 24.3242L72.6023 24.4253ZM72.3295 24.6555H73.6419V24.0555H72.3295V24.6555ZM73.6419 24.6555C73.5204 24.6555 73.4141 24.5765 73.3779 24.462L73.9501 24.2813C73.9078 24.1476 73.7837 24.0555 73.6419 24.0555V24.6555ZM73.3779 24.462L82.7204 54.0425L83.2925 53.8618L73.9501 24.2813L73.3779 24.462ZM82.7207 54.0435C82.6849 53.9313 82.724 53.8115 82.8136 53.7413L83.1836 54.2136C83.2885 54.1315 83.3339 53.9913 83.2923 53.8609L82.7207 54.0435ZM82.814 53.741L75.9256 59.1191L76.2949 59.592L83.1832 54.2139L82.814 53.741ZM75.9261 59.1188C76.0488 59.0233 76.2266 59.0475 76.3191 59.1733L75.8356 59.5286C75.9436 59.6756 76.1511 59.7038 76.2944 59.5924L75.9261 59.1188ZM76.3192 59.1734L68.4058 48.3951L67.9222 48.7502L75.8356 59.5285L76.3192 59.1734ZM17.573 64.6024C17.573 64.7426 17.6631 64.8655 17.7943 64.9091L17.9838 64.3399C18.0959 64.3772 18.173 64.4823 18.173 64.6024H17.573ZM17.7958 64.9096L31.9954 69.5524L32.1819 68.9821L17.9823 64.3393L17.7958 64.9096ZM31.9938 69.5519C32.0919 69.5846 32.1967 69.5676 32.2779 69.5124L31.9402 69.0164C32.0095 68.9693 32.0991 68.9545 32.1835 68.9827L31.9938 69.5519ZM32.2795 69.5113L64.0189 47.5991L63.678 47.1054L31.9386 69.0175L32.2795 69.5113ZM64.0189 47.5991C64.0922 47.5485 64.1426 47.469 64.1554 47.3781L63.5612 47.2949C63.5721 47.2168 63.6154 47.1486 63.678 47.1054L64.0189 47.5991ZM64.155 47.3807L67.5586 24.5429L66.9652 24.4545L63.5615 47.2923L64.155 47.3807ZM67.5584 24.5444C67.5887 24.3473 67.4357 24.1721 67.239 24.1721V24.7721C67.0706 24.7721 66.9393 24.6221 66.9654 24.4531L67.5584 24.5444ZM67.239 24.1721H39.1258V24.7721H67.239V24.1721ZM39.1258 24.1721C39.0289 24.1721 38.9385 24.2154 38.8776 24.2882L39.3381 24.6728C39.2862 24.735 39.2086 24.7721 39.1258 24.7721V24.1721ZM38.8769 24.289L17.6474 49.8992L18.1093 50.2821L39.3388 24.672L38.8769 24.289ZM17.6468 49.9C17.5994 49.9575 17.573 50.03 17.573 50.1055H18.173C18.173 50.1701 18.1504 50.2322 18.11 50.2813L17.6468 49.9ZM17.573 50.1055V64.6024H18.173V50.1055H17.573ZM37.9123 70.7353L53.425 75.8169L53.6118 75.2467L38.099 70.1651L37.9123 70.7353ZM53.4251 75.8169C53.5215 75.8485 53.6296 75.8334 53.715 75.7717L53.3633 75.2856C53.4367 75.2324 53.5293 75.2197 53.6117 75.2467L53.4251 75.8169ZM53.714 75.7724L72.183 62.5245L71.8333 62.0369L53.3643 75.2849L53.714 75.7724ZM72.1808 62.526C72.3256 62.4241 72.3601 62.2265 72.2631 62.0818L71.7648 62.4161C71.6818 62.2923 71.7112 62.1228 71.8355 62.0353L72.1808 62.526ZM72.263 62.0816L65.3395 51.7787L64.8415 52.1134L71.765 62.4163L72.263 62.0816ZM65.3396 51.779C65.2399 51.6303 65.037 51.5898 64.8876 51.693L65.2286 52.1867C65.1005 52.2751 64.9265 52.2402 64.8413 52.1132L65.3396 51.779ZM64.8887 51.6923L37.8362 70.2027L38.1751 70.6978L65.2275 52.1874L64.8887 51.6923Z" fill="url(#paint3_linear_323_2374)" mask="url(#path-4-inside-1_323_2374)"/>
</g>
<defs>
<linearGradient id="paint0_linear_323_2374" x1="107.5" y1="-4.5" x2="43.5" y2="100" gradientUnits="userSpaceOnUse">
<stop stop-color="#FFA800"/>
<stop offset="1" stop-color="#FFD700"/>
</linearGradient>
<linearGradient id="paint1_linear_323_2374" x1="2" y1="29" x2="24.5" y2="98" gradientUnits="userSpaceOnUse">
<stop stop-color="#DBDCDC" stop-opacity="0.5"/>
<stop offset="1" stop-color="#DBDCDC" stop-opacity="0"/>
</linearGradient>
<linearGradient id="paint2_linear_323_2374" x1="87.4998" y1="9" x2="12.9998" y2="128.5" gradientUnits="userSpaceOnUse">
<stop stop-color="white"/>
<stop offset="1" stop-color="white" stop-opacity="0"/>
</linearGradient>
<linearGradient id="paint3_linear_323_2374" x1="87.8926" y1="22.0525" x2="59.1584" y2="81.7654" gradientUnits="userSpaceOnUse">
<stop stop-color="#FFA800"/>
<stop offset="1" stop-color="#FFD700"/>
</linearGradient>
<clipPath id="clip0_323_2374">
<rect width="65" height="65" fill="white" transform="translate(18 17.5)"/>
</clipPath>
</defs>
</svg>
