<svg width="100" height="100" viewBox="0 0 100 100" fill="none" xmlns="http://www.w3.org/2000/svg">
<circle cx="50" cy="50" r="50" fill="url(#paint0_linear_239_897)"/>
<g style="mix-blend-mode:multiply">
<path d="M10 50.5C10 71.763 17 85 17 85C17 85 2 71.763 2 50.5C2 29.237 15 18 15 18C15 18 10 29.237 10 50.5Z" fill="url(#paint1_linear_239_897)"/>
</g>
<path d="M98 50C98 75.9574 78.0767 97 53.5 97C28.9234 97 58.5001 84.9574 58.5001 59C58.5001 33.0426 28.9234 3 53.5 3C78.0767 3 98 24.0426 98 50Z" fill="url(#paint2_linear_239_897)" fill-opacity="0.4"/>
<mask id="path-4-inside-1_239_897" fill="white">
<path fill-rule="evenodd" clip-rule="evenodd" d="M37.233 26.9977L12 22L14.5952 35.1214L28.1501 34.5851L29.2272 43.761L36.7949 42.8727L36.7324 48.0586L38.4787 48.3267C37.5626 50.2611 37.0498 52.4263 37.0498 54.712C37.0498 61.3114 41.3247 66.906 47.2395 68.8437C48.4816 69.5292 50.0916 70.3314 51.4321 70.7134C52.8406 71.1149 54.7411 71.2774 56.1992 71.3419C56.2709 75.7973 57.1641 80.1329 60.2373 80.8538C61.6396 81.1828 63.8992 80.8538 63.8992 80.8538L72.169 70.1493C73.8281 70.9924 75.7571 71.4753 77.8153 71.4753C84.0224 71.4753 88.3944 67.0627 88.8638 61.665C88.879 61.4909 88.894 61.3271 88.9081 61.1732C89.0099 60.0608 89.0648 59.4605 88.7909 59.1557C88.4997 58.8316 87.8368 58.8414 86.4634 58.925C86.6632 57.9971 86.7684 57.0336 86.7684 56.0454C86.7684 48.6039 80.8009 42.566 73.4223 42.5207C72.1922 41.6334 68.3223 38.8977 65.4332 37.4724C61.9192 35.7389 54.4799 35.9485 54.4799 35.9485L56.6666 38.1928C53.6102 37.7302 50.4795 37.9486 50.4795 37.9486L51.4498 39.858C46.9285 39.9678 42.9108 42.1235 40.2759 45.4404L40.6023 37.7266L34.2643 38.4706L37.233 26.9977Z"/>
</mask>
<path fill-rule="evenodd" clip-rule="evenodd" d="M37.233 26.9977L12 22L14.5952 35.1214L28.1501 34.5851L29.2272 43.761L36.7949 42.8727L36.7324 48.0586L38.4787 48.3267C37.5626 50.2611 37.0498 52.4263 37.0498 54.712C37.0498 61.3114 41.3247 66.906 47.2395 68.8437C48.4816 69.5292 50.0916 70.3314 51.4321 70.7134C52.8406 71.1149 54.7411 71.2774 56.1992 71.3419C56.2709 75.7973 57.1641 80.1329 60.2373 80.8538C61.6396 81.1828 63.8992 80.8538 63.8992 80.8538L72.169 70.1493C73.8281 70.9924 75.7571 71.4753 77.8153 71.4753C84.0224 71.4753 88.3944 67.0627 88.8638 61.665C88.879 61.4909 88.894 61.3271 88.9081 61.1732C89.0099 60.0608 89.0648 59.4605 88.7909 59.1557C88.4997 58.8316 87.8368 58.8414 86.4634 58.925C86.6632 57.9971 86.7684 57.0336 86.7684 56.0454C86.7684 48.6039 80.8009 42.566 73.4223 42.5207C72.1922 41.6334 68.3223 38.8977 65.4332 37.4724C61.9192 35.7389 54.4799 35.9485 54.4799 35.9485L56.6666 38.1928C53.6102 37.7302 50.4795 37.9486 50.4795 37.9486L51.4498 39.858C46.9285 39.9678 42.9108 42.1235 40.2759 45.4404L40.6023 37.7266L34.2643 38.4706L37.233 26.9977Z" fill="white"/>
<path d="M12 22L12.0583 21.7057L11.6188 21.6187L11.7057 22.0582L12 22ZM37.233 26.9977L37.5235 27.0729L37.6031 26.7652L37.2913 26.7034L37.233 26.9977ZM14.5952 35.1214L14.3009 35.1796L14.3507 35.4313L14.607 35.4212L14.5952 35.1214ZM28.1501 34.5851L28.448 34.5502L28.4157 34.2744L28.1382 34.2854L28.1501 34.5851ZM29.2272 43.761L28.9292 43.796L28.9642 44.094L29.2622 44.059L29.2272 43.761ZM36.7949 42.8727L37.0949 42.8763L37.099 42.5349L36.76 42.5747L36.7949 42.8727ZM36.7324 48.0586L36.4324 48.055L36.4293 48.3156L36.6869 48.3552L36.7324 48.0586ZM38.4787 48.3267L38.7498 48.4551L38.9221 48.0913L38.5242 48.0302L38.4787 48.3267ZM47.2395 68.8437L47.3844 68.581L47.3597 68.5674L47.3329 68.5586L47.2395 68.8437ZM51.4321 70.7134L51.5143 70.4249L51.4321 70.7134ZM56.1992 71.3419L56.4991 71.3371L56.4946 71.0547L56.2124 71.0422L56.1992 71.3419ZM60.2373 80.8538L60.1688 81.1459L60.2373 80.8538ZM63.8992 80.8538L63.9424 81.1507L64.0624 81.1332L64.1366 81.0372L63.8992 80.8538ZM72.169 70.1493L72.3049 69.8819L72.0835 69.7694L71.9316 69.9659L72.169 70.1493ZM88.8638 61.665L88.5649 61.639V61.639L88.8638 61.665ZM88.9081 61.1732L88.6093 61.1458L88.9081 61.1732ZM88.7909 59.1557L88.5678 59.3562L88.5678 59.3562L88.7909 59.1557ZM86.4634 58.925L86.1701 58.8619L86.0869 59.2485L86.4816 59.2245L86.4634 58.925ZM73.4223 42.5207L73.2468 42.764L73.3246 42.8201L73.4205 42.8207L73.4223 42.5207ZM65.4332 37.4724L65.5659 37.2034L65.4332 37.4724ZM54.4799 35.9485L54.4714 35.6486L53.7876 35.6679L54.265 36.1578L54.4799 35.9485ZM56.6666 38.1928L56.6217 38.4894L57.5047 38.623L56.8815 37.9834L56.6666 38.1928ZM50.4795 37.9486L50.4586 37.6494L50.0069 37.6809L50.2121 38.0846L50.4795 37.9486ZM51.4498 39.858L51.4571 40.1579L51.9329 40.1463L51.7173 39.7221L51.4498 39.858ZM40.2759 45.4404L39.9762 45.4277L39.9372 46.3491L40.5108 45.627L40.2759 45.4404ZM40.6023 37.7266L40.902 37.7393L40.9169 37.3876L40.5673 37.4287L40.6023 37.7266ZM34.2643 38.4706L33.9739 38.3955L33.8641 38.8197L34.2993 38.7686L34.2643 38.4706ZM11.9417 22.2943L37.1747 27.292L37.2913 26.7034L12.0583 21.7057L11.9417 22.2943ZM14.8895 35.0632L12.2943 21.9418L11.7057 22.0582L14.3009 35.1796L14.8895 35.0632ZM28.1382 34.2854L14.5833 34.8216L14.607 35.4212L28.1619 34.8849L28.1382 34.2854ZM29.5251 43.7261L28.448 34.5502L27.8521 34.6201L28.9292 43.796L29.5251 43.7261ZM36.76 42.5747L29.1922 43.4631L29.2622 44.059L36.8299 43.1706L36.76 42.5747ZM37.0324 48.0623L37.0949 42.8763L36.495 42.8691L36.4324 48.055L37.0324 48.0623ZM38.5242 48.0302L36.7779 47.7621L36.6869 48.3552L38.4332 48.6232L38.5242 48.0302ZM37.3498 54.712C37.3498 52.4716 37.8523 50.3502 38.7498 48.4551L38.2076 48.1983C37.2728 50.1721 36.7498 52.381 36.7498 54.712H37.3498ZM47.3329 68.5586C41.5387 66.6604 37.3498 61.179 37.3498 54.712H36.7498C36.7498 61.4439 41.1107 67.1516 47.1461 69.1288L47.3329 68.5586ZM51.5143 70.4249C50.2086 70.0528 48.6236 69.2649 47.3844 68.581L47.0945 69.1063C48.3397 69.7935 49.9747 70.61 51.3498 71.0019L51.5143 70.4249ZM56.2124 71.0422C54.7573 70.9778 52.8868 70.8161 51.5143 70.4249L51.3498 71.0019C52.7944 71.4136 54.7249 71.577 56.1859 71.6416L56.2124 71.0422ZM60.3058 80.5617C58.9126 80.2349 57.9762 79.0849 57.3753 77.3976C56.775 75.7121 56.5348 73.5524 56.4991 71.3371L55.8992 71.3467C55.9353 73.5868 56.1775 75.8226 56.8101 77.5989C57.442 79.3735 58.4888 80.7518 60.1688 81.1459L60.3058 80.5617ZM63.8992 80.8538C63.856 80.5569 63.856 80.5569 63.856 80.5569C63.856 80.5569 63.856 80.5569 63.856 80.5569C63.856 80.5569 63.8559 80.5569 63.8558 80.557C63.8557 80.557 63.8553 80.557 63.8549 80.5571C63.854 80.5572 63.8525 80.5574 63.8505 80.5577C63.8466 80.5583 63.8406 80.5591 63.8325 80.5602C63.8164 80.5625 63.7923 80.5657 63.7609 80.5698C63.698 80.5779 63.6062 80.5892 63.4914 80.6019C63.2617 80.6271 62.941 80.6574 62.5775 80.6776C61.8423 80.7185 60.9629 80.7159 60.3058 80.5617L60.1688 81.1459C60.914 81.3207 61.8655 81.3181 62.6108 81.2767C62.9874 81.2558 63.3192 81.2244 63.557 81.1983C63.676 81.1852 63.7716 81.1734 63.8379 81.1648C63.871 81.1605 63.8968 81.157 63.9145 81.1546C63.9233 81.1534 63.9301 81.1524 63.9348 81.1518C63.9371 81.1514 63.939 81.1512 63.9402 81.151C63.9409 81.1509 63.9414 81.1508 63.9417 81.1508C63.9419 81.1507 63.9421 81.1507 63.9422 81.1507C63.9422 81.1507 63.9423 81.1507 63.9423 81.1507C63.9424 81.1507 63.9424 81.1507 63.8992 80.8538ZM71.9316 69.9659L63.6618 80.6704L64.1366 81.0372L72.4064 70.3327L71.9316 69.9659ZM77.8153 71.1753C75.804 71.1753 73.9217 70.7035 72.3049 69.8819L72.0331 70.4168C73.7346 71.2814 75.7101 71.7753 77.8153 71.7753V71.1753ZM88.5649 61.639C88.1089 66.8833 83.8652 71.1753 77.8153 71.1753V71.7753C84.1796 71.7753 88.68 67.2421 89.1627 61.691L88.5649 61.639ZM88.6093 61.1458C88.5952 61.2997 88.5802 61.4641 88.5649 61.639L89.1627 61.691C89.1778 61.5176 89.1927 61.3545 89.2068 61.2005L88.6093 61.1458ZM88.5678 59.3562C88.6299 59.4253 88.6831 59.5584 88.6905 59.8687C88.6977 60.1745 88.6609 60.5823 88.6093 61.1458L89.2068 61.2005C89.257 60.6517 89.2986 60.2031 89.2903 59.8545C89.2821 59.5104 89.2258 59.1908 89.0141 58.9551L88.5678 59.3562ZM86.4816 59.2245C87.173 59.1824 87.661 59.1608 88.0109 59.1866C88.3674 59.213 88.5036 59.2847 88.5678 59.3562L89.0141 58.9552C88.7871 58.7025 88.4462 58.6171 88.0551 58.5883C87.6574 58.5589 87.1272 58.5841 86.4452 58.6256L86.4816 59.2245ZM86.4684 56.0454C86.4684 57.0123 86.3655 57.9546 86.1701 58.8619L86.7567 58.9882C86.9609 58.0396 87.0684 57.055 87.0684 56.0454H86.4684ZM73.4205 42.8207C80.6322 42.865 86.4684 48.767 86.4684 56.0454H87.0684C87.0684 48.4408 80.9696 42.2671 73.4242 42.2207L73.4205 42.8207ZM65.3005 37.7415C68.1638 39.154 72.0145 41.8751 73.2468 42.764L73.5979 42.2774C72.37 41.3917 68.4807 38.6413 65.5659 37.2034L65.3005 37.7415ZM54.4799 35.9485C54.4883 36.2484 54.4883 36.2484 54.4883 36.2484C54.4884 36.2484 54.4884 36.2484 54.4885 36.2484C54.4887 36.2484 54.489 36.2483 54.4894 36.2483C54.4902 36.2483 54.4914 36.2483 54.4931 36.2482C54.4965 36.2481 54.5017 36.248 54.5086 36.2478C54.5224 36.2475 54.5431 36.247 54.5703 36.2465C54.6248 36.2454 54.7055 36.244 54.8097 36.2428C55.0182 36.2405 55.3204 36.2391 55.6942 36.2428C56.4421 36.2502 57.4755 36.278 58.6174 36.3596C60.9163 36.5239 63.6013 36.9032 65.3005 37.7415L65.5659 37.2034C63.7511 36.3081 60.9595 35.9255 58.6602 35.7611C57.503 35.6784 56.4569 35.6503 55.7001 35.6428C55.3216 35.6391 55.0152 35.6405 54.803 35.6429C54.697 35.6441 54.6144 35.6455 54.5583 35.6466C54.5302 35.6472 54.5086 35.6477 54.4941 35.648C54.4868 35.6482 54.4812 35.6483 54.4774 35.6484C54.4755 35.6485 54.4741 35.6485 54.4731 35.6486C54.4726 35.6486 54.4722 35.6486 54.4719 35.6486C54.4718 35.6486 54.4716 35.6486 54.4716 35.6486C54.4715 35.6486 54.4714 35.6486 54.4799 35.9485ZM56.8815 37.9834L54.6947 35.7391L54.265 36.1578L56.4517 38.4021L56.8815 37.9834ZM50.4795 37.9486C50.5004 38.2479 50.5004 38.2479 50.5004 38.2479C50.5004 38.2479 50.5004 38.2479 50.5004 38.2479C50.5005 38.2479 50.5006 38.2479 50.5007 38.2479C50.501 38.2479 50.5015 38.2478 50.5022 38.2478C50.5035 38.2477 50.5056 38.2476 50.5085 38.2474C50.5141 38.247 50.5228 38.2464 50.5342 38.2457C50.5572 38.2443 50.5916 38.2422 50.6366 38.2397C50.7266 38.2347 50.8592 38.2281 51.0281 38.2215C51.3659 38.2084 51.8485 38.1956 52.4261 38.1972C53.5826 38.2004 55.1134 38.2611 56.6217 38.4894L56.7115 37.8961C55.1634 37.6618 53.6006 37.6005 52.4277 37.5972C51.8406 37.5956 51.3495 37.6086 51.0048 37.622C50.8324 37.6287 50.6965 37.6355 50.6034 37.6406C50.5569 37.6432 50.521 37.6454 50.4966 37.6469C50.4844 37.6477 50.4751 37.6483 50.4687 37.6487C50.4656 37.6489 50.4631 37.6491 50.4614 37.6492C50.4606 37.6492 50.4599 37.6493 50.4595 37.6493C50.4592 37.6493 50.459 37.6493 50.4589 37.6494C50.4588 37.6494 50.4588 37.6494 50.4587 37.6494C50.4587 37.6494 50.4586 37.6494 50.4795 37.9486ZM51.7173 39.7221L50.747 37.8127L50.2121 38.0846L51.1824 39.9939L51.7173 39.7221ZM40.5108 45.627C43.093 42.3765 47.0287 40.2655 51.4571 40.1579L51.4426 39.5581C46.8282 39.6702 42.7287 41.8705 40.041 45.2538L40.5108 45.627ZM40.3025 37.714L39.9762 45.4277L40.5756 45.4531L40.902 37.7393L40.3025 37.714ZM34.2993 38.7686L40.6372 38.0246L40.5673 37.4287L34.2293 38.1727L34.2993 38.7686ZM36.9426 26.9226L33.9739 38.3955L34.5547 38.5458L37.5235 27.0729L36.9426 26.9226Z" fill="#FFA800" mask="url(#path-4-inside-1_239_897)"/>
<defs>
<linearGradient id="paint0_linear_239_897" x1="107.5" y1="-4.5" x2="43.5" y2="100" gradientUnits="userSpaceOnUse">
<stop stop-color="#FFA800"/>
<stop offset="1" stop-color="#FFD700"/>
</linearGradient>
<linearGradient id="paint1_linear_239_897" x1="2" y1="29" x2="24.5" y2="98" gradientUnits="userSpaceOnUse">
<stop stop-color="#DBDCDC" stop-opacity="0.5"/>
<stop offset="1" stop-color="#DBDCDC" stop-opacity="0"/>
</linearGradient>
<linearGradient id="paint2_linear_239_897" x1="87.5" y1="9" x2="13" y2="128.5" gradientUnits="userSpaceOnUse">
<stop stop-color="white"/>
<stop offset="1" stop-color="white" stop-opacity="0"/>
</linearGradient>
</defs>
</svg>
