<svg width="100" height="100" viewBox="0 0 100 100" fill="none" xmlns="http://www.w3.org/2000/svg">
<circle cx="50" cy="50" r="50" fill="url(#paint0_linear_323_2383)"/>
<g style="mix-blend-mode:multiply">
<path d="M10 50.5C10 71.763 17 85 17 85C17 85 2 71.763 2 50.5C2 29.237 15 18 15 18C15 18 10 29.237 10 50.5Z" fill="url(#paint1_linear_323_2383)"/>
</g>
<path d="M97.9998 50C97.9998 75.9574 78.0765 97 53.4998 97C28.9231 97 58.4998 84.9574 58.4998 59C58.4998 33.0426 28.9231 3 53.4998 3C78.0765 3 97.9998 24.0426 97.9998 50Z" fill="url(#paint2_linear_323_2383)" fill-opacity="0.4"/>
<path d="M34.4506 77.5804L18.1663 49.789L34.4506 21.9664H66.7282L82.8339 49.789L66.7282 77.5804H34.4506ZM50.5051 64.9771C58.9018 64.9771 65.7088 58.1701 65.7088 49.7734C65.7088 41.3765 58.9018 34.5697 50.5051 34.5697C42.1083 34.5697 35.3014 41.3765 35.3014 49.7734C35.3014 58.1701 42.1083 64.9771 50.5051 64.9771Z" fill="white" stroke="url(#paint3_linear_323_2383)" stroke-width="0.3"/>
<defs>
<linearGradient id="paint0_linear_323_2383" x1="107.5" y1="-4.5" x2="43.5" y2="100" gradientUnits="userSpaceOnUse">
<stop stop-color="#FFA800"/>
<stop offset="1" stop-color="#FFD700"/>
</linearGradient>
<linearGradient id="paint1_linear_323_2383" x1="2" y1="29" x2="24.5" y2="98" gradientUnits="userSpaceOnUse">
<stop stop-color="#DBDCDC" stop-opacity="0.5"/>
<stop offset="1" stop-color="#DBDCDC" stop-opacity="0"/>
</linearGradient>
<linearGradient id="paint2_linear_323_2383" x1="87.4998" y1="9" x2="12.9998" y2="128.5" gradientUnits="userSpaceOnUse">
<stop stop-color="white"/>
<stop offset="1" stop-color="white" stop-opacity="0"/>
</linearGradient>
<linearGradient id="paint3_linear_323_2383" x1="87.8749" y1="19.3003" x2="54.7421" y2="82.1911" gradientUnits="userSpaceOnUse">
<stop stop-color="#FFA800"/>
<stop offset="1" stop-color="#FFD700"/>
</linearGradient>
</defs>
</svg>
