<svg width="100" height="100" viewBox="0 0 100 100" fill="none" xmlns="http://www.w3.org/2000/svg">
<circle cx="50" cy="50" r="50" fill="url(#paint0_linear_405_533)"/>
<g style="mix-blend-mode:multiply">
<path d="M10 50.5C10 71.763 17 85 17 85C17 85 2 71.763 2 50.5C2 29.237 15 18 15 18C15 18 10 29.237 10 50.5Z" fill="url(#paint1_linear_405_533)"/>
</g>
<path d="M97.9998 50C97.9998 75.9574 78.0765 97 53.4998 97C28.9231 97 58.4998 84.9574 58.4998 59C58.4998 33.0426 28.9231 3 53.4998 3C78.0765 3 97.9998 24.0426 97.9998 50Z" fill="url(#paint2_linear_405_533)" fill-opacity="0.4"/>
<mask id="path-4-inside-1_405_533" fill="white">
<path fill-rule="evenodd" clip-rule="evenodd" d="M82.9421 49.471C82.9421 67.3256 68.7501 81.8654 51.0316 82.4253C50.3893 81.5266 49.7785 80.5955 49.2007 79.6346C64.6584 79.2995 77.0861 66.664 77.0861 51.1259C77.0861 50.8922 77.0833 50.6591 77.0777 50.4267C79.2603 48.8022 81.1358 46.9719 82.639 44.9816C82.8388 46.4495 82.9421 47.9482 82.9421 49.471ZM48.5706 77.0954C48.3063 77.0954 48.0429 77.0914 47.7805 77.0836C46.8141 75.2049 45.9658 73.2299 45.2447 71.1735C52.8815 70.5031 59.0746 64.8003 60.4882 57.4013C65.748 56.408 70.5254 54.5874 74.5203 52.1504C73.9823 66.018 62.5701 77.0954 48.5706 77.0954ZM44.816 76.826C43.9653 75.0214 43.2159 73.1425 42.5734 71.2007C33.6933 70.6045 26.6749 63.2124 26.6749 54.1812C26.6749 53.2569 26.7484 52.3497 26.8899 51.4653C25.3842 50.4685 24.0025 49.3803 22.7627 48.2133C22.656 49.1694 22.6012 50.1413 22.6012 51.1259C22.6012 64.1934 32.2526 75.0066 44.816 76.826ZM57.7823 57.8329C56.2202 63.86 50.8821 68.3662 44.4434 68.6765C44.0735 67.4092 43.7504 66.115 43.476 64.7969C47.3193 64.3246 50.4979 61.7376 51.7802 58.252C53.8276 58.2307 55.8329 58.0878 57.7823 57.8329ZM41.7772 68.5628C41.4392 67.3268 41.1432 66.0688 40.8906 64.7914C35.8872 64.1545 32.0213 59.9319 32.0213 54.8176C32.0213 54.6421 32.0259 54.4676 32.0349 54.2943C31.083 53.8635 30.1623 53.4016 29.2758 52.9107C29.2395 53.3294 29.2209 53.7531 29.2209 54.1812C29.2209 61.5328 34.6873 67.6076 41.7772 68.5628ZM49.4078 58.222C48.2796 60.6609 45.8818 62.3924 43.0623 62.5683C42.9053 62.5781 42.7469 62.5831 42.5874 62.5831C41.846 62.5831 41.1297 62.4757 40.4532 62.2755C37.4852 61.3975 35.2833 58.735 35.0904 55.5308C35.0813 55.3791 35.0766 55.2262 35.0766 55.0723C35.0766 54.3269 35.1852 53.6069 35.3874 52.9272C36.0737 50.6205 37.8381 48.7781 40.0963 47.9845C40.8759 47.7105 41.7143 47.5615 42.5874 47.5615C42.6232 47.5615 42.6589 47.5618 42.6946 47.5623C46.7933 47.6196 50.0982 50.96 50.0982 55.0723C50.0982 55.2819 50.0896 55.4895 50.0728 55.6948C49.9992 56.591 49.7684 57.4426 49.4078 58.222ZM52.3895 54.8176C52.3895 49.5482 48.2855 45.2253 43.0617 44.7959C43.2946 43.3103 43.5865 41.8159 43.9394 40.3161C43.99 40.1011 44.0416 39.8868 44.0943 39.6732C51.9425 39.8649 58.2456 46.2869 58.2456 54.1812C58.2456 54.5247 58.2337 54.8655 58.2102 55.2031C56.316 55.4826 54.3582 55.6509 52.3512 55.6963C52.3766 55.4067 52.3895 55.1137 52.3895 54.8176ZM40.4716 44.906C40.7194 43.2273 41.0393 41.5404 41.4336 39.85C35.8137 40.7448 31.2693 44.8657 29.7583 50.2549C30.6377 50.7717 31.5582 51.2582 32.5163 51.7116C33.6686 48.2042 36.7194 45.5415 40.4716 44.906ZM60.7917 54.1812C60.7917 45.1095 53.7103 37.6917 44.7737 37.154C46.0341 32.8521 47.7315 28.8443 49.7813 25.1842C62.9074 25.7865 73.4912 36.1334 74.4667 49.1588C70.7055 51.7067 66.0317 53.6614 60.7824 54.7479C60.7886 54.5597 60.7917 54.3708 60.7917 54.1812ZM42.1133 37.1987C43.3071 32.9324 44.9207 28.9179 46.8812 25.2105C35.354 25.9507 25.8735 34.2117 23.2948 45.1383C24.5073 46.4511 25.9254 47.6859 27.5339 48.8217C29.6183 42.518 35.2793 37.8425 42.1133 37.1987ZM76.8412 47.3716C75.1175 34.2657 64.4937 23.9634 51.2385 22.7336C52.5339 20.6792 53.9442 18.7489 55.4523 16.9535C68.403 19.1205 78.796 28.8368 81.9531 41.424C80.7179 43.5605 78.9972 45.5661 76.8412 47.3716ZM48.3421 22.6113C49.6088 20.4875 50.993 18.4777 52.4792 16.594C51.6513 16.5317 50.8149 16.5 49.971 16.5C35.774 16.5 23.6728 25.473 19.0291 38.057C19.544 39.6541 20.3159 41.203 21.3269 42.6793C24.9056 31.1237 35.634 22.7111 48.3421 22.6113ZM47.9066 82.3785C47.3091 81.4607 46.7416 80.5154 46.2053 79.5447C31.5633 78.3424 20.0551 66.0781 20.0551 51.1259C20.0551 49.3251 20.2221 47.5634 20.5413 45.8552C19.4952 44.595 18.6018 43.2646 17.8789 41.8765C17.3041 44.3147 17 46.8573 17 49.471C17 66.9871 30.6589 81.3129 47.9066 82.3785Z"/>
</mask>
<path fill-rule="evenodd" clip-rule="evenodd" d="M82.9421 49.471C82.9421 67.3256 68.7501 81.8654 51.0316 82.4253C50.3893 81.5266 49.7785 80.5955 49.2007 79.6346C64.6584 79.2995 77.0861 66.664 77.0861 51.1259C77.0861 50.8922 77.0833 50.6591 77.0777 50.4267C79.2603 48.8022 81.1358 46.9719 82.639 44.9816C82.8388 46.4495 82.9421 47.9482 82.9421 49.471ZM48.5706 77.0954C48.3063 77.0954 48.0429 77.0914 47.7805 77.0836C46.8141 75.2049 45.9658 73.2299 45.2447 71.1735C52.8815 70.5031 59.0746 64.8003 60.4882 57.4013C65.748 56.408 70.5254 54.5874 74.5203 52.1504C73.9823 66.018 62.5701 77.0954 48.5706 77.0954ZM44.816 76.826C43.9653 75.0214 43.2159 73.1425 42.5734 71.2007C33.6933 70.6045 26.6749 63.2124 26.6749 54.1812C26.6749 53.2569 26.7484 52.3497 26.8899 51.4653C25.3842 50.4685 24.0025 49.3803 22.7627 48.2133C22.656 49.1694 22.6012 50.1413 22.6012 51.1259C22.6012 64.1934 32.2526 75.0066 44.816 76.826ZM57.7823 57.8329C56.2202 63.86 50.8821 68.3662 44.4434 68.6765C44.0735 67.4092 43.7504 66.115 43.476 64.7969C47.3193 64.3246 50.4979 61.7376 51.7802 58.252C53.8276 58.2307 55.8329 58.0878 57.7823 57.8329ZM41.7772 68.5628C41.4392 67.3268 41.1432 66.0688 40.8906 64.7914C35.8872 64.1545 32.0213 59.9319 32.0213 54.8176C32.0213 54.6421 32.0259 54.4676 32.0349 54.2943C31.083 53.8635 30.1623 53.4016 29.2758 52.9107C29.2395 53.3294 29.2209 53.7531 29.2209 54.1812C29.2209 61.5328 34.6873 67.6076 41.7772 68.5628ZM49.4078 58.222C48.2796 60.6609 45.8818 62.3924 43.0623 62.5683C42.9053 62.5781 42.7469 62.5831 42.5874 62.5831C41.846 62.5831 41.1297 62.4757 40.4532 62.2755C37.4852 61.3975 35.2833 58.735 35.0904 55.5308C35.0813 55.3791 35.0766 55.2262 35.0766 55.0723C35.0766 54.3269 35.1852 53.6069 35.3874 52.9272C36.0737 50.6205 37.8381 48.7781 40.0963 47.9845C40.8759 47.7105 41.7143 47.5615 42.5874 47.5615C42.6232 47.5615 42.6589 47.5618 42.6946 47.5623C46.7933 47.6196 50.0982 50.96 50.0982 55.0723C50.0982 55.2819 50.0896 55.4895 50.0728 55.6948C49.9992 56.591 49.7684 57.4426 49.4078 58.222ZM52.3895 54.8176C52.3895 49.5482 48.2855 45.2253 43.0617 44.7959C43.2946 43.3103 43.5865 41.8159 43.9394 40.3161C43.99 40.1011 44.0416 39.8868 44.0943 39.6732C51.9425 39.8649 58.2456 46.2869 58.2456 54.1812C58.2456 54.5247 58.2337 54.8655 58.2102 55.2031C56.316 55.4826 54.3582 55.6509 52.3512 55.6963C52.3766 55.4067 52.3895 55.1137 52.3895 54.8176ZM40.4716 44.906C40.7194 43.2273 41.0393 41.5404 41.4336 39.85C35.8137 40.7448 31.2693 44.8657 29.7583 50.2549C30.6377 50.7717 31.5582 51.2582 32.5163 51.7116C33.6686 48.2042 36.7194 45.5415 40.4716 44.906ZM60.7917 54.1812C60.7917 45.1095 53.7103 37.6917 44.7737 37.154C46.0341 32.8521 47.7315 28.8443 49.7813 25.1842C62.9074 25.7865 73.4912 36.1334 74.4667 49.1588C70.7055 51.7067 66.0317 53.6614 60.7824 54.7479C60.7886 54.5597 60.7917 54.3708 60.7917 54.1812ZM42.1133 37.1987C43.3071 32.9324 44.9207 28.9179 46.8812 25.2105C35.354 25.9507 25.8735 34.2117 23.2948 45.1383C24.5073 46.4511 25.9254 47.6859 27.5339 48.8217C29.6183 42.518 35.2793 37.8425 42.1133 37.1987ZM76.8412 47.3716C75.1175 34.2657 64.4937 23.9634 51.2385 22.7336C52.5339 20.6792 53.9442 18.7489 55.4523 16.9535C68.403 19.1205 78.796 28.8368 81.9531 41.424C80.7179 43.5605 78.9972 45.5661 76.8412 47.3716ZM48.3421 22.6113C49.6088 20.4875 50.993 18.4777 52.4792 16.594C51.6513 16.5317 50.8149 16.5 49.971 16.5C35.774 16.5 23.6728 25.473 19.0291 38.057C19.544 39.6541 20.3159 41.203 21.3269 42.6793C24.9056 31.1237 35.634 22.7111 48.3421 22.6113ZM47.9066 82.3785C47.3091 81.4607 46.7416 80.5154 46.2053 79.5447C31.5633 78.3424 20.0551 66.0781 20.0551 51.1259C20.0551 49.3251 20.2221 47.5634 20.5413 45.8552C19.4952 44.595 18.6018 43.2646 17.8789 41.8765C17.3041 44.3147 17 46.8573 17 49.471C17 66.9871 30.6589 81.3129 47.9066 82.3785Z" fill="white"/>
<path d="M51.0316 82.4253L50.8244 82.5734L50.9036 82.6841L51.0396 82.6798L51.0316 82.4253ZM49.2007 79.6346L49.1952 79.38L48.7563 79.3896L48.9825 79.7658L49.2007 79.6346ZM77.0777 50.4267L76.9257 50.2224L76.82 50.3011L76.8232 50.4328L77.0777 50.4267ZM82.639 44.9816L82.8912 44.9472L82.8079 44.3354L82.4358 44.8281L82.639 44.9816ZM47.7805 77.0836L47.5541 77.2001L47.6228 77.3336L47.7729 77.3381L47.7805 77.0836ZM45.2447 71.1735L45.2224 70.9199L44.8959 70.9485L45.0044 71.2578L45.2447 71.1735ZM60.4882 57.4013L60.4409 57.1511L60.2706 57.1833L60.2381 57.3535L60.4882 57.4013ZM74.5203 52.1504L74.7747 52.1602L74.7931 51.6857L74.3877 51.933L74.5203 52.1504ZM42.5734 71.2007L42.8151 71.1208L42.7613 70.9582L42.5905 70.9467L42.5734 71.2007ZM44.816 76.826L44.7795 77.0779L45.2482 77.1458L45.0463 76.7174L44.816 76.826ZM26.8899 51.4653L27.1413 51.5055L27.1672 51.3435L27.0305 51.253L26.8899 51.4653ZM22.7627 48.2133L22.9372 48.0279L22.5662 47.6787L22.5097 48.185L22.7627 48.2133ZM44.4434 68.6765L44.199 68.7478L44.2552 68.9404L44.4556 68.9308L44.4434 68.6765ZM57.7823 57.8329L58.0288 57.8968L58.1234 57.5316L57.7493 57.5805L57.7823 57.8329ZM43.476 64.7969L43.4449 64.5442L43.1703 64.578L43.2267 64.8488L43.476 64.7969ZM51.7802 58.252L51.7776 57.9974L51.6019 57.9993L51.5413 58.1641L51.7802 58.252ZM40.8906 64.7914L41.1404 64.742L41.1048 64.562L40.9228 64.5388L40.8906 64.7914ZM41.7772 68.5628L41.7432 68.8151L42.1242 68.8665L42.0228 68.4957L41.7772 68.5628ZM32.0349 54.2943L32.2891 54.3075L32.2982 54.134L32.1399 54.0623L32.0349 54.2943ZM29.2758 52.9107L29.3991 52.688L29.056 52.498L29.0221 52.8887L29.2758 52.9107ZM43.0623 62.5683L43.0782 62.8224L43.0782 62.8224L43.0623 62.5683ZM49.4078 58.222L49.1768 58.1151L49.1768 58.1151L49.4078 58.222ZM40.4532 62.2755L40.5255 62.0314L40.5255 62.0314L40.4532 62.2755ZM35.0904 55.5308L35.3446 55.5155L35.3446 55.5155L35.0904 55.5308ZM35.3874 52.9272L35.6315 52.9997L35.6315 52.9997L35.3874 52.9272ZM40.0963 47.9845L40.1808 48.2247L40.1808 48.2247L40.0963 47.9845ZM42.6946 47.5623L42.6981 47.3077L42.6981 47.3077L42.6946 47.5623ZM50.0728 55.6948L49.819 55.674L49.819 55.674L50.0728 55.6948ZM43.0617 44.7959L42.8102 44.7565L42.7678 45.0272L43.0409 45.0496L43.0617 44.7959ZM43.9394 40.3161L44.1873 40.3744L44.1873 40.3744L43.9394 40.3161ZM44.0943 39.6732L44.1006 39.4187L43.8961 39.4137L43.8472 39.6122L44.0943 39.6732ZM58.2102 55.2031L58.2474 55.4549L58.45 55.425L58.4642 55.2207L58.2102 55.2031ZM52.3512 55.6963L52.0976 55.674L52.0728 55.9572L52.357 55.9508L52.3512 55.6963ZM41.4336 39.85L41.6816 39.9079L41.7676 39.539L41.3936 39.5986L41.4336 39.85ZM40.4716 44.906L40.5141 45.157L40.6964 45.1261L40.7235 44.9432L40.4716 44.906ZM29.7583 50.2549L29.5131 50.1862L29.4602 50.3751L29.6293 50.4744L29.7583 50.2549ZM32.5163 51.7116L32.4074 51.9417L32.6682 52.0651L32.7582 51.791L32.5163 51.7116ZM44.7737 37.154L44.5294 37.0824L44.4396 37.389L44.7584 37.4082L44.7737 37.154ZM49.7813 25.1842L49.7929 24.9299L49.6359 24.9226L49.5591 25.0598L49.7813 25.1842ZM74.4667 49.1588L74.6095 49.3696L74.7316 49.2869L74.7206 49.1398L74.4667 49.1588ZM60.7824 54.7479L60.5279 54.7396L60.5174 55.0628L60.834 54.9972L60.7824 54.7479ZM46.8812 25.2105L47.1063 25.3296L47.319 24.9273L46.8649 24.9565L46.8812 25.2105ZM42.1133 37.1987L42.1372 37.4522L42.3114 37.4358L42.3585 37.2673L42.1133 37.1987ZM23.2948 45.1383L23.047 45.0798L23.0159 45.2115L23.1078 45.311L23.2948 45.1383ZM27.5339 48.8217L27.387 49.0296L27.6677 49.2278L27.7756 48.9016L27.5339 48.8217ZM51.2385 22.7336L51.0231 22.5978L50.8018 22.9488L51.2149 22.9871L51.2385 22.7336ZM76.8412 47.3716L76.5887 47.4048L76.6492 47.8644L77.0046 47.5668L76.8412 47.3716ZM55.4523 16.9535L55.4943 16.7024L55.3509 16.6784L55.2573 16.7898L55.4523 16.9535ZM81.9531 41.424L82.1735 41.5514L82.2251 41.4621L82.2 41.3621L81.9531 41.424ZM52.4792 16.594L52.679 16.7517L52.9754 16.376L52.4983 16.3401L52.4792 16.594ZM48.3421 22.6113L48.3441 22.8659L48.4874 22.8648L48.5608 22.7418L48.3421 22.6113ZM19.0291 38.057L18.7903 37.9689L18.7598 38.0514L18.7868 38.1352L19.0291 38.057ZM21.3269 42.6793L21.1168 42.8231L21.4144 43.2575L21.5701 42.7546L21.3269 42.6793ZM46.2053 79.5447L46.4282 79.4216L46.3622 79.3021L46.2261 79.291L46.2053 79.5447ZM47.9066 82.3785L47.8909 82.6326L48.3962 82.6638L48.1199 82.2396L47.9066 82.3785ZM20.5413 45.8552L20.7916 45.9019L20.8135 45.7845L20.7372 45.6925L20.5413 45.8552ZM17.8789 41.8765L18.1047 41.7589L17.7883 41.1513L17.6311 41.8181L17.8789 41.8765ZM51.0396 82.6798C68.8952 82.1156 83.1967 67.4635 83.1967 49.471H82.6875C82.6875 67.1877 68.6051 81.6153 51.0235 82.1709L51.0396 82.6798ZM48.9825 79.7658C49.5637 80.7324 50.1782 81.669 50.8244 82.5734L51.2387 82.2773C50.6004 81.3841 49.9933 80.4587 49.4189 79.5034L48.9825 79.7658ZM76.8315 51.1259C76.8315 66.5253 64.5148 79.0479 49.1952 79.38L49.2062 79.8891C64.8021 79.551 77.3407 66.8028 77.3407 51.1259H76.8315ZM76.8232 50.4328C76.8287 50.6632 76.8315 50.8942 76.8315 51.1259H77.3407C77.3407 50.8901 77.3379 50.655 77.3322 50.4206L76.8232 50.4328ZM82.4358 44.8281C80.9486 46.7972 79.091 48.6108 76.9257 50.2224L77.2297 50.6309C79.4296 48.9936 81.3229 47.1466 82.8421 45.135L82.4358 44.8281ZM83.1967 49.471C83.1967 47.9367 83.0926 46.4265 82.8912 44.9472L82.3867 45.0159C82.585 46.4725 82.6875 47.9597 82.6875 49.471H83.1967ZM47.7729 77.3381C48.0378 77.346 48.3038 77.35 48.5706 77.35V76.8408C48.3088 76.8408 48.048 76.8369 47.7881 76.8291L47.7729 77.3381ZM45.0044 71.2578C45.7294 73.325 46.5823 75.3108 47.5541 77.2001L48.0069 76.9671C47.046 75.0991 46.2023 73.1349 45.4849 71.0893L45.0044 71.2578ZM60.2381 57.3535C58.8457 64.6419 52.7447 70.2595 45.2224 70.9199L45.2669 71.4271C53.0183 70.7466 59.3036 64.9588 60.7382 57.4491L60.2381 57.3535ZM74.3877 51.933C70.4212 54.3527 65.6732 56.163 60.4409 57.1511L60.5354 57.6515C65.8228 56.653 70.6295 54.8221 74.6529 52.3677L74.3877 51.933ZM48.5706 77.35C62.7074 77.35 74.2314 66.164 74.7747 52.1602L74.2658 52.1405C73.7332 65.872 62.4328 76.8408 48.5706 76.8408V77.35ZM42.3317 71.2807C42.9773 73.232 43.7305 75.1205 44.5857 76.9345L45.0463 76.7174C44.2001 74.9223 43.4544 73.0529 42.8151 71.1208L42.3317 71.2807ZM26.4203 54.1812C26.4203 63.3473 33.5434 70.8496 42.5564 71.4548L42.5905 70.9467C33.8431 70.3594 26.9295 63.0775 26.9295 54.1812H26.4203ZM26.6385 51.4251C26.4949 52.3227 26.4203 53.2433 26.4203 54.1812H26.9295C26.9295 53.2704 27.0019 52.3767 27.1413 51.5055L26.6385 51.4251ZM22.5882 48.3987C23.8392 49.5762 25.2324 50.6733 26.7494 51.6776L27.0305 51.253C25.5361 50.2636 24.1658 49.1843 22.9372 48.0279L22.5882 48.3987ZM22.8558 51.1259C22.8558 50.1507 22.91 49.1883 23.0157 48.2415L22.5097 48.185C22.4019 49.1506 22.3466 50.1318 22.3466 51.1259H22.8558ZM44.8525 76.574C32.4125 74.7725 22.8558 64.065 22.8558 51.1259H22.3466C22.3466 64.3217 32.0927 75.2407 44.7795 77.0779L44.8525 76.574ZM44.4556 68.9308C51.0079 68.6151 56.4392 64.0296 58.0288 57.8968L57.5359 57.769C56.0011 63.6903 50.7563 68.1174 44.4311 68.4221L44.4556 68.9308ZM43.2267 64.8488C43.5025 66.1733 43.8272 67.4741 44.199 68.7478L44.6878 68.6051C44.3198 67.3443 43.9983 66.0566 43.7252 64.745L43.2267 64.8488ZM51.5413 58.1641C50.2916 61.5607 47.1929 64.0836 43.4449 64.5442L43.507 65.0496C47.4456 64.5656 50.7041 61.9145 52.0192 58.3399L51.5413 58.1641ZM57.7493 57.5805C55.81 57.834 53.8148 57.9763 51.7776 57.9974L51.7829 58.5066C53.8403 58.4852 55.8558 58.3415 57.8153 58.0854L57.7493 57.5805ZM40.6408 64.8408C40.8946 66.1241 41.192 67.3881 41.5316 68.63L42.0228 68.4957C41.6864 67.2656 41.3918 66.0135 41.1404 64.742L40.6408 64.8408ZM31.7667 54.8176C31.7667 60.0642 35.732 64.3914 40.8585 65.044L40.9228 64.5388C36.0424 63.9176 32.2759 59.7996 32.2759 54.8176H31.7667ZM31.7806 54.2811C31.7714 54.4588 31.7667 54.6377 31.7667 54.8176H32.2759C32.2759 54.6465 32.2804 54.4764 32.2891 54.3075L31.7806 54.2811ZM29.1524 53.1334C30.0452 53.6277 30.972 54.0927 31.9299 54.5262L32.1399 54.0623C31.1941 53.6343 30.2795 53.1755 29.3991 52.688L29.1524 53.1334ZM29.4755 54.1812C29.4755 53.7605 29.4938 53.3441 29.5294 52.9327L29.0221 52.8887C28.9852 53.3147 28.9663 53.7457 28.9663 54.1812H29.4755ZM41.8112 68.3105C34.846 67.3721 29.4755 61.4036 29.4755 54.1812H28.9663C28.9663 61.662 34.5287 67.8431 41.7432 68.8151L41.8112 68.3105ZM43.0782 62.8224C45.9939 62.6405 48.4727 60.85 49.6389 58.3289L49.1768 58.1151C48.0866 60.4719 45.7696 62.1443 43.0465 62.3142L43.0782 62.8224ZM43.0465 62.3142C42.8947 62.3237 42.7416 62.3285 42.5874 62.3285V62.8377C42.7522 62.8377 42.9159 62.8325 43.0782 62.8224L43.0465 62.3142ZM42.5874 62.3285C41.8707 62.3285 41.1788 62.2247 40.5255 62.0314L40.381 62.5197C41.0807 62.7267 41.8213 62.8377 42.5874 62.8377V62.3285ZM40.5255 62.0314C37.6579 61.1831 35.5309 58.6105 35.3446 55.5155L34.8363 55.5461C35.0358 58.8596 37.3125 61.6119 40.381 62.5197L40.5255 62.0314ZM35.3446 55.5155C35.3357 55.3689 35.3312 55.2211 35.3312 55.0723H34.822C34.822 55.2314 34.8268 55.3893 34.8363 55.5461L35.3446 55.5155ZM35.3312 55.0723C35.3312 54.3517 35.4362 53.6562 35.6315 52.9997L35.1434 52.8546C34.9343 53.5576 34.822 54.3021 34.822 55.0723H35.3312ZM35.6315 52.9997C36.2943 50.7717 37.9992 48.9914 40.1808 48.2247L40.0119 47.7443C37.677 48.5649 35.853 50.4694 35.1434 52.8546L35.6315 52.9997ZM40.1808 48.2247C40.9335 47.9601 41.7434 47.8161 42.5874 47.8161V47.3069C41.6851 47.3069 40.8182 47.4609 40.0119 47.7443L40.1808 48.2247ZM42.5874 47.8161C42.622 47.8161 42.6565 47.8164 42.691 47.8169L42.6981 47.3077C42.6613 47.3072 42.6244 47.3069 42.5874 47.3069V47.8161ZM50.3528 55.0723C50.3528 50.8206 46.9358 47.367 42.6981 47.3077L42.691 47.8169C46.6507 47.8722 49.8436 51.0994 49.8436 55.0723H50.3528ZM50.3265 55.7156C50.3439 55.5034 50.3528 55.2889 50.3528 55.0723H49.8436C49.8436 55.275 49.8353 55.4756 49.819 55.674L50.3265 55.7156ZM49.819 55.674C49.748 56.5398 49.525 57.3624 49.1768 58.1151L49.6389 58.3289C50.0118 57.5229 50.2505 56.6422 50.3265 55.7156L49.819 55.674ZM43.0409 45.0496C48.1364 45.4685 52.1349 49.6845 52.1349 54.8176H52.6441C52.6441 49.4119 48.4347 44.9821 43.0826 44.5421L43.0409 45.0496ZM43.6916 40.2577C43.3372 41.7638 43.0441 43.2645 42.8102 44.7565L43.3133 44.8353C43.5452 43.356 43.8358 41.868 44.1873 40.3744L43.6916 40.2577ZM43.8472 39.6122C43.7942 39.8267 43.7424 40.0419 43.6916 40.2577L44.1873 40.3744C44.2376 40.1603 44.289 39.9469 44.3415 39.7342L43.8472 39.6122ZM58.5002 54.1812C58.5002 46.1484 52.0865 39.6137 44.1006 39.4187L44.0881 39.9278C51.7984 40.116 57.991 46.4255 57.991 54.1812H58.5002ZM58.4642 55.2207C58.4881 54.8773 58.5002 54.5306 58.5002 54.1812H57.991C57.991 54.5188 57.9793 54.8537 57.9562 55.1854L58.4642 55.2207ZM52.357 55.9508C54.3744 55.9052 56.3427 55.736 58.2474 55.4549L58.173 54.9512C56.2893 55.2292 54.342 55.3966 52.3454 55.4417L52.357 55.9508ZM52.1349 54.8176C52.1349 55.1062 52.1223 55.3919 52.0976 55.674L52.6048 55.7185C52.6309 55.4216 52.6441 55.1211 52.6441 54.8176H52.1349ZM41.1857 39.7922C40.7898 41.4894 40.4686 43.1832 40.2197 44.8688L40.7235 44.9432C40.9703 43.2714 41.2889 41.5914 41.6816 39.9079L41.1857 39.7922ZM30.0034 50.3237C31.4879 45.0291 35.953 40.9804 41.4737 40.1015L41.3936 39.5986C35.6745 40.5091 31.0507 44.7023 29.5131 50.1862L30.0034 50.3237ZM32.6252 51.4814C31.6737 51.0312 30.7599 50.5482 29.8873 50.0354L29.6293 50.4744C30.5154 50.9952 31.4426 51.4852 32.4074 51.9417L32.6252 51.4814ZM40.4291 44.655C36.5838 45.3063 33.4562 48.0349 32.2745 51.6321L32.7582 51.791C33.8809 48.3735 36.855 45.7768 40.5141 45.157L40.4291 44.655ZM44.7584 37.4082C53.5614 37.9378 60.5371 45.2449 60.5371 54.1812H61.0463C61.0463 44.974 53.8592 37.4456 44.789 36.8999L44.7584 37.4082ZM49.5591 25.0598C47.4999 28.7367 45.7951 32.7623 44.5294 37.0824L45.018 37.2256C46.2731 32.9419 47.9631 28.9519 50.0034 25.3086L49.5591 25.0598ZM74.7206 49.1398C73.7355 35.9863 63.0481 25.5381 49.7929 24.9299L49.7696 25.4385C62.7667 26.0349 73.2469 36.2804 74.2128 49.1778L74.7206 49.1398ZM60.834 54.9972C66.1126 53.9046 70.8179 51.938 74.6095 49.3696L74.3239 48.948C70.593 51.4753 65.9509 53.4181 60.7308 54.4986L60.834 54.9972ZM60.5371 54.1812C60.5371 54.3681 60.534 54.5542 60.5279 54.7396L61.0369 54.7562C61.0431 54.5653 61.0463 54.3736 61.0463 54.1812H60.5371ZM46.6562 25.0915C44.6871 28.815 43.0668 32.8464 41.8682 37.1301L42.3585 37.2673C43.5474 33.0184 45.1543 29.0208 47.1063 25.3296L46.6562 25.0915ZM23.5426 45.1967C26.0959 34.3774 35.4839 26.1975 46.8976 25.4646L46.8649 24.9565C35.224 25.7039 25.651 34.046 23.047 45.0798L23.5426 45.1967ZM27.6807 48.6137C26.0856 47.4874 24.6812 46.2642 23.4819 44.9655L23.1078 45.311C24.3333 46.6381 25.7651 47.8845 27.387 49.0296L27.6807 48.6137ZM42.0895 36.9452C35.1527 37.5987 29.4076 42.3441 27.2921 48.7417L27.7756 48.9016C29.8289 42.6919 35.4059 38.0863 42.1372 37.4522L42.0895 36.9452ZM51.2149 22.9871C64.3513 24.2059 74.8805 34.4163 76.5887 47.4048L77.0936 47.3384C75.3545 34.1151 64.636 23.721 51.262 22.4801L51.2149 22.9871ZM55.2573 16.7898C53.7417 18.5941 52.3246 20.5338 51.0231 22.5978L51.4538 22.8694C52.7432 20.8247 54.1467 18.9037 55.6472 17.1173L55.2573 16.7898ZM82.2 41.3621C79.0185 28.6774 68.5456 18.8863 55.4943 16.7024L55.4103 17.2046C68.2603 19.3548 78.5735 28.9962 81.7061 41.4859L82.2 41.3621ZM77.0046 47.5668C79.1805 45.7447 80.9216 43.7168 82.1735 41.5514L81.7326 41.2966C80.5142 43.4042 78.8138 45.3875 76.6777 47.1764L77.0046 47.5668ZM52.2793 16.4363C50.7862 18.3288 49.3958 20.3477 48.1234 22.4809L48.5608 22.7418C49.8219 20.6273 51.1998 18.6267 52.679 16.7517L52.2793 16.4363ZM49.971 16.7546C50.8085 16.7546 51.6385 16.7861 52.4601 16.8479L52.4983 16.3401C51.664 16.2773 50.8212 16.2454 49.971 16.2454V16.7546ZM19.268 38.1452C23.876 25.6579 35.8841 16.7546 49.971 16.7546V16.2454C35.664 16.2454 23.4697 25.288 18.7903 37.9689L19.268 38.1452ZM21.537 42.5354C20.5387 41.0779 19.7782 39.5509 19.2715 37.9789L18.7868 38.1352C19.3097 39.7573 20.093 41.3282 21.1168 42.8231L21.537 42.5354ZM48.3401 22.3567C35.5181 22.4574 24.6943 30.9454 21.0837 42.604L21.5701 42.7546C25.1169 31.302 35.7499 22.9648 48.3441 22.8659L48.3401 22.3567ZM45.9825 79.6678C46.5217 80.6439 47.0923 81.5944 47.6932 82.5174L48.1199 82.2396C47.5258 81.327 46.9616 80.387 46.4282 79.4216L45.9825 79.6678ZM19.8005 51.1259C19.8005 66.2117 31.4114 78.5854 46.1845 79.7985L46.2261 79.291C31.7151 78.0994 20.3097 65.9445 20.3097 51.1259H19.8005ZM20.291 45.8084C19.9689 47.5319 19.8005 49.3094 19.8005 51.1259H20.3097C20.3097 49.3409 20.4752 47.5948 20.7916 45.9019L20.291 45.8084ZM17.6531 41.9941C18.3849 43.3993 19.2886 44.7447 20.3454 46.0178L20.7372 45.6925C19.7018 44.4453 18.8187 43.1299 18.1047 41.7589L17.6531 41.9941ZM17.2546 49.471C17.2546 46.8772 17.5564 44.3541 18.1267 41.935L17.6311 41.8181C17.0518 44.2753 16.7454 46.8375 16.7454 49.471H17.2546ZM47.9223 82.1244C30.808 81.067 17.2546 66.8517 17.2546 49.471H16.7454C16.7454 67.1224 30.5098 81.5588 47.8909 82.6326L47.9223 82.1244Z" fill="#FFA800" mask="url(#path-4-inside-1_405_533)"/>
<path d="M64.1154 41.9873C59.4587 44.323 51.9308 45.8706 49.2487 46.372C49.0468 46.4097 48.8975 46.2085 48.9893 46.0277C50.0564 43.9257 52.8352 38.5676 55.1484 35.1C55.5698 34.4682 55.9461 33.8868 56.3001 33.3398C57.6933 31.1873 58.7421 29.5667 60.8435 27.5023C62.874 25.5075 66.3713 23.2604 67.7424 22.4099C68.062 22.2117 68.4377 22.1279 68.8163 22.1647L75.0173 22.7676C76.1914 22.8818 77.087 23.8687 77.087 25.0483V31.415C77.087 31.9024 76.8916 32.3618 76.537 32.6886C74.6296 34.4465 68.8127 39.6313 64.1154 41.9873Z" fill="white" stroke="#FFA800" stroke-width="0.509205"/>
<path d="M48.9152 46.0881C59.733 35.482 65.7574 30.1954 76.326 23.6323" stroke="#FFA800" stroke-width="0.254603"/>
<path d="M28.9809 43.3898L28.979 43.3891L28.9476 43.3609C28.9005 43.3184 28.8311 43.2554 28.7421 43.1739C28.5642 43.011 28.3081 42.7742 27.9961 42.4792C27.372 41.8892 26.525 41.0672 25.633 40.1391C24.7406 39.2106 23.8055 38.1782 23.0041 37.1671C22.2001 36.1527 21.5417 35.1734 21.1912 34.3498C20.6916 33.176 20.5422 31.5354 20.5667 29.8847C20.5911 28.2416 20.7868 26.621 20.9559 25.5063C21.07 24.7543 21.6868 24.1868 22.456 24.1024L29.9317 23.2822C29.0907 28.3422 29.2315 32.0602 30.3566 35.4813C31.4479 38.7992 33.4584 41.8156 36.3441 45.4909C34.8211 45.1201 33.118 44.6385 31.7263 44.2276C30.9207 43.9898 30.2206 43.7759 29.722 43.6216C29.4727 43.5444 29.2738 43.4821 29.1373 43.4392L28.9809 43.3898Z" fill="white" stroke="#FFA800" stroke-width="0.509205"/>
<path d="M21.1772 24.8277C20.9842 33.5024 25.3688 37.8978 35.9442 45.4505" stroke="#FFA800" stroke-width="0.254603"/>
<path d="M21.268 64.1639L32.9493 60.2004L28.2404 72.0818C27.9568 72.7972 27.2462 73.2498 26.478 73.2043L21.7793 72.9257C20.8433 72.8702 20.1104 72.099 20.1026 71.1614L20.0585 65.8665C20.0521 65.0974 20.5397 64.411 21.268 64.1639Z" fill="white" stroke="#FFA800" stroke-width="0.509205"/>
<path d="M20.4761 72.166C25.5857 67.7669 28.2274 65.1847 32.697 60.4543" stroke="#FFA800" stroke-width="0.254603"/>
<path d="M49.7682 63.8654C49.6516 63.4092 49.5579 63.023 49.4875 62.7237C53.3673 65.7972 56.5482 68.0533 59.9391 69.8076C63.4447 71.6212 67.1653 72.8937 72.1032 73.9863C71.9626 75.5514 71.6784 76.791 71.1383 78.0073C70.5715 79.2837 69.717 80.5477 68.4259 82.1429C68.3727 82.2086 68.3222 82.278 68.2759 82.3415L68.2653 82.356C68.2146 82.4256 68.1683 82.4885 68.1202 82.5461C68.0237 82.662 67.9367 82.7359 67.8404 82.773C67.4682 82.9161 66.7568 82.992 65.8182 82.9478C64.8902 82.9042 63.7707 82.7449 62.6006 82.4416C60.254 81.8336 57.7421 80.657 56.1507 78.7162C53.9347 76.0135 52.2279 71.8512 51.0728 68.3401C50.4967 66.589 50.0604 65.0083 49.7682 63.8654Z" fill="white" stroke="#FFA800" stroke-width="0.509205"/>
<path d="M67.8267 82.783C56.7899 75.7405 53.1039 71.3412 49.4953 62.924" stroke="#FFA800" stroke-width="0.254603"/>
<defs>
<linearGradient id="paint0_linear_405_533" x1="107.5" y1="-4.5" x2="43.5" y2="100" gradientUnits="userSpaceOnUse">
<stop stop-color="#FFA800"/>
<stop offset="1" stop-color="#FFD700"/>
</linearGradient>
<linearGradient id="paint1_linear_405_533" x1="2" y1="29" x2="24.5" y2="98" gradientUnits="userSpaceOnUse">
<stop stop-color="#DBDCDC" stop-opacity="0.5"/>
<stop offset="1" stop-color="#DBDCDC" stop-opacity="0"/>
</linearGradient>
<linearGradient id="paint2_linear_405_533" x1="87.4998" y1="9" x2="12.9998" y2="128.5" gradientUnits="userSpaceOnUse">
<stop stop-color="white"/>
<stop offset="1" stop-color="white" stop-opacity="0"/>
</linearGradient>
</defs>
</svg>
