<svg width="100" height="100" viewBox="0 0 100 100" fill="none" xmlns="http://www.w3.org/2000/svg">
<circle cx="50" cy="50" r="50" fill="url(#paint0_linear_239_1041)"/>
<g style="mix-blend-mode:multiply">
<path d="M10 50.5C10 71.763 17 85 17 85C17 85 2 71.763 2 50.5C2 29.237 15 18 15 18C15 18 10 29.237 10 50.5Z" fill="url(#paint1_linear_239_1041)"/>
</g>
<path d="M98 50C98 75.9574 78.0767 97 53.5 97C28.9234 97 58.5001 84.9574 58.5001 59C58.5001 33.0426 28.9234 3 53.5 3C78.0767 3 98 24.0426 98 50Z" fill="url(#paint2_linear_239_1041)" fill-opacity="0.4"/>
<mask id="path-4-inside-1_239_1041" fill="white">
<path fill-rule="evenodd" clip-rule="evenodd" d="M30 14.0469C30 12.3641 31.3641 11 33.0469 11H67.4766C69.1593 11 70.5234 12.3641 70.5234 14.0469V19.2266L68.086 20.3692V25.168L70.5234 26.2344V46.7577C65.0873 42.3094 58.1385 39.6406 50.5664 39.6406C42.7083 39.6406 35.5216 42.5148 30 47.2692V14.0469ZM50.5664 42.6875C58.3384 42.6875 65.3835 45.7998 70.5234 50.846V56.7762L66.4564 57.915C65.7985 58.0992 65.3437 58.6988 65.3437 59.382V64.4056C65.3437 65.0783 65.785 65.6714 66.4294 65.8648L70.5234 67.093V77.4219H30V67.0564L33.7624 66.003C34.4202 65.8188 34.875 65.2191 34.875 64.536V59.5124C34.875 58.8397 34.4337 58.2465 33.7893 58.0532L30 56.9164V51.4626C35.1851 46.0545 42.4826 42.6875 50.5664 42.6875ZM30 80.7734V85.9531C30 87.6359 31.3641 89 33.0469 89H67.4766C69.1593 89 70.5234 87.6359 70.5234 85.9531V80.7734H30ZM66.785 59.0886L70.5234 58.0419V65.8206L66.7796 64.6974C66.6507 64.6587 66.5625 64.5401 66.5625 64.4056V59.382C66.5625 59.2454 66.6534 59.1255 66.785 59.0886ZM30 65.7908V58.1888L33.4391 59.2206C33.568 59.2592 33.6563 59.3779 33.6563 59.5124V64.536C33.6563 64.6726 33.5653 64.7925 33.4337 64.8294L30 65.7908ZM37.6172 17.0937C37.6172 15.411 38.9813 14.0469 40.6641 14.0469H60.9258C62.6085 14.0469 63.9727 15.411 63.9727 17.0937V32.6328C63.9727 34.3155 62.6085 35.6797 60.9258 35.6797H40.6641C38.9813 35.6797 37.6172 34.3155 37.6172 32.6328V17.0937ZM50.3379 73.461C56.6903 73.461 61.8399 68.3114 61.8399 61.959C61.8399 55.6067 56.6903 50.4571 50.3379 50.4571C43.9856 50.4571 38.836 55.6067 38.836 61.959C38.836 68.3114 43.9856 73.461 50.3379 73.461ZM34.875 82.6016C34.5385 82.6016 34.2656 82.8744 34.2656 83.211V84.5821C34.2656 84.9186 34.5385 85.1915 34.875 85.1915H39.75C40.0866 85.1915 40.3594 84.9186 40.3594 84.5821V83.211C40.3594 82.8744 40.0866 82.6016 39.75 82.6016H34.875ZM60.6211 83.211C60.6211 82.8744 60.8939 82.6016 61.2304 82.6016H66.1054C66.442 82.6016 66.7148 82.8744 66.7148 83.211V84.5821C66.7148 84.9186 66.442 85.1915 66.1054 85.1915H61.2304C60.8939 85.1915 60.6211 84.9186 60.6211 84.5821V83.211ZM44.7012 85.6484C45.6688 85.6484 46.4531 84.864 46.4531 83.8965C46.4531 82.9289 45.6688 82.1445 44.7012 82.1445C43.7336 82.1445 42.9492 82.9289 42.9492 83.8965C42.9492 84.864 43.7336 85.6484 44.7012 85.6484ZM52.2421 83.8965C52.2421 84.864 51.4578 85.6484 50.4902 85.6484C49.5226 85.6484 48.7382 84.864 48.7382 83.8965C48.7382 82.9289 49.5226 82.1445 50.4902 82.1445C51.4578 82.1445 52.2421 82.9289 52.2421 83.8965ZM56.2793 85.6484C57.2469 85.6484 58.0313 84.864 58.0313 83.8965C58.0313 82.9289 57.2469 82.1445 56.2793 82.1445C55.3117 82.1445 54.5274 82.9289 54.5274 83.8965C54.5274 84.864 55.3117 85.6484 56.2793 85.6484Z"/>
</mask>
<path fill-rule="evenodd" clip-rule="evenodd" d="M30 14.0469C30 12.3641 31.3641 11 33.0469 11H67.4766C69.1593 11 70.5234 12.3641 70.5234 14.0469V19.2266L68.086 20.3692V25.168L70.5234 26.2344V46.7577C65.0873 42.3094 58.1385 39.6406 50.5664 39.6406C42.7083 39.6406 35.5216 42.5148 30 47.2692V14.0469ZM50.5664 42.6875C58.3384 42.6875 65.3835 45.7998 70.5234 50.846V56.7762L66.4564 57.915C65.7985 58.0992 65.3437 58.6988 65.3437 59.382V64.4056C65.3437 65.0783 65.785 65.6714 66.4294 65.8648L70.5234 67.093V77.4219H30V67.0564L33.7624 66.003C34.4202 65.8188 34.875 65.2191 34.875 64.536V59.5124C34.875 58.8397 34.4337 58.2465 33.7893 58.0532L30 56.9164V51.4626C35.1851 46.0545 42.4826 42.6875 50.5664 42.6875ZM30 80.7734V85.9531C30 87.6359 31.3641 89 33.0469 89H67.4766C69.1593 89 70.5234 87.6359 70.5234 85.9531V80.7734H30ZM66.785 59.0886L70.5234 58.0419V65.8206L66.7796 64.6974C66.6507 64.6587 66.5625 64.5401 66.5625 64.4056V59.382C66.5625 59.2454 66.6534 59.1255 66.785 59.0886ZM30 65.7908V58.1888L33.4391 59.2206C33.568 59.2592 33.6563 59.3779 33.6563 59.5124V64.536C33.6563 64.6726 33.5653 64.7925 33.4337 64.8294L30 65.7908ZM37.6172 17.0937C37.6172 15.411 38.9813 14.0469 40.6641 14.0469H60.9258C62.6085 14.0469 63.9727 15.411 63.9727 17.0937V32.6328C63.9727 34.3155 62.6085 35.6797 60.9258 35.6797H40.6641C38.9813 35.6797 37.6172 34.3155 37.6172 32.6328V17.0937ZM50.3379 73.461C56.6903 73.461 61.8399 68.3114 61.8399 61.959C61.8399 55.6067 56.6903 50.4571 50.3379 50.4571C43.9856 50.4571 38.836 55.6067 38.836 61.959C38.836 68.3114 43.9856 73.461 50.3379 73.461ZM34.875 82.6016C34.5385 82.6016 34.2656 82.8744 34.2656 83.211V84.5821C34.2656 84.9186 34.5385 85.1915 34.875 85.1915H39.75C40.0866 85.1915 40.3594 84.9186 40.3594 84.5821V83.211C40.3594 82.8744 40.0866 82.6016 39.75 82.6016H34.875ZM60.6211 83.211C60.6211 82.8744 60.8939 82.6016 61.2304 82.6016H66.1054C66.442 82.6016 66.7148 82.8744 66.7148 83.211V84.5821C66.7148 84.9186 66.442 85.1915 66.1054 85.1915H61.2304C60.8939 85.1915 60.6211 84.9186 60.6211 84.5821V83.211ZM44.7012 85.6484C45.6688 85.6484 46.4531 84.864 46.4531 83.8965C46.4531 82.9289 45.6688 82.1445 44.7012 82.1445C43.7336 82.1445 42.9492 82.9289 42.9492 83.8965C42.9492 84.864 43.7336 85.6484 44.7012 85.6484ZM52.2421 83.8965C52.2421 84.864 51.4578 85.6484 50.4902 85.6484C49.5226 85.6484 48.7382 84.864 48.7382 83.8965C48.7382 82.9289 49.5226 82.1445 50.4902 82.1445C51.4578 82.1445 52.2421 82.9289 52.2421 83.8965ZM56.2793 85.6484C57.2469 85.6484 58.0313 84.864 58.0313 83.8965C58.0313 82.9289 57.2469 82.1445 56.2793 82.1445C55.3117 82.1445 54.5274 82.9289 54.5274 83.8965C54.5274 84.864 55.3117 85.6484 56.2793 85.6484Z" fill="white"/>
<path d="M70.5234 19.2266L70.6508 19.4982L70.8234 19.4173V19.2266H70.5234ZM68.086 20.3692L67.9586 20.0975L67.786 20.1785V20.3692H68.086ZM68.086 25.168H67.786V25.3642L67.9657 25.4428L68.086 25.168ZM70.5234 26.2344H70.8234V26.0382L70.6437 25.9595L70.5234 26.2344ZM70.5234 46.7577L70.3335 46.9898L70.8234 47.3908V46.7577H70.5234ZM30 47.2692H29.7V47.9234L30.1958 47.4965L30 47.2692ZM70.5234 50.846H70.8234V50.7201L70.7336 50.6319L70.5234 50.846ZM70.5234 56.7762L70.6043 57.0651L70.8234 57.0038V56.7762H70.5234ZM66.4564 57.915L66.5373 58.2039H66.5373L66.4564 57.915ZM66.4294 65.8648L66.5156 65.5774L66.4294 65.8648ZM70.5234 67.093H70.8234V66.8698L70.6096 66.8056L70.5234 67.093ZM70.5234 77.4219V77.7219H70.8234V77.4219H70.5234ZM30 77.4219H29.7V77.7219H30V77.4219ZM30 67.0564L29.9191 66.7676L29.7 66.8289V67.0564H30ZM33.7624 66.003L33.6815 65.7141L33.7624 66.003ZM33.7893 58.0532L33.7031 58.3406H33.7031L33.7893 58.0532ZM30 56.9164H29.7V57.1396L29.9138 57.2038L30 56.9164ZM30 51.4626L29.7835 51.255L29.7 51.3421V51.4626H30ZM30 80.7734V80.4734H29.7V80.7734H30ZM70.5234 80.7734H70.8234V80.4734H70.5234V80.7734ZM70.5234 58.0419H70.8234V57.6463L70.4425 57.753L70.5234 58.0419ZM66.785 59.0886L66.8659 59.3775H66.8659L66.785 59.0886ZM70.5234 65.8206L70.4372 66.1079L70.8234 66.2238V65.8206H70.5234ZM66.7796 64.6974L66.8658 64.4101H66.8658L66.7796 64.6974ZM30 58.1888L30.0862 57.9015L29.7 57.7856V58.1888H30ZM30 65.7908H29.7V66.1864L30.0809 66.0797L30 65.7908ZM33.4391 59.2206L33.3529 59.5079H33.3529L33.4391 59.2206ZM33.4337 64.8294L33.5146 65.1183L33.5146 65.1183L33.4337 64.8294ZM33.0469 10.7C31.1984 10.7 29.7 12.1984 29.7 14.0469H30.3C30.3 12.5298 31.5298 11.3 33.0469 11.3V10.7ZM67.4766 10.7H33.0469V11.3H67.4766V10.7ZM70.8234 14.0469C70.8234 12.1984 69.325 10.7 67.4766 10.7V11.3C68.9936 11.3 70.2234 12.5298 70.2234 14.0469H70.8234ZM70.8234 19.2266V14.0469H70.2234V19.2266H70.8234ZM68.2133 20.6408L70.6508 19.4982L70.3961 18.955L67.9586 20.0975L68.2133 20.6408ZM68.386 25.168V20.3692H67.786V25.168H68.386ZM70.6437 25.9595L68.2062 24.8931L67.9657 25.4428L70.4032 26.5092L70.6437 25.9595ZM70.8234 46.7577V26.2344H70.2234V46.7577H70.8234ZM50.5664 39.9406C58.0668 39.9406 64.9489 42.5838 70.3335 46.9898L70.7134 46.5255C65.2256 42.035 58.2103 39.3406 50.5664 39.3406V39.9406ZM30.1958 47.4965C35.6649 42.7872 42.7829 39.9406 50.5664 39.9406V39.3406C42.6338 39.3406 35.3782 42.2423 29.8042 47.0419L30.1958 47.4965ZM29.7 14.0469V47.2692H30.3V14.0469H29.7ZM70.7336 50.6319C65.5399 45.5328 58.4202 42.3875 50.5664 42.3875V42.9875C58.2567 42.9875 65.2272 46.0667 70.3133 51.0601L70.7336 50.6319ZM70.8234 56.7762V50.846H70.2234V56.7762H70.8234ZM66.5373 58.2039L70.6043 57.0651L70.4425 56.4873L66.3755 57.6261L66.5373 58.2039ZM65.6437 59.382C65.6437 58.8334 66.009 58.3518 66.5373 58.2039L66.3755 57.6261C65.5881 57.8466 65.0437 58.5643 65.0437 59.382H65.6437ZM65.6437 64.4056V59.382H65.0437V64.4056H65.6437ZM66.5156 65.5774C65.9981 65.4222 65.6437 64.9459 65.6437 64.4056H65.0437C65.0437 65.2108 65.5719 65.9207 66.3432 66.1521L66.5156 65.5774ZM70.6096 66.8056L66.5156 65.5774L66.3432 66.1521L70.4372 67.3803L70.6096 66.8056ZM70.8234 77.4219V67.093H70.2234V77.4219H70.8234ZM30 77.7219H70.5234V77.1219H30V77.7219ZM29.7 67.0564V77.4219H30.3V67.0564H29.7ZM33.6815 65.7141L29.9191 66.7676L30.0809 67.3453L33.8432 66.2919L33.6815 65.7141ZM34.575 64.536C34.575 65.0846 34.2098 65.5662 33.6815 65.7141L33.8432 66.2919C34.6307 66.0714 35.175 65.3537 35.175 64.536H34.575ZM34.575 59.5124V64.536H35.175V59.5124H34.575ZM33.7031 58.3406C34.2206 58.4958 34.575 58.9721 34.575 59.5124H35.175C35.175 58.7072 34.6468 57.9973 33.8755 57.7659L33.7031 58.3406ZM29.9138 57.2038L33.7031 58.3406L33.8755 57.7659L30.0862 56.6291L29.9138 57.2038ZM29.7 51.4626V56.9164H30.3V51.4626H29.7ZM50.5664 42.3875C42.3975 42.3875 35.0228 45.7903 29.7835 51.255L30.2165 51.6703C35.3474 46.3187 42.5676 42.9875 50.5664 42.9875V42.3875ZM29.7 80.7734V85.9531H30.3V80.7734H29.7ZM29.7 85.9531C29.7 87.8016 31.1984 89.3 33.0469 89.3V88.7C31.5298 88.7 30.3 87.4702 30.3 85.9531H29.7ZM33.0469 89.3H67.4766V88.7H33.0469V89.3ZM67.4766 89.3C69.325 89.3 70.8234 87.8016 70.8234 85.9531H70.2234C70.2234 87.4702 68.9936 88.7 67.4766 88.7V89.3ZM70.8234 85.9531V80.7734H70.2234V85.9531H70.8234ZM70.5234 80.4734H30V81.0734H70.5234V80.4734ZM70.4425 57.753L66.7041 58.7997L66.8659 59.3775L70.6043 58.3307L70.4425 57.753ZM70.8234 65.8206V58.0419H70.2234V65.8206H70.8234ZM66.6934 64.9848L70.4372 66.1079L70.6096 65.5332L66.8658 64.4101L66.6934 64.9848ZM66.2625 64.4056C66.2625 64.6726 66.4376 64.908 66.6934 64.9848L66.8658 64.4101C66.8638 64.4095 66.8625 64.4076 66.8625 64.4056H66.2625ZM66.2625 59.382V64.4056H66.8625V59.382H66.2625ZM66.7041 58.7997C66.443 58.8728 66.2625 59.1109 66.2625 59.382H66.8625C66.8625 59.3799 66.8639 59.3781 66.8659 59.3775L66.7041 58.7997ZM29.7 58.1888V65.7908H30.3V58.1888H29.7ZM33.5253 58.9332L30.0862 57.9015L29.9138 58.4762L33.3529 59.5079L33.5253 58.9332ZM33.9563 59.5124C33.9563 59.2454 33.7811 59.01 33.5253 58.9332L33.3529 59.5079C33.3549 59.5085 33.3563 59.5103 33.3563 59.5124H33.9563ZM33.9563 64.536V59.5124H33.3563V64.536H33.9563ZM33.5146 65.1183C33.7758 65.0451 33.9563 64.8071 33.9563 64.536H33.3563C33.3563 64.5381 33.3549 64.5399 33.3529 64.5405L33.5146 65.1183ZM30.0809 66.0797L33.5146 65.1183L33.3529 64.5405L29.9191 65.5019L30.0809 66.0797ZM40.6641 13.7469C38.8156 13.7469 37.3172 15.2453 37.3172 17.0937H37.9172C37.9172 15.5767 39.147 14.3469 40.6641 14.3469V13.7469ZM60.9258 13.7469H40.6641V14.3469H60.9258V13.7469ZM64.2727 17.0937C64.2727 15.2453 62.7742 13.7469 60.9258 13.7469V14.3469C62.4428 14.3469 63.6727 15.5767 63.6727 17.0937H64.2727ZM64.2727 32.6328V17.0937H63.6727V32.6328H64.2727ZM60.9258 35.9797C62.7742 35.9797 64.2727 34.4812 64.2727 32.6328H63.6727C63.6727 34.1499 62.4428 35.3797 60.9258 35.3797V35.9797ZM40.6641 35.9797H60.9258V35.3797H40.6641V35.9797ZM37.3172 32.6328C37.3172 34.4812 38.8156 35.9797 40.6641 35.9797V35.3797C39.147 35.3797 37.9172 34.1499 37.9172 32.6328H37.3172ZM37.3172 17.0937V32.6328H37.9172V17.0937H37.3172ZM61.5399 61.959C61.5399 68.1457 56.5246 73.161 50.3379 73.161V73.761C56.856 73.761 62.1399 68.477 62.1399 61.959H61.5399ZM50.3379 50.7571C56.5246 50.7571 61.5399 55.7723 61.5399 61.959H62.1399C62.1399 55.441 56.856 50.1571 50.3379 50.1571V50.7571ZM39.136 61.959C39.136 55.7723 44.1513 50.7571 50.3379 50.7571V50.1571C43.8199 50.1571 38.536 55.441 38.536 61.959H39.136ZM50.3379 73.161C44.1513 73.161 39.136 68.1457 39.136 61.959H38.536C38.536 68.477 43.8199 73.761 50.3379 73.761V73.161ZM34.5656 83.211C34.5656 83.0401 34.7042 82.9016 34.875 82.9016V82.3016C34.3728 82.3016 33.9656 82.7087 33.9656 83.211H34.5656ZM34.5656 84.5821V83.211H33.9656V84.5821H34.5656ZM34.875 84.8914C34.7042 84.8914 34.5656 84.7529 34.5656 84.5821H33.9656C33.9656 85.0843 34.3728 85.4915 34.875 85.4915V84.8914ZM39.75 84.8914H34.875V85.4915H39.75V84.8914ZM40.0594 84.5821C40.0594 84.7529 39.9209 84.8914 39.75 84.8914V85.4915C40.2523 85.4915 40.6594 85.0843 40.6594 84.5821H40.0594ZM40.0594 83.211V84.5821H40.6594V83.211H40.0594ZM39.75 82.9016C39.9209 82.9016 40.0594 83.0401 40.0594 83.211H40.6594C40.6594 82.7087 40.2523 82.3016 39.75 82.3016V82.9016ZM34.875 82.9016H39.75V82.3016H34.875V82.9016ZM61.2304 82.3016C60.7282 82.3016 60.3211 82.7087 60.3211 83.211H60.9211C60.9211 83.0401 61.0596 82.9016 61.2304 82.9016V82.3016ZM66.1054 82.3016H61.2304V82.9016H66.1054V82.3016ZM67.0148 83.211C67.0148 82.7087 66.6077 82.3016 66.1054 82.3016V82.9016C66.2763 82.9016 66.4148 83.0401 66.4148 83.211H67.0148ZM67.0148 84.5821V83.211H66.4148V84.5821H67.0148ZM66.1054 85.4915C66.6077 85.4915 67.0148 85.0843 67.0148 84.5821H66.4148C66.4148 84.7529 66.2763 84.8914 66.1054 84.8914V85.4915ZM61.2304 85.4915H66.1054V84.8914H61.2304V85.4915ZM60.3211 84.5821C60.3211 85.0843 60.7282 85.4915 61.2304 85.4915V84.8914C61.0596 84.8914 60.9211 84.7529 60.9211 84.5821H60.3211ZM60.3211 83.211V84.5821H60.9211V83.211H60.3211ZM46.1531 83.8965C46.1531 84.6984 45.5031 85.3484 44.7012 85.3484V85.9484C45.8344 85.9484 46.7531 85.0297 46.7531 83.8965H46.1531ZM44.7012 82.4445C45.5031 82.4445 46.1531 83.0946 46.1531 83.8965H46.7531C46.7531 82.7632 45.8344 81.8445 44.7012 81.8445V82.4445ZM43.2492 83.8965C43.2492 83.0946 43.8993 82.4445 44.7012 82.4445V81.8445C43.5679 81.8445 42.6492 82.7632 42.6492 83.8965H43.2492ZM44.7012 85.3484C43.8993 85.3484 43.2492 84.6984 43.2492 83.8965H42.6492C42.6492 85.0297 43.5679 85.9484 44.7012 85.9484V85.3484ZM50.4902 85.9484C51.6235 85.9484 52.5421 85.0297 52.5421 83.8965H51.9421C51.9421 84.6984 51.2921 85.3484 50.4902 85.3484V85.9484ZM48.4382 83.8965C48.4382 85.0297 49.3569 85.9484 50.4902 85.9484V85.3484C49.6883 85.3484 49.0382 84.6984 49.0382 83.8965H48.4382ZM50.4902 81.8445C49.3569 81.8445 48.4382 82.7632 48.4382 83.8965H49.0382C49.0382 83.0946 49.6883 82.4445 50.4902 82.4445V81.8445ZM52.5421 83.8965C52.5421 82.7632 51.6235 81.8445 50.4902 81.8445V82.4445C51.2921 82.4445 51.9421 83.0946 51.9421 83.8965H52.5421ZM57.7313 83.8965C57.7313 84.6984 57.0812 85.3484 56.2793 85.3484V85.9484C57.4126 85.9484 58.3313 85.0297 58.3313 83.8965H57.7313ZM56.2793 82.4445C57.0812 82.4445 57.7313 83.0946 57.7313 83.8965H58.3313C58.3313 82.7632 57.4126 81.8445 56.2793 81.8445V82.4445ZM54.8274 83.8965C54.8274 83.0946 55.4774 82.4445 56.2793 82.4445V81.8445C55.1461 81.8445 54.2274 82.7632 54.2274 83.8965H54.8274ZM56.2793 85.3484C55.4774 85.3484 54.8274 84.6984 54.8274 83.8965H54.2274C54.2274 85.0297 55.1461 85.9484 56.2793 85.9484V85.3484Z" fill="#FFA800" mask="url(#path-4-inside-1_239_1041)"/>
<defs>
<linearGradient id="paint0_linear_239_1041" x1="107.5" y1="-4.5" x2="43.5" y2="100" gradientUnits="userSpaceOnUse">
<stop stop-color="#FFA800"/>
<stop offset="1" stop-color="#FFD700"/>
</linearGradient>
<linearGradient id="paint1_linear_239_1041" x1="2" y1="29" x2="24.5" y2="98" gradientUnits="userSpaceOnUse">
<stop stop-color="#DBDCDC" stop-opacity="0.5"/>
<stop offset="1" stop-color="#DBDCDC" stop-opacity="0"/>
</linearGradient>
<linearGradient id="paint2_linear_239_1041" x1="87.5" y1="9" x2="13" y2="128.5" gradientUnits="userSpaceOnUse">
<stop stop-color="white"/>
<stop offset="1" stop-color="white" stop-opacity="0"/>
</linearGradient>
</defs>
</svg>
