<svg width="100" height="100" viewBox="0 0 100 100" fill="none" xmlns="http://www.w3.org/2000/svg">
<circle cx="50" cy="50" r="50" fill="url(#paint0_linear_323_2392)"/>
<g style="mix-blend-mode:multiply">
<path d="M10 50.5C10 71.763 17 85 17 85C17 85 2 71.763 2 50.5C2 29.237 15 18 15 18C15 18 10 29.237 10 50.5Z" fill="url(#paint1_linear_323_2392)"/>
</g>
<path d="M97.9998 50C97.9998 75.9574 78.0765 97 53.4998 97C28.9231 97 58.4998 84.9574 58.4998 59C58.4998 33.0426 28.9231 3 53.4998 3C78.0765 3 97.9998 24.0426 97.9998 50Z" fill="url(#paint2_linear_323_2392)" fill-opacity="0.4"/>
<g clip-path="url(#clip0_323_2392)">
<path d="M63.7977 69.9602L63.7424 69.8208L63.7421 69.8209L63.7411 69.8213L63.7367 69.823L63.7188 69.83C63.7027 69.8362 63.6786 69.8455 63.6468 69.8575C63.5831 69.8815 63.4885 69.9165 63.3653 69.9604C63.119 70.0482 62.7586 70.1712 62.3038 70.3118C61.3941 70.5929 60.1073 70.9438 58.6 71.2225C55.5821 71.7807 51.6964 72.0466 48.1859 70.8991C44.6787 69.7527 42.1985 67.4084 40.5929 65.3443C39.7905 64.3127 39.2081 63.353 38.8265 62.6517C38.6357 62.3011 38.4952 62.0153 38.4026 61.8176C38.3563 61.7187 38.322 61.642 38.2994 61.5901C38.2881 61.5642 38.2797 61.5446 38.2742 61.5315L38.2681 61.5169L38.2666 61.5134L38.2663 61.5127L38.2663 61.5125L38.0618 61.0117L37.9792 61.5463L38.1274 61.5692C37.9792 61.5463 37.9791 61.5465 37.9791 61.5466L37.979 61.5471L37.9788 61.549L37.9777 61.556L37.9739 61.5826C37.9707 61.6058 37.9661 61.64 37.9606 61.6845C37.9496 61.7735 37.935 61.9037 37.9202 62.0698C37.8907 62.4021 37.8608 62.8785 37.8585 63.4572C37.854 64.6138 37.9602 66.1827 38.4046 67.8272C39.2949 71.122 41.5459 74.7237 46.964 75.9093C52.3596 77.0898 56.5992 75.626 59.4873 73.8675C60.9306 72.9886 62.0366 72.0361 62.7823 71.303C63.1551 70.9364 63.4381 70.6243 63.6283 70.4034C63.7234 70.2929 63.7953 70.2052 63.8436 70.1448C63.8678 70.1147 63.8861 70.0913 63.8985 70.0753L63.9126 70.057L63.9163 70.0521L63.9173 70.0508L63.9176 70.0504C63.9177 70.0502 63.9177 70.0502 63.7977 69.9602ZM63.7977 69.9602L63.7424 69.8208L64.2365 69.6248L63.9177 70.0502L63.7977 69.9602ZM71.4461 61.4912C71.4461 73.009 62.0736 82.3471 50.5109 82.3471C38.9482 82.3471 29.5758 73.009 29.5758 61.4912C29.5758 58.7031 30.811 54.6752 32.6976 50.1576C34.5817 45.6462 37.1062 40.6672 39.6664 35.985C44.5982 26.9657 49.6571 19.0576 50.5109 17.7331C51.3647 19.0576 56.4237 26.9657 61.3554 35.985C63.9157 40.6672 66.4402 45.6462 68.3242 50.1576C70.2108 54.6752 71.4461 58.7031 71.4461 61.4912Z" fill="white" stroke="url(#paint3_linear_323_2392)" stroke-width="0.3"/>
</g>
<defs>
<linearGradient id="paint0_linear_323_2392" x1="107.5" y1="-4.5" x2="43.5" y2="100" gradientUnits="userSpaceOnUse">
<stop stop-color="#FFA800"/>
<stop offset="1" stop-color="#FFD700"/>
</linearGradient>
<linearGradient id="paint1_linear_323_2392" x1="2" y1="29" x2="24.5" y2="98" gradientUnits="userSpaceOnUse">
<stop stop-color="#DBDCDC" stop-opacity="0.5"/>
<stop offset="1" stop-color="#DBDCDC" stop-opacity="0"/>
</linearGradient>
<linearGradient id="paint2_linear_323_2392" x1="87.4998" y1="9" x2="12.9998" y2="128.5" gradientUnits="userSpaceOnUse">
<stop stop-color="white"/>
<stop offset="1" stop-color="white" stop-opacity="0"/>
</linearGradient>
<linearGradient id="paint3_linear_323_2392" x1="74.7588" y1="14.5751" x2="28.1372" y2="63.9648" gradientUnits="userSpaceOnUse">
<stop stop-color="#FFA800"/>
<stop offset="1" stop-color="#FFD700"/>
</linearGradient>
<clipPath id="clip0_323_2392">
<rect width="65" height="65" fill="white" transform="translate(18 17.5)"/>
</clipPath>
</defs>
</svg>
