<svg width="100" height="100" viewBox="0 0 100 100" fill="none" xmlns="http://www.w3.org/2000/svg">
<circle cx="50" cy="50" r="50" fill="#4E4E4E"/>
<path fill-rule="evenodd" clip-rule="evenodd" d="M53.3477 15.3954C52.4491 12.8626 48.8644 12.8701 47.9764 15.4067L39.7511 38.9024C37.5118 39.8297 32.2281 42.062 28.4352 44.0156C25.323 45.6187 21.5456 48.41 19.0479 50.3643C17.6275 51.4756 17.6629 53.6012 19.082 54.7142L28.9414 62.447L30.976 79.0311C31.1512 80.4589 32.3638 81.5319 33.8023 81.5319H35.6624C36.2946 83.9882 38.5243 85.8032 41.178 85.8032H42.4594C45.1131 85.8032 47.3428 83.9882 47.9751 81.5319H53.4595C54.0917 83.9882 56.3215 85.8032 58.9751 85.8032H59.9718C62.6254 85.8032 64.8552 83.9882 65.4874 81.5319H67.7454C69.1963 81.5319 70.4153 80.4409 70.5755 78.9988L72.3995 62.5827L82.0022 54.4062C83.3792 53.2337 83.3267 51.097 81.8714 50.023C79.5361 48.2996 76.1716 45.8954 73.4975 44.3004C69.6901 42.0295 63.9002 39.382 61.4738 38.2997L53.3477 15.3954ZM35.8622 59.801C35.6755 58.1146 36.9957 56.6402 38.6924 56.6402H40.0601C41.6555 58.8794 43.8352 60.0392 45.5493 59.3414C46.9707 58.7627 47.729 57.0465 47.706 54.9282C48.3631 54.069 49.4482 53.5078 50.6755 53.5078C52.202 53.5078 53.5084 54.3759 54.0452 55.6056C54.1192 57.2611 54.7514 58.5899 55.9032 59.1574C57.6181 60.0024 59.9694 58.9055 61.7421 56.6402H63.0856C64.7823 56.6402 66.1025 58.1146 65.9158 59.801L64.4817 72.7573C64.3221 74.1999 63.1029 75.2915 61.6515 75.2915H40.1265C38.6751 75.2915 37.4559 74.1999 37.2962 72.7573L35.8622 59.801ZM44.9874 51.5645C46.0382 53.8724 45.8005 56.2394 44.4564 56.8514C43.1124 57.4633 41.171 56.0885 40.1202 53.7806C39.0693 51.4727 39.3071 49.1057 40.6511 48.4938C41.9951 47.8818 43.9366 49.2566 44.9874 51.5645ZM57.3029 56.8434C58.6435 57.463 60.5927 56.0992 61.6566 53.7974C62.7205 51.4955 62.4963 49.1272 61.1558 48.5076C59.8152 47.888 57.866 49.2517 56.8021 51.5536C55.7381 53.8555 55.9624 56.2238 57.3029 56.8434ZM30.6716 49.9484C30.6716 50.6561 30.0979 51.2298 29.3902 51.2298C28.6825 51.2298 28.1088 50.6561 28.1088 49.9484C28.1088 49.2407 28.6825 48.667 29.3902 48.667C30.0979 48.667 30.6716 49.2407 30.6716 49.9484ZM29.3902 56.6401C30.0979 56.6401 30.6716 56.0664 30.6716 55.3587C30.6716 54.651 30.0979 54.0773 29.3902 54.0773C28.6825 54.0773 28.1088 54.651 28.1088 55.3587C28.1088 56.0664 28.6825 56.6401 29.3902 56.6401ZM73.6693 49.8061C73.6693 50.5138 73.0956 51.0875 72.3879 51.0875C71.6802 51.0875 71.1065 50.5138 71.1065 49.8061C71.1065 49.0984 71.6802 48.5247 72.3879 48.5247C73.0956 48.5247 73.6693 49.0984 73.6693 49.8061ZM72.3879 56.4978C73.0956 56.4978 73.6693 55.9241 73.6693 55.2164C73.6693 54.5087 73.0956 53.935 72.3879 53.935C71.6802 53.935 71.1065 54.5087 71.1065 55.2164C71.1065 55.9241 71.6802 56.4978 72.3879 56.4978Z" fill="#1F2029"/>
</svg>
