<svg width="100" height="100" viewBox="0 0 100 100" fill="none" xmlns="http://www.w3.org/2000/svg">
<circle cx="50" cy="50" r="50" fill="#4E4E4E"/>
<path d="M72.9227 17.5H83V27.1804L48.4029 61.3807L53.0133 65.9911L56.7731 66.9308C57.5417 67.1235 58.0548 67.81 58.0229 68.6003C57.991 69.3905 57.4242 70.0337 56.6431 70.1625L48.8134 71.4682L41.9474 64.6022L30.5439 76.0057V79.9068C30.5439 81.3368 29.3807 82.5 27.9507 82.5H20.5932C19.1632 82.5 18 81.3368 18 79.9068V72.5493C18 71.1193 19.1632 69.9561 20.5932 69.9561H23.6926L35.4953 58.1524L28.6737 51.3308L29.326 42.8489C29.3875 42.054 29.9817 41.4325 30.7719 41.3356C31.5622 41.2387 32.2886 41.6971 32.5395 42.4532L34.0732 47.0533L38.7213 51.7014L72.9227 17.5Z" fill="#1F2029"/>
</svg>
