<svg width="100" height="100" viewBox="0 0 100 100" fill="none" xmlns="http://www.w3.org/2000/svg">
<circle cx="50" cy="50" r="50" fill="#4E4E4E"/>
<path fill-rule="evenodd" clip-rule="evenodd" d="M61.4431 17.0636C61.4905 16.9961 61.5834 16.9797 61.6509 17.027L66.2662 20.2587C66.3337 20.3059 66.3501 20.399 66.3029 20.4665L59.8792 29.6404C63.0021 30.6381 65.1297 31.7142 65.1297 31.7142C65.1297 31.7142 59.9292 40.6596 51.1086 40.6596C42.288 40.6596 36.0202 32.3224 36.0202 32.3224C36.0202 32.3224 38.2427 30.904 41.5371 29.6876L34.4912 21.2907C34.4383 21.2276 34.4465 21.1335 34.5096 21.0805L38.8256 17.4589C38.8889 17.4059 38.9829 17.4142 39.0359 17.4773L47.9571 28.1092C48.721 28.0228 49.4992 27.9745 50.2846 27.9745C51.4133 27.9745 52.5406 28.0603 53.6412 28.2059L61.4431 17.0636ZM63.1882 41.0833C65.542 39.4021 69.1038 35.0144 69.1038 35.0144C69.1038 35.0144 78.2018 42.2241 78.2018 57.5112C78.2018 72.7983 62.4728 81.999 62.4728 81.999C62.4728 81.999 54.9578 74.4096 53.1129 64.789C51.2682 55.1683 55.8419 44.4857 55.8419 44.4857C55.8419 44.4857 60.8342 42.7644 63.1882 41.0833ZM37.8378 41.0833C35.484 39.4021 31.9222 35.0144 31.9222 35.0144C31.9222 35.0144 22.8242 42.2241 22.8242 57.5112C22.8242 72.7983 38.5532 81.999 38.5532 81.999C38.5532 81.999 46.0682 74.4096 47.9131 64.789C49.7578 55.1683 45.1841 44.4857 45.1841 44.4857C45.1841 44.4857 40.1918 42.7644 37.8378 41.0833Z" fill="#1F2029"/>
</svg>
