<svg width="100" height="100" viewBox="0 0 100 100" fill="none" xmlns="http://www.w3.org/2000/svg">
<circle cx="50" cy="50" r="50" fill="#4E4E4E"/>
<path fill-rule="evenodd" clip-rule="evenodd" d="M24.2918 33.8529H53.9174C55.6445 33.8529 57.0609 35.2012 57.1982 36.9161L57.209 37.1898V80.5693C57.209 82.3201 55.8789 83.756 54.1872 83.8952L53.9174 83.9062H24.2918C22.5647 83.9062 21.1483 82.5579 21.011 80.843L21 80.5693V37.1898C21 35.439 22.33 34.0032 24.0217 33.864L24.2918 33.8529ZM72.0219 15.5C75.6578 15.5 78.6053 18.4879 78.6053 22.1738V65.5533C78.6053 69.2392 75.6578 72.2272 72.0219 72.2272L60.5001 72.2268L60.5008 37.1898C60.5008 33.6228 57.7404 30.7095 54.267 30.5252L53.9174 30.516L35.8127 30.5152V22.1738C35.8127 18.4879 38.7604 15.5 42.3963 15.5H72.0219ZM49.6533 60.5041C48.7963 65.6125 44.3535 69.5049 39.0016 69.5049C33.6498 69.5049 29.207 65.6125 28.35 60.5041H33.9084C34.6498 62.6017 36.6502 64.1044 39.0016 64.1044C41.3531 64.1044 43.3535 62.6017 44.0948 60.5041H49.6533ZM49.8026 58.7039C49.8026 52.7387 44.9669 47.903 39.0016 47.903C33.0364 47.903 28.2007 52.7387 28.2007 58.7039H33.6012C33.6012 55.7213 36.019 53.3035 39.0016 53.3035C41.9843 53.3035 44.4021 55.7213 44.4021 58.7039H49.8026ZM42.602 58.7039C42.602 56.7155 40.9901 55.1036 39.0016 55.1036C37.0132 55.1036 35.4013 56.7155 35.4013 58.7039C35.4013 60.6924 37.0132 62.3043 39.0016 62.3043C40.9901 62.3043 42.602 60.6924 42.602 58.7039Z" fill="#1F2029"/>
</svg>
