<svg width="100" height="100" viewBox="0 0 100 100" fill="none" xmlns="http://www.w3.org/2000/svg">
<circle cx="50" cy="50" r="50" fill="#4E4E4E"/>
<g clip-path="url(#clip0_313_210)">
<path fill-rule="evenodd" clip-rule="evenodd" d="M47.1203 74.4907C48.3552 74.6798 49.6199 74.7778 50.9077 74.7778C64.6189 74.7778 75.734 63.6626 75.734 49.9514C75.734 36.2401 64.6189 25.125 50.9077 25.125C49.9878 25.125 49.0795 25.175 48.1856 25.2725C54.9871 30.4254 59.484 39.3516 59.484 49.5C59.484 60.1691 54.5137 69.4875 47.1203 74.4907ZM50.4563 82C68.4055 82 82.9563 67.4493 82.9563 49.5C82.9563 31.5507 68.4055 17 50.4563 17C32.507 17 17.9563 31.5507 17.9563 49.5C17.9563 67.4493 32.507 82 50.4563 82Z" fill="#1F2029"/>
</g>
<defs>
<clipPath id="clip0_313_210">
<rect width="65" height="65" fill="white" transform="translate(18 17)"/>
</clipPath>
</defs>
</svg>
