<svg width="100" height="100" viewBox="0 0 100 100" fill="none" xmlns="http://www.w3.org/2000/svg">
<circle cx="50" cy="50" r="50" fill="#4E4E4E"/>
<path fill-rule="evenodd" clip-rule="evenodd" d="M50.5003 83.9773C50.2735 83.9773 50.0466 83.9431 49.8279 83.8746C42.4793 81.5735 36.2229 77.1599 31.2322 70.7565C27.3031 65.7151 24.157 59.4405 21.8819 52.1071C18.0441 39.7378 18 28.7187 18 28.2558C18 27.1463 18.8622 26.218 19.9921 26.1113C20.1622 26.0952 37.279 24.3775 49.2053 15.9111C49.9776 15.3626 51.0233 15.3633 51.7956 15.9113C63.7186 24.3775 80.8375 26.0952 81.009 26.1115C82.138 26.2193 83 27.1471 83 28.2558C83 28.7187 82.9559 39.7378 79.1183 52.1073C76.843 59.4407 73.6972 65.7153 69.7681 70.7567C64.7776 77.1601 58.5212 81.5737 51.1725 83.8748C50.9539 83.9431 50.7271 83.9773 50.5003 83.9773ZM62.9697 51.5C62.4498 57.6595 57.1711 62.5 50.7358 62.5C44.3005 62.5 39.0217 57.6595 38.5019 51.5H45.7231C46.197 53.7822 48.2612 55.5 50.7358 55.5C53.2103 55.5 55.2745 53.7822 55.7484 51.5H62.9697ZM62.9697 49.5C62.4498 43.3405 57.1711 38.5 50.7358 38.5C44.3005 38.5 39.0217 43.3405 38.5019 49.5H45.7231C46.197 47.2178 48.2612 45.5 50.7358 45.5C53.2103 45.5 55.2745 47.2178 55.7484 49.5H62.9697ZM53.8507 50.5C53.8507 52.1142 52.4992 53.5 50.7358 53.5C48.9723 53.5 47.6208 52.1142 47.6208 50.5C47.6208 48.8858 48.9723 47.5 50.7358 47.5C52.4992 47.5 53.8507 48.8858 53.8507 50.5Z" fill="#1F2029"/>
</svg>
