<svg width="100" height="100" viewBox="0 0 100 100" fill="none" xmlns="http://www.w3.org/2000/svg">
<circle cx="50" cy="50" r="50" fill="#4E4E4E"/>
<g clip-path="url(#clip0_313_248)">
<path fill-rule="evenodd" clip-rule="evenodd" d="M53.636 49.8579C54.0765 49.5893 54.4503 49.0264 54.7517 48.4008C58.7183 50.022 61.5058 53.8529 61.5058 58.3205C61.5058 64.2556 56.5864 69.067 50.518 69.067C48.027 69.067 45.7295 68.2561 43.8865 66.8897C43.282 66.6034 42.7846 66.3285 42.3775 66.1034C41.7462 65.7544 41.3322 65.5255 41.073 65.5613C40.3152 65.6658 40.5352 66.363 40.7351 66.9964C40.8709 67.4266 40.9974 67.8274 40.8015 67.9927C40.5966 68.1658 39.9329 67.533 39.1574 66.7936C38.1016 65.787 36.8387 64.5829 36.2432 64.9445C35.7723 65.2306 36.2295 66.0064 36.7891 66.956L36.8306 67.0264C37.067 67.4279 37.3409 67.8367 37.5909 68.2096C38.0991 68.9677 38.5084 69.5786 38.3036 69.6819C38.0561 69.8068 36.3313 68.6427 34.8778 67.0264C34.3168 66.4027 33.7734 65.7266 33.2684 65.0983V65.0982C32.163 63.7227 31.2421 62.577 30.7251 62.7127C30.1033 62.876 30.5737 64.1587 31.265 65.3931C31.5882 65.9703 31.9684 66.5581 32.2976 67.0671V67.0672C32.8096 67.8586 33.1982 68.4592 33.0573 68.5331C32.8671 68.6325 31.1937 67.0008 30.0572 64.9445C29.3821 63.7231 28.8153 62.3734 28.3563 61.2807C27.8587 60.0956 27.488 59.2129 27.2439 59.124C26.3957 58.8154 26.3957 60.5446 26.7359 63.0404C26.7803 63.366 26.8463 63.7075 26.9277 64.0552C30.2265 74.7286 40.36 82.5 52.3493 82.5C67.0146 82.5 78.903 70.8726 78.903 56.5295C78.903 42.8779 68.1337 31.6866 54.4508 30.6389C54.468 29.9958 54.8037 28.7205 54.8037 28.7205C54.8037 28.7205 57.2192 22.8761 57.347 21.6272C57.3553 21.5443 57.3654 21.4543 57.3762 21.3583C57.5266 20.009 57.8065 17.5 55.6481 17.5C54.4953 17.5 53.9593 18.3575 53.3463 19.3383V19.3383C53.1109 19.7148 52.8641 20.1095 52.5668 20.4807C50.4254 23.1549 46.8245 26.4945 44.7827 28.2736C40.467 32.0341 36.2329 35.1246 33.7634 36.9271L33.7633 36.9273C32.6401 37.747 31.8821 38.3004 31.6475 38.529C29.8795 40.2525 23.5405 51.6867 23.5405 51.6867C23.5405 51.6867 21.4905 55.3551 22.2191 56.0992C22.9478 56.8432 24.7049 56.6727 24.7049 56.6727C24.7049 56.6727 48.3107 51.2572 50.4241 50.8301C50.9931 50.7151 51.3948 50.6487 51.7031 50.5978C52.5404 50.4596 52.6907 50.4347 53.636 49.8579ZM36.9459 42.8988C35.6787 44.1032 33.5773 46.978 33.5773 46.978C33.5773 46.978 37.4829 47.2186 39.6338 45.174C41.7849 43.1293 41.2921 39.6448 41.2921 39.6448C41.2921 39.6448 38.2128 41.6943 36.9459 42.8988Z" fill="#1F2029"/>
</g>
<defs>
<clipPath id="clip0_313_248">
<rect width="65" height="65" fill="white" transform="translate(18 17.5)"/>
</clipPath>
</defs>
</svg>
