<svg width="100" height="100" viewBox="0 0 100 100" fill="none" xmlns="http://www.w3.org/2000/svg">
<circle cx="50" cy="50" r="50" fill="#4E4E4E"/>
<g clip-path="url(#clip0_313_3)">
<path fill-rule="evenodd" clip-rule="evenodd" d="M37.368 17.5741C37.3554 17.5378 37.3824 17.5 37.4208 17.5H60.2506C60.2751 17.5 60.2968 17.5159 60.3041 17.5393L70.7902 51.4182C70.8012 51.4541 70.7744 51.4906 70.7367 51.4906H55.538C55.5195 51.4906 55.5061 51.5082 55.5112 51.5261L64.2281 82.2113C64.2451 82.2709 64.167 82.3097 64.1298 82.2602L30.2547 37.2116C30.227 37.1748 30.2533 37.1223 30.2993 37.1223H44.0934C44.1126 37.1223 44.1261 37.1033 44.1197 37.0852L37.368 17.5741Z" fill="#1F2029"/>
</g>
<defs>
<clipPath id="clip0_313_3">
<rect width="65" height="65" fill="white" transform="translate(18 17.5)"/>
</clipPath>
</defs>
</svg>
