<svg width="100" height="100" viewBox="0 0 100 100" fill="none" xmlns="http://www.w3.org/2000/svg">
<circle cx="50" cy="50" r="50" fill="#4E4E4E"/>
<g clip-path="url(#clip0_313_27)">
<path fill-rule="evenodd" clip-rule="evenodd" d="M31.0414 69.0402L41.467 66.0172L50.4718 82.4818C50.4836 82.5032 50.5142 82.5032 50.5259 82.4818L59.5307 66.0172L69.9565 69.0402C69.9798 69.0469 70.0015 69.0252 69.9945 69.0018L66.971 58.7825L82.9817 50.0259C83.0032 50.0142 83.0032 49.9836 82.9818 49.9719L66.8391 41.1431L69.9945 30.4778C70.0015 30.4544 69.9798 30.4327 69.9565 30.4394L59.2862 33.5334L50.5259 17.516C50.5142 17.4947 50.4836 17.4947 50.4719 17.516L41.7117 33.5334L31.0414 30.4394C31.018 30.4327 30.9963 30.4544 31.0033 30.4778L34.1587 41.1431L18.016 49.9719C17.9947 49.9836 17.9947 50.0142 18.016 50.0259L34.0267 58.7825L31.0033 69.0018C30.9963 69.0252 31.018 69.0469 31.0414 69.0402ZM39.1316 50.1112L46.5176 54.1507L50.5571 61.5366C50.5688 61.5581 50.5995 61.5581 50.6112 61.5366L54.6507 54.1507L62.0366 50.1112C62.0579 50.0995 62.0579 50.0688 62.0366 50.0571L54.6507 46.0176L50.6112 38.6317C50.5995 38.6103 50.5688 38.6103 50.5571 38.6317L46.5176 46.0176L39.1316 50.0571C39.1103 50.0688 39.1103 50.0995 39.1316 50.1112Z" fill="#1F2029"/>
</g>
<defs>
<clipPath id="clip0_313_27">
<rect width="65" height="65" fill="white" transform="translate(18 17.5)"/>
</clipPath>
</defs>
</svg>
