<svg width="100" height="100" viewBox="0 0 100 100" fill="none" xmlns="http://www.w3.org/2000/svg">
<circle cx="50" cy="50" r="50" fill="#4E4E4E"/>
<g clip-path="url(#clip0_313_63)">
<path fill-rule="evenodd" clip-rule="evenodd" d="M29.2015 22.9038C29.9882 19.798 32.8018 17.5 36.1521 17.5C38.6652 17.5 40.8763 18.793 42.1565 20.75H44.2529C45.5553 19.4134 47.3749 18.5833 49.3885 18.5833C52.3407 18.5833 54.8762 20.3676 55.9754 22.9167H57.7305C58.8303 22.2301 60.1298 21.8333 61.5218 21.8333C64.4741 21.8333 67.0095 23.6176 68.1087 26.1667H72.8815C72.9222 26.1667 72.9604 26.1777 72.9933 26.1968C73.2113 26.1769 73.432 26.1667 73.6551 26.1667C77.6149 26.1667 80.8248 29.3766 80.8248 33.3364V54.8351L80.8249 54.875L80.8248 54.9149V55.2245C80.8248 55.3556 80.8212 55.4863 80.8141 55.6163C80.3827 70.5305 66.972 82.5 50.4915 82.5C33.7389 82.5 20.1582 70.1318 20.1582 54.875C20.1582 47.5106 23.3225 40.8191 28.4804 35.8669C28.4676 43.0465 28.5888 50.469 29.1478 50.3416C30.6447 50.0004 29.4752 27.7628 29.2015 22.9038Z" fill="#1F2029"/>
</g>
<defs>
<clipPath id="clip0_313_63">
<rect width="65" height="65" fill="white" transform="translate(18 17.5)"/>
</clipPath>
</defs>
</svg>
