<svg width="100" height="100" viewBox="0 0 100 100" fill="none" xmlns="http://www.w3.org/2000/svg">
<circle cx="50" cy="50" r="50" fill="#4E4E4E"/>
<g clip-path="url(#clip0_313_181)">
<path fill-rule="evenodd" clip-rule="evenodd" d="M62.7203 67.6965C63.5234 64.76 61.9645 58.7229 61.9645 58.7229C61.9645 58.7229 60.8339 63.641 59.0672 65.4587C57.56 67.0092 55.7135 68.0846 53.0652 68.3672C55.2304 67.3155 56.7194 65.1227 56.7194 62.588C56.7194 59.03 53.7853 56.1457 50.1659 56.1457C46.5464 56.1457 43.6122 59.03 43.6122 62.588C43.6122 63.5597 43.8312 64.4813 44.2231 65.3075C41.9592 63.504 41.6033 60.6125 41.6033 60.6125C41.6033 60.6125 39.0754 71.1077 46.0408 76.0447C53.0061 80.9816 66.6509 76.7381 66.6509 76.7381C66.6509 76.7381 47.1243 90.4774 32.655 75.5239C20.1908 62.6425 29.4018 45.684 29.4018 45.684C29.4018 45.684 29.004 47.2572 29.004 49.0834C29.004 50.9096 29.9942 52.2991 29.9942 52.2991C29.9942 52.2991 32.9477 46.0735 35.2463 43.5416C37.4218 41.1455 40.1489 39.2021 42.5044 37.5236C44.3175 36.2314 45.9105 35.0962 46.8619 34.0322C52.1022 28.1728 48.8891 17.5 48.8891 17.5C48.8891 17.5 54.7962 22.7076 56.4454 29.4333C57.074 31.997 56.6696 34.914 56.308 37.5225C55.721 41.7572 55.2465 45.179 59.4874 44.9569C66.3406 44.598 60.3853 34.0322 60.3853 34.0322C60.3853 34.0322 75.931 42.2029 74.7696 56.493C73.6082 70.7831 57.7775 74.0318 57.7775 74.0318C57.7775 74.0318 61.917 70.6331 62.7203 67.6965Z" fill="#1F2029"/>
</g>
<defs>
<clipPath id="clip0_313_181">
<rect width="65" height="65" fill="white" transform="translate(18 17.5)"/>
</clipPath>
</defs>
</svg>
