<svg width="100" height="100" viewBox="0 0 100 100" fill="none" xmlns="http://www.w3.org/2000/svg">
<circle cx="50" cy="50" r="50" fill="#4E4E4E"/>
<path fill-rule="evenodd" clip-rule="evenodd" d="M40.688 78.1497C50.2099 78.1497 58.3618 72.8577 61.7272 65.3557C61.7684 65.2642 48.2157 68.8778 48.6479 67.6004C48.8408 67.03 57.1487 63.9951 63.2014 60.4551C66.6803 58.4204 68.2823 54.1133 68.2823 54.1133C68.2823 54.1133 62.4213 56.9589 59.4583 57.6808C53.4875 59.1357 48.2315 58.979 48.2315 58.8274C48.2315 58.4996 56.9589 56.8414 69.089 49.4495C74.7946 45.9727 76.3444 39.9838 76.3444 39.9838C76.3444 39.9838 70.0715 43.7203 66.2794 44.9539C57.2865 47.8792 49.08 48.7608 49.08 48.365C49.08 47.5174 56.302 45.5315 63.9591 41.8213C67.9403 39.8922 71.3882 37.372 75.3838 34.5692C81.9217 29.9836 82.9999 21.8164 82.9999 21.8164C82.9999 21.8164 76.5517 25.9754 73.4049 27.3566C60.4202 33.0557 48.9549 36.0452 40.688 36.6924C28.2091 37.6694 18 46.3763 18 57.6808C18 68.9855 28.1578 78.1497 40.688 78.1497Z" fill="#1F2029"/>
</svg>
