<svg width="100" height="100" viewBox="0 0 100 100" fill="none" xmlns="http://www.w3.org/2000/svg">
<circle cx="50" cy="50" r="50" fill="#4E4E4E"/>
<path fill-rule="evenodd" clip-rule="evenodd" d="M39.4203 7.47648L40.8795 12.3958L41.6943 15.0151C41.9948 15.9813 43.002 16.5404 43.981 16.2844L45.53 15.8794L44.0561 19.6601H34.7864C32.6952 19.6601 31 21.3553 31 23.4465V80.5695C31 82.6606 32.6952 84.3559 34.7864 84.3559H43.925L46.5377 92.2093C47.377 94.7321 50.9126 94.8214 51.8782 92.3443L54.9923 84.3559H64.3371C66.4283 84.3559 68.1235 82.6606 68.1235 80.5695V23.4465C68.1235 21.3553 66.4283 19.6601 64.3371 19.6601H54.9283L52.4054 12.0768C51.8075 10.2794 49.8409 9.71726 48.4102 10.4384L48.4804 10.199L45.3856 11.1212L40.6634 6.70786C40.0995 6.18081 39.2008 6.73647 39.4203 7.47648ZM35.5052 24.2016C35.5052 23.7834 35.8442 23.4443 36.2625 23.4443H39.7938C40.212 23.4443 40.5511 23.7834 40.5511 24.2016V24.3089C40.5511 24.7272 40.212 25.0662 39.7938 25.0662H36.2625C35.8442 25.0662 35.5052 24.7272 35.5052 24.3089V24.2016ZM36.2625 25.7871C35.8442 25.7871 35.5052 26.1262 35.5052 26.5444V26.6518C35.5052 27.07 35.8442 27.409 36.2625 27.409H39.7938C40.212 27.409 40.5511 27.07 40.5511 26.6518V26.5444C40.5511 26.1262 40.212 25.7871 39.7938 25.7871H36.2625ZM35.5052 28.8871C35.5052 28.4689 35.8442 28.1298 36.2625 28.1298H39.7938C40.212 28.1298 40.5511 28.4689 40.5511 28.8871V28.9945C40.5511 29.4127 40.212 29.7517 39.7938 29.7517H36.2625C35.8442 29.7517 35.5052 29.4127 35.5052 28.9945V28.8871ZM49.5617 26.0613C50.6566 26.0613 51.5441 25.1737 51.5441 24.0789C51.5441 22.9841 50.6566 22.0966 49.5617 22.0966C48.4669 22.0966 47.5794 22.9841 47.5794 24.0789C47.5794 25.1737 48.4669 26.0613 49.5617 26.0613ZM44.1553 22.9978H45.7773C45.7773 22.9978 45.7528 24.7329 46.408 25.5208C47.0823 26.3315 48.8408 26.6921 48.8408 26.6921L48.8408 28.314C48.8408 28.314 46.0652 27.9624 45.0564 26.6921C44.133 25.5292 44.1553 22.9978 44.1553 22.9978ZM50.3336 26.734L50.4013 28.3546C50.4013 28.3546 52.6734 27.7052 53.7968 26.734C55.0239 25.6731 54.878 22.9979 54.878 22.9979L53.256 22.9979C53.256 22.9979 53.3524 24.7545 52.5352 25.6109C51.8341 26.3457 50.3336 26.734 50.3336 26.734Z" fill="#1F2029"/>
</svg>
