<svg width="100" height="100" viewBox="0 0 100 100" fill="none" xmlns="http://www.w3.org/2000/svg">
<circle cx="50" cy="50" r="50" fill="#4E4E4E"/>
<g clip-path="url(#clip0_313_19)">
<path fill-rule="evenodd" clip-rule="evenodd" d="M64.8396 82.2749C58.9765 82.575 52.2641 82.575 49.983 82.2749C32.1895 79.934 18 66.9245 18 49.3398C18 31.7552 32.5507 17.5 50.5 17.5C68.4493 17.5 83 31.7552 83 49.3398C83 57.5183 79.8525 64.9765 74.6795 70.6155C73.2748 72.1467 75.2022 73.2207 77.1604 74.312C79.081 75.3824 81.0312 76.4692 79.8978 78.0201C78.6488 79.729 71.8779 81.9146 64.8396 82.2749ZM45.9297 45.3599C45.9297 48.1074 43.6561 50.3348 40.8516 50.3348C38.047 50.3348 35.7734 48.1074 35.7734 45.3599C35.7734 43.5171 36.796 41.9085 38.3155 41.0487C38.403 43.4444 40.3728 45.3597 42.79 45.3597H45.9297V45.3599ZM61.6688 41.0487C61.5814 43.4444 59.6115 45.3597 57.1944 45.3597H54.0547V45.3599C54.0547 48.1074 56.3283 50.3348 59.1328 50.3348C61.9373 50.3348 64.2109 48.1074 64.2109 45.3599C64.2109 43.5171 63.1883 41.9085 61.6688 41.0487Z" fill="#1F2029"/>
</g>
<defs>
<clipPath id="clip0_313_19">
<rect width="65" height="65" fill="white" transform="translate(18 17.5)"/>
</clipPath>
</defs>
</svg>
