<svg width="100" height="100" viewBox="0 0 100 100" fill="none" xmlns="http://www.w3.org/2000/svg">
<circle cx="50" cy="50" r="50" fill="#4E4E4E"/>
<path fill-rule="evenodd" clip-rule="evenodd" d="M30.3667 73.4418C30.1436 73.2319 29.9229 73.018 29.7048 72.7999C18.1921 61.2873 18.1921 42.6215 29.7048 31.1089C41.2175 19.5961 77.9013 18.826 77.9013 18.826C77.9013 18.826 82.9086 61.2873 71.396 72.7999C61.1712 83.0247 45.3043 84.1685 33.8172 76.2316L43.0731 64.8729L57.8695 61.6784L45.7913 60.471L53.4672 52.6555L62.2046 50.7414L55.2955 48.6953L62.2046 36.2316L52.3771 47.2546L48.5821 41.8994L49.9181 50.7414L43.0731 58.4579L39.9002 48.6952V61.6784L30.3667 73.4418Z" fill="#1F2029"/>
</svg>
