<svg width="100" height="100" viewBox="0 0 100 100" fill="none" xmlns="http://www.w3.org/2000/svg">
<circle cx="50" cy="50" r="50" fill="#4E4E4E"/>
<g clip-path="url(#clip0_313_116)">
<path fill-rule="evenodd" clip-rule="evenodd" d="M32.3157 73.3281C32.2981 73.3281 32.2858 73.3108 32.2916 73.2941L48.8863 26.4037C48.89 26.3935 48.8996 26.3867 48.9104 26.3867H66.6257C66.6365 26.3867 66.6463 26.3936 66.6498 26.4038L82.9984 73.2942C83.0041 73.3109 82.9917 73.3281 82.9742 73.3281H32.8144H32.3157ZM18.0256 73.5116C18.0077 73.5116 17.9954 73.4938 18.0016 73.4772L30.3592 40.4856C30.363 40.4756 30.3725 40.469 30.3831 40.469H41.1204C41.1382 40.469 41.1505 40.4866 41.1444 40.5033L29.195 73.4948C29.1914 73.5049 29.1818 73.5116 29.171 73.5116H18.0256Z" fill="#1F2029"/>
</g>
<defs>
<clipPath id="clip0_313_116">
<rect width="65" height="65" fill="white" transform="translate(18 17.5)"/>
</clipPath>
</defs>
</svg>
