<svg width="100" height="100" viewBox="0 0 100 100" fill="none" xmlns="http://www.w3.org/2000/svg">
<circle cx="50" cy="50" r="50" fill="#4E4E4E"/>
<path fill-rule="evenodd" clip-rule="evenodd" d="M28 14.0714C28 13.2036 28.7036 12.5 29.5714 12.5H42.4571V23.1857H38.0571C37.1893 23.1857 36.4857 23.8893 36.4857 24.7571V45.6571C36.4857 46.525 37.1893 47.2286 38.0571 47.2286H42.4571V65.6644V66.1263C39.5887 68.3543 37.7429 71.8366 37.7429 75.75C37.7429 82.476 43.1954 87.9286 49.9214 87.9286C56.6475 87.9286 62.1 82.476 62.1 75.75C62.1 71.944 60.3541 68.5457 57.6195 66.3125L57.6214 65.8527L57.7 47.2312L57.0714 47.2286H61.9429C62.8107 47.2286 63.5143 46.525 63.5143 45.6571V24.7571C63.5143 23.8893 62.8107 23.1857 61.9429 23.1857H57.7V12.5H70.4286C71.2964 12.5 72 13.2036 72 14.0714V68.1286C72 71.3785 69.5336 74.0523 66.3706 74.3804C66.456 75.0607 66.5 75.7538 66.5 76.4571C66.5 85.5698 59.1127 92.9571 50 92.9571C40.8873 92.9571 33.5 85.5698 33.5 76.4571C33.5 75.7538 33.544 75.0607 33.6294 74.3804C30.4664 74.0523 28 71.3785 28 68.1286V14.0714ZM56.4429 47.2286H43.7143V64.5969C43.8252 64.5383 43.9431 64.477 44.0664 64.4141C44.8034 64.0387 45.7734 63.5892 46.6116 63.3583C47.9277 62.9958 48.6912 62.9213 50.0103 62.9429C51.5214 62.9677 52.4239 63.1772 53.7987 63.5991C54.5689 63.8355 55.4581 64.2725 56.1324 64.6343C56.214 64.6781 56.293 64.721 56.3689 64.7628L56.4429 47.2286ZM43.7143 23.1857V12.5H56.4429V23.1857H43.7143ZM61.6286 62.4714C63.2775 62.4714 64.6143 61.1347 64.6143 59.4857C64.6143 57.8368 63.2775 56.5 61.6286 56.5C59.9796 56.5 58.6429 57.8368 58.6429 59.4857C58.6429 61.1347 59.9796 62.4714 61.6286 62.4714Z" fill="#1F2029"/>
</svg>
