<svg width="100" height="100" viewBox="0 0 100 100" fill="none" xmlns="http://www.w3.org/2000/svg">
<circle cx="50" cy="50" r="50" fill="#4E4E4E"/>
<path fill-rule="evenodd" clip-rule="evenodd" d="M39.0042 70.4674L38.8771 70.3558L38.8768 70.3555C26.3053 59.319 18 52.0278 18 40.099C18 30.2306 25.7304 22.5002 35.599 22.5C40.0345 22.5 44.4169 24.1699 47.7918 27.0652C51.1661 24.1703 55.5483 22.5 59.9838 22.5C69.8521 22.5 77.5823 30.2302 77.5823 40.0988C77.5823 41.5762 77.4113 43.0583 77.0786 44.5249C80.7233 47.9825 83 52.8691 83 58.2778C83 68.7335 74.4936 77.2399 64.0379 77.2399C59.9022 77.2399 56.0724 75.9082 52.9525 73.6525L49.563 76.5809C49.0543 77.0201 48.4231 77.2399 47.7919 77.2399C47.1608 77.2399 46.5296 77.0205 46.0211 76.5811L42.2254 73.3025C42.2175 73.2956 42.2095 73.2887 42.2017 73.2817C41.1056 72.3123 40.039 71.3759 39.0042 70.4674ZM77.4735 56.5586C76.6261 49.8992 70.9238 44.7337 64.0378 44.7337C57.1516 44.7337 51.4494 49.8992 50.602 56.5586H57.1905C58.056 53.4845 60.8806 51.2312 64.2314 51.2312C67.5823 51.2312 70.4068 53.4845 71.2723 56.5586H77.4735ZM77.5463 59.2675H71.5101C71.1474 62.9678 68.027 65.8591 64.2314 65.8591C60.4358 65.8591 57.3155 62.9678 56.9527 59.2675H50.5292C51.0376 66.2755 56.9021 71.8223 64.0378 71.8223C71.1734 71.8223 77.0379 66.2755 77.5463 59.2675ZM59.6263 58.5451C59.6263 56.0018 61.6881 53.94 64.2314 53.94C66.7747 53.94 68.8365 56.0018 68.8365 58.5451C68.8365 61.0884 66.7747 63.1502 64.2314 63.1502C61.6881 63.1502 59.6263 61.0884 59.6263 58.5451Z" fill="#1F2029"/>
</svg>
