<svg width="100" height="100" viewBox="0 0 100 100" fill="none" xmlns="http://www.w3.org/2000/svg">
<circle cx="50" cy="50" r="50" fill="#4E4E4E"/>
<path fill-rule="evenodd" clip-rule="evenodd" d="M66.7886 22.4565L66.9886 40.0205L51.6691 47.3745L51.4802 30.7907L66.7886 22.4565Z" fill="#1F2029"/>
<path fill-rule="evenodd" clip-rule="evenodd" d="M82.1455 50.1329L66.9804 58.8072L51.8062 50.1192L66.9725 42.1526L82.1455 50.1329Z" fill="#1F2029"/>
<path fill-rule="evenodd" clip-rule="evenodd" d="M49.1085 50.1329L33.9433 58.8072L18.769 50.1192L33.9354 42.1526L49.1085 50.1329Z" fill="#1F2029"/>
<path fill-rule="evenodd" clip-rule="evenodd" d="M33.7729 22.3846L49.5134 30.1802L49.1109 47.1686L34.249 39.8081L33.7729 22.3846Z" fill="#1F2029"/>
<path fill-rule="evenodd" clip-rule="evenodd" d="M67.217 77.6155L51.4766 69.8198L51.879 52.8313L66.7409 60.1919L67.217 77.6155Z" fill="#1F2029"/>
<path fill-rule="evenodd" clip-rule="evenodd" d="M34.3165 77.7735L34.1165 60.2096L49.436 52.8556L49.6249 69.4392L34.3165 77.7735Z" fill="#1F2029"/>
</svg>
