<svg width="100" height="100" viewBox="0 0 100 100" fill="none" xmlns="http://www.w3.org/2000/svg">
<circle cx="50" cy="50" r="50" fill="#4E4E4E"/>
<path fill-rule="evenodd" clip-rule="evenodd" d="M30 12.9786C30 12.162 30.662 11.5 31.4786 11.5H38.2802C41.5466 11.5 44.1946 14.148 44.1946 17.4144V18.3015H67.7043C68.5209 18.3015 69.1829 18.9635 69.1829 19.7801V67.8346H69.035H30.1479H30V40.7763H30.1479H35.4707H35.5271C36.2021 48.7277 42.87 54.9708 50.9961 54.9708C59.1222 54.9708 65.7902 48.7277 66.4652 40.7763H66.5215H69.035H69.1829V40.6284V36.3405V36.1926H69.035H66.2278H66.1801C64.685 29.1799 58.4548 23.9202 50.9961 23.9202C43.5374 23.9202 37.3072 29.1799 35.8122 36.1926H35.7645H30.1479H30V18.5973V18.3015V12.9786ZM30 70.2004V81.5856C30 84.852 32.648 87.5 35.9144 87.5H63.2685C66.5349 87.5 69.1829 84.852 69.1829 81.5856V70.2004H69.035H30.1479H30ZM50.9961 49.3521C56.4674 49.3521 60.9027 44.9168 60.9027 39.4455C60.9027 33.9743 56.4674 29.5389 50.9961 29.5389C45.5249 29.5389 41.0895 33.9743 41.0895 39.4455C41.0895 44.9168 45.5249 49.3521 50.9961 49.3521ZM65.0428 62.5117C65.0428 64.0632 63.785 65.321 62.2335 65.321C60.6819 65.321 59.4241 64.0632 59.4241 62.5117C59.4241 60.9601 60.6819 59.7024 62.2335 59.7024C63.785 59.7024 65.0428 60.9601 65.0428 62.5117ZM62.1596 82.3249C64.4052 82.3249 66.2257 80.5044 66.2257 78.2588C66.2257 76.0131 64.4052 74.1926 62.1596 74.1926C59.9139 74.1926 58.0934 76.0131 58.0934 78.2588C58.0934 80.5044 59.9139 82.3249 62.1596 82.3249ZM50.9961 54.823C59.4888 54.823 66.3736 47.9382 66.3736 39.4455C66.3736 30.9528 59.4888 24.0681 50.9961 24.0681C42.5034 24.0681 35.6187 30.9528 35.6187 39.4455C35.6187 47.9382 42.5034 54.823 50.9961 54.823ZM30.1479 36.3405H35.7407L35.73 36.4087C35.7065 36.5584 35.6746 36.7678 35.641 37.0063C35.574 37.4823 35.4993 38.0786 35.4711 38.5495C35.4448 38.9876 35.4449 39.5466 35.4514 39.9937C35.4546 40.2177 35.4595 40.4146 35.4636 40.5556L35.4658 40.6284H30.1479V36.3405ZM66.5268 40.6284H69.035V36.3405H66.2522L66.2619 36.4006C66.2852 36.5457 66.3169 36.7485 66.3504 36.9796C66.4172 37.4407 66.4919 38.0185 66.5211 38.475C66.55 38.9277 66.5499 39.5056 66.5428 39.9676C66.5392 40.1992 66.5338 40.4027 66.5294 40.5483L66.5268 40.6284ZM30.1479 67.9825H69.035V70.0525H30.1479V67.9825Z" fill="#1F2029"/>
</svg>
