<svg width="100" height="100" viewBox="0 0 100 100" fill="none" xmlns="http://www.w3.org/2000/svg">
<circle cx="50" cy="50" r="50" fill="#4E4E4E"/>
<path fill-rule="evenodd" clip-rule="evenodd" d="M46.1642 10.5C36.6847 10.5 29 18.1847 29 27.6642V52.513V52.513V78.9315C29 79.848 29.3591 80.6806 29.9443 81.2962C30.0776 81.5269 30.2692 81.732 30.5194 81.8891L42.3781 89.333C44.7851 90.8438 47.8741 90.7156 50.1476 89.0105L59.2423 82.1896C59.7352 81.8199 60.0924 81.3565 60.3188 80.8502C60.6887 80.3024 60.9046 79.6422 60.9046 78.9315V52.7325C67.127 49.2249 71.329 42.5544 71.329 34.9023C71.329 23.6061 62.1716 14.4486 50.8753 14.4486C50.6374 14.4486 50.4004 14.4527 50.1645 14.4607V13.9328C50.1645 12.0369 48.6275 10.5 46.7316 10.5H46.1642ZM43.8468 55.8298C43.8468 58.4467 41.7254 60.5681 39.1085 60.5681C36.4916 60.5681 34.3702 58.4467 34.3702 55.8298C34.3702 53.2129 36.4916 51.0915 39.1085 51.0915C41.7254 51.0915 43.8468 53.2129 43.8468 55.8298ZM51.7439 50.1439C60.4669 50.1439 67.5383 43.0725 67.5383 34.3495C67.5383 25.6265 60.4669 18.5551 51.7439 18.5551C43.0209 18.5551 35.9495 25.6265 35.9495 34.3495C35.9495 43.0725 43.0209 50.1439 51.7439 50.1439ZM34.3702 65.5433C34.3702 63.8423 35.7491 62.4634 37.4501 62.4634H40.7669C42.4679 62.4634 43.8468 63.8423 43.8468 65.5433C43.8468 67.2443 42.4679 68.6232 40.7669 68.6232H37.4501C35.7491 68.6232 34.3702 67.2443 34.3702 65.5433ZM37.4501 69.5709C35.7491 69.5709 34.3702 70.9498 34.3702 72.6508C34.3702 74.3518 35.7491 75.7307 37.4501 75.7307H40.7669C42.4679 75.7307 43.8468 74.3518 43.8468 72.6508C43.8468 70.9498 42.4679 69.5709 40.7669 69.5709H37.4501ZM54.113 55.7443C54.113 54.3215 54.9908 53.0461 56.3199 52.5379L59.4831 51.3284V75.0989L55.9765 76.4397C55.0775 76.7834 54.113 76.1196 54.113 75.1571V55.7443ZM31.1015 52.513H30.2635V76.3625H31.1015C31.8599 76.3625 32.4747 75.7477 32.4747 74.9893V53.8861C32.4747 53.1278 31.8599 52.513 31.1015 52.513Z" fill="#1F2029"/>
</svg>
