<svg width="100" height="100" viewBox="0 0 100 100" fill="none" xmlns="http://www.w3.org/2000/svg">
<circle cx="50" cy="50" r="50" fill="#4E4E4E"/>
<path d="M45.68 51.0619C45.7443 51.6508 45.9136 52.2048 46.2746 52.6652C46.8203 53.3612 47.4068 54.0247 47.979 54.6993C48.6656 55.5093 49.3558 56.3158 50.0436 57.1248C50.2848 57.4083 50.5638 57.4311 50.8518 57.1941C50.9743 57.0933 51.0802 56.9798 51.1855 56.8613C51.798 56.1709 52.4164 55.4855 53.0356 54.8011C53.604 54.1728 54.182 53.5531 54.7426 52.9178C54.926 52.7099 55.1335 52.5212 55.2819 52.282C55.7384 51.5464 55.8002 50.7478 55.5968 49.9325C55.3729 49.0357 54.9657 48.2056 54.5796 47.371C54.2198 46.5936 53.8357 45.8275 53.4733 45.0512C53.3531 44.7936 53.227 44.5368 53.1533 44.2581C52.9395 43.4468 52.928 42.6126 52.8975 41.7843C52.8649 40.8962 52.9003 40.0071 53.0019 39.1223C53.026 38.9137 53.0135 38.9068 52.8276 38.9782C52.1151 39.2512 51.4021 39.5222 50.6918 39.8008C50.5875 39.8417 50.5014 39.8336 50.4035 39.7941C49.6018 39.47 48.7804 39.2033 47.9597 38.934C47.9025 38.9152 47.8317 38.8581 47.7841 38.9053C47.7257 38.9633 47.7897 39.0351 47.8135 39.0974C48.1606 40.0099 48.4111 40.9432 48.4124 41.9297C48.4064 42.146 48.4035 42.3602 48.3779 42.5763C48.2912 43.3122 48.0648 44.0033 47.7192 44.651C47.4826 45.0943 47.273 45.5491 47.0864 46.0132C46.7718 46.796 46.4831 47.5893 46.1855 48.379C45.8603 49.243 45.5768 50.1125 45.68 51.0619ZM50.0457 40.8394C50.3892 40.6718 50.7381 40.6759 51.0865 40.8185C51.149 40.8441 51.2112 40.9005 51.1702 40.9849C50.9966 41.3416 50.8195 41.6965 50.6259 42.0879C50.3973 41.6984 50.1893 41.3463 49.984 40.9928C49.942 40.9206 49.982 40.8704 50.0457 40.8394Z" fill="#1F2029"/>
<path d="M55.7378 36.8452C55.785 36.7274 55.8376 36.612 55.8838 36.4938C56.2998 35.4303 56.6955 34.3594 57.073 33.2813C57.0971 33.213 57.1703 33.1365 57.0977 33.0729C57.0423 33.0243 56.9669 33.0817 56.9035 33.1038C55.8014 33.486 54.7003 33.8707 53.5972 34.2501C53.4786 34.2909 53.4115 34.3652 53.3589 34.4739C52.7111 35.8102 52.0604 37.1451 51.4115 38.4808C51.3202 38.669 51.2337 38.8597 51.1485 39.0508C51.1298 39.0929 51.0821 39.1553 51.1739 39.1747C51.2226 39.1523 51.2631 39.1342 51.3028 39.1151C51.5534 38.9959 51.8043 38.8764 52.0548 38.757C53.1937 38.214 54.3325 37.6706 55.4717 37.1283C55.5987 37.0682 55.6859 36.9753 55.7378 36.8452Z" fill="#1F2029"/>
<path d="M50.5302 38.9186C50.5933 38.9154 50.6024 38.8381 50.6266 38.789C51.361 37.2974 52.0937 35.8048 52.8298 34.314C52.8791 34.2139 52.8823 34.1295 52.8368 34.0264C52.6427 33.5853 52.4581 33.1403 52.2677 32.6975C51.8542 31.7366 51.4394 30.7762 51.0247 29.8159C50.8866 29.4957 50.7485 29.1754 50.6079 28.8565C50.5913 28.8187 50.5801 28.7597 50.5262 28.7627C50.4767 28.7654 50.4648 28.8197 50.4468 28.8593C50.3897 28.9866 50.3318 29.1135 50.2772 29.2419C49.6424 30.7358 49.0079 32.2299 48.3738 33.7241C48.3197 33.8518 48.2689 33.981 48.2183 34.1053C48.2369 34.1575 48.2481 34.2007 48.2667 34.2402C48.9872 35.7589 49.7081 37.2775 50.4307 38.795C50.4535 38.8429 50.4636 38.9219 50.5302 38.9186Z" fill="#1F2029"/>
<path d="M28.2051 36.1438C29.5684 36.3845 30.9293 36.6403 32.296 36.8612C32.4119 36.8799 32.5278 36.91 32.5244 37.0379C32.5206 37.1873 32.3868 37.2015 32.2683 37.1955C32.0359 37.1836 31.8032 37.1722 31.5718 37.1491C31.0027 37.0922 30.434 37.0309 29.8658 36.9675C29.2349 36.897 28.6048 36.8193 27.9738 36.7507C27.775 36.7291 27.5517 36.6849 27.4096 36.8714C27.2779 37.0441 27.3694 37.2403 27.4401 37.4146C27.8088 38.3231 28.3385 39.131 28.9702 39.8735C29.0147 39.9257 29.0736 39.9649 29.1493 39.9674C29.715 39.985 30.2763 40.0558 30.8394 40.1082C31.5281 40.1723 32.2154 40.249 32.8998 40.3483C33.098 40.3771 33.301 40.3963 33.4893 40.4758C33.6104 40.5271 33.6126 40.5972 33.5032 40.6627C33.4335 40.7044 33.3563 40.737 33.2788 40.7616C32.4539 41.0218 31.6058 41.1833 30.7615 41.3608C30.5399 41.4073 30.3151 41.444 30.0983 41.5079C29.838 41.5848 29.7429 41.7793 29.8223 42.0396C29.8498 42.1298 29.89 42.2191 29.9401 42.2986C30.2109 42.7273 30.4868 43.1527 30.7602 43.5798C30.802 43.6452 30.8571 43.6944 30.9182 43.7411C31.2396 43.9881 31.606 44.0077 31.9821 43.9472C32.3571 43.8871 32.7036 43.7229 33.0678 43.6209C33.8875 43.3913 34.7163 43.2004 35.5415 42.994C35.6557 42.9655 35.7299 43.0092 35.7753 43.1018C35.8203 43.1936 35.7397 43.2439 35.6811 43.2858C35.5475 43.3812 35.4091 43.4701 35.27 43.557C34.4655 44.0596 33.6103 44.4685 32.7818 44.9267C32.4898 45.0881 32.4683 45.3188 32.7354 45.5204C33.0832 45.7827 33.4521 46.0191 33.7841 46.3C34.1128 46.5781 34.4627 46.5662 34.8332 46.4634C35.2597 46.3452 35.6692 46.1771 36.0633 45.9764C36.5527 45.7273 37.0349 45.4638 37.5196 45.2056C37.6122 45.1563 37.6979 45.1377 37.7685 45.2396C37.8339 45.334 37.7676 45.3921 37.7094 45.4521C37.4272 45.7427 37.1237 46.0099 36.8217 46.2791C36.5712 46.5026 36.3379 46.7448 36.1562 47.0307C36.0274 47.2335 36.0256 47.4347 36.1511 47.5802C36.2333 47.6756 36.3227 47.7645 36.4273 47.8391C37.1049 48.3236 37.8603 48.5362 38.6869 48.5153C38.9774 48.5081 39.2231 48.4224 39.4311 48.2053C40.084 47.5237 40.7445 46.8498 41.4049 46.1754C41.4801 46.0986 41.5611 45.9794 41.6904 46.0785C41.8177 46.1761 41.7284 46.2832 41.6783 46.3832C41.6642 46.4113 41.6463 46.4379 41.6275 46.4634C41.3606 46.825 41.0815 47.1784 40.8295 47.55C40.6214 47.8571 40.4014 48.1634 40.3578 48.5545C40.3244 48.853 40.4394 49.3458 40.7588 49.5194C41.3566 49.8445 41.9716 49.903 42.621 49.7016C43.1428 49.5398 43.4422 49.1431 43.7221 48.7118C44.6539 47.2761 45.5877 45.842 46.5266 44.4109C46.7897 44.0098 46.9965 43.5972 46.9505 43.2004C46.9515 42.2239 46.6185 41.4923 46.0231 40.8741C45.6451 40.4815 45.2296 40.1316 44.7862 39.8161C43.9401 39.2139 43.0193 38.7641 42.0316 38.454C41.6529 38.3352 41.2658 38.2423 40.8906 38.1137C39.9457 37.7901 39.418 37.0361 39.0098 36.1837C38.7967 35.7385 38.644 35.2644 38.459 34.8054C38.1342 33.9991 37.8121 33.1914 37.4766 32.3895C37.0629 31.4005 36.6464 30.4124 36.2129 29.4322C35.9074 28.7417 35.6108 28.0412 35.1991 27.4084C34.6705 26.5962 34.1483 25.778 33.5664 25.0023C33.2517 24.5826 32.9604 24.1344 32.5314 23.8222C31.3433 22.9574 30.0299 22.3277 28.674 21.7842C28.5064 21.717 28.336 21.6425 28.1455 21.6516C28.0469 21.6564 27.9725 21.6831 27.9411 21.7842C27.9088 21.889 27.9459 21.9727 28.0281 22.0353C28.0678 22.0656 28.1164 22.0842 28.1622 22.1054C28.5973 22.307 29.0402 22.4928 29.4659 22.7128C30.0037 22.991 30.5274 23.2969 31.0575 23.5907C31.7099 23.9523 32.262 24.422 32.6284 25.0876C32.6684 25.1605 32.7836 25.2383 32.719 25.317C32.6483 25.4032 32.5193 25.3578 32.4154 25.3398C32.3794 25.3336 32.3458 25.3106 32.3121 25.2932C31.5205 24.8849 30.7217 24.4913 29.9315 24.08C28.4305 23.2987 26.9332 22.5104 25.4393 21.715C24.6702 21.3054 23.9031 20.8919 23.1279 20.4945C21.7449 19.7856 20.3829 19.036 18.9745 18.3794C18.7403 18.2703 18.5022 18.1668 18.2587 18.0819C18.066 18.0148 18.0026 18.071 18.0004 18.2713C17.9994 18.3727 17.9984 18.4733 18.0197 18.5749C18.1815 19.3487 18.4493 20.0871 18.723 20.8261C19.3001 22.3837 20.3311 23.5435 21.7137 24.4204C22.4415 24.8819 23.2121 25.2592 23.9697 25.6617C25.0628 26.2426 26.1682 26.7999 27.2687 27.3669C27.9088 27.6967 28.5497 28.025 29.1895 28.3555C29.2735 28.3988 29.3526 28.4515 29.4342 28.4998C29.5089 28.544 29.5475 28.6047 29.5047 28.6896C29.4667 28.7649 29.4081 28.8071 29.3189 28.7695C29.255 28.7425 29.19 28.7187 29.1267 28.6903C28.5054 28.4109 27.8865 28.1256 27.2627 27.8519C26.2924 27.426 25.3213 27.0023 24.3462 26.588C23.4639 26.213 22.5847 25.8283 21.6689 25.5405C21.4006 25.4563 21.2929 25.5539 21.3429 25.8294C21.3942 26.1122 21.4909 26.3809 21.5984 26.6459C21.7934 27.1273 21.9421 27.6281 22.2151 28.0771C22.739 28.9385 23.4883 29.5395 24.3595 30.0066C24.9851 30.3421 25.6523 30.5741 26.3131 30.8241C27.1272 31.1321 27.9177 31.4987 28.7104 31.8585C29.055 32.015 29.397 32.1777 29.7399 32.3379C29.8244 32.3774 29.8752 32.4357 29.8321 32.5341C29.7929 32.6239 29.7253 32.6543 29.6317 32.6177C29.5965 32.604 29.5598 32.5941 29.5241 32.5817C28.857 32.3497 28.1901 32.1166 27.5225 31.8854C26.4257 31.5058 25.3286 31.1272 24.2316 30.7482C24.0789 30.6955 23.9194 30.6496 23.7884 30.7792C23.6599 30.9064 23.7215 31.063 23.763 31.2098C23.7698 31.234 23.7823 31.2568 23.7922 31.2801C24.1073 32.0147 24.57 32.6587 25.025 33.3062C25.429 33.8813 25.8639 34.4329 26.3278 34.9602C26.8367 35.5395 27.4011 36.0018 28.2051 36.1438Z" fill="#1F2029"/>
<path d="M47.5641 34.3418C46.4042 33.9178 45.2454 33.4915 44.0862 33.0658C44.0626 33.0571 44.0394 33.0479 44.0169 33.0394C43.8926 33.0561 43.9424 33.1368 43.9625 33.1951C44.0805 33.5367 44.203 33.8767 44.3235 34.2176C44.598 34.995 44.8732 35.7721 45.1451 36.5506C45.1761 36.6395 45.2206 36.7051 45.3058 36.7498C45.7973 37.0076 46.288 37.2673 46.7774 37.5291C47.7673 38.0588 48.7561 38.5903 49.7462 39.1196C49.7933 39.1448 49.8511 39.2028 49.8984 39.1578C49.948 39.1106 49.8873 39.0532 49.8645 39.0051C49.6804 38.6151 49.4924 38.227 49.3091 37.8368C48.789 36.7292 48.2703 35.6211 47.753 34.5124C47.7125 34.425 47.6529 34.3743 47.5641 34.3418Z" fill="#1F2029"/>
<path d="M69.2776 65.2655C68.6618 65.0236 68.0236 64.8818 67.3608 64.8887C66.9335 64.893 66.5799 65.0472 66.3474 65.4401C66.2298 65.6385 66.1769 65.862 66.0583 66.0595C65.7419 66.5874 65.393 67.0929 65.0386 67.5952C64.3583 68.5589 63.6427 69.4919 62.7491 70.2702C62.5589 70.4359 62.3841 70.6222 62.183 70.7729C61.3442 71.4017 60.4842 72.0024 59.6586 72.6482C58.9013 73.2408 58.0521 73.615 57.1412 73.876C56.4311 74.0796 55.7128 74.2316 54.975 74.2912C54.2612 74.3488 53.5532 74.3446 52.8574 74.1504C52.3696 74.0143 51.9183 73.7846 51.4568 73.5815C49.7124 72.8131 47.9967 71.9824 46.2878 71.138C45.5841 70.7902 44.8713 70.4784 44.123 70.2446C43.1549 69.9419 42.163 69.782 41.1532 69.74C40.6057 69.7171 40.0603 69.7753 39.5163 69.8455C38.4441 69.9836 37.4218 70.2737 36.4729 70.8096C35.3594 71.4385 34.5332 72.3394 33.9808 73.4925C33.5075 74.4803 33.3172 75.5429 33.2681 76.6275C33.2316 77.4324 33.2289 78.2392 33.1464 79.0417C33.1014 79.4795 32.9602 79.8866 32.7072 80.2451C32.3599 80.7371 31.8851 81.0603 31.3217 81.2562C31.0175 81.3618 30.7075 81.4444 30.3925 81.5115C30.3236 81.5261 30.1272 81.5316 30.2817 81.6866C30.8073 82.214 31.3881 82.6296 32.1886 82.4626C32.8827 82.3174 33.538 82.0765 34.0276 81.5257C34.4046 81.1019 34.6927 80.6189 34.9097 80.0907C34.9605 79.9668 34.9625 79.7477 35.0823 79.741C35.2019 79.7341 35.2732 79.935 35.3617 80.0479C35.5993 80.3505 35.8138 80.6735 36.1353 80.9303C36.1688 80.8365 36.1391 80.7717 36.122 80.7048C35.9286 79.9536 35.7877 79.1917 35.7417 78.4178C35.6954 77.6347 35.7457 76.8547 35.9779 76.0982C36.1982 75.38 36.5556 74.7438 37.1268 74.2495C37.955 73.5326 38.9512 73.2815 40.0114 73.2249C40.5989 73.1935 41.1818 73.265 41.7611 73.3465C43.4145 73.5793 44.9022 74.2584 46.3101 75.1265C47.4007 75.799 48.4699 76.5067 49.5514 77.1944C50.9314 78.0718 52.3139 78.9456 53.6963 79.8192C54.1821 80.126 54.655 80.4585 55.1623 80.7242C56.191 81.2631 57.2853 81.6135 58.4294 81.8252C59.0808 81.9458 59.7254 82.0814 60.3909 82.0445C60.6352 82.031 60.8807 82.0087 61.1219 81.9675C61.7918 81.853 62.476 81.784 63.1176 81.5584C64.4254 81.0982 65.6038 80.3858 66.7039 79.545C67.5031 78.9341 68.2325 78.2462 68.8847 77.4733C69.3884 76.8766 69.8415 76.2458 70.2567 75.5854C70.731 74.8309 71.0885 74.0166 71.4513 73.206C71.7967 72.4348 72.005 71.625 72.0507 70.7796C72.098 69.9039 71.9908 69.0434 71.7489 68.1993C71.3618 66.846 70.6239 65.7947 69.2776 65.2655Z" fill="#1F2029"/>
<path d="M82.6296 17.5758C81.4356 18.0787 80.2948 18.6926 79.1474 19.2926C77.9163 19.9366 76.6871 20.5835 75.4577 21.2312C74.754 21.602 74.0543 21.9814 73.3486 22.3485C71.8863 23.1095 70.4223 23.8675 68.9554 24.6197C68.7894 24.7049 68.6199 24.7997 68.427 24.8188C68.3735 24.8241 68.3065 24.841 68.2713 24.7811C68.2414 24.7299 68.282 24.6833 68.3061 24.6406C68.5792 24.1615 68.918 23.7395 69.3685 23.4177C69.9407 23.0092 70.5717 22.701 71.1806 22.3557C71.741 22.0378 72.3358 21.7867 72.9185 21.5123C73.0349 21.4575 73.1054 21.3742 73.0533 21.2399C73.0055 21.1167 72.9155 21.0767 72.78 21.1031C72.5928 21.1396 72.4143 21.1992 72.2389 21.2699C71.1064 21.7256 70.0218 22.2777 68.9789 22.914C68.5601 23.1696 68.1979 23.488 67.8858 23.8707C67.493 24.3522 67.13 24.8554 66.7894 25.3741C66.2992 26.1202 65.7582 26.8329 65.3734 27.6485C65.0405 28.3544 64.7107 29.0616 64.3963 29.7762C63.8159 31.0946 63.2801 32.4317 62.7316 33.7636C62.4418 34.4675 62.2045 35.1941 61.8647 35.8766C61.3845 36.841 60.6599 37.4742 59.5844 37.7355C57.797 38.1699 56.2235 39.0227 54.938 40.3747C54.3624 40.9799 54.059 41.6957 54.0447 42.6782C54.0067 43.0054 54.1636 43.4118 54.427 43.7865C54.4889 43.8747 54.5487 43.9644 54.6063 44.0555C55.5381 45.529 56.4823 46.9944 57.4657 48.4336C57.5713 48.5883 57.6699 48.7515 57.8317 48.864C58.5654 49.3736 59.3354 49.3994 60.1275 49.0339C60.3848 48.9154 60.5487 48.6998 60.6139 48.4122C60.6831 48.1068 60.6383 47.8197 60.5004 47.5448C60.3291 47.2028 60.0966 46.9008 59.8744 46.5926C59.6747 46.3155 59.4486 46.0579 59.2758 45.7607C59.229 45.6802 59.2167 45.6101 59.3005 45.5438C59.3817 45.4797 59.4509 45.4954 59.5183 45.5627C59.5542 45.5984 59.5905 45.6338 59.626 45.67C60.2133 46.265 60.8158 46.8454 61.3714 47.4715C61.7205 47.8651 62.1425 48.0418 62.6625 47.9781C62.7625 47.9658 62.8626 47.9551 62.9618 47.9392C63.6217 47.8336 64.2248 47.5944 64.7401 47.1566C64.9635 46.9666 64.9932 46.794 64.8637 46.5312C64.7814 46.3639 64.6572 46.2286 64.5322 46.0944C64.1436 45.6767 63.6946 45.3238 63.2927 44.9202C63.2236 44.8507 63.1486 44.7764 63.2367 44.6764C63.3143 44.5884 63.3999 44.6224 63.4924 44.6714C63.9891 44.9346 64.4871 45.1954 64.9881 45.4504C65.3712 45.6454 65.7674 45.8083 66.1823 45.9235C66.5442 46.0241 66.8817 46.0294 67.1996 45.7708C67.5276 45.5041 67.8821 45.2709 68.2196 45.0158C68.5405 44.7732 68.5261 44.5745 68.1818 44.359C68.1604 44.3456 68.138 44.3338 68.1155 44.322C67.7855 44.1489 67.4532 43.9807 67.126 43.8022C66.5223 43.4726 65.9097 43.1577 65.3463 42.7581C65.2663 42.7013 65.1826 42.6463 65.2356 42.5294C65.2879 42.4141 65.3893 42.4345 65.4819 42.4574C66.1911 42.6342 66.8974 42.8237 67.6097 42.988C68.1139 43.1041 68.5837 43.3348 69.0968 43.4175C69.5088 43.4838 70.079 43.3596 70.3421 42.8949C70.5699 42.4926 70.8357 42.1122 71.0772 41.7177C71.338 41.2918 71.2213 41.0222 70.7377 40.9133C70.7132 40.9077 70.6879 40.9056 70.663 40.9007C69.7918 40.7278 68.9226 40.5453 68.0619 40.3246C67.8918 40.281 67.7246 40.221 67.5614 40.1551C67.5043 40.1318 67.4144 40.1048 67.4222 40.0193C67.4296 39.9366 67.5135 39.9192 67.5799 39.905C67.752 39.868 67.925 39.8323 68.0991 39.8065C68.659 39.7235 69.2201 39.6517 69.7845 39.6028C70.3981 39.5495 71.0095 39.4657 71.624 39.433C71.8732 39.4198 72.043 39.3326 72.1853 39.1471C72.4708 38.7754 72.7578 38.4053 72.9939 37.9983C73.2392 37.5755 73.4812 37.1504 73.6205 36.6773C73.7116 36.3684 73.5921 36.2134 73.2764 36.203C73.0101 36.1943 72.7507 36.2508 72.4882 36.2787C71.8504 36.3467 71.2112 36.4018 70.5754 36.4826C69.9572 36.561 69.3357 36.5923 68.7173 36.6594C68.5976 36.6725 68.4912 36.6274 68.4741 36.502C68.458 36.3855 68.5591 36.3462 68.6587 36.3271C68.7022 36.3189 68.7442 36.303 68.7872 36.2965C70.1064 36.0949 71.4221 35.8726 72.7287 35.5999C73.1645 35.509 73.6039 35.4271 73.9625 35.1124C74.282 34.8316 74.577 34.5285 74.8516 34.206C75.5133 33.4298 76.112 32.6053 76.6603 31.7436C76.8818 31.3954 77.0868 31.0375 77.24 30.6528C77.297 30.5098 77.3295 30.3491 77.2055 30.2225C77.086 30.1005 76.9444 30.1425 76.7999 30.1936C76.0385 30.4619 75.2751 30.7251 74.5121 30.9888C73.4922 31.3408 72.4723 31.6916 71.452 32.0426C71.3401 32.0811 71.2133 32.1193 71.1629 31.9718C71.1147 31.8322 71.245 31.7897 71.3401 31.7453C71.5289 31.6576 71.7219 31.5791 71.9109 31.4918C72.8164 31.0745 73.7191 30.6509 74.6506 30.2952C75.4572 29.987 76.2732 29.7047 77.0161 29.246C77.8678 28.7199 78.571 28.0543 78.9938 27.1297C79.1939 26.6922 79.3464 26.2327 79.5206 25.7832C79.585 25.6168 79.6321 25.445 79.6593 25.2693C79.6979 25.0175 79.5997 24.9194 79.3599 24.9858C79.1416 25.0463 78.9274 25.1243 78.7146 25.2043C77.8232 25.5398 76.9469 25.9129 76.0724 26.2911C75.0765 26.7219 74.0847 27.1615 73.092 27.5994C72.636 27.8005 72.1819 28.0054 71.7281 28.2118C71.6418 28.251 71.5621 28.256 71.5118 28.1725C71.4577 28.0827 71.4917 28.0004 71.5765 27.9426C71.6077 27.9213 71.6426 27.9056 71.6763 27.888C72.3023 27.5592 72.9275 27.2278 73.5553 26.9022C74.6376 26.341 75.7199 25.7804 76.8054 25.2254C77.632 24.803 78.465 24.393 79.2506 23.8953C80.1567 23.3213 80.9483 22.6232 81.5474 21.7195C82.1548 20.8035 82.4774 19.7647 82.8062 18.7294C82.8985 18.4392 82.9766 18.1425 82.9955 17.8373C83.0184 17.4724 82.9633 17.4354 82.6296 17.5758Z" fill="#1F2029"/>
<path d="M72.0806 63.4537C71.5031 62.2344 70.8535 61.0626 69.9626 60.039C69.3112 59.2909 68.5643 58.6671 67.7008 58.188C66.9503 57.7718 66.1474 57.5028 65.3115 57.3119C64.2729 57.0747 63.2415 57.1112 62.2284 57.3945C61.1606 57.6931 60.111 58.0581 59.0516 58.388C58.4286 58.5821 57.7855 58.6849 57.1368 58.6916C56.4789 58.6983 55.8388 58.5608 55.2161 58.3323C54.5685 58.0946 54.0174 57.7499 53.6746 57.1204C53.5051 56.8089 53.3179 56.5067 53.1303 56.2055C53.0156 56.0212 52.9167 56.0242 52.7809 56.1943C52.7138 56.2782 52.6432 56.3597 52.5685 56.4366C52.3167 56.6955 52.0461 56.9381 51.8127 57.2127C51.4427 57.6479 50.9952 58.0069 50.6419 58.4567C50.5865 58.5273 50.535 58.5221 50.4701 58.459C50.2983 58.2913 50.1165 58.1338 49.946 57.9647C49.6086 57.6299 49.2766 57.2897 48.9402 56.9539C48.8986 56.9122 48.8577 56.8276 48.791 56.865C48.7208 56.9043 48.7507 56.9912 48.7699 57.0563C48.8529 57.3374 48.9666 57.6071 49.0953 57.8686C49.7209 59.1387 50.4286 60.3626 51.1833 61.5586C51.3891 61.8845 51.5855 62.224 51.8771 62.4827C52.2548 62.8175 52.6404 63.1446 53.0343 63.4602C53.3589 63.7202 53.6597 64.0165 54.0295 64.2127C55.2315 64.8502 56.524 65.1594 57.8715 65.2367C58.5509 65.2757 59.2322 65.2419 59.9088 65.1591C60.8486 65.0439 61.7672 64.8366 62.6716 64.5497C63.8079 64.1889 64.9828 64.0525 66.1698 64.0229C66.5848 64.0125 67.0001 64.0239 67.4163 64.0503C67.9267 64.0826 68.432 64.1297 68.9286 64.2539C69.939 64.5067 70.7785 65.0415 71.4654 65.8243C72.0429 66.4823 72.3684 67.2697 72.6106 68.1001C72.6701 68.3045 72.7337 68.5077 72.7987 68.7215C72.9028 68.6564 72.9025 68.5672 72.9229 68.4917C73.0849 67.8863 73.0637 67.2716 73.0052 66.6564C72.8985 65.5297 72.5623 64.4702 72.0806 63.4537Z" fill="#1F2029"/>
</svg>
