<svg width="100" height="100" viewBox="0 0 100 100" fill="none" xmlns="http://www.w3.org/2000/svg">
<circle cx="50" cy="50" r="50" fill="#4E4E4E"/>
<path d="M43.1518 17.5919C41.7517 17.7144 40.8593 18.0053 39.1823 18.8934C33.6589 21.7874 26.5047 28.8463 21.4583 36.3799C18.3812 40.9582 17.4273 43.8675 18.3197 45.9806C18.9812 47.573 21.1967 48.9665 24.1507 49.6555C25.5816 49.9924 28.5356 49.9924 30.1357 49.6708C34.1513 48.8286 41.0593 45.8428 40.6132 45.1384C40.4439 44.8781 38.9208 44.97 37.8284 45.3069C37.2437 45.4906 35.7667 46.0265 34.5359 46.5165C31.028 47.9099 30.9973 47.9252 27.5355 48.0018C24.52 48.0783 24.4277 48.0783 23.2584 47.6802C21.7199 47.1596 20.9198 46.639 20.4121 45.7662C19.4274 44.0819 20.1967 40.9735 22.3507 37.9417C23.92 35.7521 24.9969 34.9405 28.6895 33.1643C29.9203 32.5672 31.0896 32.0006 31.305 31.8934C31.6742 31.6944 31.6896 31.6331 31.6896 30.1785C31.6896 29.3516 31.7512 28.586 31.8127 28.4941C32.0435 28.1266 33.3051 27.4988 34.182 27.2998C34.6744 27.1926 35.8283 27.0548 36.7514 26.9935L38.4284 26.8864L40.7055 24.7427C42.7056 22.8746 43.0594 22.4612 43.5364 21.5118C44.1056 20.3328 44.4287 19.0006 44.3518 18.0666L44.3057 17.5L43.1518 17.5919Z" fill="#1F2029"/>
<path d="M51.6137 24.1455C51.1522 24.2986 50.2906 24.6508 49.6906 24.9264C48.6751 25.4011 48.4597 25.447 45.6134 25.646C42.2594 25.891 41.444 26.0595 40.1362 26.871C39.6439 27.1619 38.9823 27.5601 38.69 27.7438C38.2438 28.0194 37.8899 28.0654 36.536 28.0807C35.5052 28.0807 34.5359 28.1879 33.859 28.3716L32.7974 28.6472L32.8897 29.9641C32.9974 31.3575 33.3051 32.4446 33.982 33.7921L34.3974 34.6036L34.059 35.3999C33.7666 36.043 33.7051 36.4564 33.6897 37.712C33.6897 39.0901 33.7359 39.3351 34.1205 40.116C34.9667 41.831 36.4591 42.8109 39.3516 43.5306C40.0285 43.6991 40.7516 44.0359 41.3517 44.4493C42.6133 45.3068 43.2748 45.4906 44.9211 45.4906C47.2597 45.4906 48.3674 44.924 49.8598 42.9488C50.7214 41.8157 50.9676 41.586 52.783 40.3151C55.4755 38.4317 56.9063 36.3952 56.9063 34.4199C56.9063 33.3021 56.614 32.5365 55.6293 30.9747C54.9524 29.9181 54.6908 29.1372 54.6908 28.1879C54.6908 27.4835 54.1985 25.202 53.9062 24.5742C53.7369 24.222 53.0754 23.8392 52.6292 23.8698C52.5369 23.8698 52.0753 23.9923 51.6137 24.1455ZM50.8906 32.6437C51.5368 32.904 52.4907 34.0065 52.6907 34.7108C52.8907 35.4152 52.8907 36.5177 52.7061 36.6402C52.6138 36.6861 52.3676 36.3952 52.1368 35.997C51.5214 34.9405 51.306 34.7261 50.8291 34.7261C50.1521 34.7261 49.8598 35.2927 49.9829 36.3339C50.029 36.7933 50.1214 37.5589 50.1675 38.0182C50.2598 38.8298 50.2598 38.8604 49.829 39.0135C48.6136 39.4729 48.0443 38.7073 47.952 36.4717C47.8597 34.3433 48.3982 33.0877 49.6136 32.5978C50.1367 32.3987 50.3214 32.3987 50.8906 32.6437ZM38.7361 35.2468C39.9054 35.7214 41.2286 37.7426 41.4132 39.3351C41.5209 40.2844 41.3209 40.2538 40.8286 39.2738C40.3208 38.3092 39.9208 37.8192 39.4285 37.6201C39.0592 37.467 38.9515 37.4823 38.69 37.712C38.2438 38.1101 38.0592 38.9523 38.1669 40.0395C38.29 41.2032 38.1207 41.2797 37.2438 40.4223C36.4591 39.6873 36.2283 39.0901 36.2283 37.8804C36.2283 36.6248 36.5822 35.7061 37.213 35.3233C37.7822 34.9864 38.0746 34.9558 38.7361 35.2468Z" fill="#1F2029"/>
<path d="M68.5375 37.1148C63.3064 37.712 55.783 39.4729 54.8445 40.3304C54.6598 40.5141 54.6598 40.5754 54.9214 40.7744C55.5522 41.2338 56.9984 41.1266 59.737 40.3763C67.6913 38.2173 76.1687 37.8039 79.3381 39.4116C80.1996 39.8557 80.9535 40.5141 81.2305 41.096C81.4766 41.6319 81.4766 41.6625 81.092 42.4434C79.8304 45.0006 72.4762 51.0489 67.7374 53.4222C66.9066 53.8357 66.2297 54.2644 66.2297 54.3716C66.2297 54.9075 66.722 56.1631 66.9374 56.1631C67.4605 56.1631 73.4147 52.1054 76.2302 49.8239C78.7688 47.7721 81.969 44.2809 82.7536 42.7344C82.8921 42.4588 82.9998 41.8769 82.9998 41.4482C82.9998 39.9476 82.1074 38.7532 80.415 37.9723C78.7073 37.2067 78.2765 37.1454 73.5378 37.0995C71.0915 37.0689 68.8298 37.0842 68.5375 37.1148Z" fill="#1F2029"/>
<path d="M52.0599 42.1066C51.3061 42.6578 50.8445 43.1172 50.6291 43.5459C50.0752 44.6331 49.5213 45.2149 48.5213 45.7509C47.5674 46.2562 47.4751 46.2715 45.0288 46.394C42.0748 46.5318 41.7055 46.6543 40.2593 47.9711C39.5054 48.6602 39.29 48.9358 39.367 49.1808C39.3977 49.3645 39.5054 49.732 39.567 50.0229C39.6901 50.4976 39.7824 50.5742 40.4593 50.7426C41.3055 50.957 41.3825 50.9417 42.6133 50.0383C43.9057 49.0889 44.9211 48.6448 46.0442 48.553C46.9366 48.4764 47.1366 48.507 47.4597 48.7827L47.8443 49.0889L47.8289 51.8298C47.8136 54.2797 47.7828 54.6472 47.4597 55.4741C45.6442 60.2514 46.0442 62.1961 49.1675 63.7273C50.3983 64.3398 51.4599 64.6001 51.4599 64.2938C51.4599 64.1867 51.0137 63.6354 50.4752 63.0689C49.5521 62.1042 48.6905 60.7261 48.6905 60.2668C48.6905 60.1596 48.8752 60.3127 49.1059 60.6036C51.4445 63.6048 54.2908 65.3504 56.8602 65.3504C58.4141 65.3504 59.6911 64.7991 60.5065 63.7885C60.6912 63.5589 60.5373 63.3598 59.2449 62.0889C57.6295 60.5117 57.1525 59.7155 56.7679 57.8934C56.5217 56.7603 56.4602 54.4788 56.6756 54.7085C56.7371 54.8003 56.9217 55.4434 57.0602 56.1631C57.6295 59.0724 59.2449 61.2008 62.0143 62.6248C63.599 63.4517 63.7836 63.6201 64.2144 64.646C65.1222 66.7438 65.5991 69.0712 66.2145 74.3845C66.5684 77.3398 66.8761 79.2997 67.1377 79.9275C67.4607 80.7544 68.8454 81.9947 68.8454 81.4587C68.8454 81.3822 68.6762 80.8156 68.4608 80.2031C67.8608 78.4576 68.0146 78.5648 69.2916 80.7697C69.9532 81.9028 70.5378 82.5 71.0148 82.5C71.1686 82.5 71.4917 82.3315 71.7225 82.1325C72.0918 81.8109 72.1533 81.6578 72.1225 81.0147C72.1071 80.6166 71.9225 79.7744 71.7071 79.1772C71.4917 78.5648 71.384 78.0595 71.4456 78.0595C71.5994 78.0595 71.9841 78.9016 72.4302 80.2644C72.6303 80.8616 72.8764 81.3669 72.9687 81.3975C73.0764 81.4281 73.3072 81.1219 73.4918 80.7085C73.7688 80.1113 73.8303 79.6825 73.8303 78.3657C73.8457 76.4364 73.6149 75.6554 72.1225 72.4705C71.5687 71.2915 70.5071 68.8262 69.7532 67.0041C68.4146 63.6967 67.8454 62.5023 66.8453 60.9405C66.353 60.1749 66.3222 60.0218 66.2145 58.2609C66.1068 56.5612 66.0453 56.3162 65.5376 55.2903C64.876 53.9582 63.7067 52.6566 62.1835 51.5542C61.5681 51.1101 60.5527 50.3751 59.9219 49.9158C59.2911 49.4564 58.0756 48.3539 57.2294 47.4811C55.6909 45.9193 55.6755 45.904 54.937 45.904C54.537 45.904 54.2447 45.8427 54.2908 45.7662C54.537 45.3834 58.6911 45.5059 60.9219 45.9805L61.8451 46.1796L62.3682 45.659C62.6451 45.3681 62.922 45.1384 62.9836 45.1384C63.0297 45.1384 63.1682 45.0771 63.2759 45.0006C63.4452 44.8934 63.4298 44.7096 63.2298 43.9746C63.0913 43.4847 62.8605 42.9794 62.722 42.8722C62.1682 42.4587 60.245 42.1372 56.814 41.9228C55.4447 41.831 54.3216 41.6778 53.9831 41.54C53.6754 41.4175 53.3677 41.3103 53.3062 41.3103C53.2446 41.3103 52.6754 41.6778 52.0599 42.1066Z" fill="#1F2029"/>
<path d="M46.321 63.9264C46.9826 69.8981 48.2442 73.9558 49.9366 75.6248C50.8443 76.5436 51.1213 76.5742 51.1828 75.8086L51.229 75.242L51.8906 76.1148C52.6598 77.1407 53.0291 77.2173 53.8291 76.5129L54.3676 76.0383L53.9214 75.1349C53.6599 74.6449 53.4599 74.1702 53.4599 74.0783C53.4599 73.8027 53.8137 73.9099 54.2599 74.3386L54.6907 74.7521V73.9864C54.6907 72.6849 54.1214 71.0618 52.6752 68.321C51.9213 66.8663 51.2136 65.626 51.1059 65.5342C51.0136 65.4576 50.5059 65.2585 49.9981 65.1207C48.8289 64.7839 48.0134 64.3704 47.2134 63.7273C46.3518 63.023 46.2133 63.0536 46.321 63.9264Z" fill="#1F2029"/>
</svg>
