<svg width="100" height="100" viewBox="0 0 100 100" fill="none" xmlns="http://www.w3.org/2000/svg">
<circle cx="50" cy="50" r="50" fill="#4E4E4E"/>
<g clip-path="url(#clip0_313_165)">
<path fill-rule="evenodd" clip-rule="evenodd" d="M72.3132 67.4496C78.8771 62.2012 83 54.618 83 46.1851C83 30.3427 68.4493 17.5 50.5 17.5C32.5507 17.5 18 30.3427 18 46.1851C18 54.3136 21.8306 61.6525 27.9855 66.8722C27.6125 68.1601 27.4079 69.5611 27.4079 71.026C27.4079 77.3628 31.237 82.5 35.9606 82.5C39.0298 82.5 41.7214 80.331 43.2303 77.0733C44.7391 80.331 47.4308 82.5 50.5 82.5C53.2978 82.5 55.7818 80.6978 57.3421 77.9115C58.9025 80.6978 61.3865 82.5 64.1842 82.5C68.9077 82.5 72.7369 77.3628 72.7369 71.026C72.7369 69.7773 72.5881 68.575 72.3132 67.4496ZM69.3158 46.7539C69.3158 54.7969 60.7002 61.3171 50.0724 61.3171C39.4445 61.3171 30.829 54.7969 30.829 46.7539C30.829 38.7109 39.4445 32.1908 50.0724 32.1908C60.7002 32.1908 69.3158 38.7109 69.3158 46.7539Z" fill="#1F2029"/>
</g>
<defs>
<clipPath id="clip0_313_165">
<rect width="65" height="65" fill="white" transform="translate(18 17.5)"/>
</clipPath>
</defs>
</svg>
