<svg width="100" height="100" viewBox="0 0 100 100" fill="none" xmlns="http://www.w3.org/2000/svg">
<circle cx="50" cy="50" r="50" fill="#4E4E4E"/>
<g clip-path="url(#clip0_313_173)">
<path fill-rule="evenodd" clip-rule="evenodd" d="M75.8811 71.4784C75.8811 71.4784 67.685 78.0519 51.3751 75.3317C39.001 73.2678 32.4012 59.6272 32.4012 52.2952C32.4012 34.9115 45.2674 30.9555 53.9658 30.9555C62.6641 30.9555 68.3386 39.436 68.3386 46.002C68.3386 52.568 63.6946 58.3111 56.4676 58.3111C49.2406 58.3111 47.1002 53.2374 47.1002 48.5728C47.1002 43.9083 50.8741 42.2649 54.316 42.2649C57.7578 42.2649 58.9363 45.2033 58.9363 47.7288C58.9363 50.2544 56.9768 51.1588 55.3424 51.1588C53.708 51.1588 53.5464 50.3343 52.9209 49.4677C52.2952 48.6012 53.7186 45.3213 51.3751 45.3213C49.0315 45.3213 48.5947 49.0919 48.5947 49.0919C48.5947 49.0919 49.4491 56.3705 56.4676 56.2449C63.4862 56.1193 66.8158 50.6933 65.8481 45.3213C64.8805 39.9491 59.6669 34.2407 50.5169 35.3942C41.3669 36.5477 37.631 45.7929 39.2777 55.6729C40.9244 65.553 52.7607 71.2776 62.0669 69.218C71.3734 67.1585 80.6423 60.4211 80.6423 43.3391C80.6423 26.2571 65.8481 15.9892 48.2074 17.6814C30.5666 19.3736 19.616 34.7963 20.3169 53.327C21.0179 71.8578 38.6013 81.9501 53.4699 82.4703C68.3386 82.9905 77.4537 74.3835 77.4537 74.3835C77.4537 74.3835 79.5036 72.5555 78.6998 71.128C77.8962 69.7006 75.8811 71.4784 75.8811 71.4784Z" fill="#1F2029"/>
</g>
<defs>
<clipPath id="clip0_313_173">
<rect width="65" height="65" fill="white" transform="translate(18 17.5)"/>
</clipPath>
</defs>
</svg>
