<svg width="100" height="100" viewBox="0 0 100 100" fill="none" xmlns="http://www.w3.org/2000/svg">
<circle cx="50" cy="50" r="50" fill="#4E4E4E"/>
<g clip-path="url(#clip0_313_100)">
<path fill-rule="evenodd" clip-rule="evenodd" d="M68.164 48.5727C68.1603 48.5676 68.1588 48.5612 68.1598 48.555L72.3066 24.3747C72.3085 24.3636 72.3183 24.3555 72.3295 24.3555H73.6419C73.6521 24.3555 73.6609 24.362 73.664 24.3717L83.0065 53.9522C83.0094 53.9613 83.0062 53.9715 82.9986 53.9774L76.1103 59.3556C76.1 59.3636 76.0851 59.3615 76.0774 59.351L68.164 48.5727ZM17.873 64.6024C17.873 64.6124 17.8795 64.6213 17.889 64.6245L32.0886 69.2673C32.0955 69.2696 32.1031 69.2684 32.1091 69.2644L63.8485 47.3523C63.8538 47.3486 63.8574 47.3429 63.8583 47.3365L67.2619 24.4987C67.264 24.4847 67.2531 24.4721 67.239 24.4721H39.1258C39.1188 24.4721 39.1123 24.4752 39.1079 24.4805L17.8784 50.0906C17.8749 50.0948 17.873 50.1 17.873 50.1055V64.6024ZM38.0057 70.4502L53.5184 75.5318C53.5254 75.5341 53.5332 75.5329 53.5391 75.5286L72.0081 62.2807C72.0184 62.2734 72.021 62.2594 72.014 62.2489L65.0905 51.9461C65.0832 51.9353 65.0688 51.9325 65.0581 51.9398L38.0057 70.4502Z" fill="#1F2029"/>
</g>
<defs>
<clipPath id="clip0_313_100">
<rect width="65" height="65" fill="white" transform="translate(18 17.5)"/>
</clipPath>
</defs>
</svg>
