<svg width="100" height="100" viewBox="0 0 100 100" fill="none" xmlns="http://www.w3.org/2000/svg">
<circle cx="50" cy="50" r="50" fill="#4E4E4E"/>
<path d="M70.1954 44.7076C70.1954 44.7076 47.9302 49.1406 43.5977 71.9152C43.5977 71.9152 39.2651 49.1395 17 44.7076C39.264 40.2757 43.5977 17.5 43.5977 17.5C47.9302 40.2757 70.1954 44.7076 70.1954 44.7076ZM75.7852 29.3605C75.7852 29.3605 74.7727 34.6822 69.5705 35.7178C74.7729 36.7535 75.7852 42.0751 75.7852 42.0751C76.7978 36.7534 82 35.7178 82 35.7178C82 35.7178 76.7976 34.6821 75.7852 29.3605ZM66.101 58.593C66.101 58.593 64.1978 68.5992 54.415 70.5471C64.1979 72.4939 66.101 82.5 66.101 82.5C68.0053 72.4939 77.7871 70.546 77.7871 70.546C77.7871 70.546 68.0053 68.5991 66.101 58.593Z" fill="#1F2029"/>
</svg>
