<svg width="100" height="100" viewBox="0 0 100 100" fill="none" xmlns="http://www.w3.org/2000/svg">
<circle cx="50" cy="50" r="50" fill="#4E4E4E"/>
<path fill-rule="evenodd" clip-rule="evenodd" d="M31.6871 13.3533C31.926 12.8333 32.4459 12.5 33.0181 12.5H38.9353C39.4124 12.5 39.8595 12.7323 40.1338 13.1226L43.5049 17.9199H67.8945C68.7035 17.9199 69.3594 18.5758 69.3594 19.3848V23.1934H70.2383C71.8563 23.1934 73.168 24.505 73.168 26.123V30.5176H69.3594V36.084H73.168V71.6797C73.168 73.2977 71.8563 74.6094 70.2383 74.6094H69.3594V81.6406C69.3594 84.8767 66.736 87.5 63.5 87.5H31.8594C28.6233 87.5 26 84.8767 26 81.6406V19.3848C26 18.5758 26.6558 17.9199 27.4648 17.9199H29.5889L31.6871 13.3533ZM46.6543 25.0977C45.8453 25.0977 45.1895 25.7535 45.1895 26.5625V39.5996C45.1895 40.4086 45.8453 41.0645 46.6543 41.0645H49.1445C49.9535 41.0645 50.6094 40.4086 50.6094 39.5996V26.5625C50.6094 25.7535 49.9535 25.0977 49.1445 25.0977H46.6543ZM59.252 66.333C59.252 72.441 54.3004 77.3926 48.1924 77.3926C42.0844 77.3926 37.1328 72.441 37.1328 66.333C37.1328 60.225 42.0844 55.2734 48.1924 55.2734C54.3004 55.2734 59.252 60.225 59.252 66.333ZM63.793 66.1865C63.793 74.8025 56.8083 81.7871 48.1924 81.7871C39.5764 81.7871 32.5918 74.8025 32.5918 66.1865C32.5918 57.5706 39.5764 50.5859 48.1924 50.5859C56.8083 50.5859 63.793 57.5706 63.793 66.1865ZM64.6696 69.3359C63.1958 77.0936 56.3791 82.959 48.1924 82.959C40.0057 82.959 33.189 77.0936 31.7151 69.3359H27.0254V63.623H31.6146C32.8486 55.5767 39.8008 49.4141 48.1924 49.4141C56.5839 49.4141 63.5361 55.5767 64.7702 63.623H68.7734V69.3359H64.6696Z" fill="#1F2029"/>
</svg>
