<svg width="100" height="100" viewBox="0 0 100 100" fill="none" xmlns="http://www.w3.org/2000/svg">
<circle cx="50" cy="50" r="50" fill="#4E4E4E"/>
<path fill-rule="evenodd" clip-rule="evenodd" d="M37.233 26.4977L12 21.5L14.5952 34.6214L28.1501 34.0851L29.2272 43.261L36.7949 42.3727L36.7324 47.5586L38.4787 47.8267C37.5626 49.7611 37.0498 51.9263 37.0498 54.212C37.0498 60.8114 41.3247 66.406 47.2395 68.3437C48.4816 69.0292 50.0916 69.8314 51.4321 70.2134C52.8406 70.6149 54.7411 70.7774 56.1992 70.8419C56.2709 75.2973 57.1641 79.6329 60.2373 80.3538C61.6396 80.6828 63.8992 80.3538 63.8992 80.3538L72.169 69.6493C73.8281 70.4924 75.7571 70.9753 77.8153 70.9753C84.0224 70.9753 88.3944 66.5627 88.8638 61.165C88.879 60.9909 88.894 60.8271 88.9081 60.6732C89.0099 59.5608 89.0648 58.9605 88.7909 58.6557C88.4997 58.3316 87.8368 58.3414 86.4634 58.425C86.6632 57.4971 86.7684 56.5336 86.7684 55.5454C86.7684 48.1039 80.8009 42.066 73.4223 42.0207C72.1922 41.1334 68.3223 38.3977 65.4332 36.9724C61.9192 35.2389 54.4799 35.4485 54.4799 35.4485L56.6666 37.6928C53.6102 37.2302 50.4795 37.4486 50.4795 37.4486L51.4498 39.358C46.9285 39.4678 42.9108 41.6235 40.2759 44.9404L40.6023 37.2266L34.2643 37.9706L37.233 26.4977Z" fill="#1F2029"/>
</svg>
