<svg width="100" height="100" viewBox="0 0 100 100" fill="none" xmlns="http://www.w3.org/2000/svg">
<circle cx="50" cy="50" r="50" fill="#4E4E4E"/>
<path fill-rule="evenodd" clip-rule="evenodd" d="M18.0065 49.813C17.9978 49.7983 17.9978 49.78 18.0065 49.7651L34.3509 21.8398C34.3594 21.8253 34.375 21.8164 34.3918 21.8164H66.7873C66.8042 21.8164 66.8198 21.8254 66.8283 21.84L82.9935 49.7654C83.002 49.78 83.002 49.7981 82.9935 49.8127L66.8283 77.7068C66.8198 77.7214 66.8042 77.7304 66.7873 77.7304H34.3918C34.375 77.7304 34.3594 77.7215 34.3509 77.707L18.0065 49.813ZM65.5588 49.7734C65.5588 58.0873 58.819 64.8271 50.5051 64.8271C42.1912 64.8271 35.4514 58.0873 35.4514 49.7734C35.4514 41.4594 42.1912 34.7197 50.5051 34.7197C58.819 34.7197 65.5588 41.4594 65.5588 49.7734Z" fill="#1F2029"/>
</svg>
