<svg width="100" height="100" viewBox="0 0 100 100" fill="none" xmlns="http://www.w3.org/2000/svg">
<circle cx="50" cy="50" r="50" fill="#4E4E4E"/>
<mask id="path-2-inside-1_313_282" fill="white">
<path fill-rule="evenodd" clip-rule="evenodd" d="M82.9418 49.471C82.9418 67.3256 68.7499 81.8654 51.0313 82.4253C50.389 81.5266 49.7783 80.5955 49.2005 79.6346C64.6582 79.2995 77.0859 66.664 77.0859 51.1259C77.0859 50.8922 77.0831 50.6591 77.0775 50.4267C79.26 48.8022 81.1355 46.9719 82.6387 44.9816C82.8386 46.4495 82.9418 47.9482 82.9418 49.471ZM48.5704 77.0954C48.3061 77.0954 48.0427 77.0914 47.7802 77.0836C46.8139 75.2049 45.9656 73.2299 45.2444 71.1735C52.8812 70.5031 59.0744 64.8003 60.4879 57.4013C65.7477 56.408 70.5251 54.5874 74.52 52.1504C73.9821 66.018 62.5699 77.0954 48.5704 77.0954ZM44.8157 76.826C43.9651 75.0214 43.2156 73.1425 42.5732 71.2007C33.693 70.6045 26.6747 63.2124 26.6747 54.1812C26.6747 53.2569 26.7482 52.3497 26.8897 51.4653C25.384 50.4685 24.0023 49.3803 22.7624 48.2133C22.6557 49.1694 22.6009 50.1413 22.6009 51.1259C22.6009 64.1934 32.2524 75.0066 44.8157 76.826ZM57.7821 57.8329C56.2199 63.86 50.8818 68.3662 44.4431 68.6765C44.0733 67.4092 43.7501 66.115 43.4757 64.7969C47.319 64.3246 50.4976 61.7376 51.78 58.252C53.8273 58.2307 55.8327 58.0878 57.7821 57.8329ZM41.777 68.5628C41.4389 67.3268 41.143 66.0688 40.8904 64.7914C35.8869 64.1545 32.0211 59.9319 32.0211 54.8176C32.0211 54.6421 32.0256 54.4676 32.0346 54.2943C31.0828 53.8635 30.1621 53.4016 29.2755 52.9107C29.2392 53.3294 29.2207 53.7531 29.2207 54.1812C29.2207 61.5328 34.6871 67.6076 41.777 68.5628ZM49.4076 58.222C48.2794 60.6609 45.8815 62.3924 43.0621 62.5683C42.905 62.5781 42.7467 62.5831 42.5872 62.5831C41.8458 62.5831 41.1295 62.4757 40.453 62.2755C37.485 61.3975 35.2831 58.735 35.0902 55.5308C35.081 55.3791 35.0764 55.2262 35.0764 55.0723C35.0764 54.3269 35.185 53.6069 35.3872 52.9272C36.0734 50.6205 37.8379 48.7781 40.0961 47.9845C40.8756 47.7105 41.714 47.5615 42.5872 47.5615C42.623 47.5615 42.6587 47.5618 42.6943 47.5623C46.793 47.6196 50.098 50.96 50.098 55.0723C50.098 55.2819 50.0894 55.4895 50.0725 55.6948C49.999 56.591 49.7681 57.4426 49.4076 58.222ZM52.3893 54.8176C52.3893 49.5482 48.2853 45.2253 43.0615 44.7959C43.2944 43.3103 43.5863 41.8159 43.9392 40.3161C43.9897 40.1011 44.0414 39.8868 44.0941 39.6732C51.9422 39.8649 58.2454 46.2869 58.2454 54.1812C58.2454 54.5247 58.2334 54.8655 58.21 55.2031C56.3158 55.4826 54.358 55.6509 52.351 55.6963C52.3763 55.4067 52.3893 55.1137 52.3893 54.8176ZM40.4713 44.906C40.7192 43.2273 41.0391 41.5404 41.4334 39.85C35.8135 40.7448 31.269 44.8657 29.7581 50.2549C30.6374 50.7717 31.5579 51.2582 32.5161 51.7116C33.6683 48.2042 36.7192 45.5415 40.4713 44.906ZM60.7914 54.1812C60.7914 45.1095 53.71 37.6917 44.7735 37.154C46.0339 32.8521 47.7312 28.8443 49.781 25.1842C62.9072 25.7865 73.4909 36.1334 74.4665 49.1588C70.7052 51.7067 66.0315 53.6614 60.7822 54.7479C60.7883 54.5597 60.7914 54.3708 60.7914 54.1812ZM42.1131 37.1987C43.3068 32.9324 44.9204 28.9179 46.881 25.2105C35.3537 25.9507 25.8732 34.2117 23.2946 45.1383C24.507 46.4511 25.9251 47.6859 27.5336 48.8217C29.618 42.518 35.2791 37.8425 42.1131 37.1987ZM76.8409 47.3716C75.1172 34.2657 64.4934 23.9634 51.2382 22.7336C52.5337 20.6792 53.944 18.7489 55.452 16.9535C68.4027 19.1205 78.7958 28.8368 81.9528 41.424C80.7176 43.5605 78.9969 45.5661 76.8409 47.3716ZM48.3419 22.6113C49.6086 20.4875 50.9928 18.4777 52.4789 16.594C51.651 16.5317 50.8146 16.5 49.9708 16.5C35.7738 16.5 23.6726 25.473 19.0289 38.057C19.5437 39.6541 20.3156 41.203 21.3267 42.6793C24.9054 31.1237 35.6337 22.7111 48.3419 22.6113ZM47.9063 82.3785C47.3088 81.4607 46.7414 80.5154 46.2051 79.5447C31.563 78.3424 20.0549 66.0781 20.0549 51.1259C20.0549 49.3251 20.2218 47.5634 20.541 45.8552C19.4949 44.595 18.6015 43.2646 17.8787 41.8765C17.3039 44.3147 16.9998 46.8573 16.9998 49.471C16.9998 66.9871 30.6586 81.3129 47.9063 82.3785Z"/>
</mask>
<path fill-rule="evenodd" clip-rule="evenodd" d="M82.9418 49.471C82.9418 67.3256 68.7499 81.8654 51.0313 82.4253C50.389 81.5266 49.7783 80.5955 49.2005 79.6346C64.6582 79.2995 77.0859 66.664 77.0859 51.1259C77.0859 50.8922 77.0831 50.6591 77.0775 50.4267C79.26 48.8022 81.1355 46.9719 82.6387 44.9816C82.8386 46.4495 82.9418 47.9482 82.9418 49.471ZM48.5704 77.0954C48.3061 77.0954 48.0427 77.0914 47.7802 77.0836C46.8139 75.2049 45.9656 73.2299 45.2444 71.1735C52.8812 70.5031 59.0744 64.8003 60.4879 57.4013C65.7477 56.408 70.5251 54.5874 74.52 52.1504C73.9821 66.018 62.5699 77.0954 48.5704 77.0954ZM44.8157 76.826C43.9651 75.0214 43.2156 73.1425 42.5732 71.2007C33.693 70.6045 26.6747 63.2124 26.6747 54.1812C26.6747 53.2569 26.7482 52.3497 26.8897 51.4653C25.384 50.4685 24.0023 49.3803 22.7624 48.2133C22.6557 49.1694 22.6009 50.1413 22.6009 51.1259C22.6009 64.1934 32.2524 75.0066 44.8157 76.826ZM57.7821 57.8329C56.2199 63.86 50.8818 68.3662 44.4431 68.6765C44.0733 67.4092 43.7501 66.115 43.4757 64.7969C47.319 64.3246 50.4976 61.7376 51.78 58.252C53.8273 58.2307 55.8327 58.0878 57.7821 57.8329ZM41.777 68.5628C41.4389 67.3268 41.143 66.0688 40.8904 64.7914C35.8869 64.1545 32.0211 59.9319 32.0211 54.8176C32.0211 54.6421 32.0256 54.4676 32.0346 54.2943C31.0828 53.8635 30.1621 53.4016 29.2755 52.9107C29.2392 53.3294 29.2207 53.7531 29.2207 54.1812C29.2207 61.5328 34.6871 67.6076 41.777 68.5628ZM49.4076 58.222C48.2794 60.6609 45.8815 62.3924 43.0621 62.5683C42.905 62.5781 42.7467 62.5831 42.5872 62.5831C41.8458 62.5831 41.1295 62.4757 40.453 62.2755C37.485 61.3975 35.2831 58.735 35.0902 55.5308C35.081 55.3791 35.0764 55.2262 35.0764 55.0723C35.0764 54.3269 35.185 53.6069 35.3872 52.9272C36.0734 50.6205 37.8379 48.7781 40.0961 47.9845C40.8756 47.7105 41.714 47.5615 42.5872 47.5615C42.623 47.5615 42.6587 47.5618 42.6943 47.5623C46.793 47.6196 50.098 50.96 50.098 55.0723C50.098 55.2819 50.0894 55.4895 50.0725 55.6948C49.999 56.591 49.7681 57.4426 49.4076 58.222ZM52.3893 54.8176C52.3893 49.5482 48.2853 45.2253 43.0615 44.7959C43.2944 43.3103 43.5863 41.8159 43.9392 40.3161C43.9897 40.1011 44.0414 39.8868 44.0941 39.6732C51.9422 39.8649 58.2454 46.2869 58.2454 54.1812C58.2454 54.5247 58.2334 54.8655 58.21 55.2031C56.3158 55.4826 54.358 55.6509 52.351 55.6963C52.3763 55.4067 52.3893 55.1137 52.3893 54.8176ZM40.4713 44.906C40.7192 43.2273 41.0391 41.5404 41.4334 39.85C35.8135 40.7448 31.269 44.8657 29.7581 50.2549C30.6374 50.7717 31.5579 51.2582 32.5161 51.7116C33.6683 48.2042 36.7192 45.5415 40.4713 44.906ZM60.7914 54.1812C60.7914 45.1095 53.71 37.6917 44.7735 37.154C46.0339 32.8521 47.7312 28.8443 49.781 25.1842C62.9072 25.7865 73.4909 36.1334 74.4665 49.1588C70.7052 51.7067 66.0315 53.6614 60.7822 54.7479C60.7883 54.5597 60.7914 54.3708 60.7914 54.1812ZM42.1131 37.1987C43.3068 32.9324 44.9204 28.9179 46.881 25.2105C35.3537 25.9507 25.8732 34.2117 23.2946 45.1383C24.507 46.4511 25.9251 47.6859 27.5336 48.8217C29.618 42.518 35.2791 37.8425 42.1131 37.1987ZM76.8409 47.3716C75.1172 34.2657 64.4934 23.9634 51.2382 22.7336C52.5337 20.6792 53.944 18.7489 55.452 16.9535C68.4027 19.1205 78.7958 28.8368 81.9528 41.424C80.7176 43.5605 78.9969 45.5661 76.8409 47.3716ZM48.3419 22.6113C49.6086 20.4875 50.9928 18.4777 52.4789 16.594C51.651 16.5317 50.8146 16.5 49.9708 16.5C35.7738 16.5 23.6726 25.473 19.0289 38.057C19.5437 39.6541 20.3156 41.203 21.3267 42.6793C24.9054 31.1237 35.6337 22.7111 48.3419 22.6113ZM47.9063 82.3785C47.3088 81.4607 46.7414 80.5154 46.2051 79.5447C31.563 78.3424 20.0549 66.0781 20.0549 51.1259C20.0549 49.3251 20.2218 47.5634 20.541 45.8552C19.4949 44.595 18.6015 43.2646 17.8787 41.8765C17.3039 44.3147 16.9998 46.8573 16.9998 49.471C16.9998 66.9871 30.6586 81.3129 47.9063 82.3785Z" fill="#1F2029"/>
<path d="M51.0313 82.4253L50.8242 82.5734L50.9033 82.6841L51.0394 82.6798L51.0313 82.4253ZM49.2005 79.6346L49.195 79.38L48.7561 79.3896L48.9823 79.7658L49.2005 79.6346ZM77.0775 50.4267L76.9255 50.2224L76.8198 50.3011L76.8229 50.4328L77.0775 50.4267ZM82.6387 44.9816L82.891 44.9472L82.8077 44.3354L82.4356 44.8281L82.6387 44.9816ZM47.7802 77.0836L47.5538 77.2001L47.6225 77.3336L47.7726 77.3381L47.7802 77.0836ZM45.2444 71.1735L45.2221 70.9199L44.8957 70.9485L45.0042 71.2578L45.2444 71.1735ZM60.4879 57.4013L60.4407 57.1511L60.2704 57.1833L60.2378 57.3535L60.4879 57.4013ZM74.52 52.1504L74.7744 52.1602L74.7928 51.6857L74.3874 51.933L74.52 52.1504ZM42.5732 71.2007L42.8149 71.1208L42.7611 70.9582L42.5902 70.9467L42.5732 71.2007ZM44.8157 76.826L44.7792 77.0779L45.248 77.1458L45.046 76.7174L44.8157 76.826ZM26.8897 51.4653L27.1411 51.5055L27.167 51.3435L27.0302 51.253L26.8897 51.4653ZM22.7624 48.2133L22.9369 48.0279L22.5659 47.6787L22.5094 48.185L22.7624 48.2133ZM44.4431 68.6765L44.1987 68.7478L44.2549 68.9404L44.4554 68.9308L44.4431 68.6765ZM57.7821 57.8329L58.0285 57.8968L58.1232 57.5316L57.7491 57.5805L57.7821 57.8329ZM43.4757 64.7969L43.4447 64.5442L43.1701 64.578L43.2265 64.8488L43.4757 64.7969ZM51.78 58.252L51.7773 57.9974L51.6017 57.9993L51.541 58.1641L51.78 58.252ZM40.8904 64.7914L41.1401 64.742L41.1045 64.562L40.9225 64.5388L40.8904 64.7914ZM41.777 68.5628L41.743 68.8151L42.124 68.8665L42.0226 68.4957L41.777 68.5628ZM32.0346 54.2943L32.2889 54.3075L32.2979 54.1339L32.1396 54.0623L32.0346 54.2943ZM29.2755 52.9107L29.3989 52.688L29.0558 52.498L29.0219 52.8887L29.2755 52.9107ZM43.0621 62.5683L43.0779 62.8224H43.0779L43.0621 62.5683ZM49.4076 58.222L49.1765 58.1151L49.4076 58.222ZM40.453 62.2755L40.5252 62.0314L40.453 62.2755ZM35.0902 55.5308L35.3443 55.5155L35.0902 55.5308ZM35.3872 52.9272L35.6312 52.9997L35.3872 52.9272ZM40.0961 47.9845L40.1805 48.2247L40.0961 47.9845ZM42.6943 47.5623L42.6979 47.3077H42.6979L42.6943 47.5623ZM50.0725 55.6948L49.8188 55.674V55.674L50.0725 55.6948ZM43.0615 44.7959L42.81 44.7565L42.7675 45.0272L43.0406 45.0496L43.0615 44.7959ZM43.9392 40.3161L44.187 40.3744L43.9392 40.3161ZM44.0941 39.6732L44.1003 39.4187L43.8959 39.4137L43.8469 39.6122L44.0941 39.6732ZM58.21 55.2031L58.2471 55.4549L58.4497 55.425L58.464 55.2207L58.21 55.2031ZM52.351 55.6963L52.0973 55.674L52.0725 55.9572L52.3567 55.9508L52.351 55.6963ZM41.4334 39.85L41.6813 39.9079L41.7674 39.539L41.3934 39.5986L41.4334 39.85ZM40.4713 44.906L40.5139 45.157L40.6962 45.1261L40.7232 44.9432L40.4713 44.906ZM29.7581 50.2549L29.5129 50.1862L29.46 50.3751L29.6291 50.4744L29.7581 50.2549ZM32.5161 51.7116L32.4072 51.9417L32.668 52.0651L32.758 51.791L32.5161 51.7116ZM44.7735 37.154L44.5291 37.0824L44.4393 37.389L44.7582 37.4082L44.7735 37.154ZM49.781 25.1842L49.7927 24.9298L49.6357 24.9226L49.5589 25.0598L49.781 25.1842ZM74.4665 49.1588L74.6093 49.3696L74.7314 49.2869L74.7204 49.1398L74.4665 49.1588ZM60.7822 54.7479L60.5277 54.7396L60.5172 55.0628L60.8338 54.9972L60.7822 54.7479ZM46.881 25.2105L47.1061 25.3296L47.3188 24.9273L46.8647 24.9565L46.881 25.2105ZM42.1131 37.1987L42.137 37.4522L42.3111 37.4358L42.3583 37.2673L42.1131 37.1987ZM23.2946 45.1383L23.0468 45.0798L23.0157 45.2115L23.1075 45.311L23.2946 45.1383ZM27.5336 48.8217L27.3868 49.0296L27.6675 49.2278L27.7753 48.9016L27.5336 48.8217ZM51.2382 22.7336L51.0229 22.5978L50.8015 22.9488L51.2147 22.9871L51.2382 22.7336ZM76.8409 47.3716L76.5885 47.4048L76.649 47.8644L77.0044 47.5668L76.8409 47.3716ZM55.452 16.9535L55.494 16.7024L55.3506 16.6784L55.2571 16.7898L55.452 16.9535ZM81.9528 41.424L82.1732 41.5514L82.2249 41.4621L82.1998 41.3621L81.9528 41.424ZM52.4789 16.594L52.6788 16.7517L52.9752 16.376L52.498 16.3401L52.4789 16.594ZM48.3419 22.6113L48.3439 22.8659L48.4871 22.8648L48.5605 22.7418L48.3419 22.6113ZM19.0289 38.057L18.79 37.9689L18.7596 38.0514L18.7866 38.1352L19.0289 38.057ZM21.3267 42.6793L21.1166 42.8231L21.4141 43.2575L21.5699 42.7546L21.3267 42.6793ZM46.2051 79.5447L46.4279 79.4216L46.3619 79.3021L46.2259 79.291L46.2051 79.5447ZM47.9063 82.3785L47.8906 82.6326L48.3959 82.6638L48.1197 82.2396L47.9063 82.3785ZM20.541 45.8552L20.7913 45.9019L20.8133 45.7845L20.7369 45.6925L20.541 45.8552ZM17.8787 41.8765L18.1045 41.7589L17.7881 41.1513L17.6309 41.8181L17.8787 41.8765ZM51.0394 82.6798C68.8949 82.1156 83.1964 67.4635 83.1964 49.471H82.6872C82.6872 67.1877 68.6049 81.6153 51.0233 82.1709L51.0394 82.6798ZM48.9823 79.7658C49.5635 80.7324 50.1779 81.669 50.8242 82.5734L51.2385 82.2773C50.6001 81.3841 49.9931 80.4587 49.4187 79.5034L48.9823 79.7658ZM76.8313 51.1259C76.8313 66.5253 64.5145 79.0479 49.195 79.38L49.206 79.8891C64.8018 79.551 77.3405 66.8028 77.3405 51.1259H76.8313ZM76.8229 50.4328C76.8285 50.6632 76.8313 50.8942 76.8313 51.1259H77.3405C77.3405 50.8901 77.3376 50.655 77.332 50.4206L76.8229 50.4328ZM82.4356 44.8281C80.9484 46.7972 79.0907 48.6108 76.9255 50.2224L77.2295 50.6309C79.4293 48.9936 81.3226 47.1466 82.8419 45.135L82.4356 44.8281ZM83.1964 49.471C83.1964 47.9367 83.0924 46.4265 82.891 44.9472L82.3865 45.0159C82.5848 46.4725 82.6872 47.9597 82.6872 49.471H83.1964ZM47.7726 77.3381C48.0376 77.346 48.3035 77.35 48.5704 77.35V76.8408C48.3086 76.8408 48.0477 76.8369 47.7878 76.8291L47.7726 77.3381ZM45.0042 71.2578C45.7291 73.325 46.582 75.3108 47.5538 77.2001L48.0066 76.9671C47.0458 75.0991 46.2021 73.1349 45.4847 71.0893L45.0042 71.2578ZM60.2378 57.3535C58.8455 64.6419 52.7444 70.2595 45.2221 70.9199L45.2667 71.4271C53.0181 70.7466 59.3033 64.9588 60.738 57.4491L60.2378 57.3535ZM74.3874 51.933C70.4209 54.3527 65.6729 56.163 60.4407 57.1511L60.5352 57.6515C65.8225 56.653 70.6293 54.8221 74.6526 52.3677L74.3874 51.933ZM48.5704 77.35C62.7072 77.35 74.2312 66.164 74.7744 52.1602L74.2656 52.1405C73.7329 65.872 62.4325 76.8408 48.5704 76.8408V77.35ZM42.3315 71.2807C42.9771 73.232 43.7303 75.1205 44.5854 76.9345L45.046 76.7174C44.1998 74.9223 43.4542 73.0529 42.8149 71.1208L42.3315 71.2807ZM26.4201 54.1812C26.4201 63.3473 33.5432 70.8496 42.5561 71.4548L42.5902 70.9467C33.8429 70.3594 26.9293 63.0775 26.9293 54.1812H26.4201ZM26.6383 51.4251C26.4947 52.3228 26.4201 53.2433 26.4201 54.1812H26.9293C26.9293 53.2704 27.0017 52.3767 27.1411 51.5055L26.6383 51.4251ZM22.5879 48.3987C23.839 49.5762 25.2322 50.6733 26.7491 51.6776L27.0302 51.253C25.5358 50.2636 24.1656 49.1843 22.9369 48.0279L22.5879 48.3987ZM22.8555 51.1259C22.8555 50.1507 22.9098 49.1883 23.0155 48.2415L22.5094 48.185C22.4017 49.1506 22.3463 50.1318 22.3463 51.1259H22.8555ZM44.8522 76.574C32.4123 74.7725 22.8555 64.065 22.8555 51.1259H22.3463C22.3463 64.3217 32.0925 75.2407 44.7792 77.0779L44.8522 76.574ZM44.4554 68.9308C51.0076 68.6151 56.439 64.0296 58.0285 57.8968L57.5356 57.769C56.0009 63.6903 50.756 68.1174 44.4309 68.4221L44.4554 68.9308ZM43.2265 64.8488C43.5022 66.1733 43.827 67.4741 44.1987 68.7478L44.6875 68.6051C44.3195 67.3443 43.9981 66.0566 43.725 64.745L43.2265 64.8488ZM51.541 58.1641C50.2914 61.5607 47.1926 64.0836 43.4447 64.5442L43.5068 65.0496C47.4454 64.5656 50.7038 61.9145 52.0189 58.3399L51.541 58.1641ZM57.7491 57.5805C55.8098 57.834 53.8146 57.9763 51.7773 57.9974L51.7826 58.5066C53.8401 58.4852 55.8556 58.3415 57.8151 58.0854L57.7491 57.5805ZM40.6406 64.8408C40.8944 66.1241 41.1917 67.3881 41.5314 68.63L42.0226 68.4957C41.6862 67.2656 41.3915 66.0135 41.1401 64.742L40.6406 64.8408ZM31.7665 54.8176C31.7665 60.0642 35.7317 64.3914 40.8582 65.044L40.9225 64.5388C36.0421 63.9176 32.2757 59.7996 32.2757 54.8176H31.7665ZM31.7804 54.2811C31.7712 54.4588 31.7665 54.6377 31.7665 54.8176H32.2757C32.2757 54.6465 32.2801 54.4764 32.2889 54.3075L31.7804 54.2811ZM29.1522 53.1334C30.0449 53.6277 30.9717 54.0927 31.9297 54.5262L32.1396 54.0623C31.1938 53.6343 30.2793 53.1755 29.3989 52.688L29.1522 53.1334ZM29.4753 54.1812C29.4753 53.7605 29.4935 53.3441 29.5292 52.9327L29.0219 52.8887C28.9849 53.3147 28.9661 53.7457 28.9661 54.1812H29.4753ZM41.811 68.3105C34.8457 67.3721 29.4753 61.4036 29.4753 54.1812H28.9661C28.9661 61.662 34.5285 67.8431 41.743 68.8151L41.811 68.3105ZM43.0779 62.8224C45.9937 62.6405 48.4725 60.85 49.6387 58.3289L49.1765 58.1151C48.0863 60.4719 45.7694 62.1443 43.0462 62.3142L43.0779 62.8224ZM43.0462 62.3142C42.8944 62.3237 42.7414 62.3285 42.5872 62.3285V62.8377C42.752 62.8377 42.9156 62.8325 43.0779 62.8224L43.0462 62.3142ZM42.5872 62.3285C41.8705 62.3285 41.1785 62.2247 40.5252 62.0314L40.3808 62.5197C41.0805 62.7267 41.8211 62.8377 42.5872 62.8377V62.3285ZM40.5252 62.0314C37.6577 61.1831 35.5307 58.6105 35.3443 55.5155L34.836 55.5461C35.0355 58.8596 37.3122 61.6119 40.3808 62.5197L40.5252 62.0314ZM35.3443 55.5155C35.3355 55.3689 35.331 55.2211 35.331 55.0723H34.8218C34.8218 55.2314 34.8266 55.3893 34.836 55.5461L35.3443 55.5155ZM35.331 55.0723C35.331 54.3517 35.436 53.6562 35.6312 52.9997L35.1432 52.8546C34.934 53.5576 34.8218 54.3021 34.8218 55.0723H35.331ZM35.6312 52.9997C36.2941 50.7717 37.9989 48.9914 40.1805 48.2247L40.0117 47.7443C37.6768 48.5649 35.8527 50.4694 35.1432 52.8546L35.6312 52.9997ZM40.1805 48.2247C40.9333 47.9601 41.7432 47.8161 42.5872 47.8161V47.3069C41.6849 47.3069 40.818 47.4609 40.0117 47.7443L40.1805 48.2247ZM42.5872 47.8161C42.6218 47.8161 42.6563 47.8164 42.6908 47.8169L42.6979 47.3077C42.6611 47.3072 42.6242 47.3069 42.5872 47.3069V47.8161ZM50.3526 55.0723C50.3526 50.8206 46.9356 47.367 42.6979 47.3077L42.6908 47.8169C46.6504 47.8722 49.8433 51.0994 49.8433 55.0723H50.3526ZM50.3263 55.7156C50.3437 55.5034 50.3526 55.2889 50.3526 55.0723H49.8433C49.8433 55.275 49.835 55.4756 49.8188 55.674L50.3263 55.7156ZM49.8188 55.674C49.7477 56.5398 49.5247 57.3624 49.1765 58.1151L49.6387 58.3289C50.0115 57.5229 50.2503 56.6422 50.3263 55.7156L49.8188 55.674ZM43.0406 45.0496C48.1361 45.4685 52.1347 49.6845 52.1347 54.8176H52.6439C52.6439 49.4119 48.4345 44.9821 43.0823 44.5421L43.0406 45.0496ZM43.6913 40.2577C43.337 41.7638 43.0438 43.2645 42.81 44.7565L43.313 44.8353C43.5449 43.356 43.8356 41.868 44.187 40.3744L43.6913 40.2577ZM43.8469 39.6122C43.794 39.8267 43.7421 40.0419 43.6913 40.2577L44.187 40.3744C44.2374 40.1603 44.2888 39.9469 44.3413 39.7342L43.8469 39.6122ZM58.5 54.1812C58.5 46.1484 52.0862 39.6137 44.1003 39.4187L44.0879 39.9278C51.7982 40.116 57.9908 46.4255 57.9908 54.1812H58.5ZM58.464 55.2207C58.4878 54.8773 58.5 54.5306 58.5 54.1812H57.9908C57.9908 54.5188 57.979 54.8537 57.956 55.1854L58.464 55.2207ZM52.3567 55.9508C54.3742 55.9052 56.3425 55.736 58.2471 55.4549L58.1728 54.9512C56.289 55.2292 54.3417 55.3966 52.3452 55.4417L52.3567 55.9508ZM52.1347 54.8176C52.1347 55.1062 52.1221 55.3919 52.0973 55.674L52.6046 55.7185C52.6306 55.4216 52.6439 55.1211 52.6439 54.8176H52.1347ZM41.1855 39.7922C40.7895 41.4894 40.4683 43.1832 40.2195 44.8688L40.7232 44.9432C40.97 43.2714 41.2886 41.5914 41.6813 39.9079L41.1855 39.7922ZM30.0032 50.3237C31.4876 45.0291 35.9528 40.9804 41.4734 40.1015L41.3934 39.5986C35.6742 40.5091 31.0504 44.7023 29.5129 50.1862L30.0032 50.3237ZM32.625 51.4814C31.6735 51.0312 30.7597 50.5482 29.887 50.0354L29.6291 50.4744C30.5151 50.9952 31.4424 51.4852 32.4072 51.9417L32.625 51.4814ZM40.4288 44.655C36.5836 45.3063 33.4559 48.0349 32.2742 51.6321L32.758 51.791C33.8807 48.3735 36.8548 45.7768 40.5139 45.157L40.4288 44.655ZM44.7582 37.4082C53.5611 37.9378 60.5368 45.2449 60.5368 54.1812H61.046C61.046 44.974 53.8589 37.4456 44.7887 36.8999L44.7582 37.4082ZM49.5589 25.0598C47.4997 28.7367 45.7949 32.7623 44.5291 37.0824L45.0178 37.2256C46.2729 32.9419 47.9628 28.9519 50.0032 25.3086L49.5589 25.0598ZM74.7204 49.1398C73.7352 35.9863 63.0478 25.5381 49.7927 24.9298L49.7693 25.4385C62.7665 26.0349 73.2466 36.2804 74.2126 49.1778L74.7204 49.1398ZM60.8338 54.9972C66.1123 53.9046 70.8177 51.938 74.6093 49.3696L74.3237 48.948C70.5928 51.4753 65.9507 53.4181 60.7306 54.4986L60.8338 54.9972ZM60.5368 54.1812C60.5368 54.368 60.5338 54.5542 60.5277 54.7396L61.0366 54.7562C61.0429 54.5653 61.046 54.3736 61.046 54.1812H60.5368ZM46.6559 25.0915C44.6868 28.815 43.0665 32.8464 41.8679 37.1301L42.3583 37.2673C43.5471 33.0184 45.154 29.0208 47.1061 25.3296L46.6559 25.0915ZM23.5424 45.1967C26.0957 34.3774 35.4837 26.1975 46.8973 25.4646L46.8647 24.9565C35.2238 25.7039 25.6507 34.046 23.0468 45.0798L23.5424 45.1967ZM27.6805 48.6137C26.0853 47.4874 24.681 46.2642 23.4816 44.9655L23.1075 45.311C24.3331 46.6381 25.7649 47.8845 27.3868 49.0296L27.6805 48.6137ZM42.0892 36.9452C35.1524 37.5987 29.4074 42.3441 27.2919 48.7417L27.7753 48.9016C29.8287 42.6919 35.4057 38.0863 42.137 37.4522L42.0892 36.9452ZM51.2147 22.9871C64.3511 24.2059 74.8803 34.4163 76.5885 47.4048L77.0934 47.3384C75.3542 34.1151 64.6358 23.721 51.2617 22.4801L51.2147 22.9871ZM55.2571 16.7898C53.7415 18.5941 52.3244 20.5338 51.0229 22.5978L51.4536 22.8694C52.7429 20.8247 54.1464 18.9037 55.647 17.1173L55.2571 16.7898ZM82.1998 41.3621C79.0183 28.6774 68.5453 18.8863 55.494 16.7024L55.41 17.2046C68.2601 19.3548 78.5733 28.9962 81.7059 41.4859L82.1998 41.3621ZM77.0044 47.5668C79.1802 45.7447 80.9214 43.7168 82.1732 41.5514L81.7324 41.2966C80.5139 43.4042 78.8136 45.3875 76.6775 47.1764L77.0044 47.5668ZM52.279 16.4363C50.786 18.3288 49.3955 20.3477 48.1232 22.4809L48.5605 22.7418C49.8217 20.6273 51.1996 18.6267 52.6788 16.7517L52.279 16.4363ZM49.9708 16.7546C50.8082 16.7546 51.6383 16.7861 52.4598 16.8479L52.498 16.3401C51.6638 16.2773 50.821 16.2454 49.9708 16.2454V16.7546ZM19.2678 38.1452C23.8757 25.6579 35.8838 16.7546 49.9708 16.7546V16.2454C35.6638 16.2454 23.4694 25.288 18.79 37.9689L19.2678 38.1452ZM21.5367 42.5354C20.5385 41.0779 19.778 39.5509 19.2712 37.9789L18.7866 38.1352C19.3095 39.7573 20.0928 41.3282 21.1166 42.8231L21.5367 42.5354ZM48.3399 22.3567C35.5178 22.4574 24.694 30.9454 21.0835 42.604L21.5699 42.7546C25.1167 31.302 35.7496 22.9648 48.3439 22.8659L48.3399 22.3567ZM45.9822 79.6678C46.5215 80.6439 47.092 81.5944 47.693 82.5174L48.1197 82.2396C47.5256 81.327 46.9613 80.387 46.4279 79.4216L45.9822 79.6678ZM19.8003 51.1259C19.8003 66.2117 31.4112 78.5854 46.1842 79.7985L46.2259 79.291C31.7148 78.0994 20.3095 65.9445 20.3095 51.1259H19.8003ZM20.2908 45.8084C19.9687 47.5319 19.8003 49.3094 19.8003 51.1259H20.3095C20.3095 49.3409 20.475 47.5948 20.7913 45.9019L20.2908 45.8084ZM17.6529 41.9941C18.3846 43.3993 19.2883 44.7447 20.3451 46.0178L20.7369 45.6925C19.7016 44.4453 18.8185 43.1299 18.1045 41.7589L17.6529 41.9941ZM17.2544 49.471C17.2544 46.8772 17.5562 44.3541 18.1265 41.935L17.6309 41.8181C17.0516 44.2753 16.7452 46.8375 16.7452 49.471H17.2544ZM47.922 82.1244C30.8078 81.067 17.2544 66.8517 17.2544 49.471H16.7452C16.7452 67.1224 30.5095 81.5588 47.8906 82.6326L47.922 82.1244Z" fill="#4E4E4E" mask="url(#path-2-inside-1_313_282)"/>
<path d="M55.1479 35.1C55.5693 34.4682 55.9456 33.8868 56.2997 33.3398C57.6928 31.1873 58.7416 29.5667 60.8431 27.5023C62.8735 25.5075 66.3708 23.2604 67.7419 22.4099C68.0615 22.2117 68.4372 22.1279 68.8158 22.1647L75.0168 22.7676C76.1909 22.8818 77.0865 23.8687 77.0865 25.0483V31.415C77.0865 31.9024 76.8911 32.3618 76.5365 32.6886C74.6291 34.4465 68.8122 39.6313 64.1149 41.9873C59.4582 44.323 51.9303 45.8706 49.2482 46.372C49.0463 46.4097 48.897 46.2085 48.9888 46.0277C50.0559 43.9257 52.8347 38.5676 55.1479 35.1Z" fill="#1F2029" stroke="#4E4E4E" stroke-width="0.509205"/>
<path d="M48.9149 46.0881C59.7327 35.482 65.7572 30.1954 76.3257 23.6323" stroke="#4E4E4E" stroke-width="0.254603"/>
<path d="M28.9809 43.3897L28.979 43.3891L28.9476 43.3608C28.9005 43.3183 28.8311 43.2553 28.7421 43.1738C28.5642 43.0109 28.3081 42.7741 27.9961 42.4792C27.372 41.8892 26.525 41.0672 25.633 40.1391C24.7406 39.2105 23.8055 38.1781 23.0041 37.167C22.2001 36.1526 21.5417 35.1734 21.1912 34.3497C20.6916 33.176 20.5422 31.5353 20.5667 29.8846C20.5911 28.2416 20.7868 26.621 20.9559 25.5062C21.07 24.7542 21.6868 24.1868 22.456 24.1024L29.9317 23.2822C29.0907 28.3422 29.2315 32.0602 30.3566 35.4813C31.4479 38.7992 33.4584 41.8155 36.3441 45.4909C34.8211 45.1201 33.118 44.6385 31.7263 44.2276C30.9207 43.9897 30.2206 43.7759 29.722 43.6215C29.4727 43.5444 29.2738 43.4821 29.1373 43.4391L28.9809 43.3897Z" fill="#1F2029" stroke="#4E4E4E" stroke-width="0.509205"/>
<path d="M21.1768 24.8277C20.9837 33.5024 25.3683 37.8978 35.9437 45.4505" stroke="#4E4E4E" stroke-width="0.254603"/>
<path d="M20.0588 65.8665C20.0524 65.0974 20.54 64.411 21.2683 64.1639L32.9495 60.2004L28.2406 72.0818C27.9571 72.7972 27.2464 73.2498 26.4783 73.2043L21.7795 72.9257C20.8436 72.8702 20.1107 72.099 20.1029 71.1614L20.0588 65.8665Z" fill="#1F2029" stroke="#4E4E4E" stroke-width="0.509205"/>
<path d="M20.4763 72.166C25.586 67.7669 28.2276 65.1847 32.6972 60.4543" stroke="#4E4E4E" stroke-width="0.254603"/>
<path d="M49.7679 63.8653C49.6513 63.4091 49.5577 63.0229 49.4873 62.7236C53.367 65.7972 56.5479 68.0533 59.9389 69.8076C63.4445 71.6211 67.1651 72.8937 72.1029 73.9863C71.9623 75.5514 71.6782 76.7909 71.1381 78.0072C70.5713 79.2836 69.7168 80.5476 68.4257 82.1428C68.3725 82.2086 68.322 82.2779 68.2757 82.3414L68.2651 82.3559C68.2144 82.4255 68.168 82.4884 68.12 82.546C68.0234 82.6619 67.9365 82.7359 67.8402 82.7729C67.4679 82.9161 66.7566 82.9919 65.818 82.9478C64.89 82.9041 63.7705 82.7448 62.6004 82.4416C60.2538 81.8335 57.7418 80.6569 56.1505 78.7161C53.9345 76.0135 52.2277 71.8511 51.0725 68.3401C50.4964 66.589 50.0601 65.0082 49.7679 63.8653Z" fill="#1F2029" stroke="#4E4E4E" stroke-width="0.509205"/>
<path d="M67.8267 82.783C56.7899 75.7405 53.1039 71.3412 49.4953 62.924" stroke="#4E4E4E" stroke-width="0.254603"/>
</svg>
