<svg width="100" height="100" viewBox="0 0 100 100" fill="none" xmlns="http://www.w3.org/2000/svg">
<circle cx="50" cy="50" r="50" fill="#4E4E4E"/>
<path fill-rule="evenodd" clip-rule="evenodd" d="M30 13.5469C30 11.8641 31.3641 10.5 33.0469 10.5H67.4766C69.1593 10.5 70.5234 11.8641 70.5234 13.5469V18.7266L68.086 19.8692V24.668L70.5234 25.7344V46.2577C65.0873 41.8094 58.1385 39.1406 50.5664 39.1406C42.7083 39.1406 35.5216 42.0148 30 46.7692V13.5469ZM50.5664 42.1875C58.3384 42.1875 65.3835 45.2998 70.5234 50.346V56.2762L66.4564 57.415C65.7985 57.5992 65.3437 58.1988 65.3437 58.882V63.9056C65.3437 64.5783 65.785 65.1714 66.4294 65.3648L70.5234 66.593V76.9219H30V66.5564L33.7624 65.503C34.4202 65.3188 34.875 64.7191 34.875 64.036V59.0124C34.875 58.3397 34.4337 57.7465 33.7893 57.5532L30 56.4164V50.9626C35.1851 45.5545 42.4826 42.1875 50.5664 42.1875ZM30 80.2734V85.4531C30 87.1359 31.3641 88.5 33.0469 88.5H67.4766C69.1593 88.5 70.5234 87.1359 70.5234 85.4531V80.2734H30ZM66.785 58.5886L70.5234 57.5419V65.3206L66.7796 64.1974C66.6507 64.1587 66.5625 64.0401 66.5625 63.9056V58.882C66.5625 58.7454 66.6534 58.6255 66.785 58.5886ZM30 65.2908V57.6888L33.4391 58.7206C33.568 58.7592 33.6563 58.8779 33.6563 59.0124V64.036C33.6563 64.1726 33.5653 64.2925 33.4337 64.3294L30 65.2908ZM37.6172 16.5937C37.6172 14.911 38.9813 13.5469 40.6641 13.5469H60.9258C62.6085 13.5469 63.9727 14.911 63.9727 16.5937V32.1328C63.9727 33.8155 62.6085 35.1797 60.9258 35.1797H40.6641C38.9813 35.1797 37.6172 33.8155 37.6172 32.1328V16.5937ZM50.3379 72.961C56.6903 72.961 61.8399 67.8114 61.8399 61.459C61.8399 55.1067 56.6903 49.9571 50.3379 49.9571C43.9856 49.9571 38.836 55.1067 38.836 61.459C38.836 67.8114 43.9856 72.961 50.3379 72.961ZM34.875 82.1016C34.5385 82.1016 34.2656 82.3744 34.2656 82.711V84.0821C34.2656 84.4186 34.5385 84.6915 34.875 84.6915H39.75C40.0866 84.6915 40.3594 84.4186 40.3594 84.0821V82.711C40.3594 82.3744 40.0866 82.1016 39.75 82.1016H34.875ZM60.6211 82.711C60.6211 82.3744 60.8939 82.1016 61.2304 82.1016H66.1054C66.442 82.1016 66.7148 82.3744 66.7148 82.711V84.0821C66.7148 84.4186 66.442 84.6915 66.1054 84.6915H61.2304C60.8939 84.6915 60.6211 84.4186 60.6211 84.0821V82.711ZM44.7012 85.1484C45.6688 85.1484 46.4531 84.364 46.4531 83.3965C46.4531 82.4289 45.6688 81.6445 44.7012 81.6445C43.7336 81.6445 42.9492 82.4289 42.9492 83.3965C42.9492 84.364 43.7336 85.1484 44.7012 85.1484ZM52.2421 83.3965C52.2421 84.364 51.4578 85.1484 50.4902 85.1484C49.5226 85.1484 48.7382 84.364 48.7382 83.3965C48.7382 82.4289 49.5226 81.6445 50.4902 81.6445C51.4578 81.6445 52.2421 82.4289 52.2421 83.3965ZM56.2793 85.1484C57.2469 85.1484 58.0313 84.364 58.0313 83.3965C58.0313 82.4289 57.2469 81.6445 56.2793 81.6445C55.3117 81.6445 54.5274 82.4289 54.5274 83.3965C54.5274 84.364 55.3117 85.1484 56.2793 85.1484Z" fill="#1F2029"/>
</svg>
