<svg width="100" height="100" viewBox="0 0 100 100" fill="none" xmlns="http://www.w3.org/2000/svg">
<circle cx="50" cy="50" r="50" fill="#4E4E4E"/>
<g clip-path="url(#clip0_313_218)">
<path fill-rule="evenodd" clip-rule="evenodd" d="M71.5961 61.4912C71.5961 73.0924 62.1559 82.4971 50.5109 82.4971C38.8659 82.4971 29.4258 73.0924 29.4258 61.4912C29.4258 50.2081 49.3704 19.2199 50.4642 17.5289C50.4892 17.4904 50.5328 17.4904 50.5576 17.5289C51.6515 19.2199 71.5961 50.2081 71.5961 61.4912ZM46.9961 75.7627C36.2965 73.4216 38.1274 61.5692 38.1274 61.5692C38.1274 61.5692 41.0491 68.7241 48.1393 71.0417C55.2294 73.3592 63.7977 69.9602 63.7977 69.9602C63.7977 69.9602 57.6957 78.1037 46.9961 75.7627Z" fill="#1F2029"/>
</g>
<defs>
<clipPath id="clip0_313_218">
<rect width="65" height="65" fill="white" transform="translate(18 17.5)"/>
</clipPath>
</defs>
</svg>
