<svg width="100" height="100" viewBox="0 0 100 100" fill="none" xmlns="http://www.w3.org/2000/svg">
<circle cx="50" cy="50" r="50" fill="url(#paint0_linear_321_922)"/>
<g style="mix-blend-mode:multiply">
<path d="M10 50.5C10 71.763 17 85 17 85C17 85 2 71.763 2 50.5C2 29.237 15 18 15 18C15 18 10 29.237 10 50.5Z" fill="url(#paint1_linear_321_922)"/>
</g>
<path d="M98 50C98 75.9574 78.0767 97 53.5 97C28.9234 97 58.5001 84.9574 58.5001 59C58.5001 33.0426 28.9234 3 53.5 3C78.0767 3 98 24.0426 98 50Z" fill="url(#paint2_linear_321_922)" fill-opacity="0.4"/>
<mask id="path-4-inside-1_321_922" fill="white">
<path fill-rule="evenodd" clip-rule="evenodd" d="M61.4431 17.0636C61.4905 16.9961 61.5834 16.9797 61.6509 17.027L66.2662 20.2587C66.3337 20.3059 66.3501 20.399 66.3029 20.4665L59.8792 29.6404C63.0021 30.6381 65.1297 31.7142 65.1297 31.7142C65.1297 31.7142 59.9292 40.6596 51.1086 40.6596C42.288 40.6596 36.0202 32.3224 36.0202 32.3224C36.0202 32.3224 38.2427 30.904 41.5371 29.6876L34.4912 21.2907C34.4383 21.2276 34.4465 21.1335 34.5096 21.0805L38.8256 17.4589C38.8889 17.4059 38.9829 17.4142 39.0359 17.4773L47.9571 28.1092C48.721 28.0228 49.4992 27.9745 50.2846 27.9745C51.4133 27.9745 52.5406 28.0603 53.6412 28.2059L61.4431 17.0636ZM63.1882 41.0833C65.542 39.4021 69.1038 35.0144 69.1038 35.0144C69.1038 35.0144 78.2018 42.2241 78.2018 57.5113C78.2018 72.7983 62.4728 81.999 62.4728 81.999C62.4728 81.999 54.9578 74.4096 53.1129 64.789C51.2682 55.1683 55.8419 44.4857 55.8419 44.4857C55.8419 44.4857 60.8342 42.7644 63.1882 41.0833V41.0833ZM37.8378 41.0833C35.484 39.4021 31.9222 35.0144 31.9222 35.0144C31.9222 35.0144 22.8242 42.2241 22.8242 57.5113C22.8242 72.7983 38.5532 81.999 38.5532 81.999C38.5532 81.999 46.0682 74.4096 47.9131 64.789C49.7578 55.1683 45.1841 44.4857 45.1841 44.4857C45.1841 44.4857 40.1918 42.7644 37.8378 41.0833V41.0833Z"/>
</mask>
<path fill-rule="evenodd" clip-rule="evenodd" d="M61.4431 17.0636C61.4905 16.9961 61.5834 16.9797 61.6509 17.027L66.2662 20.2587C66.3337 20.3059 66.3501 20.399 66.3029 20.4665L59.8792 29.6404C63.0021 30.6381 65.1297 31.7142 65.1297 31.7142C65.1297 31.7142 59.9292 40.6596 51.1086 40.6596C42.288 40.6596 36.0202 32.3224 36.0202 32.3224C36.0202 32.3224 38.2427 30.904 41.5371 29.6876L34.4912 21.2907C34.4383 21.2276 34.4465 21.1335 34.5096 21.0805L38.8256 17.4589C38.8889 17.4059 38.9829 17.4142 39.0359 17.4773L47.9571 28.1092C48.721 28.0228 49.4992 27.9745 50.2846 27.9745C51.4133 27.9745 52.5406 28.0603 53.6412 28.2059L61.4431 17.0636ZM63.1882 41.0833C65.542 39.4021 69.1038 35.0144 69.1038 35.0144C69.1038 35.0144 78.2018 42.2241 78.2018 57.5113C78.2018 72.7983 62.4728 81.999 62.4728 81.999C62.4728 81.999 54.9578 74.4096 53.1129 64.789C51.2682 55.1683 55.8419 44.4857 55.8419 44.4857C55.8419 44.4857 60.8342 42.7644 63.1882 41.0833V41.0833ZM37.8378 41.0833C35.484 39.4021 31.9222 35.0144 31.9222 35.0144C31.9222 35.0144 22.8242 42.2241 22.8242 57.5113C22.8242 72.7983 38.5532 81.999 38.5532 81.999C38.5532 81.999 46.0682 74.4096 47.9131 64.789C49.7578 55.1683 45.1841 44.4857 45.1841 44.4857C45.1841 44.4857 40.1918 42.7644 37.8378 41.0833V41.0833Z" fill="white"/>
<path d="M61.4431 17.0636L61.1975 16.8914L61.1974 16.8916L61.4431 17.0636ZM61.6509 17.027L61.823 16.7813L61.8229 16.7812L61.6509 17.027ZM66.2662 20.2587L66.0941 20.5044L66.0942 20.5044L66.2662 20.2587ZM66.3029 20.4665L66.5486 20.6385L66.5487 20.6384L66.3029 20.4665ZM59.8792 29.6404L59.6334 29.4683L59.3997 29.8021L59.7879 29.9262L59.8792 29.6404ZM65.1297 31.7142L65.3891 31.865L65.5489 31.5901L65.2651 31.4465L65.1297 31.7142ZM36.0202 32.3224L35.8588 32.0695L35.5858 32.2437L35.7804 32.5026L36.0202 32.3224ZM41.5371 29.6876L41.641 29.969L42.041 29.8213L41.7669 29.4947L41.5371 29.6876ZM34.4912 21.2907L34.2613 21.4835L34.2614 21.4835L34.4912 21.2907ZM34.5096 21.0805L34.3168 20.8507L34.3167 20.8507L34.5096 21.0805ZM38.8256 17.4589L38.633 17.2289L38.6328 17.2291L38.8256 17.4589ZM39.0359 17.4773L38.806 17.6701L38.8061 17.6701L39.0359 17.4773ZM47.9571 28.1092L47.7273 28.302L47.8308 28.4254L47.9908 28.4073L47.9571 28.1092ZM53.6412 28.2059L53.6019 28.5033L53.7825 28.5272L53.8869 28.378L53.6412 28.2059ZM69.1038 35.0144L69.2902 34.7793L69.0578 34.5951L68.8709 34.8253L69.1038 35.0144ZM62.4728 81.999L62.2596 82.2101L62.4234 82.3754L62.6243 82.2579L62.4728 81.999ZM53.1129 64.789L52.8183 64.8455L52.8183 64.8455L53.1129 64.789ZM55.8419 44.4857L55.7441 44.2021L55.6185 44.2455L55.5661 44.3677L55.8419 44.4857ZM31.9222 35.0144L32.1551 34.8253L31.9682 34.5951L31.7359 34.7793L31.9222 35.0144ZM38.5532 81.999L38.4017 82.2579L38.6026 82.3754L38.7664 82.2101L38.5532 81.999ZM47.9131 64.789L48.2077 64.8455L48.2077 64.8455L47.9131 64.789ZM45.1841 44.4857L45.4599 44.3677L45.4076 44.2455L45.2819 44.2021L45.1841 44.4857ZM61.6887 17.2359C61.6411 17.3038 61.5472 17.3206 61.4789 17.2728L61.8229 16.7812C61.6196 16.6389 61.3398 16.6885 61.1975 16.8914L61.6887 17.2359ZM61.4789 17.2727L66.0941 20.5044L66.4383 20.0129L61.823 16.7813L61.4789 17.2727ZM66.0942 20.5044C66.0259 20.4566 66.0094 20.3626 66.0571 20.2945L66.5487 20.6384C66.6908 20.4353 66.6416 20.1552 66.4382 20.0129L66.0942 20.5044ZM66.0571 20.2944L59.6334 29.4683L60.1249 29.8125L66.5486 20.6385L66.0571 20.2944ZM59.7879 29.9262C61.3386 30.4216 62.6423 30.9365 63.5577 31.3274C64.0153 31.5227 64.3757 31.687 64.621 31.8021C64.7437 31.8597 64.8376 31.9049 64.9006 31.9357C64.9321 31.951 64.9558 31.9627 64.9715 31.9706C64.9794 31.9745 64.9852 31.9774 64.989 31.9793C64.9909 31.9803 64.9923 31.981 64.9932 31.9814C64.9936 31.9816 64.9939 31.9818 64.9941 31.9819C64.9942 31.9819 64.9943 31.9819 64.9943 31.982C64.9943 31.982 64.9943 31.982 64.9943 31.982C64.9943 31.982 64.9943 31.982 65.1297 31.7142C65.2651 31.4465 65.2651 31.4465 65.265 31.4465C65.265 31.4465 65.2649 31.4465 65.2649 31.4464C65.2648 31.4464 65.2647 31.4463 65.2645 31.4462C65.2642 31.4461 65.2637 31.4458 65.2631 31.4455C65.2619 31.4449 65.2602 31.4441 65.258 31.443C65.2536 31.4407 65.2471 31.4375 65.2386 31.4333C65.2216 31.4248 65.1966 31.4125 65.1638 31.3965C65.0982 31.3644 65.0015 31.3178 64.8759 31.2589C64.6247 31.1411 64.258 30.9739 63.7933 30.7755C62.8642 30.3789 61.5426 29.8569 59.9705 29.3546L59.7879 29.9262ZM65.1297 31.7142C64.8703 31.5635 64.8704 31.5634 64.8704 31.5634C64.8704 31.5634 64.8704 31.5634 64.8703 31.5635C64.8702 31.5636 64.8701 31.5639 64.8698 31.5643C64.8693 31.5652 64.8685 31.5665 64.8674 31.5684C64.8652 31.5722 64.8617 31.5781 64.857 31.5861C64.8475 31.602 64.833 31.626 64.8135 31.6577C64.7746 31.721 64.7159 31.8149 64.6377 31.9348C64.4813 32.1747 64.2473 32.5189 63.9388 32.9326C63.3214 33.7605 62.4076 34.8643 61.2225 35.9673C58.8487 38.1768 55.4132 40.3596 51.1086 40.3596V40.9596C55.6246 40.9596 59.1996 38.6698 61.6313 36.4065C62.8489 35.2732 63.7864 34.1407 64.4198 33.2913C64.7367 32.8664 64.9779 32.5117 65.1403 32.2624C65.2216 32.1378 65.2832 32.0394 65.3248 31.9717C65.3456 31.9379 65.3613 31.9117 65.3721 31.8937C65.3774 31.8848 65.3815 31.8778 65.3844 31.873C65.3858 31.8706 65.3869 31.8687 65.3877 31.8674C65.3881 31.8667 65.3884 31.8662 65.3886 31.8658C65.3887 31.8656 65.3888 31.8654 65.3889 31.8653C65.389 31.8652 65.3891 31.865 65.1297 31.7142ZM51.1086 40.3596C46.7927 40.3596 43.0849 38.3185 40.4413 36.2545C39.1219 35.2243 38.0745 34.1937 37.3573 33.421C36.9988 33.0348 36.7233 32.7134 36.5379 32.4894C36.4453 32.3773 36.3751 32.2897 36.3285 32.2304C36.3052 32.2008 36.2878 32.1783 36.2763 32.1634C36.2706 32.156 36.2664 32.1504 36.2636 32.1468C36.2623 32.1451 36.2613 32.1438 36.2607 32.143C36.2604 32.1426 36.2602 32.1423 36.2601 32.1421C36.26 32.1421 36.26 32.1421 36.26 32.142C36.26 32.142 36.26 32.1421 36.0202 32.3224C35.7804 32.5026 35.7805 32.5027 35.7806 32.5029C35.7807 32.503 35.7808 32.5031 35.781 32.5033C35.7812 32.5037 35.7816 32.5042 35.7821 32.5048C35.783 32.506 35.7843 32.5077 35.786 32.5099C35.7894 32.5144 35.7943 32.5208 35.8007 32.5291C35.8135 32.5458 35.8323 32.5701 35.857 32.6015C35.9065 32.6644 35.9797 32.7559 36.0756 32.8718C36.2675 33.1037 36.5505 33.4337 36.9175 33.8291C37.6512 34.6196 38.722 35.6733 40.0721 36.7274C42.7676 38.8321 46.604 40.9596 51.1086 40.9596V40.3596ZM36.0202 32.3224C36.1816 32.5752 36.1816 32.5753 36.1816 32.5753C36.1816 32.5753 36.1816 32.5753 36.1816 32.5753C36.1816 32.5753 36.1817 32.5752 36.1817 32.5752C36.1819 32.5751 36.1822 32.5749 36.1827 32.5746C36.1836 32.574 36.185 32.5731 36.187 32.5719C36.1909 32.5694 36.1969 32.5656 36.2051 32.5605C36.2214 32.5503 36.2461 32.5349 36.2788 32.5149C36.3444 32.4747 36.4423 32.4156 36.5704 32.3407C36.8266 32.1908 37.2033 31.9778 37.6824 31.7269C38.6411 31.2249 40.0084 30.5719 41.641 29.969L41.4332 29.4062C39.7714 30.0198 38.3803 30.6841 37.4041 31.1954C36.9158 31.4511 36.531 31.6687 36.2675 31.8228C36.1358 31.8998 36.0343 31.961 35.9655 32.0032C35.9311 32.0243 35.9048 32.0406 35.8869 32.0518C35.878 32.0574 35.8711 32.0617 35.8665 32.0646C35.8641 32.0661 35.8623 32.0673 35.861 32.0681C35.8604 32.0685 35.8599 32.0688 35.8595 32.069C35.8593 32.0691 35.8592 32.0692 35.8591 32.0693C35.859 32.0693 35.859 32.0694 35.8589 32.0694C35.8589 32.0694 35.8588 32.0695 36.0202 32.3224ZM41.7669 29.4947L34.721 21.0979L34.2614 21.4835L41.3073 29.8804L41.7669 29.4947ZM34.7211 21.098C34.7746 21.1618 34.7662 21.2568 34.7025 21.3103L34.3167 20.8507C34.1268 21.0102 34.102 21.2934 34.2613 21.4835L34.7211 21.098ZM34.7025 21.3103L39.0185 17.6887L38.6328 17.2291L34.3168 20.8507L34.7025 21.3103ZM39.0183 17.6889C38.9548 17.7421 38.8597 17.7341 38.806 17.6701L39.2657 17.2845C39.1062 17.0943 38.8229 17.0698 38.633 17.2289L39.0183 17.6889ZM38.8061 17.6701L47.7273 28.302L48.1869 27.9164L39.2657 17.2844L38.8061 17.6701ZM47.9908 28.4073C48.7446 28.3221 49.5115 28.2745 50.2846 28.2745V27.6745C49.487 27.6745 48.6974 27.7236 47.9234 27.8111L47.9908 28.4073ZM50.2846 28.2745C51.3983 28.2745 52.5123 28.3592 53.6019 28.5033L53.6806 27.9085C52.569 27.7615 51.4283 27.6745 50.2846 27.6745V28.2745ZM53.8869 28.378L61.6889 17.2357L61.1974 16.8916L53.3955 28.0339L53.8869 28.378ZM63.3626 41.3274C64.5686 40.4661 66.0666 38.9266 67.251 37.6199C67.8461 36.9632 68.3672 36.3596 68.7394 35.9202C68.9256 35.7004 69.0747 35.5215 69.1773 35.3975C69.2287 35.3354 69.2684 35.2871 69.2953 35.2542C69.3088 35.2377 69.3191 35.2251 69.3261 35.2166C69.3295 35.2123 69.3322 35.2091 69.334 35.2069C69.3349 35.2058 69.3355 35.205 69.336 35.2044C69.3362 35.2041 69.3364 35.2039 69.3365 35.2037C69.3366 35.2037 69.3367 35.2036 69.3367 35.2035C69.3367 35.2035 69.3368 35.2035 69.1038 35.0144C68.8709 34.8253 68.8709 34.8253 68.8709 34.8253C68.8709 34.8254 68.8709 34.8254 68.8708 34.8255C68.8707 34.8256 68.8706 34.8258 68.8704 34.826C68.87 34.8265 68.8694 34.8272 68.8685 34.8283C68.8669 34.8303 68.8644 34.8334 68.861 34.8375C68.8544 34.8456 68.8444 34.8579 68.8312 34.874C68.8048 34.9062 68.7657 34.9537 68.7151 35.015C68.6137 35.1374 68.4661 35.3145 68.2816 35.5323C67.9125 35.9681 67.396 36.5665 66.8064 37.2169C65.6215 38.5243 64.1617 40.0194 63.0138 40.8391L63.3626 41.3274ZM69.1038 35.0144C68.9175 35.2495 68.9174 35.2495 68.9174 35.2494C68.9174 35.2494 68.9174 35.2494 68.9175 35.2495C68.9176 35.2496 68.9178 35.2498 68.9182 35.2501C68.919 35.2507 68.9203 35.2518 68.9222 35.2533C68.9259 35.2563 68.9318 35.2611 68.9398 35.2676C68.9557 35.2806 68.9799 35.3007 69.0119 35.3278C69.0759 35.3821 69.1709 35.4647 69.2926 35.5757C69.5358 35.7976 69.8854 36.1333 70.306 36.5844C71.1472 37.4865 72.2717 38.8496 73.397 40.6868C75.6467 44.3597 77.9018 49.9303 77.9018 57.5113H78.5018C78.5018 49.805 76.2079 44.1272 73.9086 40.3734C72.7595 38.4973 71.6095 37.1025 70.7448 36.1752C70.3124 35.7115 69.9513 35.3645 69.697 35.1324C69.5698 35.0164 69.4694 34.9291 69.4001 34.8703C69.3655 34.8409 69.3386 34.8187 69.3201 34.8035C69.3108 34.7959 69.3037 34.7901 69.2987 34.7861C69.2962 34.7841 69.2942 34.7825 69.2928 34.7813C69.2921 34.7808 69.2915 34.7803 69.291 34.78C69.2908 34.7798 69.2906 34.7796 69.2905 34.7795C69.2903 34.7794 69.2902 34.7793 69.1038 35.0144ZM77.9018 57.5113C77.9018 65.048 74.0241 71.1 70.118 75.283C68.1669 77.3725 66.215 78.9886 64.7509 80.0822C64.0192 80.6288 63.4099 81.0443 62.9844 81.3228C62.7717 81.462 62.605 81.5668 62.4919 81.6367C62.4353 81.6716 62.3922 81.6977 62.3635 81.7149C62.3491 81.7236 62.3383 81.73 62.3313 81.7342C62.3277 81.7363 62.3251 81.7378 62.3235 81.7388C62.3226 81.7393 62.3221 81.7396 62.3217 81.7398C62.3215 81.7399 62.3214 81.74 62.3213 81.74C62.3213 81.7401 62.3213 81.74 62.4728 81.999C62.6243 82.2579 62.6244 82.2578 62.6247 82.2577C62.6248 82.2576 62.6251 82.2575 62.6254 82.2573C62.626 82.2569 62.6268 82.2565 62.6279 82.2558C62.63 82.2546 62.6331 82.2527 62.6372 82.2503C62.6452 82.2456 62.657 82.2385 62.6724 82.2293C62.7032 82.2108 62.7484 82.1834 62.8071 82.1472C62.9244 82.0748 63.0956 81.9671 63.3129 81.8248C63.7476 81.5404 64.3672 81.1177 65.11 80.5629C66.5952 79.4536 68.5755 77.8141 70.5566 75.6925C74.515 71.4534 78.5018 65.2615 78.5018 57.5113H77.9018ZM62.4728 81.999C62.686 81.7879 62.686 81.7879 62.686 81.7879C62.686 81.7879 62.6859 81.7878 62.6859 81.7878C62.6857 81.7876 62.6854 81.7873 62.685 81.7869C62.6843 81.7862 62.6831 81.7849 62.6814 81.7832C62.6781 81.7798 62.6729 81.7746 62.6661 81.7676C62.6524 81.7535 62.6318 81.7322 62.6046 81.7039C62.5503 81.6472 62.4699 81.5623 62.3667 81.4505C62.1601 81.2269 61.8621 80.8959 61.4983 80.4684C60.7705 79.6132 59.7803 78.3724 58.7327 76.8329C56.6354 73.7507 54.3193 69.487 53.4076 64.7325L52.8183 64.8455C53.7515 69.7116 56.1153 74.0529 58.2367 77.1705C59.2985 78.7309 60.3023 79.9888 61.0413 80.8572C61.4108 81.2915 61.7143 81.6286 61.926 81.8577C62.0318 81.9722 62.1146 82.0597 62.1713 82.1189C62.1997 82.1485 62.2215 82.171 62.2363 82.1863C62.2437 82.1939 62.2494 82.1997 62.2533 82.2037C62.2553 82.2057 62.2568 82.2072 62.2579 82.2083C62.2584 82.2088 62.2588 82.2092 62.2591 82.2095C62.2592 82.2097 62.2594 82.2098 62.2595 82.2099C62.2596 82.21 62.2596 82.2101 62.4728 81.999ZM53.4076 64.7325C52.4966 59.9816 53.1692 54.9532 54.0777 51.0984C54.5313 49.1737 55.0422 47.5478 55.4395 46.4036C55.6381 45.8316 55.8082 45.3804 55.9284 45.0727C55.9885 44.9189 56.0361 44.801 56.0686 44.7219C56.0848 44.6823 56.0972 44.6525 56.1055 44.6327C56.1097 44.6228 56.1128 44.6154 56.1148 44.6106C56.1159 44.6081 56.1166 44.6064 56.1171 44.6052C56.1173 44.6047 56.1175 44.6043 56.1176 44.604C56.1177 44.6039 56.1177 44.6039 56.1177 44.6038C56.1177 44.6038 56.1177 44.6038 55.8419 44.4857C55.5661 44.3677 55.5661 44.3678 55.566 44.3679C55.566 44.368 55.5659 44.3682 55.5658 44.3684C55.5657 44.3688 55.5654 44.3694 55.5651 44.3701C55.5645 44.3716 55.5636 44.3737 55.5624 44.3765C55.5601 44.382 55.5567 44.3901 55.5522 44.4007C55.5433 44.4219 55.5303 44.4532 55.5135 44.4942C55.4798 44.5763 55.4309 44.6973 55.3696 44.8544C55.2469 45.1685 55.0741 45.627 54.8727 46.2068C54.4701 47.3663 53.9529 49.0122 53.4937 50.9608C52.5765 54.8525 51.8845 59.9757 52.8183 64.8455L53.4076 64.7325ZM55.8419 44.4857C55.9397 44.7693 55.9398 44.7693 55.9398 44.7693C55.9399 44.7693 55.9399 44.7693 55.94 44.7692C55.9402 44.7692 55.9405 44.7691 55.9408 44.769C55.9415 44.7687 55.9424 44.7684 55.9437 44.768C55.9462 44.7671 55.9499 44.7658 55.9548 44.7641C55.9646 44.7607 55.979 44.7557 55.9978 44.7491C56.0355 44.7359 56.0908 44.7164 56.1619 44.691C56.3041 44.6403 56.5095 44.566 56.7633 44.4717C57.2707 44.2831 57.9719 44.014 58.7474 43.692C60.2906 43.0511 62.1553 42.1896 63.3626 41.3274L63.0139 40.8391C61.8671 41.6581 60.0587 42.4978 58.5173 43.1379C57.7504 43.4563 57.0565 43.7226 56.5542 43.9093C56.3032 44.0026 56.1002 44.076 55.9602 44.1259C55.8902 44.1509 55.836 44.17 55.7993 44.1829C55.781 44.1893 55.7671 44.1941 55.7578 44.1974C55.7532 44.199 55.7497 44.2002 55.7474 44.201C55.7463 44.2014 55.7454 44.2017 55.7449 44.2019C55.7446 44.202 55.7444 44.202 55.7443 44.2021C55.7442 44.2021 55.7442 44.2021 55.7442 44.2021C55.7441 44.2021 55.7441 44.2021 55.8419 44.4857ZM38.0122 40.8391C36.8644 40.0194 35.4046 38.5243 34.2196 37.2169C33.6301 36.5665 33.1135 35.9681 32.7444 35.5323C32.5599 35.3145 32.4123 35.1374 32.311 35.015C32.2603 34.9537 32.2212 34.9062 32.1948 34.874C32.1817 34.8579 32.1717 34.8456 32.165 34.8375C32.1616 34.8334 32.1591 34.8303 32.1575 34.8283C32.1567 34.8272 32.1561 34.8265 32.1557 34.826C32.1555 34.8258 32.1553 34.8256 32.1552 34.8255C32.1552 34.8254 32.1551 34.8254 32.1551 34.8253C32.1551 34.8253 32.1551 34.8253 31.9222 35.0144C31.6893 35.2035 31.6893 35.2035 31.6893 35.2035C31.6894 35.2036 31.6894 35.2037 31.6895 35.2037C31.6896 35.2039 31.6898 35.2041 31.69 35.2044C31.6905 35.205 31.6912 35.2058 31.6921 35.2069C31.6939 35.2091 31.6965 35.2123 31.7 35.2166C31.7069 35.2251 31.7172 35.2377 31.7307 35.2542C31.7576 35.2871 31.7974 35.3354 31.8487 35.3975C31.9513 35.5215 32.1004 35.7004 32.2866 35.9202C32.6588 36.3596 33.1799 36.9632 33.775 37.6199C34.9594 38.9266 36.4574 40.4661 37.6635 41.3274L38.0122 40.8391ZM31.9222 35.0144C31.7359 34.7793 31.7357 34.7794 31.7355 34.7795C31.7354 34.7796 31.7352 34.7798 31.735 34.78C31.7345 34.7803 31.734 34.7808 31.7333 34.7813C31.7318 34.7825 31.7299 34.7841 31.7274 34.7861C31.7223 34.7901 31.7152 34.7959 31.7059 34.8035C31.6874 34.8187 31.6606 34.8409 31.6259 34.8703C31.5566 34.9291 31.4562 35.0164 31.329 35.1324C31.0748 35.3645 30.7136 35.7115 30.2812 36.1752C29.4165 37.1025 28.2665 38.4973 27.1174 40.3734C24.8181 44.1272 22.5242 49.805 22.5242 57.5113H23.1242C23.1242 49.9303 25.3793 44.3597 27.629 40.6868C28.7544 38.8496 29.8788 37.4865 30.72 36.5844C31.1406 36.1333 31.4902 35.7976 31.7335 35.5757C31.8551 35.4647 31.9501 35.3821 32.0141 35.3278C32.0461 35.3007 32.0703 35.2806 32.0863 35.2676C32.0942 35.2611 32.1001 35.2563 32.1038 35.2533C32.1057 35.2518 32.107 35.2507 32.1078 35.2501C32.1082 35.2498 32.1085 35.2496 32.1086 35.2495C32.1086 35.2494 32.1086 35.2494 32.1086 35.2494C32.1086 35.2495 32.1085 35.2495 31.9222 35.0144ZM22.5242 57.5113C22.5242 65.2615 26.511 71.4534 30.4694 75.6925C32.4505 77.8141 34.4309 79.4536 35.916 80.5629C36.6588 81.1177 37.2784 81.5404 37.7131 81.8248C37.9304 81.9671 38.1016 82.0748 38.219 82.1472C38.2776 82.1834 38.3228 82.2108 38.3536 82.2293C38.369 82.2385 38.3808 82.2456 38.3888 82.2503C38.3929 82.2527 38.396 82.2546 38.3981 82.2558C38.3992 82.2565 38.4 82.2569 38.4006 82.2573C38.4009 82.2575 38.4012 82.2576 38.4014 82.2577C38.4016 82.2578 38.4017 82.2579 38.5532 81.999C38.7047 81.74 38.7047 81.7401 38.7047 81.74C38.7046 81.74 38.7045 81.7399 38.7043 81.7398C38.704 81.7396 38.7034 81.7393 38.7025 81.7388C38.7009 81.7378 38.6983 81.7363 38.6948 81.7342C38.6877 81.73 38.6769 81.7236 38.6625 81.7149C38.6338 81.6977 38.5907 81.6716 38.5342 81.6367C38.4211 81.5668 38.2543 81.462 38.0416 81.3228C37.6161 81.0443 37.0069 80.6288 36.2751 80.0822C34.811 78.9886 32.8591 77.3725 30.908 75.283C27.0019 71.1 23.1242 65.048 23.1242 57.5113H22.5242ZM38.5532 81.999C38.7664 82.2101 38.7665 82.21 38.7666 82.2099C38.7666 82.2098 38.7668 82.2097 38.7669 82.2095C38.7672 82.2092 38.7676 82.2088 38.7682 82.2083C38.7692 82.2072 38.7707 82.2057 38.7727 82.2037C38.7766 82.1997 38.7823 82.1939 38.7897 82.1863C38.8046 82.171 38.8264 82.1485 38.8547 82.1189C38.9114 82.0597 38.9942 81.9722 39.1001 81.8577C39.3117 81.6286 39.6152 81.2915 39.9847 80.8572C40.7237 79.9888 41.7275 78.7309 42.7893 77.1705C44.9107 74.0529 47.2746 69.7116 48.2077 64.8455L47.6184 64.7325C46.7067 69.487 44.3906 73.7507 42.2933 76.8329C41.2457 78.3724 40.2555 79.6132 39.5278 80.4684C39.164 80.8959 38.8659 81.2269 38.6594 81.4505C38.5561 81.5623 38.4757 81.6472 38.4214 81.7039C38.3943 81.7322 38.3736 81.7535 38.3599 81.7676C38.3531 81.7746 38.348 81.7798 38.3446 81.7832C38.343 81.7849 38.3417 81.7862 38.341 81.7869C38.3406 81.7873 38.3403 81.7876 38.3402 81.7878C38.3401 81.7878 38.34 81.7879 38.34 81.7879C38.34 81.7879 38.34 81.7879 38.5532 81.999ZM48.2077 64.8455C49.1415 59.9757 48.4496 54.8525 47.5324 50.9608C47.0731 49.0122 46.5559 47.3663 46.1533 46.2068C45.952 45.627 45.7792 45.1685 45.6564 44.8544C45.5951 44.6973 45.5462 44.5763 45.5126 44.4942C45.4957 44.4532 45.4827 44.4219 45.4738 44.4007C45.4694 44.3901 45.466 44.382 45.4636 44.3765C45.4625 44.3737 45.4616 44.3716 45.4609 44.3701C45.4606 44.3694 45.4604 44.3688 45.4602 44.3684C45.4601 44.3682 45.46 44.368 45.46 44.3679C45.4599 44.3678 45.4599 44.3677 45.1841 44.4857C44.9083 44.6038 44.9083 44.6038 44.9083 44.6038C44.9083 44.6039 44.9084 44.6039 44.9084 44.604C44.9085 44.6043 44.9087 44.6047 44.9089 44.6052C44.9094 44.6064 44.9102 44.6081 44.9112 44.6106C44.9132 44.6154 44.9163 44.6228 44.9205 44.6327C44.9288 44.6525 44.9412 44.6823 44.9574 44.7219C44.9899 44.801 45.0375 44.9189 45.0976 45.0727C45.2178 45.3804 45.3879 45.8316 45.5865 46.4036C45.9838 47.5478 46.4948 49.1737 46.9484 51.0984C47.8568 54.9532 48.5294 59.9816 47.6184 64.7325L48.2077 64.8455ZM45.1841 44.4857C45.2819 44.2021 45.2819 44.2021 45.2819 44.2021C45.2818 44.2021 45.2818 44.2021 45.2817 44.2021C45.2816 44.202 45.2814 44.202 45.2811 44.2019C45.2806 44.2017 45.2797 44.2014 45.2786 44.201C45.2763 44.2002 45.2728 44.199 45.2682 44.1974C45.2589 44.1941 45.245 44.1893 45.2267 44.1829C45.1901 44.17 45.1358 44.1509 45.0658 44.1259C44.9258 44.076 44.7228 44.0026 44.4718 43.9093C43.9696 43.7226 43.2756 43.4563 42.5087 43.1379C40.9673 42.4978 39.1589 41.6581 38.0122 40.8391L37.6635 41.3274C38.8707 42.1896 40.7354 43.0511 42.2786 43.692C43.0541 44.014 43.7553 44.2831 44.2627 44.4717C44.5165 44.566 44.7219 44.6403 44.8642 44.691C44.9353 44.7164 44.9906 44.7359 45.0282 44.7491C45.047 44.7557 45.0614 44.7607 45.0712 44.7641C45.0761 44.7658 45.0798 44.7671 45.0823 44.768C45.0836 44.7684 45.0846 44.7687 45.0852 44.769C45.0855 44.7691 45.0858 44.7692 45.086 44.7692C45.0861 44.7693 45.0862 44.7693 45.0862 44.7693C45.0863 44.7693 45.0863 44.7693 45.1841 44.4857Z" fill="url(#paint3_linear_321_922)" mask="url(#path-4-inside-1_321_922)"/>
<defs>
<linearGradient id="paint0_linear_321_922" x1="106.5" y1="2" x2="43.5" y2="100" gradientUnits="userSpaceOnUse">
<stop stop-color="#B6712C"/>
<stop offset="1" stop-color="#CD7F32"/>
</linearGradient>
<linearGradient id="paint1_linear_321_922" x1="2" y1="29" x2="24.5" y2="98" gradientUnits="userSpaceOnUse">
<stop stop-color="#DBDCDC" stop-opacity="0.5"/>
<stop offset="1" stop-color="#DBDCDC" stop-opacity="0"/>
</linearGradient>
<linearGradient id="paint2_linear_321_922" x1="87.5" y1="9" x2="13" y2="128.5" gradientUnits="userSpaceOnUse">
<stop stop-color="white"/>
<stop offset="1" stop-color="white" stop-opacity="0"/>
</linearGradient>
<linearGradient id="paint3_linear_321_922" x1="81.8013" y1="18.3" x2="38.5175" y2="75.6639" gradientUnits="userSpaceOnUse">
<stop stop-color="#B6712C"/>
<stop offset="1" stop-color="#CD7F32"/>
</linearGradient>
</defs>
</svg>
