<svg width="100" height="101" viewBox="0 0 100 101" fill="none" xmlns="http://www.w3.org/2000/svg">
<circle cx="50" cy="50.5" r="50" fill="url(#paint0_linear_321_1431)"/>
<g style="mix-blend-mode:multiply">
<path d="M10 51C10 72.263 17 85.5 17 85.5C17 85.5 2 72.263 2 51C2 29.737 15 18.5 15 18.5C15 18.5 10 29.737 10 51Z" fill="url(#paint1_linear_321_1431)"/>
</g>
<path d="M98 50.5C98 76.4574 78.0767 97.5 53.5 97.5C28.9234 97.5 58.5001 85.4574 58.5001 59.5C58.5001 33.5426 28.9234 3.5 53.5 3.5C78.0767 3.5 98 24.5426 98 50.5Z" fill="url(#paint2_linear_321_1431)" fill-opacity="0.4"/>
<g clip-path="url(#clip0_321_1431)">
<path d="M47.0363 75.3665L46.7192 75.5811L47.0976 75.639C48.34 75.8292 49.6123 75.9278 50.9077 75.9278C64.7017 75.9278 75.884 64.7455 75.884 50.9514C75.884 37.1573 64.7017 25.975 50.9077 25.975C49.9824 25.975 49.0686 26.0253 48.1693 26.1234L47.7943 26.1643L48.095 26.3921C54.8562 31.5144 59.334 40.3948 59.334 50.5C59.334 61.124 54.3847 70.3937 47.0363 75.3665ZM82.8063 50.5C82.8063 68.3664 68.3227 82.85 50.4563 82.85C32.5898 82.85 18.1063 68.3664 18.1063 50.5C18.1063 32.6336 32.5898 18.15 50.4563 18.15C68.3227 18.15 82.8063 32.6336 82.8063 50.5Z" fill="white" stroke="url(#paint3_linear_321_1431)" stroke-width="0.3"/>
</g>
<defs>
<linearGradient id="paint0_linear_321_1431" x1="106.5" y1="2.5" x2="43.5" y2="100.5" gradientUnits="userSpaceOnUse">
<stop stop-color="#B6712C"/>
<stop offset="1" stop-color="#CD7F32"/>
</linearGradient>
<linearGradient id="paint1_linear_321_1431" x1="2" y1="29.5" x2="24.5" y2="98.5" gradientUnits="userSpaceOnUse">
<stop stop-color="#DBDCDC" stop-opacity="0.5"/>
<stop offset="1" stop-color="#DBDCDC" stop-opacity="0"/>
</linearGradient>
<linearGradient id="paint2_linear_321_1431" x1="87.5" y1="9.5" x2="13" y2="129" gradientUnits="userSpaceOnUse">
<stop stop-color="white"/>
<stop offset="1" stop-color="white" stop-opacity="0"/>
</linearGradient>
<linearGradient id="paint3_linear_321_1431" x1="87.1813" y1="19.3" x2="46.2313" y2="83" gradientUnits="userSpaceOnUse">
<stop stop-color="#B6712C"/>
<stop offset="1" stop-color="#CD7F32"/>
</linearGradient>
<clipPath id="clip0_321_1431">
<rect width="65" height="65" fill="white" transform="translate(18 18)"/>
</clipPath>
</defs>
</svg>
