<svg width="100" height="101" viewBox="0 0 100 101" fill="none" xmlns="http://www.w3.org/2000/svg">
<mask id="path-1-inside-1_323_1936" fill="white">
<path d="M100 50.5C100 78.1142 77.6142 100.5 50 100.5C22.3858 100.5 0 78.1142 0 50.5C0 22.8858 22.3858 0.5 50 0.5C77.6142 0.5 100 22.8858 100 50.5Z"/>
<path d="M10 51C10 72.263 17 85.5 17 85.5C17 85.5 2 72.263 2 51C2 29.737 15 18.5 15 18.5C15 18.5 10 29.737 10 51Z"/>
<path fill-rule="evenodd" clip-rule="evenodd" d="M53.636 50.8579C54.0765 50.5893 54.4503 50.0264 54.7517 49.4008C58.7183 51.022 61.5058 54.8529 61.5058 59.3205C61.5058 65.2556 56.5864 70.067 50.518 70.067C48.027 70.067 45.7295 69.2561 43.8865 67.8897C43.282 67.6034 42.7846 67.3285 42.3775 67.1034C41.7462 66.7544 41.3322 66.5255 41.073 66.5613C40.3152 66.6658 40.5352 67.363 40.7351 67.9964C40.8709 68.4266 40.9974 68.8274 40.8015 68.9927C40.5966 69.1658 39.9329 68.533 39.1574 67.7936C38.1016 66.787 36.8387 65.5829 36.2432 65.9445C35.7723 66.2306 36.2295 67.0064 36.7891 67.956L36.8306 68.0264C37.067 68.4279 37.3409 68.8367 37.5909 69.2096C38.0991 69.9677 38.5084 70.5786 38.3036 70.6819C38.0561 70.8068 36.3313 69.6427 34.8778 68.0264C34.3168 67.4027 33.7734 66.7266 33.2684 66.0983C32.163 64.7229 31.2421 63.577 30.7251 63.7127C30.1033 63.876 30.5737 65.1587 31.265 66.3931C31.5882 66.9703 31.9684 67.5581 32.2976 68.0671C32.8096 68.8585 33.1982 69.4592 33.0573 69.5331C32.8671 69.6325 31.1937 68.0008 30.0572 65.9445C29.3821 64.7231 28.8153 63.3734 28.3563 62.2807C27.8587 61.0956 27.488 60.2129 27.2439 60.124C26.3957 59.8154 26.3957 61.5446 26.7359 64.0404C26.7803 64.366 26.8463 64.7075 26.9277 65.0552C30.2265 75.7286 40.36 83.5 52.3493 83.5C67.0146 83.5 78.903 71.8726 78.903 57.5295C78.903 43.8779 68.1337 32.6866 54.4508 31.6389C54.468 30.9958 54.8037 29.7205 54.8037 29.7205C54.8037 29.7205 57.2193 23.8761 57.347 22.6272C57.3553 22.5443 57.3654 22.4543 57.3762 22.3583C57.5266 21.009 57.8065 18.5 55.6481 18.5C54.4953 18.5 53.9593 19.3575 53.3463 20.3383C53.1109 20.7148 52.8641 21.1095 52.5668 21.4807C50.4254 24.1549 46.8245 27.4945 44.7827 29.2736C40.467 33.0341 36.2329 36.1247 33.7634 37.9271C32.6402 38.7469 31.8821 39.3004 31.6475 39.529C29.8795 41.2525 23.5405 52.6867 23.5405 52.6867C23.5405 52.6867 21.4905 56.3551 22.2191 57.0992C22.9478 57.8432 24.7049 57.6727 24.7049 57.6727C24.7049 57.6727 48.3107 52.2572 50.4241 51.8301C50.9931 51.7151 51.3948 51.6487 51.7031 51.5978C52.5404 51.4596 52.6907 51.4347 53.636 50.8579ZM36.9459 43.8988C35.6787 45.1032 33.5773 47.978 33.5773 47.978C33.5773 47.978 37.4829 48.2186 39.6338 46.174C41.7849 44.1293 41.2921 40.6448 41.2921 40.6448C41.2921 40.6448 38.2128 42.6943 36.9459 43.8988Z"/>
</mask>
<path d="M100 50.5C100 78.1142 77.6142 100.5 50 100.5C22.3858 100.5 0 78.1142 0 50.5C0 22.8858 22.3858 0.5 50 0.5C77.6142 0.5 100 22.8858 100 50.5Z" fill="url(#paint0_linear_323_1936)"/>
<path d="M10 51C10 72.263 17 85.5 17 85.5C17 85.5 2 72.263 2 51C2 29.737 15 18.5 15 18.5C15 18.5 10 29.737 10 51Z" fill="url(#paint1_linear_323_1936)"/>
<path fill-rule="evenodd" clip-rule="evenodd" d="M53.636 50.8579C54.0765 50.5893 54.4503 50.0264 54.7517 49.4008C58.7183 51.022 61.5058 54.8529 61.5058 59.3205C61.5058 65.2556 56.5864 70.067 50.518 70.067C48.027 70.067 45.7295 69.2561 43.8865 67.8897C43.282 67.6034 42.7846 67.3285 42.3775 67.1034C41.7462 66.7544 41.3322 66.5255 41.073 66.5613C40.3152 66.6658 40.5352 67.363 40.7351 67.9964C40.8709 68.4266 40.9974 68.8274 40.8015 68.9927C40.5966 69.1658 39.9329 68.533 39.1574 67.7936C38.1016 66.787 36.8387 65.5829 36.2432 65.9445C35.7723 66.2306 36.2295 67.0064 36.7891 67.956L36.8306 68.0264C37.067 68.4279 37.3409 68.8367 37.5909 69.2096C38.0991 69.9677 38.5084 70.5786 38.3036 70.6819C38.0561 70.8068 36.3313 69.6427 34.8778 68.0264C34.3168 67.4027 33.7734 66.7266 33.2684 66.0983C32.163 64.7229 31.2421 63.577 30.7251 63.7127C30.1033 63.876 30.5737 65.1587 31.265 66.3931C31.5882 66.9703 31.9684 67.5581 32.2976 68.0671C32.8096 68.8585 33.1982 69.4592 33.0573 69.5331C32.8671 69.6325 31.1937 68.0008 30.0572 65.9445C29.3821 64.7231 28.8153 63.3734 28.3563 62.2807C27.8587 61.0956 27.488 60.2129 27.2439 60.124C26.3957 59.8154 26.3957 61.5446 26.7359 64.0404C26.7803 64.366 26.8463 64.7075 26.9277 65.0552C30.2265 75.7286 40.36 83.5 52.3493 83.5C67.0146 83.5 78.903 71.8726 78.903 57.5295C78.903 43.8779 68.1337 32.6866 54.4508 31.6389C54.468 30.9958 54.8037 29.7205 54.8037 29.7205C54.8037 29.7205 57.2193 23.8761 57.347 22.6272C57.3553 22.5443 57.3654 22.4543 57.3762 22.3583C57.5266 21.009 57.8065 18.5 55.6481 18.5C54.4953 18.5 53.9593 19.3575 53.3463 20.3383C53.1109 20.7148 52.8641 21.1095 52.5668 21.4807C50.4254 24.1549 46.8245 27.4945 44.7827 29.2736C40.467 33.0341 36.2329 36.1247 33.7634 37.9271C32.6402 38.7469 31.8821 39.3004 31.6475 39.529C29.8795 41.2525 23.5405 52.6867 23.5405 52.6867C23.5405 52.6867 21.4905 56.3551 22.2191 57.0992C22.9478 57.8432 24.7049 57.6727 24.7049 57.6727C24.7049 57.6727 48.3107 52.2572 50.4241 51.8301C50.9931 51.7151 51.3948 51.6487 51.7031 51.5978C52.5404 51.4596 52.6907 51.4347 53.636 50.8579ZM36.9459 43.8988C35.6787 45.1032 33.5773 47.978 33.5773 47.978C33.5773 47.978 37.4829 48.2186 39.6338 46.174C41.7849 44.1293 41.2921 40.6448 41.2921 40.6448C41.2921 40.6448 38.2128 42.6943 36.9459 43.8988Z" fill="white"/>
<path d="M17 85.5L16.8015 85.7249L17.2652 85.3598L17 85.5ZM15 18.5L15.2741 18.622L14.8038 18.273L15 18.5ZM53.636 50.8579L53.4798 50.6018L53.4797 50.6018L53.636 50.8579ZM54.7517 49.4008L54.8652 49.1231L54.6039 49.0163L54.4814 49.2706L54.7517 49.4008ZM43.8865 67.8897L44.0652 67.6487L44.0415 67.6312L44.0149 67.6186L43.8865 67.8897ZM42.3775 67.1034L42.5227 66.8408L42.5227 66.8408L42.3775 67.1034ZM41.073 66.5613L41.1139 66.8585L41.114 66.8585L41.073 66.5613ZM40.7351 67.9964L41.0212 67.9061L41.0212 67.906L40.7351 67.9964ZM40.8015 68.9927L40.6081 68.7634L40.6079 68.7635L40.8015 68.9927ZM39.1574 67.7936L38.9504 68.0107L38.9504 68.0107L39.1574 67.7936ZM36.2432 65.9445L36.0874 65.6881L36.0874 65.6881L36.2432 65.9445ZM36.7891 67.956L37.0475 67.8037L37.0475 67.8037L36.7891 67.956ZM36.8306 68.0264L37.0891 67.8742L37.089 67.8741L36.8306 68.0264ZM37.5909 69.2096L37.3417 69.3767L37.3417 69.3767L37.5909 69.2096ZM38.3036 70.6819L38.4388 70.9498L38.4388 70.9498L38.3036 70.6819ZM34.8778 68.0264L35.1009 67.8258L35.1008 67.8258L34.8778 68.0264ZM33.2684 66.0983L33.0346 66.2862L33.0346 66.2862L33.2684 66.0983ZM30.7251 63.7127L30.649 63.4225L30.649 63.4225L30.7251 63.7127ZM31.265 66.3931L31.5267 66.2465L31.5267 66.2465L31.265 66.3931ZM32.2976 68.0671L32.0457 68.23L32.0457 68.23L32.2976 68.0671ZM33.0573 69.5331L33.1962 69.799L33.1966 69.7988L33.0573 69.5331ZM30.0572 65.9445L29.7946 66.0897L29.7946 66.0897L30.0572 65.9445ZM28.3563 62.2807L28.0797 62.3968L28.0797 62.3968L28.3563 62.2807ZM27.2439 60.124L27.3465 59.8421L27.3464 59.8421L27.2439 60.124ZM26.7359 64.0404L27.0331 63.9999L27.0331 63.9999L26.7359 64.0404ZM26.9277 65.0552L26.6356 65.1236L26.638 65.1338L26.6411 65.1438L26.9277 65.0552ZM54.4508 31.6389L54.1509 31.6308L54.1432 31.9162L54.4279 31.938L54.4508 31.6389ZM54.8037 29.7205L54.5265 29.6059L54.5187 29.6246L54.5136 29.6441L54.8037 29.7205ZM57.347 22.6272L57.6454 22.6578L57.6454 22.6574L57.347 22.6272ZM57.3762 22.3583L57.6743 22.3919L57.6743 22.3916L57.3762 22.3583ZM53.3463 20.3383L53.6007 20.4973L53.6007 20.4973L53.3463 20.3383ZM52.5668 21.4807L52.3326 21.2932L52.3326 21.2932L52.5668 21.4807ZM44.7827 29.2736L44.9798 29.4998L44.9798 29.4998L44.7827 29.2736ZM33.7634 37.9271L33.9402 38.1695L33.9403 38.1694L33.7634 37.9271ZM31.6475 39.529L31.4381 39.3142L31.438 39.3142L31.6475 39.529ZM23.5405 52.6867L23.8023 52.833L23.8028 52.8322L23.5405 52.6867ZM22.2191 57.0992L22.0048 57.3091L22.0048 57.3091L22.2191 57.0992ZM24.7049 57.6727L24.7339 57.9713L24.7531 57.9694L24.772 57.9651L24.7049 57.6727ZM50.4241 51.8301L50.4835 52.1242L50.4835 52.1242L50.4241 51.8301ZM51.7031 51.5978L51.752 51.8938L51.752 51.8938L51.7031 51.5978ZM36.9459 43.8988L37.1525 44.1162L37.1525 44.1162L36.9459 43.8988ZM33.5773 47.978L33.3351 47.801L33.0114 48.2437L33.5588 48.2774L33.5773 47.978ZM39.6338 46.174L39.8405 46.3914L39.8405 46.3914L39.6338 46.174ZM41.2921 40.6448L41.5891 40.6028L41.5224 40.1311L41.1259 40.3951L41.2921 40.6448ZM99.7 50.5C99.7 77.9486 77.4486 100.2 50 100.2V100.8C77.7799 100.8 100.3 78.2799 100.3 50.5H99.7ZM50 100.2C22.5514 100.2 0.3 77.9486 0.3 50.5H-0.3C-0.3 78.2799 22.2201 100.8 50 100.8V100.2ZM0.3 50.5C0.3 23.0514 22.5514 0.8 50 0.8V0.2C22.2201 0.2 -0.3 22.7201 -0.3 50.5H0.3ZM50 0.8C77.4486 0.8 99.7 23.0514 99.7 50.5H100.3C100.3 22.7201 77.7799 0.2 50 0.2V0.8ZM9.7 51C9.7 61.6644 11.4554 70.318 13.2121 76.308C14.0905 79.3031 14.9693 81.6326 15.6294 83.215C15.9594 84.0062 16.2348 84.6107 16.4282 85.0183C16.5249 85.2221 16.601 85.3766 16.6533 85.4807C16.6794 85.5328 16.6995 85.5722 16.7133 85.5988C16.7201 85.6122 16.7254 85.6223 16.729 85.6292C16.7308 85.6326 16.7322 85.6353 16.7332 85.6371C16.7336 85.6381 16.734 85.6388 16.7343 85.6393C16.7344 85.6396 16.7346 85.6398 16.7346 85.6399C16.7347 85.6401 16.7348 85.6402 17 85.5C17.2652 85.3598 17.2652 85.3598 17.2652 85.3598C17.2652 85.3597 17.2651 85.3596 17.2651 85.3595C17.2649 85.3592 17.2647 85.3587 17.2643 85.358C17.2636 85.3566 17.2624 85.3545 17.2609 85.3515C17.2577 85.3455 17.253 85.3363 17.2466 85.3239C17.2338 85.2992 17.2147 85.2617 17.1895 85.2116C17.1392 85.1114 17.065 84.9608 16.9703 84.7611C16.7808 84.3617 16.5093 83.766 16.1831 82.984C15.5307 81.42 14.6595 79.1112 13.7879 76.1392C12.0446 70.1949 10.3 61.5985 10.3 51H9.7ZM17 85.5C17.1985 85.2751 17.1985 85.2751 17.1985 85.2751C17.1984 85.275 17.1983 85.2749 17.1982 85.2748C17.1978 85.2745 17.1973 85.274 17.1965 85.2733C17.1949 85.2719 17.1924 85.2696 17.189 85.2666C17.1823 85.2606 17.172 85.2514 17.1583 85.239C17.1309 85.2142 17.0898 85.1766 17.0358 85.1264C16.9279 85.0261 16.7688 84.8755 16.5659 84.6758C16.1599 84.2764 15.5784 83.681 14.8799 82.8995C13.4828 81.3365 11.6185 79.0308 9.75401 76.064C6.0245 70.1295 2.3 61.5594 2.3 51H1.7C1.7 61.7036 5.4755 70.3835 9.24599 76.3832C11.1315 79.3835 13.0172 81.716 14.4326 83.2994C15.1403 84.0912 15.7308 84.696 16.1451 85.1036C16.3523 85.3074 16.5154 85.4619 16.6273 85.5659C16.6832 85.6179 16.7263 85.6572 16.7556 85.6838C16.7703 85.6971 16.7815 85.7071 16.7892 85.714C16.7931 85.7174 16.796 85.7201 16.7981 85.7219C16.7991 85.7228 16.7999 85.7235 16.8005 85.724C16.8007 85.7243 16.801 85.7245 16.8012 85.7246C16.8014 85.7248 16.8015 85.7249 17 85.5ZM2.3 51C2.3 40.4322 5.53001 32.3596 8.75788 26.9297C10.3721 24.2143 11.9856 22.1601 13.194 20.7861C13.7982 20.0992 14.3009 19.5825 14.6515 19.2385C14.8268 19.0665 14.9641 18.9376 15.057 18.8523C15.1034 18.8096 15.1388 18.7778 15.1623 18.7569C15.174 18.7464 15.1827 18.7387 15.1884 18.7337C15.1913 18.7312 15.1934 18.7294 15.1946 18.7283C15.1953 18.7277 15.1957 18.7273 15.196 18.7271C15.1961 18.727 15.1962 18.727 15.1962 18.7269C15.1962 18.7269 15.1962 18.727 15 18.5C14.8038 18.273 14.8037 18.2732 14.8035 18.2733C14.8033 18.2735 14.8031 18.2737 14.8028 18.2739C14.8023 18.2744 14.8015 18.275 14.8006 18.2758C14.7988 18.2774 14.7961 18.2797 14.7927 18.2827C14.7859 18.2887 14.776 18.2974 14.7632 18.3089C14.7374 18.3318 14.6998 18.3657 14.651 18.4105C14.5535 18.5001 14.4115 18.6335 14.2313 18.8102C13.871 19.1638 13.3581 19.6911 12.7435 20.3899C11.5144 21.7873 9.87795 23.8713 8.24212 26.6231C4.96999 32.1274 1.7 40.3048 1.7 51H2.3ZM15 18.5C14.7259 18.378 14.7258 18.3782 14.7258 18.3784C14.7257 18.3785 14.7256 18.3787 14.7255 18.3789C14.7253 18.3794 14.725 18.38 14.7247 18.3809C14.7239 18.3825 14.7229 18.3848 14.7216 18.3878C14.719 18.3938 14.7152 18.4025 14.7102 18.414C14.7003 18.4369 14.6859 18.4708 14.6671 18.5156C14.6296 18.6051 14.5751 18.7383 14.5058 18.9149C14.3674 19.268 14.1705 19.7944 13.9346 20.4919C13.4627 21.8868 12.8349 23.9657 12.2075 26.7095C10.9528 32.1974 9.7 40.3448 9.7 51H10.3C10.3 40.3922 11.5472 32.2896 12.7925 26.8433C13.4151 24.12 14.0373 22.0607 14.5029 20.6842C14.7358 19.9959 14.9294 19.4783 15.0645 19.1339C15.132 18.9616 15.1848 18.8326 15.2206 18.7472C15.2385 18.7045 15.2521 18.6727 15.2611 18.6518C15.2656 18.6414 15.269 18.6336 15.2711 18.6287C15.2722 18.6262 15.273 18.6244 15.2735 18.6233C15.2738 18.6227 15.2739 18.6223 15.274 18.6221C15.2741 18.622 15.2741 18.622 15.2741 18.6219C15.2741 18.6219 15.2741 18.622 15 18.5ZM53.7922 51.1141C54.3118 50.7972 54.7168 50.1645 55.0219 49.531L54.4814 49.2706C54.1838 49.8883 53.8413 50.3814 53.4798 50.6018L53.7922 51.1141ZM54.6382 49.6785C58.4989 51.2564 61.2058 54.982 61.2058 59.3205H61.8058C61.8058 54.7238 58.9377 50.7876 54.8652 49.1231L54.6382 49.6785ZM61.2058 59.3205C61.2058 65.0836 56.427 69.767 50.518 69.767V70.367C56.7458 70.367 61.8058 65.4275 61.8058 59.3205H61.2058ZM50.518 69.767C48.093 69.767 45.8578 68.9778 44.0652 67.6487L43.7078 68.1307C45.6012 69.5344 47.961 70.367 50.518 70.367V69.767ZM44.0149 67.6186C43.4197 67.3367 42.9297 67.0659 42.5227 66.8408L42.2324 67.3659C42.6395 67.591 43.1442 67.8701 43.7581 68.1609L44.0149 67.6186ZM42.5227 66.8408C42.2112 66.6687 41.9374 66.517 41.7085 66.4143C41.4917 66.317 41.2537 66.2335 41.0319 66.2641L41.114 66.8585C41.1515 66.8533 41.2501 66.8663 41.4629 66.9617C41.6637 67.0518 41.9125 67.1891 42.2324 67.3659L42.5227 66.8408ZM41.032 66.2641C40.7971 66.2965 40.5956 66.381 40.4517 66.5373C40.3075 66.6939 40.2552 66.8855 40.2454 67.0639C40.2269 67.3972 40.3551 67.789 40.4491 68.0867L41.0212 67.906C40.9153 67.5704 40.8334 67.2968 40.8445 67.097C40.8493 67.0089 40.8716 66.967 40.8931 66.9437C40.9148 66.9201 40.97 66.8783 41.1139 66.8585L41.032 66.2641ZM40.449 68.0866C40.5194 68.3098 40.5756 68.4908 40.5955 68.6349C40.6176 68.7949 40.5779 68.7889 40.6081 68.7634L40.995 69.222C41.2211 69.0312 41.216 68.7421 41.1899 68.5528C41.1615 68.3477 41.0866 68.1132 41.0212 67.9061L40.449 68.0866ZM40.6079 68.7635C40.7039 68.6824 40.7845 68.7512 40.6906 68.7089C40.6223 68.6781 40.5195 68.6111 40.38 68.5004C40.1046 68.2818 39.7561 67.9499 39.3644 67.5765L38.9504 68.0107C39.3342 68.3767 39.7053 68.7309 40.0069 68.9703C40.1559 69.0886 40.3059 69.1936 40.4439 69.2558C40.5563 69.3065 40.7967 69.3896 40.9952 69.2218L40.6079 68.7635ZM39.3644 67.5765C38.8408 67.0773 38.246 66.5094 37.7047 66.1138C37.4348 65.9165 37.1608 65.7487 36.9018 65.6567C36.6467 65.5659 36.3487 65.5294 36.0874 65.6881L36.3989 66.201C36.4354 66.1788 36.5186 66.1572 36.7008 66.222C36.8791 66.2854 37.0984 66.4138 37.3507 66.5982C37.8537 66.9659 38.4182 67.5033 38.9504 68.0107L39.3644 67.5765ZM36.0874 65.6881C35.8861 65.8104 35.7776 65.9972 35.7531 66.2119C35.7307 66.4073 35.7788 66.6122 35.8474 66.803C35.9846 67.1841 36.2566 67.6434 36.5306 68.1083L37.0475 67.8037C36.7619 67.3189 36.5256 66.9155 36.412 66.5998C36.3552 66.4422 36.3423 66.3402 36.3492 66.28C36.3538 66.2392 36.3648 66.2217 36.3989 66.2009L36.0874 65.6881ZM36.5306 68.1083L36.5721 68.1787L37.089 67.8741L37.0475 67.8037L36.5306 68.1083ZM36.5721 68.1787C36.8137 68.5889 37.0926 69.005 37.3417 69.3767L37.8401 69.0426C37.5892 68.6683 37.3203 68.2668 37.0891 67.8742L36.5721 68.1787ZM37.3417 69.3767C37.5992 69.7608 37.8188 70.089 37.9505 70.3336C38.0182 70.4592 38.0483 70.5373 38.0565 70.5764C38.0605 70.5958 38.0532 70.579 38.0626 70.5435C38.0754 70.4948 38.1119 70.4427 38.1685 70.4141L38.4388 70.9498C38.5466 70.8954 38.615 70.8015 38.6427 70.6967C38.6669 70.605 38.6572 70.5176 38.6437 70.4534C38.6169 70.3252 38.5513 70.1837 38.4787 70.049C38.33 69.7728 38.0908 69.4165 37.8401 69.0426L37.3417 69.3767ZM38.1685 70.4141C38.197 70.3997 38.2216 70.3945 38.2364 70.3925C38.2513 70.3905 38.261 70.3911 38.2635 70.3913C38.2672 70.3916 38.2588 70.3913 38.2344 70.3836C38.1861 70.3685 38.1113 70.3365 38.0094 70.2822C37.8079 70.1748 37.5367 69.9998 37.2216 69.7661C36.5929 69.2999 35.8134 68.6181 35.1009 67.8258L34.6547 68.227C35.3957 69.051 36.2053 69.7595 36.8642 70.2481C37.193 70.4919 37.4903 70.6855 37.7272 70.8117C37.8445 70.8743 37.9564 70.9254 38.0554 70.9563C38.1048 70.9717 38.1602 70.9851 38.2171 70.9895C38.2697 70.9936 38.3539 70.9926 38.4388 70.9498L38.1685 70.4141ZM35.1008 67.8258C34.5463 67.2093 34.0082 66.5398 33.5022 65.9103L33.0346 66.2862C33.5387 66.9134 34.0872 67.5961 34.6547 68.2271L35.1008 67.8258ZM33.5022 65.9104C32.9531 65.2271 32.4361 64.5832 31.9903 64.1287C31.7678 63.902 31.5502 63.7087 31.3438 63.5801C31.1465 63.4572 30.9005 63.3565 30.649 63.4225L30.8013 64.0029C30.8082 64.0011 30.8713 63.9927 31.0265 64.0894C31.1728 64.1805 31.3514 64.3342 31.5619 64.5489C31.9822 64.9773 32.4783 65.5941 33.0346 66.2862L33.5022 65.9104ZM30.649 63.4225C30.517 63.4572 30.4015 63.5259 30.3132 63.6294C30.227 63.7305 30.1795 63.8496 30.1558 63.9679C30.11 64.1962 30.145 64.4626 30.2119 64.7253C30.3479 65.2587 30.6533 65.9149 31.0032 66.5396L31.5267 66.2465C31.1853 65.6369 30.9099 65.0345 30.7933 64.5771C30.734 64.3445 30.7247 64.1824 30.7441 64.0857C30.753 64.0415 30.7653 64.024 30.7697 64.0188C30.772 64.0161 30.7778 64.009 30.8013 64.0029L30.649 63.4225ZM31.0032 66.5396C31.3319 67.1266 31.7174 67.7225 32.0457 68.23L32.5495 67.9041C32.2194 67.3938 31.8445 66.814 31.5267 66.2465L31.0032 66.5396ZM32.0457 68.23C32.3041 68.6294 32.5226 68.9675 32.66 69.2149C32.7302 69.3412 32.7687 69.4255 32.7836 69.4733C32.7918 69.4997 32.7846 69.4898 32.7869 69.4592C32.7899 69.4185 32.8148 69.3216 32.918 69.2674L33.1966 69.7988C33.335 69.7262 33.3785 69.5943 33.3853 69.5036C33.3913 69.4228 33.3729 69.3477 33.3565 69.295C33.3221 69.1848 33.2578 69.0555 33.1845 68.9235C33.0349 68.6542 32.8031 68.2961 32.5495 67.9041L32.0457 68.23ZM32.9183 69.2673C32.9701 69.2402 33.017 69.2368 33.0432 69.2375C33.0693 69.2382 33.0869 69.2432 33.0921 69.2448C33.1015 69.2477 33.0965 69.2474 33.073 69.2336C33.0281 69.207 32.9576 69.1558 32.8624 69.0749C32.6745 68.9153 32.4219 68.6669 32.1356 68.3471C31.5636 67.7082 30.8752 66.8044 30.3197 65.7994L29.7946 66.0897C30.3757 67.1409 31.0922 68.0811 31.6886 68.7473C31.9865 69.0801 32.2589 69.3495 32.4738 69.5321C32.58 69.6223 32.6803 69.6984 32.7677 69.7501C32.8104 69.7753 32.862 69.8019 32.9174 69.8188C32.959 69.8315 33.0755 69.8621 33.1962 69.799L32.9183 69.2673ZM30.3197 65.7994C29.6537 64.5944 29.0928 63.2595 28.6329 62.1645L28.0797 62.3968C28.5377 63.4872 29.1105 64.8519 29.7946 66.0897L30.3197 65.7994ZM28.6329 62.1645C28.3854 61.5751 28.1646 61.049 27.9746 60.6597C27.8798 60.4655 27.7879 60.295 27.6993 60.1639C27.6549 60.0982 27.6069 60.0356 27.5549 59.9829C27.5055 59.9328 27.4362 59.8747 27.3465 59.8421L27.1412 60.4059C27.1126 60.3955 27.1082 60.3845 27.1277 60.4042C27.1447 60.4214 27.1696 60.4516 27.2021 60.4997C27.2672 60.5961 27.3448 60.7371 27.4354 60.9228C27.6162 61.2934 27.8296 61.8011 28.0797 62.3968L28.6329 62.1645ZM27.3464 59.8421C27.1988 59.7884 27.04 59.7685 26.8834 59.8125C26.7245 59.8571 26.6035 59.9575 26.5157 60.0791C26.3516 60.3062 26.2781 60.6413 26.2455 61.0036C26.1787 61.7463 26.2684 62.8322 26.4386 64.0809L27.0331 63.9999C26.8632 62.7528 26.7829 61.7262 26.8431 61.0574C26.874 60.714 26.9382 60.5188 27.002 60.4305C27.0281 60.3943 27.0436 60.3907 27.0457 60.3901C27.0501 60.3889 27.0769 60.3825 27.1413 60.4059L27.3464 59.8421ZM26.4386 64.0809C26.4845 64.4178 26.5526 64.7688 26.6356 65.1236L27.2198 64.9869C27.1401 64.6462 27.076 64.3142 27.0331 63.9999L26.4386 64.0809ZM26.6411 65.1438C29.9787 75.9429 40.2285 83.8 52.3493 83.8V83.2C40.4915 83.2 30.4742 75.5142 27.2143 64.9667L26.6411 65.1438ZM52.3493 83.8C67.1739 83.8 79.203 72.0445 79.203 57.5295H78.603C78.603 71.7007 66.8552 83.2 52.3493 83.2V83.8ZM79.203 57.5295C79.203 43.7144 68.3061 32.399 54.4737 31.3398L54.4279 31.938C67.9612 32.9743 78.603 44.0415 78.603 57.5295H79.203ZM54.7507 31.6469C54.7585 31.3567 54.8407 30.9022 54.927 30.5018C54.9693 30.3055 55.0111 30.1288 55.0424 30.0012C55.058 29.9374 55.0709 29.886 55.08 29.8507C55.0845 29.833 55.088 29.8194 55.0903 29.8103C55.0915 29.8057 55.0924 29.8023 55.093 29.8C55.0933 29.7989 55.0935 29.7981 55.0937 29.7975C55.0937 29.7973 55.0938 29.7971 55.0938 29.797C55.0938 29.7969 55.0938 29.7969 55.0938 29.7969C55.0938 29.7968 55.0938 29.7968 55.0938 29.7968C55.0938 29.7968 55.0938 29.7969 54.8037 29.7205C54.5136 29.6441 54.5136 29.6442 54.5136 29.6442C54.5136 29.6442 54.5136 29.6442 54.5136 29.6443C54.5135 29.6443 54.5135 29.6444 54.5135 29.6445C54.5134 29.6447 54.5134 29.645 54.5133 29.6453C54.5131 29.646 54.5128 29.647 54.5125 29.6483C54.5118 29.6509 54.5108 29.6547 54.5095 29.6597C54.507 29.6695 54.5033 29.684 54.4986 29.7024C54.4891 29.7394 54.4757 29.7926 54.4596 29.8585C54.4274 29.99 54.3842 30.1723 54.3405 30.3753C54.2546 30.7733 54.1604 31.278 54.1509 31.6308L54.7507 31.6469ZM54.8037 29.7205C55.081 29.8351 55.081 29.8351 55.081 29.835C55.081 29.835 55.081 29.8349 55.0811 29.8348C55.0812 29.8346 55.0813 29.8343 55.0814 29.834C55.0817 29.8332 55.0822 29.8322 55.0828 29.8307C55.0839 29.8279 55.0857 29.8236 55.088 29.818C55.0926 29.8068 55.0994 29.7903 55.1083 29.7686C55.1261 29.7253 55.1522 29.6617 55.1855 29.5804C55.2519 29.4178 55.347 29.1841 55.4614 28.8998C55.6903 28.3314 55.9969 27.5602 56.3076 26.7496C56.6181 25.9394 56.9336 25.0875 57.1799 24.3584C57.4218 23.6423 57.6094 23.0097 57.6454 22.6578L57.0485 22.5967C57.0207 22.8692 56.8584 23.4355 56.6115 24.1664C56.3689 24.8844 56.0566 25.7278 55.7473 26.5348C55.4382 27.3414 55.1329 28.1093 54.9048 28.6758C54.7908 28.9589 54.6962 29.1916 54.63 29.3535C54.597 29.4344 54.571 29.4976 54.5534 29.5405C54.5446 29.562 54.5378 29.5783 54.5333 29.5894C54.531 29.5949 54.5293 29.599 54.5282 29.6018C54.5276 29.6032 54.5272 29.6042 54.5269 29.6049C54.5267 29.6052 54.5266 29.6055 54.5266 29.6057C54.5265 29.6058 54.5265 29.6058 54.5265 29.6059C54.5265 29.6059 54.5265 29.6059 54.8037 29.7205ZM57.6454 22.6574C57.6536 22.5764 57.6635 22.4879 57.6743 22.3919L57.078 22.3248C57.0673 22.4207 57.0571 22.5123 57.0485 22.5971L57.6454 22.6574ZM57.6743 22.3916C57.7482 21.7285 57.8648 20.711 57.6705 19.8566C57.5721 19.4239 57.3884 19.005 57.0544 18.6937C56.7146 18.3769 56.2499 18.2 55.6481 18.2V18.8C56.1255 18.8 56.4352 18.9367 56.6453 19.1325C56.8612 19.3338 57.0028 19.6265 57.0854 19.9897C57.2531 20.7271 57.1545 21.6388 57.078 22.3251L57.6743 22.3916ZM55.6481 18.2C54.3035 18.2 53.6849 19.2305 53.0919 20.1793L53.6007 20.4973C54.2337 19.4845 54.6871 18.8 55.6481 18.8V18.2ZM53.0919 20.1792C52.8553 20.5578 52.6173 20.9377 52.3326 21.2932L52.801 21.6683C53.1109 21.2812 53.3666 20.8717 53.6007 20.4973L53.0919 20.1792ZM52.3326 21.2932C50.209 23.9452 46.6253 27.2701 44.5856 29.0475L44.9798 29.4998C47.0236 27.7188 50.6417 24.3647 52.801 21.6683L52.3326 21.2932ZM44.5856 29.0475C40.2807 32.7986 36.0559 35.8824 33.5865 37.6848L33.9403 38.1694C36.4099 36.3669 40.6534 33.2696 44.9798 29.4998L44.5856 29.0475ZM33.5865 37.6848C33.0256 38.0942 32.5534 38.4389 32.1922 38.7097C31.8371 38.976 31.572 39.1836 31.4381 39.3142L31.8568 39.7439C31.9575 39.6458 32.1888 39.4623 32.5522 39.1897C32.9096 38.9218 33.3781 38.5798 33.9402 38.1695L33.5865 37.6848ZM31.438 39.3142C30.9667 39.7737 30.2205 40.8432 29.3824 42.1501C28.5364 43.4692 27.576 45.0639 26.6723 46.6022C25.7684 48.141 24.9199 49.6257 24.2975 50.7254C23.9862 51.2753 23.7315 51.7292 23.5545 52.0456C23.466 52.2038 23.3969 52.3276 23.35 52.4119C23.3265 52.4541 23.3085 52.4864 23.2965 52.5082C23.2904 52.519 23.2858 52.5273 23.2828 52.5328C23.2812 52.5356 23.2801 52.5377 23.2793 52.5391C23.2789 52.5398 23.2786 52.5403 23.2784 52.5407C23.2783 52.5409 23.2782 52.541 23.2782 52.5411C23.2781 52.5412 23.2781 52.5412 23.5405 52.6867C23.8028 52.8322 23.8029 52.8321 23.8029 52.832C23.803 52.832 23.803 52.8318 23.8031 52.8317C23.8033 52.8313 23.8036 52.8308 23.804 52.8301C23.8047 52.8288 23.8059 52.8267 23.8074 52.824C23.8104 52.8185 23.8149 52.8103 23.821 52.7995C23.833 52.7779 23.8508 52.7458 23.8742 52.7038C23.921 52.6198 23.9898 52.4963 24.0781 52.3385C24.2547 52.0228 24.509 51.5699 24.8197 51.0209C25.4411 49.9229 26.2878 48.4413 27.1897 46.9061C28.0917 45.3705 29.0476 43.7835 29.8874 42.474C30.7351 41.1522 31.4442 40.1461 31.8569 39.7438L31.438 39.3142ZM23.5405 52.6867C23.2786 52.5404 23.2786 52.5404 23.2785 52.5405C23.2785 52.5405 23.2785 52.5406 23.2784 52.5406C23.2783 52.5408 23.2782 52.541 23.2781 52.5413C23.2778 52.5418 23.2774 52.5425 23.2768 52.5435C23.2757 52.5454 23.2742 52.5482 23.2722 52.5519C23.2681 52.5592 23.2622 52.5699 23.2546 52.5838C23.2393 52.6116 23.2173 52.6522 23.1895 52.7039C23.134 52.8073 23.0557 52.9555 22.9641 53.1355C22.7813 53.495 22.5443 53.9841 22.3297 54.4984C22.1163 55.0098 21.9195 55.5595 21.824 56.037C21.7764 56.2753 21.7509 56.5098 21.7677 56.7198C21.7842 56.927 21.8449 57.1458 22.0048 57.3091L22.4335 56.8893C22.4112 56.8666 22.3766 56.808 22.3658 56.6721C22.3551 56.5391 22.3703 56.365 22.4124 56.1547C22.4963 55.7351 22.6754 55.2282 22.8834 54.7294C23.0903 54.2337 23.3202 53.7591 23.499 53.4075C23.5882 53.232 23.6644 53.0878 23.7181 52.9877C23.745 52.9376 23.7662 52.8987 23.7807 52.8723C23.7879 52.8592 23.7934 52.8492 23.797 52.8426C23.7989 52.8393 23.8003 52.8368 23.8011 52.8352C23.8016 52.8344 23.8019 52.8338 23.8021 52.8335C23.8022 52.8333 23.8023 52.8332 23.8023 52.8331C23.8023 52.8331 23.8023 52.833 23.8024 52.833C23.8024 52.833 23.8023 52.833 23.5405 52.6867ZM22.0048 57.3091C22.4495 57.7631 23.1679 57.9124 23.7069 57.9636C23.9871 57.9902 24.2419 57.9921 24.4264 57.9876C24.5189 57.9853 24.5944 57.9813 24.6474 57.9779C24.6739 57.9762 24.6948 57.9746 24.7095 57.9734C24.7168 57.9728 24.7225 57.9723 24.7266 57.9719C24.7287 57.9717 24.7303 57.9716 24.7315 57.9715C24.7321 57.9714 24.7326 57.9714 24.733 57.9713C24.7332 57.9713 24.7334 57.9713 24.7335 57.9713C24.7336 57.9713 24.7337 57.9713 24.7337 57.9713C24.7338 57.9713 24.7339 57.9713 24.7049 57.6727C24.6759 57.3741 24.676 57.3741 24.6761 57.374C24.6761 57.374 24.6761 57.374 24.6761 57.374C24.6762 57.374 24.6762 57.374 24.6762 57.374C24.6761 57.374 24.676 57.3741 24.6758 57.3741C24.6753 57.3741 24.6744 57.3742 24.6731 57.3743C24.6705 57.3746 24.6663 57.3749 24.6605 57.3754C24.6491 57.3763 24.6315 57.3777 24.6086 57.3792C24.5626 57.3821 24.4952 57.3857 24.4116 57.3878C24.2438 57.3919 24.0138 57.39 23.7636 57.3663C23.2419 57.3167 22.7174 57.1792 22.4335 56.8893L22.0048 57.3091ZM24.7049 57.6727C24.772 57.9651 24.7721 57.965 24.7723 57.965C24.7724 57.965 24.7727 57.9649 24.7731 57.9648C24.7738 57.9646 24.7749 57.9644 24.7763 57.9641C24.7792 57.9634 24.7834 57.9624 24.7891 57.9611C24.8005 57.9585 24.8174 57.9546 24.8398 57.9495C24.8845 57.9393 24.9509 57.924 25.0376 57.9041C25.211 57.8644 25.4656 57.806 25.7904 57.7315C26.44 57.5826 27.3703 57.3694 28.4933 57.1123C30.7393 56.5979 33.756 55.9076 36.8387 55.204C43.0078 53.796 49.4317 52.3368 50.4835 52.1242L50.3647 51.5361C49.3031 51.7506 42.8674 53.2126 36.7052 54.6191C33.6223 55.3227 30.6055 56.013 28.3594 56.5274C27.2363 56.7846 26.3059 56.9978 25.6563 57.1467C25.3315 57.2212 25.0769 57.2796 24.9035 57.3193C24.8168 57.3392 24.7504 57.3544 24.7056 57.3647C24.6833 57.3698 24.6663 57.3737 24.655 57.3763C24.6493 57.3776 24.645 57.3786 24.6421 57.3793C24.6407 57.3796 24.6396 57.3798 24.6389 57.38C24.6386 57.3801 24.6383 57.3801 24.6381 57.3802C24.6379 57.3802 24.6378 57.3803 24.7049 57.6727ZM50.4835 52.1242C51.0472 52.0103 51.4446 51.9446 51.752 51.8938L51.6543 51.3018C51.3449 51.3529 50.939 51.42 50.3646 51.5361L50.4835 52.1242ZM51.752 51.8938C52.1637 51.8258 52.4404 51.7812 52.7324 51.6739C53.0235 51.5671 53.3199 51.4022 53.7922 51.114L53.4797 50.6018C53.0068 50.8904 52.7554 51.0264 52.5257 51.1107C52.2969 51.1947 52.0798 51.2316 51.6543 51.3018L51.752 51.8938ZM36.7392 43.6813C36.088 44.3002 35.2338 45.336 34.5506 46.2046C34.207 46.6413 33.9034 47.0401 33.6857 47.3297C33.5767 47.4745 33.4893 47.5921 33.4289 47.6736C33.3988 47.7144 33.3754 47.7461 33.3595 47.7677C33.3516 47.7785 33.3455 47.7868 33.3414 47.7923C33.3394 47.7951 33.3378 47.7973 33.3367 47.7987C33.3362 47.7994 33.3358 47.8 33.3355 47.8004C33.3354 47.8006 33.3353 47.8007 33.3352 47.8008C33.3352 47.8008 33.3351 47.8009 33.3351 47.8009C33.3351 47.8009 33.3351 47.801 33.5773 47.978C33.8195 48.155 33.8195 48.155 33.8195 48.155C33.8195 48.155 33.8195 48.155 33.8195 48.155C33.8196 48.1549 33.8197 48.1548 33.8198 48.1546C33.82 48.1543 33.8204 48.1538 33.8209 48.1531C33.8219 48.1518 33.8233 48.1498 33.8253 48.1471C33.8292 48.1417 33.8351 48.1337 33.8429 48.1232C33.8584 48.1021 33.8814 48.0708 33.9112 48.0306C33.9707 47.9502 34.0573 47.8338 34.1652 47.6903C34.3811 47.4032 34.682 47.008 35.0222 46.5755C35.7065 45.7056 36.5366 44.7017 37.1525 44.1162L36.7392 43.6813ZM33.5773 47.978C33.5588 48.2774 33.5589 48.2774 33.559 48.2775C33.5591 48.2775 33.5592 48.2775 33.5593 48.2775C33.5596 48.2775 33.5599 48.2775 33.5602 48.2775C33.5609 48.2776 33.5618 48.2776 33.563 48.2777C33.5653 48.2778 33.5686 48.278 33.5728 48.2782C33.5811 48.2787 33.5932 48.2793 33.6087 48.2799C33.6397 48.2813 33.6847 48.2829 33.7423 48.2843C33.8575 48.287 34.0231 48.2884 34.2282 48.2836C34.6378 48.2739 35.2068 48.2393 35.8455 48.1391C37.1133 47.9401 38.6996 47.4759 39.8405 46.3914L39.4271 45.9566C38.4171 46.9167 36.9751 47.3545 35.7524 47.5464C35.1458 47.6416 34.604 47.6746 34.2141 47.6837C34.0194 47.6883 33.8631 47.6869 33.7563 47.6844C33.7029 47.6832 33.6619 47.6817 33.6347 47.6805C33.621 47.6799 33.6109 47.6794 33.6043 47.6791C33.6011 47.6789 33.5987 47.6787 33.5972 47.6787C33.5965 47.6786 33.596 47.6786 33.5958 47.6786C33.5957 47.6786 33.5956 47.6786 33.5956 47.6786C33.5956 47.6786 33.5956 47.6786 33.5956 47.6786C33.5957 47.6786 33.5957 47.6786 33.5773 47.978ZM39.8405 46.3914C40.9865 45.3022 41.4171 43.8416 41.5671 42.6811C41.6425 42.0979 41.6483 41.5816 41.6353 41.2107C41.6288 41.025 41.6175 40.8751 41.6078 40.7706C41.6029 40.7184 41.5984 40.6775 41.595 40.6491C41.5933 40.6349 41.5919 40.6239 41.5909 40.6161C41.5904 40.6122 41.59 40.6092 41.5897 40.6069C41.5896 40.6058 41.5894 40.6049 41.5893 40.6042C41.5893 40.6039 41.5892 40.6036 41.5892 40.6034C41.5892 40.6032 41.5892 40.6031 41.5892 40.603C41.5892 40.6029 41.5891 40.6028 41.2921 40.6448C40.995 40.6868 40.995 40.6867 40.995 40.6867C40.995 40.6867 40.995 40.6866 40.995 40.6866C40.995 40.6866 40.995 40.6866 40.995 40.6867C40.995 40.6868 40.9951 40.6872 40.9952 40.6877C40.9953 40.6889 40.9956 40.6908 40.996 40.6936C40.9967 40.6992 40.9978 40.7079 40.9992 40.7198C41.002 40.7434 41.006 40.7794 41.0104 40.8264C41.0192 40.9206 41.0296 41.0588 41.0357 41.2317C41.0478 41.578 41.0424 42.0606 40.9721 42.6042C40.8308 43.6971 40.4323 45.0011 39.4271 45.9566L39.8405 46.3914ZM41.2921 40.6448C41.1259 40.3951 41.1258 40.3951 41.1258 40.3951C41.1258 40.3951 41.1257 40.3952 41.1257 40.3952C41.1256 40.3953 41.1254 40.3954 41.1252 40.3955C41.1248 40.3958 41.1242 40.3962 41.1235 40.3967C41.1219 40.3977 41.1197 40.3992 41.1167 40.4012C41.1107 40.4052 41.1019 40.4111 41.0903 40.4188C41.0672 40.4343 41.0333 40.4571 40.9897 40.4864C40.9025 40.5452 40.7767 40.6303 40.6218 40.7362C40.3121 40.948 39.8859 41.2431 39.4197 41.576C38.4926 42.2382 37.3898 43.0628 36.7392 43.6813L37.1525 44.1162C37.7688 43.5303 38.8392 42.728 39.7685 42.0643C40.2305 41.7343 40.6532 41.4416 40.9605 41.2315C41.1141 41.1265 41.2388 41.0421 41.3249 40.984C41.368 40.955 41.4015 40.9326 41.4241 40.9174C41.4354 40.9098 41.444 40.9041 41.4498 40.9003C41.4526 40.8983 41.4548 40.8969 41.4562 40.8959C41.457 40.8955 41.4575 40.8951 41.4578 40.8949C41.458 40.8948 41.4581 40.8947 41.4582 40.8946C41.4583 40.8946 41.4583 40.8946 41.4583 40.8946C41.4583 40.8946 41.4583 40.8946 41.2921 40.6448Z" fill="url(#paint2_linear_323_1936)" mask="url(#path-1-inside-1_323_1936)"/>
<path d="M98 50.5C98 76.4574 78.0767 97.5 53.5 97.5C28.9234 97.5 58.5001 85.4574 58.5001 59.5C58.5001 33.5426 28.9234 3.5 53.5 3.5C78.0767 3.5 98 24.5426 98 50.5Z" fill="url(#paint3_linear_323_1936)" fill-opacity="0.4"/>
<defs>
<linearGradient id="paint0_linear_323_1936" x1="106.5" y1="2.5" x2="43.5" y2="100.5" gradientUnits="userSpaceOnUse">
<stop stop-color="#B6712C"/>
<stop offset="1" stop-color="#CD7F32"/>
</linearGradient>
<linearGradient id="paint1_linear_323_1936" x1="8.61904e-07" y1="16.9179" x2="8.27373" y2="130.25" gradientUnits="userSpaceOnUse">
<stop stop-color="#DBDCDC" stop-opacity="0.5"/>
<stop offset="1" stop-color="#DBDCDC" stop-opacity="0"/>
</linearGradient>
<linearGradient id="paint2_linear_323_1936" x1="106.5" y1="2.5" x2="43.5" y2="100.5" gradientUnits="userSpaceOnUse">
<stop stop-color="#B6712C"/>
<stop offset="1" stop-color="#CD7F32"/>
</linearGradient>
<linearGradient id="paint3_linear_323_1936" x1="87.5" y1="9.5" x2="13" y2="129" gradientUnits="userSpaceOnUse">
<stop stop-color="white"/>
<stop offset="1" stop-color="white" stop-opacity="0"/>
</linearGradient>
</defs>
</svg>
