<svg width="100" height="101" viewBox="0 0 100 101" fill="none" xmlns="http://www.w3.org/2000/svg">
<circle cx="50" cy="50.5" r="50" fill="url(#paint0_linear_323_1952)"/>
<g style="mix-blend-mode:multiply">
<path d="M10 51C10 72.263 17 85.5 17 85.5C17 85.5 2 72.263 2 51C2 29.737 15 18.5 15 18.5C15 18.5 10 29.737 10 51Z" fill="url(#paint1_linear_323_1952)"/>
</g>
<path d="M98 50.5C98 76.4574 78.0767 97.5 53.5 97.5C28.9234 97.5 58.5001 85.4574 58.5001 59.5C58.5001 33.5426 28.9234 3.5 53.5 3.5C78.0767 3.5 98 24.5426 98 50.5Z" fill="url(#paint2_linear_323_1952)" fill-opacity="0.4"/>
<g clip-path="url(#clip0_323_1952)">
<mask id="path-4-inside-1_323_1952" fill="white">
<path fill-rule="evenodd" clip-rule="evenodd" d="M31.0414 70.0402L41.467 67.0172L50.4718 83.4818C50.4836 83.5032 50.5142 83.5032 50.5259 83.4818L59.5307 67.0172L69.9565 70.0402C69.9798 70.0469 70.0015 70.0252 69.9945 70.0018L66.971 59.7825L82.9817 51.0259C83.0032 51.0142 83.0032 50.9836 82.9818 50.9719L66.8391 42.1431L69.9945 31.4778C70.0015 31.4544 69.9798 31.4327 69.9565 31.4394L59.2862 34.5334L50.5259 18.516C50.5142 18.4947 50.4836 18.4947 50.4719 18.516L41.7117 34.5334L31.0414 31.4394C31.018 31.4327 30.9963 31.4544 31.0033 31.4778L34.1587 42.1431L18.016 50.9719C17.9947 50.9836 17.9947 51.0142 18.016 51.0259L34.0267 59.7825L31.0033 70.0018C30.9963 70.0252 31.018 70.0469 31.0414 70.0402ZM39.1316 51.1112L46.5176 55.1507L50.5571 62.5366C50.5688 62.5581 50.5995 62.5581 50.6112 62.5366L54.6507 55.1507L62.0366 51.1112C62.0579 51.0995 62.0579 51.0688 62.0366 51.0571L54.6507 47.0176L50.6112 39.6317C50.5995 39.6103 50.5688 39.6103 50.5571 39.6317L46.5176 47.0176L39.1316 51.0571C39.1103 51.0688 39.1103 51.0995 39.1316 51.1112Z"/>
</mask>
<path fill-rule="evenodd" clip-rule="evenodd" d="M31.0414 70.0402L41.467 67.0172L50.4718 83.4818C50.4836 83.5032 50.5142 83.5032 50.5259 83.4818L59.5307 67.0172L69.9565 70.0402C69.9798 70.0469 70.0015 70.0252 69.9945 70.0018L66.971 59.7825L82.9817 51.0259C83.0032 51.0142 83.0032 50.9836 82.9818 50.9719L66.8391 42.1431L69.9945 31.4778C70.0015 31.4544 69.9798 31.4327 69.9565 31.4394L59.2862 34.5334L50.5259 18.516C50.5142 18.4947 50.4836 18.4947 50.4719 18.516L41.7117 34.5334L31.0414 31.4394C31.018 31.4327 30.9963 31.4544 31.0033 31.4778L34.1587 42.1431L18.016 50.9719C17.9947 50.9836 17.9947 51.0142 18.016 51.0259L34.0267 59.7825L31.0033 70.0018C30.9963 70.0252 31.018 70.0469 31.0414 70.0402ZM39.1316 51.1112L46.5176 55.1507L50.5571 62.5366C50.5688 62.5581 50.5995 62.5581 50.6112 62.5366L54.6507 55.1507L62.0366 51.1112C62.0579 51.0995 62.0579 51.0688 62.0366 51.0571L54.6507 47.0176L50.6112 39.6317C50.5995 39.6103 50.5688 39.6103 50.5571 39.6317L46.5176 47.0176L39.1316 51.0571C39.1103 51.0688 39.1103 51.0995 39.1316 51.1112Z" fill="white"/>
<path d="M31.0414 70.0402L31.1244 70.3285L31.1249 70.3283L31.0414 70.0402ZM41.467 67.0172L41.7302 66.8732L41.6147 66.662L41.3835 66.729L41.467 67.0172ZM50.4718 83.4818L50.2086 83.6258L50.2093 83.6271L50.4718 83.4818ZM50.5259 83.4818L50.789 83.6259L50.7891 83.6258L50.5259 83.4818ZM59.5307 67.0172L59.6142 66.729L59.383 66.662L59.2675 66.8732L59.5307 67.0172ZM69.9565 70.0402L69.8729 70.3283L69.8734 70.3285L69.9565 70.0402ZM69.9945 70.0018L69.7069 70.0869L69.7071 70.0878L69.9945 70.0018ZM66.971 59.7825L66.8271 59.5193L66.6147 59.6355L66.6834 59.8676L66.971 59.7825ZM82.9817 51.0259L82.8383 50.7624L82.8378 50.7627L82.9817 51.0259ZM82.9818 50.9719L83.1259 50.7088L83.1258 50.7087L82.9818 50.9719ZM66.8391 42.1431L66.5514 42.058L66.4828 42.2902L66.6952 42.4063L66.8391 42.1431ZM69.9945 31.4778L69.7071 31.3919L69.7069 31.3927L69.9945 31.4778ZM69.9565 31.4394L69.8734 31.1512L69.8729 31.1513L69.9565 31.4394ZM59.2862 34.5334L59.023 34.6774L59.1385 34.8886L59.3697 34.8215L59.2862 34.5334ZM50.5259 18.516L50.2627 18.66L50.2627 18.66L50.5259 18.516ZM50.4719 18.516L50.7352 18.66L50.7352 18.66L50.4719 18.516ZM41.7117 34.5334L41.6281 34.8215L41.8594 34.8886L41.9749 34.6774L41.7117 34.5334ZM31.0414 31.4394L31.1249 31.1513L31.1244 31.1512L31.0414 31.4394ZM31.0033 31.4778L31.291 31.3927L31.2907 31.3919L31.0033 31.4778ZM34.1587 42.1431L34.3027 42.4063L34.5151 42.2902L34.4464 42.058L34.1587 42.1431ZM18.016 50.9719L18.16 51.2352L18.16 51.2352L18.016 50.9719ZM18.016 51.0259L18.16 50.7627L18.16 50.7627L18.016 51.0259ZM34.0267 59.7825L34.3144 59.8676L34.383 59.6354L34.1706 59.5193L34.0267 59.7825ZM31.0033 70.0018L31.2907 70.0878L31.291 70.0869L31.0033 70.0018ZM39.1316 51.1112L38.9875 51.3743L38.9876 51.3744L39.1316 51.1112ZM46.5176 55.1507L46.7808 55.0068L46.7386 54.9297L46.6616 54.8875L46.5176 55.1507ZM50.5571 62.5366L50.8206 62.3932L50.8203 62.3927L50.5571 62.5366ZM50.6112 62.5366L50.348 62.3927L50.3477 62.3932L50.6112 62.5366ZM54.6507 55.1507L54.5068 54.8875L54.4297 54.9297L54.3875 55.0068L54.6507 55.1507ZM62.0366 51.1112L62.1806 51.3744L62.1807 51.3743L62.0366 51.1112ZM62.0366 51.0571L62.1807 50.794L62.1806 50.7939L62.0366 51.0571ZM54.6507 47.0176L54.3875 47.1616L54.4297 47.2387L54.5068 47.2808L54.6507 47.0176ZM50.6112 39.6317L50.3477 39.7752L50.348 39.7757L50.6112 39.6317ZM50.5571 39.6317L50.8203 39.7757L50.8206 39.7752L50.5571 39.6317ZM46.5176 47.0176L46.6616 47.2808L46.7386 47.2387L46.7808 47.1616L46.5176 47.0176ZM39.1316 51.0571L38.9876 50.7939L38.9875 50.794L39.1316 51.0571ZM31.1249 70.3283L41.5506 67.3053L41.3835 66.729L30.9578 69.752L31.1249 70.3283ZM41.2038 67.1611L50.2086 83.6258L50.735 83.3379L41.7302 66.8732L41.2038 67.1611ZM50.2093 83.6271C50.3347 83.8536 50.6629 83.8563 50.789 83.6259L50.2628 83.3378C50.3655 83.1501 50.6325 83.1527 50.7343 83.3366L50.2093 83.6271ZM50.7891 83.6258L59.7939 67.1611L59.2675 66.8732L50.2627 83.3379L50.7891 83.6258ZM59.4471 67.3053L69.8729 70.3283L70.04 69.752L59.6142 66.729L59.4471 67.3053ZM69.8734 70.3285C70.1225 70.4002 70.3576 70.169 70.282 69.9159L69.7071 70.0878C69.6454 69.8814 69.8372 69.6936 70.0395 69.7519L69.8734 70.3285ZM70.2822 69.9167L67.2587 59.6974L66.6834 59.8676L69.7069 70.0869L70.2822 69.9167ZM67.115 60.0457L83.1257 51.2891L82.8378 50.7627L66.8271 59.5193L67.115 60.0457ZM83.1252 51.2894C83.3549 51.1643 83.3556 50.8346 83.1259 50.7088L82.8378 51.2351C82.6507 51.1326 82.6515 50.8641 82.8383 50.7624L83.1252 51.2894ZM83.1258 50.7087L66.9831 41.8799L66.6952 42.4063L82.8379 51.2352L83.1258 50.7087ZM67.1268 42.2282L70.2822 31.5629L69.7069 31.3927L66.5514 42.058L67.1268 42.2282ZM70.282 31.5637C70.3576 31.3107 70.1225 31.0794 69.8734 31.1512L70.0395 31.7277C69.8372 31.786 69.6454 31.5982 69.7071 31.3919L70.282 31.5637ZM69.8729 31.1513L59.2026 34.2453L59.3697 34.8215L70.04 31.7276L69.8729 31.1513ZM59.5494 34.3895L50.7891 18.3721L50.2627 18.66L59.023 34.6774L59.5494 34.3895ZM50.7891 18.3721C50.6637 18.1426 50.3342 18.1426 50.2087 18.3721L50.7352 18.66C50.633 18.8467 50.3648 18.8467 50.2627 18.66L50.7891 18.3721ZM50.2087 18.3721L41.4485 34.3895L41.9749 34.6774L50.7352 18.66L50.2087 18.3721ZM41.7952 34.2453L31.1249 31.1513L30.9578 31.7276L41.6281 34.8215L41.7952 34.2453ZM31.1244 31.1512C30.8753 31.0794 30.6402 31.3107 30.7159 31.5637L31.2907 31.3919C31.3524 31.5982 31.1607 31.786 30.9583 31.7277L31.1244 31.1512ZM30.7156 31.5629L33.871 42.2282L34.4464 42.058L31.291 31.3927L30.7156 31.5629ZM34.0148 41.8799L17.8721 50.7087L18.16 51.2352L34.3027 42.4063L34.0148 41.8799ZM17.8721 50.7087C17.6426 50.8342 17.6426 51.1636 17.8721 51.2891L18.16 50.7627C18.3467 50.8648 18.3467 51.1331 18.16 51.2352L17.8721 50.7087ZM17.8721 51.2891L33.8827 60.0457L34.1706 59.5193L18.16 50.7627L17.8721 51.2891ZM33.739 59.6974L30.7156 69.9167L31.291 70.0869L34.3144 59.8676L33.739 59.6974ZM30.7159 69.9159C30.6402 70.1689 30.8753 70.4002 31.1244 70.3285L30.9583 69.7519C31.1607 69.6936 31.3524 69.8815 31.2907 70.0878L30.7159 69.9159ZM38.9876 51.3744L46.3737 55.4139L46.6616 54.8875L39.2756 50.848L38.9876 51.3744ZM46.2544 55.2947L50.2939 62.6806L50.8203 62.3927L46.7808 55.0068L46.2544 55.2947ZM50.2936 62.68C50.419 62.9103 50.7494 62.9103 50.8747 62.68L50.3477 62.3932C50.4497 62.2059 50.7187 62.2059 50.8206 62.3932L50.2936 62.68ZM50.8744 62.6806L54.9139 55.2947L54.3875 55.0068L50.348 62.3927L50.8744 62.6806ZM54.7947 55.4139L62.1806 51.3744L61.8927 50.848L54.5068 54.8875L54.7947 55.4139ZM62.1807 51.3743C62.4099 51.2488 62.4099 50.9195 62.1807 50.794L61.8925 51.3203C61.706 51.2181 61.706 50.9502 61.8925 50.8481L62.1807 51.3743ZM62.1806 50.7939L54.7947 46.7544L54.5068 47.2808L61.8927 51.3203L62.1806 50.7939ZM54.9139 46.8737L50.8744 39.4878L50.348 39.7757L54.3875 47.1616L54.9139 46.8737ZM50.8747 39.4883C50.7494 39.2581 50.419 39.2581 50.2936 39.4883L50.8206 39.7752C50.7187 39.9625 50.4497 39.9625 50.3477 39.7752L50.8747 39.4883ZM50.2939 39.4878L46.2544 46.8737L46.7808 47.1616L50.8203 39.7757L50.2939 39.4878ZM46.3737 46.7544L38.9876 50.7939L39.2756 51.3203L46.6616 47.2808L46.3737 46.7544ZM38.9875 50.794C38.7583 50.9195 38.7583 51.2488 38.9875 51.3743L39.2757 50.8481C39.4622 50.9502 39.4622 51.2181 39.2757 51.3203L38.9875 50.794Z" fill="url(#paint3_linear_323_1952)" mask="url(#path-4-inside-1_323_1952)"/>
</g>
<defs>
<linearGradient id="paint0_linear_323_1952" x1="106.5" y1="2.5" x2="43.5" y2="100.5" gradientUnits="userSpaceOnUse">
<stop stop-color="#B6712C"/>
<stop offset="1" stop-color="#CD7F32"/>
</linearGradient>
<linearGradient id="paint1_linear_323_1952" x1="2" y1="29.5" x2="24.5" y2="98.5" gradientUnits="userSpaceOnUse">
<stop stop-color="#DBDCDC" stop-opacity="0.5"/>
<stop offset="1" stop-color="#DBDCDC" stop-opacity="0"/>
</linearGradient>
<linearGradient id="paint2_linear_323_1952" x1="87.5" y1="9.5" x2="13" y2="129" gradientUnits="userSpaceOnUse">
<stop stop-color="white"/>
<stop offset="1" stop-color="white" stop-opacity="0"/>
</linearGradient>
<linearGradient id="paint3_linear_323_1952" x1="87.2227" y1="19.8" x2="46.274" y2="83.4978" gradientUnits="userSpaceOnUse">
<stop stop-color="#B6712C"/>
<stop offset="1" stop-color="#CD7F32"/>
</linearGradient>
<clipPath id="clip0_323_1952">
<rect width="65" height="65" fill="white" transform="translate(18 18.5)"/>
</clipPath>
</defs>
</svg>
