<svg width="100" height="100" viewBox="0 0 100 100" fill="none" xmlns="http://www.w3.org/2000/svg">
<circle cx="50" cy="50" r="50" fill="url(#paint0_linear_239_1802)"/>
<g style="mix-blend-mode:multiply">
<path d="M10 50.5C10 71.763 17 85 17 85C17 85 2 71.763 2 50.5C2 29.237 15 18 15 18C15 18 10 29.237 10 50.5Z" fill="url(#paint1_linear_239_1802)"/>
</g>
<path d="M98 50C98 75.9574 78.0767 97 53.5 97C28.9234 97 58.5001 84.9574 58.5001 59C58.5001 33.0426 28.9234 3 53.5 3C78.0767 3 98 24.0426 98 50Z" fill="url(#paint2_linear_239_1802)" fill-opacity="0.4"/>
<mask id="path-4-inside-1_239_1802" fill="white">
<path fill-rule="evenodd" clip-rule="evenodd" d="M38.8059 4.97648L40.3789 10.2794L41.262 13.1184C41.5626 14.0847 42.5698 14.6437 43.5487 14.3878L45.2644 13.9391L43.7161 17.9109H33.7864C31.6952 17.9109 30 19.6062 30 21.6973V82.0905C30 84.1817 31.6952 85.877 33.7864 85.877H43.5785L46.4488 94.5047C47.2881 97.0275 50.8236 97.1168 51.7893 94.6397L55.2053 85.877H65.2136C67.3048 85.877 69 84.1817 69 82.0905V21.6973C69 19.6062 67.3048 17.9109 65.2136 17.9109H55.1378L52.3618 9.56701C51.74 7.69799 49.6383 7.16462 48.1981 8.02102L45.1128 8.94039L40.049 4.20786C39.4851 3.68081 38.5864 4.23647 38.8059 4.97648ZM34.733 22.6438C34.733 22.2256 35.0721 21.8865 35.4903 21.8865H39.2767C39.6949 21.8865 40.034 22.2256 40.034 22.6438V22.8331C40.034 23.2513 39.6949 23.5904 39.2767 23.5904H35.4903C35.0721 23.5904 34.733 23.2513 34.733 22.8331V22.6438ZM35.4903 24.3477C35.0721 24.3477 34.733 24.6868 34.733 25.105V25.2943C34.733 25.7126 35.0721 26.0516 35.4903 26.0516H39.2767C39.6949 26.0516 40.034 25.7126 40.034 25.2943V25.105C40.034 24.6868 39.6949 24.3477 39.2767 24.3477H35.4903ZM34.733 27.5661C34.733 27.1479 35.0721 26.8088 35.4903 26.8088H39.2767C39.6949 26.8088 40.034 27.1479 40.034 27.5661V27.7554C40.034 28.1737 39.6949 28.5127 39.2767 28.5127H35.4903C35.0721 28.5127 34.733 28.1737 34.733 27.7554V27.5661ZM49.4999 24.6358C50.6501 24.6358 51.5825 23.7035 51.5825 22.5533C51.5825 21.4032 50.6501 20.4708 49.4999 20.4708C48.3498 20.4708 47.4174 21.4032 47.4174 22.5533C47.4174 23.7035 48.3498 24.6358 49.4999 24.6358ZM43.8203 21.4175H45.5243C45.5243 21.4175 45.4985 23.2404 46.1869 24.068C46.8952 24.9197 48.7426 25.2986 48.7426 25.2986L48.7426 27.0025C48.7426 27.0025 45.8267 26.6331 44.767 25.2986C43.7968 24.0769 43.8203 21.4175 43.8203 21.4175ZM50.3107 25.3426L50.3818 27.0451C50.3818 27.0451 52.7688 26.3629 53.949 25.3425C55.2381 24.2281 55.0848 21.4176 55.0848 21.4176L53.3809 21.4176C53.3809 21.4176 53.4821 23.2631 52.6236 24.1627C51.8871 24.9346 50.3107 25.3426 50.3107 25.3426Z"/>
</mask>
<path fill-rule="evenodd" clip-rule="evenodd" d="M38.8059 4.97648L40.3789 10.2794L41.262 13.1184C41.5626 14.0847 42.5698 14.6437 43.5487 14.3878L45.2644 13.9391L43.7161 17.9109H33.7864C31.6952 17.9109 30 19.6062 30 21.6973V82.0905C30 84.1817 31.6952 85.877 33.7864 85.877H43.5785L46.4488 94.5047C47.2881 97.0275 50.8236 97.1168 51.7893 94.6397L55.2053 85.877H65.2136C67.3048 85.877 69 84.1817 69 82.0905V21.6973C69 19.6062 67.3048 17.9109 65.2136 17.9109H55.1378L52.3618 9.56701C51.74 7.69799 49.6383 7.16462 48.1981 8.02102L45.1128 8.94039L40.049 4.20786C39.4851 3.68081 38.5864 4.23647 38.8059 4.97648ZM34.733 22.6438C34.733 22.2256 35.0721 21.8865 35.4903 21.8865H39.2767C39.6949 21.8865 40.034 22.2256 40.034 22.6438V22.8331C40.034 23.2513 39.6949 23.5904 39.2767 23.5904H35.4903C35.0721 23.5904 34.733 23.2513 34.733 22.8331V22.6438ZM35.4903 24.3477C35.0721 24.3477 34.733 24.6868 34.733 25.105V25.2943C34.733 25.7126 35.0721 26.0516 35.4903 26.0516H39.2767C39.6949 26.0516 40.034 25.7126 40.034 25.2943V25.105C40.034 24.6868 39.6949 24.3477 39.2767 24.3477H35.4903ZM34.733 27.5661C34.733 27.1479 35.0721 26.8088 35.4903 26.8088H39.2767C39.6949 26.8088 40.034 27.1479 40.034 27.5661V27.7554C40.034 28.1737 39.6949 28.5127 39.2767 28.5127H35.4903C35.0721 28.5127 34.733 28.1737 34.733 27.7554V27.5661ZM49.4999 24.6358C50.6501 24.6358 51.5825 23.7035 51.5825 22.5533C51.5825 21.4032 50.6501 20.4708 49.4999 20.4708C48.3498 20.4708 47.4174 21.4032 47.4174 22.5533C47.4174 23.7035 48.3498 24.6358 49.4999 24.6358ZM43.8203 21.4175H45.5243C45.5243 21.4175 45.4985 23.2404 46.1869 24.068C46.8952 24.9197 48.7426 25.2986 48.7426 25.2986L48.7426 27.0025C48.7426 27.0025 45.8267 26.6331 44.767 25.2986C43.7968 24.0769 43.8203 21.4175 43.8203 21.4175ZM50.3107 25.3426L50.3818 27.0451C50.3818 27.0451 52.7688 26.3629 53.949 25.3425C55.2381 24.2281 55.0848 21.4176 55.0848 21.4176L53.3809 21.4176C53.3809 21.4176 53.4821 23.2631 52.6236 24.1627C51.8871 24.9346 50.3107 25.3426 50.3107 25.3426Z" fill="white"/>
<path d="M40.3789 10.2794L40.0913 10.3647L40.0925 10.3685L40.3789 10.2794ZM38.8059 4.97648L38.5183 5.0618L38.8059 4.97648ZM41.262 13.1184L40.9755 13.2075L41.262 13.1184ZM43.5487 14.3878L43.4728 14.0975H43.4728L43.5487 14.3878ZM45.2644 13.9391L45.5439 14.0481L45.7575 13.5001L45.1885 13.6489L45.2644 13.9391ZM43.7161 17.9109V18.2109H43.9211L43.9956 18.0199L43.7161 17.9109ZM43.5785 85.877L43.8632 85.7822L43.7949 85.577H43.5785V85.877ZM46.4488 94.5047L46.1642 94.5994L46.4488 94.5047ZM51.7893 94.6397L52.0688 94.7487L51.7893 94.6397ZM55.2053 85.877V85.577H55.0002L54.9257 85.768L55.2053 85.877ZM55.1378 17.9109L54.8531 18.0056L54.9214 18.2109H55.1378V17.9109ZM52.3618 9.56701L52.6465 9.47231L52.3618 9.56701ZM48.1981 8.02102L48.2838 8.30853L48.3195 8.2979L48.3515 8.27888L48.1981 8.02102ZM45.1128 8.94039L44.908 9.15957L45.0336 9.27702L45.1985 9.2279L45.1128 8.94039ZM40.049 4.20786L40.2539 3.98868V3.98868L40.049 4.20786ZM45.5243 21.4175L45.8243 21.4218L45.8285 21.1175H45.5243V21.4175ZM43.8203 21.4175V21.1175H43.5229L43.5203 21.4149L43.8203 21.4175ZM46.1869 24.068L45.9562 24.2599L46.1869 24.068ZM48.7426 25.2986L49.0426 25.2986L49.0426 25.0539L48.8029 25.0047L48.7426 25.2986ZM48.7426 27.0025L48.7049 27.3001L49.0426 27.3429L49.0426 27.0025L48.7426 27.0025ZM44.767 25.2986L44.532 25.4852L44.767 25.2986ZM50.3818 27.0451L50.0821 27.0576L50.098 27.4382L50.4643 27.3335L50.3818 27.0451ZM50.3107 25.3426L50.2355 25.0521L50.0008 25.1128L50.0109 25.3551L50.3107 25.3426ZM53.949 25.3425L54.1452 25.5695L53.949 25.3425ZM55.0848 21.4176L55.3844 21.4012L55.3689 21.1176L55.0848 21.1176L55.0848 21.4176ZM53.3809 21.4176L53.3809 21.1176L53.064 21.1176L53.0813 21.434L53.3809 21.4176ZM52.6236 24.1627L52.8407 24.3698V24.3698L52.6236 24.1627ZM40.6666 10.1941L39.0935 4.89117L38.5183 5.0618L40.0913 10.3647L40.6666 10.1941ZM41.5485 13.0293L40.6654 10.1903L40.0925 10.3685L40.9755 13.2075L41.5485 13.0293ZM43.4728 14.0975C42.649 14.3129 41.8014 13.8424 41.5485 13.0293L40.9755 13.2075C41.3237 14.3269 42.4905 14.9745 43.6246 14.678L43.4728 14.0975ZM45.1885 13.6489L43.4728 14.0975L43.6246 14.678L45.3403 14.2294L45.1885 13.6489ZM43.9956 18.0199L45.5439 14.0481L44.9849 13.8302L43.4366 17.802L43.9956 18.0199ZM33.7864 18.2109H43.7161V17.6109H33.7864V18.2109ZM30.3 21.6973C30.3 19.7719 31.8609 18.2109 33.7864 18.2109V17.6109C31.5295 17.6109 29.7 19.4405 29.7 21.6973H30.3ZM30.3 82.0905V21.6973H29.7V82.0905H30.3ZM33.7864 85.577C31.8609 85.577 30.3 84.016 30.3 82.0905H29.7C29.7 84.3474 31.5295 86.177 33.7864 86.177V85.577ZM43.5785 85.577H33.7864V86.177H43.5785V85.577ZM46.7335 94.41L43.8632 85.7822L43.2938 85.9717L46.1642 94.5994L46.7335 94.41ZM51.5098 94.5307C50.6461 96.7462 47.4841 96.6663 46.7335 94.41L46.1642 94.5994C47.0921 97.3887 51.0011 97.4875 52.0688 94.7487L51.5098 94.5307ZM54.9257 85.768L51.5098 94.5307L52.0688 94.7487L55.4848 85.9859L54.9257 85.768ZM65.2136 85.577H55.2053V86.177H65.2136V85.577ZM68.7 82.0905C68.7 84.016 67.1391 85.577 65.2136 85.577V86.177C67.4705 86.177 69.3 84.3474 69.3 82.0905H68.7ZM68.7 21.6973V82.0905H69.3V21.6973H68.7ZM65.2136 18.2109C67.1391 18.2109 68.7 19.7719 68.7 21.6973H69.3C69.3 19.4405 67.4705 17.6109 65.2136 17.6109V18.2109ZM55.1378 18.2109H65.2136V17.6109H55.1378V18.2109ZM52.0772 9.66171L54.8531 18.0056L55.4224 17.8162L52.6465 9.47231L52.0772 9.66171ZM48.3515 8.27888C49.6471 7.5084 51.523 7.99596 52.0772 9.66171L52.6465 9.47231C51.9571 7.40002 49.6295 6.82083 48.0448 7.76317L48.3515 8.27888ZM45.1985 9.2279L48.2838 8.30853L48.1125 7.73351L45.0271 8.65289L45.1985 9.2279ZM39.8442 4.42704L44.908 9.15957L45.3176 8.72122L40.2539 3.98868L39.8442 4.42704ZM39.0935 4.89117C38.961 4.44432 39.5036 4.10878 39.8442 4.42704L40.2539 3.98868C39.4665 3.25284 38.2118 4.02863 38.5183 5.0618L39.0935 4.89117ZM35.4903 21.5865C34.9064 21.5865 34.433 22.0599 34.433 22.6438H35.033C35.033 22.3912 35.2377 22.1865 35.4903 22.1865V21.5865ZM39.2767 21.5865H35.4903V22.1865H39.2767V21.5865ZM40.334 22.6438C40.334 22.0599 39.8606 21.5865 39.2767 21.5865V22.1865C39.5292 22.1865 39.734 22.3912 39.734 22.6438H40.334ZM40.334 22.8331V22.6438H39.734V22.8331H40.334ZM39.2767 23.8904C39.8606 23.8904 40.334 23.417 40.334 22.8331H39.734C39.734 23.0857 39.5292 23.2904 39.2767 23.2904V23.8904ZM35.4903 23.8904H39.2767V23.2904H35.4903V23.8904ZM34.433 22.8331C34.433 23.417 34.9064 23.8904 35.4903 23.8904V23.2904C35.2377 23.2904 35.033 23.0857 35.033 22.8331H34.433ZM34.433 22.6438V22.8331H35.033V22.6438H34.433ZM35.033 25.105C35.033 24.8525 35.2377 24.6477 35.4903 24.6477V24.0477C34.9064 24.0477 34.433 24.5211 34.433 25.105H35.033ZM35.033 25.2943V25.105H34.433V25.2943H35.033ZM35.4903 25.7516C35.2377 25.7516 35.033 25.5469 35.033 25.2943H34.433C34.433 25.8783 34.9064 26.3516 35.4903 26.3516V25.7516ZM39.2767 25.7516H35.4903V26.3516H39.2767V25.7516ZM39.734 25.2943C39.734 25.5469 39.5292 25.7516 39.2767 25.7516V26.3516C39.8606 26.3516 40.334 25.8783 40.334 25.2943H39.734ZM39.734 25.105V25.2943H40.334V25.105H39.734ZM39.2767 24.6477C39.5292 24.6477 39.734 24.8525 39.734 25.105H40.334C40.334 24.5211 39.8606 24.0477 39.2767 24.0477V24.6477ZM35.4903 24.6477H39.2767V24.0477H35.4903V24.6477ZM35.4903 26.5088C34.9064 26.5088 34.433 26.9822 34.433 27.5661H35.033C35.033 27.3136 35.2377 27.1088 35.4903 27.1088V26.5088ZM39.2767 26.5088H35.4903V27.1088H39.2767V26.5088ZM40.334 27.5661C40.334 26.9822 39.8606 26.5088 39.2767 26.5088V27.1088C39.5292 27.1088 39.734 27.3136 39.734 27.5661H40.334ZM40.334 27.7554V27.5661H39.734V27.7554H40.334ZM39.2767 28.8127C39.8606 28.8127 40.334 28.3394 40.334 27.7554H39.734C39.734 28.008 39.5292 28.2127 39.2767 28.2127V28.8127ZM35.4903 28.8127H39.2767V28.2127H35.4903V28.8127ZM34.433 27.7554C34.433 28.3394 34.9064 28.8127 35.4903 28.8127V28.2127C35.2377 28.2127 35.033 28.008 35.033 27.7554H34.433ZM34.433 27.5661V27.7554H35.033V27.5661H34.433ZM51.2825 22.5533C51.2825 23.5378 50.4844 24.3358 49.4999 24.3358V24.9358C50.8158 24.9358 51.8825 23.8691 51.8825 22.5533H51.2825ZM49.4999 20.7708C50.4844 20.7708 51.2825 21.5689 51.2825 22.5533H51.8825C51.8825 21.2375 50.8158 20.1708 49.4999 20.1708V20.7708ZM47.7174 22.5533C47.7174 21.5689 48.5155 20.7708 49.4999 20.7708V20.1708C48.1841 20.1708 47.1174 21.2375 47.1174 22.5533H47.7174ZM49.4999 24.3358C48.5155 24.3358 47.7174 23.5378 47.7174 22.5533H47.1174C47.1174 23.8691 48.1841 24.9358 49.4999 24.9358V24.3358ZM45.5243 21.1175H43.8203V21.7175H45.5243V21.1175ZM46.4175 23.8762C46.1308 23.5314 45.9731 22.9427 45.8945 22.3901C45.8563 22.1224 45.8387 21.8786 45.8307 21.7017C45.8267 21.6134 45.8251 21.5423 45.8245 21.4937C45.8242 21.4695 45.8241 21.4509 45.8242 21.4387C45.8242 21.4325 45.8242 21.428 45.8242 21.4252C45.8242 21.4238 45.8242 21.4228 45.8242 21.4222C45.8243 21.4219 45.8243 21.4217 45.8243 21.4216C45.8243 21.4216 45.8243 21.4216 45.8243 21.4216C45.8243 21.4216 45.8243 21.4217 45.8243 21.4217C45.8243 21.4217 45.8243 21.4218 45.5243 21.4175C45.2243 21.4133 45.2243 21.4134 45.2243 21.4134C45.2243 21.4135 45.2243 21.4135 45.2243 21.4136C45.2243 21.4137 45.2243 21.4139 45.2243 21.4141C45.2243 21.4144 45.2243 21.4149 45.2243 21.4155C45.2243 21.4167 45.2243 21.4183 45.2242 21.4204C45.2242 21.4245 45.2242 21.4303 45.2242 21.4377C45.2241 21.4526 45.2242 21.474 45.2245 21.5012C45.2252 21.5556 45.227 21.6333 45.2313 21.7289C45.24 21.9196 45.259 22.1832 45.3004 22.4747C45.381 23.0405 45.5546 23.777 45.9562 24.2599L46.4175 23.8762ZM48.7426 25.2986C48.8029 25.0047 48.8029 25.0047 48.803 25.0047C48.803 25.0047 48.803 25.0047 48.803 25.0047C48.803 25.0047 48.803 25.0047 48.803 25.0047C48.8029 25.0047 48.8027 25.0047 48.8024 25.0046C48.8018 25.0045 48.8008 25.0043 48.7993 25.0039C48.7964 25.0033 48.7917 25.0023 48.7855 25.001C48.773 24.9983 48.7542 24.9941 48.7296 24.9884C48.6804 24.977 48.6085 24.9596 48.5197 24.9361C48.3418 24.8889 48.0979 24.8176 47.8334 24.7209C47.2887 24.5218 46.7169 24.2362 46.4175 23.8762L45.9562 24.2599C46.3652 24.7516 47.0713 25.0812 47.6274 25.2845C47.9133 25.3889 48.1754 25.4656 48.3661 25.5161C48.4615 25.5414 48.5395 25.5602 48.5941 25.5729C48.6215 25.5792 48.643 25.584 48.6579 25.5873C48.6654 25.5889 48.6712 25.5901 48.6753 25.591C48.6774 25.5914 48.679 25.5918 48.6802 25.592C48.6807 25.5921 48.6812 25.5922 48.6816 25.5923C48.6818 25.5923 48.6819 25.5924 48.6821 25.5924C48.6821 25.5924 48.6822 25.5924 48.6822 25.5924C48.6823 25.5925 48.6823 25.5925 48.7426 25.2986ZM49.0426 27.0025L49.0426 25.2986L48.4426 25.2986L48.4426 27.0025L49.0426 27.0025ZM44.532 25.4852C45.1238 26.2304 46.1983 26.6773 47.0658 26.9383C47.5089 27.0716 47.9169 27.1617 48.2141 27.2186C48.3629 27.2471 48.4844 27.2673 48.5692 27.2805C48.6117 27.2871 48.645 27.2919 48.668 27.2951C48.6795 27.2967 48.6884 27.2979 48.6946 27.2988C48.6977 27.2992 48.7001 27.2995 48.7019 27.2997C48.7027 27.2998 48.7034 27.2999 48.7039 27.3C48.7042 27.3 48.7044 27.3001 48.7046 27.3001C48.7046 27.3001 48.7047 27.3001 48.7048 27.3001C48.7049 27.3001 48.7049 27.3001 48.7426 27.0025C48.7803 26.7049 48.7804 26.7049 48.7804 26.7049C48.7804 26.7049 48.7804 26.7049 48.7804 26.7049C48.7804 26.7049 48.7804 26.7049 48.7803 26.7049C48.7801 26.7048 48.7797 26.7048 48.7792 26.7047C48.7781 26.7046 48.7763 26.7044 48.7739 26.704C48.769 26.7034 48.7614 26.7024 48.7513 26.7009C48.7311 26.6981 48.7007 26.6937 48.6613 26.6876C48.5826 26.6753 48.468 26.6563 48.3268 26.6293C48.0441 26.5752 47.657 26.4896 47.2386 26.3637C46.3832 26.1063 45.4698 25.7013 45.0019 25.112L44.532 25.4852ZM43.8203 21.4175C43.5203 21.4149 43.5203 21.4149 43.5203 21.415C43.5203 21.4151 43.5203 21.4151 43.5203 21.4152C43.5203 21.4154 43.5203 21.4156 43.5203 21.4158C43.5203 21.4163 43.5203 21.4169 43.5203 21.4177C43.5203 21.4193 43.5202 21.4215 43.5202 21.4243C43.5202 21.43 43.5202 21.4382 43.5202 21.4487C43.5203 21.4697 43.5206 21.5002 43.5212 21.5392C43.5225 21.6171 43.5255 21.7289 43.5321 21.8666C43.5454 22.1416 43.5734 22.5217 43.6328 22.9418C43.749 23.7654 43.9932 24.8066 44.532 25.4852L45.0019 25.112C44.5706 24.5688 44.3414 23.6696 44.2269 22.858C44.1708 22.4606 44.1441 22.0995 44.1314 21.8377C44.1251 21.707 44.1223 21.6015 44.1211 21.5292C44.1205 21.493 44.1203 21.4652 44.1202 21.4467C44.1202 21.4375 44.1202 21.4305 44.1202 21.4261C44.1202 21.4238 44.1202 21.4222 44.1203 21.4212C44.1203 21.4207 44.1203 21.4204 44.1203 21.4202C44.1203 21.4201 44.1203 21.4201 44.1203 21.4201C44.1203 21.4201 44.1203 21.4201 44.1203 21.4201C44.1203 21.4201 44.1203 21.4202 43.8203 21.4175ZM50.6816 27.0326L50.6104 25.33L50.0109 25.3551L50.0821 27.0576L50.6816 27.0326ZM53.7528 25.1156C53.2026 25.5913 52.3502 26.002 51.6113 26.2979C51.2463 26.4441 50.9171 26.5592 50.6793 26.6376C50.5604 26.6768 50.4647 26.7068 50.399 26.7269C50.3662 26.7369 50.3409 26.7444 50.324 26.7494C50.3155 26.7519 50.3092 26.7538 50.305 26.755C50.303 26.7556 50.3015 26.756 50.3005 26.7563C50.3 26.7564 50.2997 26.7565 50.2995 26.7566C50.2994 26.7566 50.2994 26.7566 50.2993 26.7566C50.2993 26.7566 50.2993 26.7566 50.2993 26.7566C50.2993 26.7566 50.2994 26.7566 50.3818 27.0451C50.4643 27.3335 50.4643 27.3335 50.4644 27.3335C50.4644 27.3335 50.4645 27.3335 50.4645 27.3335C50.4646 27.3334 50.4648 27.3334 50.465 27.3333C50.4654 27.3332 50.4659 27.333 50.4666 27.3329C50.4679 27.3325 50.4699 27.3319 50.4724 27.3312C50.4773 27.3297 50.4845 27.3276 50.4938 27.3249C50.5125 27.3194 50.5396 27.3113 50.5744 27.3007C50.6438 27.2794 50.7438 27.2481 50.8672 27.2074C51.1138 27.1261 51.4552 27.0068 51.8344 26.8549C52.584 26.5547 53.5153 26.1141 54.1452 25.5695L53.7528 25.1156ZM55.0848 21.4176C54.7852 21.4339 54.7852 21.4339 54.7852 21.4338C54.7852 21.4338 54.7852 21.4338 54.7852 21.4338C54.7852 21.4338 54.7852 21.4338 54.7852 21.4339C54.7853 21.434 54.7853 21.4343 54.7853 21.4348C54.7853 21.4358 54.7854 21.4374 54.7855 21.4397C54.7857 21.4443 54.7861 21.4514 54.7864 21.461C54.7872 21.4802 54.7881 21.5092 54.7889 21.5469C54.7905 21.6222 54.7915 21.7322 54.7887 21.868C54.7831 22.1401 54.7626 22.5133 54.7035 22.9188C54.5822 23.75 54.3097 24.6341 53.7528 25.1156L54.1452 25.5695C54.8774 24.9365 55.1728 23.8581 55.2972 23.0054C55.3608 22.569 55.3826 22.1699 55.3886 21.8803C55.3915 21.7352 55.3906 21.6169 55.3888 21.5342C55.3879 21.4928 55.3869 21.4603 55.386 21.4378C55.3855 21.4265 55.3852 21.4178 55.3849 21.4116C55.3847 21.4086 55.3846 21.4062 55.3845 21.4044C55.3845 21.4035 55.3844 21.4028 55.3844 21.4023C55.3844 21.4021 55.3844 21.4018 55.3844 21.4016C55.3844 21.4016 55.3844 21.4015 55.3844 21.4014C55.3844 21.4013 55.3844 21.4012 55.0848 21.4176ZM53.3809 21.7176L55.0848 21.7176L55.0848 21.1176L53.3809 21.1176L53.3809 21.7176ZM52.8407 24.3698C53.3368 23.8499 53.5369 23.0849 53.6212 22.4952C53.6643 22.1935 53.6791 21.9222 53.6832 21.7263C53.6853 21.6281 53.6847 21.5483 53.6835 21.4924C53.6829 21.4644 53.6822 21.4424 53.6816 21.4269C53.6813 21.4192 53.681 21.4132 53.6808 21.4088C53.6807 21.4067 53.6806 21.405 53.6806 21.4037C53.6805 21.403 53.6805 21.4025 53.6805 21.4021C53.6805 21.4019 53.6805 21.4017 53.6805 21.4015C53.6805 21.4015 53.6805 21.4014 53.6805 21.4013C53.6804 21.4013 53.6804 21.4012 53.3809 21.4176C53.0813 21.434 53.0813 21.434 53.0813 21.4339C53.0813 21.4339 53.0813 21.4338 53.0813 21.4338C53.0813 21.4338 53.0813 21.4338 53.0813 21.4338C53.0813 21.4338 53.0813 21.434 53.0814 21.4342C53.0814 21.4347 53.0814 21.4356 53.0815 21.437C53.0816 21.4397 53.0818 21.4441 53.082 21.4501C53.0825 21.4622 53.0831 21.4807 53.0836 21.5049C53.0846 21.5534 53.0852 21.6248 53.0834 21.7137C53.0796 21.892 53.0661 22.1383 53.0272 22.4103C52.9475 22.9683 52.769 23.5758 52.4066 23.9556L52.8407 24.3698ZM50.3107 25.3426C50.3858 25.633 50.3859 25.633 50.386 25.633C50.386 25.6329 50.3861 25.6329 50.3861 25.6329C50.3862 25.6329 50.3864 25.6328 50.3865 25.6328C50.3868 25.6327 50.3873 25.6326 50.3878 25.6325C50.3888 25.6322 50.3902 25.6318 50.392 25.6314C50.3955 25.6304 50.4006 25.6291 50.407 25.6273C50.4199 25.6239 50.4384 25.6188 50.4619 25.6121C50.5089 25.5987 50.5762 25.5789 50.6588 25.5528C50.824 25.5007 51.052 25.4229 51.3043 25.3199C51.799 25.1179 52.4268 24.8036 52.8407 24.3698L52.4066 23.9556C52.084 24.2937 51.5552 24.5694 51.0776 24.7644C50.8438 24.8598 50.6317 24.9322 50.4782 24.9807C50.4016 25.0049 50.3399 25.023 50.2978 25.0349C50.2768 25.0409 50.2607 25.0453 50.2501 25.0482C50.2448 25.0496 50.2409 25.0507 50.2385 25.0513C50.2372 25.0517 50.2364 25.0519 50.2359 25.052C50.2356 25.0521 50.2355 25.0521 50.2354 25.0521C50.2354 25.0522 50.2354 25.0522 50.2354 25.0521C50.2354 25.0521 50.2354 25.0521 50.2355 25.0521C50.2355 25.0521 50.2355 25.0521 50.3107 25.3426Z" fill="#B6712C" mask="url(#path-4-inside-1_239_1802)"/>
<defs>
<linearGradient id="paint0_linear_239_1802" x1="106.5" y1="2" x2="43.5" y2="100" gradientUnits="userSpaceOnUse">
<stop stop-color="#B6712C"/>
<stop offset="1" stop-color="#CD7F32"/>
</linearGradient>
<linearGradient id="paint1_linear_239_1802" x1="2" y1="29" x2="24.5" y2="98" gradientUnits="userSpaceOnUse">
<stop stop-color="#DBDCDC" stop-opacity="0.5"/>
<stop offset="1" stop-color="#DBDCDC" stop-opacity="0"/>
</linearGradient>
<linearGradient id="paint2_linear_239_1802" x1="87.5" y1="9" x2="13" y2="128.5" gradientUnits="userSpaceOnUse">
<stop stop-color="white"/>
<stop offset="1" stop-color="white" stop-opacity="0"/>
</linearGradient>
</defs>
</svg>
