<svg width="100" height="101" viewBox="0 0 100 101" fill="none" xmlns="http://www.w3.org/2000/svg">
<circle cx="50" cy="50.5" r="50" fill="url(#paint0_linear_323_1987)"/>
<g style="mix-blend-mode:multiply">
<path d="M10 51C10 72.263 17 85.5 17 85.5C17 85.5 2 72.263 2 51C2 29.737 15 18.5 15 18.5C15 18.5 10 29.737 10 51Z" fill="url(#paint1_linear_323_1987)"/>
</g>
<path d="M98 50.5C98 76.4574 78.0767 97.5 53.5 97.5C28.9234 97.5 58.5001 85.4574 58.5001 59.5C58.5001 33.5426 28.9234 3.5 53.5 3.5C78.0767 3.5 98 24.5426 98 50.5Z" fill="url(#paint2_linear_323_1987)" fill-opacity="0.4"/>
<g clip-path="url(#clip0_323_1987)">
<path d="M38.4654 42.0432L38.4564 41.7966L38.2417 41.9181C36.678 42.803 35.6234 44.4599 35.6234 46.3599C35.6234 49.1931 37.9671 51.4848 40.8516 51.4848C43.736 51.4848 46.0797 49.1931 46.0797 46.3599V46.3597V46.2097H45.9297H42.79C40.4538 46.2097 38.55 44.3586 38.4654 42.0432ZM61.7427 41.9181L61.5279 41.7966L61.5189 42.0432C61.4344 44.3586 59.5305 46.2097 57.1944 46.2097H54.0547H53.9047V46.3597V46.3599C53.9047 49.1931 56.2484 51.4848 59.1328 51.4848C62.0173 51.4848 64.3609 49.1931 64.3609 46.3599C64.3609 44.4599 63.3064 42.803 61.7427 41.9181ZM64.8319 83.1251C58.9682 83.4253 52.2685 83.4243 50.0026 83.1262C32.2652 80.7927 18.15 67.8319 18.15 50.3398C18.15 32.8409 32.6307 18.65 50.5 18.65C68.3693 18.65 82.85 32.8409 82.85 50.3398C82.85 58.4789 79.7178 65.9014 74.569 71.5141C74.2007 71.9156 74.0334 72.3067 74.0493 72.6918C74.065 73.0742 74.2604 73.4185 74.5487 73.7305C75.116 74.3445 76.1037 74.8949 77.0683 75.4324L77.0874 75.4431C78.0548 75.9822 78.9998 76.5104 79.5671 77.0907C79.8487 77.3788 80.0235 77.6664 80.0702 77.9605C80.116 78.2494 80.0419 78.5686 79.7767 78.9316C79.4873 79.3275 78.8586 79.7714 77.9418 80.2205C77.0311 80.6666 75.8561 81.1084 74.4972 81.5094C71.7797 82.3111 68.3391 82.9456 64.8319 83.1251Z" fill="white" stroke="url(#paint3_linear_323_1987)" stroke-width="0.3"/>
</g>
<defs>
<linearGradient id="paint0_linear_323_1987" x1="106.5" y1="2.5" x2="43.5" y2="100.5" gradientUnits="userSpaceOnUse">
<stop stop-color="#B6712C"/>
<stop offset="1" stop-color="#CD7F32"/>
</linearGradient>
<linearGradient id="paint1_linear_323_1987" x1="2" y1="29.5" x2="24.5" y2="98.5" gradientUnits="userSpaceOnUse">
<stop stop-color="#DBDCDC" stop-opacity="0.5"/>
<stop offset="1" stop-color="#DBDCDC" stop-opacity="0"/>
</linearGradient>
<linearGradient id="paint2_linear_323_1987" x1="87.5" y1="9.5" x2="13" y2="129" gradientUnits="userSpaceOnUse">
<stop stop-color="white"/>
<stop offset="1" stop-color="white" stop-opacity="0"/>
</linearGradient>
<linearGradient id="paint3_linear_323_1987" x1="87.225" y1="19.8" x2="46.275" y2="83.5" gradientUnits="userSpaceOnUse">
<stop stop-color="#B6712C"/>
<stop offset="1" stop-color="#CD7F32"/>
</linearGradient>
<clipPath id="clip0_323_1987">
<rect width="65" height="65" fill="white" transform="translate(18 18.5)"/>
</clipPath>
</defs>
</svg>
