<svg width="100" height="101" viewBox="0 0 100 101" fill="none" xmlns="http://www.w3.org/2000/svg">
<circle cx="50" cy="50.5" r="50" fill="url(#paint0_linear_323_1995)"/>
<g style="mix-blend-mode:multiply">
<path d="M10 51C10 72.263 17 85.5 17 85.5C17 85.5 2 72.263 2 51C2 29.737 15 18.5 15 18.5C15 18.5 10 29.737 10 51Z" fill="url(#paint1_linear_323_1995)"/>
</g>
<path d="M98 50.5C98 76.4574 78.0767 97.5 53.5 97.5C28.9234 97.5 58.5001 85.4574 58.5001 59.5C58.5001 33.5426 28.9234 3.5 53.5 3.5C78.0767 3.5 98 24.5426 98 50.5Z" fill="url(#paint2_linear_323_1995)" fill-opacity="0.4"/>
<path d="M30.3521 74.2215C30.17 74.0484 29.9896 73.8725 29.8109 73.6938L29.7082 73.7964L29.8109 73.6938C18.3568 62.2398 18.3568 43.669 29.8109 32.2149C32.6646 29.3612 37.0898 27.1635 42.14 25.475C47.187 23.7875 52.8427 22.6135 58.1431 21.7984C63.4429 20.9834 68.3838 20.5277 72 20.2758C73.808 20.1499 75.2846 20.0749 76.3089 20.0314C76.8211 20.0096 77.2202 19.9958 77.4912 19.9873C77.6074 19.9837 77.7 19.9811 77.7679 19.9793C77.7769 20.0593 77.7897 20.1741 77.8056 20.3217C77.8394 20.635 77.8875 21.0962 77.9447 21.6874C78.059 22.8697 78.2095 24.572 78.3542 26.6508C78.6435 30.8087 78.9095 36.4716 78.8159 42.4933C78.7224 48.5159 78.2693 54.8925 77.1224 60.4794C75.9744 66.0717 74.136 70.8478 71.2899 73.6938C61.1569 83.8268 45.4541 84.9957 34.0364 77.2001L43.1562 66.0084L57.9012 62.825L57.8844 62.5291L46.1176 61.3528L53.5429 53.7924L62.2367 51.8879L62.2472 51.5976L55.5174 49.6045L62.3358 37.3043L62.0926 37.1317L52.3906 48.0141L48.7045 42.8126L48.4338 42.9218L49.7593 51.6944L43.1348 59.1623L40.0428 49.6488L39.7502 49.6952V62.6252L30.3521 74.2215Z" fill="white" stroke="url(#paint3_linear_323_1995)" stroke-width="0.3"/>
<defs>
<linearGradient id="paint0_linear_323_1995" x1="106.5" y1="2.5" x2="43.5" y2="100.5" gradientUnits="userSpaceOnUse">
<stop stop-color="#B6712C"/>
<stop offset="1" stop-color="#CD7F32"/>
</linearGradient>
<linearGradient id="paint1_linear_323_1995" x1="2" y1="29.5" x2="24.5" y2="98.5" gradientUnits="userSpaceOnUse">
<stop stop-color="#DBDCDC" stop-opacity="0.5"/>
<stop offset="1" stop-color="#DBDCDC" stop-opacity="0"/>
</linearGradient>
<linearGradient id="paint2_linear_323_1995" x1="87.5" y1="9.5" x2="13" y2="129" gradientUnits="userSpaceOnUse">
<stop stop-color="white"/>
<stop offset="1" stop-color="white" stop-opacity="0"/>
</linearGradient>
<linearGradient id="paint3_linear_323_1995" x1="82.7494" y1="21.0781" x2="42.1135" y2="79.5506" gradientUnits="userSpaceOnUse">
<stop stop-color="#B6712C"/>
<stop offset="1" stop-color="#CD7F32"/>
</linearGradient>
</defs>
</svg>
