<svg width="100" height="101" viewBox="0 0 100 101" fill="none" xmlns="http://www.w3.org/2000/svg">
<circle cx="50" cy="50.5" r="50" fill="url(#paint0_linear_323_2026)"/>
<g style="mix-blend-mode:multiply">
<path d="M10 51C10 72.263 17 85.5 17 85.5C17 85.5 2 72.263 2 51C2 29.737 15 18.5 15 18.5C15 18.5 10 29.737 10 51Z" fill="url(#paint1_linear_323_2026)"/>
</g>
<path d="M98 50.5C98 76.4574 78.0767 97.5 53.5 97.5C28.9234 97.5 58.5001 85.4574 58.5001 59.5C58.5001 33.5426 28.9234 3.5 53.5 3.5C78.0767 3.5 98 24.5426 98 50.5Z" fill="url(#paint2_linear_323_2026)" fill-opacity="0.4"/>
<path d="M78.9145 51C78.9145 66.6929 66.1929 79.4145 50.5 79.4145C34.8071 79.4145 22.0855 66.6929 22.0855 51C22.0855 35.3071 34.8071 22.5855 50.5 22.5855C66.1929 22.5855 78.9145 35.3071 78.9145 51ZM50.5 67.4725C59.5975 67.4725 66.9725 60.0975 66.9725 51C66.9725 41.9025 59.5975 34.5275 50.5 34.5275C41.4025 34.5275 34.0275 41.9025 34.0275 51C34.0275 60.0975 41.4025 67.4725 50.5 67.4725Z" fill="white" stroke="url(#paint3_linear_323_2026)" stroke-width="0.3"/>
<defs>
<linearGradient id="paint0_linear_323_2026" x1="106.5" y1="2.5" x2="43.5" y2="100.5" gradientUnits="userSpaceOnUse">
<stop stop-color="#B6712C"/>
<stop offset="1" stop-color="#CD7F32"/>
</linearGradient>
<linearGradient id="paint1_linear_323_2026" x1="2" y1="29.5" x2="24.5" y2="98.5" gradientUnits="userSpaceOnUse">
<stop stop-color="#DBDCDC" stop-opacity="0.5"/>
<stop offset="1" stop-color="#DBDCDC" stop-opacity="0"/>
</linearGradient>
<linearGradient id="paint2_linear_323_2026" x1="87.5" y1="9.5" x2="13" y2="129" gradientUnits="userSpaceOnUse">
<stop stop-color="white"/>
<stop offset="1" stop-color="white" stop-opacity="0"/>
</linearGradient>
<linearGradient id="paint3_linear_323_2026" x1="82.7778" y1="23.5781" x2="46.7866" y2="79.5645" gradientUnits="userSpaceOnUse">
<stop stop-color="#B6712C"/>
<stop offset="1" stop-color="#CD7F32"/>
</linearGradient>
</defs>
</svg>
