<svg width="100" height="101" viewBox="0 0 100 101" fill="none" xmlns="http://www.w3.org/2000/svg">
<circle cx="50" cy="50.5" r="50" fill="url(#paint0_linear_323_2039)"/>
<g style="mix-blend-mode:multiply">
<path d="M10 51C10 72.263 17 85.5 17 85.5C17 85.5 2 72.263 2 51C2 29.737 15 18.5 15 18.5C15 18.5 10 29.737 10 51Z" fill="url(#paint1_linear_323_2039)"/>
</g>
<path d="M97.9998 50.5C97.9998 76.4574 78.0765 97.5 53.4998 97.5C28.9231 97.5 58.4998 85.4574 58.4998 59.5C58.4998 33.5426 28.9231 3.5 53.4998 3.5C78.0765 3.5 97.9998 24.5426 97.9998 50.5Z" fill="url(#paint2_linear_323_2039)" fill-opacity="0.4"/>
<g clip-path="url(#clip0_323_2039)">
<path d="M72.2195 68.3324L72.1448 68.3922L72.1675 68.4852C72.4395 69.5989 72.5869 70.7891 72.5869 72.026C72.5869 75.1653 71.6382 78.0016 70.1116 80.0497C68.585 82.0977 66.4877 83.35 64.1842 83.35C61.4561 83.35 59.0153 81.5922 57.473 78.8382L57.3421 78.6045L57.2113 78.8382C55.6689 81.5922 53.2281 83.35 50.5 83.35C47.5076 83.35 44.8595 81.2339 43.3664 78.0102L43.2303 77.7163L43.0942 78.0102C41.6011 81.2339 38.953 83.35 35.9606 83.35C33.657 83.35 31.5597 82.0977 30.0332 80.0497C28.5066 78.0016 27.5579 75.1653 27.5579 72.026C27.5579 70.575 27.7606 69.1881 28.1296 67.9139L28.1566 67.8206L28.0826 67.7578C21.9571 62.5631 18.15 55.2643 18.15 47.1851C18.15 31.4426 32.6154 18.65 50.5 18.65C68.3846 18.65 82.85 31.4426 82.85 47.1851C82.85 55.5668 78.7524 63.1088 72.2195 68.3324ZM50.0724 62.4671C55.4159 62.4671 60.2593 60.8282 63.7701 58.1713C67.2809 55.5143 69.4659 51.8326 69.4659 47.7539C69.4659 43.6752 67.2809 39.9936 63.7701 37.3366C60.2593 34.6797 55.4159 33.0408 50.0724 33.0408C44.7288 33.0408 39.8855 34.6797 36.3747 37.3366C32.8639 39.9936 30.679 43.6752 30.679 47.7539C30.679 51.8326 32.8639 55.5143 36.3747 58.1713C39.8855 60.8282 44.7288 62.4671 50.0724 62.4671Z" fill="white" stroke="url(#paint3_linear_323_2039)" stroke-width="0.3"/>
</g>
<defs>
<linearGradient id="paint0_linear_323_2039" x1="106.5" y1="2.5" x2="43.5" y2="100.5" gradientUnits="userSpaceOnUse">
<stop stop-color="#B6712C"/>
<stop offset="1" stop-color="#CD7F32"/>
</linearGradient>
<linearGradient id="paint1_linear_323_2039" x1="2" y1="29.5" x2="24.5" y2="98.5" gradientUnits="userSpaceOnUse">
<stop stop-color="#DBDCDC" stop-opacity="0.5"/>
<stop offset="1" stop-color="#DBDCDC" stop-opacity="0"/>
</linearGradient>
<linearGradient id="paint2_linear_323_2039" x1="87.4998" y1="9.5" x2="12.9998" y2="129" gradientUnits="userSpaceOnUse">
<stop stop-color="white"/>
<stop offset="1" stop-color="white" stop-opacity="0"/>
</linearGradient>
<linearGradient id="paint3_linear_323_2039" x1="87.225" y1="19.8" x2="46.275" y2="83.5" gradientUnits="userSpaceOnUse">
<stop stop-color="#B6712C"/>
<stop offset="1" stop-color="#CD7F32"/>
</linearGradient>
<clipPath id="clip0_323_2039">
<rect width="65" height="65" fill="white" transform="translate(18 18.5)"/>
</clipPath>
</defs>
</svg>
