<svg width="100" height="101" viewBox="0 0 100 101" fill="none" xmlns="http://www.w3.org/2000/svg">
<circle cx="50" cy="50.5" r="50" fill="url(#paint0_linear_323_2047)"/>
<g style="mix-blend-mode:multiply">
<path d="M10 51C10 72.263 17 85.5 17 85.5C17 85.5 2 72.263 2 51C2 29.737 15 18.5 15 18.5C15 18.5 10 29.737 10 51Z" fill="url(#paint1_linear_323_2047)"/>
</g>
<path d="M97.9998 50.5C97.9998 76.4574 78.0765 97.5 53.4998 97.5C28.9231 97.5 58.4998 85.4574 58.4998 59.5C58.4998 33.5426 28.9231 3.5 53.4998 3.5C78.0765 3.5 97.9998 24.5426 97.9998 50.5Z" fill="url(#paint2_linear_323_2047)" fill-opacity="0.4"/>
<path d="M75.9751 72.5956L75.9803 72.591L77.3507 75.2744L77.4537 75.3835L77.3507 75.2745L77.3505 75.2747L77.3494 75.2757L77.3448 75.28L77.3256 75.2977C77.3084 75.3135 77.2824 75.3372 77.2477 75.3682C77.1784 75.4302 77.0743 75.5214 76.9363 75.6376C76.6604 75.8699 76.2489 76.2021 75.7083 76.5994C74.6271 77.394 73.0301 78.449 70.97 79.4881C66.8497 81.5662 60.8788 83.5794 53.4752 83.3204C46.07 83.0613 37.9877 80.4179 31.6723 75.534C25.3596 70.6522 20.8153 63.5355 20.4668 54.3214C19.7681 35.8506 30.678 20.5136 48.2217 18.8307C57.0103 17.9877 65.0801 20.1248 70.9493 24.5893C76.816 29.0519 80.4923 35.8454 80.4923 44.3392C80.4923 52.8519 78.1834 58.7699 74.7305 62.8146C71.2764 66.8606 66.665 69.0468 62.0345 70.0716C57.4208 71.0926 52.1725 70.1845 47.8729 67.7918C43.5741 65.3994 40.2398 61.5326 39.4257 56.6482C38.6062 51.7316 39.1283 46.9843 40.9823 43.329C42.8337 39.6787 46.0145 37.113 50.5356 36.543C59.6019 35.4001 64.7462 41.0496 65.7005 46.3479C66.1775 48.9962 65.5944 51.6516 64.0343 53.6584C62.476 55.6629 59.9334 57.0329 56.4649 57.095C53.0207 57.1566 51.0974 55.407 50.0275 53.6379C49.4911 52.7508 49.1696 51.8584 48.9823 51.1869C48.8888 50.8515 48.8289 50.572 48.7926 50.3769C48.7744 50.2794 48.7621 50.203 48.7543 50.1514C48.7505 50.1256 48.7478 50.106 48.746 50.093L48.7459 50.0918L48.7488 50.0699C48.7524 50.0433 48.7581 50.004 48.7661 49.9536C48.7823 49.8529 48.808 49.7085 48.8461 49.5349C48.9224 49.1871 49.0478 48.7254 49.244 48.2654C49.6415 47.3337 50.3001 46.4713 51.3751 46.4713C51.9205 46.4713 52.218 46.6585 52.3911 46.9283C52.5732 47.2122 52.6347 47.6132 52.6422 48.072C52.646 48.2988 52.6366 48.5335 52.625 48.7675C52.6225 48.8165 52.62 48.8656 52.6174 48.9146C52.6079 49.0978 52.5985 49.2795 52.595 49.4512C52.5905 49.6688 52.5952 49.8777 52.6226 50.0627C52.6497 50.2463 52.701 50.4194 52.7992 50.5555C52.9089 50.7074 53.0026 50.8559 53.0955 51.0031C53.1325 51.0619 53.1695 51.1204 53.2073 51.1789C53.3373 51.3802 53.4746 51.5762 53.6486 51.7457C54.0059 52.0936 54.496 52.3088 55.3424 52.3088C56.1842 52.3088 57.1178 52.0764 57.8445 51.5092C58.5769 50.9376 59.0863 50.0355 59.0863 48.7288C59.0863 47.4463 58.7876 46.0475 58.0403 44.9646C57.2879 43.8744 56.087 43.1149 54.316 43.1149C52.5745 43.1149 50.7364 43.5302 49.3295 44.5481C47.9157 45.571 46.9502 47.1938 46.9502 49.5728C46.9502 51.9247 47.4893 54.3963 48.9553 56.2832C50.4264 58.1767 52.8151 59.4611 56.4676 59.4611C63.7897 59.4611 68.4886 53.638 68.4886 47.002C68.4886 43.6796 67.0547 39.8843 64.5282 36.9192C61.9998 33.9519 58.3674 31.8055 53.9658 31.8055C49.598 31.8055 44.1714 32.7981 39.8328 35.9856C35.4863 39.1789 32.2512 44.5611 32.2512 53.2952C32.2512 56.9977 33.9142 62.2703 37.1248 66.8748C40.3371 71.4819 45.1123 75.4392 51.3504 76.4797C59.5298 77.8439 65.6803 76.8784 69.7899 75.5681C71.8443 74.9131 73.3877 74.1721 74.419 73.5939C74.9346 73.3047 75.3222 73.0563 75.5815 72.8795C75.7112 72.7912 75.8089 72.7207 75.8744 72.6721C75.9072 72.6478 75.932 72.6289 75.9487 72.616L75.9679 72.6011L75.9729 72.5971L75.9743 72.596L75.9747 72.5956C75.9748 72.5955 75.9749 72.5955 75.8811 72.4784L75.9751 72.5956Z" fill="white" stroke="url(#paint3_linear_323_2047)" stroke-width="0.3"/>
<defs>
<linearGradient id="paint0_linear_323_2047" x1="106.5" y1="2.5" x2="43.5" y2="100.5" gradientUnits="userSpaceOnUse">
<stop stop-color="#B6712C"/>
<stop offset="1" stop-color="#CD7F32"/>
</linearGradient>
<linearGradient id="paint1_linear_323_2047" x1="2" y1="29.5" x2="24.5" y2="98.5" gradientUnits="userSpaceOnUse">
<stop stop-color="#DBDCDC" stop-opacity="0.5"/>
<stop offset="1" stop-color="#DBDCDC" stop-opacity="0"/>
</linearGradient>
<linearGradient id="paint2_linear_323_2047" x1="87.4998" y1="9.5" x2="12.9998" y2="129" gradientUnits="userSpaceOnUse">
<stop stop-color="white"/>
<stop offset="1" stop-color="white" stop-opacity="0"/>
</linearGradient>
<linearGradient id="paint3_linear_323_2047" x1="84.5656" y1="19.7999" x2="42.4401" y2="80.6545" gradientUnits="userSpaceOnUse">
<stop stop-color="#B6712C"/>
<stop offset="1" stop-color="#CD7F32"/>
</linearGradient>
</defs>
</svg>
