<svg width="100" height="101" viewBox="0 0 100 101" fill="none" xmlns="http://www.w3.org/2000/svg">
<circle cx="50" cy="50.5" r="50" fill="url(#paint0_linear_323_2057)"/>
<g style="mix-blend-mode:multiply">
<path d="M10 51C10 72.263 17 85.5 17 85.5C17 85.5 2 72.263 2 51C2 29.737 15 18.5 15 18.5C15 18.5 10 29.737 10 51Z" fill="url(#paint1_linear_323_2057)"/>
</g>
<path d="M97.9998 50.5C97.9998 76.4574 78.0765 97.5 53.4998 97.5C28.9231 97.5 58.4998 85.4574 58.4998 59.5C58.4998 33.5426 28.9231 3.5 53.4998 3.5C78.0765 3.5 97.9998 24.5426 97.9998 50.5Z" fill="url(#paint2_linear_323_2057)" fill-opacity="0.4"/>
<g clip-path="url(#clip0_323_2057)">
<mask id="path-4-inside-1_323_2057" fill="white">
<path fill-rule="evenodd" clip-rule="evenodd" d="M68.164 49.5727C68.1603 49.5676 68.1588 49.5612 68.1598 49.555L72.3066 25.3747C72.3085 25.3636 72.3183 25.3555 72.3295 25.3555H73.6419C73.6521 25.3555 73.6609 25.362 73.664 25.3717L83.0065 54.9522C83.0094 54.9613 83.0062 54.9715 82.9986 54.9774L76.1103 60.3556C76.1 60.3636 76.0851 60.3615 76.0774 60.351L68.164 49.5727ZM17.873 65.6024C17.873 65.6124 17.8795 65.6213 17.889 65.6245L32.0886 70.2673C32.0955 70.2696 32.1031 70.2684 32.1091 70.2644L63.8485 48.3523C63.8538 48.3486 63.8574 48.3429 63.8583 48.3365L67.2619 25.4987C67.264 25.4847 67.2531 25.4721 67.239 25.4721H39.1258C39.1188 25.4721 39.1123 25.4752 39.1079 25.4805L17.8784 51.0906C17.8749 51.0948 17.873 51.1 17.873 51.1055V65.6024ZM38.0057 71.4502L53.5184 76.5318C53.5254 76.5341 53.5332 76.5329 53.5391 76.5286L72.0081 63.2807C72.0184 63.2734 72.021 63.2594 72.014 63.2489L65.0905 52.9461C65.0832 52.9353 65.0688 52.9325 65.0581 52.9398L38.0057 71.4502Z"/>
</mask>
<path fill-rule="evenodd" clip-rule="evenodd" d="M68.164 49.5727C68.1603 49.5676 68.1588 49.5612 68.1598 49.555L72.3066 25.3747C72.3085 25.3636 72.3183 25.3555 72.3295 25.3555H73.6419C73.6521 25.3555 73.6609 25.362 73.664 25.3717L83.0065 54.9522C83.0094 54.9613 83.0062 54.9715 82.9986 54.9774L76.1103 60.3556C76.1 60.3636 76.0851 60.3615 76.0774 60.351L68.164 49.5727ZM17.873 65.6024C17.873 65.6124 17.8795 65.6213 17.889 65.6245L32.0886 70.2673C32.0955 70.2696 32.1031 70.2684 32.1091 70.2644L63.8485 48.3523C63.8538 48.3486 63.8574 48.3429 63.8583 48.3365L67.2619 25.4987C67.264 25.4847 67.2531 25.4721 67.239 25.4721H39.1258C39.1188 25.4721 39.1123 25.4752 39.1079 25.4805L17.8784 51.0906C17.8749 51.0948 17.873 51.1 17.873 51.1055V65.6024ZM38.0057 71.4502L53.5184 76.5318C53.5254 76.5341 53.5332 76.5329 53.5391 76.5286L72.0081 63.2807C72.0184 63.2734 72.021 63.2594 72.014 63.2489L65.0905 52.9461C65.0832 52.9353 65.0688 52.9325 65.0581 52.9398L38.0057 71.4502Z" fill="white"/>
<path d="M68.164 49.5727L67.9211 49.7488L67.9222 49.7502L68.164 49.5727ZM68.1598 49.555L67.8641 49.5043L67.8637 49.5067L68.1598 49.555ZM72.3066 25.3747L72.6023 25.4254L72.6023 25.4253L72.3066 25.3747ZM73.664 25.3717L73.3779 25.462L73.3779 25.462L73.664 25.3717ZM83.0065 54.9522L82.7204 55.0425L82.7207 55.0435L83.0065 54.9522ZM82.9986 54.9774L83.1832 55.2139L83.1836 55.2136L82.9986 54.9774ZM76.1103 60.3556L76.2944 60.5924L76.2949 60.592L76.1103 60.3556ZM76.0774 60.351L75.8356 60.5285L75.8356 60.5286L76.0774 60.351ZM17.889 65.6245L17.7943 65.9091L17.7958 65.9096L17.889 65.6245ZM32.0886 70.2673L32.1835 69.9827L32.1819 69.9821L32.0886 70.2673ZM32.1091 70.2644L32.2779 70.5124L32.2795 70.5113L32.1091 70.2644ZM63.8485 48.3523L64.0189 48.5991L64.0189 48.5991L63.8485 48.3523ZM63.8583 48.3365L63.5615 48.2923L63.5612 48.2949L63.8583 48.3365ZM67.2619 25.4987L66.9654 25.4531L66.9652 25.4545L67.2619 25.4987ZM39.1079 25.4805L38.8776 25.2882L38.8769 25.289L39.1079 25.4805ZM17.8784 51.0906L17.6474 50.8992L17.6468 50.9L17.8784 51.0906ZM38.0057 71.4502L37.8362 71.2027L37.3344 71.546L37.9123 71.7353L38.0057 71.4502ZM53.5184 76.5318L53.425 76.8169L53.4251 76.8169L53.5184 76.5318ZM53.5391 76.5286L53.3643 76.2849L53.3633 76.2856L53.5391 76.5286ZM72.0081 63.2807L71.8355 63.0353L71.8333 63.0369L72.0081 63.2807ZM72.014 63.2489L72.2631 63.0818L72.263 63.0816L72.014 63.2489ZM65.0905 52.9461L64.8413 53.1132L64.8415 53.1134L65.0905 52.9461ZM65.0581 52.9398L65.2275 53.1874L65.2286 53.1867L65.0581 52.9398ZM68.4069 49.3966C68.4499 49.4559 68.4678 49.5303 68.4559 49.6034L67.8637 49.5067C67.8498 49.5922 67.8707 49.6793 67.9211 49.7488L68.4069 49.3966ZM68.4555 49.6057L72.6023 25.4254L72.0109 25.324L67.8641 49.5043L68.4555 49.6057ZM72.6023 25.4253C72.5794 25.5593 72.4634 25.6555 72.3295 25.6555V25.0555C72.1732 25.0555 72.0376 25.1679 72.0109 25.3242L72.6023 25.4253ZM72.3295 25.6555H73.6419V25.0555H72.3295V25.6555ZM73.6419 25.6555C73.5204 25.6555 73.4141 25.5765 73.3779 25.462L73.9501 25.2813C73.9078 25.1476 73.7837 25.0555 73.6419 25.0555V25.6555ZM73.3779 25.462L82.7204 55.0425L83.2925 54.8618L73.9501 25.2813L73.3779 25.462ZM82.7207 55.0435C82.6849 54.9313 82.724 54.8115 82.8136 54.7413L83.1836 55.2136C83.2885 55.1315 83.3339 54.9913 83.2923 54.8609L82.7207 55.0435ZM82.814 54.741L75.9256 60.1191L76.2949 60.592L83.1832 55.2139L82.814 54.741ZM75.9261 60.1188C76.0488 60.0233 76.2266 60.0475 76.3191 60.1733L75.8356 60.5286C75.9436 60.6756 76.1511 60.7038 76.2944 60.5924L75.9261 60.1188ZM76.3192 60.1734L68.4058 49.3951L67.9222 49.7502L75.8356 60.5285L76.3192 60.1734ZM17.573 65.6024C17.573 65.7426 17.6631 65.8655 17.7943 65.9091L17.9838 65.3399C18.0959 65.3772 18.173 65.4823 18.173 65.6024H17.573ZM17.7958 65.9096L31.9954 70.5524L32.1819 69.9821L17.9823 65.3393L17.7958 65.9096ZM31.9938 70.5519C32.0919 70.5846 32.1967 70.5676 32.2779 70.5124L31.9402 70.0164C32.0095 69.9693 32.0991 69.9545 32.1835 69.9827L31.9938 70.5519ZM32.2795 70.5113L64.0189 48.5991L63.678 48.1054L31.9386 70.0175L32.2795 70.5113ZM64.0189 48.5991C64.0922 48.5485 64.1426 48.469 64.1554 48.3781L63.5612 48.2949C63.5721 48.2168 63.6154 48.1486 63.678 48.1054L64.0189 48.5991ZM64.155 48.3807L67.5586 25.5429L66.9652 25.4545L63.5615 48.2923L64.155 48.3807ZM67.5584 25.5444C67.5887 25.3473 67.4357 25.1721 67.239 25.1721V25.7721C67.0706 25.7721 66.9393 25.6221 66.9654 25.4531L67.5584 25.5444ZM67.239 25.1721H39.1258V25.7721H67.239V25.1721ZM39.1258 25.1721C39.0289 25.1721 38.9385 25.2154 38.8776 25.2882L39.3381 25.6728C39.2862 25.735 39.2086 25.7721 39.1258 25.7721V25.1721ZM38.8769 25.289L17.6474 50.8992L18.1093 51.2821L39.3388 25.672L38.8769 25.289ZM17.6468 50.9C17.5994 50.9575 17.573 51.03 17.573 51.1055H18.173C18.173 51.1701 18.1504 51.2322 18.11 51.2813L17.6468 50.9ZM17.573 51.1055V65.6024H18.173V51.1055H17.573ZM37.9123 71.7353L53.425 76.8169L53.6118 76.2467L38.099 71.1651L37.9123 71.7353ZM53.4251 76.8169C53.5215 76.8485 53.6296 76.8334 53.715 76.7717L53.3633 76.2856C53.4367 76.2324 53.5293 76.2197 53.6117 76.2467L53.4251 76.8169ZM53.714 76.7724L72.183 63.5245L71.8333 63.0369L53.3643 76.2849L53.714 76.7724ZM72.1808 63.526C72.3256 63.4241 72.3601 63.2265 72.2631 63.0818L71.7648 63.4161C71.6818 63.2923 71.7112 63.1228 71.8355 63.0353L72.1808 63.526ZM72.263 63.0816L65.3395 52.7787L64.8415 53.1134L71.765 63.4163L72.263 63.0816ZM65.3396 52.779C65.2399 52.6303 65.037 52.5898 64.8876 52.693L65.2286 53.1867C65.1005 53.2751 64.9265 53.2402 64.8413 53.1132L65.3396 52.779ZM64.8887 52.6923L37.8362 71.2027L38.1751 71.6978L65.2275 53.1874L64.8887 52.6923Z" fill="url(#paint3_linear_323_2057)" mask="url(#path-4-inside-1_323_2057)"/>
</g>
<defs>
<linearGradient id="paint0_linear_323_2057" x1="106.5" y1="2.5" x2="43.5" y2="100.5" gradientUnits="userSpaceOnUse">
<stop stop-color="#B6712C"/>
<stop offset="1" stop-color="#CD7F32"/>
</linearGradient>
<linearGradient id="paint1_linear_323_2057" x1="2" y1="29.5" x2="24.5" y2="98.5" gradientUnits="userSpaceOnUse">
<stop stop-color="#DBDCDC" stop-opacity="0.5"/>
<stop offset="1" stop-color="#DBDCDC" stop-opacity="0"/>
</linearGradient>
<linearGradient id="paint2_linear_323_2057" x1="87.4998" y1="9.5" x2="12.9998" y2="129" gradientUnits="userSpaceOnUse">
<stop stop-color="white"/>
<stop offset="1" stop-color="white" stop-opacity="0"/>
</linearGradient>
<linearGradient id="paint3_linear_323_2057" x1="87.2413" y1="26.379" x2="58.7166" y2="82.8518" gradientUnits="userSpaceOnUse">
<stop stop-color="#B6712C"/>
<stop offset="1" stop-color="#CD7F32"/>
</linearGradient>
<clipPath id="clip0_323_2057">
<rect width="65" height="65" fill="white" transform="translate(18 18.5)"/>
</clipPath>
</defs>
</svg>
