<svg width="100" height="100" viewBox="0 0 100 100" fill="none" xmlns="http://www.w3.org/2000/svg">
<circle cx="50" cy="50" r="50" fill="url(#paint0_linear_239_1067)"/>
<g style="mix-blend-mode:multiply">
<path d="M10 50.5C10 71.763 17 85 17 85C17 85 2 71.763 2 50.5C2 29.237 15 18 15 18C15 18 10 29.237 10 50.5Z" fill="url(#paint1_linear_239_1067)"/>
</g>
<path d="M98 50C98 75.9574 78.0767 97 53.5 97C28.9234 97 58.5001 84.9574 58.5001 59C58.5001 33.0426 28.9234 3 53.5 3C78.0767 3 98 24.0426 98 50Z" fill="url(#paint2_linear_239_1067)" fill-opacity="0.4"/>
<path d="M43.589 18.7221C45.8984 29.7434 52.4319 36.3804 58.4397 40.2706C61.5054 42.2557 64.4349 43.5262 66.5982 44.3005C67.68 44.6877 68.5705 44.9509 69.1913 45.1175C69.3178 45.1515 69.4332 45.1814 69.5366 45.2076C69.4332 45.2338 69.3178 45.2637 69.1913 45.2977C68.5705 45.4643 67.68 45.7276 66.5982 46.1149C64.4349 46.8893 61.5054 48.1598 58.4397 50.145C52.4319 54.0353 45.8984 60.6723 43.589 71.693C43.5665 71.6007 43.5413 71.4997 43.5133 71.3906C43.3505 70.7558 43.0932 69.845 42.7148 68.7387C41.958 66.5263 40.7162 63.5301 38.7758 60.3944C34.9764 54.2546 28.4946 47.5751 17.7316 45.2076C28.4941 42.84 34.9759 36.1606 38.7754 30.0208C40.7159 26.8851 41.9577 23.8889 42.7146 21.6765C43.0931 20.5701 43.3504 19.6594 43.5133 19.0246C43.5413 18.9155 43.5665 18.8145 43.589 18.7221ZM70.2161 36.2178C72.5021 35.5781 73.9112 34.0953 74.7562 32.7297C75.2152 31.9881 75.5087 31.2798 75.6877 30.7568C75.7202 30.6617 75.7489 30.5728 75.7742 30.4907C76.3949 32.8429 77.8494 34.2921 79.1907 35.1606C79.9161 35.6304 80.609 35.9308 81.1208 36.114C81.2324 36.154 81.3355 36.1884 81.4285 36.2178C81.3355 36.2472 81.2324 36.2816 81.1208 36.3215C80.609 36.5047 79.9162 36.8052 79.1908 37.2749C77.8495 38.1434 76.395 39.5926 75.7742 41.9448C75.7489 41.8628 75.7202 41.7739 75.6877 41.6788C75.5088 41.1558 75.2152 40.4475 74.7563 39.7059C73.9113 38.3404 72.5022 36.8576 70.2161 36.2178ZM77.1729 71.046C76.9124 71.1195 76.5743 71.2237 76.1784 71.3655C75.2234 71.7074 73.9302 72.2683 72.5766 73.1448C69.9862 74.8223 67.1724 77.6579 66.0907 82.3224C66.0198 82.0637 65.9224 81.7366 65.7927 81.3576C65.4587 80.3811 64.9107 79.0588 64.0541 77.6747C62.4185 75.0317 59.6544 72.1588 55.1082 71.047C59.6544 69.9348 62.4185 67.0616 64.0541 64.4185C64.9107 63.0343 65.4587 61.7119 65.7927 60.7355C65.9224 60.3565 66.0198 60.0293 66.0907 59.7706C67.1724 64.4351 69.9862 67.2705 72.5766 68.9477C73.9302 69.8241 75.2234 70.3848 76.1784 70.7267C76.5743 70.8684 76.9124 70.9725 77.1729 71.046Z" fill="white" stroke="#B6712C" stroke-width="0.3"/>
<defs>
<linearGradient id="paint0_linear_239_1067" x1="106.5" y1="2" x2="43.5" y2="100" gradientUnits="userSpaceOnUse">
<stop stop-color="#B6712C"/>
<stop offset="1" stop-color="#CD7F32"/>
</linearGradient>
<linearGradient id="paint1_linear_239_1067" x1="2" y1="29" x2="24.5" y2="98" gradientUnits="userSpaceOnUse">
<stop stop-color="#DBDCDC" stop-opacity="0.5"/>
<stop offset="1" stop-color="#DBDCDC" stop-opacity="0"/>
</linearGradient>
<linearGradient id="paint2_linear_239_1067" x1="87.5" y1="9" x2="13" y2="128.5" gradientUnits="userSpaceOnUse">
<stop stop-color="white"/>
<stop offset="1" stop-color="white" stop-opacity="0"/>
</linearGradient>
</defs>
</svg>
