<svg width="100" height="100" viewBox="0 0 100 100" fill="none" xmlns="http://www.w3.org/2000/svg">
<circle cx="50" cy="50" r="50" fill="url(#paint0_linear_239_1732)"/>
<g style="mix-blend-mode:multiply">
<path d="M10 50.5C10 71.763 17 85 17 85C17 85 2 71.763 2 50.5C2 29.237 15 18 15 18C15 18 10 29.237 10 50.5Z" fill="url(#paint1_linear_239_1732)"/>
</g>
<path d="M98 50C98 75.9574 78.0767 97 53.5 97C28.9234 97 58.5001 84.9574 58.5001 59C58.5001 33.0426 28.9234 3 53.5 3C78.0767 3 98 24.0426 98 50Z" fill="url(#paint2_linear_239_1732)" fill-opacity="0.4"/>
<mask id="path-4-inside-1_239_1732" fill="white">
<path fill-rule="evenodd" clip-rule="evenodd" d="M32.6871 13.8533C32.926 13.3333 33.4459 13 34.0181 13H39.9353C40.4124 13 40.8595 13.2323 41.1338 13.6226L44.5049 18.4199H68.8945C69.7035 18.4199 70.3594 19.0758 70.3594 19.8848V23.6934H71.2383C72.8563 23.6934 74.168 25.005 74.168 26.623V31.0176H70.3594V36.584H74.168V72.1797C74.168 73.7977 72.8563 75.1094 71.2383 75.1094H70.3594V82.1406C70.3594 85.3767 67.736 88 64.5 88H32.8594C29.6233 88 27 85.3767 27 82.1406V19.8848C27 19.0758 27.6558 18.4199 28.4648 18.4199H30.5889L32.6871 13.8533ZM47.6543 25.5977C46.8453 25.5977 46.1895 26.2535 46.1895 27.0625V40.0996C46.1895 40.9086 46.8453 41.5645 47.6543 41.5645H50.1445C50.9535 41.5645 51.6094 40.9086 51.6094 40.0996V27.0625C51.6094 26.2535 50.9535 25.5977 50.1445 25.5977H47.6543ZM60.252 66.833C60.252 72.941 55.3004 77.8926 49.1924 77.8926C43.0844 77.8926 38.1328 72.941 38.1328 66.833C38.1328 60.725 43.0844 55.7734 49.1924 55.7734C55.3004 55.7734 60.252 60.725 60.252 66.833ZM64.793 66.6865C64.793 75.3025 57.8083 82.2871 49.1924 82.2871C40.5764 82.2871 33.5918 75.3025 33.5918 66.6865C33.5918 58.0706 40.5764 51.0859 49.1924 51.0859C57.8083 51.0859 64.793 58.0706 64.793 66.6865ZM65.6696 69.8359C64.1958 77.5936 57.3791 83.459 49.1924 83.459C41.0057 83.459 34.189 77.5936 32.7151 69.8359H28.0254V64.123H32.6146C33.8486 56.0767 40.8008 49.9141 49.1924 49.9141C57.5839 49.9141 64.5361 56.0767 65.7702 64.123H69.7734V69.8359H65.6696Z"/>
</mask>
<path fill-rule="evenodd" clip-rule="evenodd" d="M32.6871 13.8533C32.926 13.3333 33.4459 13 34.0181 13H39.9353C40.4124 13 40.8595 13.2323 41.1338 13.6226L44.5049 18.4199H68.8945C69.7035 18.4199 70.3594 19.0758 70.3594 19.8848V23.6934H71.2383C72.8563 23.6934 74.168 25.005 74.168 26.623V31.0176H70.3594V36.584H74.168V72.1797C74.168 73.7977 72.8563 75.1094 71.2383 75.1094H70.3594V82.1406C70.3594 85.3767 67.736 88 64.5 88H32.8594C29.6233 88 27 85.3767 27 82.1406V19.8848C27 19.0758 27.6558 18.4199 28.4648 18.4199H30.5889L32.6871 13.8533ZM47.6543 25.5977C46.8453 25.5977 46.1895 26.2535 46.1895 27.0625V40.0996C46.1895 40.9086 46.8453 41.5645 47.6543 41.5645H50.1445C50.9535 41.5645 51.6094 40.9086 51.6094 40.0996V27.0625C51.6094 26.2535 50.9535 25.5977 50.1445 25.5977H47.6543ZM60.252 66.833C60.252 72.941 55.3004 77.8926 49.1924 77.8926C43.0844 77.8926 38.1328 72.941 38.1328 66.833C38.1328 60.725 43.0844 55.7734 49.1924 55.7734C55.3004 55.7734 60.252 60.725 60.252 66.833ZM64.793 66.6865C64.793 75.3025 57.8083 82.2871 49.1924 82.2871C40.5764 82.2871 33.5918 75.3025 33.5918 66.6865C33.5918 58.0706 40.5764 51.0859 49.1924 51.0859C57.8083 51.0859 64.793 58.0706 64.793 66.6865ZM65.6696 69.8359C64.1958 77.5936 57.3791 83.459 49.1924 83.459C41.0057 83.459 34.189 77.5936 32.7151 69.8359H28.0254V64.123H32.6146C33.8486 56.0767 40.8008 49.9141 49.1924 49.9141C57.5839 49.9141 64.5361 56.0767 65.7702 64.123H69.7734V69.8359H65.6696Z" fill="white"/>
<path d="M32.6871 13.8533L32.9597 13.9785L32.6871 13.8533ZM41.1338 13.6226L41.3793 13.4502V13.4502L41.1338 13.6226ZM44.5049 18.4199L44.2594 18.5924L44.349 18.7199H44.5049V18.4199ZM70.3594 23.6934H70.0594V23.9934H70.3594V23.6934ZM74.168 31.0176V31.3176H74.468V31.0176H74.168ZM70.3594 31.0176V30.7176H70.0594V31.0176H70.3594ZM70.3594 36.584H70.0594V36.884H70.3594V36.584ZM74.168 36.584H74.468V36.284H74.168V36.584ZM70.3594 75.1094V74.8094H70.0594V75.1094H70.3594ZM30.5889 18.4199V18.7199H30.7812L30.8615 18.5452L30.5889 18.4199ZM65.6696 69.8359V69.5359H65.4213L65.3749 69.7799L65.6696 69.8359ZM32.7151 69.8359L33.0099 69.7799L32.9635 69.5359H32.7151V69.8359ZM28.0254 69.8359H27.7254V70.1359H28.0254V69.8359ZM28.0254 64.123V63.823H27.7254V64.123H28.0254ZM32.6146 64.123V64.423H32.8721L32.9111 64.1685L32.6146 64.123ZM65.7702 64.123L65.4736 64.1685L65.5127 64.423H65.7702V64.123ZM69.7734 64.123H70.0734V63.823H69.7734V64.123ZM69.7734 69.8359V70.1359H70.0734V69.8359H69.7734ZM34.0181 12.7C33.3287 12.7 32.7023 13.1015 32.4145 13.728L32.9597 13.9785C33.1497 13.565 33.5631 13.3 34.0181 13.3V12.7ZM39.9353 12.7H34.0181V13.3H39.9353V12.7ZM41.3793 13.4502C41.0488 12.9799 40.5101 12.7 39.9353 12.7V13.3C40.3147 13.3 40.6702 13.4847 40.8884 13.7951L41.3793 13.4502ZM44.7503 18.2474L41.3793 13.4502L40.8884 13.7951L44.2594 18.5924L44.7503 18.2474ZM68.8945 18.1199H44.5049V18.7199H68.8945V18.1199ZM70.6594 19.8848C70.6594 18.9101 69.8692 18.1199 68.8945 18.1199V18.7199C69.5379 18.7199 70.0594 19.2414 70.0594 19.8848H70.6594ZM70.6594 23.6934V19.8848H70.0594V23.6934H70.6594ZM71.2383 23.3934H70.3594V23.9934H71.2383V23.3934ZM74.468 26.623C74.468 24.8393 73.022 23.3934 71.2383 23.3934V23.9934C72.6906 23.9934 73.868 25.1707 73.868 26.623H74.468ZM74.468 31.0176V26.623H73.868V31.0176H74.468ZM70.3594 31.3176H74.168V30.7176H70.3594V31.3176ZM70.6594 36.584V31.0176H70.0594V36.584H70.6594ZM74.168 36.284H70.3594V36.884H74.168V36.284ZM74.468 72.1797V36.584H73.868V72.1797H74.468ZM71.2383 75.4094C73.022 75.4094 74.468 73.9634 74.468 72.1797H73.868C73.868 73.632 72.6906 74.8094 71.2383 74.8094V75.4094ZM70.3594 75.4094H71.2383V74.8094H70.3594V75.4094ZM70.6594 82.1406V75.1094H70.0594V82.1406H70.6594ZM64.5 88.3C67.9017 88.3 70.6594 85.5424 70.6594 82.1406H70.0594C70.0594 85.211 67.5704 87.7 64.5 87.7V88.3ZM32.8594 88.3H64.5V87.7H32.8594V88.3ZM26.7 82.1406C26.7 85.5424 29.4576 88.3 32.8594 88.3V87.7C29.789 87.7 27.3 85.211 27.3 82.1406H26.7ZM26.7 19.8848V82.1406H27.3V19.8848H26.7ZM28.4648 18.1199C27.4901 18.1199 26.7 18.9101 26.7 19.8848H27.3C27.3 19.2414 27.8215 18.7199 28.4648 18.7199V18.1199ZM30.5889 18.1199H28.4648V18.7199H30.5889V18.1199ZM32.4145 13.728L30.3163 18.2947L30.8615 18.5452L32.9597 13.9785L32.4145 13.728ZM46.4895 27.0625C46.4895 26.4192 47.011 25.8977 47.6543 25.8977V25.2977C46.6796 25.2977 45.8895 26.0878 45.8895 27.0625H46.4895ZM46.4895 40.0996V27.0625H45.8895V40.0996H46.4895ZM47.6543 41.2645C47.011 41.2645 46.4895 40.7429 46.4895 40.0996H45.8895C45.8895 41.0743 46.6796 41.8645 47.6543 41.8645V41.2645ZM50.1445 41.2645H47.6543V41.8645H50.1445V41.2645ZM51.3094 40.0996C51.3094 40.7429 50.7879 41.2645 50.1445 41.2645V41.8645C51.1192 41.8645 51.9094 41.0743 51.9094 40.0996H51.3094ZM51.3094 27.0625V40.0996H51.9094V27.0625H51.3094ZM50.1445 25.8977C50.7879 25.8977 51.3094 26.4192 51.3094 27.0625H51.9094C51.9094 26.0878 51.1192 25.2977 50.1445 25.2977V25.8977ZM47.6543 25.8977H50.1445V25.2977H47.6543V25.8977ZM49.1924 78.1926C55.4661 78.1926 60.552 73.1067 60.552 66.833H59.952C59.952 72.7754 55.1347 77.5926 49.1924 77.5926V78.1926ZM37.8328 66.833C37.8328 73.1067 42.9187 78.1926 49.1924 78.1926V77.5926C43.25 77.5926 38.4328 72.7754 38.4328 66.833H37.8328ZM49.1924 55.4734C42.9187 55.4734 37.8328 60.5593 37.8328 66.833H38.4328C38.4328 60.8907 43.25 56.0734 49.1924 56.0734V55.4734ZM60.552 66.833C60.552 60.5593 55.4661 55.4734 49.1924 55.4734V56.0734C55.1347 56.0734 59.952 60.8907 59.952 66.833H60.552ZM49.1924 82.5871C57.974 82.5871 65.093 75.4682 65.093 66.6865H64.493C64.493 75.1368 57.6427 81.9871 49.1924 81.9871V82.5871ZM33.2918 66.6865C33.2918 75.4682 40.4107 82.5871 49.1924 82.5871V81.9871C40.7421 81.9871 33.8918 75.1368 33.8918 66.6865H33.2918ZM49.1924 50.7859C40.4107 50.7859 33.2918 57.9049 33.2918 66.6865H33.8918C33.8918 58.2362 40.7421 51.3859 49.1924 51.3859V50.7859ZM65.093 66.6865C65.093 57.9049 57.974 50.7859 49.1924 50.7859V51.3859C57.6427 51.3859 64.493 58.2362 64.493 66.6865H65.093ZM49.1924 83.759C57.5258 83.759 64.4641 77.7886 65.9644 69.8919L65.3749 69.7799C63.9275 77.3987 57.2323 83.159 49.1924 83.159V83.759ZM32.4204 69.8919C33.9206 77.7886 40.8589 83.759 49.1924 83.759V83.159C41.1525 83.159 34.4573 77.3987 33.0099 69.7799L32.4204 69.8919ZM28.0254 70.1359H32.7151V69.5359H28.0254V70.1359ZM27.7254 64.123V69.8359H28.3254V64.123H27.7254ZM32.6146 63.823H28.0254V64.423H32.6146V63.823ZM49.1924 49.6141C40.6505 49.6141 33.5742 55.887 32.3181 64.0776L32.9111 64.1685C34.123 56.2663 40.9512 50.2141 49.1924 50.2141V49.6141ZM66.0667 64.0776C64.8106 55.887 57.7343 49.6141 49.1924 49.6141V50.2141C57.4336 50.2141 64.2617 56.2663 65.4736 64.1685L66.0667 64.0776ZM65.7702 64.423H69.7734V63.823H65.7702V64.423ZM69.4734 64.123V69.8359H70.0734V64.123H69.4734ZM69.7734 69.5359H65.6696V70.1359H69.7734V69.5359Z" fill="#B6712C" mask="url(#path-4-inside-1_239_1732)"/>
<defs>
<linearGradient id="paint0_linear_239_1732" x1="106.5" y1="2" x2="43.5" y2="100" gradientUnits="userSpaceOnUse">
<stop stop-color="#B6712C"/>
<stop offset="1" stop-color="#CD7F32"/>
</linearGradient>
<linearGradient id="paint1_linear_239_1732" x1="2" y1="29" x2="24.5" y2="98" gradientUnits="userSpaceOnUse">
<stop stop-color="#DBDCDC" stop-opacity="0.5"/>
<stop offset="1" stop-color="#DBDCDC" stop-opacity="0"/>
</linearGradient>
<linearGradient id="paint2_linear_239_1732" x1="87.5" y1="9" x2="13" y2="128.5" gradientUnits="userSpaceOnUse">
<stop stop-color="white"/>
<stop offset="1" stop-color="white" stop-opacity="0"/>
</linearGradient>
</defs>
</svg>
