<svg width="100" height="101" viewBox="0 0 100 101" fill="none" xmlns="http://www.w3.org/2000/svg">
<circle cx="50" cy="50.5" r="50" fill="url(#paint0_linear_323_2065)"/>
<g style="mix-blend-mode:multiply">
<path d="M10 51C10 72.263 17 85.5 17 85.5C17 85.5 2 72.263 2 51C2 29.737 15 18.5 15 18.5C15 18.5 10 29.737 10 51Z" fill="url(#paint1_linear_323_2065)"/>
</g>
<path d="M97.9998 50.5C97.9998 76.4574 78.0765 97.5 53.4998 97.5C28.9231 97.5 58.4998 85.4574 58.4998 59.5C58.4998 33.5426 28.9231 3.5 53.4998 3.5C78.0765 3.5 97.9998 24.5426 97.9998 50.5Z" fill="url(#paint2_linear_323_2065)" fill-opacity="0.4"/>
<path d="M34.4506 78.5804L18.1663 50.789L34.4506 22.9664H66.7282L82.8339 50.789L66.7282 78.5804H34.4506ZM50.5051 65.9771C58.9018 65.9771 65.7088 59.1701 65.7088 50.7734C65.7088 42.3765 58.9018 35.5697 50.5051 35.5697C42.1083 35.5697 35.3014 42.3765 35.3014 50.7734C35.3014 59.1701 42.1083 65.9771 50.5051 65.9771Z" fill="white" stroke="url(#paint3_linear_323_2065)" stroke-width="0.3"/>
<defs>
<linearGradient id="paint0_linear_323_2065" x1="106.5" y1="2.5" x2="43.5" y2="100.5" gradientUnits="userSpaceOnUse">
<stop stop-color="#B6712C"/>
<stop offset="1" stop-color="#CD7F32"/>
</linearGradient>
<linearGradient id="paint1_linear_323_2065" x1="2" y1="29.5" x2="24.5" y2="98.5" gradientUnits="userSpaceOnUse">
<stop stop-color="#DBDCDC" stop-opacity="0.5"/>
<stop offset="1" stop-color="#DBDCDC" stop-opacity="0"/>
</linearGradient>
<linearGradient id="paint2_linear_323_2065" x1="87.4998" y1="9.5" x2="12.9998" y2="129" gradientUnits="userSpaceOnUse">
<stop stop-color="white"/>
<stop offset="1" stop-color="white" stop-opacity="0"/>
</linearGradient>
<linearGradient id="paint3_linear_323_2065" x1="87.2249" y1="23.9347" x2="54.4294" y2="83.2398" gradientUnits="userSpaceOnUse">
<stop stop-color="#B6712C"/>
<stop offset="1" stop-color="#CD7F32"/>
</linearGradient>
</defs>
</svg>
