<svg width="100" height="101" viewBox="0 0 100 101" fill="none" xmlns="http://www.w3.org/2000/svg">
<circle cx="50" cy="50.5" r="50" fill="url(#paint0_linear_323_2073)"/>
<g style="mix-blend-mode:multiply">
<path d="M10 51C10 72.263 17 85.5 17 85.5C17 85.5 2 72.263 2 51C2 29.737 15 18.5 15 18.5C15 18.5 10 29.737 10 51Z" fill="url(#paint1_linear_323_2073)"/>
</g>
<path d="M97.9998 50.5C97.9998 76.4574 78.0765 97.5 53.4998 97.5C28.9231 97.5 58.4998 85.4574 58.4998 59.5C58.4998 33.5426 28.9231 3.5 53.4998 3.5C78.0765 3.5 97.9998 24.5426 97.9998 50.5Z" fill="url(#paint2_linear_323_2073)" fill-opacity="0.4"/>
<g clip-path="url(#clip0_323_2073)">
<path d="M63.7977 70.9602L63.7424 70.8208L63.7421 70.8209L63.7411 70.8213L63.7367 70.823L63.7188 70.83C63.7027 70.8362 63.6786 70.8455 63.6468 70.8575C63.5831 70.8815 63.4885 70.9165 63.3653 70.9604C63.119 71.0482 62.7586 71.1712 62.3038 71.3118C61.3941 71.5929 60.1073 71.9438 58.6 72.2225C55.5821 72.7807 51.6964 73.0466 48.1859 71.8991C44.6787 70.7527 42.1985 68.4084 40.5929 66.3443C39.7905 65.3127 39.2081 64.353 38.8265 63.6517C38.6357 63.3011 38.4952 63.0153 38.4026 62.8176C38.3563 62.7187 38.322 62.6419 38.2994 62.5901C38.2881 62.5642 38.2797 62.5446 38.2742 62.5315L38.2681 62.5169L38.2666 62.5134L38.2663 62.5127L38.2663 62.5125L38.0618 62.0117L37.9792 62.5463L38.1274 62.5692C37.9792 62.5463 37.9791 62.5465 37.9791 62.5466L37.979 62.5471L37.9788 62.549L37.9777 62.556L37.9739 62.5826C37.9707 62.6058 37.9661 62.64 37.9606 62.6845C37.9496 62.7735 37.935 62.9037 37.9202 63.0698C37.8907 63.4021 37.8608 63.8785 37.8585 64.4572C37.854 65.6138 37.9602 67.1827 38.4046 68.8272C39.2949 72.122 41.5459 75.7237 46.964 76.9093C52.3596 78.0898 56.5992 76.626 59.4873 74.8675C60.9306 73.9886 62.0367 73.0361 62.7823 72.303C63.1551 71.9364 63.4381 71.6243 63.6283 71.4034C63.7234 71.2929 63.7953 71.2052 63.8437 71.1448C63.8678 71.1147 63.8861 71.0913 63.8985 71.0753L63.9126 71.057L63.9163 71.0521L63.9173 71.0508L63.9176 71.0504C63.9177 71.0502 63.9177 71.0502 63.7977 70.9602ZM63.7977 70.9602L63.7424 70.8208L64.2365 70.6248L63.9177 71.0502L63.7977 70.9602ZM39.6664 36.985C44.5982 27.9657 49.6571 20.0576 50.5109 18.7331C51.3647 20.0576 56.4237 27.9657 61.3554 36.985C63.9157 41.6672 66.4402 46.6462 68.3242 51.1576C70.2108 55.6752 71.4461 59.7031 71.4461 62.4912C71.4461 74.009 62.0736 83.3471 50.5109 83.3471C38.9482 83.3471 29.5758 74.009 29.5758 62.4912C29.5758 59.7031 30.811 55.6752 32.6976 51.1576C34.5817 46.6462 37.1062 41.6672 39.6664 36.985Z" fill="white" stroke="url(#paint3_linear_323_2073)" stroke-width="0.3"/>
</g>
<defs>
<linearGradient id="paint0_linear_323_2073" x1="106.5" y1="2.5" x2="43.5" y2="100.5" gradientUnits="userSpaceOnUse">
<stop stop-color="#B6712C"/>
<stop offset="1" stop-color="#CD7F32"/>
</linearGradient>
<linearGradient id="paint1_linear_323_2073" x1="2" y1="29.5" x2="24.5" y2="98.5" gradientUnits="userSpaceOnUse">
<stop stop-color="#DBDCDC" stop-opacity="0.5"/>
<stop offset="1" stop-color="#DBDCDC" stop-opacity="0"/>
</linearGradient>
<linearGradient id="paint2_linear_323_2073" x1="87.4998" y1="9.5" x2="12.9998" y2="129" gradientUnits="userSpaceOnUse">
<stop stop-color="white"/>
<stop offset="1" stop-color="white" stop-opacity="0"/>
</linearGradient>
<linearGradient id="paint3_linear_323_2073" x1="74.3371" y1="19.7999" x2="29.3286" y2="65.2248" gradientUnits="userSpaceOnUse">
<stop stop-color="#B6712C"/>
<stop offset="1" stop-color="#CD7F32"/>
</linearGradient>
<clipPath id="clip0_323_2073">
<rect width="65" height="65" fill="white" transform="translate(18 18.5)"/>
</clipPath>
</defs>
</svg>
