<svg width="100" height="101" viewBox="0 0 100 101" fill="none" xmlns="http://www.w3.org/2000/svg">
<circle cx="50" cy="50.5" r="50" fill="url(#paint0_linear_321_1924)"/>
<g style="mix-blend-mode:multiply">
<path d="M10 51C10 72.263 17 85.5 17 85.5C17 85.5 2 72.263 2 51C2 29.737 15 18.5 15 18.5C15 18.5 10 29.737 10 51Z" fill="url(#paint1_linear_321_1924)"/>
</g>
<path d="M98 50.5C98 76.4574 78.0767 97.5 53.5 97.5C28.9234 97.5 58.5001 85.4574 58.5001 59.5C58.5001 33.5426 28.9234 3.5 53.5 3.5C78.0767 3.5 98 24.5426 98 50.5Z" fill="url(#paint2_linear_321_1924)" fill-opacity="0.4"/>
<g clip-path="url(#clip0_321_1924)">
<mask id="path-4-inside-1_321_1924" fill="white">
<path fill-rule="evenodd" clip-rule="evenodd" d="M61.4431 17.5636C61.4905 17.4961 61.5834 17.4797 61.6509 17.527L66.2662 20.7587C66.3337 20.8059 66.3501 20.899 66.3029 20.9665L59.8792 30.1404C63.0021 31.1381 65.1297 32.2142 65.1297 32.2142C65.1297 32.2142 59.9292 41.1596 51.1086 41.1596C42.288 41.1596 36.0202 32.8224 36.0202 32.8224C36.0202 32.8224 38.2427 31.404 41.5371 30.1876L34.4912 21.7907C34.4383 21.7276 34.4465 21.6335 34.5096 21.5805L38.8256 17.9589C38.8889 17.9059 38.9829 17.9142 39.0359 17.9773L47.9571 28.6092C48.721 28.5228 49.4992 28.4745 50.2846 28.4745C51.4133 28.4745 52.5406 28.5603 53.6412 28.7059L61.4431 17.5636ZM63.1882 41.5833C65.542 39.9021 69.1038 35.5144 69.1038 35.5144C69.1038 35.5144 78.2018 42.7241 78.2018 58.0113C78.2018 73.2983 62.4728 82.499 62.4728 82.499C62.4728 82.499 54.9578 74.9096 53.1129 65.289C51.2682 55.6683 55.8419 44.9857 55.8419 44.9857C55.8419 44.9857 60.8342 43.2644 63.1882 41.5833V41.5833ZM37.8378 41.5833C35.484 39.9021 31.9222 35.5144 31.9222 35.5144C31.9222 35.5144 22.8242 42.7241 22.8242 58.0113C22.8242 73.2983 38.5532 82.499 38.5532 82.499C38.5532 82.499 46.0682 74.9096 47.9131 65.289C49.7578 55.6683 45.1841 44.9857 45.1841 44.9857C45.1841 44.9857 40.1918 43.2644 37.8378 41.5833V41.5833Z"/>
</mask>
<path fill-rule="evenodd" clip-rule="evenodd" d="M61.4431 17.5636C61.4905 17.4961 61.5834 17.4797 61.6509 17.527L66.2662 20.7587C66.3337 20.8059 66.3501 20.899 66.3029 20.9665L59.8792 30.1404C63.0021 31.1381 65.1297 32.2142 65.1297 32.2142C65.1297 32.2142 59.9292 41.1596 51.1086 41.1596C42.288 41.1596 36.0202 32.8224 36.0202 32.8224C36.0202 32.8224 38.2427 31.404 41.5371 30.1876L34.4912 21.7907C34.4383 21.7276 34.4465 21.6335 34.5096 21.5805L38.8256 17.9589C38.8889 17.9059 38.9829 17.9142 39.0359 17.9773L47.9571 28.6092C48.721 28.5228 49.4992 28.4745 50.2846 28.4745C51.4133 28.4745 52.5406 28.5603 53.6412 28.7059L61.4431 17.5636ZM63.1882 41.5833C65.542 39.9021 69.1038 35.5144 69.1038 35.5144C69.1038 35.5144 78.2018 42.7241 78.2018 58.0113C78.2018 73.2983 62.4728 82.499 62.4728 82.499C62.4728 82.499 54.9578 74.9096 53.1129 65.289C51.2682 55.6683 55.8419 44.9857 55.8419 44.9857C55.8419 44.9857 60.8342 43.2644 63.1882 41.5833V41.5833ZM37.8378 41.5833C35.484 39.9021 31.9222 35.5144 31.9222 35.5144C31.9222 35.5144 22.8242 42.7241 22.8242 58.0113C22.8242 73.2983 38.5532 82.499 38.5532 82.499C38.5532 82.499 46.0682 74.9096 47.9131 65.289C49.7578 55.6683 45.1841 44.9857 45.1841 44.9857C45.1841 44.9857 40.1918 43.2644 37.8378 41.5833V41.5833Z" fill="white"/>
<path d="M61.4431 17.5636L61.1975 17.3914L61.1974 17.3916L61.4431 17.5636ZM61.6509 17.527L61.823 17.2813L61.8229 17.2812L61.6509 17.527ZM66.2662 20.7587L66.0941 21.0044L66.0942 21.0044L66.2662 20.7587ZM66.3029 20.9665L66.5486 21.1385L66.5487 21.1384L66.3029 20.9665ZM59.8792 30.1404L59.6334 29.9683L59.3997 30.3021L59.7879 30.4262L59.8792 30.1404ZM65.1297 32.2142L65.3891 32.365L65.5489 32.0901L65.2651 31.9465L65.1297 32.2142ZM36.0202 32.8224L35.8588 32.5695L35.5858 32.7437L35.7804 33.0026L36.0202 32.8224ZM41.5371 30.1876L41.641 30.469L42.041 30.3213L41.7669 29.9947L41.5371 30.1876ZM34.4912 21.7907L34.2613 21.9835L34.2614 21.9835L34.4912 21.7907ZM34.5096 21.5805L34.3168 21.3507L34.3167 21.3507L34.5096 21.5805ZM38.8256 17.9589L38.633 17.7289L38.6328 17.7291L38.8256 17.9589ZM39.0359 17.9773L38.806 18.1701L38.8061 18.1701L39.0359 17.9773ZM47.9571 28.6092L47.7273 28.802L47.8308 28.9254L47.9908 28.9073L47.9571 28.6092ZM53.6412 28.7059L53.6019 29.0033L53.7825 29.0272L53.8869 28.878L53.6412 28.7059ZM69.1038 35.5144L69.2902 35.2793L69.0578 35.0951L68.8709 35.3253L69.1038 35.5144ZM62.4728 82.499L62.2596 82.7101L62.4234 82.8754L62.6243 82.7579L62.4728 82.499ZM53.1129 65.289L52.8183 65.3455L52.8183 65.3455L53.1129 65.289ZM55.8419 44.9857L55.7441 44.7021L55.6185 44.7455L55.5661 44.8677L55.8419 44.9857ZM31.9222 35.5144L32.1551 35.3253L31.9682 35.0951L31.7359 35.2793L31.9222 35.5144ZM38.5532 82.499L38.4017 82.7579L38.6026 82.8754L38.7664 82.7101L38.5532 82.499ZM47.9131 65.289L48.2077 65.3455L48.2077 65.3455L47.9131 65.289ZM45.1841 44.9857L45.4599 44.8677L45.4076 44.7455L45.2819 44.7021L45.1841 44.9857ZM61.6887 17.7359C61.6411 17.8038 61.5472 17.8206 61.4789 17.7728L61.8229 17.2812C61.6196 17.1389 61.3398 17.1885 61.1975 17.3914L61.6887 17.7359ZM61.4789 17.7727L66.0941 21.0044L66.4383 20.5129L61.823 17.2813L61.4789 17.7727ZM66.0942 21.0044C66.0259 20.9566 66.0094 20.8626 66.0571 20.7945L66.5487 21.1384C66.6908 20.9353 66.6416 20.6552 66.4382 20.5129L66.0942 21.0044ZM66.0571 20.7944L59.6334 29.9683L60.1249 30.3125L66.5486 21.1385L66.0571 20.7944ZM59.7879 30.4262C61.3386 30.9216 62.6423 31.4365 63.5577 31.8274C64.0153 32.0227 64.3757 32.187 64.621 32.3021C64.7437 32.3597 64.8376 32.4049 64.9006 32.4357C64.9321 32.451 64.9558 32.4627 64.9715 32.4706C64.9794 32.4745 64.9852 32.4774 64.989 32.4793C64.9909 32.4803 64.9923 32.481 64.9932 32.4814C64.9936 32.4816 64.9939 32.4818 64.9941 32.4819C64.9942 32.4819 64.9943 32.4819 64.9943 32.482C64.9943 32.482 64.9943 32.482 64.9943 32.482C64.9943 32.482 64.9943 32.482 65.1297 32.2142C65.2651 31.9465 65.2651 31.9465 65.265 31.9465C65.265 31.9465 65.2649 31.9465 65.2649 31.9464C65.2648 31.9464 65.2647 31.9463 65.2645 31.9462C65.2642 31.9461 65.2637 31.9458 65.2631 31.9455C65.2619 31.9449 65.2602 31.9441 65.258 31.943C65.2536 31.9407 65.2471 31.9375 65.2386 31.9333C65.2216 31.9248 65.1966 31.9125 65.1638 31.8965C65.0982 31.8644 65.0015 31.8178 64.8759 31.7589C64.6247 31.6411 64.258 31.4739 63.7933 31.2755C62.8642 30.8789 61.5426 30.3569 59.9705 29.8546L59.7879 30.4262ZM65.1297 32.2142C64.8703 32.0635 64.8704 32.0634 64.8704 32.0634C64.8704 32.0634 64.8704 32.0634 64.8703 32.0635C64.8702 32.0636 64.8701 32.0639 64.8698 32.0643C64.8693 32.0652 64.8685 32.0665 64.8674 32.0684C64.8652 32.0722 64.8617 32.0781 64.857 32.0861C64.8475 32.102 64.833 32.126 64.8135 32.1577C64.7746 32.221 64.7159 32.3149 64.6377 32.4348C64.4813 32.6747 64.2473 33.0189 63.9388 33.4326C63.3214 34.2605 62.4076 35.3643 61.2225 36.4673C58.8487 38.6768 55.4132 40.8596 51.1086 40.8596V41.4596C55.6246 41.4596 59.1996 39.1698 61.6313 36.9065C62.8489 35.7732 63.7864 34.6407 64.4198 33.7913C64.7367 33.3664 64.9779 33.0117 65.1403 32.7624C65.2216 32.6378 65.2832 32.5394 65.3248 32.4717C65.3456 32.4379 65.3613 32.4117 65.3721 32.3937C65.3774 32.3848 65.3815 32.3778 65.3844 32.373C65.3858 32.3706 65.3869 32.3687 65.3877 32.3674C65.3881 32.3667 65.3884 32.3662 65.3886 32.3658C65.3887 32.3656 65.3888 32.3654 65.3889 32.3653C65.389 32.3652 65.3891 32.365 65.1297 32.2142ZM51.1086 40.8596C46.7927 40.8596 43.0849 38.8185 40.4413 36.7545C39.1219 35.7243 38.0745 34.6937 37.3573 33.921C36.9988 33.5348 36.7233 33.2134 36.5379 32.9894C36.4453 32.8773 36.3751 32.7897 36.3285 32.7304C36.3052 32.7008 36.2878 32.6783 36.2763 32.6634C36.2706 32.656 36.2664 32.6504 36.2636 32.6468C36.2623 32.6451 36.2613 32.6438 36.2607 32.643C36.2604 32.6426 36.2602 32.6423 36.2601 32.6421C36.26 32.6421 36.26 32.6421 36.26 32.642C36.26 32.642 36.26 32.6421 36.0202 32.8224C35.7804 33.0026 35.7805 33.0027 35.7806 33.0029C35.7807 33.003 35.7808 33.0031 35.781 33.0033C35.7812 33.0037 35.7816 33.0042 35.7821 33.0048C35.783 33.006 35.7843 33.0077 35.786 33.0099C35.7894 33.0144 35.7943 33.0208 35.8007 33.0291C35.8135 33.0458 35.8323 33.0701 35.857 33.1015C35.9065 33.1644 35.9797 33.2559 36.0756 33.3718C36.2675 33.6037 36.5505 33.9337 36.9175 34.3291C37.6512 35.1196 38.722 36.1733 40.0721 37.2274C42.7676 39.3321 46.604 41.4596 51.1086 41.4596V40.8596ZM36.0202 32.8224C36.1816 33.0752 36.1816 33.0753 36.1816 33.0753C36.1816 33.0753 36.1816 33.0753 36.1816 33.0753C36.1816 33.0753 36.1817 33.0752 36.1817 33.0752C36.1819 33.0751 36.1822 33.0749 36.1827 33.0746C36.1836 33.074 36.185 33.0731 36.187 33.0719C36.1909 33.0694 36.1969 33.0656 36.2051 33.0605C36.2214 33.0503 36.2461 33.0349 36.2788 33.0149C36.3444 32.9747 36.4423 32.9156 36.5704 32.8407C36.8266 32.6908 37.2033 32.4778 37.6824 32.2269C38.6411 31.7249 40.0084 31.0719 41.641 30.469L41.4332 29.9062C39.7714 30.5198 38.3803 31.1841 37.4041 31.6954C36.9158 31.9511 36.531 32.1687 36.2675 32.3228C36.1358 32.3998 36.0343 32.461 35.9655 32.5032C35.9311 32.5243 35.9048 32.5406 35.8869 32.5518C35.878 32.5574 35.8711 32.5617 35.8665 32.5646C35.8641 32.5661 35.8623 32.5673 35.861 32.5681C35.8604 32.5685 35.8599 32.5688 35.8595 32.569C35.8593 32.5691 35.8592 32.5692 35.8591 32.5693C35.859 32.5693 35.859 32.5694 35.8589 32.5694C35.8589 32.5694 35.8588 32.5695 36.0202 32.8224ZM41.7669 29.9947L34.721 21.5979L34.2614 21.9835L41.3073 30.3804L41.7669 29.9947ZM34.7211 21.598C34.7746 21.6618 34.7662 21.7568 34.7025 21.8103L34.3167 21.3507C34.1268 21.5102 34.102 21.7934 34.2613 21.9835L34.7211 21.598ZM34.7025 21.8103L39.0185 18.1887L38.6328 17.7291L34.3168 21.3507L34.7025 21.8103ZM39.0183 18.1889C38.9548 18.2421 38.8597 18.2341 38.806 18.1701L39.2657 17.7845C39.1062 17.5943 38.8229 17.5698 38.633 17.7289L39.0183 18.1889ZM38.8061 18.1701L47.7273 28.802L48.1869 28.4164L39.2657 17.7844L38.8061 18.1701ZM47.9908 28.9073C48.7446 28.8221 49.5115 28.7745 50.2846 28.7745V28.1745C49.487 28.1745 48.6974 28.2236 47.9234 28.3111L47.9908 28.9073ZM50.2846 28.7745C51.3983 28.7745 52.5123 28.8592 53.6019 29.0033L53.6806 28.4085C52.569 28.2615 51.4283 28.1745 50.2846 28.1745V28.7745ZM53.8869 28.878L61.6889 17.7357L61.1974 17.3916L53.3955 28.5339L53.8869 28.878ZM63.3626 41.8274C64.5686 40.9661 66.0666 39.4266 67.251 38.1199C67.8461 37.4632 68.3672 36.8596 68.7394 36.4202C68.9256 36.2004 69.0747 36.0215 69.1773 35.8975C69.2287 35.8354 69.2684 35.7871 69.2953 35.7542C69.3088 35.7377 69.3191 35.7251 69.3261 35.7166C69.3295 35.7123 69.3322 35.7091 69.334 35.7069C69.3349 35.7058 69.3355 35.705 69.336 35.7044C69.3362 35.7041 69.3364 35.7039 69.3365 35.7037C69.3366 35.7037 69.3367 35.7036 69.3367 35.7035C69.3367 35.7035 69.3368 35.7035 69.1038 35.5144C68.8709 35.3253 68.8709 35.3253 68.8709 35.3253C68.8709 35.3254 68.8709 35.3254 68.8708 35.3255C68.8707 35.3256 68.8706 35.3258 68.8704 35.326C68.87 35.3265 68.8694 35.3272 68.8685 35.3283C68.8669 35.3303 68.8644 35.3334 68.861 35.3375C68.8544 35.3456 68.8444 35.3579 68.8312 35.374C68.8048 35.4062 68.7657 35.4537 68.7151 35.515C68.6137 35.6374 68.4661 35.8145 68.2816 36.0323C67.9125 36.4681 67.396 37.0665 66.8064 37.7169C65.6215 39.0243 64.1617 40.5194 63.0138 41.3391L63.3626 41.8274ZM69.1038 35.5144C68.9175 35.7495 68.9174 35.7495 68.9174 35.7494C68.9174 35.7494 68.9174 35.7494 68.9175 35.7495C68.9176 35.7496 68.9178 35.7498 68.9182 35.7501C68.919 35.7507 68.9203 35.7518 68.9222 35.7533C68.9259 35.7563 68.9318 35.7611 68.9398 35.7676C68.9557 35.7806 68.9799 35.8007 69.0119 35.8278C69.0759 35.8821 69.1709 35.9647 69.2926 36.0757C69.5358 36.2976 69.8854 36.6333 70.306 37.0844C71.1472 37.9865 72.2717 39.3496 73.397 41.1868C75.6467 44.8597 77.9018 50.4303 77.9018 58.0113H78.5018C78.5018 50.305 76.2079 44.6272 73.9086 40.8734C72.7595 38.9973 71.6095 37.6025 70.7448 36.6752C70.3124 36.2115 69.9513 35.8645 69.697 35.6324C69.5698 35.5164 69.4694 35.4291 69.4001 35.3703C69.3655 35.3409 69.3386 35.3187 69.3201 35.3035C69.3108 35.2959 69.3037 35.2901 69.2987 35.2861C69.2962 35.2841 69.2942 35.2825 69.2928 35.2813C69.2921 35.2808 69.2915 35.2803 69.291 35.28C69.2908 35.2798 69.2906 35.2796 69.2905 35.2795C69.2903 35.2794 69.2902 35.2793 69.1038 35.5144ZM77.9018 58.0113C77.9018 65.548 74.0241 71.6 70.118 75.783C68.1669 77.8725 66.215 79.4886 64.7509 80.5822C64.0192 81.1288 63.4099 81.5443 62.9844 81.8228C62.7717 81.962 62.605 82.0668 62.4919 82.1367C62.4353 82.1716 62.3922 82.1977 62.3635 82.2149C62.3491 82.2236 62.3383 82.23 62.3313 82.2342C62.3277 82.2363 62.3251 82.2378 62.3235 82.2388C62.3226 82.2393 62.3221 82.2396 62.3217 82.2398C62.3215 82.2399 62.3214 82.24 62.3213 82.24C62.3213 82.2401 62.3213 82.24 62.4728 82.499C62.6243 82.7579 62.6244 82.7578 62.6247 82.7577C62.6248 82.7576 62.6251 82.7575 62.6254 82.7573C62.626 82.7569 62.6268 82.7565 62.6279 82.7558C62.63 82.7546 62.6331 82.7527 62.6372 82.7503C62.6452 82.7456 62.657 82.7385 62.6724 82.7293C62.7032 82.7108 62.7484 82.6834 62.8071 82.6472C62.9244 82.5748 63.0956 82.4671 63.3129 82.3248C63.7476 82.0404 64.3672 81.6177 65.11 81.0629C66.5952 79.9536 68.5755 78.3141 70.5566 76.1925C74.515 71.9534 78.5018 65.7615 78.5018 58.0113H77.9018ZM62.4728 82.499C62.686 82.2879 62.686 82.2879 62.686 82.2879C62.686 82.2879 62.6859 82.2878 62.6859 82.2878C62.6857 82.2876 62.6854 82.2873 62.685 82.2869C62.6843 82.2862 62.6831 82.2849 62.6814 82.2832C62.6781 82.2798 62.6729 82.2746 62.6661 82.2676C62.6524 82.2535 62.6318 82.2322 62.6046 82.2039C62.5503 82.1472 62.4699 82.0623 62.3667 81.9505C62.1601 81.7269 61.8621 81.3959 61.4983 80.9684C60.7705 80.1132 59.7803 78.8724 58.7327 77.3329C56.6354 74.2507 54.3193 69.987 53.4076 65.2325L52.8183 65.3455C53.7515 70.2116 56.1153 74.5529 58.2367 77.6705C59.2985 79.2309 60.3023 80.4888 61.0413 81.3572C61.4108 81.7915 61.7143 82.1286 61.926 82.3577C62.0318 82.4722 62.1146 82.5597 62.1713 82.6189C62.1997 82.6485 62.2215 82.671 62.2363 82.6863C62.2437 82.6939 62.2494 82.6997 62.2533 82.7037C62.2553 82.7057 62.2568 82.7072 62.2579 82.7083C62.2584 82.7088 62.2588 82.7092 62.2591 82.7095C62.2592 82.7097 62.2594 82.7098 62.2595 82.7099C62.2596 82.71 62.2596 82.7101 62.4728 82.499ZM53.4076 65.2325C52.4966 60.4816 53.1692 55.4532 54.0777 51.5984C54.5313 49.6737 55.0422 48.0478 55.4395 46.9036C55.6381 46.3316 55.8082 45.8804 55.9284 45.5727C55.9885 45.4189 56.0361 45.301 56.0686 45.2219C56.0848 45.1823 56.0972 45.1525 56.1055 45.1327C56.1097 45.1228 56.1128 45.1154 56.1148 45.1106C56.1159 45.1081 56.1166 45.1064 56.1171 45.1052C56.1173 45.1047 56.1175 45.1043 56.1176 45.104C56.1177 45.1039 56.1177 45.1039 56.1177 45.1038C56.1177 45.1038 56.1177 45.1038 55.8419 44.9857C55.5661 44.8677 55.5661 44.8678 55.566 44.8679C55.566 44.868 55.5659 44.8682 55.5658 44.8684C55.5657 44.8688 55.5654 44.8694 55.5651 44.8701C55.5645 44.8716 55.5636 44.8737 55.5624 44.8765C55.5601 44.882 55.5567 44.8901 55.5522 44.9007C55.5433 44.9219 55.5303 44.9532 55.5135 44.9942C55.4798 45.0763 55.4309 45.1973 55.3696 45.3544C55.2469 45.6685 55.0741 46.127 54.8727 46.7068C54.4701 47.8663 53.9529 49.5122 53.4937 51.4608C52.5765 55.3525 51.8845 60.4757 52.8183 65.3455L53.4076 65.2325ZM55.8419 44.9857C55.9397 45.2693 55.9398 45.2693 55.9398 45.2693C55.9399 45.2693 55.9399 45.2693 55.94 45.2692C55.9402 45.2692 55.9405 45.2691 55.9408 45.269C55.9415 45.2687 55.9424 45.2684 55.9437 45.268C55.9462 45.2671 55.9499 45.2658 55.9548 45.2641C55.9646 45.2607 55.979 45.2557 55.9978 45.2491C56.0355 45.2359 56.0908 45.2164 56.1619 45.191C56.3041 45.1403 56.5095 45.066 56.7633 44.9717C57.2707 44.7831 57.9719 44.514 58.7474 44.192C60.2906 43.5511 62.1553 42.6896 63.3626 41.8274L63.0139 41.3391C61.8671 42.1581 60.0587 42.9978 58.5173 43.6379C57.7504 43.9563 57.0565 44.2226 56.5542 44.4093C56.3032 44.5026 56.1002 44.576 55.9602 44.6259C55.8902 44.6509 55.836 44.67 55.7993 44.6829C55.781 44.6893 55.7671 44.6941 55.7578 44.6974C55.7532 44.699 55.7497 44.7002 55.7474 44.701C55.7463 44.7014 55.7454 44.7017 55.7449 44.7019C55.7446 44.702 55.7444 44.702 55.7443 44.7021C55.7442 44.7021 55.7442 44.7021 55.7442 44.7021C55.7441 44.7021 55.7441 44.7021 55.8419 44.9857ZM38.0122 41.3391C36.8644 40.5194 35.4046 39.0243 34.2196 37.7169C33.6301 37.0665 33.1135 36.4681 32.7444 36.0323C32.5599 35.8145 32.4123 35.6374 32.311 35.515C32.2603 35.4537 32.2212 35.4062 32.1948 35.374C32.1817 35.3579 32.1717 35.3456 32.165 35.3375C32.1616 35.3334 32.1591 35.3303 32.1575 35.3283C32.1567 35.3272 32.1561 35.3265 32.1557 35.326C32.1555 35.3258 32.1553 35.3256 32.1552 35.3255C32.1552 35.3254 32.1551 35.3254 32.1551 35.3253C32.1551 35.3253 32.1551 35.3253 31.9222 35.5144C31.6893 35.7035 31.6893 35.7035 31.6893 35.7035C31.6894 35.7036 31.6894 35.7037 31.6895 35.7037C31.6896 35.7039 31.6898 35.7041 31.69 35.7044C31.6905 35.705 31.6912 35.7058 31.6921 35.7069C31.6939 35.7091 31.6965 35.7123 31.7 35.7166C31.7069 35.7251 31.7172 35.7377 31.7307 35.7542C31.7576 35.7871 31.7974 35.8354 31.8487 35.8975C31.9513 36.0215 32.1004 36.2004 32.2866 36.4202C32.6588 36.8596 33.1799 37.4632 33.775 38.1199C34.9594 39.4266 36.4574 40.9661 37.6635 41.8274L38.0122 41.3391ZM31.9222 35.5144C31.7359 35.2793 31.7357 35.2794 31.7355 35.2795C31.7354 35.2796 31.7352 35.2798 31.735 35.28C31.7345 35.2803 31.734 35.2808 31.7333 35.2813C31.7318 35.2825 31.7299 35.2841 31.7274 35.2861C31.7223 35.2901 31.7152 35.2959 31.7059 35.3035C31.6874 35.3187 31.6606 35.3409 31.6259 35.3703C31.5566 35.4291 31.4562 35.5164 31.329 35.6324C31.0748 35.8645 30.7136 36.2115 30.2812 36.6752C29.4165 37.6025 28.2665 38.9973 27.1174 40.8734C24.8181 44.6272 22.5242 50.305 22.5242 58.0113H23.1242C23.1242 50.4303 25.3793 44.8597 27.629 41.1868C28.7544 39.3496 29.8788 37.9865 30.72 37.0844C31.1406 36.6333 31.4902 36.2976 31.7335 36.0757C31.8551 35.9647 31.9501 35.8821 32.0141 35.8278C32.0461 35.8007 32.0703 35.7806 32.0863 35.7676C32.0942 35.7611 32.1001 35.7563 32.1038 35.7533C32.1057 35.7518 32.107 35.7507 32.1078 35.7501C32.1082 35.7498 32.1085 35.7496 32.1086 35.7495C32.1086 35.7494 32.1086 35.7494 32.1086 35.7494C32.1086 35.7495 32.1085 35.7495 31.9222 35.5144ZM22.5242 58.0113C22.5242 65.7615 26.511 71.9534 30.4694 76.1925C32.4505 78.3141 34.4309 79.9536 35.916 81.0629C36.6588 81.6177 37.2784 82.0404 37.7131 82.3248C37.9304 82.4671 38.1016 82.5748 38.219 82.6472C38.2776 82.6834 38.3228 82.7108 38.3536 82.7293C38.369 82.7385 38.3808 82.7456 38.3888 82.7503C38.3929 82.7527 38.396 82.7546 38.3981 82.7558C38.3992 82.7565 38.4 82.7569 38.4006 82.7573C38.4009 82.7575 38.4012 82.7576 38.4014 82.7577C38.4016 82.7578 38.4017 82.7579 38.5532 82.499C38.7047 82.24 38.7047 82.2401 38.7047 82.24C38.7046 82.24 38.7045 82.2399 38.7043 82.2398C38.704 82.2396 38.7034 82.2393 38.7025 82.2388C38.7009 82.2378 38.6983 82.2363 38.6948 82.2342C38.6877 82.23 38.6769 82.2236 38.6625 82.2149C38.6338 82.1977 38.5907 82.1716 38.5342 82.1367C38.4211 82.0668 38.2543 81.962 38.0416 81.8228C37.6161 81.5443 37.0069 81.1288 36.2751 80.5822C34.811 79.4886 32.8591 77.8725 30.908 75.783C27.0019 71.6 23.1242 65.548 23.1242 58.0113H22.5242ZM38.5532 82.499C38.7664 82.7101 38.7665 82.71 38.7666 82.7099C38.7666 82.7098 38.7668 82.7097 38.7669 82.7095C38.7672 82.7092 38.7676 82.7088 38.7682 82.7083C38.7692 82.7072 38.7707 82.7057 38.7727 82.7037C38.7766 82.6997 38.7823 82.6939 38.7897 82.6863C38.8046 82.671 38.8264 82.6485 38.8547 82.6189C38.9114 82.5597 38.9942 82.4722 39.1001 82.3577C39.3117 82.1286 39.6152 81.7915 39.9847 81.3572C40.7237 80.4888 41.7275 79.2309 42.7893 77.6705C44.9107 74.5529 47.2746 70.2116 48.2077 65.3455L47.6184 65.2325C46.7067 69.987 44.3906 74.2507 42.2933 77.3329C41.2457 78.8724 40.2555 80.1132 39.5278 80.9684C39.164 81.3959 38.8659 81.7269 38.6594 81.9505C38.5561 82.0623 38.4757 82.1472 38.4214 82.2039C38.3943 82.2322 38.3736 82.2535 38.3599 82.2676C38.3531 82.2746 38.348 82.2798 38.3446 82.2832C38.343 82.2849 38.3417 82.2862 38.341 82.2869C38.3406 82.2873 38.3403 82.2876 38.3402 82.2878C38.3401 82.2878 38.34 82.2879 38.34 82.2879C38.34 82.2879 38.34 82.2879 38.5532 82.499ZM48.2077 65.3455C49.1415 60.4757 48.4496 55.3525 47.5324 51.4608C47.0731 49.5122 46.5559 47.8663 46.1533 46.7068C45.952 46.127 45.7792 45.6685 45.6564 45.3544C45.5951 45.1973 45.5462 45.0763 45.5126 44.9942C45.4957 44.9532 45.4827 44.9219 45.4738 44.9007C45.4694 44.8901 45.466 44.882 45.4636 44.8765C45.4625 44.8737 45.4616 44.8716 45.4609 44.8701C45.4606 44.8694 45.4604 44.8688 45.4602 44.8684C45.4601 44.8682 45.46 44.868 45.46 44.8679C45.4599 44.8678 45.4599 44.8677 45.1841 44.9857C44.9083 45.1038 44.9083 45.1038 44.9083 45.1038C44.9083 45.1039 44.9084 45.1039 44.9084 45.104C44.9085 45.1043 44.9087 45.1047 44.9089 45.1052C44.9094 45.1064 44.9102 45.1081 44.9112 45.1106C44.9132 45.1154 44.9163 45.1228 44.9205 45.1327C44.9288 45.1525 44.9412 45.1823 44.9574 45.2219C44.9899 45.301 45.0375 45.4189 45.0976 45.5727C45.2178 45.8804 45.3879 46.3316 45.5865 46.9036C45.9838 48.0478 46.4948 49.6737 46.9484 51.5984C47.8568 55.4532 48.5294 60.4816 47.6184 65.2325L48.2077 65.3455ZM45.1841 44.9857C45.2819 44.7021 45.2819 44.7021 45.2819 44.7021C45.2818 44.7021 45.2818 44.7021 45.2817 44.7021C45.2816 44.702 45.2814 44.702 45.2811 44.7019C45.2806 44.7017 45.2797 44.7014 45.2786 44.701C45.2763 44.7002 45.2728 44.699 45.2682 44.6974C45.2589 44.6941 45.245 44.6893 45.2267 44.6829C45.1901 44.67 45.1358 44.6509 45.0658 44.6259C44.9258 44.576 44.7228 44.5026 44.4718 44.4093C43.9696 44.2226 43.2756 43.9563 42.5087 43.6379C40.9673 42.9978 39.1589 42.1581 38.0122 41.3391L37.6635 41.8274C38.8707 42.6896 40.7354 43.5511 42.2786 44.192C43.0541 44.514 43.7553 44.7831 44.2627 44.9717C44.5165 45.066 44.7219 45.1403 44.8642 45.191C44.9353 45.2164 44.9906 45.2359 45.0282 45.2491C45.047 45.2557 45.0614 45.2607 45.0712 45.2641C45.0761 45.2658 45.0798 45.2671 45.0823 45.268C45.0836 45.2684 45.0846 45.2687 45.0852 45.269C45.0855 45.2691 45.0858 45.2692 45.086 45.2692C45.0861 45.2693 45.0862 45.2693 45.0862 45.2693C45.0863 45.2693 45.0863 45.2693 45.1841 44.9857Z" fill="url(#paint3_linear_321_1924)" mask="url(#path-4-inside-1_321_1924)"/>
</g>
<defs>
<linearGradient id="paint0_linear_321_1924" x1="106.5" y1="2.5" x2="43.5" y2="100.5" gradientUnits="userSpaceOnUse">
<stop stop-color="#B2B2B2"/>
<stop offset="1" stop-color="#C0C0C0"/>
</linearGradient>
<linearGradient id="paint1_linear_321_1924" x1="2" y1="29.5" x2="24.5" y2="98.5" gradientUnits="userSpaceOnUse">
<stop stop-color="#DBDCDC" stop-opacity="0.5"/>
<stop offset="1" stop-color="#DBDCDC" stop-opacity="0"/>
</linearGradient>
<linearGradient id="paint2_linear_321_1924" x1="87.5" y1="9.5" x2="13" y2="129" gradientUnits="userSpaceOnUse">
<stop stop-color="white"/>
<stop offset="1" stop-color="white" stop-opacity="0"/>
</linearGradient>
<linearGradient id="paint3_linear_321_1924" x1="81.8013" y1="18.8" x2="38.5175" y2="76.1639" gradientUnits="userSpaceOnUse">
<stop stop-color="#B2B2B2"/>
<stop offset="1" stop-color="#C0C0C0"/>
</linearGradient>
<clipPath id="clip0_321_1924">
<rect width="65" height="65" fill="white" transform="translate(18 17.5)"/>
</clipPath>
</defs>
</svg>
