<svg width="100" height="100" viewBox="0 0 100 100" fill="none" xmlns="http://www.w3.org/2000/svg">
<circle cx="50" cy="50" r="50" fill="url(#paint0_linear_239_1553)"/>
<g style="mix-blend-mode:multiply">
<path d="M10 50.5C10 71.763 17 85 17 85C17 85 2 71.763 2 50.5C2 29.237 15 18 15 18C15 18 10 29.237 10 50.5Z" fill="url(#paint1_linear_239_1553)"/>
</g>
<path d="M98 50C98 75.9574 78.0767 97 53.5 97C28.9234 97 58.5001 84.9574 58.5001 59C58.5001 33.0426 28.9234 3 53.5 3C78.0767 3 98 24.0426 98 50Z" fill="url(#paint2_linear_239_1553)" fill-opacity="0.4"/>
<path fill-rule="evenodd" clip-rule="evenodd" d="M24.2918 34.3529H53.9174C55.6445 34.3529 57.0609 35.7012 57.1982 37.4161L57.209 37.6898V81.0693C57.209 82.8201 55.8789 84.256 54.1872 84.3952L53.9174 84.4062H24.2918C22.5647 84.4062 21.1483 83.0579 21.011 81.343L21 81.0693V37.6898C21 35.939 22.33 34.5032 24.0217 34.364L24.2918 34.3529ZM72.0219 16C75.6578 16 78.6053 18.9879 78.6053 22.6738V66.0533C78.6053 69.7392 75.6578 72.7272 72.0219 72.7272L60.5001 72.7268L60.5008 37.6898C60.5008 34.1228 57.7404 31.2095 54.267 31.0252L53.9174 31.016L35.8127 31.0152V22.6738C35.8127 18.9879 38.7604 16 42.3963 16H72.0219ZM49.6533 61.0041C48.7963 66.1125 44.3535 70.0049 39.0016 70.0049C33.6498 70.0049 29.207 66.1125 28.35 61.0041H33.9084C34.6498 63.1017 36.6502 64.6044 39.0016 64.6044C41.3531 64.6044 43.3535 63.1017 44.0948 61.0041H49.6533ZM49.8026 59.2039C49.8026 53.2387 44.9669 48.403 39.0016 48.403C33.0364 48.403 28.2007 53.2387 28.2007 59.2039H33.6012C33.6012 56.2213 36.019 53.8035 39.0016 53.8035C41.9843 53.8035 44.4021 56.2213 44.4021 59.2039H49.8026ZM42.602 59.2039C42.602 57.2155 40.9901 55.6036 39.0016 55.6036C37.0132 55.6036 35.4013 57.2155 35.4013 59.2039C35.4013 61.1924 37.0132 62.8043 39.0016 62.8043C40.9901 62.8043 42.602 61.1924 42.602 59.2039Z" fill="white"/>
<path d="M24.2918 34.3529V34.2028L24.2857 34.203L24.2918 34.3529ZM57.1982 37.4161L57.3482 37.4102L57.3477 37.4042L57.1982 37.4161ZM57.209 37.6898H57.3591L57.3589 37.6839L57.209 37.6898ZM54.1872 84.3952L54.1934 84.5452L54.1995 84.5447L54.1872 84.3952ZM53.9174 84.4062V84.5564L53.9235 84.5561L53.9174 84.4062ZM21.011 81.343L20.861 81.3491L20.8615 81.355L21.011 81.343ZM21 81.0693H20.8499L20.8501 81.0754L21 81.0693ZM24.0217 34.364L24.0156 34.214L24.0094 34.2145L24.0217 34.364ZM72.0219 72.7272L72.0219 72.8772H72.0219V72.7272ZM60.5001 72.7268L60.3501 72.7268V72.8768L60.5001 72.8768L60.5001 72.7268ZM60.5008 37.6898L60.6508 37.6898V37.6898H60.5008ZM54.267 31.0252L54.275 30.8754L54.271 30.8753L54.267 31.0252ZM53.9174 31.016L53.9213 30.866H53.9174L53.9174 31.016ZM35.8127 31.0152H35.6627V31.1652L35.8127 31.1652L35.8127 31.0152ZM49.6533 61.0041L49.8012 61.0289L49.8306 60.8541H49.6533V61.0041ZM28.35 61.0041V60.8541H28.1727L28.2021 61.0289L28.35 61.0041ZM33.9084 61.0041L34.0499 60.9541L34.0145 60.8541H33.9084V61.0041ZM44.0948 61.0041V60.8541H43.9888L43.9534 60.9541L44.0948 61.0041ZM49.8026 59.2039V59.354H49.9526V59.2039H49.8026ZM28.2007 59.2039H28.0507V59.354H28.2007V59.2039ZM33.6012 59.2039V59.354H33.7512V59.2039H33.6012ZM44.4021 59.2039H44.2521V59.354H44.4021V59.2039ZM53.9174 34.2029H24.2918V34.5029H53.9174V34.2029ZM57.3477 37.4042C57.2044 35.6136 55.725 34.2029 53.9174 34.2029V34.5029C55.5639 34.5029 56.9174 35.7888 57.0487 37.4281L57.3477 37.4042ZM57.3589 37.6839L57.3481 37.4102L57.0483 37.422L57.0591 37.6957L57.3589 37.6839ZM57.359 81.0693V37.6898H57.059V81.0693H57.359ZM54.1995 84.5447C55.9701 84.399 57.359 82.8971 57.359 81.0693H57.059C57.059 82.7431 55.7878 84.113 54.1749 84.2457L54.1995 84.5447ZM53.9235 84.5561L54.1934 84.5451L54.1811 84.2453L53.9113 84.2564L53.9235 84.5561ZM24.2918 84.5563H53.9174V84.2562H24.2918V84.5563ZM20.8615 81.355C21.0049 83.1455 22.4842 84.5563 24.2918 84.5563V84.2562C22.6453 84.2562 21.2918 82.9704 21.1605 81.3311L20.8615 81.355ZM20.8501 81.0754L20.8611 81.3491L21.1609 81.337L21.1499 81.0633L20.8501 81.0754ZM20.85 37.6898V81.0693H21.15V37.6898H20.85ZM24.0094 34.2145C22.2389 34.3602 20.85 35.862 20.85 37.6898H21.15C21.15 36.016 22.4212 34.6462 24.034 34.5134L24.0094 34.2145ZM24.2857 34.203L24.0156 34.2141L24.0279 34.5138L24.2979 34.5028L24.2857 34.203ZM78.7553 22.6738C78.7553 18.907 75.7426 15.85 72.0219 15.85V16.15C75.573 16.15 78.4553 19.0688 78.4553 22.6738H78.7553ZM78.7553 66.0533V22.6738H78.4553V66.0533H78.7553ZM72.0219 72.8772C75.7426 72.8772 78.7553 69.8201 78.7553 66.0533H78.4553C78.4553 69.6583 75.573 72.5772 72.0219 72.5772V72.8772ZM60.5001 72.8768L72.0219 72.8772L72.0219 72.5772L60.5001 72.5768L60.5001 72.8768ZM60.3508 37.6898L60.3501 72.7268L60.6501 72.7268L60.6508 37.6898L60.3508 37.6898ZM54.2591 31.175C57.6515 31.355 60.3508 34.2012 60.3508 37.6898H60.6508C60.6508 34.0444 57.8293 31.064 54.275 30.8754L54.2591 31.175ZM53.9134 31.1659L54.263 31.1752L54.271 30.8753L53.9213 30.8661L53.9134 31.1659ZM35.8127 31.1652L53.9174 31.166L53.9174 30.866L35.8127 30.8652L35.8127 31.1652ZM35.6627 22.6738V31.0152H35.9627V22.6738H35.6627ZM42.3963 15.85C38.6756 15.85 35.6627 18.907 35.6627 22.6738H35.9627C35.9627 19.0688 38.8451 16.15 42.3963 16.15V15.85ZM72.0219 15.85H42.3963V16.15H72.0219V15.85ZM39.0016 70.1549C44.428 70.1549 48.9323 66.2083 49.8012 61.0289L49.5054 60.9793C48.6603 66.0166 44.2791 69.8549 39.0016 69.8549V70.1549ZM28.2021 61.0289C29.071 66.2083 33.5753 70.1549 39.0016 70.1549V69.8549C33.7242 69.8549 29.343 66.0166 28.4979 60.9793L28.2021 61.0289ZM33.9084 60.8541H28.35V61.1541H33.9084V60.8541ZM39.0016 64.4544C36.7158 64.4544 34.7707 62.9936 34.0499 60.9541L33.767 61.0541C34.5289 63.2097 36.5847 64.7544 39.0016 64.7544V64.4544ZM43.9534 60.9541C43.2326 62.9936 41.2875 64.4544 39.0016 64.4544V64.7544C41.4186 64.7544 43.4744 63.2097 44.2363 61.0541L43.9534 60.9541ZM49.6533 60.8541H44.0948V61.1541H49.6533V60.8541ZM49.9526 59.2039C49.9526 53.1559 45.0497 48.253 39.0016 48.253V48.553C44.884 48.553 49.6526 53.3216 49.6526 59.2039H49.9526ZM39.0016 48.253C32.9536 48.253 28.0507 53.1559 28.0507 59.2039H28.3507C28.3507 53.3216 33.1193 48.553 39.0016 48.553V48.253ZM28.2007 59.354H33.6012V59.0539H28.2007V59.354ZM33.7512 59.2039C33.7512 56.3042 36.1019 53.9535 39.0016 53.9535V53.6535C35.9362 53.6535 33.4512 56.1385 33.4512 59.2039H33.7512ZM39.0016 53.9535C41.9014 53.9535 44.2521 56.3042 44.2521 59.2039H44.5521C44.5521 56.1385 42.0671 53.6535 39.0016 53.6535V53.9535ZM44.4021 59.354H49.8026V59.0539H44.4021V59.354ZM42.752 59.2039C42.752 57.1327 41.0729 55.4536 39.0016 55.4536V55.7536C40.9072 55.7536 42.452 57.2984 42.452 59.2039H42.752ZM39.0016 55.4536C36.9304 55.4536 35.2513 57.1327 35.2513 59.2039H35.5513C35.5513 57.2984 37.0961 55.7536 39.0016 55.7536V55.4536ZM35.2513 59.2039C35.2513 61.2752 36.9304 62.9543 39.0016 62.9543V62.6543C37.0961 62.6543 35.5513 61.1095 35.5513 59.2039H35.2513ZM39.0016 62.9543C41.0729 62.9543 42.752 61.2752 42.752 59.2039H42.452C42.452 61.1095 40.9072 62.6543 39.0016 62.6543V62.9543Z" fill="#B2B2B2"/>
<defs>
<linearGradient id="paint0_linear_239_1553" x1="106.5" y1="2" x2="43.5" y2="100" gradientUnits="userSpaceOnUse">
<stop stop-color="#B2B2B2"/>
<stop offset="1" stop-color="#C0C0C0"/>
</linearGradient>
<linearGradient id="paint1_linear_239_1553" x1="2" y1="29" x2="24.5" y2="98" gradientUnits="userSpaceOnUse">
<stop stop-color="#DBDCDC" stop-opacity="0.5"/>
<stop offset="1" stop-color="#DBDCDC" stop-opacity="0"/>
</linearGradient>
<linearGradient id="paint2_linear_239_1553" x1="87.5" y1="9" x2="13" y2="128.5" gradientUnits="userSpaceOnUse">
<stop stop-color="white"/>
<stop offset="1" stop-color="white" stop-opacity="0"/>
</linearGradient>
</defs>
</svg>
