<svg width="100" height="101" viewBox="0 0 100 101" fill="none" xmlns="http://www.w3.org/2000/svg">
<circle cx="50" cy="50.5" r="50" fill="url(#paint0_linear_323_2097)"/>
<g style="mix-blend-mode:multiply">
<path d="M10 51C10 72.263 17 85.5 17 85.5C17 85.5 2 72.263 2 51C2 29.737 15 18.5 15 18.5C15 18.5 10 29.737 10 51Z" fill="url(#paint1_linear_323_2097)"/>
</g>
<path d="M98 50.5C98 76.4574 78.0767 97.5 53.5 97.5C28.9234 97.5 58.5001 85.4574 58.5001 59.5C58.5001 33.5426 28.9234 3.5 53.5 3.5C78.0767 3.5 98 24.5426 98 50.5Z" fill="url(#paint2_linear_323_2097)" fill-opacity="0.4"/>
<mask id="path-4-inside-1_323_2097" fill="white">
<path fill-rule="evenodd" clip-rule="evenodd" d="M37.368 18.5741C37.3554 18.5378 37.3824 18.5 37.4208 18.5H60.2506C60.2751 18.5 60.2968 18.5159 60.3041 18.5393L70.7902 52.4182C70.8012 52.4541 70.7744 52.4906 70.7367 52.4906H55.538C55.5195 52.4906 55.5061 52.5082 55.5112 52.5261L64.2281 83.2113C64.2451 83.2709 64.167 83.3097 64.1298 83.2602L30.2547 38.2116C30.227 38.1748 30.2533 38.1223 30.2993 38.1223H44.0934C44.1126 38.1223 44.1261 38.1033 44.1197 38.0852L37.368 18.5741Z"/>
</mask>
<path fill-rule="evenodd" clip-rule="evenodd" d="M37.368 18.5741C37.3554 18.5378 37.3824 18.5 37.4208 18.5H60.2506C60.2751 18.5 60.2968 18.5159 60.3041 18.5393L70.7902 52.4182C70.8012 52.4541 70.7744 52.4906 70.7367 52.4906H55.538C55.5195 52.4906 55.5061 52.5082 55.5112 52.5261L64.2281 83.2113C64.2451 83.2709 64.167 83.3097 64.1298 83.2602L30.2547 38.2116C30.227 38.1748 30.2533 38.1223 30.2993 38.1223H44.0934C44.1126 38.1223 44.1261 38.1033 44.1197 38.0852L37.368 18.5741Z" fill="white"/>
<path d="M37.368 18.5741L37.6515 18.476L37.6514 18.4759L37.368 18.5741ZM60.3041 18.5393L60.0175 18.628L60.0175 18.628L60.3041 18.5393ZM70.7902 52.4182L71.0769 52.33L71.0767 52.3295L70.7902 52.4182ZM55.5112 52.5261L55.2226 52.608L55.2226 52.6081L55.5112 52.5261ZM64.2281 83.2113L63.9395 83.2933L63.9396 83.2937L64.2281 83.2113ZM64.1298 83.2602L64.3697 83.08L64.3696 83.0799L64.1298 83.2602ZM30.2547 38.2116L30.0149 38.3919L30.0149 38.3919L30.2547 38.2116ZM44.1197 38.0852L43.8362 38.1833L43.8365 38.1842L44.1197 38.0852ZM37.6514 18.4759C37.7066 18.6352 37.5879 18.8 37.4208 18.8V18.2C37.1769 18.2 37.0042 18.4405 37.0845 18.6723L37.6514 18.4759ZM37.4208 18.8H60.2506V18.2H37.4208V18.8ZM60.2506 18.8C60.1442 18.8 60.0493 18.7309 60.0175 18.628L60.5907 18.4506C60.5444 18.301 60.406 18.2 60.2506 18.2V18.8ZM60.0175 18.628L70.5036 52.5069L71.0767 52.3295L60.5907 18.4506L60.0175 18.628ZM70.5034 52.5063C70.4553 52.3499 70.572 52.1906 70.7367 52.1906V52.7906C70.9768 52.7906 71.1471 52.5583 71.0769 52.33L70.5034 52.5063ZM70.7367 52.1906H55.538V52.7906H70.7367V52.1906ZM55.538 52.1906C55.3197 52.1906 55.1634 52.3992 55.2226 52.608L55.7998 52.4442C55.8489 52.6172 55.7193 52.7906 55.538 52.7906V52.1906ZM55.2226 52.6081L63.9395 83.2933L64.5167 83.1293L55.7998 52.4441L55.2226 52.6081ZM63.9396 83.2937C63.8654 83.0339 64.2066 82.863 64.3697 83.08L63.89 83.4404C64.1274 83.7564 64.6248 83.5078 64.5165 83.1289L63.9396 83.2937ZM64.3696 83.0799L30.4945 38.0313L30.0149 38.3919L63.89 83.4405L64.3696 83.0799ZM30.4945 38.0314C30.6156 38.1924 30.5006 38.4223 30.2993 38.4223V37.8223C30.0061 37.8223 29.8385 38.1573 30.0149 38.3919L30.4945 38.0314ZM30.2993 38.4223H44.0934V37.8223H30.2993V38.4223ZM44.0934 38.4223C44.3192 38.4223 44.4774 38.1994 44.4029 37.9862L43.8365 38.1842C43.7747 38.0073 43.906 37.8223 44.0934 37.8223V38.4223ZM44.4032 37.9871L37.6515 18.476L37.0845 18.6722L43.8362 38.1833L44.4032 37.9871Z" fill="url(#paint3_linear_323_2097)" mask="url(#path-4-inside-1_323_2097)"/>
<defs>
<linearGradient id="paint0_linear_323_2097" x1="106.5" y1="2.5" x2="43.5" y2="100.5" gradientUnits="userSpaceOnUse">
<stop stop-color="#B2B2B2"/>
<stop offset="1" stop-color="#C0C0C0"/>
</linearGradient>
<linearGradient id="paint1_linear_323_2097" x1="2" y1="29.5" x2="24.5" y2="98.5" gradientUnits="userSpaceOnUse">
<stop stop-color="#DBDCDC" stop-opacity="0.5"/>
<stop offset="1" stop-color="#DBDCDC" stop-opacity="0"/>
</linearGradient>
<linearGradient id="paint2_linear_323_2097" x1="87.5" y1="9.5" x2="13" y2="129" gradientUnits="userSpaceOnUse">
<stop stop-color="white"/>
<stop offset="1" stop-color="white" stop-opacity="0"/>
</linearGradient>
<linearGradient id="paint3_linear_323_2097" x1="73.4284" y1="19.7957" x2="28.5823" y2="63.4607" gradientUnits="userSpaceOnUse">
<stop stop-color="#B2B2B2"/>
<stop offset="1" stop-color="#C0C0C0"/>
</linearGradient>
</defs>
</svg>
