<svg width="100" height="101" viewBox="0 0 100 101" fill="none" xmlns="http://www.w3.org/2000/svg">
<mask id="path-1-inside-1_323_2105" fill="white">
<path d="M100 50.5C100 78.1142 77.6142 100.5 50 100.5C22.3858 100.5 0 78.1142 0 50.5C0 22.8858 22.3858 0.5 50 0.5C77.6142 0.5 100 22.8858 100 50.5Z"/>
<path d="M10 51C10 72.263 17 85.5 17 85.5C17 85.5 2 72.263 2 51C2 29.737 15 18.5 15 18.5C15 18.5 10 29.737 10 51Z"/>
<path fill-rule="evenodd" clip-rule="evenodd" d="M31.0414 70.0402L41.467 67.0172L50.4718 83.4818C50.4836 83.5032 50.5142 83.5032 50.5259 83.4818L59.5307 67.0172L69.9565 70.0402C69.9798 70.0469 70.0015 70.0252 69.9945 70.0018L66.971 59.7825L82.9817 51.0259C83.0032 51.0142 83.0032 50.9836 82.9818 50.9719L66.8391 42.1431L69.9945 31.4778C70.0015 31.4544 69.9798 31.4327 69.9565 31.4394L59.2862 34.5334L50.5259 18.516C50.5142 18.4947 50.4836 18.4947 50.4719 18.516L41.7117 34.5334L31.0414 31.4394C31.018 31.4327 30.9963 31.4544 31.0033 31.4778L34.1587 42.1431L18.016 50.9719C17.9947 50.9836 17.9947 51.0142 18.016 51.0259L34.0267 59.7825L31.0033 70.0018C30.9963 70.0252 31.018 70.0469 31.0414 70.0402ZM39.1316 51.1112L46.5176 55.1507L50.5571 62.5366C50.5688 62.5581 50.5995 62.5581 50.6112 62.5366L54.6507 55.1507L62.0366 51.1112C62.0579 51.0995 62.0579 51.0688 62.0366 51.0571L54.6507 47.0176L50.6112 39.6317C50.5995 39.6103 50.5688 39.6103 50.5571 39.6317L46.5176 47.0176L39.1316 51.0571C39.1103 51.0688 39.1103 51.0995 39.1316 51.1112Z"/>
</mask>
<path d="M100 50.5C100 78.1142 77.6142 100.5 50 100.5C22.3858 100.5 0 78.1142 0 50.5C0 22.8858 22.3858 0.5 50 0.5C77.6142 0.5 100 22.8858 100 50.5Z" fill="url(#paint0_linear_323_2105)"/>
<path d="M10 51C10 72.263 17 85.5 17 85.5C17 85.5 2 72.263 2 51C2 29.737 15 18.5 15 18.5C15 18.5 10 29.737 10 51Z" fill="url(#paint1_linear_323_2105)"/>
<path fill-rule="evenodd" clip-rule="evenodd" d="M31.0414 70.0402L41.467 67.0172L50.4718 83.4818C50.4836 83.5032 50.5142 83.5032 50.5259 83.4818L59.5307 67.0172L69.9565 70.0402C69.9798 70.0469 70.0015 70.0252 69.9945 70.0018L66.971 59.7825L82.9817 51.0259C83.0032 51.0142 83.0032 50.9836 82.9818 50.9719L66.8391 42.1431L69.9945 31.4778C70.0015 31.4544 69.9798 31.4327 69.9565 31.4394L59.2862 34.5334L50.5259 18.516C50.5142 18.4947 50.4836 18.4947 50.4719 18.516L41.7117 34.5334L31.0414 31.4394C31.018 31.4327 30.9963 31.4544 31.0033 31.4778L34.1587 42.1431L18.016 50.9719C17.9947 50.9836 17.9947 51.0142 18.016 51.0259L34.0267 59.7825L31.0033 70.0018C30.9963 70.0252 31.018 70.0469 31.0414 70.0402ZM39.1316 51.1112L46.5176 55.1507L50.5571 62.5366C50.5688 62.5581 50.5995 62.5581 50.6112 62.5366L54.6507 55.1507L62.0366 51.1112C62.0579 51.0995 62.0579 51.0688 62.0366 51.0571L54.6507 47.0176L50.6112 39.6317C50.5995 39.6103 50.5688 39.6103 50.5571 39.6317L46.5176 47.0176L39.1316 51.0571C39.1103 51.0688 39.1103 51.0995 39.1316 51.1112Z" fill="white"/>
<path d="M17 85.5L16.8015 85.7249L17.2652 85.3598L17 85.5ZM15 18.5L15.2741 18.622L14.8038 18.273L15 18.5ZM31.0414 70.0402L31.1244 70.3285L31.1249 70.3283L31.0414 70.0402ZM41.467 67.0172L41.7302 66.8732L41.6147 66.662L41.3835 66.729L41.467 67.0172ZM50.4718 83.4818L50.2086 83.6258L50.2093 83.6271L50.4718 83.4818ZM50.5259 83.4818L50.789 83.6259L50.7891 83.6258L50.5259 83.4818ZM59.5307 67.0172L59.6142 66.729L59.383 66.662L59.2675 66.8732L59.5307 67.0172ZM69.9565 70.0402L69.8729 70.3283L69.8734 70.3285L69.9565 70.0402ZM69.9945 70.0018L69.7069 70.0869L69.7071 70.0877L69.9945 70.0018ZM66.971 59.7825L66.8271 59.5193L66.6147 59.6355L66.6834 59.8676L66.971 59.7825ZM82.9817 51.0259L82.8383 50.7624L82.8378 50.7627L82.9817 51.0259ZM82.9818 50.9719L83.1259 50.7088L83.1258 50.7087L82.9818 50.9719ZM66.8391 42.1431L66.5514 42.058L66.4828 42.2902L66.6952 42.4063L66.8391 42.1431ZM69.9945 31.4778L69.7071 31.3919L69.7069 31.3927L69.9945 31.4778ZM69.9565 31.4394L69.8734 31.1512L69.8729 31.1513L69.9565 31.4394ZM59.2862 34.5334L59.023 34.6774L59.1385 34.8886L59.3697 34.8215L59.2862 34.5334ZM50.5259 18.516L50.2627 18.66L50.2627 18.66L50.5259 18.516ZM50.4719 18.516L50.7351 18.66L50.7352 18.66L50.4719 18.516ZM41.7117 34.5334L41.6281 34.8215L41.8594 34.8886L41.9749 34.6774L41.7117 34.5334ZM31.0414 31.4394L31.1249 31.1513L31.1244 31.1512L31.0414 31.4394ZM31.0033 31.4778L31.291 31.3927L31.2907 31.3919L31.0033 31.4778ZM34.1587 42.1431L34.3027 42.4063L34.5151 42.2902L34.4464 42.058L34.1587 42.1431ZM18.016 50.9719L18.16 51.2352L18.16 51.2351L18.016 50.9719ZM18.016 51.0259L18.16 50.7627L18.16 50.7627L18.016 51.0259ZM34.0267 59.7825L34.3144 59.8676L34.383 59.6355L34.1706 59.5193L34.0267 59.7825ZM31.0033 70.0018L31.2907 70.0877L31.291 70.0869L31.0033 70.0018ZM39.1316 51.1112L38.9875 51.3743L38.9876 51.3744L39.1316 51.1112ZM46.5176 55.1507L46.7808 55.0068L46.7387 54.9297L46.6616 54.8875L46.5176 55.1507ZM50.5571 62.5366L50.8206 62.3932L50.8203 62.3927L50.5571 62.5366ZM50.6112 62.5366L50.348 62.3927L50.3477 62.3932L50.6112 62.5366ZM54.6507 55.1507L54.5068 54.8875L54.4297 54.9297L54.3875 55.0068L54.6507 55.1507ZM62.0366 51.1112L62.1806 51.3744L62.1807 51.3743L62.0366 51.1112ZM62.0366 51.0571L62.1807 50.794L62.1806 50.7939L62.0366 51.0571ZM54.6507 47.0176L54.3875 47.1616L54.4297 47.2387L54.5068 47.2808L54.6507 47.0176ZM50.6112 39.6317L50.3477 39.7752L50.348 39.7757L50.6112 39.6317ZM50.5571 39.6317L50.8203 39.7757L50.8206 39.7752L50.5571 39.6317ZM46.5176 47.0176L46.6616 47.2808L46.7387 47.2387L46.7808 47.1616L46.5176 47.0176ZM39.1316 51.0571L38.9876 50.7939L38.9875 50.794L39.1316 51.0571ZM99.7 50.5C99.7 77.9486 77.4486 100.2 50 100.2V100.8C77.7799 100.8 100.3 78.2799 100.3 50.5H99.7ZM50 100.2C22.5514 100.2 0.3 77.9486 0.3 50.5H-0.3C-0.3 78.2799 22.2201 100.8 50 100.8V100.2ZM0.3 50.5C0.3 23.0514 22.5514 0.8 50 0.8V0.2C22.2201 0.2 -0.3 22.7201 -0.3 50.5H0.3ZM50 0.8C77.4486 0.8 99.7 23.0514 99.7 50.5H100.3C100.3 22.7201 77.7799 0.2 50 0.2V0.8ZM9.7 51C9.7 61.6644 11.4554 70.318 13.2121 76.308C14.0905 79.3031 14.9693 81.6326 15.6294 83.215C15.9594 84.0062 16.2348 84.6107 16.4282 85.0183C16.5249 85.2221 16.601 85.3766 16.6533 85.4807C16.6794 85.5328 16.6995 85.5722 16.7133 85.5988C16.7201 85.6122 16.7254 85.6223 16.729 85.6292C16.7308 85.6326 16.7322 85.6353 16.7332 85.6371C16.7336 85.6381 16.734 85.6388 16.7343 85.6393C16.7344 85.6396 16.7346 85.6398 16.7346 85.6399C16.7347 85.6401 16.7348 85.6402 17 85.5C17.2652 85.3598 17.2652 85.3598 17.2652 85.3598C17.2652 85.3597 17.2651 85.3596 17.2651 85.3595C17.2649 85.3592 17.2647 85.3587 17.2643 85.358C17.2636 85.3566 17.2624 85.3545 17.2609 85.3515C17.2577 85.3455 17.253 85.3363 17.2466 85.3239C17.2338 85.2992 17.2147 85.2617 17.1895 85.2116C17.1392 85.1114 17.065 84.9608 16.9703 84.7611C16.7808 84.3617 16.5093 83.766 16.1831 82.984C15.5307 81.42 14.6595 79.1112 13.7879 76.1392C12.0446 70.1949 10.3 61.5985 10.3 51H9.7ZM17 85.5C17.1985 85.2751 17.1985 85.2751 17.1985 85.2751C17.1984 85.275 17.1983 85.2749 17.1982 85.2748C17.1978 85.2745 17.1973 85.274 17.1965 85.2733C17.1949 85.2719 17.1924 85.2696 17.189 85.2666C17.1823 85.2606 17.172 85.2514 17.1583 85.239C17.1309 85.2142 17.0898 85.1766 17.0358 85.1264C16.9279 85.0261 16.7688 84.8755 16.5659 84.6758C16.1599 84.2764 15.5784 83.681 14.8799 82.8995C13.4828 81.3365 11.6185 79.0308 9.75401 76.064C6.0245 70.1295 2.3 61.5594 2.3 51H1.7C1.7 61.7036 5.4755 70.3835 9.24599 76.3832C11.1315 79.3835 13.0172 81.716 14.4326 83.2994C15.1403 84.0912 15.7308 84.696 16.1451 85.1036C16.3523 85.3074 16.5154 85.4619 16.6273 85.5659C16.6832 85.6179 16.7263 85.6572 16.7556 85.6838C16.7703 85.6971 16.7815 85.7071 16.7892 85.714C16.7931 85.7174 16.796 85.7201 16.7981 85.7219C16.7991 85.7228 16.7999 85.7235 16.8005 85.724C16.8007 85.7243 16.801 85.7245 16.8012 85.7246C16.8014 85.7248 16.8015 85.7249 17 85.5ZM2.3 51C2.3 40.4322 5.53001 32.3596 8.75788 26.9297C10.3721 24.2143 11.9856 22.1601 13.194 20.7861C13.7982 20.0992 14.3009 19.5825 14.6515 19.2385C14.8268 19.0665 14.9641 18.9376 15.057 18.8523C15.1034 18.8096 15.1388 18.7778 15.1623 18.7569C15.174 18.7464 15.1827 18.7387 15.1884 18.7337C15.1913 18.7312 15.1934 18.7294 15.1946 18.7283C15.1953 18.7277 15.1957 18.7273 15.196 18.7271C15.1961 18.727 15.1962 18.727 15.1962 18.7269C15.1962 18.7269 15.1962 18.727 15 18.5C14.8038 18.273 14.8037 18.2732 14.8035 18.2733C14.8033 18.2735 14.8031 18.2737 14.8028 18.2739C14.8023 18.2744 14.8015 18.275 14.8006 18.2758C14.7988 18.2774 14.7961 18.2797 14.7927 18.2827C14.7859 18.2887 14.776 18.2974 14.7632 18.3089C14.7374 18.3318 14.6998 18.3657 14.651 18.4105C14.5535 18.5001 14.4115 18.6335 14.2313 18.8102C13.871 19.1638 13.3581 19.6911 12.7435 20.3899C11.5144 21.7873 9.87795 23.8713 8.24212 26.6231C4.96999 32.1274 1.7 40.3048 1.7 51H2.3ZM15 18.5C14.7259 18.378 14.7258 18.3782 14.7258 18.3784C14.7257 18.3785 14.7256 18.3787 14.7255 18.3789C14.7253 18.3794 14.725 18.38 14.7247 18.3809C14.7239 18.3825 14.7229 18.3848 14.7216 18.3878C14.719 18.3938 14.7152 18.4025 14.7102 18.414C14.7003 18.4369 14.6859 18.4708 14.6671 18.5156C14.6296 18.6051 14.5751 18.7383 14.5058 18.9149C14.3674 19.268 14.1705 19.7944 13.9346 20.4919C13.4627 21.8868 12.8349 23.9657 12.2075 26.7095C10.9528 32.1974 9.7 40.3448 9.7 51H10.3C10.3 40.3922 11.5472 32.2896 12.7925 26.8433C13.4151 24.12 14.0373 22.0607 14.5029 20.6842C14.7358 19.9959 14.9294 19.4783 15.0645 19.1339C15.132 18.9616 15.1848 18.8326 15.2206 18.7472C15.2385 18.7045 15.2521 18.6727 15.2611 18.6518C15.2656 18.6414 15.269 18.6336 15.2711 18.6287C15.2722 18.6262 15.273 18.6244 15.2735 18.6233C15.2738 18.6227 15.2739 18.6223 15.274 18.6221C15.2741 18.622 15.2741 18.622 15.2741 18.6219C15.2741 18.6219 15.2741 18.622 15 18.5ZM31.1249 70.3283L41.5506 67.3053L41.3835 66.729L30.9578 69.752L31.1249 70.3283ZM41.2038 67.1611L50.2086 83.6258L50.735 83.3379L41.7302 66.8732L41.2038 67.1611ZM50.2093 83.6271C50.3347 83.8536 50.6629 83.8563 50.789 83.6259L50.2628 83.3377C50.3655 83.1501 50.6325 83.1527 50.7343 83.3365L50.2093 83.6271ZM50.7891 83.6258L59.7939 67.1611L59.2675 66.8732L50.2627 83.3379L50.7891 83.6258ZM59.4471 67.3053L69.8729 70.3283L70.04 69.752L59.6142 66.729L59.4471 67.3053ZM69.8734 70.3285C70.1226 70.4002 70.3576 70.1689 70.282 69.9159L69.7071 70.0877C69.6455 69.8815 69.8371 69.6936 70.0395 69.7519L69.8734 70.3285ZM70.2822 69.9167L67.2587 59.6974L66.6834 59.8676L69.7069 70.0869L70.2822 69.9167ZM67.115 60.0457L83.1257 51.2891L82.8378 50.7627L66.8271 59.5193L67.115 60.0457ZM83.1252 51.2894C83.355 51.1643 83.3555 50.8345 83.1259 50.7088L82.8377 51.2351C82.6508 51.1327 82.6514 50.8642 82.8383 50.7624L83.1252 51.2894ZM83.1258 50.7087L66.9831 41.8799L66.6952 42.4063L82.8379 51.2351L83.1258 50.7087ZM67.1268 42.2282L70.2822 31.5629L69.7069 31.3927L66.5514 42.058L67.1268 42.2282ZM70.282 31.5637C70.3576 31.3107 70.1225 31.0794 69.8734 31.1512L70.0395 31.7277C69.8371 31.786 69.6454 31.5981 69.7071 31.3919L70.282 31.5637ZM69.8729 31.1513L59.2026 34.2453L59.3697 34.8215L70.04 31.7276L69.8729 31.1513ZM59.5494 34.3895L50.7891 18.3721L50.2627 18.66L59.023 34.6774L59.5494 34.3895ZM50.7891 18.3721C50.6636 18.1426 50.3342 18.1426 50.2087 18.3721L50.7352 18.66C50.6331 18.8467 50.3648 18.8467 50.2627 18.66L50.7891 18.3721ZM50.2087 18.3721L41.4485 34.3895L41.9749 34.6774L50.7351 18.66L50.2087 18.3721ZM41.7952 34.2453L31.1249 31.1513L30.9578 31.7276L41.6281 34.8215L41.7952 34.2453ZM31.1244 31.1512C30.8753 31.0794 30.6402 31.3107 30.7159 31.5637L31.2907 31.3919C31.3524 31.5981 31.1607 31.786 30.9583 31.7277L31.1244 31.1512ZM30.7156 31.5629L33.871 42.2282L34.4464 42.058L31.291 31.3927L30.7156 31.5629ZM34.0148 41.8799L17.8721 50.7087L18.16 51.2351L34.3027 42.4063L34.0148 41.8799ZM17.8721 50.7087C17.6426 50.8342 17.6426 51.1636 17.8721 51.2891L18.16 50.7627C18.3467 50.8648 18.3467 51.1331 18.16 51.2352L17.8721 50.7087ZM17.8721 51.2891L33.8827 60.0457L34.1706 59.5193L18.16 50.7627L17.8721 51.2891ZM33.739 59.6974L30.7156 69.9167L31.291 70.0869L34.3144 59.8676L33.739 59.6974ZM30.7159 69.9159C30.6403 70.1689 30.8753 70.4002 31.1244 70.3285L30.9583 69.7519C31.1608 69.6936 31.3524 69.8815 31.2907 70.0877L30.7159 69.9159ZM38.9876 51.3744L46.3737 55.4139L46.6616 54.8875L39.2756 50.848L38.9876 51.3744ZM46.2544 55.2947L50.2939 62.6806L50.8203 62.3927L46.7808 55.0068L46.2544 55.2947ZM50.2936 62.68C50.419 62.9103 50.7494 62.9103 50.8747 62.68L50.3477 62.3932C50.4497 62.2059 50.7187 62.2059 50.8206 62.3932L50.2936 62.68ZM50.8744 62.6806L54.9139 55.2947L54.3875 55.0068L50.348 62.3927L50.8744 62.6806ZM54.7947 55.4139L62.1806 51.3744L61.8927 50.848L54.5068 54.8875L54.7947 55.4139ZM62.1807 51.3743C62.4099 51.2488 62.4099 50.9195 62.1807 50.794L61.8925 51.3203C61.706 51.2181 61.706 50.9502 61.8925 50.8481L62.1807 51.3743ZM62.1806 50.7939L54.7947 46.7544L54.5068 47.2808L61.8927 51.3203L62.1806 50.7939ZM54.9139 46.8737L50.8744 39.4878L50.348 39.7757L54.3875 47.1616L54.9139 46.8737ZM50.8747 39.4883C50.7494 39.2581 50.419 39.2581 50.2936 39.4883L50.8206 39.7752C50.7187 39.9625 50.4497 39.9625 50.3477 39.7752L50.8747 39.4883ZM50.2939 39.4878L46.2544 46.8737L46.7808 47.1616L50.8203 39.7757L50.2939 39.4878ZM46.3737 46.7544L38.9876 50.7939L39.2756 51.3203L46.6616 47.2808L46.3737 46.7544ZM38.9875 50.794C38.7583 50.9195 38.7583 51.2488 38.9875 51.3743L39.2757 50.8481C39.4622 50.9502 39.4622 51.2181 39.2757 51.3203L38.9875 50.794Z" fill="url(#paint2_linear_323_2105)" mask="url(#path-1-inside-1_323_2105)"/>
<path d="M98 50.5C98 76.4574 78.0767 97.5 53.5 97.5C28.9234 97.5 58.5001 85.4574 58.5001 59.5C58.5001 33.5426 28.9234 3.5 53.5 3.5C78.0767 3.5 98 24.5426 98 50.5Z" fill="url(#paint3_linear_323_2105)" fill-opacity="0.4"/>
<defs>
<linearGradient id="paint0_linear_323_2105" x1="106.5" y1="2.5" x2="43.5" y2="100.5" gradientUnits="userSpaceOnUse">
<stop stop-color="#B2B2B2"/>
<stop offset="1" stop-color="#C0C0C0"/>
</linearGradient>
<linearGradient id="paint1_linear_323_2105" x1="8.61904e-07" y1="16.9179" x2="8.27373" y2="130.25" gradientUnits="userSpaceOnUse">
<stop stop-color="#DBDCDC" stop-opacity="0.5"/>
<stop offset="1" stop-color="#DBDCDC" stop-opacity="0"/>
</linearGradient>
<linearGradient id="paint2_linear_323_2105" x1="106.5" y1="2.5" x2="43.5" y2="100.5" gradientUnits="userSpaceOnUse">
<stop stop-color="#B2B2B2"/>
<stop offset="1" stop-color="#C0C0C0"/>
</linearGradient>
<linearGradient id="paint3_linear_323_2105" x1="87.5" y1="9.5" x2="13" y2="129" gradientUnits="userSpaceOnUse">
<stop stop-color="white"/>
<stop offset="1" stop-color="white" stop-opacity="0"/>
</linearGradient>
</defs>
</svg>
