<svg width="100" height="101" viewBox="0 0 100 101" fill="none" xmlns="http://www.w3.org/2000/svg">
<circle cx="50" cy="50.5" r="50" fill="url(#paint0_linear_323_2113)"/>
<g style="mix-blend-mode:multiply">
<path d="M10 51C10 72.263 17 85.5 17 85.5C17 85.5 2 72.263 2 51C2 29.737 15 18.5 15 18.5C15 18.5 10 29.737 10 51Z" fill="url(#paint1_linear_323_2113)"/>
</g>
<path d="M98 50.5C98 76.4574 78.0767 97.5 53.5 97.5C28.9234 97.5 58.5001 85.4574 58.5001 59.5C58.5001 33.5426 28.9234 3.5 53.5 3.5C78.0767 3.5 98 24.5426 98 50.5Z" fill="url(#paint2_linear_323_2113)" fill-opacity="0.4"/>
<g clip-path="url(#clip0_323_2113)">
<path d="M42.031 21.8321L42.0754 21.9H42.1565H44.2529H44.3162L44.3603 21.8547C45.6357 20.5458 47.417 19.7333 49.3885 19.7333C52.2787 19.7333 54.7613 21.4801 55.8376 23.9761L55.8767 24.0667H55.9754H57.7305H57.7735L57.8099 24.0439C58.8866 23.3718 60.1587 22.9833 61.5218 22.9833C64.4121 22.9833 66.8946 24.7301 67.9709 27.2261L68.01 27.3167H68.1087H72.8815C72.8949 27.3167 72.9072 27.3202 72.9178 27.3264L72.9592 27.3506L73.007 27.3462C73.2204 27.3267 73.4366 27.3167 73.6551 27.3167C77.5321 27.3167 80.6748 30.4595 80.6748 34.3364V55.8351V55.8356L80.6749 55.8745V55.8755L80.6748 55.9144V55.9149V56.2245C80.6748 56.3529 80.6713 56.4808 80.6643 56.6081L80.6643 56.6081L80.6642 56.6119C80.2355 71.4329 66.9036 83.35 50.4915 83.35C33.8082 83.35 20.3082 71.0361 20.3082 55.875C20.3082 48.6769 23.3493 42.1233 28.3299 37.2224C28.3259 40.6971 28.3543 44.2002 28.4498 46.8498C28.4991 48.2192 28.5664 49.3641 28.6569 50.1602C28.702 50.557 28.7535 50.8742 28.8136 51.0908C28.8431 51.1973 28.8779 51.2916 28.9219 51.3601C28.9615 51.4216 29.048 51.5182 29.1812 51.4879C29.2728 51.467 29.3438 51.4078 29.3977 51.3402C29.4519 51.2724 29.4975 51.1853 29.5373 51.0867C29.6168 50.8891 29.683 50.618 29.739 50.2892C29.8513 49.6295 29.9277 48.7064 29.976 47.6004C30.0728 45.3866 30.0583 42.419 29.9886 39.3135C29.8495 33.121 29.4904 26.368 29.3526 23.9185C30.1305 20.8889 32.8801 18.65 36.1521 18.65C38.6124 18.65 40.7773 19.9157 42.031 21.8321Z" fill="white" stroke="url(#paint3_linear_323_2113)" stroke-width="0.3"/>
</g>
<defs>
<linearGradient id="paint0_linear_323_2113" x1="106.5" y1="2.5" x2="43.5" y2="100.5" gradientUnits="userSpaceOnUse">
<stop stop-color="#B2B2B2"/>
<stop offset="1" stop-color="#C0C0C0"/>
</linearGradient>
<linearGradient id="paint1_linear_323_2113" x1="2" y1="29.5" x2="24.5" y2="98.5" gradientUnits="userSpaceOnUse">
<stop stop-color="#DBDCDC" stop-opacity="0.5"/>
<stop offset="1" stop-color="#DBDCDC" stop-opacity="0"/>
</linearGradient>
<linearGradient id="paint2_linear_323_2113" x1="87.5" y1="9.5" x2="13" y2="129" gradientUnits="userSpaceOnUse">
<stop stop-color="white"/>
<stop offset="1" stop-color="white" stop-opacity="0"/>
</linearGradient>
<linearGradient id="paint3_linear_323_2113" x1="84.7683" y1="19.8" x2="42.7128" y2="80.8583" gradientUnits="userSpaceOnUse">
<stop stop-color="#B2B2B2"/>
<stop offset="1" stop-color="#C0C0C0"/>
</linearGradient>
<clipPath id="clip0_323_2113">
<rect width="65" height="65" fill="white" transform="translate(18 18.5)"/>
</clipPath>
</defs>
</svg>
