<svg width="100" height="101" viewBox="0 0 100 101" fill="none" xmlns="http://www.w3.org/2000/svg">
<circle cx="50" cy="50.5" r="50" fill="url(#paint0_linear_323_2121)"/>
<g style="mix-blend-mode:multiply">
<path d="M10 51C10 72.263 17 85.5 17 85.5C17 85.5 2 72.263 2 51C2 29.737 15 18.5 15 18.5C15 18.5 10 29.737 10 51Z" fill="url(#paint1_linear_323_2121)"/>
</g>
<path d="M98 50.5C98 76.4574 78.0767 97.5 53.5 97.5C28.9234 97.5 58.5001 85.4574 58.5001 59.5C58.5001 33.5426 28.9234 3.5 53.5 3.5C78.0767 3.5 98 24.5426 98 50.5Z" fill="url(#paint2_linear_323_2121)" fill-opacity="0.4"/>
<g clip-path="url(#clip0_323_2121)">
<path d="M29.9942 53.2991L30.1297 53.3634L30.1298 53.3632L30.1302 53.3624L30.1318 53.359L30.1381 53.3458L30.1631 53.2935C30.1852 53.2475 30.2179 53.1796 30.2604 53.0923C30.3455 52.9176 30.4695 52.6651 30.6256 52.3541C30.9379 51.732 31.3781 50.8764 31.8898 49.9419C32.9158 48.0685 34.2214 45.8937 35.3574 44.6425C37.5202 42.2603 40.2338 40.3258 42.5914 38.6457L42.6068 38.6348C44.4079 37.3512 46.0113 36.2086 46.9737 35.1322C49.6335 32.1582 50.1392 27.9755 49.9905 24.5623C49.9159 22.8523 49.6768 21.3272 49.4563 20.2296C49.3502 19.7014 49.2484 19.2718 49.1712 18.968C49.3212 19.1121 49.5106 19.2984 49.7306 19.5236C50.3071 20.1138 51.0933 20.9709 51.9309 22.0372C53.6073 24.1716 55.4823 27.1354 56.2997 30.469L56.4271 30.4378L56.2997 30.469C56.9202 32.9997 56.5219 35.8867 56.1594 38.5019L56.1589 38.5058C56.0125 39.5617 55.8722 40.5738 55.8111 41.4919C55.75 42.4101 55.767 43.2462 55.9417 43.9473C56.1172 44.6517 56.4543 45.2282 57.0367 45.6099C57.6159 45.9895 58.4172 46.1632 59.4953 46.1067C60.3713 46.0608 61.0553 45.8512 61.5759 45.5099C62.0977 45.1677 62.4459 44.6993 62.6587 44.153C63.0811 43.0683 62.9703 41.6767 62.6523 40.3256C62.3331 38.9692 61.7986 37.6274 61.3454 36.6268C61.1186 36.126 60.9116 35.7096 60.7612 35.4181C60.7603 35.4166 60.7596 35.415 60.7588 35.4135C60.8241 35.4514 60.8962 35.4936 60.9744 35.5402C61.3947 35.79 61.9946 36.1632 62.7112 36.6558C64.1448 37.6411 66.0436 39.1029 67.9057 41.0087C71.6318 44.8221 75.1959 50.3968 74.6201 57.4809C74.0445 64.5635 69.836 68.9116 65.7577 71.4945C63.7183 72.7861 61.7141 73.6342 60.2194 74.1594C59.4723 74.4219 58.8531 74.6036 58.4211 74.7195C58.3949 74.7265 58.3694 74.7333 58.3446 74.7398C58.4045 74.6865 58.4691 74.6284 58.5378 74.5658C58.9406 74.1993 59.4862 73.6798 60.0573 73.0677C61.194 71.8495 62.4529 70.2426 62.865 68.7361C63.2759 67.2334 63.0809 64.9606 62.7918 63.0857C62.6466 62.1437 62.4762 61.2941 62.3421 60.6801C62.275 60.3731 62.2171 60.1247 62.1758 59.953C62.1551 59.8672 62.1387 59.8005 62.1274 59.7551L62.1143 59.7034L62.111 59.6901L62.1101 59.6867L62.1098 59.6858L62.1098 59.6856C62.1098 59.6855 62.1098 59.6854 61.9645 59.7229L62.1098 59.6854L61.8183 59.6893L61.8183 59.6895L61.8182 59.6901L61.8176 59.6926L61.8152 59.7029L61.8055 59.7438C61.7969 59.7798 61.784 59.833 61.7669 59.9016C61.7328 60.0386 61.682 60.2368 61.6155 60.4803C61.4826 60.9675 61.287 61.6358 61.0366 62.3602C60.5328 63.8178 59.8172 65.4718 58.9596 66.3542C57.6278 67.7243 56.0309 68.716 53.8334 69.1071C55.6609 67.9303 56.8694 65.8986 56.8694 63.588C56.8694 59.9448 53.8657 56.9957 50.1659 56.9957C46.466 56.9957 43.4622 59.9448 43.4622 63.588C43.4622 64.3503 43.5939 65.0826 43.8361 65.764C43.0198 64.9599 42.5133 64.0177 42.2039 63.2289C42.0211 62.7629 41.9079 62.3524 41.8405 62.0589C41.8068 61.9122 41.7846 61.795 41.7708 61.7149C41.764 61.6749 41.7592 61.6442 41.7562 61.6237L41.753 61.6009L41.7523 61.5955L41.7522 61.5943L41.7521 61.5942L41.7521 61.5941L41.7518 61.5942L41.4574 61.5774L41.6033 61.6125C41.4574 61.5774 41.4574 61.5775 41.4574 61.5776L41.4573 61.5781L41.4569 61.5797L41.4554 61.5859L41.45 61.6094C41.4453 61.63 41.4385 61.6603 41.4299 61.7C41.4129 61.7793 41.3888 61.8958 41.3608 62.0455C41.3048 62.3449 41.2327 62.7774 41.1682 63.3116C41.0392 64.3794 40.9402 65.8557 41.0604 67.4883C41.3007 70.7502 42.4191 74.6616 45.9541 77.1671C49.4846 79.6695 54.6865 79.8362 58.9733 79.392C61.122 79.1693 63.0515 78.7918 64.4438 78.4702C64.9525 78.3526 65.3897 78.2425 65.7398 78.15C65.7282 78.1571 65.7166 78.1643 65.7049 78.1716C65.1456 78.5163 64.3297 78.9926 63.3053 79.5177C61.256 80.5684 58.3747 81.8132 55.0448 82.5925C48.3871 84.1505 39.9491 83.8464 32.7628 76.4196C26.5718 70.0214 25.7622 62.6124 26.5031 56.7924C26.8737 53.8817 27.632 51.3708 28.2979 49.5875C28.5715 48.8545 28.8295 48.2448 29.0382 47.7812C28.9437 48.397 28.854 49.2111 28.854 50.0834C28.854 51.023 29.1085 51.8475 29.3613 52.4353C29.4879 52.7297 29.6145 52.966 29.71 53.1292C29.7577 53.2108 29.7976 53.2743 29.8259 53.3177C29.8401 53.3394 29.8513 53.3562 29.8592 53.3676L29.8683 53.3809L29.8709 53.3846L29.8716 53.3856L29.8719 53.386L29.8719 53.3861C29.872 53.3861 29.872 53.3862 29.9942 53.2991ZM29.9942 53.2991L30.1297 53.3634L30.0202 53.5942L29.872 53.3862L29.9942 53.2991Z" fill="white" stroke="url(#paint3_linear_323_2121)" stroke-width="0.3"/>
</g>
<defs>
<linearGradient id="paint0_linear_323_2121" x1="106.5" y1="2.5" x2="43.5" y2="100.5" gradientUnits="userSpaceOnUse">
<stop stop-color="#B2B2B2"/>
<stop offset="1" stop-color="#C0C0C0"/>
</linearGradient>
<linearGradient id="paint1_linear_323_2121" x1="2" y1="29.5" x2="24.5" y2="98.5" gradientUnits="userSpaceOnUse">
<stop stop-color="#DBDCDC" stop-opacity="0.5"/>
<stop offset="1" stop-color="#DBDCDC" stop-opacity="0"/>
</linearGradient>
<linearGradient id="paint2_linear_323_2121" x1="87.5" y1="9.5" x2="13" y2="129" gradientUnits="userSpaceOnUse">
<stop stop-color="white"/>
<stop offset="1" stop-color="white" stop-opacity="0"/>
</linearGradient>
<linearGradient id="paint3_linear_323_2121" x1="77.9976" y1="19.8" x2="33.5086" y2="71.6576" gradientUnits="userSpaceOnUse">
<stop stop-color="#B2B2B2"/>
<stop offset="1" stop-color="#C0C0C0"/>
</linearGradient>
<clipPath id="clip0_323_2121">
<rect width="65" height="65" fill="white" transform="translate(18 18.5)"/>
</clipPath>
</defs>
</svg>
