<svg width="100" height="101" viewBox="0 0 100 101" fill="none" xmlns="http://www.w3.org/2000/svg">
<circle cx="50" cy="50.5" r="50" fill="url(#paint0_linear_323_2129)"/>
<g style="mix-blend-mode:multiply">
<path d="M10 51C10 72.263 17 85.5 17 85.5C17 85.5 2 72.263 2 51C2 29.737 15 18.5 15 18.5C15 18.5 10 29.737 10 51Z" fill="url(#paint1_linear_323_2129)"/>
</g>
<path d="M98 50.5C98 76.4574 78.0767 97.5 53.5 97.5C28.9234 97.5 58.5001 85.4574 58.5001 59.5C58.5001 33.5426 28.9234 3.5 53.5 3.5C78.0767 3.5 98 24.5426 98 50.5Z" fill="url(#paint2_linear_323_2129)" fill-opacity="0.4"/>
<path d="M67.9946 55.4175C67.9527 55.5134 67.9019 55.6266 67.8419 55.7543C67.6394 56.1856 67.3332 56.782 66.9194 57.4415C66.0904 58.7625 64.8358 60.3254 63.1257 61.3256C60.1072 63.091 56.5239 64.7318 53.6662 66.0043C53.2617 66.1844 52.8716 66.3573 52.4996 66.522C51.5593 66.9386 50.7351 67.3037 50.0887 67.6052C49.6378 67.8155 49.2696 67.9966 49.007 68.144C48.876 68.2175 48.7675 68.2847 48.6869 68.3448C48.6467 68.3749 48.6104 68.4054 48.581 68.4362C48.5534 68.465 48.5221 68.5041 48.5058 68.5523C48.4833 68.6188 48.479 68.6929 48.5094 68.7646C48.5389 68.8342 48.5928 68.8821 48.6488 68.9145C48.7556 68.9763 48.9082 69.0045 49.0768 69.0166C49.422 69.0413 49.9286 69.0035 50.5344 68.9244C51.7504 68.7658 53.4081 68.4355 55.0731 68.0693C56.7393 67.7028 58.4174 67.2992 59.6756 66.9932C59.8838 66.9426 60.0804 66.8947 60.2635 66.85C60.6341 66.7597 60.9496 66.6827 61.1942 66.6242C61.2999 66.5989 61.3919 66.5771 61.4691 66.5593C58.0581 73.8626 50.0429 78.9997 40.688 78.9997C28.2257 78.9997 18.15 69.8885 18.15 58.6808C18.15 47.4779 28.2732 38.8149 40.6998 37.8419C48.9882 37.193 60.4704 34.1975 73.4652 28.4939C75.0488 27.7989 77.4554 26.4088 79.46 25.1969C80.4637 24.5901 81.3689 24.0266 82.0231 23.6148C82.3502 23.4088 82.6146 23.2408 82.7973 23.1243C82.7975 23.1242 82.7977 23.1241 82.7978 23.124C82.7963 23.1323 82.7948 23.1408 82.7932 23.1495C82.7514 23.3791 82.6843 23.7132 82.5835 24.1288C82.3817 24.9601 82.0449 26.1167 81.505 27.4156C80.4248 30.0148 78.5355 33.1754 75.2977 35.4464C74.9129 35.7164 74.5333 35.9836 74.1579 36.2478C70.6318 38.7299 67.4797 40.9487 63.8937 42.6863C60.1802 44.4856 56.5688 45.879 53.8322 46.9349C53.7521 46.9658 53.6727 46.9964 53.5941 47.0267C52.2144 47.5592 51.0676 48.0046 50.2659 48.3702C49.8657 48.5527 49.5446 48.7184 49.3217 48.8681C49.2105 48.9428 49.1174 49.0176 49.0506 49.0933C48.9856 49.1668 48.93 49.2587 48.93 49.365C48.93 49.4526 48.9892 49.5036 49.0245 49.5256C49.0608 49.5482 49.103 49.5614 49.1402 49.5701C49.2171 49.5881 49.3215 49.5978 49.4452 49.602C49.6956 49.6103 50.0578 49.5964 50.5148 49.5599C51.4302 49.4867 52.7416 49.3216 54.3324 49.0528C57.5142 48.5152 61.8213 47.5618 66.3258 46.0965C68.2355 45.4753 70.7619 44.2271 72.8044 43.1386C73.8272 42.5936 74.7311 42.0872 75.3793 41.7171C75.6729 41.5495 75.9141 41.4098 76.0902 41.3071C76.0384 41.4663 75.9669 41.6737 75.8729 41.9205C75.6407 42.5304 75.2718 43.3805 74.726 44.3386C73.6339 46.2554 71.836 48.5999 69.0109 50.3214C62.9554 54.0116 57.7498 56.2702 54.059 57.647C52.2136 58.3354 50.7465 58.8035 49.7396 59.1202C49.6684 59.1427 49.5993 59.1643 49.5326 59.1853C49.1289 59.3121 48.8084 59.4128 48.5809 59.4919C48.4491 59.5377 48.3427 59.5782 48.2678 59.614C48.2311 59.6315 48.1948 59.6512 48.1655 59.6737C48.1508 59.685 48.1325 59.701 48.1168 59.7224C48.1013 59.7437 48.0815 59.7797 48.0815 59.8274C48.0815 59.888 48.1148 59.9273 48.1333 59.9445C48.1522 59.962 48.1719 59.9722 48.1836 59.9777C48.2081 59.989 48.2353 59.9964 48.2586 60.0018C48.3075 60.0129 48.374 60.0224 48.4537 60.0306C48.6146 60.0471 48.8477 60.0601 49.1426 60.0668C49.7334 60.0802 50.5812 60.0683 51.6148 60.0063C53.6821 59.8821 56.4979 59.5565 59.4938 58.8265C60.9896 58.4621 63.2067 57.5651 65.0415 56.7638C65.9607 56.3624 66.7871 55.9836 67.3837 55.7051C67.6295 55.5904 67.8363 55.4927 67.9946 55.4175Z" fill="white" stroke="url(#paint3_linear_323_2129)" stroke-width="0.3"/>
<defs>
<linearGradient id="paint0_linear_323_2129" x1="106.5" y1="2.5" x2="43.5" y2="100.5" gradientUnits="userSpaceOnUse">
<stop stop-color="#B2B2B2"/>
<stop offset="1" stop-color="#C0C0C0"/>
</linearGradient>
<linearGradient id="paint1_linear_323_2129" x1="2" y1="29.5" x2="24.5" y2="98.5" gradientUnits="userSpaceOnUse">
<stop stop-color="#DBDCDC" stop-opacity="0.5"/>
<stop offset="1" stop-color="#DBDCDC" stop-opacity="0"/>
</linearGradient>
<linearGradient id="paint2_linear_323_2129" x1="87.5" y1="9.5" x2="13" y2="129" gradientUnits="userSpaceOnUse">
<stop stop-color="white"/>
<stop offset="1" stop-color="white" stop-opacity="0"/>
</linearGradient>
<linearGradient id="paint3_linear_323_2129" x1="87.2249" y1="23.9431" x2="54.0526" y2="83.483" gradientUnits="userSpaceOnUse">
<stop stop-color="#B2B2B2"/>
<stop offset="1" stop-color="#C0C0C0"/>
</linearGradient>
</defs>
</svg>
