<svg width="100" height="100" viewBox="0 0 100 100" fill="none" xmlns="http://www.w3.org/2000/svg">
<circle cx="50" cy="50" r="50" fill="url(#paint0_linear_239_1126)"/>
<g style="mix-blend-mode:multiply">
<path d="M10 50.5C10 71.763 17 85 17 85C17 85 2 71.763 2 50.5C2 29.237 15 18 15 18C15 18 10 29.237 10 50.5Z" fill="url(#paint1_linear_239_1126)"/>
</g>
<path d="M98 50C98 75.9574 78.0767 97 53.5 97C28.9234 97 58.5001 84.9574 58.5001 59C58.5001 33.0426 28.9234 3 53.5 3C78.0767 3 98 24.0426 98 50Z" fill="url(#paint2_linear_239_1126)" fill-opacity="0.4"/>
<path d="M42.3025 73.6706L42.3011 73.6693C41.2051 72.7001 40.1388 71.7639 39.1044 70.8558L38.976 70.743C32.6866 65.2216 27.4798 60.6497 23.8426 55.9699C20.2102 51.2962 18.15 46.5227 18.15 40.599C18.15 30.8134 25.8132 23.1502 35.599 23.15C39.9975 23.15 44.3455 24.8064 47.6941 27.679L47.7918 27.7628L47.8894 27.679C51.2375 24.8067 55.5853 23.15 59.9838 23.15C69.7692 23.15 77.4323 30.813 77.4323 40.5988C77.4323 42.0646 77.2626 43.5356 76.9323 44.9917L76.9134 45.075L76.9754 45.1337C80.5916 48.5643 82.85 53.4121 82.85 58.7778C82.85 69.1507 74.4108 77.5899 64.0379 77.5899C59.9349 77.5899 56.1357 76.2689 53.0404 74.0309L52.9442 73.9614L52.8545 74.039L49.465 76.9674C48.9844 77.3823 48.3883 77.5899 47.7919 77.5899C47.1956 77.5899 46.5995 77.3826 46.1191 76.9676L46.0211 77.0811L46.1191 76.9676L42.3235 73.689L42.2254 73.8025L42.3235 73.6889C42.3153 73.6819 42.3087 73.6762 42.3025 73.6706ZM77.7321 58.778C77.7321 51.227 71.5889 45.0837 64.0378 45.0837C56.4864 45.0837 50.3434 51.227 50.3434 58.778C50.3434 66.329 56.4866 72.4723 64.0378 72.4723C71.5889 72.4723 77.7321 66.329 77.7321 58.778Z" fill="white" stroke="#B2B2B2" stroke-width="0.3"/>
<path d="M49.6035 58.413H58.9943M69.4685 58.413H78.8593M70.1909 59.0451C70.1909 62.3365 67.5227 65.0046 64.2314 65.0046C60.9401 65.0046 58.2719 62.3365 58.2719 59.0451C58.2719 55.7538 60.9401 53.0856 64.2314 53.0856C67.5227 53.0856 70.1909 55.7538 70.1909 59.0451Z" stroke="white" stroke-width="2.70887"/>
<defs>
<linearGradient id="paint0_linear_239_1126" x1="106.5" y1="2" x2="43.5" y2="100" gradientUnits="userSpaceOnUse">
<stop stop-color="#B2B2B2"/>
<stop offset="1" stop-color="#C0C0C0"/>
</linearGradient>
<linearGradient id="paint1_linear_239_1126" x1="2" y1="29" x2="24.5" y2="98" gradientUnits="userSpaceOnUse">
<stop stop-color="#DBDCDC" stop-opacity="0.5"/>
<stop offset="1" stop-color="#DBDCDC" stop-opacity="0"/>
</linearGradient>
<linearGradient id="paint2_linear_239_1126" x1="87.5" y1="9" x2="13" y2="128.5" gradientUnits="userSpaceOnUse">
<stop stop-color="white"/>
<stop offset="1" stop-color="white" stop-opacity="0"/>
</linearGradient>
</defs>
</svg>
