<svg width="100" height="101" viewBox="0 0 100 101" fill="none" xmlns="http://www.w3.org/2000/svg">
<circle cx="50" cy="50.5" r="50" fill="url(#paint0_linear_323_2166)"/>
<g style="mix-blend-mode:multiply">
<path d="M10 51C10 72.263 17 85.5 17 85.5C17 85.5 2 72.263 2 51C2 29.737 15 18.5 15 18.5C15 18.5 10 29.737 10 51Z" fill="url(#paint1_linear_323_2166)"/>
</g>
<path d="M98 50.5C98 76.4574 78.0767 97.5 53.5 97.5C28.9234 97.5 58.5001 85.4574 58.5001 59.5C58.5001 33.5426 28.9234 3.5 53.5 3.5C78.0767 3.5 98 24.5426 98 50.5Z" fill="url(#paint2_linear_323_2166)" fill-opacity="0.4"/>
<path d="M51.6312 31.8793L66.6415 23.7074L66.8375 40.9266L51.8164 48.1374L51.6312 31.8793Z" fill="white" stroke="url(#paint3_linear_323_2166)" stroke-width="0.3"/>
<path d="M66.9724 43.3221L81.8338 51.1384L66.9804 59.6344L52.1179 51.1249L66.9724 43.3221Z" fill="white" stroke="url(#paint4_linear_323_2166)" stroke-width="0.3"/>
<path d="M33.9354 43.3221L48.7967 51.1384L33.9433 59.6344L19.0808 51.1249L33.9354 43.3221Z" fill="white" stroke="url(#paint5_linear_323_2166)" stroke-width="0.3"/>
<path d="M34.3965 40.7138L33.9297 23.6296L49.3611 31.2722L48.9665 47.9297L34.3965 40.7138Z" fill="white" stroke="url(#paint6_linear_323_2166)" stroke-width="0.3"/>
<path d="M66.5934 61.2863L67.0602 78.3704L51.6288 70.7278L52.0234 54.0702L66.5934 61.2863Z" fill="white" stroke="url(#paint7_linear_323_2166)" stroke-width="0.3"/>
<path d="M49.4739 70.3506L34.4637 78.5226L34.2675 61.3034L49.2887 54.0926L49.4739 70.3506Z" fill="white" stroke="url(#paint8_linear_323_2166)" stroke-width="0.3"/>
<defs>
<linearGradient id="paint0_linear_323_2166" x1="106.5" y1="2.5" x2="43.5" y2="100.5" gradientUnits="userSpaceOnUse">
<stop stop-color="#B2B2B2"/>
<stop offset="1" stop-color="#C0C0C0"/>
</linearGradient>
<linearGradient id="paint1_linear_323_2166" x1="2" y1="29.5" x2="24.5" y2="98.5" gradientUnits="userSpaceOnUse">
<stop stop-color="#DBDCDC" stop-opacity="0.5"/>
<stop offset="1" stop-color="#DBDCDC" stop-opacity="0"/>
</linearGradient>
<linearGradient id="paint2_linear_323_2166" x1="87.5" y1="9.5" x2="13" y2="129" gradientUnits="userSpaceOnUse">
<stop stop-color="white"/>
<stop offset="1" stop-color="white" stop-opacity="0"/>
</linearGradient>
<linearGradient id="paint3_linear_323_2166" x1="67.9966" y1="23.9548" x2="50.7499" y2="40.652" gradientUnits="userSpaceOnUse">
<stop stop-color="#B2B2B2"/>
<stop offset="1" stop-color="#C0C0C0"/>
</linearGradient>
<linearGradient id="paint4_linear_323_2166" x1="84.1176" y1="43.4857" x2="76.879" y2="63.9979" gradientUnits="userSpaceOnUse">
<stop stop-color="#B2B2B2"/>
<stop offset="1" stop-color="#C0C0C0"/>
</linearGradient>
<linearGradient id="paint5_linear_323_2166" x1="51.0805" y1="43.4857" x2="43.842" y2="63.9979" gradientUnits="userSpaceOnUse">
<stop stop-color="#B2B2B2"/>
<stop offset="1" stop-color="#C0C0C0"/>
</linearGradient>
<linearGradient id="paint6_linear_323_2166" x1="50.5365" y1="23.8803" x2="33.3748" y2="40.8349" gradientUnits="userSpaceOnUse">
<stop stop-color="#B2B2B2"/>
<stop offset="1" stop-color="#C0C0C0"/>
</linearGradient>
<linearGradient id="paint7_linear_323_2166" x1="68.2401" y1="54.327" x2="51.0783" y2="71.2817" gradientUnits="userSpaceOnUse">
<stop stop-color="#B2B2B2"/>
<stop offset="1" stop-color="#C0C0C0"/>
</linearGradient>
<linearGradient id="paint8_linear_323_2166" x1="50.633" y1="54.3539" x2="33.3863" y2="71.0512" gradientUnits="userSpaceOnUse">
<stop stop-color="#B2B2B2"/>
<stop offset="1" stop-color="#C0C0C0"/>
</linearGradient>
</defs>
</svg>
