<svg width="100" height="100" viewBox="0 0 100 100" fill="none" xmlns="http://www.w3.org/2000/svg">
<circle cx="50" cy="50" r="50" fill="url(#paint0_linear_239_1749)"/>
<g style="mix-blend-mode:multiply">
<path d="M10 50.5C10 71.763 17 85 17 85C17 85 2 71.763 2 50.5C2 29.237 15 18 15 18C15 18 10 29.237 10 50.5Z" fill="url(#paint1_linear_239_1749)"/>
</g>
<path d="M98 50C98 75.9574 78.0767 97 53.5 97C28.9234 97 58.5001 84.9574 58.5001 59C58.5001 33.0426 28.9234 3 53.5 3C78.0767 3 98 24.0426 98 50Z" fill="url(#paint2_linear_239_1749)" fill-opacity="0.4"/>
<mask id="path-4-inside-1_239_1749" fill="white">
<path fill-rule="evenodd" clip-rule="evenodd" d="M47.1642 7C37.6847 7 30 14.6847 30 24.1642V52.6567V52.6567V81.6641C30 83.0089 30.7733 84.1731 31.8994 84.7363L44.885 92.8875C47.2919 94.3984 50.381 94.2702 52.6545 92.5651L63.2559 84.614C64.0074 84.0504 64.4434 83.2691 64.5813 82.4498C64.6404 82.1975 64.6716 81.9345 64.6716 81.6641V52.8951C71.4336 49.0833 76 41.8343 76 33.5187C76 21.2427 66.0483 11.2911 53.7724 11.2911C53.5139 11.2911 53.2564 11.2955 53 11.3042V10.4328C53 8.53693 51.4631 7 49.5672 7H47.1642ZM46.1343 56.2612C46.1343 59.105 43.8289 61.4104 40.9851 61.4104C38.1412 61.4104 35.8358 59.105 35.8358 56.2612C35.8358 53.4173 38.1412 51.1119 40.9851 51.1119C43.8289 51.1119 46.1343 53.4173 46.1343 56.2612ZM54.7163 50.0821C64.1959 50.0821 71.8805 42.3974 71.8805 32.9179C71.8805 23.4384 64.1959 15.7537 54.7163 15.7537C45.2368 15.7537 37.5522 23.4384 37.5522 32.9179C37.5522 42.3974 45.2368 50.0821 54.7163 50.0821ZM35.8358 66.8171C35.8358 64.9686 37.3343 63.4701 39.1828 63.4701H42.7873C44.6358 63.4701 46.1343 64.9686 46.1343 66.8171C46.1343 68.6656 44.6358 70.1641 42.7873 70.1641H39.1828C37.3343 70.1641 35.8358 68.6656 35.8358 66.8171ZM39.1828 71.194C37.3343 71.194 35.8358 72.6925 35.8358 74.541C35.8358 76.3895 37.3343 77.888 39.1828 77.888H42.7873C44.6358 77.888 46.1343 76.3895 46.1343 74.541C46.1343 72.6925 44.6358 71.194 42.7873 71.194H39.1828ZM57.2911 55.9634C57.2911 54.5405 58.1689 53.2651 59.498 52.7569L63.127 51.3694V77.2015L59.1547 78.7203C58.2557 79.064 57.2911 78.4002 57.2911 77.4377V55.9634ZM32.403 52.6567H31.3732V78.5746H32.403C33.1614 78.5746 33.7761 77.9598 33.7761 77.2015V54.0298C33.7761 53.2715 33.1614 52.6567 32.403 52.6567Z"/>
</mask>
<path fill-rule="evenodd" clip-rule="evenodd" d="M47.1642 7C37.6847 7 30 14.6847 30 24.1642V52.6567V52.6567V81.6641C30 83.0089 30.7733 84.1731 31.8994 84.7363L44.885 92.8875C47.2919 94.3984 50.381 94.2702 52.6545 92.5651L63.2559 84.614C64.0074 84.0504 64.4434 83.2691 64.5813 82.4498C64.6404 82.1975 64.6716 81.9345 64.6716 81.6641V52.8951C71.4336 49.0833 76 41.8343 76 33.5187C76 21.2427 66.0483 11.2911 53.7724 11.2911C53.5139 11.2911 53.2564 11.2955 53 11.3042V10.4328C53 8.53693 51.4631 7 49.5672 7H47.1642ZM46.1343 56.2612C46.1343 59.105 43.8289 61.4104 40.9851 61.4104C38.1412 61.4104 35.8358 59.105 35.8358 56.2612C35.8358 53.4173 38.1412 51.1119 40.9851 51.1119C43.8289 51.1119 46.1343 53.4173 46.1343 56.2612ZM54.7163 50.0821C64.1959 50.0821 71.8805 42.3974 71.8805 32.9179C71.8805 23.4384 64.1959 15.7537 54.7163 15.7537C45.2368 15.7537 37.5522 23.4384 37.5522 32.9179C37.5522 42.3974 45.2368 50.0821 54.7163 50.0821ZM35.8358 66.8171C35.8358 64.9686 37.3343 63.4701 39.1828 63.4701H42.7873C44.6358 63.4701 46.1343 64.9686 46.1343 66.8171C46.1343 68.6656 44.6358 70.1641 42.7873 70.1641H39.1828C37.3343 70.1641 35.8358 68.6656 35.8358 66.8171ZM39.1828 71.194C37.3343 71.194 35.8358 72.6925 35.8358 74.541C35.8358 76.3895 37.3343 77.888 39.1828 77.888H42.7873C44.6358 77.888 46.1343 76.3895 46.1343 74.541C46.1343 72.6925 44.6358 71.194 42.7873 71.194H39.1828ZM57.2911 55.9634C57.2911 54.5405 58.1689 53.2651 59.498 52.7569L63.127 51.3694V77.2015L59.1547 78.7203C58.2557 79.064 57.2911 78.4002 57.2911 77.4377V55.9634ZM32.403 52.6567H31.3732V78.5746H32.403C33.1614 78.5746 33.7761 77.9598 33.7761 77.2015V54.0298C33.7761 53.2715 33.1614 52.6567 32.403 52.6567Z" fill="white"/>
<path d="M31.8994 84.7363L32.0589 84.4822L32.0466 84.4745L32.0336 84.468L31.8994 84.7363ZM44.885 92.8875L45.0445 92.6334L44.885 92.8875ZM52.6545 92.5651L52.8345 92.8051L52.6545 92.5651ZM63.2559 84.614L63.0759 84.374L63.2559 84.614ZM64.5813 82.4498L64.2892 82.3814L64.287 82.3907L64.2855 82.4001L64.5813 82.4498ZM64.6716 52.8951L64.5243 52.6338L64.3716 52.7199V52.8951H64.6716ZM53 11.3042H52.7V11.6147L53.0102 11.6041L53 11.3042ZM59.498 52.7569L59.3908 52.4767L59.498 52.7569ZM63.127 51.3694H63.427V50.9335L63.0198 51.0892L63.127 51.3694ZM63.127 77.2015L63.2341 77.4817L63.427 77.408V77.2015H63.127ZM59.1547 78.7203L59.0475 78.4401L59.1547 78.7203ZM31.3732 52.6567V52.3567H31.0732V52.6567H31.3732ZM31.3732 78.5746H31.0732V78.8746H31.3732V78.5746ZM30.3 24.1642C30.3 14.8503 37.8504 7.3 47.1642 7.3V6.7C37.519 6.7 29.7 14.519 29.7 24.1642H30.3ZM30.3 52.6567V24.1642H29.7V52.6567H30.3ZM30.3 52.6567V52.6567H29.7V52.6567H30.3ZM30.3 81.6641V52.6567H29.7V81.6641H30.3ZM32.0336 84.468C31.0051 83.9537 30.3 82.891 30.3 81.6641H29.7C29.7 83.1269 30.5414 84.3926 31.7652 85.0046L32.0336 84.468ZM45.0445 92.6334L32.0589 84.4822L31.7399 84.9904L44.7255 93.1416L45.0445 92.6334ZM52.4745 92.3251C50.3003 93.9557 47.3463 94.0783 45.0445 92.6334L44.7255 93.1416C47.2376 94.7185 50.4616 94.5847 52.8345 92.8051L52.4745 92.3251ZM63.0759 84.374L52.4745 92.3251L52.8345 92.8051L63.4359 84.854L63.0759 84.374ZM64.2855 82.4001C64.1598 83.1469 63.7631 83.8587 63.0759 84.374L63.4359 84.854C64.2517 84.2422 64.7271 83.3914 64.8772 82.4996L64.2855 82.4001ZM64.3716 81.6641C64.3716 81.9113 64.3431 82.1514 64.2892 82.3814L64.8734 82.5182C64.9377 82.2437 64.9716 81.9577 64.9716 81.6641H64.3716ZM64.3716 52.8951V81.6641H64.9716V52.8951H64.3716ZM75.7 33.5187C75.7 41.7216 71.1958 48.873 64.5243 52.6338L64.819 53.1565C71.6714 49.2937 76.3 41.9469 76.3 33.5187H75.7ZM53.7724 11.5911C65.8826 11.5911 75.7 21.4084 75.7 33.5187H76.3C76.3 21.077 66.214 10.9911 53.7724 10.9911V11.5911ZM53.0102 11.6041C53.2632 11.5954 53.5173 11.5911 53.7724 11.5911V10.9911C53.5104 10.9911 53.2495 10.9955 52.9898 11.0044L53.0102 11.6041ZM52.7 10.4328V11.3042H53.3V10.4328H52.7ZM49.5672 7.3C51.2974 7.3 52.7 8.70262 52.7 10.4328H53.3C53.3 8.37125 51.6288 6.7 49.5672 6.7V7.3ZM47.1642 7.3H49.5672V6.7H47.1642V7.3ZM40.9851 61.7104C43.9946 61.7104 46.4343 59.2707 46.4343 56.2612H45.8343C45.8343 58.9394 43.6632 61.1104 40.9851 61.1104V61.7104ZM35.5358 56.2612C35.5358 59.2707 37.9755 61.7104 40.9851 61.7104V61.1104C38.3069 61.1104 36.1358 58.9394 36.1358 56.2612H35.5358ZM40.9851 50.8119C37.9755 50.8119 35.5358 53.2517 35.5358 56.2612H36.1358C36.1358 53.583 38.3069 51.4119 40.9851 51.4119V50.8119ZM46.4343 56.2612C46.4343 53.2517 43.9946 50.8119 40.9851 50.8119V51.4119C43.6632 51.4119 45.8343 53.583 45.8343 56.2612H46.4343ZM71.5805 32.9179C71.5805 42.2317 64.0302 49.7821 54.7163 49.7821V50.3821C64.3615 50.3821 72.1805 42.5631 72.1805 32.9179H71.5805ZM54.7163 16.0537C64.0302 16.0537 71.5805 23.6041 71.5805 32.9179H72.1805C72.1805 23.2727 64.3615 15.4537 54.7163 15.4537V16.0537ZM37.8522 32.9179C37.8522 23.6041 45.4025 16.0537 54.7163 16.0537V15.4537C45.0711 15.4537 37.2522 23.2727 37.2522 32.9179H37.8522ZM54.7163 49.7821C45.4025 49.7821 37.8522 42.2317 37.8522 32.9179H37.2522C37.2522 42.5631 45.0711 50.3821 54.7163 50.3821V49.7821ZM39.1828 63.1701C37.1686 63.1701 35.5358 64.8029 35.5358 66.8171H36.1358C36.1358 65.1343 37.5 63.7701 39.1828 63.7701V63.1701ZM42.7873 63.1701H39.1828V63.7701H42.7873V63.1701ZM46.4343 66.8171C46.4343 64.8029 44.8015 63.1701 42.7873 63.1701V63.7701C44.4701 63.7701 45.8343 65.1343 45.8343 66.8171H46.4343ZM42.7873 70.4641C44.8015 70.4641 46.4343 68.8313 46.4343 66.8171H45.8343C45.8343 68.4999 44.4701 69.8641 42.7873 69.8641V70.4641ZM39.1828 70.4641H42.7873V69.8641H39.1828V70.4641ZM35.5358 66.8171C35.5358 68.8313 37.1686 70.4641 39.1828 70.4641V69.8641C37.5 69.8641 36.1358 68.4999 36.1358 66.8171H35.5358ZM36.1358 74.541C36.1358 72.8582 37.5 71.494 39.1828 71.494V70.894C37.1686 70.894 35.5358 72.5268 35.5358 74.541H36.1358ZM39.1828 77.588C37.5 77.588 36.1358 76.2238 36.1358 74.541H35.5358C35.5358 76.5552 37.1686 78.188 39.1828 78.188V77.588ZM42.7873 77.588H39.1828V78.188H42.7873V77.588ZM45.8343 74.541C45.8343 76.2238 44.4701 77.588 42.7873 77.588V78.188C44.8015 78.188 46.4343 76.5552 46.4343 74.541H45.8343ZM42.7873 71.494C44.4701 71.494 45.8343 72.8582 45.8343 74.541H46.4343C46.4343 72.5268 44.8015 70.894 42.7873 70.894V71.494ZM39.1828 71.494H42.7873V70.894H39.1828V71.494ZM59.3908 52.4767C57.9456 53.0293 56.9911 54.4162 56.9911 55.9634H57.5911C57.5911 54.6649 58.3922 53.5009 59.6051 53.0372L59.3908 52.4767ZM63.0198 51.0892L59.3908 52.4767L59.6051 53.0372L63.2341 51.6496L63.0198 51.0892ZM63.427 77.2015V51.3694H62.827V77.2015H63.427ZM59.2618 79.0005L63.2341 77.4817L63.0198 76.9213L59.0475 78.4401L59.2618 79.0005ZM56.9911 77.4377C56.9911 78.6105 58.1664 79.4194 59.2618 79.0005L59.0475 78.4401C58.3449 78.7087 57.5911 78.1899 57.5911 77.4377H56.9911ZM56.9911 55.9634V77.4377H57.5911V55.9634H56.9911ZM31.3732 52.9567H32.403V52.3567H31.3732V52.9567ZM31.6732 78.5746V52.6567H31.0732V78.5746H31.6732ZM32.403 78.2746H31.3732V78.8746H32.403V78.2746ZM33.4761 77.2015C33.4761 77.7941 32.9957 78.2746 32.403 78.2746V78.8746C33.3271 78.8746 34.0761 78.1255 34.0761 77.2015H33.4761ZM33.4761 54.0298V77.2015H34.0761V54.0298H33.4761ZM32.403 52.9567C32.9957 52.9567 33.4761 53.4371 33.4761 54.0298H34.0761C34.0761 53.1058 33.3271 52.3567 32.403 52.3567V52.9567Z" fill="#B2B2B2" mask="url(#path-4-inside-1_239_1749)"/>
<defs>
<linearGradient id="paint0_linear_239_1749" x1="106.5" y1="2" x2="43.5" y2="100" gradientUnits="userSpaceOnUse">
<stop stop-color="#B2B2B2"/>
<stop offset="1" stop-color="#C0C0C0"/>
</linearGradient>
<linearGradient id="paint1_linear_239_1749" x1="2" y1="29" x2="24.5" y2="98" gradientUnits="userSpaceOnUse">
<stop stop-color="#DBDCDC" stop-opacity="0.5"/>
<stop offset="1" stop-color="#DBDCDC" stop-opacity="0"/>
</linearGradient>
<linearGradient id="paint2_linear_239_1749" x1="87.5" y1="9" x2="13" y2="128.5" gradientUnits="userSpaceOnUse">
<stop stop-color="white"/>
<stop offset="1" stop-color="white" stop-opacity="0"/>
</linearGradient>
</defs>
</svg>
