<svg width="100" height="100" viewBox="0 0 100 100" fill="none" xmlns="http://www.w3.org/2000/svg">
<circle cx="50" cy="50" r="50" fill="url(#paint0_linear_239_1103)"/>
<g style="mix-blend-mode:multiply">
<path d="M10 50.5C10 71.763 17 85 17 85C17 85 2 71.763 2 50.5C2 29.237 15 18 15 18C15 18 10 29.237 10 50.5Z" fill="url(#paint1_linear_239_1103)"/>
</g>
<path d="M98 50C98 75.9574 78.0767 97 53.5 97C28.9234 97 58.5001 84.9574 58.5001 59C58.5001 33.0426 28.9234 3 53.5 3C78.0767 3 98 24.0426 98 50Z" fill="url(#paint2_linear_239_1103)" fill-opacity="0.4"/>
<mask id="path-4-inside-1_239_1103" fill="white">
<path d="M39.1518 17.0923C37.7517 17.2154 36.8593 17.5077 35.1823 18.4001C29.6589 21.3079 22.5047 28.4006 17.4583 35.9702C14.3812 40.5705 13.4273 43.4937 14.3197 45.6169C14.9812 47.217 17.1967 48.6171 20.1507 49.3094C21.5816 49.6479 24.5356 49.6479 26.1357 49.3248C30.1513 48.4786 37.0593 45.4784 36.6132 44.7707C36.4439 44.5091 34.9208 44.6015 33.8284 44.9399C33.2437 45.1246 31.7667 45.6631 30.5359 46.1554C27.028 47.5555 26.9973 47.5708 23.5355 47.6478C20.52 47.7247 20.4277 47.7247 19.2584 47.3247C17.7199 46.8016 16.9198 46.2785 16.4121 45.4015C15.4274 43.7091 16.1967 40.5859 18.3507 37.5395C19.92 35.3394 20.9969 34.524 24.6895 32.7393C25.9203 32.1393 27.0896 31.57 27.305 31.4623C27.6742 31.2623 27.6896 31.2007 27.6896 29.7391C27.6896 28.9083 27.7512 28.139 27.8127 28.0467C28.0435 27.6775 29.3051 27.0467 30.182 26.8467C30.6744 26.739 31.8283 26.6005 32.7514 26.539L34.4284 26.4313L36.7055 24.2773C38.7056 22.4003 39.0594 21.9849 39.5364 21.031C40.1056 19.8463 40.4287 18.5078 40.3518 17.5693L40.3057 17L39.1518 17.0923Z"/>
<path d="M47.6137 23.6773C47.1522 23.8311 46.2906 24.185 45.6905 24.4619C44.6751 24.9389 44.4597 24.985 41.6134 25.185C38.2594 25.4312 37.444 25.6004 36.1362 26.4159C35.6439 26.7082 34.9823 27.1082 34.69 27.2928C34.2438 27.5698 33.8899 27.6159 32.536 27.6313C31.5052 27.6313 30.5359 27.739 29.8589 27.9236L28.7973 28.2006L28.8897 29.5237C28.9974 30.9238 29.3051 32.0162 29.982 33.3701L30.3974 34.1855L30.059 34.9856C29.7666 35.6317 29.7051 36.0471 29.6897 37.3088C29.6897 38.6934 29.7359 38.9396 30.1205 39.7243C30.9667 41.4474 32.4591 42.4321 35.3515 43.1552C36.0285 43.3245 36.7516 43.6629 37.3516 44.0783C38.6132 44.9399 39.2748 45.1245 40.9211 45.1245C43.2596 45.1245 44.3674 44.5553 45.8598 42.5706C46.7214 41.432 46.9675 41.2013 48.783 39.9243C51.4755 38.0319 52.9063 35.9856 52.9063 34.0009C52.9063 32.8777 52.614 32.1085 51.6293 30.5392C50.9524 29.4776 50.6908 28.6929 50.6908 27.739C50.6908 27.0313 50.1985 24.7389 49.9062 24.1081C49.7369 23.7542 49.0753 23.3696 48.6292 23.4003C48.5368 23.4003 48.0753 23.5234 47.6137 23.6773ZM46.8906 32.2162C47.5368 32.4777 48.4907 33.5855 48.6907 34.2932C48.8907 35.0009 48.8907 36.1087 48.7061 36.2318C48.6138 36.2779 48.3676 35.9856 48.1368 35.5856C47.5214 34.524 47.306 34.3086 46.8291 34.3086C46.1521 34.3086 45.8598 34.8779 45.9829 35.9241C46.029 36.3856 46.1213 37.1549 46.1675 37.6165C46.2598 38.4319 46.2598 38.4627 45.829 38.6165C44.6136 39.0781 44.0443 38.3088 43.952 36.0625C43.8597 33.924 44.3982 32.6624 45.6136 32.17C46.1367 31.97 46.3213 31.97 46.8906 32.2162ZM34.7361 34.8317C35.9054 35.3086 37.2286 37.3395 37.4132 38.9396C37.5209 39.8935 37.3209 39.8627 36.8285 38.8781C36.3208 37.9088 35.9208 37.4165 35.4285 37.2164C35.0592 37.0626 34.9515 37.078 34.69 37.3088C34.2438 37.7088 34.0592 38.555 34.1669 39.6473C34.2899 40.8166 34.1207 40.8936 33.2437 40.032C32.4591 39.2935 32.2283 38.6934 32.2283 37.478C32.2283 36.2164 32.5822 35.2933 33.213 34.9086C33.7822 34.5701 34.0745 34.5394 34.7361 34.8317Z"/>
<path d="M64.5377 36.7087C59.3067 37.3088 51.7832 39.0781 50.8447 39.9397C50.66 40.1243 50.66 40.1858 50.9216 40.3858C51.5524 40.8474 52.9986 40.7397 55.7372 39.9858C63.6915 37.8165 72.1689 37.4011 75.3383 39.0165C76.1999 39.4627 76.9537 40.1243 77.2307 40.7089C77.4768 41.2474 77.4768 41.2782 77.0922 42.0628C75.8306 44.6322 68.4764 50.7095 63.7377 53.0942C62.9068 53.5096 62.2299 53.9404 62.2299 54.0481C62.2299 54.5866 62.7222 55.8482 62.9376 55.8482C63.4607 55.8482 69.4149 51.7711 72.2304 49.4786C74.769 47.417 77.9692 43.9091 78.7538 42.3552C78.8923 42.0782 79 41.4936 79 41.0628C79 39.555 78.1076 38.355 76.4152 37.5703C74.7075 36.801 74.2767 36.7395 69.538 36.6933C67.0917 36.6626 64.83 36.6779 64.5377 36.7087Z"/>
<path d="M48.0599 41.7244C47.306 42.2782 46.8444 42.7398 46.629 43.1706C46.0752 44.263 45.5213 44.8476 44.5212 45.3861C43.5673 45.8938 43.475 45.9092 41.0287 46.0323C38.0747 46.1708 37.7055 46.2938 36.2593 47.617C35.5054 48.3093 35.29 48.5863 35.3669 48.8324C35.3977 49.0171 35.5054 49.3863 35.5669 49.6786C35.69 50.1556 35.7823 50.2325 36.4593 50.4017C37.3055 50.6171 37.3824 50.6018 38.6132 49.694C39.9056 48.7401 40.921 48.2939 42.0442 48.2016C42.9365 48.1247 43.1365 48.1555 43.4596 48.4324L43.8443 48.7401L43.8289 51.4941C43.8135 53.9558 43.7827 54.325 43.4596 55.1558C41.6442 59.9561 42.0442 61.91 45.1674 63.4486C46.3983 64.064 47.4599 64.3256 47.4599 64.0178C47.4599 63.9102 47.0137 63.3563 46.4752 62.787C45.5521 61.8177 44.6905 60.433 44.6905 59.9715C44.6905 59.8638 44.8751 60.0176 45.1059 60.31C47.4445 63.3255 50.2908 65.0794 52.8601 65.0794C54.4141 65.0794 55.691 64.5256 56.5065 63.5101C56.6911 63.2793 56.5372 63.0793 55.2449 61.8023C53.6294 60.2176 53.1525 59.4176 52.7678 57.5867C52.5217 56.4482 52.4601 54.1558 52.6755 54.3866C52.737 54.4789 52.9217 55.1251 53.0601 55.8482C53.6294 58.7714 55.2449 60.91 58.0143 62.3408C59.599 63.1717 59.7836 63.3409 60.2144 64.3717C61.1221 66.4795 61.5991 68.8181 62.2145 74.1568C62.5683 77.1262 62.876 79.0956 63.1376 79.7264C63.4607 80.5572 64.8454 81.8034 64.8454 81.2649C64.8454 81.188 64.6761 80.6187 64.4607 80.0033C63.8607 78.2494 64.0146 78.3571 65.2916 80.5726C65.9531 81.7111 66.5378 82.3111 67.0147 82.3111C67.1686 82.3111 67.4917 82.1419 67.7225 81.9419C68.0917 81.6188 68.1532 81.4649 68.1225 80.8187C68.1071 80.4187 67.9225 79.5725 67.7071 78.9725C67.4917 78.3571 67.384 77.8493 67.4455 77.8493C67.5994 77.8493 67.984 78.6955 68.4302 80.0648C68.6302 80.6649 68.8764 81.1726 68.9687 81.2034C69.0764 81.2341 69.3072 80.9264 69.4918 80.511C69.7687 79.911 69.8303 79.4802 69.8303 78.1571C69.8456 76.2185 69.6149 75.4338 68.1225 72.2337C67.5686 71.049 66.507 68.5719 65.7531 66.7411C64.4146 63.4178 63.8453 62.2178 62.8453 60.6484C62.3529 59.8792 62.3222 59.7253 62.2145 57.956C62.1068 56.2482 62.0452 56.002 61.5375 54.9712C60.8759 53.6327 59.7066 52.3249 58.1835 51.2172C57.5681 50.771 56.5526 50.0325 55.9218 49.5709C55.291 49.1094 54.0756 48.0016 53.2294 47.1247C51.6908 45.5553 51.6755 45.54 50.937 45.54C50.5369 45.54 50.2446 45.4784 50.2908 45.4015C50.5369 45.0168 54.691 45.1399 56.9219 45.6169L57.845 45.8169L58.3681 45.2938C58.6451 45.0015 58.922 44.7707 58.9835 44.7707C59.0297 44.7707 59.1682 44.7091 59.2759 44.6322C59.4451 44.5245 59.4297 44.3399 59.2297 43.6014C59.0912 43.1091 58.8605 42.6013 58.722 42.4936C58.1681 42.0782 56.2449 41.7551 52.814 41.5397C51.4447 41.4474 50.3215 41.2936 49.9831 41.1551C49.6754 41.032 49.3676 40.9243 49.3061 40.9243C49.2446 40.9243 48.6753 41.2936 48.0599 41.7244Z"/>
<path d="M42.3211 63.6486C42.9827 69.6489 44.2443 73.7261 45.9367 75.4031C46.8445 76.3262 47.1214 76.357 47.1829 75.5877L47.2291 75.0184L47.8907 75.8954C48.6599 76.9262 49.0292 77.0032 49.8292 76.2954L50.3677 75.8185L49.9215 74.9107C49.66 74.4184 49.46 73.9415 49.46 73.8491C49.46 73.5722 49.8138 73.6799 50.26 74.1107L50.6908 74.5261V73.7568C50.6908 72.4491 50.1215 70.8182 48.6753 68.0642C47.9214 66.6026 47.2137 65.3564 47.106 65.2641C47.0137 65.1871 46.506 64.9871 45.9983 64.8487C44.829 64.5102 44.0135 64.0948 43.2135 63.4486C42.3519 62.7409 42.2134 62.7716 42.3211 63.6486Z"/>
</mask>
<path d="M39.1518 17.0923C37.7517 17.2154 36.8593 17.5077 35.1823 18.4001C29.6589 21.3079 22.5047 28.4006 17.4583 35.9702C14.3812 40.5705 13.4273 43.4937 14.3197 45.6169C14.9812 47.217 17.1967 48.6171 20.1507 49.3094C21.5816 49.6479 24.5356 49.6479 26.1357 49.3248C30.1513 48.4786 37.0593 45.4784 36.6132 44.7707C36.4439 44.5091 34.9208 44.6015 33.8284 44.9399C33.2437 45.1246 31.7667 45.6631 30.5359 46.1554C27.028 47.5555 26.9973 47.5708 23.5355 47.6478C20.52 47.7247 20.4277 47.7247 19.2584 47.3247C17.7199 46.8016 16.9198 46.2785 16.4121 45.4015C15.4274 43.7091 16.1967 40.5859 18.3507 37.5395C19.92 35.3394 20.9969 34.524 24.6895 32.7393C25.9203 32.1393 27.0896 31.57 27.305 31.4623C27.6742 31.2623 27.6896 31.2007 27.6896 29.7391C27.6896 28.9083 27.7512 28.139 27.8127 28.0467C28.0435 27.6775 29.3051 27.0467 30.182 26.8467C30.6744 26.739 31.8283 26.6005 32.7514 26.539L34.4284 26.4313L36.7055 24.2773C38.7056 22.4003 39.0594 21.9849 39.5364 21.031C40.1056 19.8463 40.4287 18.5078 40.3518 17.5693L40.3057 17L39.1518 17.0923Z" fill="white"/>
<path d="M47.6137 23.6773C47.1522 23.8311 46.2906 24.185 45.6905 24.4619C44.6751 24.9389 44.4597 24.985 41.6134 25.185C38.2594 25.4312 37.444 25.6004 36.1362 26.4159C35.6439 26.7082 34.9823 27.1082 34.69 27.2928C34.2438 27.5698 33.8899 27.6159 32.536 27.6313C31.5052 27.6313 30.5359 27.739 29.8589 27.9236L28.7973 28.2006L28.8897 29.5237C28.9974 30.9238 29.3051 32.0162 29.982 33.3701L30.3974 34.1855L30.059 34.9856C29.7666 35.6317 29.7051 36.0471 29.6897 37.3088C29.6897 38.6934 29.7359 38.9396 30.1205 39.7243C30.9667 41.4474 32.4591 42.4321 35.3515 43.1552C36.0285 43.3245 36.7516 43.6629 37.3516 44.0783C38.6132 44.9399 39.2748 45.1245 40.9211 45.1245C43.2596 45.1245 44.3674 44.5553 45.8598 42.5706C46.7214 41.432 46.9675 41.2013 48.783 39.9243C51.4755 38.0319 52.9063 35.9856 52.9063 34.0009C52.9063 32.8777 52.614 32.1085 51.6293 30.5392C50.9524 29.4776 50.6908 28.6929 50.6908 27.739C50.6908 27.0313 50.1985 24.7389 49.9062 24.1081C49.7369 23.7542 49.0753 23.3696 48.6292 23.4003C48.5368 23.4003 48.0753 23.5234 47.6137 23.6773ZM46.8906 32.2162C47.5368 32.4777 48.4907 33.5855 48.6907 34.2932C48.8907 35.0009 48.8907 36.1087 48.7061 36.2318C48.6138 36.2779 48.3676 35.9856 48.1368 35.5856C47.5214 34.524 47.306 34.3086 46.8291 34.3086C46.1521 34.3086 45.8598 34.8779 45.9829 35.9241C46.029 36.3856 46.1213 37.1549 46.1675 37.6165C46.2598 38.4319 46.2598 38.4627 45.829 38.6165C44.6136 39.0781 44.0443 38.3088 43.952 36.0625C43.8597 33.924 44.3982 32.6624 45.6136 32.17C46.1367 31.97 46.3213 31.97 46.8906 32.2162ZM34.7361 34.8317C35.9054 35.3086 37.2286 37.3395 37.4132 38.9396C37.5209 39.8935 37.3209 39.8627 36.8285 38.8781C36.3208 37.9088 35.9208 37.4165 35.4285 37.2164C35.0592 37.0626 34.9515 37.078 34.69 37.3088C34.2438 37.7088 34.0592 38.555 34.1669 39.6473C34.2899 40.8166 34.1207 40.8936 33.2437 40.032C32.4591 39.2935 32.2283 38.6934 32.2283 37.478C32.2283 36.2164 32.5822 35.2933 33.213 34.9086C33.7822 34.5701 34.0745 34.5394 34.7361 34.8317Z" fill="white"/>
<path d="M64.5377 36.7087C59.3067 37.3088 51.7832 39.0781 50.8447 39.9397C50.66 40.1243 50.66 40.1858 50.9216 40.3858C51.5524 40.8474 52.9986 40.7397 55.7372 39.9858C63.6915 37.8165 72.1689 37.4011 75.3383 39.0165C76.1999 39.4627 76.9537 40.1243 77.2307 40.7089C77.4768 41.2474 77.4768 41.2782 77.0922 42.0628C75.8306 44.6322 68.4764 50.7095 63.7377 53.0942C62.9068 53.5096 62.2299 53.9404 62.2299 54.0481C62.2299 54.5866 62.7222 55.8482 62.9376 55.8482C63.4607 55.8482 69.4149 51.7711 72.2304 49.4786C74.769 47.417 77.9692 43.9091 78.7538 42.3552C78.8923 42.0782 79 41.4936 79 41.0628C79 39.555 78.1076 38.355 76.4152 37.5703C74.7075 36.801 74.2767 36.7395 69.538 36.6933C67.0917 36.6626 64.83 36.6779 64.5377 36.7087Z" fill="white"/>
<path d="M48.0599 41.7244C47.306 42.2782 46.8444 42.7398 46.629 43.1706C46.0752 44.263 45.5213 44.8476 44.5212 45.3861C43.5673 45.8938 43.475 45.9092 41.0287 46.0323C38.0747 46.1708 37.7055 46.2938 36.2593 47.617C35.5054 48.3093 35.29 48.5863 35.3669 48.8324C35.3977 49.0171 35.5054 49.3863 35.5669 49.6786C35.69 50.1556 35.7823 50.2325 36.4593 50.4017C37.3055 50.6171 37.3824 50.6018 38.6132 49.694C39.9056 48.7401 40.921 48.2939 42.0442 48.2016C42.9365 48.1247 43.1365 48.1555 43.4596 48.4324L43.8443 48.7401L43.8289 51.4941C43.8135 53.9558 43.7827 54.325 43.4596 55.1558C41.6442 59.9561 42.0442 61.91 45.1674 63.4486C46.3983 64.064 47.4599 64.3256 47.4599 64.0178C47.4599 63.9102 47.0137 63.3563 46.4752 62.787C45.5521 61.8177 44.6905 60.433 44.6905 59.9715C44.6905 59.8638 44.8751 60.0176 45.1059 60.31C47.4445 63.3255 50.2908 65.0794 52.8601 65.0794C54.4141 65.0794 55.691 64.5256 56.5065 63.5101C56.6911 63.2793 56.5372 63.0793 55.2449 61.8023C53.6294 60.2176 53.1525 59.4176 52.7678 57.5867C52.5217 56.4482 52.4601 54.1558 52.6755 54.3866C52.737 54.4789 52.9217 55.1251 53.0601 55.8482C53.6294 58.7714 55.2449 60.91 58.0143 62.3408C59.599 63.1717 59.7836 63.3409 60.2144 64.3717C61.1221 66.4795 61.5991 68.8181 62.2145 74.1568C62.5683 77.1262 62.876 79.0956 63.1376 79.7264C63.4607 80.5572 64.8454 81.8034 64.8454 81.2649C64.8454 81.188 64.6761 80.6187 64.4607 80.0033C63.8607 78.2494 64.0146 78.3571 65.2916 80.5726C65.9531 81.7111 66.5378 82.3111 67.0147 82.3111C67.1686 82.3111 67.4917 82.1419 67.7225 81.9419C68.0917 81.6188 68.1532 81.4649 68.1225 80.8187C68.1071 80.4187 67.9225 79.5725 67.7071 78.9725C67.4917 78.3571 67.384 77.8493 67.4455 77.8493C67.5994 77.8493 67.984 78.6955 68.4302 80.0648C68.6302 80.6649 68.8764 81.1726 68.9687 81.2034C69.0764 81.2341 69.3072 80.9264 69.4918 80.511C69.7687 79.911 69.8303 79.4802 69.8303 78.1571C69.8456 76.2185 69.6149 75.4338 68.1225 72.2337C67.5686 71.049 66.507 68.5719 65.7531 66.7411C64.4146 63.4178 63.8453 62.2178 62.8453 60.6484C62.3529 59.8792 62.3222 59.7253 62.2145 57.956C62.1068 56.2482 62.0452 56.002 61.5375 54.9712C60.8759 53.6327 59.7066 52.3249 58.1835 51.2172C57.5681 50.771 56.5526 50.0325 55.9218 49.5709C55.291 49.1094 54.0756 48.0016 53.2294 47.1247C51.6908 45.5553 51.6755 45.54 50.937 45.54C50.5369 45.54 50.2446 45.4784 50.2908 45.4015C50.5369 45.0168 54.691 45.1399 56.9219 45.6169L57.845 45.8169L58.3681 45.2938C58.6451 45.0015 58.922 44.7707 58.9835 44.7707C59.0297 44.7707 59.1682 44.7091 59.2759 44.6322C59.4451 44.5245 59.4297 44.3399 59.2297 43.6014C59.0912 43.1091 58.8605 42.6013 58.722 42.4936C58.1681 42.0782 56.2449 41.7551 52.814 41.5397C51.4447 41.4474 50.3215 41.2936 49.9831 41.1551C49.6754 41.032 49.3676 40.9243 49.3061 40.9243C49.2446 40.9243 48.6753 41.2936 48.0599 41.7244Z" fill="white"/>
<path d="M42.3211 63.6486C42.9827 69.6489 44.2443 73.7261 45.9367 75.4031C46.8445 76.3262 47.1214 76.357 47.1829 75.5877L47.2291 75.0184L47.8907 75.8954C48.6599 76.9262 49.0292 77.0032 49.8292 76.2954L50.3677 75.8185L49.9215 74.9107C49.66 74.4184 49.46 73.9415 49.46 73.8491C49.46 73.5722 49.8138 73.6799 50.26 74.1107L50.6908 74.5261V73.7568C50.6908 72.4491 50.1215 70.8182 48.6753 68.0642C47.9214 66.6026 47.2137 65.3564 47.106 65.2641C47.0137 65.1871 46.506 64.9871 45.9983 64.8487C44.829 64.5102 44.0135 64.0948 43.2135 63.4486C42.3519 62.7409 42.2134 62.7716 42.3211 63.6486Z" fill="white"/>
<path d="M39.1518 17.0923C37.7517 17.2154 36.8593 17.5077 35.1823 18.4001C29.6589 21.3079 22.5047 28.4006 17.4583 35.9702C14.3812 40.5705 13.4273 43.4937 14.3197 45.6169C14.9812 47.217 17.1967 48.6171 20.1507 49.3094C21.5816 49.6479 24.5356 49.6479 26.1357 49.3248C30.1513 48.4786 37.0593 45.4784 36.6132 44.7707C36.4439 44.5091 34.9208 44.6015 33.8284 44.9399C33.2437 45.1246 31.7667 45.6631 30.5359 46.1554C27.028 47.5555 26.9973 47.5708 23.5355 47.6478C20.52 47.7247 20.4277 47.7247 19.2584 47.3247C17.7199 46.8016 16.9198 46.2785 16.4121 45.4015C15.4274 43.7091 16.1967 40.5859 18.3507 37.5395C19.92 35.3394 20.9969 34.524 24.6895 32.7393C25.9203 32.1393 27.0896 31.57 27.305 31.4623C27.6742 31.2623 27.6896 31.2007 27.6896 29.7391C27.6896 28.9083 27.7512 28.139 27.8127 28.0467C28.0435 27.6775 29.3051 27.0467 30.182 26.8467C30.6744 26.739 31.8283 26.6005 32.7514 26.539L34.4284 26.4313L36.7055 24.2773C38.7056 22.4003 39.0594 21.9849 39.5364 21.031C40.1056 19.8463 40.4287 18.5078 40.3518 17.5693L40.3057 17L39.1518 17.0923Z" stroke="#B2B2B2" stroke-width="0.6" mask="url(#path-4-inside-1_239_1103)"/>
<path d="M47.6137 23.6773C47.1522 23.8311 46.2906 24.185 45.6905 24.4619C44.6751 24.9389 44.4597 24.985 41.6134 25.185C38.2594 25.4312 37.444 25.6004 36.1362 26.4159C35.6439 26.7082 34.9823 27.1082 34.69 27.2928C34.2438 27.5698 33.8899 27.6159 32.536 27.6313C31.5052 27.6313 30.5359 27.739 29.8589 27.9236L28.7973 28.2006L28.8897 29.5237C28.9974 30.9238 29.3051 32.0162 29.982 33.3701L30.3974 34.1855L30.059 34.9856C29.7666 35.6317 29.7051 36.0471 29.6897 37.3088C29.6897 38.6934 29.7359 38.9396 30.1205 39.7243C30.9667 41.4474 32.4591 42.4321 35.3515 43.1552C36.0285 43.3245 36.7516 43.6629 37.3516 44.0783C38.6132 44.9399 39.2748 45.1245 40.9211 45.1245C43.2596 45.1245 44.3674 44.5553 45.8598 42.5706C46.7214 41.432 46.9675 41.2013 48.783 39.9243C51.4755 38.0319 52.9063 35.9856 52.9063 34.0009C52.9063 32.8777 52.614 32.1085 51.6293 30.5392C50.9524 29.4776 50.6908 28.6929 50.6908 27.739C50.6908 27.0313 50.1985 24.7389 49.9062 24.1081C49.7369 23.7542 49.0753 23.3696 48.6292 23.4003C48.5368 23.4003 48.0753 23.5234 47.6137 23.6773ZM46.8906 32.2162C47.5368 32.4777 48.4907 33.5855 48.6907 34.2932C48.8907 35.0009 48.8907 36.1087 48.7061 36.2318C48.6138 36.2779 48.3676 35.9856 48.1368 35.5856C47.5214 34.524 47.306 34.3086 46.8291 34.3086C46.1521 34.3086 45.8598 34.8779 45.9829 35.9241C46.029 36.3856 46.1213 37.1549 46.1675 37.6165C46.2598 38.4319 46.2598 38.4627 45.829 38.6165C44.6136 39.0781 44.0443 38.3088 43.952 36.0625C43.8597 33.924 44.3982 32.6624 45.6136 32.17C46.1367 31.97 46.3213 31.97 46.8906 32.2162ZM34.7361 34.8317C35.9054 35.3086 37.2286 37.3395 37.4132 38.9396C37.5209 39.8935 37.3209 39.8627 36.8285 38.8781C36.3208 37.9088 35.9208 37.4165 35.4285 37.2164C35.0592 37.0626 34.9515 37.078 34.69 37.3088C34.2438 37.7088 34.0592 38.555 34.1669 39.6473C34.2899 40.8166 34.1207 40.8936 33.2437 40.032C32.4591 39.2935 32.2283 38.6934 32.2283 37.478C32.2283 36.2164 32.5822 35.2933 33.213 34.9086C33.7822 34.5701 34.0745 34.5394 34.7361 34.8317Z" stroke="#B2B2B2" stroke-width="0.6" mask="url(#path-4-inside-1_239_1103)"/>
<path d="M64.5377 36.7087C59.3067 37.3088 51.7832 39.0781 50.8447 39.9397C50.66 40.1243 50.66 40.1858 50.9216 40.3858C51.5524 40.8474 52.9986 40.7397 55.7372 39.9858C63.6915 37.8165 72.1689 37.4011 75.3383 39.0165C76.1999 39.4627 76.9537 40.1243 77.2307 40.7089C77.4768 41.2474 77.4768 41.2782 77.0922 42.0628C75.8306 44.6322 68.4764 50.7095 63.7377 53.0942C62.9068 53.5096 62.2299 53.9404 62.2299 54.0481C62.2299 54.5866 62.7222 55.8482 62.9376 55.8482C63.4607 55.8482 69.4149 51.7711 72.2304 49.4786C74.769 47.417 77.9692 43.9091 78.7538 42.3552C78.8923 42.0782 79 41.4936 79 41.0628C79 39.555 78.1076 38.355 76.4152 37.5703C74.7075 36.801 74.2767 36.7395 69.538 36.6933C67.0917 36.6626 64.83 36.6779 64.5377 36.7087Z" stroke="#B2B2B2" stroke-width="0.6" mask="url(#path-4-inside-1_239_1103)"/>
<path d="M48.0599 41.7244C47.306 42.2782 46.8444 42.7398 46.629 43.1706C46.0752 44.263 45.5213 44.8476 44.5212 45.3861C43.5673 45.8938 43.475 45.9092 41.0287 46.0323C38.0747 46.1708 37.7055 46.2938 36.2593 47.617C35.5054 48.3093 35.29 48.5863 35.3669 48.8324C35.3977 49.0171 35.5054 49.3863 35.5669 49.6786C35.69 50.1556 35.7823 50.2325 36.4593 50.4017C37.3055 50.6171 37.3824 50.6018 38.6132 49.694C39.9056 48.7401 40.921 48.2939 42.0442 48.2016C42.9365 48.1247 43.1365 48.1555 43.4596 48.4324L43.8443 48.7401L43.8289 51.4941C43.8135 53.9558 43.7827 54.325 43.4596 55.1558C41.6442 59.9561 42.0442 61.91 45.1674 63.4486C46.3983 64.064 47.4599 64.3256 47.4599 64.0178C47.4599 63.9102 47.0137 63.3563 46.4752 62.787C45.5521 61.8177 44.6905 60.433 44.6905 59.9715C44.6905 59.8638 44.8751 60.0176 45.1059 60.31C47.4445 63.3255 50.2908 65.0794 52.8601 65.0794C54.4141 65.0794 55.691 64.5256 56.5065 63.5101C56.6911 63.2793 56.5372 63.0793 55.2449 61.8023C53.6294 60.2176 53.1525 59.4176 52.7678 57.5867C52.5217 56.4482 52.4601 54.1558 52.6755 54.3866C52.737 54.4789 52.9217 55.1251 53.0601 55.8482C53.6294 58.7714 55.2449 60.91 58.0143 62.3408C59.599 63.1717 59.7836 63.3409 60.2144 64.3717C61.1221 66.4795 61.5991 68.8181 62.2145 74.1568C62.5683 77.1262 62.876 79.0956 63.1376 79.7264C63.4607 80.5572 64.8454 81.8034 64.8454 81.2649C64.8454 81.188 64.6761 80.6187 64.4607 80.0033C63.8607 78.2494 64.0146 78.3571 65.2916 80.5726C65.9531 81.7111 66.5378 82.3111 67.0147 82.3111C67.1686 82.3111 67.4917 82.1419 67.7225 81.9419C68.0917 81.6188 68.1532 81.4649 68.1225 80.8187C68.1071 80.4187 67.9225 79.5725 67.7071 78.9725C67.4917 78.3571 67.384 77.8493 67.4455 77.8493C67.5994 77.8493 67.984 78.6955 68.4302 80.0648C68.6302 80.6649 68.8764 81.1726 68.9687 81.2034C69.0764 81.2341 69.3072 80.9264 69.4918 80.511C69.7687 79.911 69.8303 79.4802 69.8303 78.1571C69.8456 76.2185 69.6149 75.4338 68.1225 72.2337C67.5686 71.049 66.507 68.5719 65.7531 66.7411C64.4146 63.4178 63.8453 62.2178 62.8453 60.6484C62.3529 59.8792 62.3222 59.7253 62.2145 57.956C62.1068 56.2482 62.0452 56.002 61.5375 54.9712C60.8759 53.6327 59.7066 52.3249 58.1835 51.2172C57.5681 50.771 56.5526 50.0325 55.9218 49.5709C55.291 49.1094 54.0756 48.0016 53.2294 47.1247C51.6908 45.5553 51.6755 45.54 50.937 45.54C50.5369 45.54 50.2446 45.4784 50.2908 45.4015C50.5369 45.0168 54.691 45.1399 56.9219 45.6169L57.845 45.8169L58.3681 45.2938C58.6451 45.0015 58.922 44.7707 58.9835 44.7707C59.0297 44.7707 59.1682 44.7091 59.2759 44.6322C59.4451 44.5245 59.4297 44.3399 59.2297 43.6014C59.0912 43.1091 58.8605 42.6013 58.722 42.4936C58.1681 42.0782 56.2449 41.7551 52.814 41.5397C51.4447 41.4474 50.3215 41.2936 49.9831 41.1551C49.6754 41.032 49.3676 40.9243 49.3061 40.9243C49.2446 40.9243 48.6753 41.2936 48.0599 41.7244Z" stroke="#B2B2B2" stroke-width="0.6" mask="url(#path-4-inside-1_239_1103)"/>
<path d="M42.3211 63.6486C42.9827 69.6489 44.2443 73.7261 45.9367 75.4031C46.8445 76.3262 47.1214 76.357 47.1829 75.5877L47.2291 75.0184L47.8907 75.8954C48.6599 76.9262 49.0292 77.0032 49.8292 76.2954L50.3677 75.8185L49.9215 74.9107C49.66 74.4184 49.46 73.9415 49.46 73.8491C49.46 73.5722 49.8138 73.6799 50.26 74.1107L50.6908 74.5261V73.7568C50.6908 72.4491 50.1215 70.8182 48.6753 68.0642C47.9214 66.6026 47.2137 65.3564 47.106 65.2641C47.0137 65.1871 46.506 64.9871 45.9983 64.8487C44.829 64.5102 44.0135 64.0948 43.2135 63.4486C42.3519 62.7409 42.2134 62.7716 42.3211 63.6486Z" stroke="#B2B2B2" stroke-width="0.6" mask="url(#path-4-inside-1_239_1103)"/>
<defs>
<linearGradient id="paint0_linear_239_1103" x1="106.5" y1="2" x2="43.5" y2="100" gradientUnits="userSpaceOnUse">
<stop stop-color="#B2B2B2"/>
<stop offset="1" stop-color="#C0C0C0"/>
</linearGradient>
<linearGradient id="paint1_linear_239_1103" x1="2" y1="29" x2="24.5" y2="98" gradientUnits="userSpaceOnUse">
<stop stop-color="#DBDCDC" stop-opacity="0.5"/>
<stop offset="1" stop-color="#DBDCDC" stop-opacity="0"/>
</linearGradient>
<linearGradient id="paint2_linear_239_1103" x1="87.5" y1="9" x2="13" y2="128.5" gradientUnits="userSpaceOnUse">
<stop stop-color="white"/>
<stop offset="1" stop-color="white" stop-opacity="0"/>
</linearGradient>
</defs>
</svg>
