<svg width="100" height="101" viewBox="0 0 100 101" fill="none" xmlns="http://www.w3.org/2000/svg">
<circle cx="50" cy="50.5" r="50" fill="url(#paint0_linear_405_497)"/>
<g style="mix-blend-mode:multiply">
<path d="M10 51C10 72.263 17 85.5 17 85.5C17 85.5 2 72.263 2 51C2 29.737 15 18.5 15 18.5C15 18.5 10 29.737 10 51Z" fill="url(#paint1_linear_405_497)"/>
</g>
<path d="M97.9998 50.5C97.9998 76.4574 78.0765 97.5 53.4998 97.5C28.9231 97.5 58.4998 85.4574 58.4998 59.5C58.4998 33.5426 28.9231 3.5 53.4998 3.5C78.0765 3.5 97.9998 24.5426 97.9998 50.5Z" fill="url(#paint2_linear_405_497)" fill-opacity="0.4"/>
<mask id="path-4-inside-1_405_497" fill="white">
<path fill-rule="evenodd" clip-rule="evenodd" d="M82.9421 50.471C82.9421 68.3256 68.7501 82.8654 51.0316 83.4253C50.3893 82.5266 49.7785 81.5955 49.2007 80.6346C64.6584 80.2995 77.0861 67.664 77.0861 52.1259C77.0861 51.8922 77.0833 51.6591 77.0777 51.4267C79.2603 49.8022 81.1358 47.9719 82.639 45.9816C82.8388 47.4495 82.9421 48.9482 82.9421 50.471ZM48.5706 78.0954C48.3063 78.0954 48.0429 78.0914 47.7805 78.0836C46.8141 76.2049 45.9658 74.2299 45.2447 72.1735C52.8815 71.5031 59.0746 65.8003 60.4882 58.4013C65.748 57.408 70.5254 55.5874 74.5203 53.1504C73.9823 67.018 62.5701 78.0954 48.5706 78.0954ZM44.816 77.826C43.9653 76.0214 43.2159 74.1425 42.5734 72.2007C33.6933 71.6045 26.6749 64.2124 26.6749 55.1812C26.6749 54.2569 26.7484 53.3497 26.8899 52.4653C25.3842 51.4685 24.0025 50.3803 22.7627 49.2133C22.656 50.1694 22.6012 51.1413 22.6012 52.1259C22.6012 65.1934 32.2526 76.0066 44.816 77.826ZM57.7823 58.8329C56.2202 64.86 50.8821 69.3662 44.4434 69.6765C44.0735 68.4092 43.7504 67.115 43.476 65.7969C47.3193 65.3246 50.4979 62.7376 51.7802 59.252C53.8276 59.2307 55.8329 59.0878 57.7823 58.8329ZM41.7772 69.5628C41.4392 68.3268 41.1432 67.0688 40.8906 65.7914C35.8872 65.1545 32.0213 60.9319 32.0213 55.8176C32.0213 55.6421 32.0259 55.4676 32.0349 55.2943C31.083 54.8635 30.1623 54.4016 29.2758 53.9107C29.2395 54.3294 29.2209 54.7531 29.2209 55.1812C29.2209 62.5328 34.6873 68.6076 41.7772 69.5628ZM49.4078 59.222C48.2796 61.6609 45.8818 63.3924 43.0623 63.5683C42.9053 63.5781 42.7469 63.5831 42.5874 63.5831C41.846 63.5831 41.1297 63.4757 40.4532 63.2755C37.4852 62.3975 35.2833 59.735 35.0904 56.5308C35.0813 56.3791 35.0766 56.2262 35.0766 56.0723C35.0766 55.3269 35.1852 54.6069 35.3874 53.9272C36.0737 51.6205 37.8381 49.7781 40.0963 48.9845C40.8759 48.7105 41.7143 48.5615 42.5874 48.5615C42.6232 48.5615 42.6589 48.5618 42.6946 48.5623C46.7933 48.6196 50.0982 51.96 50.0982 56.0723C50.0982 56.2819 50.0896 56.4895 50.0728 56.6948C49.9992 57.591 49.7684 58.4426 49.4078 59.222ZM52.3895 55.8176C52.3895 50.5482 48.2855 46.2253 43.0617 45.7959C43.2946 44.3103 43.5865 42.8159 43.9394 41.3161C43.99 41.1011 44.0416 40.8868 44.0943 40.6732C51.9425 40.8649 58.2456 47.2869 58.2456 55.1812C58.2456 55.5247 58.2337 55.8655 58.2102 56.2031C56.316 56.4826 54.3582 56.6509 52.3512 56.6963C52.3766 56.4067 52.3895 56.1137 52.3895 55.8176ZM40.4716 45.906C40.7194 44.2273 41.0393 42.5404 41.4336 40.85C35.8137 41.7448 31.2693 45.8657 29.7583 51.2549C30.6377 51.7717 31.5582 52.2582 32.5163 52.7116C33.6686 49.2042 36.7194 46.5415 40.4716 45.906ZM60.7917 55.1812C60.7917 46.1095 53.7103 38.6917 44.7737 38.154C46.0341 33.8521 47.7315 29.8443 49.7813 26.1842C62.9074 26.7865 73.4912 37.1334 74.4667 50.1588C70.7055 52.7067 66.0317 54.6614 60.7824 55.7479C60.7886 55.5597 60.7917 55.3708 60.7917 55.1812ZM42.1133 38.1987C43.3071 33.9324 44.9207 29.9179 46.8812 26.2105C35.354 26.9507 25.8735 35.2117 23.2948 46.1383C24.5073 47.4511 25.9254 48.6859 27.5339 49.8217C29.6183 43.518 35.2793 38.8425 42.1133 38.1987ZM76.8412 48.3716C75.1175 35.2657 64.4937 24.9634 51.2385 23.7336C52.5339 21.6792 53.9442 19.7489 55.4523 17.9535C68.403 20.1205 78.796 29.8368 81.9531 42.424C80.7179 44.5605 78.9972 46.5661 76.8412 48.3716ZM48.3421 23.6113C49.6088 21.4875 50.993 19.4777 52.4792 17.594C51.6513 17.5317 50.8149 17.5 49.971 17.5C35.774 17.5 23.6728 26.473 19.0291 39.057C19.544 40.6541 20.3159 42.203 21.3269 43.6793C24.9056 32.1237 35.634 23.7111 48.3421 23.6113ZM47.9066 83.3785C47.3091 82.4607 46.7416 81.5154 46.2053 80.5447C31.5633 79.3424 20.0551 67.0781 20.0551 52.1259C20.0551 50.3251 20.2221 48.5634 20.5413 46.8552C19.4952 45.595 18.6018 44.2646 17.8789 42.8765C17.3041 45.3147 17 47.8573 17 50.471C17 67.9871 30.6589 82.3129 47.9066 83.3785Z"/>
</mask>
<path fill-rule="evenodd" clip-rule="evenodd" d="M82.9421 50.471C82.9421 68.3256 68.7501 82.8654 51.0316 83.4253C50.3893 82.5266 49.7785 81.5955 49.2007 80.6346C64.6584 80.2995 77.0861 67.664 77.0861 52.1259C77.0861 51.8922 77.0833 51.6591 77.0777 51.4267C79.2603 49.8022 81.1358 47.9719 82.639 45.9816C82.8388 47.4495 82.9421 48.9482 82.9421 50.471ZM48.5706 78.0954C48.3063 78.0954 48.0429 78.0914 47.7805 78.0836C46.8141 76.2049 45.9658 74.2299 45.2447 72.1735C52.8815 71.5031 59.0746 65.8003 60.4882 58.4013C65.748 57.408 70.5254 55.5874 74.5203 53.1504C73.9823 67.018 62.5701 78.0954 48.5706 78.0954ZM44.816 77.826C43.9653 76.0214 43.2159 74.1425 42.5734 72.2007C33.6933 71.6045 26.6749 64.2124 26.6749 55.1812C26.6749 54.2569 26.7484 53.3497 26.8899 52.4653C25.3842 51.4685 24.0025 50.3803 22.7627 49.2133C22.656 50.1694 22.6012 51.1413 22.6012 52.1259C22.6012 65.1934 32.2526 76.0066 44.816 77.826ZM57.7823 58.8329C56.2202 64.86 50.8821 69.3662 44.4434 69.6765C44.0735 68.4092 43.7504 67.115 43.476 65.7969C47.3193 65.3246 50.4979 62.7376 51.7802 59.252C53.8276 59.2307 55.8329 59.0878 57.7823 58.8329ZM41.7772 69.5628C41.4392 68.3268 41.1432 67.0688 40.8906 65.7914C35.8872 65.1545 32.0213 60.9319 32.0213 55.8176C32.0213 55.6421 32.0259 55.4676 32.0349 55.2943C31.083 54.8635 30.1623 54.4016 29.2758 53.9107C29.2395 54.3294 29.2209 54.7531 29.2209 55.1812C29.2209 62.5328 34.6873 68.6076 41.7772 69.5628ZM49.4078 59.222C48.2796 61.6609 45.8818 63.3924 43.0623 63.5683C42.9053 63.5781 42.7469 63.5831 42.5874 63.5831C41.846 63.5831 41.1297 63.4757 40.4532 63.2755C37.4852 62.3975 35.2833 59.735 35.0904 56.5308C35.0813 56.3791 35.0766 56.2262 35.0766 56.0723C35.0766 55.3269 35.1852 54.6069 35.3874 53.9272C36.0737 51.6205 37.8381 49.7781 40.0963 48.9845C40.8759 48.7105 41.7143 48.5615 42.5874 48.5615C42.6232 48.5615 42.6589 48.5618 42.6946 48.5623C46.7933 48.6196 50.0982 51.96 50.0982 56.0723C50.0982 56.2819 50.0896 56.4895 50.0728 56.6948C49.9992 57.591 49.7684 58.4426 49.4078 59.222ZM52.3895 55.8176C52.3895 50.5482 48.2855 46.2253 43.0617 45.7959C43.2946 44.3103 43.5865 42.8159 43.9394 41.3161C43.99 41.1011 44.0416 40.8868 44.0943 40.6732C51.9425 40.8649 58.2456 47.2869 58.2456 55.1812C58.2456 55.5247 58.2337 55.8655 58.2102 56.2031C56.316 56.4826 54.3582 56.6509 52.3512 56.6963C52.3766 56.4067 52.3895 56.1137 52.3895 55.8176ZM40.4716 45.906C40.7194 44.2273 41.0393 42.5404 41.4336 40.85C35.8137 41.7448 31.2693 45.8657 29.7583 51.2549C30.6377 51.7717 31.5582 52.2582 32.5163 52.7116C33.6686 49.2042 36.7194 46.5415 40.4716 45.906ZM60.7917 55.1812C60.7917 46.1095 53.7103 38.6917 44.7737 38.154C46.0341 33.8521 47.7315 29.8443 49.7813 26.1842C62.9074 26.7865 73.4912 37.1334 74.4667 50.1588C70.7055 52.7067 66.0317 54.6614 60.7824 55.7479C60.7886 55.5597 60.7917 55.3708 60.7917 55.1812ZM42.1133 38.1987C43.3071 33.9324 44.9207 29.9179 46.8812 26.2105C35.354 26.9507 25.8735 35.2117 23.2948 46.1383C24.5073 47.4511 25.9254 48.6859 27.5339 49.8217C29.6183 43.518 35.2793 38.8425 42.1133 38.1987ZM76.8412 48.3716C75.1175 35.2657 64.4937 24.9634 51.2385 23.7336C52.5339 21.6792 53.9442 19.7489 55.4523 17.9535C68.403 20.1205 78.796 29.8368 81.9531 42.424C80.7179 44.5605 78.9972 46.5661 76.8412 48.3716ZM48.3421 23.6113C49.6088 21.4875 50.993 19.4777 52.4792 17.594C51.6513 17.5317 50.8149 17.5 49.971 17.5C35.774 17.5 23.6728 26.473 19.0291 39.057C19.544 40.6541 20.3159 42.203 21.3269 43.6793C24.9056 32.1237 35.634 23.7111 48.3421 23.6113ZM47.9066 83.3785C47.3091 82.4607 46.7416 81.5154 46.2053 80.5447C31.5633 79.3424 20.0551 67.0781 20.0551 52.1259C20.0551 50.3251 20.2221 48.5634 20.5413 46.8552C19.4952 45.595 18.6018 44.2646 17.8789 42.8765C17.3041 45.3147 17 47.8573 17 50.471C17 67.9871 30.6589 82.3129 47.9066 83.3785Z" fill="white"/>
<path d="M51.0316 83.4253L50.8244 83.5734L50.9036 83.6841L51.0396 83.6798L51.0316 83.4253ZM49.2007 80.6346L49.1952 80.38L48.7563 80.3896L48.9825 80.7658L49.2007 80.6346ZM77.0777 51.4267L76.9257 51.2224L76.82 51.3011L76.8232 51.4328L77.0777 51.4267ZM82.639 45.9816L82.8912 45.9472L82.8079 45.3354L82.4358 45.8281L82.639 45.9816ZM47.7805 78.0836L47.5541 78.2001L47.6228 78.3336L47.7729 78.3381L47.7805 78.0836ZM45.2447 72.1735L45.2224 71.9199L44.8959 71.9485L45.0044 72.2578L45.2447 72.1735ZM60.4882 58.4013L60.4409 58.1511L60.2706 58.1833L60.2381 58.3535L60.4882 58.4013ZM74.5203 53.1504L74.7747 53.1602L74.7931 52.6857L74.3877 52.933L74.5203 53.1504ZM42.5734 72.2007L42.8151 72.1208L42.7613 71.9582L42.5905 71.9467L42.5734 72.2007ZM44.816 77.826L44.7795 78.0779L45.2482 78.1458L45.0463 77.7174L44.816 77.826ZM26.8899 52.4653L27.1413 52.5055L27.1672 52.3435L27.0305 52.253L26.8899 52.4653ZM22.7627 49.2133L22.9372 49.0279L22.5662 48.6787L22.5097 49.185L22.7627 49.2133ZM44.4434 69.6765L44.199 69.7478L44.2552 69.9404L44.4556 69.9308L44.4434 69.6765ZM57.7823 58.8329L58.0288 58.8968L58.1234 58.5316L57.7493 58.5805L57.7823 58.8329ZM43.476 65.7969L43.4449 65.5442L43.1703 65.578L43.2267 65.8488L43.476 65.7969ZM51.7802 59.252L51.7776 58.9974L51.6019 58.9993L51.5413 59.1641L51.7802 59.252ZM40.8906 65.7914L41.1404 65.742L41.1048 65.562L40.9228 65.5388L40.8906 65.7914ZM41.7772 69.5628L41.7432 69.8151L42.1242 69.8665L42.0228 69.4957L41.7772 69.5628ZM32.0349 55.2943L32.2891 55.3075L32.2982 55.134L32.1399 55.0623L32.0349 55.2943ZM29.2758 53.9107L29.3991 53.688L29.056 53.498L29.0221 53.8887L29.2758 53.9107ZM43.0623 63.5683L43.0782 63.8224L43.0782 63.8224L43.0623 63.5683ZM49.4078 59.222L49.1768 59.1151L49.1768 59.1151L49.4078 59.222ZM40.4532 63.2755L40.5255 63.0314L40.5255 63.0314L40.4532 63.2755ZM35.0904 56.5308L35.3446 56.5155L35.3446 56.5155L35.0904 56.5308ZM35.3874 53.9272L35.6315 53.9997L35.6315 53.9997L35.3874 53.9272ZM40.0963 48.9845L40.1808 49.2247L40.1808 49.2247L40.0963 48.9845ZM42.6946 48.5623L42.6981 48.3077L42.6981 48.3077L42.6946 48.5623ZM50.0728 56.6948L49.819 56.674L49.819 56.674L50.0728 56.6948ZM43.0617 45.7959L42.8102 45.7565L42.7678 46.0272L43.0409 46.0496L43.0617 45.7959ZM43.9394 41.3161L44.1873 41.3744L44.1873 41.3744L43.9394 41.3161ZM44.0943 40.6732L44.1006 40.4187L43.8961 40.4137L43.8472 40.6122L44.0943 40.6732ZM58.2102 56.2031L58.2474 56.4549L58.45 56.425L58.4642 56.2207L58.2102 56.2031ZM52.3512 56.6963L52.0976 56.674L52.0728 56.9572L52.357 56.9508L52.3512 56.6963ZM41.4336 40.85L41.6816 40.9079L41.7676 40.539L41.3936 40.5986L41.4336 40.85ZM40.4716 45.906L40.5141 46.157L40.6964 46.1261L40.7235 45.9432L40.4716 45.906ZM29.7583 51.2549L29.5131 51.1862L29.4602 51.3751L29.6293 51.4744L29.7583 51.2549ZM32.5163 52.7116L32.4074 52.9417L32.6682 53.0651L32.7582 52.791L32.5163 52.7116ZM44.7737 38.154L44.5294 38.0824L44.4396 38.389L44.7584 38.4082L44.7737 38.154ZM49.7813 26.1842L49.7929 25.9299L49.6359 25.9226L49.5591 26.0598L49.7813 26.1842ZM74.4667 50.1588L74.6095 50.3696L74.7316 50.2869L74.7206 50.1398L74.4667 50.1588ZM60.7824 55.7479L60.5279 55.7396L60.5174 56.0628L60.834 55.9972L60.7824 55.7479ZM46.8812 26.2105L47.1063 26.3296L47.319 25.9273L46.8649 25.9565L46.8812 26.2105ZM42.1133 38.1987L42.1372 38.4522L42.3114 38.4358L42.3585 38.2673L42.1133 38.1987ZM23.2948 46.1383L23.047 46.0798L23.0159 46.2115L23.1078 46.311L23.2948 46.1383ZM27.5339 49.8217L27.387 50.0296L27.6677 50.2278L27.7756 49.9016L27.5339 49.8217ZM51.2385 23.7336L51.0231 23.5978L50.8018 23.9488L51.2149 23.9871L51.2385 23.7336ZM76.8412 48.3716L76.5887 48.4048L76.6492 48.8644L77.0046 48.5668L76.8412 48.3716ZM55.4523 17.9535L55.4943 17.7024L55.3509 17.6784L55.2573 17.7898L55.4523 17.9535ZM81.9531 42.424L82.1735 42.5514L82.2251 42.4621L82.2 42.3621L81.9531 42.424ZM52.4792 17.594L52.679 17.7517L52.9754 17.376L52.4983 17.3401L52.4792 17.594ZM48.3421 23.6113L48.3441 23.8659L48.4874 23.8648L48.5608 23.7418L48.3421 23.6113ZM19.0291 39.057L18.7903 38.9689L18.7598 39.0514L18.7868 39.1352L19.0291 39.057ZM21.3269 43.6793L21.1168 43.8231L21.4144 44.2575L21.5701 43.7546L21.3269 43.6793ZM46.2053 80.5447L46.4282 80.4216L46.3622 80.3021L46.2261 80.291L46.2053 80.5447ZM47.9066 83.3785L47.8909 83.6326L48.3962 83.6638L48.1199 83.2396L47.9066 83.3785ZM20.5413 46.8552L20.7916 46.9019L20.8135 46.7845L20.7372 46.6925L20.5413 46.8552ZM17.8789 42.8765L18.1047 42.7589L17.7883 42.1513L17.6311 42.8181L17.8789 42.8765ZM51.0396 83.6798C68.8952 83.1156 83.1967 68.4635 83.1967 50.471H82.6875C82.6875 68.1877 68.6051 82.6153 51.0235 83.1709L51.0396 83.6798ZM48.9825 80.7658C49.5637 81.7324 50.1782 82.669 50.8244 83.5734L51.2387 83.2773C50.6004 82.3841 49.9933 81.4587 49.4189 80.5034L48.9825 80.7658ZM76.8315 52.1259C76.8315 67.5253 64.5148 80.0479 49.1952 80.38L49.2062 80.8891C64.8021 80.551 77.3407 67.8028 77.3407 52.1259H76.8315ZM76.8232 51.4328C76.8287 51.6632 76.8315 51.8942 76.8315 52.1259H77.3407C77.3407 51.8901 77.3379 51.655 77.3322 51.4206L76.8232 51.4328ZM82.4358 45.8281C80.9486 47.7972 79.091 49.6108 76.9257 51.2224L77.2297 51.6309C79.4296 49.9936 81.3229 48.1466 82.8421 46.135L82.4358 45.8281ZM83.1967 50.471C83.1967 48.9367 83.0926 47.4265 82.8912 45.9472L82.3867 46.0159C82.585 47.4725 82.6875 48.9597 82.6875 50.471H83.1967ZM47.7729 78.3381C48.0378 78.346 48.3038 78.35 48.5706 78.35V77.8408C48.3088 77.8408 48.048 77.8369 47.7881 77.8291L47.7729 78.3381ZM45.0044 72.2578C45.7294 74.325 46.5823 76.3108 47.5541 78.2001L48.0069 77.9671C47.046 76.0991 46.2023 74.1349 45.4849 72.0893L45.0044 72.2578ZM60.2381 58.3535C58.8457 65.6419 52.7447 71.2595 45.2224 71.9199L45.2669 72.4271C53.0183 71.7466 59.3036 65.9588 60.7382 58.4491L60.2381 58.3535ZM74.3877 52.933C70.4212 55.3527 65.6732 57.163 60.4409 58.1511L60.5354 58.6515C65.8228 57.653 70.6295 55.8221 74.6529 53.3677L74.3877 52.933ZM48.5706 78.35C62.7074 78.35 74.2314 67.164 74.7747 53.1602L74.2658 53.1405C73.7332 66.872 62.4328 77.8408 48.5706 77.8408V78.35ZM42.3317 72.2807C42.9773 74.232 43.7305 76.1205 44.5857 77.9345L45.0463 77.7174C44.2001 75.9223 43.4544 74.0529 42.8151 72.1208L42.3317 72.2807ZM26.4203 55.1812C26.4203 64.3473 33.5434 71.8496 42.5564 72.4548L42.5905 71.9467C33.8431 71.3594 26.9295 64.0775 26.9295 55.1812H26.4203ZM26.6385 52.4251C26.4949 53.3227 26.4203 54.2433 26.4203 55.1812H26.9295C26.9295 54.2704 27.0019 53.3767 27.1413 52.5055L26.6385 52.4251ZM22.5882 49.3987C23.8392 50.5762 25.2324 51.6733 26.7494 52.6776L27.0305 52.253C25.5361 51.2636 24.1658 50.1843 22.9372 49.0279L22.5882 49.3987ZM22.8558 52.1259C22.8558 51.1507 22.91 50.1883 23.0157 49.2415L22.5097 49.185C22.4019 50.1506 22.3466 51.1318 22.3466 52.1259H22.8558ZM44.8525 77.574C32.4125 75.7725 22.8558 65.065 22.8558 52.1259H22.3466C22.3466 65.3217 32.0927 76.2407 44.7795 78.0779L44.8525 77.574ZM44.4556 69.9308C51.0079 69.6151 56.4392 65.0296 58.0288 58.8968L57.5359 58.769C56.0011 64.6903 50.7563 69.1174 44.4311 69.4221L44.4556 69.9308ZM43.2267 65.8488C43.5025 67.1733 43.8272 68.4741 44.199 69.7478L44.6878 69.6051C44.3198 68.3443 43.9983 67.0566 43.7252 65.745L43.2267 65.8488ZM51.5413 59.1641C50.2916 62.5607 47.1929 65.0836 43.4449 65.5442L43.507 66.0496C47.4456 65.5656 50.7041 62.9145 52.0192 59.3399L51.5413 59.1641ZM57.7493 58.5805C55.81 58.834 53.8148 58.9763 51.7776 58.9974L51.7829 59.5066C53.8403 59.4852 55.8558 59.3415 57.8153 59.0854L57.7493 58.5805ZM40.6408 65.8408C40.8946 67.1241 41.192 68.3881 41.5316 69.63L42.0228 69.4957C41.6864 68.2656 41.3918 67.0135 41.1404 65.742L40.6408 65.8408ZM31.7667 55.8176C31.7667 61.0642 35.732 65.3914 40.8585 66.044L40.9228 65.5388C36.0424 64.9176 32.2759 60.7996 32.2759 55.8176H31.7667ZM31.7806 55.2811C31.7714 55.4588 31.7667 55.6377 31.7667 55.8176H32.2759C32.2759 55.6465 32.2804 55.4764 32.2891 55.3075L31.7806 55.2811ZM29.1524 54.1334C30.0452 54.6277 30.972 55.0927 31.9299 55.5262L32.1399 55.0623C31.1941 54.6343 30.2795 54.1755 29.3991 53.688L29.1524 54.1334ZM29.4755 55.1812C29.4755 54.7605 29.4938 54.3441 29.5294 53.9327L29.0221 53.8887C28.9852 54.3147 28.9663 54.7457 28.9663 55.1812H29.4755ZM41.8112 69.3105C34.846 68.3721 29.4755 62.4036 29.4755 55.1812H28.9663C28.9663 62.662 34.5287 68.8431 41.7432 69.8151L41.8112 69.3105ZM43.0782 63.8224C45.9939 63.6405 48.4727 61.85 49.6389 59.3289L49.1768 59.1151C48.0866 61.4719 45.7696 63.1443 43.0465 63.3142L43.0782 63.8224ZM43.0465 63.3142C42.8947 63.3237 42.7416 63.3285 42.5874 63.3285V63.8377C42.7522 63.8377 42.9159 63.8325 43.0782 63.8224L43.0465 63.3142ZM42.5874 63.3285C41.8707 63.3285 41.1788 63.2247 40.5255 63.0314L40.381 63.5197C41.0807 63.7267 41.8213 63.8377 42.5874 63.8377V63.3285ZM40.5255 63.0314C37.6579 62.1831 35.5309 59.6105 35.3446 56.5155L34.8363 56.5461C35.0358 59.8596 37.3125 62.6119 40.381 63.5197L40.5255 63.0314ZM35.3446 56.5155C35.3357 56.3689 35.3312 56.2211 35.3312 56.0723H34.822C34.822 56.2314 34.8268 56.3893 34.8363 56.5461L35.3446 56.5155ZM35.3312 56.0723C35.3312 55.3517 35.4362 54.6562 35.6315 53.9997L35.1434 53.8546C34.9343 54.5576 34.822 55.3021 34.822 56.0723H35.3312ZM35.6315 53.9997C36.2943 51.7717 37.9992 49.9914 40.1808 49.2247L40.0119 48.7443C37.677 49.5649 35.853 51.4694 35.1434 53.8546L35.6315 53.9997ZM40.1808 49.2247C40.9335 48.9601 41.7434 48.8161 42.5874 48.8161V48.3069C41.6851 48.3069 40.8182 48.4609 40.0119 48.7443L40.1808 49.2247ZM42.5874 48.8161C42.622 48.8161 42.6565 48.8164 42.691 48.8169L42.6981 48.3077C42.6613 48.3072 42.6244 48.3069 42.5874 48.3069V48.8161ZM50.3528 56.0723C50.3528 51.8206 46.9358 48.367 42.6981 48.3077L42.691 48.8169C46.6507 48.8722 49.8436 52.0994 49.8436 56.0723H50.3528ZM50.3265 56.7156C50.3439 56.5034 50.3528 56.2889 50.3528 56.0723H49.8436C49.8436 56.275 49.8353 56.4756 49.819 56.674L50.3265 56.7156ZM49.819 56.674C49.748 57.5398 49.525 58.3624 49.1768 59.1151L49.6389 59.3289C50.0118 58.5229 50.2505 57.6422 50.3265 56.7156L49.819 56.674ZM43.0409 46.0496C48.1364 46.4685 52.1349 50.6845 52.1349 55.8176H52.6441C52.6441 50.4119 48.4347 45.9821 43.0826 45.5421L43.0409 46.0496ZM43.6916 41.2577C43.3372 42.7638 43.0441 44.2645 42.8102 45.7565L43.3133 45.8353C43.5452 44.356 43.8358 42.868 44.1873 41.3744L43.6916 41.2577ZM43.8472 40.6122C43.7942 40.8267 43.7424 41.0419 43.6916 41.2577L44.1873 41.3744C44.2376 41.1603 44.289 40.9469 44.3415 40.7342L43.8472 40.6122ZM58.5002 55.1812C58.5002 47.1484 52.0865 40.6137 44.1006 40.4187L44.0881 40.9278C51.7984 41.116 57.991 47.4255 57.991 55.1812H58.5002ZM58.4642 56.2207C58.4881 55.8773 58.5002 55.5306 58.5002 55.1812H57.991C57.991 55.5188 57.9793 55.8537 57.9562 56.1854L58.4642 56.2207ZM52.357 56.9508C54.3744 56.9052 56.3427 56.736 58.2474 56.4549L58.173 55.9512C56.2893 56.2292 54.342 56.3966 52.3454 56.4417L52.357 56.9508ZM52.1349 55.8176C52.1349 56.1062 52.1223 56.3919 52.0976 56.674L52.6048 56.7185C52.6309 56.4216 52.6441 56.1211 52.6441 55.8176H52.1349ZM41.1857 40.7922C40.7898 42.4894 40.4686 44.1832 40.2197 45.8688L40.7235 45.9432C40.9703 44.2714 41.2889 42.5914 41.6816 40.9079L41.1857 40.7922ZM30.0034 51.3237C31.4879 46.0291 35.953 41.9804 41.4737 41.1015L41.3936 40.5986C35.6745 41.5091 31.0507 45.7023 29.5131 51.1862L30.0034 51.3237ZM32.6252 52.4814C31.6737 52.0312 30.7599 51.5482 29.8873 51.0354L29.6293 51.4744C30.5154 51.9952 31.4426 52.4852 32.4074 52.9417L32.6252 52.4814ZM40.4291 45.655C36.5838 46.3063 33.4562 49.0349 32.2745 52.6321L32.7582 52.791C33.8809 49.3735 36.855 46.7768 40.5141 46.157L40.4291 45.655ZM44.7584 38.4082C53.5614 38.9378 60.5371 46.2449 60.5371 55.1812H61.0463C61.0463 45.974 53.8592 38.4456 44.789 37.8999L44.7584 38.4082ZM49.5591 26.0598C47.4999 29.7367 45.7951 33.7623 44.5294 38.0824L45.018 38.2256C46.2731 33.9419 47.9631 29.9519 50.0034 26.3086L49.5591 26.0598ZM74.7206 50.1398C73.7355 36.9863 63.0481 26.5381 49.7929 25.9299L49.7696 26.4385C62.7667 27.0349 73.2469 37.2804 74.2128 50.1778L74.7206 50.1398ZM60.834 55.9972C66.1126 54.9046 70.8179 52.938 74.6095 50.3696L74.3239 49.948C70.593 52.4753 65.9509 54.4181 60.7308 55.4986L60.834 55.9972ZM60.5371 55.1812C60.5371 55.3681 60.534 55.5542 60.5279 55.7396L61.0369 55.7562C61.0431 55.5653 61.0463 55.3736 61.0463 55.1812H60.5371ZM46.6562 26.0915C44.6871 29.815 43.0668 33.8464 41.8682 38.1301L42.3585 38.2673C43.5474 34.0184 45.1543 30.0208 47.1063 26.3296L46.6562 26.0915ZM23.5426 46.1967C26.0959 35.3774 35.4839 27.1975 46.8976 26.4646L46.8649 25.9565C35.224 26.7039 25.651 35.046 23.047 46.0798L23.5426 46.1967ZM27.6807 49.6137C26.0856 48.4874 24.6812 47.2642 23.4819 45.9655L23.1078 46.311C24.3333 47.6381 25.7651 48.8845 27.387 50.0296L27.6807 49.6137ZM42.0895 37.9452C35.1527 38.5987 29.4076 43.3441 27.2921 49.7417L27.7756 49.9016C29.8289 43.6919 35.4059 39.0863 42.1372 38.4522L42.0895 37.9452ZM51.2149 23.9871C64.3513 25.2059 74.8805 35.4163 76.5887 48.4048L77.0936 48.3384C75.3545 35.1151 64.636 24.721 51.262 23.4801L51.2149 23.9871ZM55.2573 17.7898C53.7417 19.5941 52.3246 21.5338 51.0231 23.5978L51.4538 23.8694C52.7432 21.8247 54.1467 19.9037 55.6472 18.1173L55.2573 17.7898ZM82.2 42.3621C79.0185 29.6774 68.5456 19.8863 55.4943 17.7024L55.4103 18.2046C68.2603 20.3548 78.5735 29.9962 81.7061 42.4859L82.2 42.3621ZM77.0046 48.5668C79.1805 46.7447 80.9216 44.7168 82.1735 42.5514L81.7326 42.2966C80.5142 44.4042 78.8138 46.3875 76.6777 48.1764L77.0046 48.5668ZM52.2793 17.4363C50.7862 19.3288 49.3958 21.3477 48.1234 23.4809L48.5608 23.7418C49.8219 21.6273 51.1998 19.6267 52.679 17.7517L52.2793 17.4363ZM49.971 17.7546C50.8085 17.7546 51.6385 17.7861 52.4601 17.8479L52.4983 17.3401C51.664 17.2773 50.8212 17.2454 49.971 17.2454V17.7546ZM19.268 39.1452C23.876 26.6579 35.8841 17.7546 49.971 17.7546V17.2454C35.664 17.2454 23.4697 26.288 18.7903 38.9689L19.268 39.1452ZM21.537 43.5354C20.5387 42.0779 19.7782 40.5509 19.2715 38.9789L18.7868 39.1352C19.3097 40.7573 20.093 42.3282 21.1168 43.8231L21.537 43.5354ZM48.3401 23.3567C35.5181 23.4574 24.6943 31.9454 21.0837 43.604L21.5701 43.7546C25.1169 32.302 35.7499 23.9648 48.3441 23.8659L48.3401 23.3567ZM45.9825 80.6678C46.5217 81.6439 47.0923 82.5944 47.6932 83.5174L48.1199 83.2396C47.5258 82.327 46.9616 81.387 46.4282 80.4216L45.9825 80.6678ZM19.8005 52.1259C19.8005 67.2117 31.4114 79.5854 46.1845 80.7985L46.2261 80.291C31.7151 79.0994 20.3097 66.9445 20.3097 52.1259H19.8005ZM20.291 46.8084C19.9689 48.5319 19.8005 50.3094 19.8005 52.1259H20.3097C20.3097 50.3409 20.4752 48.5948 20.7916 46.9019L20.291 46.8084ZM17.6531 42.9941C18.3849 44.3993 19.2886 45.7447 20.3454 47.0178L20.7372 46.6925C19.7018 45.4453 18.8187 44.1299 18.1047 42.7589L17.6531 42.9941ZM17.2546 50.471C17.2546 47.8772 17.5564 45.3541 18.1267 42.935L17.6311 42.8181C17.0518 45.2753 16.7454 47.8375 16.7454 50.471H17.2546ZM47.9223 83.1244C30.808 82.067 17.2546 67.8517 17.2546 50.471H16.7454C16.7454 68.1224 30.5098 82.5588 47.8909 83.6326L47.9223 83.1244Z" fill="#B2B2B2" mask="url(#path-4-inside-1_405_497)"/>
<path d="M64.1154 42.9873C59.4587 45.323 51.9308 46.8706 49.2487 47.372C49.0468 47.4097 48.8975 47.2085 48.9893 47.0277C50.0564 44.9257 52.8352 39.5676 55.1484 36.1C55.5698 35.4682 55.9461 34.8868 56.3001 34.3398C57.6933 32.1873 58.7421 30.5667 60.8435 28.5023C62.874 26.5075 66.3713 24.2604 67.7424 23.4099C68.062 23.2117 68.4377 23.1279 68.8163 23.1647L75.0173 23.7676C76.1914 23.8818 77.087 24.8687 77.087 26.0483V32.415C77.087 32.9024 76.8916 33.3618 76.537 33.6886C74.6296 35.4465 68.8127 40.6313 64.1154 42.9873Z" fill="white" stroke="#B2B2B2" stroke-width="0.509205"/>
<path d="M48.9152 47.0881C59.733 36.482 65.7574 31.1954 76.326 24.6323" stroke="#B2B2B2" stroke-width="0.254603"/>
<path d="M28.9809 44.3898L28.979 44.3891L28.9476 44.3609C28.9005 44.3184 28.8311 44.2554 28.7421 44.1739C28.5642 44.011 28.3081 43.7742 27.9961 43.4792C27.372 42.8892 26.525 42.0672 25.633 41.1391C24.7406 40.2106 23.8055 39.1782 23.0041 38.1671C22.2001 37.1527 21.5417 36.1734 21.1912 35.3498C20.6916 34.176 20.5422 32.5354 20.5667 30.8847C20.5911 29.2416 20.7868 27.621 20.9559 26.5063C21.07 25.7543 21.6868 25.1868 22.456 25.1024L29.9317 24.2822C29.0907 29.3422 29.2315 33.0602 30.3566 36.4813C31.4479 39.7992 33.4584 42.8156 36.3441 46.4909C34.8211 46.1201 33.118 45.6385 31.7263 45.2276C30.9207 44.9898 30.2206 44.7759 29.722 44.6216C29.4727 44.5444 29.2738 44.4821 29.1373 44.4392L28.9809 44.3898Z" fill="white" stroke="#B2B2B2" stroke-width="0.509205"/>
<path d="M21.1772 25.8277C20.9842 34.5024 25.3688 38.8978 35.9442 46.4505" stroke="#B2B2B2" stroke-width="0.254603"/>
<path d="M21.268 65.1639L32.9493 61.2004L28.2404 73.0818C27.9568 73.7972 27.2462 74.2498 26.478 74.2043L21.7793 73.9257C20.8433 73.8702 20.1104 73.099 20.1026 72.1614L20.0585 66.8665C20.0521 66.0974 20.5397 65.411 21.268 65.1639Z" fill="white" stroke="#B2B2B2" stroke-width="0.509205"/>
<path d="M20.4761 73.166C25.5857 68.7669 28.2274 66.1847 32.697 61.4543" stroke="#B2B2B2" stroke-width="0.254603"/>
<path d="M49.7682 64.8654C49.6516 64.4092 49.5579 64.023 49.4875 63.7237C53.3673 66.7972 56.5482 69.0533 59.9391 70.8076C63.4447 72.6212 67.1653 73.8937 72.1032 74.9863C71.9626 76.5514 71.6784 77.791 71.1383 79.0073C70.5715 80.2837 69.717 81.5477 68.4259 83.1429C68.3727 83.2086 68.3222 83.278 68.2759 83.3415L68.2653 83.356C68.2146 83.4256 68.1683 83.4885 68.1202 83.5461C68.0237 83.662 67.9367 83.7359 67.8404 83.773C67.4682 83.9161 66.7568 83.992 65.8182 83.9478C64.8902 83.9042 63.7707 83.7449 62.6006 83.4416C60.254 82.8336 57.7421 81.657 56.1507 79.7162C53.9347 77.0135 52.2279 72.8512 51.0728 69.3401C50.4967 67.589 50.0604 66.0083 49.7682 64.8654Z" fill="white" stroke="#B2B2B2" stroke-width="0.509205"/>
<path d="M67.8267 83.783C56.7899 76.7405 53.1039 72.3412 49.4953 63.924" stroke="#B2B2B2" stroke-width="0.254603"/>
<defs>
<linearGradient id="paint0_linear_405_497" x1="106.5" y1="2.5" x2="43.5" y2="100.5" gradientUnits="userSpaceOnUse">
<stop stop-color="#B2B2B2"/>
<stop offset="1" stop-color="#C0C0C0"/>
</linearGradient>
<linearGradient id="paint1_linear_405_497" x1="2" y1="29.5" x2="24.5" y2="98.5" gradientUnits="userSpaceOnUse">
<stop stop-color="#DBDCDC" stop-opacity="0.5"/>
<stop offset="1" stop-color="#DBDCDC" stop-opacity="0"/>
</linearGradient>
<linearGradient id="paint2_linear_405_497" x1="87.4998" y1="9.5" x2="12.9998" y2="129" gradientUnits="userSpaceOnUse">
<stop stop-color="white"/>
<stop offset="1" stop-color="white" stop-opacity="0"/>
</linearGradient>
</defs>
</svg>
